<?xml version="1.0" encoding="UTF-8"?>
<svg version="1.1" xmlns="http://www.w3.org/2000/svg" width="573" height="115">
<path d="M0 0 C8.91 0 17.82 0 27 0 C27 8.25 27 16.5 27 25 C34.77743223 24.88224438 34.77743223 24.88224438 42.55419922 24.72973633 C52.90694301 24.65139579 60.99124168 26.30216837 69.0234375 33.04296875 C75.81646807 39.76887451 78.05660365 47.32135972 78.375 56.75 C78.20176963 66.34900029 75.77094462 74.25889513 69.05078125 81.28125 C59.83774558 89.00265133 49.064128 90.31164997 37.5 90.1953125 C36.54480469 90.19329834 35.58960938 90.19128418 34.60546875 90.18920898 C31.07026297 90.17882123 27.53512617 90.1508992 24 90.125 C16.08 90.08375 8.16 90.0425 0 90 C0 60.3 0 30.6 0 0 Z M27 47 C27 53.93 27 60.86 27 68 C29.371875 68.04125 31.74375 68.0825 34.1875 68.125 C34.92508545 68.14320801 35.6626709 68.16141602 36.42260742 68.18017578 C41.82060178 68.22537168 45.29295746 67.48243168 49.375 63.9375 C51.38897169 60.29685887 51.33539075 58.1282973 50.68359375 54.08984375 C49.63573997 50.88640506 47.86446798 49.63683884 45 48 C41.37918537 46.79306179 38.0749281 46.89217921 34.3125 46.9375 C31.899375 46.958125 29.48625 46.97875 27 47 Z " fill="#FFFFFF" transform="translate(80,0)"/>
<path d="M0 0 C7.693125 -0.061875 15.38625 -0.12375 23.3125 -0.1875 C25.71829346 -0.21481201 28.12408691 -0.24212402 30.6027832 -0.27026367 C32.54377747 -0.27903858 34.48477733 -0.28668013 36.42578125 -0.29296875 C37.89597717 -0.3159906 37.89597717 -0.3159906 39.39587402 -0.33947754 C51.89229628 -0.34413286 61.81424356 2.95170481 70.8125 11.75 C77.08669589 21.07166247 78.08234285 30.02035711 77 41 C75.39032079 48.23879409 71.64017148 54.19303567 66 59 C59.16973482 63.29026032 53.10125438 65.13898079 45.04296875 65.09765625 C44.04031982 65.09515869 43.0376709 65.09266113 42.00463867 65.09008789 C40.74498291 65.08098389 39.48532715 65.07187988 38.1875 65.0625 C34.165625 65.041875 30.14375 65.02125 26 65 C26 73.25 26 81.5 26 90 C17.42 90 8.84 90 0 90 C0 60.3 0 30.6 0 0 Z M26 22 C26 28.93 26 35.86 26 43 C28.371875 43.04125 30.74375 43.0825 33.1875 43.125 C33.92508545 43.14320801 34.6626709 43.16141602 35.42260742 43.18017578 C40.84670649 43.22559025 44.34897505 42.56178036 48.3125 38.8125 C50.44903142 35.2516143 50.44651067 33.09301448 50 29 C49.18670395 25.7468158 48.15039347 25.09793063 45.3125 23.25 C39.36753532 20.89996055 32.23034117 21.83459271 26 22 Z " fill="#FFFFFF" transform="translate(0,25)"/>
<path d="M0 0 C2.31 0 4.62 0 7 0 C7 8.91 7 17.82 7 27 C4.628125 27.268125 2.25625 27.53625 -0.1875 27.8125 C-0.92508545 27.91022705 -1.6626709 28.0079541 -2.42260742 28.10864258 C-6.35900526 28.45895806 -7.79137239 28.16406097 -10.92578125 25.69921875 C-13 23 -13 23 -14 20 C-18.29 20 -22.58 20 -27 20 C-22.76358987 20.84728203 -19.27587998 21.08384078 -15 21 C-15.2958675 23.86005251 -15.84079164 24.85571743 -18 26.8125 C-22.22266853 28.48397296 -25.65129959 28.17861974 -30 27 C-33.30565402 24.85132489 -33.86364068 23.48180294 -34.9375 19.6875 C-35.01173066 15.30789124 -34.1574961 12.79421729 -32 9 C-28.72246406 6.30773834 -25.09185899 6.70772436 -21 7 C-18.75 7.625 -18.75 7.625 -17 9 C-15.25 12.125 -15.25 12.125 -14 15 C-13.566875 14.05125 -13.13375 13.1025 -12.6875 12.125 C-11 9 -11 9 -8 7 C-2.65454545 6.67272727 -2.65454545 6.67272727 0 8 C0 5.36 0 2.72 0 0 Z M-26 12 C-26.33 12.99 -26.66 13.98 -27 15 C-25.35 15 -23.7 15 -22 15 C-22.33 14.01 -22.66 13.02 -23 12 C-23.99 12 -24.98 12 -26 12 Z M-5 13 C-6.21297649 15.2806707 -6.21297649 15.2806707 -7 18 C-6.23396041 20.2857711 -6.23396041 20.2857711 -5 22 C-2.24358584 21.50243908 -2.24358584 21.50243908 0 20 C-0.28730055 17.66055264 -0.61936779 15.3260857 -1 13 C-2.32 13 -3.64 13 -5 13 Z " fill="#FFFFFF" transform="translate(507,25)"/>
<path d="M0 0 C3.03965634 1.8108591 4.60422231 2.90400023 5.8125 6.25 C5.874375 6.8275 5.93625 7.405 6 8 C-0.625 8.25 -0.625 8.25 -4 6 C-4.66 6 -5.32 6 -6 6 C-6 8.97 -6 11.94 -6 15 C-4.68 14.67 -3.36 14.34 -2 14 C-1.67 13.34 -1.34 12.68 -1 12 C1.64 12 4.28 12 7 12 C7 11.34 7 10.68 7 10 C10.26545761 8.11608215 13.28111761 7.50712033 17 7 C16.01 7 15.02 7 14 7 C11.66666667 7 9.33333333 7 7 7 C7.34442894 4.50289018 7.84703999 3.17845335 9.5 1.25 C13.18240956 -0.59120478 16.97417569 -0.90014029 21 0 C23.234375 1.51171875 23.234375 1.51171875 25 4 C25.44888571 6.86596259 25.69425198 9.3815111 25.75 12.25 C25.77964844 12.99507812 25.80929687 13.74015625 25.83984375 14.5078125 C25.9102343 16.33796672 25.95741832 18.16898769 26 20 C24.03873698 19.97965495 22.07747396 19.9593099 20.11621094 19.93896484 C17.71468988 19.96025919 17.71468988 19.96025919 14.25 20.625 C10.87963154 21.01388867 9.71838625 20.91293847 7 19 C6.34 18.34 5.68 17.68 5 17 C4.59394531 17.47566406 4.18789063 17.95132813 3.76953125 18.44140625 C0.67702933 21.16526556 -2.99563985 21.24558256 -7 21 C-12.39759036 18.20481928 -12.39759036 18.20481928 -14 15 C-14.55512815 10.36786507 -14.6364242 7.01827873 -12.125 3 C-8.4543805 -0.45470071 -4.88791112 -0.68355845 0 0 Z M13 13 C13.33 13.99 13.66 14.98 14 16 C15.32 15.67 16.64 15.34 18 15 C18 14.01 18 13.02 18 12 C15.0745356 11.7763932 15.0745356 11.7763932 13 13 Z " fill="#FFFFFF" transform="translate(539,32)"/>
<path d="M0 0 C2.701875 -0.103125 5.40375 -0.20625 8.1875 -0.3125 C9.02949951 -0.35802002 9.87149902 -0.40354004 10.73901367 -0.45043945 C14.92602796 -0.52758045 16.57964801 -0.3096486 20.0703125 2.26171875 C22 5 22 5 22.19921875 7.1328125 C22.03035156 7.79023437 21.86148437 8.44765625 21.6875 9.125 C20.53118511 13.04592716 20.53118511 13.04592716 23 16 C23.59390059 19.90277529 23.398591 21.45173728 21.0546875 24.67578125 C16.8556706 27.87068541 13.79217618 27.57235603 8.6875 27.3125 C4.3871875 27.1578125 4.3871875 27.1578125 0 27 C0 18.09 0 9.18 0 0 Z M7 6 C7 7.32 7 8.64 7 10 C9.31 10 11.62 10 14 10 C14 9.01 14 8.02 14 7 C12.87465895 5.64381501 12.87465895 5.64381501 9.9375 5.9375 C8.968125 5.958125 7.99875 5.97875 7 6 Z M7 16 C7 17.65 7 19.3 7 21 C9.31 21 11.62 21 14 21 C14.59070014 19.05396726 14.59070014 19.05396726 15 17 C13.81575674 15.58422523 13.81575674 15.58422523 10.4375 15.9375 C8.7359375 15.9684375 8.7359375 15.9684375 7 16 Z " fill="#FFFFFF" transform="translate(385,25)"/>
<path d="M0 0 C2.413125 -0.020625 4.82625 -0.04125 7.3125 -0.0625 C8.06829346 -0.071604 8.82408691 -0.08070801 9.6027832 -0.09008789 C12.6839493 -0.10287966 15.05605196 0.01868399 18 1 C18.66 0.67 19.32 0.34 20 0 C23.43193041 -0.37303591 25.29683777 -0.48515674 28.1796875 1.50390625 C30.7169394 4.9830993 30.43947803 8.12520896 30.25 12.25 C30.23195313 12.99507812 30.21390625 13.74015625 30.1953125 14.5078125 C30.14835649 16.33909701 30.07661652 18.16971649 30 20 C27.69 20 25.38 20 23 20 C22.505 13.565 22.505 13.565 22 7 C21.01 7.33 20.02 7.66 19 8 C18.67 11.96 18.34 15.92 18 20 C15.69 20 13.38 20 11 20 C10.67 15.71 10.34 11.42 10 7 C9.34 7 8.68 7 8 7 C7.67 11.29 7.34 15.58 7 20 C4.69 20 2.38 20 0 20 C0 13.4 0 6.8 0 0 Z " fill="#FFFFFF" transform="translate(441,32)"/>
<path d="M0 0 C1.05960937 0.00676758 1.05960937 0.00676758 2.140625 0.01367188 C3.88545275 0.02546125 5.630237 0.04339676 7.375 0.0625 C7.43316623 3.47909491 7.46865195 6.89556205 7.5 10.3125 C7.52513672 11.76462891 7.52513672 11.76462891 7.55078125 13.24609375 C7.55722656 14.18066406 7.56367188 15.11523438 7.5703125 16.078125 C7.58078613 16.93696289 7.59125977 17.79580078 7.60205078 18.68066406 C7.35396327 21.28318211 6.76412538 22.8600651 5.375 25.0625 C1.46218168 27.55247529 -2.11620297 27.08983622 -6.5390625 26.64453125 C-9.04809949 25.94444415 -10.02414352 25.09510262 -11.625 23.0625 C-11.955 22.0725 -12.285 21.0825 -12.625 20.0625 C-8.665 20.0625 -4.705 20.0625 -0.625 20.0625 C-0.625 19.7325 -0.625 19.4025 -0.625 19.0625 C-2.2028125 19.2171875 -2.2028125 19.2171875 -3.8125 19.375 C-7.625 19.0625 -7.625 19.0625 -10.5625 17.0625 C-12.88563857 13.68338935 -13.24857987 11.98525735 -12.9921875 7.99609375 C-12.46224631 5.205446 -11.37138934 3.27907108 -9.625 1.0625 C-6.55966836 -0.47016582 -3.35745728 -0.04026471 0 0 Z M-4.625 6.0625 C-5.92133621 7.12895115 -5.92133621 7.12895115 -5.6875 9.625 C-5.666875 10.429375 -5.64625 11.23375 -5.625 12.0625 C-3.645 13.0525 -3.645 13.0525 -1.625 14.0625 C0.66228734 12.22366119 0.66228734 12.22366119 0.5 9.4375 C0.45875 8.65375 0.4175 7.87 0.375 7.0625 C-1.28114657 6.68031233 -2.94957024 6.34854898 -4.625 6.0625 Z " fill="#FFFFFF" transform="translate(312.625,31.9375)"/>
<path d="M0 0 C3.83625 -0.061875 3.83625 -0.061875 7.75 -0.125 C8.54889648 -0.14320801 9.34779297 -0.16141602 10.17089844 -0.18017578 C13.93819031 -0.20959292 16.8614789 -0.20481107 20 2 C22.54575791 5.43677318 22.43672876 8.85107675 22 13 C20.6875 15.9375 20.6875 15.9375 18 18 C14.29677822 18.41561338 10.70972047 18.28782314 7 18 C7 20.97 7 23.94 7 27 C4.69 27 2.38 27 0 27 C0 18.09 0 9.18 0 0 Z M7 7 C7 8.65 7 10.3 7 12 C9.31 12 11.62 12 14 12 C14.33 11.01 14.66 10.02 15 9 C14.67 8.34 14.34 7.68 14 7 C11.69 7 9.38 7 7 7 Z " fill="#FFFFFF" transform="translate(183,25)"/>
<path d="M0 0 C3 0 6 0 9 0 C10.134375 -0.061875 11.26875 -0.12375 12.4375 -0.1875 C16 0 16 0 17.875 1.25 C20.38499314 5.15443378 20.10780044 9.21995624 20.0625 13.75 C20.05347656 14.92046875 20.04445313 16.0909375 20.03515625 17.296875 C20.02355469 18.18890625 20.01195312 19.0809375 20 20 C17.69 20 15.38 20 13 20 C12.67 16.04 12.34 12.08 12 8 C11.01 7.67 10.02 7.34 9 7 C7.71553081 9.56893838 7.67022856 11.76576337 7.4375 14.625 C7.31181641 16.12933594 7.31181641 16.12933594 7.18359375 17.6640625 C7.12300781 18.43492188 7.06242187 19.20578125 7 20 C4.69 20 2.38 20 0 20 C0 13.4 0 6.8 0 0 Z " fill="#FFFFFF" transform="translate(279,32)"/>
<path d="M0 0 C2.8100346 1.79363911 4.50940468 3.01880935 6 6 C6.52893101 10.41353907 6.49914819 13.95829942 4.5625 18 C0.90430072 20.85517993 -2.41692096 21.27875615 -7 21 C-10.23340202 19.73475573 -11.63270392 18.42851209 -13.875 15.8125 C-15.4136565 11.96585874 -15.23511388 8.93589624 -14 5 C-10.10442137 0.09911076 -6.14402842 -0.8827627 0 0 Z M-5 5 C-6.66846734 6.69495956 -6.66846734 6.69495956 -8 9 C-7.77802187 11.6984589 -7.77802187 11.6984589 -7 14 C-5.35 14.33 -3.7 14.66 -2 15 C-0.64560332 12.29120665 -0.93498549 9.99066732 -1 7 C-2.32 6.34 -3.64 5.68 -5 5 Z " fill="#FFFFFF" transform="translate(433,32)"/>
<path d="M0 0 C2.8100346 1.79363911 4.50940468 3.01880935 6 6 C6 7.98 6 9.96 6 12 C0.06 12.495 0.06 12.495 -6 13 C-6 13.66 -6 14.32 -6 15 C-5.319375 14.835 -4.63875 14.67 -3.9375 14.5 C-0.5835178 13.92910941 2.60389805 13.93340977 6 14 C4.53025937 18.65417867 4.53025937 18.65417867 2.203125 20.171875 C-1.57830986 21.59326541 -5.14777284 20.99846329 -9 20 C-11.45243461 18.09936318 -12.62927427 16.74145145 -14 14 C-14.54724071 8.30869663 -13.59333707 5.43882815 -10 1 C-6.79826746 -0.60086627 -3.47422941 -0.49917089 0 0 Z M-5 5 C-5.99 6.485 -5.99 6.485 -7 8 C-5.02 8 -3.04 8 -1 8 C-1 7.34 -1 6.68 -1 6 C-2.32 5.67 -3.64 5.34 -5 5 Z " fill="#FFFFFF" transform="translate(219,32)"/>
<path d="M0 0 C2.38527062 1.9082165 3.29939676 2.84348031 4.1875 5.75 C4.63958548 10.72294029 4.34486025 13.80329969 1.1875 17.75 C-2.23426689 20.31632517 -5.65890421 20.11435051 -9.8125 19.75 C-12.63525936 18.49544028 -14.27538541 17.46615278 -16.125 15 C-17.44439267 10.68198763 -17.39770303 7.06670682 -15.5625 2.9375 C-11.49337365 -2.14890794 -5.89510975 -2.62004878 0 0 Z M-6.8125 3.75 C-8.51985301 4.78568595 -8.51985301 4.78568595 -9.8125 6.75 C-9.57772801 10.39541845 -9.57772801 10.39541845 -8.8125 13.75 C-7.8225 14.08 -6.8325 14.41 -5.8125 14.75 C-4.10514699 13.71431405 -4.10514699 13.71431405 -2.8125 11.75 C-3.04727199 8.10458155 -3.04727199 8.10458155 -3.8125 4.75 C-4.8025 4.42 -5.7925 4.09 -6.8125 3.75 Z " fill="#FFFFFF" transform="translate(350.8125,33.25)"/>
<path d="M0 0 C2.3925 -0.0825 4.785 -0.165 7.25 -0.25 C7.99668945 -0.28641602 8.74337891 -0.32283203 9.51269531 -0.36035156 C12.69907309 -0.41348643 14.73390382 -0.16167869 17.46875 1.5 C19.62741002 5.0243429 19.43342869 8.25689854 19.25 12.25 C19.23195312 12.99507812 19.21390625 13.74015625 19.1953125 14.5078125 C19.14835649 16.33909701 19.07661652 18.16971649 19 20 C16.69 20 14.38 20 12 20 C11.67 15.71 11.34 11.42 11 7 C10.01 6.67 9.02 6.34 8 6 C7.67 10.62 7.34 15.24 7 20 C4.69 20 2.38 20 0 20 C0 13.4 0 6.8 0 0 Z " fill="#FFFFFF" transform="translate(227,32)"/>
<path d="M0 0 C2.66666667 0 5.33333333 0 8 0 C9.134375 -0.061875 10.26875 -0.12375 11.4375 -0.1875 C15 0 15 0 16.875 1.375 C19.40957157 5.03604783 19.11410657 8.32180578 19.0625 12.625 C19.05798828 13.33140625 19.05347656 14.0378125 19.04882812 14.765625 C19.03703875 16.51045275 19.01910324 18.255237 19 20 C16.69 20 14.38 20 12 20 C11.67 15.38 11.34 10.76 11 6 C10.01 6.33 9.02 6.66 8 7 C7.67 11.29 7.34 15.58 7 20 C4.69 20 2.38 20 0 20 C0 13.4 0 6.8 0 0 Z " fill="#FFFFFF" transform="translate(357,32)"/>
<path d="M0 0 C2.66666667 0 5.33333333 0 8 0 C9.11375 -0.103125 10.2275 -0.20625 11.375 -0.3125 C15 0 15 0 17.2109375 2.03125 C19.42852127 5.71108333 19.45672665 8.65808943 19.25 12.8125 C19.23195313 13.50537109 19.21390625 14.19824219 19.1953125 14.91210938 C19.14851064 16.60867664 19.07677624 18.30452476 19 20 C16.69 20 14.38 20 12 20 C11.67 15.38 11.34 10.76 11 6 C7.88214887 6.64644661 7.88214887 6.64644661 7 9 C6.7724985 10.87056791 6.59037189 12.74685958 6.4375 14.625 C6.31181641 16.12933594 6.31181641 16.12933594 6.18359375 17.6640625 C6.12300781 18.43492188 6.06242188 19.20578125 6 20 C4.02 20 2.04 20 0 20 C0 13.4 0 6.8 0 0 Z " fill="#FFFFFF" transform="translate(249,32)"/>
<path d="M0 0 C2.578125 -0.061875 5.15625 -0.12375 7.8125 -0.1875 C9.02450073 -0.22846802 9.02450073 -0.22846802 10.26098633 -0.27026367 C15.50042151 -0.3313937 15.50042151 -0.3313937 17.9609375 1.30078125 C19.69042118 4.12907223 19.8308394 6.72956181 20 10 C19.0625 12.9375 19.0625 12.9375 18 15 C18.33 15.33 18.66 15.66 19 16 C19.23363881 17.84891946 19.41303635 19.70488031 19.5625 21.5625 C19.68818359 23.08037109 19.68818359 23.08037109 19.81640625 24.62890625 C19.87699219 25.41136719 19.93757813 26.19382812 20 27 C18.68 27 17.36 27 16 27 C15.87882813 26.28972656 15.75765625 25.57945313 15.6328125 24.84765625 C15.46523437 23.92855469 15.29765625 23.00945312 15.125 22.0625 C14.96257812 21.14597656 14.80015625 20.22945312 14.6328125 19.28515625 C14.42398438 18.53105469 14.21515625 17.77695313 14 17 C11.70370006 15.85185003 9.92301914 15.69230191 7.375 15.4375 C5.93125 15.293125 4.4875 15.14875 3 15 C3 18.96 3 22.92 3 27 C2.01 27 1.02 27 0 27 C0 18.09 0 9.18 0 0 Z M3 3 C3 5.97 3 8.94 3 12 C4.79133978 12.05391993 6.58313899 12.09275571 8.375 12.125 C9.37273437 12.14820312 10.37046875 12.17140625 11.3984375 12.1953125 C14.16262173 12.27216848 14.16262173 12.27216848 16 10 C16.33333333 7.5 16.33333333 7.5 16 5 C14.16262173 2.72783152 14.16262173 2.72783152 11.3984375 2.8046875 C10.40070313 2.82789062 9.40296875 2.85109375 8.375 2.875 C7.37210938 2.89304687 6.36921875 2.91109375 5.3359375 2.9296875 C4.17964844 2.96449219 4.17964844 2.96449219 3 3 Z " fill="#FFFFFF" transform="translate(183,63)"/>
<path d="M0 0 C2.68486605 1.94652789 3.70879324 3.12637972 4.75 6.25 C4.87375 7.11625 4.87375 7.11625 5 8 C3.68 8 2.36 8 1 8 C0.525625 7.360625 0.05125 6.72125 -0.4375 6.0625 C-1.85584127 3.8191349 -1.85584127 3.8191349 -4.375 3.0625 C-7.85398561 2.97966701 -9.3119049 3.82046343 -12 6 C-14.31859478 9.68867351 -14.22075519 12.96014948 -13.53515625 17.12890625 C-12.69687263 20.05983949 -11.53984721 21.35253154 -9 23 C-5.79389169 23.45801547 -3.93136461 23.66526044 -1.25 21.75 C0.0672814 19.90580604 1.07360134 18.06658163 2 16 C2.99 16 3.98 16 5 16 C4.77407627 19.91601134 4.53572471 22.32602376 2.0625 25.4375 C-2.31760802 27.67224899 -6.17578476 27.79345645 -11 27 C-14.64900982 24.87141094 -16.42555741 22.86391587 -18 19 C-18.70644579 12.92640113 -18.78613828 7.04818437 -15 2 C-10.16927698 -1.56553366 -5.61230858 -1.57912865 0 0 Z " fill="#FFFFFF" transform="translate(351,63)"/>
<path d="M0 0 C1.98 0 3.96 0 6 0 C6 1.65 6 3.3 6 5 C7.32 5 8.64 5 10 5 C10 6.65 10 8.3 10 10 C8.68 10 7.36 10 6 10 C6.33 12.97 6.66 15.94 7 19 C7.99 19.33 8.98 19.66 10 20 C10 21.65 10 23.3 10 25 C8.52093108 25.02689216 7.04172517 25.04634621 5.5625 25.0625 C4.32693359 25.07990234 4.32693359 25.07990234 3.06640625 25.09765625 C1 25 1 25 0 24 C-0.07271741 21.64686445 -0.08370868 19.29166332 -0.0625 16.9375 C-0.05347656 15.64714844 -0.04445313 14.35679688 -0.03515625 13.02734375 C-0.02355469 12.02832031 -0.01195312 11.02929688 0 10 C-0.99 10 -1.98 10 -3 10 C-3 8.35 -3 6.7 -3 5 C-2.01 5 -1.02 5 0 5 C0 3.35 0 1.7 0 0 Z " fill="#FFFFFF" transform="translate(324,27)"/>
<path d="M0 0 C3.54648681 0.08566393 4.3508454 0.21015228 7.1875 2.5625 C8.625 5.4375 8.625 5.4375 8.625 11.4375 C4.005 11.4375 -0.615 11.4375 -5.375 11.4375 C-4.385 13.0875 -3.395 14.7375 -2.375 16.4375 C0.66779372 17.10430368 0.66779372 17.10430368 3.625 16.4375 C4.285 15.4475 4.945 14.4575 5.625 13.4375 C6.615 13.4375 7.605 13.4375 8.625 13.4375 C8.3125 15.8125 8.3125 15.8125 7.625 18.4375 C3.62382487 21.10495009 0.32883731 21.26258539 -4.375 20.4375 C-7.26167626 17.98382518 -8.14800412 16.13362069 -9.3125 12.5625 C-9.39301942 8.53652916 -8.2165954 5.98427633 -6.375 2.4375 C-3.99374088 0.05624088 -3.26792462 0.09228359 0 0 Z M-5.375 6.4375 C-5.375 7.0975 -5.375 7.7575 -5.375 8.4375 C-1.745 8.4375 1.885 8.4375 5.625 8.4375 C4.4874438 5.84608714 4.4874438 5.84608714 2.625 3.4375 C-1.16976397 2.67854721 -3.08938754 3.30981979 -5.375 6.4375 Z " fill="#FFFFFF" transform="translate(413.375,69.5625)"/>
<path d="M0 0 C1.3303125 0.00773437 1.3303125 0.00773437 2.6875 0.015625 C3.574375 0.01046875 4.46125 0.0053125 5.375 0 C7.6875 0.265625 7.6875 0.265625 9.6875 2.265625 C9.83247985 4.84626629 9.87427545 7.31506384 9.8125 9.890625 C9.80347656 10.59703125 9.79445313 11.3034375 9.78515625 12.03125 C9.76157603 13.77618598 9.72570461 15.52094795 9.6875 17.265625 C10.6775 17.265625 11.6675 17.265625 12.6875 17.265625 C12.6875 18.255625 12.6875 19.245625 12.6875 20.265625 C10.08222895 20.37355337 7.48141689 20.45287378 4.875 20.515625 C4.13701172 20.54914063 3.39902344 20.58265625 2.63867188 20.6171875 C-2.82413171 20.71606177 -2.82413171 20.71606177 -5.32421875 18.41015625 C-6.3125 16.265625 -6.3125 16.265625 -6.3125 13.703125 C-4.95608497 10.39686336 -3.54891882 9.70403336 -0.3125 8.265625 C3 7.578125 3 7.578125 5.6875 7.265625 C5.6875 6.275625 5.6875 5.285625 5.6875 4.265625 C2.6875 2.93229167 2.6875 2.93229167 -0.3125 4.265625 C-1.3025 5.750625 -1.3025 5.750625 -2.3125 7.265625 C-3.3025 7.265625 -4.2925 7.265625 -5.3125 7.265625 C-4.2422356 0.48728382 -4.2422356 0.48728382 0 0 Z M-1.3125 12.265625 C-1.90320014 14.21165774 -1.90320014 14.21165774 -2.3125 16.265625 C-1.20083136 17.59750293 -1.20083136 17.59750293 1.625 17.453125 C4.79642859 17.59841233 4.79642859 17.59841233 6.6875 15.265625 C6.85437448 12.68208282 6.85437448 12.68208282 6.6875 10.265625 C4.05173317 10.265625 1.20236589 11.53402765 -1.3125 12.265625 Z " fill="#FFFFFF" transform="translate(265.3125,69.734375)"/>
<path d="M0 0 C3.54648681 0.08566393 4.3508454 0.21015228 7.1875 2.5625 C8.625 5.4375 8.625 5.4375 8.625 11.4375 C4.005 11.4375 -0.615 11.4375 -5.375 11.4375 C-4.385 13.0875 -3.395 14.7375 -2.375 16.4375 C0.66779372 17.10430368 0.66779372 17.10430368 3.625 16.4375 C4.285 15.4475 4.945 14.4575 5.625 13.4375 C6.615 13.4375 7.605 13.4375 8.625 13.4375 C8.3125 15.8125 8.3125 15.8125 7.625 18.4375 C3.59964442 21.12107039 0.35250362 21.11285766 -4.375 20.4375 C-7.71777103 18.3482681 -8.24128136 16.90997253 -9.3125 13.125 C-9.38966297 8.57238484 -8.49029662 6.43306028 -6.375 2.4375 C-3.99374088 0.05624088 -3.26792462 0.09228359 0 0 Z M-0.375 2.4375 C-3.10986777 4.17537565 -3.10986777 4.17537565 -5.375 6.4375 C-5.375 7.0975 -5.375 7.7575 -5.375 8.4375 C-1.745 8.4375 1.885 8.4375 5.625 8.4375 C3.58697865 4.37725679 3.58697865 4.37725679 -0.375 2.4375 Z " fill="#FFFFFF" transform="translate(249.375,69.5625)"/>
<path d="M0 0 C2.12890625 0.4140625 2.12890625 0.4140625 4.69140625 1.9765625 C6.12890625 4.4140625 6.12890625 4.4140625 6.12890625 11.4140625 C1.50890625 11.4140625 -3.11109375 11.4140625 -7.87109375 11.4140625 C-6.88109375 13.0640625 -5.89109375 14.7140625 -4.87109375 16.4140625 C-1.82830003 17.08086618 -1.82830003 17.08086618 1.12890625 16.4140625 C1.78890625 15.4240625 2.44890625 14.4340625 3.12890625 13.4140625 C4.11890625 13.4140625 5.10890625 13.4140625 6.12890625 13.4140625 C5.81640625 15.7890625 5.81640625 15.7890625 5.12890625 18.4140625 C1.10812618 21.09458254 -2.14877803 21.20679781 -6.87109375 20.4140625 C-9.85326048 18.23198929 -10.67632423 16.66468783 -11.2421875 13.03125 C-11.4448149 8.91729976 -11.16641089 6.05605628 -9.43359375 2.2890625 C-6.16644528 -0.10153394 -3.978879 -0.24908962 0 0 Z M-4.87109375 3.4140625 C-6.80650855 5.80463192 -6.80650855 5.80463192 -7.87109375 8.4140625 C-4.24109375 8.4140625 -0.61109375 8.4140625 3.12890625 8.4140625 C2.46890625 6.7640625 1.80890625 5.1140625 1.12890625 3.4140625 C-1.74474166 2.99659642 -1.74474166 2.99659642 -4.87109375 3.4140625 Z " fill="#FFFFFF" transform="translate(368.87109375,69.5859375)"/>
<path d="M0 0 C2.58150882 0.57049919 3.48013712 1.43376427 5.12109375 3.46875 C6.12109375 5.46875 6.12109375 5.46875 6.12109375 11.46875 C1.50109375 11.46875 -3.11890625 11.46875 -7.87890625 11.46875 C-6.88890625 13.11875 -5.89890625 14.76875 -4.87890625 16.46875 C-1.83611253 17.13555368 -1.83611253 17.13555368 1.12109375 16.46875 C1.78109375 15.47875 2.44109375 14.48875 3.12109375 13.46875 C4.11109375 13.46875 5.10109375 13.46875 6.12109375 13.46875 C5.80859375 15.84375 5.80859375 15.84375 5.12109375 18.46875 C1.10031368 21.14927004 -2.15659053 21.26148531 -6.87890625 20.46875 C-9.86107298 18.28667679 -10.68413673 16.71937533 -11.25 13.0859375 C-11.4526274 8.97198726 -11.17422339 6.11074378 -9.44140625 2.34375 C-6.16769914 -0.05164545 -3.96805443 -0.05353193 0 0 Z M-4.87890625 3.46875 C-6.81432105 5.85931942 -6.81432105 5.85931942 -7.87890625 8.46875 C-4.24890625 8.46875 -0.61890625 8.46875 3.12109375 8.46875 C2.46109375 6.81875 1.80109375 5.16875 1.12109375 3.46875 C-1.75255416 3.05128392 -1.75255416 3.05128392 -4.87890625 3.46875 Z " fill="#FFFFFF" transform="translate(215.87890625,69.53125)"/>
<path d="M0 0 C2.31 0 4.62 0 7 0 C7 8.91 7 17.82 7 27 C4.69 27 2.38 27 0 27 C0 18.09 0 9.18 0 0 Z " fill="#FFFFFF" transform="translate(566,25)"/>
<path d="M0 0 C2.0625 1.875 2.0625 1.875 3 4 C3 4.66 3 5.32 3 6 C1.68 6 0.36 6 -1 6 C-1.33 5.34 -1.66 4.68 -2 4 C-5.02934491 3.34227572 -5.02934491 3.34227572 -8 3 C-8 4.32 -8 5.64 -8 7 C-7.37351563 7.12117188 -6.74703125 7.24234375 -6.1015625 7.3671875 C-5.28429687 7.53476563 -4.46703125 7.70234375 -3.625 7.875 C-2.81289062 8.03742188 -2.00078125 8.19984375 -1.1640625 8.3671875 C1 9 1 9 3 11 C3.3125 14.5 3.3125 14.5 3 18 C-0.09780948 20.06520632 -0.9540481 20.29477024 -4.5 20.3125 C-5.66015625 20.33763672 -5.66015625 20.33763672 -6.84375 20.36328125 C-9.50957629 19.91414747 -10.35732602 19.10547067 -12 17 C-12.6875 14.8125 -12.6875 14.8125 -13 13 C-11.68 13 -10.36 13 -9 13 C-8.01 14.485 -8.01 14.485 -7 16 C-3.91634129 16.2502157 -3.91634129 16.2502157 -1 16 C-1 15.01 -1 14.02 -1 13 C-1.62648437 12.80664062 -2.25296875 12.61328125 -2.8984375 12.4140625 C-3.71570313 12.15367188 -4.53296875 11.89328125 -5.375 11.625 C-6.59316406 11.24214844 -6.59316406 11.24214844 -7.8359375 10.8515625 C-10 10 -10 10 -12 8 C-11.75 4.4375 -11.75 4.4375 -11 1 C-7.5625462 -0.7187269 -3.75910656 -0.51636079 0 0 Z " fill="#FFFFFF" transform="translate(236,70)"/>
<path d="M0 0 C0.99 0 1.98 0 3 0 C3.33 2.64 3.66 5.28 4 8 C4.33 7.67 4.66 7.34 5 7 C10.79588336 6.53259005 10.79588336 6.53259005 13 7 C15.89363057 9.49227689 16.00351152 11.04663293 16.29296875 14.890625 C16.27314945 16.34404009 16.23754845 17.79731167 16.1875 19.25 C16.16719727 20.36761719 16.16719727 20.36761719 16.14648438 21.5078125 C16.11127204 23.33885416 16.05746851 25.16952169 16 27 C15.01 27 14.02 27 13 27 C12.93941406 26.09636719 12.87882812 25.19273438 12.81640625 24.26171875 C12.69072266 22.49248047 12.69072266 22.49248047 12.5625 20.6875 C12.48128906 19.51574219 12.40007812 18.34398437 12.31640625 17.13671875 C12.1132629 13.97409042 12.1132629 13.97409042 11 11 C8.58380177 10.74969023 8.58380177 10.74969023 6 11 C3.65229357 14.52155964 3.62330386 16.50771843 3.375 20.6875 C3.30023438 21.86699219 3.22546875 23.04648438 3.1484375 24.26171875 C3.09945313 25.16535156 3.05046875 26.06898437 3 27 C2.01 27 1.02 27 0 27 C0 18.09 0 9.18 0 0 Z " fill="#FFFFFF" transform="translate(308,63)"/>
<path d="M0 0 C2.12890625 0.4296875 2.12890625 0.4296875 4.69140625 2.2421875 C6.12890625 4.4296875 6.12890625 4.4296875 6.12890625 7.4296875 C4.19140625 7.0546875 4.19140625 7.0546875 2.12890625 6.4296875 C1.79890625 5.7696875 1.46890625 5.1096875 1.12890625 4.4296875 C-1.78743504 4.1794718 -1.78743504 4.1794718 -4.87109375 4.4296875 C-7.18441861 7.89967479 -7.21066938 9.35477998 -6.87109375 13.4296875 C-5.88109375 14.9146875 -5.88109375 14.9146875 -4.87109375 16.4296875 C-1.78743504 16.6799032 -1.78743504 16.6799032 1.12890625 16.4296875 C1.78890625 15.1096875 2.44890625 13.7896875 3.12890625 12.4296875 C4.11890625 12.4296875 5.10890625 12.4296875 6.12890625 12.4296875 C5.81640625 15.3046875 5.81640625 15.3046875 5.12890625 18.4296875 C1.10812618 21.11020754 -2.14877803 21.22242281 -6.87109375 20.4296875 C-9.85326048 18.24761429 -10.67632423 16.68031283 -11.2421875 13.046875 C-11.4448149 8.93292476 -11.16641089 6.07168128 -9.43359375 2.3046875 C-6.16594957 -0.08627166 -3.9784892 -0.22284783 0 0 Z " fill="#FFFFFF" transform="translate(299.87109375,69.5703125)"/>
<path d="M0 0 C9.9609375 -0.1953125 9.9609375 -0.1953125 13 0 C15 2 15 2 15.22705078 3.87939453 C15.21134033 4.99483643 15.21134033 4.99483643 15.1953125 6.1328125 C15.18564453 7.34130859 15.18564453 7.34130859 15.17578125 8.57421875 C15.15902344 9.41597656 15.14226562 10.25773437 15.125 11.125 C15.11597656 11.97449219 15.10695313 12.82398437 15.09765625 13.69921875 C15.07405647 15.79959884 15.03818483 17.89983444 15 20 C14.01 20 13.02 20 12 20 C11.67 14.72 11.34 9.44 11 4 C9.02 4 7.04 4 5 4 C3.5192152 6.9615696 3.64685963 9.83506295 3.4375 13.125 C3.35371094 14.40632813 3.26992188 15.68765625 3.18359375 17.0078125 C3.09271484 18.48894531 3.09271484 18.48894531 3 20 C2.01 20 1.02 20 0 20 C0 13.4 0 6.8 0 0 Z " fill="#FFFFFF" transform="translate(378,70)"/>
<path d="M0 0 C2.31 0 4.62 0 7 0 C7 6.6 7 13.2 7 20 C4.69 20 2.38 20 0 20 C0 13.4 0 6.8 0 0 Z " fill="#FFFFFF" transform="translate(516,32)"/>
<path d="M0 0 C2.31 0 4.62 0 7 0 C7 6.6 7 13.2 7 20 C4.69 20 2.38 20 0 20 C0 13.4 0 6.8 0 0 Z " fill="#FFFFFF" transform="translate(410,32)"/>
<path d="M0 0 C2.31 0 4.62 0 7 0 C7 6.6 7 13.2 7 20 C4.69 20 2.38 20 0 20 C0 13.4 0 6.8 0 0 Z " fill="#FFFFFF" transform="translate(270,32)"/>
<path d="M0 0 C1.32 0 2.64 0 4 0 C4 1.98 4 3.96 4 6 C4.99 6 5.98 6 7 6 C7 6.99 7 7.98 7 9 C6.01 9 5.02 9 4 9 C4 13.62 4 18.24 4 23 C4.99 23 5.98 23 7 23 C7 23.99 7 24.98 7 26 C4.625 26.125 4.625 26.125 2 26 C0 24 0 24 -0.1953125 20.5234375 C-0.18201493 19.14049032 -0.15816232 17.75761346 -0.125 16.375 C-0.11597656 15.66859375 -0.10695313 14.9621875 -0.09765625 14.234375 C-0.07407603 12.48943902 -0.03820461 10.74467705 0 9 C-0.66 9 -1.32 9 -2 9 C-2 8.01 -2 7.02 -2 6 C-1.34 6 -0.68 6 0 6 C0 4.02 0 2.04 0 0 Z " fill="#FFFFFF" transform="translate(397,64)"/>
<path d="M0 0 C3.3 0 6.6 0 10 0 C10 0.99 10 1.98 10 3 C9.19175781 3.40863281 8.38351562 3.81726563 7.55078125 4.23828125 C4.63626255 5.81922423 4.63626255 5.81922423 4.29296875 9.35546875 C4.24076172 11.25232422 4.24076172 11.25232422 4.1875 13.1875 C4.13980469 14.45980469 4.09210938 15.73210937 4.04296875 17.04296875 C4.02878906 18.01878906 4.01460938 18.99460937 4 20 C2.68 20 1.36 20 0 20 C0 13.4 0 6.8 0 0 Z " fill="#FFFFFF" transform="translate(424,70)"/>
<path d="M0 0 C1.32 0.33 2.64 0.66 4 1 C4.33 0.67 4.66 0.34 5 0 C6.66617115 -0.04063832 8.33388095 -0.042721 10 0 C10 0.99 10 1.98 10 3 C8.7934375 3.433125 8.7934375 3.433125 7.5625 3.875 C4.8673532 4.73262568 4.8673532 4.73262568 4 7 C3.77049681 9.204364 3.58924067 11.41392173 3.4375 13.625 C3.35371094 14.81351563 3.26992188 16.00203125 3.18359375 17.2265625 C3.12300781 18.14179687 3.06242187 19.05703125 3 20 C2.01 20 1.02 20 0 20 C0 13.4 0 6.8 0 0 Z " fill="#FFFFFF" transform="translate(279,70)"/>
<path d="M0 0 C2.31 0 4.62 0 7 0 C7 1.98 7 3.96 7 6 C4.69 6 2.38 6 0 6 C0 4.02 0 2.04 0 0 Z " fill="#FFFFFF" transform="translate(516,25)"/>
<path d="M0 0 C2.31 0 4.62 0 7 0 C7 1.98 7 3.96 7 6 C4.69 6 2.38 6 0 6 C0 4.02 0 2.04 0 0 Z " fill="#FFFFFF" transform="translate(410,25)"/>
<path d="M0 0 C2.31 0 4.62 0 7 0 C7 1.98 7 3.96 7 6 C4.69 6 2.38 6 0 6 C0 4.02 0 2.04 0 0 Z " fill="#FFFFFF" transform="translate(270,25)"/>
</svg>
