<?xml version="1.0" encoding="UTF-8"?>
<svg version="1.1" xmlns="http://www.w3.org/2000/svg" width="292" height="90">
<path d="M0 0 C0.78072372 -0.00014603 1.56144745 -0.00029205 2.36582947 -0.0004425 C4.94679542 0.00025425 7.52768923 0.00803557 10.10864258 0.01586914 C11.89797425 0.01773416 13.68730643 0.01915767 15.47663879 0.02015686 C20.18664967 0.02397541 24.89662972 0.03380006 29.60662842 0.04486084 C34.4126341 0.05508918 39.21864477 0.05965754 44.0246582 0.06469727 C53.45501247 0.0754229 62.88533576 0.09301437 72.31567383 0.11352539 C72.31567383 6.38352539 72.31567383 12.65352539 72.31567383 19.11352539 C70.55457275 19.12810791 68.79347168 19.14269043 66.97900391 19.15771484 C61.15143919 19.20942217 55.32411144 19.27472332 49.49680042 19.3492403 C45.96468717 19.39391203 42.43268839 19.43317477 38.90039062 19.45996094 C34.83670061 19.49101619 30.77362841 19.54580373 26.71020508 19.60180664 C24.81308525 19.61139153 24.81308525 19.61139153 22.87763977 19.62117004 C21.69679306 19.6409642 20.51594635 19.66075836 19.29931641 19.68115234 C18.2622908 19.6922554 17.2252652 19.70335846 16.15681458 19.71479797 C12.59022073 20.21533592 9.88135939 21.54783983 7.31567383 24.11352539 C6.98567383 27.74352539 6.65567383 31.37352539 6.31567383 35.11352539 C28.09567383 35.11352539 49.87567383 35.11352539 72.31567383 35.11352539 C72.41879883 41.54852539 72.52192383 47.98352539 72.62817383 54.61352539 C72.67369385 56.62897461 72.71921387 58.64442383 72.76611328 60.72094727 C72.78073378 62.34137311 72.79347075 63.9618175 72.80395508 65.58227539 C72.82953491 66.40501953 72.85511475 67.22776367 72.88146973 68.07543945 C72.88608303 74.26833773 71.21011351 78.29566608 67.31567383 83.11352539 C64.96411133 85.17211914 64.96411133 85.17211914 62.69067383 86.55102539 C61.9352832 87.02411133 61.17989258 87.49719727 60.40161133 87.98461914 C56.1254647 90.29886329 52.26814151 90.24982073 47.53955078 90.22705078 C46.35383484 90.22726982 46.35383484 90.22726982 45.14416504 90.22749329 C42.53073383 90.22679649 39.91737384 90.21901494 37.30395508 90.21118164 C35.49220315 90.20931664 33.68045073 90.20789312 31.86869812 90.20689392 C27.09950367 90.20307524 22.33033965 90.19325047 17.56115723 90.18218994 C12.69482841 90.17196188 7.82849467 90.16739331 2.9621582 90.16235352 C-6.58668545 90.15162765 -16.13549852 90.13403607 -25.68432617 90.11352539 C-25.68432617 84.17352539 -25.68432617 78.23352539 -25.68432617 72.11352539 C-23.14926392 72.09165161 -23.14926392 72.09165161 -20.56298828 72.06933594 C-14.95894542 72.01754499 -9.35516784 71.95222203 -3.75137997 71.87781048 C-0.35608768 71.83321468 3.03908761 71.79393565 6.43457031 71.76708984 C10.34441368 71.73593857 14.25375934 71.68115363 18.16333008 71.62524414 C19.97934471 71.61565926 19.97934471 71.61565926 21.83204651 71.60588074 C30.68683796 71.74871095 30.68683796 71.74871095 38.31567383 68.11352539 C38.97567383 63.82352539 39.63567383 59.53352539 40.31567383 55.11352539 C18.53567383 55.11352539 -3.24432617 55.11352539 -25.68432617 55.11352539 C-25.78745117 48.67852539 -25.89057617 42.24352539 -25.99682617 35.61352539 C-26.0651062 32.59035156 -26.0651062 32.59035156 -26.13476562 29.50610352 C-26.14938613 27.88567767 -26.16212309 26.26523328 -26.17260742 24.64477539 C-26.19818726 23.82203125 -26.22376709 22.99928711 -26.25012207 22.15161133 C-26.25471923 15.9803806 -24.61085687 11.89292175 -20.68432617 7.11352539 C-18.11401367 5.05493164 -18.11401367 5.05493164 -15.55932617 3.67602539 C-14.71112305 3.20293945 -13.86291992 2.72985352 -12.98901367 2.24243164 C-8.58511154 0.08526602 -4.79842079 -0.02339926 0 0 Z " fill="#FAFAFA" transform="translate(114.684326171875,-0.113525390625)"/>
<path d="M0 0 C10.89 0 21.78 0 33 0 C33 23.43 33 46.86 33 71 C55.9431316 72.37032032 55.9431316 72.37032032 65 69 C65.33 46.23 65.66 23.46 66 0 C76.56 0 87.12 0 98 0 C98.0904505 9.80553015 98.16380199 19.6107822 98.20724869 29.41663551 C98.22810333 33.97013502 98.25638193 38.52333374 98.30175781 43.07666016 C98.34529168 47.47277143 98.36915308 51.86859379 98.37950897 56.26490402 C98.38688684 57.94022544 98.40129429 59.61553145 98.42292023 61.29072952 C98.45205544 63.64159276 98.45595193 65.99126976 98.45410156 68.34228516 C98.46848267 69.03136963 98.48286377 69.7204541 98.49768066 70.43041992 C98.44818036 76.26139259 96.19175514 79.7052765 92.25390625 83.828125 C91.69574219 84.29734375 91.13757813 84.7665625 90.5625 85.25 C90.00691406 85.72953125 89.45132813 86.2090625 88.87890625 86.703125 C84.09525724 90.00493679 79.57348799 90.28142379 73.9050293 90.22705078 C72.68492645 90.22741239 72.68492645 90.22741239 71.44017506 90.2277813 C68.81807674 90.22629347 66.19626593 90.21108517 63.57421875 90.1953125 C61.9510512 90.19237042 60.32788175 90.19033099 58.70471191 90.18920898 C52.6989456 90.1787408 46.69321995 90.15081828 40.6875 90.125 C27.260625 90.08375 13.83375 90.0425 0 90 C0 60.3 0 30.6 0 0 Z " fill="#FAFAFA" transform="translate(194,0)"/>
<path d="M0 0 C10.56 0 21.12 0 32 0 C32 23.76 32 47.52 32 72 C48.5 72 65 72 82 72 C82 77.94 82 83.88 82 90 C54.94 90 27.88 90 0 90 C0 60.3 0 30.6 0 0 Z " fill="#FAFAFA" transform="translate(0,0)"/>
</svg>
