<?xml version="1.0" encoding="UTF-8"?>
<svg version="1.1" xmlns="http://www.w3.org/2000/svg" width="947" height="197">
<path d="M0 0 C28.38 0 56.76 0 86 0 C86 17.82 86 35.64 86 54 C103.49 54 120.98 54 139 54 C139 82.38 139 110.76 139 140 C121.51 140 104.02 140 86 140 C86 157.49 86 174.98 86 193 C57.62 193 29.24 193 0 193 C0 175.51 0 158.02 0 140 C-17.49 140 -34.98 140 -53 140 C-53 111.62 -53 83.24 -53 54 C-35.51 54 -18.02 54 0 54 C0 36.18 0 18.36 0 0 Z M3 63 C-1.2352395 67.99989545 -1.2352395 67.99989545 -3 74 C2.48092694 74.07420027 7.96156099 74.1286258 13.44287109 74.16479492 C15.30718072 74.17987414 17.17145492 74.20034061 19.03564453 74.22631836 C21.71656033 74.26273996 24.3970068 74.2797349 27.078125 74.29296875 C28.32677338 74.31619453 28.32677338 74.31619453 29.60064697 74.33988953 C33.10485656 74.34090685 35.392605 74.32040027 38.53027344 72.6652832 C40.27300471 70.99502624 40.27300471 70.99502624 40.4375 68.0625 C40.25043365 65 40.25043365 65 38.5 63 C36.42650233 60.23533644 36.64094915 58.37507796 37 55 C37.66 54.01 38.32 53.02 39 52 C40.875 51.63671875 40.875 51.63671875 43 51.6875 C43.70125 51.69136719 44.4025 51.69523437 45.125 51.69921875 C47 52 47 52 49 54 C49.36504091 57.86943361 49.48745068 60.20058088 47.4375 63.5625 C45.71144426 65.98667996 45.71144426 65.98667996 46.125 69.1875 C46.77005187 72.30148891 46.77005187 72.30148891 50 74 C51.91620334 74.28763265 51.91620334 74.28763265 54.01245117 74.22705078 C54.81305466 74.22689972 55.61365814 74.22674866 56.43852234 74.22659302 C57.72772331 74.21110916 57.72772331 74.21110916 59.04296875 74.1953125 C60.36836418 74.19106766 60.36836418 74.19106766 61.72053528 74.18673706 C64.54299454 74.17554097 67.36513662 74.15043751 70.1875 74.125 C72.10090688 74.11496946 74.01431873 74.10584374 75.92773438 74.09765625 C80.61861182 74.07560351 85.30925213 74.04107762 90 74 C82.44834522 59.60764065 71.44559884 51.06200298 56 46 C36.2096269 41.01083031 16.73304649 48.53452437 3 63 Z M-6 79 C-10.68233026 90.5943416 -10.45287864 103.19227048 -6.328125 114.8984375 C-2.78531878 123.17193202 1.65243768 131.49417494 9 137 C9.66 137 10.32 137 11 137 C11.47832275 136.09870361 11.95664551 135.19740723 12.44946289 134.26879883 C14.25880419 130.85973661 16.06866292 127.45094929 17.87866211 124.04223633 C18.65549154 122.57909276 19.43218869 121.11587896 20.20874023 119.65258789 C20.96306937 118.2312114 21.71781884 116.81005791 22.47299194 115.38912964 C23.22302976 113.975571 23.97077182 112.56079185 24.71621704 111.14480591 C26.47004185 107.82319508 28.25336352 104.53358141 30.15576172 101.29443359 C30.80432129 100.1698877 31.45288086 99.0453418 32.12109375 97.88671875 C32.70173584 96.91307373 33.28237793 95.93942871 33.88061523 94.9362793 C35.33570741 91.11939957 35.16534425 88.89795467 34 85 C30.40621268 81.83527863 26.79157709 81.47886443 22.125 81.05078125 C21.47805176 80.98843796 20.83110352 80.92609467 20.16455078 80.86186218 C18.11059113 80.66707359 16.05553265 80.48982588 14 80.3125 C12.61968869 80.1827313 11.23947853 80.05188201 9.859375 79.91992188 C1.94428025 79.1687899 1.94428025 79.1687899 -6 79 Z M74.08007812 80.11694336 C72.69384969 80.24726836 71.3071108 80.37227389 69.91992188 80.49194336 C67.90362558 80.66609976 65.88946044 80.85665738 63.875 81.05078125 C62.07675781 81.21574097 62.07675781 81.21574097 60.2421875 81.3840332 C56.83507482 82.0313333 54.75550688 82.91476008 52 85 C50.68713203 88.64115727 50.80468246 90.4615204 52.125 94.1015625 C52.74375 95.26429687 53.3625 96.42703125 54 97.625 C54.34232666 98.27871582 54.68465332 98.93243164 55.03735352 99.60595703 C56.34069901 102.08030068 57.67106762 104.5393011 59 107 C59.94278499 108.76693974 60.88550663 110.53391367 61.82699585 112.30154419 C65.41095092 119.03027432 69.01671297 125.74701436 72.63647461 132.45654297 C73.44306827 133.96112538 74.23653925 135.47307851 75 137 C83.36839139 133.39229349 87.93056425 124.91513592 91.7734375 117.08984375 C94.44888503 110.35010171 95.361552 104.24708563 95.3125 97.0625 C95.31121094 96.27633301 95.30992187 95.49016602 95.30859375 94.68017578 C95.21335192 88.93590304 94.35202134 84.292048 92 79 C85.994675 78.90014731 80.05037492 79.54608678 74.08007812 80.11694336 Z M42 101 C35.60978898 108.80251599 30.11273507 117.15819881 24.5625 125.5625 C23.63118516 126.96701295 22.69954688 128.37131149 21.76757812 129.77539062 C19.50798608 133.18113582 17.25277781 136.589744 15 140 C17.70304103 142.8798662 20.19723601 144.13004855 23.875 145.625 C24.90367188 146.05039063 25.93234375 146.47578125 26.9921875 146.9140625 C39.07229967 151.27545365 53.35156708 149.9970089 65 145 C67.21978329 143.796601 69.02303644 142.58157085 71 141 C66.80499431 132.89929935 61.69238848 125.53518253 56.45947266 118.08398438 C55.01858215 116.0265335 53.59241872 113.95948083 52.16796875 111.890625 C51.27928937 110.61413507 50.38999341 109.33807412 49.5 108.0625 C48.88668823 107.16688354 48.88668823 107.16688354 48.26098633 106.25317383 C45.82178298 102.7700751 45.82178298 102.7700751 42 101 Z " fill="#FFFFFF" transform="translate(53,2)"/>
<path d="M0 0 C1.65525597 0.2446238 3.29867184 0.56977072 4.93359375 0.92578125 C6.48191895 1.25412964 6.48191895 1.25412964 8.06152344 1.58911133 C9.1755957 1.82782959 10.28966797 2.06654785 11.4375 2.3125 C44.28447042 9.06923245 74.31092461 7.05339305 107 0 C107.4839655 1.54016694 107.96192387 3.08222194 108.4375 4.625 C108.70433594 5.48351563 108.97117187 6.34203125 109.24609375 7.2265625 C117.94034243 39.21058615 106.45983877 75.82418344 91.0546875 103.79296875 C87.26907104 110.40294501 83.00277345 116.2542404 78 122 C76.85917969 123.34578125 76.85917969 123.34578125 75.6953125 124.71875 C69.03321107 132.37209835 62.09748702 139.35447471 53 144 C22.15983951 123.3589477 5.06364932 89.97347565 -2.55444336 54.4050293 C-4.04191737 46.37592985 -4.21791788 38.5823472 -4.25 30.4375 C-4.270625 29.15552734 -4.29125 27.87355469 -4.3125 26.55273438 C-4.34841842 17.65843497 -3.43995844 9.57103357 -1 1 C-0.67 0.67 -0.34 0.34 0 0 Z M50 16 C49.67 17.32 49.34 18.64 49 20 C49.74056641 20.56267578 49.74056641 20.56267578 50.49609375 21.13671875 C55.7941681 25.36878216 55.7941681 25.36878216 56.9375 28.875 C56.958125 29.57625 56.97875 30.2775 57 31 C57.99 31 58.98 31 60 31 C60 31.99 60 32.98 60 34 C57.69 33.34 55.38 32.68 53 32 C53 32.99 53 33.98 53 35 C51.68 35.33 50.36 35.66 49 36 C49 37.65 49 39.3 49 41 C53.06873004 41.85516822 56.8455505 42.38099851 61 42 C63.36488714 40.31392306 64.71649118 38.57205423 66.3984375 36.21484375 C68.80802742 32.8825572 71.82606798 30.59096491 75 28 C74.67 26.35 74.34 24.7 74 23 C68.84535266 23.48324819 65.18449681 26.18610761 61 29 C61.020625 27.906875 61.04125 26.81375 61.0625 25.6875 C61.18544452 22.05615809 61.18544452 22.05615809 60 19 C57.67108904 17.97299556 57.67108904 17.97299556 54.9375 17.3125 C54.01839844 17.06113281 53.09929687 16.80976562 52.15234375 16.55078125 C51.44207031 16.36902344 50.73179687 16.18726562 50 16 Z M30 24 C26.84307776 27.83950002 25.10008513 30.99574336 25 36 C26.07239464 41.62160559 28.54202708 45.06230345 32.890625 48.67578125 C38.89531522 52.44539234 44.29744044 53.54372043 51.25 54.125 C52.83880445 54.27059784 54.42736195 54.41892288 56.015625 54.5703125 C56.70946289 54.62977051 57.40330078 54.68922852 58.11816406 54.75048828 C60 55 60 55 63 56 C63.042721 57.66611905 63.04063832 59.33382885 63 61 C62.67 61.33 62.34 61.66 62 62 C61.92851801 63.35243917 61.91600546 64.70834367 61.9375 66.0625 C61.958125 67.361875 61.97875 68.66125 62 70 C66.01349645 69.71998862 67.72035142 69.24236211 70.8125 66.5625 C73.90915753 62.93498689 74.30736796 60.83120698 74.203125 56.02734375 C73.88917006 52.89383194 73.0969735 51.35909519 71 49 C65.28311443 45.25987471 59.56229671 44.18443194 52.875 43.4375 C39.94899244 41.94899244 39.94899244 41.94899244 36 38 C36 36.02 36 34.04 36 32 C41.94 32.99 41.94 32.99 48 34 C48.33 33.34 48.66 32.68 49 32 C46.69 31.01 44.38 30.02 42 29 C47.94 28.505 47.94 28.505 54 28 C52.68 26.68 51.36 25.36 50 24 C47.43259568 24.24680201 47.43259568 24.24680201 45 25 C44.01 24.67 43.02 24.34 42 24 C42 23.34 42 22.68 42 22 C43.32 21.67 44.64 21.34 46 21 C37.54487657 20.52291167 37.54487657 20.52291167 30 24 Z M47 59 C47.35822561 64.01515859 49.16442091 68.37114839 51 73 C53.64 73 56.28 73 59 73 C59 67.72 59 62.44 59 57 C56.586875 56.938125 56.586875 56.938125 54.125 56.875 C53.22007812 56.85179687 52.31515625 56.82859375 51.3828125 56.8046875 C48.81193006 56.75675164 48.81193006 56.75675164 47 59 Z M44 64 C40.43942139 67.56057861 39.52684523 70.10326015 39.2734375 74.9375 C40.4757345 78.35047214 42.9842149 80.21645397 46 82 C48.75660454 82.93823173 51.49722524 83.40399129 54.375 83.8125 C55.11105469 83.93302734 55.84710938 84.05355469 56.60546875 84.17773438 C58.40091071 84.46920223 60.20015637 84.73707747 62 85 C62.33 85.99 62.66 86.98 63 88 C62.34 88 61.68 88 61 88 C61 90.31 61 92.62 61 95 C64.01799494 94.66466723 65.80881813 94.13434402 68.3125 92.375 C70.68157218 89.04075027 70.5624931 87.00776335 70 83 C67.37084359 78.44953699 64.92590146 77.40153625 60 76 C57.71640035 75.57865246 55.42380706 75.20340101 53.125 74.875 C51.97257812 74.70742187 50.82015625 74.53984375 49.6328125 74.3671875 C48.76398438 74.24601562 47.89515625 74.12484375 47 74 C46.8046875 71.98177083 46.609375 69.96354167 46.4140625 67.9453125 C46.13625251 65.77331755 46.13625251 65.77331755 44 64 Z M52 86 C52 89.63 52 93.26 52 97 C53.98 97.66 55.96 98.32 58 99 C58 94.71 58 90.42 58 86 C56.02 86 54.04 86 52 86 Z M43 94 C42.16650049 96.95659873 42.16650049 96.95659873 43 100 C47.03258913 105.76084162 53.78411261 108.11511447 60 111 C60 113.31 60 115.62 60 118 C62.46800047 116.84826645 64.04783565 115.95216435 66 114 C65.92655541 110.03399191 65.71665252 107.78383869 63 104.8125 C56.40468683 100.67539239 56.40468683 100.67539239 49 99 C49 96.03 49 93.06 49 90 C46.45955266 90 44.66243103 92.3801954 43 94 Z M53 110 C53 117.26 53 124.52 53 132 C53.99 132.33 54.98 132.66 56 133 C58.39476146 126.56407857 58.8562445 119.81312827 58 113 C56.73453028 111.07021771 56.73453028 111.07021771 55 110 C54.34 110 53.68 110 53 110 Z M49 118 C47.26638076 120.71558321 47.26638076 120.71558321 46 124 C46.67993427 126.83075548 46.67993427 126.83075548 48 129 C48.33 129 48.66 129 49 129 C49.33 125.37 49.66 121.74 50 118 C49.67 118 49.34 118 49 118 Z " fill="#FFFFFF" transform="translate(244,30)"/>
<path d="M0 0 C0.88014771 0.36967896 0.88014771 0.36967896 1.77807617 0.74682617 C42.53838707 17.70226081 83.5461296 20.47395677 125 4 C126.53773048 3.27019268 128.06641744 2.52078629 129.58203125 1.74609375 C133 0 133 0 135 0 C151.57898595 34.87113378 150.04717522 76.69635646 138.06835938 112.80859375 C125.71962807 147.46552193 103.69468957 174.94421923 73 195 C72.01 195.66 71.02 196.32 70 197 C64.36063529 196.82503164 60.75440286 194.96547958 56.375 191.625 C55.4775708 190.96105225 55.4775708 190.96105225 54.56201172 190.28369141 C48.13671785 185.46851846 41.9994061 180.33280542 36 175 C34.94425781 174.071875 34.94425781 174.071875 33.8671875 173.125 C22.16284465 162.15523933 13.2304364 148.20483241 6 134 C5.68337402 133.38979004 5.36674805 132.77958008 5.04052734 132.15087891 C-5.15314763 112.32245108 -11.35835163 89.3182041 -12 67 C-12.02046387 66.32324219 -12.04092773 65.64648438 -12.06201172 64.94921875 C-12.62541484 43.38158852 -10.6905049 20.66602464 -1 1 C-0.67 0.67 -0.34 0.34 0 0 Z M9 22 C-3.24279489 58.31236737 4.42924818 95.51892521 21.07470703 129.17285156 C31.87357741 150.22651968 47.26905189 166.98597039 67 180 C97.20138382 162.81123646 115.88488864 131.42393389 126 99 C131.18993173 79.84432119 133.73299271 60.85289584 130.6875 41.125 C130.51105957 39.96689819 130.51105957 39.96689819 130.33105469 38.78540039 C129.42990212 33.41017513 128.26200559 27.98408012 126 23 C123.27493522 21.63746761 122.1059249 22.33489849 119.1953125 23.14453125 C118.2249707 23.40854736 117.25462891 23.67256348 116.25488281 23.94458008 C115.22202148 24.23099365 114.18916016 24.51740723 113.125 24.8125 C105.12417828 26.96396597 97.2422232 29.01298416 89 30 C88.20207031 30.10957031 87.40414062 30.21914063 86.58203125 30.33203125 C62.55703462 33.12563551 39.79156911 29.60900877 16.5769043 23.63256836 C14.06195993 23.01520968 11.54282566 22.48839898 9 22 Z " fill="#FFFFFF" transform="translate(230,0)"/>
<path d="M0 0 C6.69372434 4.11248424 9.63457219 11.24442367 11.4375 18.5625 C11.63364553 21.18767959 11.74808196 23.71079843 11.75634766 26.33374023 C11.76639328 27.07603378 11.7764389 27.81832733 11.78678894 28.58311462 C11.81743503 31.01243383 11.83460379 33.4416438 11.8515625 35.87109375 C11.87028914 37.56503731 11.88986366 39.25897169 11.9102478 40.95289612 C11.96141705 45.39316375 12.00112382 49.83346158 12.03839111 54.27386475 C12.07852647 58.81220882 12.12957518 63.35042894 12.1796875 67.88867188 C12.27626655 76.77986065 12.3607286 85.67111966 12.4375 94.5625 C8.8075 94.5625 5.1775 94.5625 1.4375 94.5625 C-0.0408226 91.60585481 0.37717217 88.82020263 0.4375 85.5625 C-0.08199219 86.03300781 -0.60148438 86.50351563 -1.13671875 86.98828125 C-8.04378663 93.15485017 -12.99113315 96.8171373 -22.5625 96.5625 C-28.0268468 94.86049034 -32.80603805 92.5875178 -35.7578125 87.50390625 C-39.40939398 79.52405161 -39.82875262 71.26878295 -37.5 62.8125 C-32.12920237 49.20157449 -17.48284767 43.17084405 -4.94921875 37.59375 C-4.16160156 37.2534375 -3.37398437 36.913125 -2.5625 36.5625 C-1.68931794 22.47794549 -1.68931794 22.47794549 -6.921875 9.828125 C-9.32130055 7.97713958 -11.68499308 8.02070477 -14.6328125 8.171875 C-16.77456987 8.46038417 -16.77456987 8.46038417 -18.875 10.3125 C-21.41598432 15.20624758 -22.37968268 20.18068119 -23.5625 25.5625 C-27.8525 25.5625 -32.1425 25.5625 -36.5625 25.5625 C-36.20386393 17.19432495 -34.83454961 9.66799797 -28.55859375 3.63671875 C-20.7742026 -2.37002138 -9.25852356 -3.96279218 0 0 Z M-18.1328125 56.01953125 C-23.75648203 62.11011061 -26.01693257 67.05064181 -25.8203125 75.37890625 C-25.44125973 78.58936838 -24.32780351 80.88185393 -22.5625 83.5625 C-18.97373098 85.95501268 -17.80000792 86.12217086 -13.5625 85.5625 C-8.4677311 83.18690448 -4.69075352 80.27694413 -1.5625 75.5625 C-1.01370875 71.98792756 -1.01370875 71.98792756 -1.171875 68.07421875 C-1.17753479 67.37102005 -1.18319458 66.66782135 -1.18902588 65.9433136 C-1.21130231 63.71149752 -1.26147627 61.48132539 -1.3125 59.25 C-1.33257657 57.73114309 -1.35082532 56.21226084 -1.3671875 54.69335938 C-1.41113643 50.98254455 -1.48010079 47.2726829 -1.5625 43.5625 C-6.30318266 43.5625 -14.79841634 52.83209176 -18.1328125 56.01953125 Z " fill="#FFFFFF" transform="translate(934.5625,29.4375)"/>
<path d="M0 0 C6.3417949 3.9100827 9.32303885 10.39042203 11.01450729 17.3921814 C11.66328185 20.72095626 11.72202499 23.96896533 11.75634766 27.35546875 C11.76639328 28.08815475 11.7764389 28.82084076 11.78678894 29.57572937 C11.81736875 31.96714583 11.83458494 34.35845171 11.8515625 36.75 C11.87029451 38.42009415 11.88986941 40.09017904 11.9102478 41.76025391 C11.96136046 46.13310257 12.00109721 50.50598185 12.03839111 54.87896729 C12.0785623 59.35037682 12.12959452 63.82166131 12.1796875 68.29296875 C12.27619941 77.04939342 12.36068251 85.8058805 12.4375 94.5625 C10.62507948 94.58937279 8.81254767 94.60883715 7 94.625 C5.99066406 94.63660156 4.98132813 94.64820312 3.94140625 94.66015625 C1.4375 94.5625 1.4375 94.5625 0.4375 93.5625 C0.29634839 90.89191149 0.39502893 88.23817762 0.4375 85.5625 C-0.08199219 86.03300781 -0.60148438 86.50351563 -1.13671875 86.98828125 C-8.04378663 93.15485017 -12.99113315 96.8171373 -22.5625 96.5625 C-28.0268468 94.86049034 -32.80603805 92.5875178 -35.7578125 87.50390625 C-39.40939398 79.52405161 -39.82875262 71.26878295 -37.5 62.8125 C-32.12920237 49.20157449 -17.48284767 43.17084405 -4.94921875 37.59375 C-4.16160156 37.2534375 -3.37398437 36.913125 -2.5625 36.5625 C-2.04121033 22.56875 -2.04121033 22.56875 -6.5625 9.5625 C-9.70591993 7.99079004 -13.12021451 8.33074217 -16.5625 8.5625 C-17.5525 8.8925 -18.5425 9.2225 -19.5625 9.5625 C-20.44332622 12.27568044 -21.14126229 14.85133517 -21.75 17.625 C-21.92724609 18.38361328 -22.10449219 19.14222656 -22.28710938 19.92382812 C-22.72386967 21.80071697 -23.14469156 23.6813016 -23.5625 25.5625 C-27.8525 25.5625 -32.1425 25.5625 -36.5625 25.5625 C-36.20386393 17.19432495 -34.83454961 9.66799797 -28.55859375 3.63671875 C-20.7742026 -2.37002138 -9.25852356 -3.96279218 0 0 Z M-18.1328125 56.0546875 C-23.73214749 62.19122806 -25.99494105 66.75139677 -25.8203125 75.12109375 C-25.46750186 78.46210362 -24.43358813 80.79051758 -22.5625 83.5625 C-18.97373098 85.95501268 -17.80000792 86.12217086 -13.5625 85.5625 C-8.4677311 83.18690448 -4.69075352 80.27694413 -1.5625 75.5625 C-1.01370875 71.98792756 -1.01370875 71.98792756 -1.171875 68.07421875 C-1.17753479 67.37102005 -1.18319458 66.66782135 -1.18902588 65.9433136 C-1.21130231 63.71149752 -1.26147627 61.48132539 -1.3125 59.25 C-1.33257657 57.73114309 -1.35082532 56.21226084 -1.3671875 54.69335938 C-1.41113643 50.98254455 -1.48010079 47.2726829 -1.5625 43.5625 C-6.30744469 43.5625 -14.82474136 52.84716564 -18.1328125 56.0546875 Z " fill="#FFFFFF" transform="translate(793.5625,29.4375)"/>
<path d="M0 0 C6.48999009 4.05098733 9.05038575 10.25003063 11.3125 17.3125 C12.5107127 22.85769167 12.49117539 28.33096322 12.515625 33.9765625 C12.52132507 35.00502289 12.52702515 36.03348328 12.53289795 37.09310913 C12.54232299 39.26665222 12.54887198 41.44020944 12.55273438 43.61376953 C12.56240608 46.90553379 12.59343993 50.19666418 12.625 53.48828125 C12.76162561 80.58638142 12.76162561 80.58638142 5.3125 89.3125 C-0.27147328 94.89647328 -5.02355785 96.02171094 -12.625 96.625 C-18.74705491 96.4325582 -23.88235687 94.47051635 -29 91.1875 C-39.12564359 80.35541616 -38.01926082 63.71927349 -37.94824219 49.81054688 C-37.93751573 47.31615908 -37.94820114 44.82249118 -37.9609375 42.328125 C-37.98740991 13.27240048 -37.98740991 13.27240048 -30.046875 4.5 C-22.1434668 -2.64743003 -9.84260369 -4.58702474 0 0 Z M-21.6875 12.3125 C-25.10555656 18.97771029 -24.84685372 26.30242822 -24.85546875 33.609375 C-24.85879715 34.59818665 -24.86212555 35.58699829 -24.86555481 36.60577393 C-24.87060487 38.69355812 -24.87296373 40.78135033 -24.87280273 42.86914062 C-24.87498307 46.0378983 -24.89314252 49.2063041 -24.91210938 52.375 C-24.91504505 54.41145715 -24.91702868 56.44791595 -24.91796875 58.484375 C-24.92515427 59.42013367 -24.93233978 60.35589233 -24.93974304 61.32000732 C-24.91032154 69.9345849 -24.47621245 78.50225006 -18.6875 85.3125 C-15.98934117 87.45241907 -14.69509189 87.31277114 -11.1875 87.1875 C-7.20670663 86.19230166 -6.0218949 85.64734986 -3.6875 82.3125 C4.58864332 64.79528184 2.72703962 34.84412355 -1.6875 16.3125 C-3.87484591 11.20527885 -3.87484591 11.20527885 -7.6875 7.3125 C-13.88464228 5.91988376 -17.87259107 7.11035146 -21.6875 12.3125 Z " fill="#FFFFFF" transform="translate(519.6875,29.6875)"/>
<path d="M0 0 C4.29 0 8.58 0 13 0 C13.00142502 0.99114304 13.00285004 1.98228607 13.00431824 3.00346375 C13.02099219 12.34688229 13.06377778 21.68986552 13.13209057 31.0330534 C13.16637261 35.83647078 13.19147243 40.63956972 13.19555664 45.44311523 C13.199837 50.07940881 13.22827767 54.71498386 13.27343178 59.35105324 C13.28641522 61.11921821 13.29071145 62.88746913 13.28615379 64.65567589 C13.28125358 67.13411281 13.30731118 69.61044497 13.34057617 72.08862305 C13.33195053 72.81870575 13.32332489 73.54878845 13.31443787 74.30099487 C13.40205432 78.19828193 13.89895426 79.8737523 16.36543274 82.95539856 C18.83677331 85.17382798 18.83677331 85.17382798 21.8125 85.625 C26.22210304 84.76037195 29.44293094 82.69245099 33 80 C33.52386795 79.62920822 34.0477359 79.25841644 34.58747864 78.87638855 C36.74255614 76.01359096 36.43934466 73.03643533 36.43237305 69.59106445 C36.4425647 68.83960144 36.45275635 68.08813843 36.46325684 67.31390381 C36.49344888 64.83028773 36.502662 62.34705693 36.51171875 59.86328125 C36.52856088 58.14119682 36.54671049 56.41912471 36.56611633 54.69706726 C36.61367326 50.16466118 36.64344568 45.63230506 36.66955566 41.09973145 C36.69933255 36.47459033 36.7458727 31.84962152 36.79101562 27.22460938 C36.87711343 18.14982961 36.94442983 9.07501444 37 0 C40.96 0 44.92 0 49 0 C49 31.02 49 62.04 49 94 C45.04 94 41.08 94 37 94 C36.67 92.02 36.34 90.04 36 88 C35.50371094 88.40992187 35.00742187 88.81984375 34.49609375 89.2421875 C28.60360625 93.91592521 23.73235441 96.27327462 16.0625 96.0625 C10.31679862 95.31801125 6.51715696 92.5325025 3 88 C0.3670156 82.81215581 -0.42653557 78.60550352 -0.34057617 72.76977539 C-0.34101425 71.97871399 -0.34145233 71.18765259 -0.34190369 70.37261963 C-0.33982828 67.78070636 -0.31655705 65.18945529 -0.29296875 62.59765625 C-0.28736834 60.79162448 -0.28310034 58.98558814 -0.28010559 57.17955017 C-0.26869185 52.44317885 -0.23925476 47.70708676 -0.20599365 42.9708252 C-0.17521772 38.13097917 -0.16158421 33.2910877 -0.14648438 28.45117188 C-0.11438155 18.96732573 -0.06322744 9.48368616 0 0 Z " fill="#FFFFFF" transform="translate(554,30)"/>
<path d="M0 0 C5.1629213 4.7757022 8.27753567 8.87686434 8.74050903 16.02680969 C8.74627025 17.48702556 8.74107265 18.9473108 8.72705078 20.4074707 C8.72734283 21.20799362 8.72763489 22.00851654 8.72793579 22.83329773 C8.72654705 25.46840408 8.71100739 28.10322454 8.6953125 30.73828125 C8.69158075 32.56959377 8.68873454 34.40090828 8.68673706 36.23222351 C8.67911337 41.04417466 8.65947573 45.85600441 8.6373291 50.66790771 C8.61684344 55.58132282 8.60772953 60.4947576 8.59765625 65.40820312 C8.57622866 75.04302198 8.54210796 84.67775088 8.5 94.3125 C4.54 94.3125 0.58 94.3125 -3.5 94.3125 C-3.50808685 93.37591049 -3.51617371 92.43932098 -3.52450562 91.47434998 C-3.60211407 82.63200924 -3.68989012 73.78981958 -3.78752708 64.94767666 C-3.83739456 60.4022417 -3.88372524 55.8568289 -3.921875 51.3112793 C-3.95884869 46.92155961 -4.00524099 42.53202979 -4.05806351 38.14247322 C-4.0765434 36.47084967 -4.09167481 34.79918551 -4.10334396 33.12750053 C-4.1203166 30.77938421 -4.14937693 28.43169667 -4.18115234 26.08374023 C-4.18331253 25.39825104 -4.18547272 24.71276184 -4.18769836 24.00650024 C-4.28039876 18.61645501 -4.61908158 13.19341842 -8.5625 9.25 C-13.65703882 7.62408335 -17.51684895 8.93809608 -22.24137878 11.11479187 C-24.66495439 12.63553821 -25.94111295 13.88623388 -27.5 16.3125 C-28.57964256 22.1814275 -28.45553698 28.01032076 -28.40234375 33.9609375 C-28.41173252 35.70116032 -28.42419259 37.44136905 -28.43959045 39.18154907 C-28.47178542 43.74879575 -28.46238557 48.31503724 -28.44421387 52.88232422 C-28.43304719 57.54796301 -28.46136779 62.21334561 -28.48632812 66.87890625 C-28.5294506 76.02361685 -28.52861645 85.16775211 -28.5 94.3125 C-32.46 94.3125 -36.42 94.3125 -40.5 94.3125 C-40.5 63.2925 -40.5 32.2725 -40.5 0.3125 C-36.54 0.3125 -32.58 0.3125 -28.5 0.3125 C-28.17 2.2925 -27.84 4.2725 -27.5 6.3125 C-27.05269531 5.90257812 -26.60539063 5.49265625 -26.14453125 5.0703125 C-25.53996094 4.53148437 -24.93539062 3.99265625 -24.3125 3.4375 C-23.72082031 2.90382813 -23.12914062 2.37015625 -22.51953125 1.8203125 C-16.07818208 -2.98889597 -7.14054494 -3.44276274 0 0 Z " fill="#FFFFFF" transform="translate(868.5,29.6875)"/>
<path d="M0 0 C7.55041835 4.57166681 11.27261553 11.0120482 14.09375 19.1796875 C14.625 21.5 14.625 21.5 13.625 23.5 C11.12109375 24.3515625 11.12109375 24.3515625 8.0625 25.125 C7.05058594 25.38539062 6.03867187 25.64578125 4.99609375 25.9140625 C4.21363281 26.10742188 3.43117188 26.30078125 2.625 26.5 C2.45484375 25.84773438 2.2846875 25.19546875 2.109375 24.5234375 C0.42763229 18.45842922 -1.07785198 13.11497946 -6.1875 9.0625 C-9.5451584 8.19910213 -12.03461443 8.66490361 -15.375 9.5 C-18.03319502 11.17886001 -19.06483892 12.47687124 -19.9765625 15.484375 C-20.80021473 20.16788767 -20.55670728 24.02804671 -18.1328125 28.265625 C-12.75900747 35.09632828 -5.64039622 40.56424876 0.9375 46.1875 C9.00970124 53.21647184 15.03181564 59.97713668 16.5 70.875 C16.96473436 78.0932145 15.33157895 83.66388811 10.875 89.375 C5.86375439 94.74685633 -0.4821086 96.20054682 -7.625 96.75 C-15.1647252 96.24735165 -20.97322658 93.92923847 -26.515625 88.73046875 C-31.19849859 83.11298804 -33.95284475 76.61077624 -35.375 69.5 C-32.075 68.51 -28.775 67.52 -25.375 66.5 C-24.95089844 67.36882812 -24.52679687 68.23765625 -24.08984375 69.1328125 C-19.45570736 78.8345715 -19.45570736 78.8345715 -11.375 85.5 C-7.78896176 86.22125205 -4.63485835 85.77240181 -1.0625 85 C1.86228454 82.40019152 2.92029827 79.2975593 3.625 75.5 C3.5663968 67.20764771 -1.29630935 61.53169234 -6.94287109 55.95019531 C-12.40589517 50.68973454 -17.99591081 45.60412761 -23.875 40.8125 C-29.16512493 36.13803616 -32.84492505 31.12489715 -33.8828125 24.02734375 C-34.1355502 16.15035204 -33.40067699 9.89884368 -27.984375 3.98046875 C-20.80977421 -2.57107461 -8.84615205 -3.9047468 0 0 Z " fill="#FFFFFF" transform="translate(690.375,29.5)"/>
<path d="M0 0 C4.29 0 8.58 0 13 0 C13 37.29 13 74.58 13 113 C25.21 113 37.42 113 50 113 C50 116.63 50 120.26 50 124 C33.5 124 17 124 0 124 C0 83.08 0 42.16 0 0 Z " fill="#FFFFFF" transform="translate(420,0)"/>
<path d="M0 0 C4.29 0 8.58 0 13 0 C13 31.02 13 62.04 13 94 C8.71 94 4.42 94 0 94 C0 62.98 0 31.96 0 0 Z " fill="#FFFFFF" transform="translate(724,30)"/>
<path d="M0 0 C4.29 0 8.58 0 13 0 C13 31.02 13 62.04 13 94 C8.71 94 4.42 94 0 94 C0 62.98 0 31.96 0 0 Z " fill="#FFFFFF" transform="translate(626,30)"/>
<path d="M0 0 C2.31 0 4.62 0 7 0 C9.64 5.94 12.28 11.88 15 18 C15.495 9.09 15.495 9.09 16 0 C18.64 0 21.28 0 24 0 C24 14.52 24 29.04 24 44 C22.02 44 20.04 44 18 44 C14.60332223 37.45721905 11.65324022 30.87877094 9 24 C8.67 30.6 8.34 37.2 8 44 C5.36 44 2.72 44 0 44 C0 29.48 0 14.96 0 0 Z " fill="#FFFFFF" transform="translate(917,150)"/>
<path d="M0 0 C17 0 17 0 22 3 C26.62514271 7.62514271 25.22206786 15.20583492 25.25 21.3125 C25.270625 22.42818359 25.29125 23.54386719 25.3125 24.69335938 C25.36498744 35.76164771 25.36498744 35.76164771 22 41 C16 44 16 44 0 44 C0 29.48 0 14.96 0 0 Z M9 6 C9 16.23 9 26.46 9 37 C10.65 37 12.3 37 14 37 C17.18265857 32.22601215 16.40927227 27.11418117 16.4375 21.5 C16.47037109 20.34628906 16.50324219 19.19257813 16.53710938 18.00390625 C16.54419922 16.89917969 16.55128906 15.79445312 16.55859375 14.65625 C16.57204834 13.64369141 16.58550293 12.63113281 16.59936523 11.58789062 C16.2366087 8.77627061 16.2366087 8.77627061 13.59008789 7.14648438 C11.16727385 5.86507918 11.16727385 5.86507918 9 6 Z " fill="#FFFFFF" transform="translate(652,150)"/>
<path d="M0 0 C3.30460168 2.56275232 4.68312801 4.04938402 6 8 C6.26225163 12.43324452 6.23147038 16.87233969 6.25 21.3125 C6.270625 22.53646484 6.29125 23.76042969 6.3125 25.02148438 C6.31765625 26.20677734 6.3228125 27.39207031 6.328125 28.61328125 C6.34214355 30.23423706 6.34214355 30.23423706 6.35644531 31.88793945 C5.85036096 36.30647182 4.30581225 39.67172216 1.18359375 42.84765625 C-3.20990412 45.16622847 -8.18802754 44.58586258 -13 44 C-16.39932257 42.23235227 -17.50893128 41.06077833 -19.09765625 37.62890625 C-20.42864755 32.27613173 -20.32844494 27.05712724 -20.3125 21.5625 C-20.32861328 20.45583984 -20.34472656 19.34917969 -20.36132812 18.20898438 C-20.36500258 12.06161522 -20.15118251 7.35259272 -17 2 C-11.56271572 -1.55087953 -6.23610714 -1.75159693 0 0 Z M-9.66699219 7.13061523 C-11.55062499 9.772186 -11.35651666 11.68745808 -11.328125 14.91015625 C-11.32296875 16.06451172 -11.3178125 17.21886719 -11.3125 18.40820312 C-11.291875 19.61412109 -11.27125 20.82003906 -11.25 22.0625 C-11.24484375 23.27228516 -11.2396875 24.48207031 -11.234375 25.72851562 C-11.47205042 31.54189008 -11.47205042 31.54189008 -10 37 C-8.13803054 37.92393164 -8.13803054 37.92393164 -6 38 C-4.26469454 36.91921431 -4.26469454 36.91921431 -3 35 C-2.55312203 32.24372825 -2.55312203 32.24372825 -2.63671875 29.125 C-2.63736328 27.97515625 -2.63800781 26.8253125 -2.63867188 25.640625 C-2.65478516 24.43921875 -2.67089844 23.2378125 -2.6875 22 C-2.68427734 20.79859375 -2.68105469 19.5971875 -2.67773438 18.359375 C-2.47160641 11.80714973 -2.47160641 11.80714973 -5 6 C-7.92190406 5.71934415 -7.92190406 5.71934415 -9.66699219 7.13061523 Z " fill="#FFFFFF" transform="translate(878,150)"/>
<path d="M0 0 C5.03135076 5.64121146 4.36683569 12.61844038 4.3125 19.75 C4.32023437 20.76126953 4.32796875 21.77253906 4.3359375 22.81445312 C4.30309923 35.399721 4.30309923 35.399721 0.1875 40.75 C-5.07915394 43.38332697 -11.47828653 43.33974407 -17.12109375 41.6640625 C-19.81918314 39.6564519 -20.63356197 37.38925326 -21.9375 34.3125 C-22.53708153 29.49266152 -22.40135128 24.66592658 -22.375 19.8125 C-22.39498047 18.50667969 -22.41496094 17.20085937 -22.43554688 15.85546875 C-22.43490234 14.59347656 -22.43425781 13.33148438 -22.43359375 12.03125 C-22.43544678 10.88591797 -22.4372998 9.74058594 -22.43920898 8.56054688 C-21.82669673 4.59516341 -20.42820208 2.42438369 -17.9375 -0.6875 C-12.13446044 -3.79145139 -5.60603904 -3.22049051 0 0 Z M-10.9375 4.3125 C-13.23011997 6.17339721 -13.23011997 6.17339721 -13.16455078 9.10986328 C-13.15407715 10.27243652 -13.14360352 11.43500977 -13.1328125 12.6328125 C-13.12636719 13.88964844 -13.11992187 15.14648438 -13.11328125 16.44140625 C-13.09652344 17.76011719 -13.07976562 19.07882813 -13.0625 20.4375 C-13.05246983 21.77733721 -13.04334404 23.11718152 -13.03515625 24.45703125 C-13.01152075 27.74236573 -12.97857234 31.02734465 -12.9375 34.3125 C-10.9575 35.3025 -10.9575 35.3025 -8.9375 36.3125 C-6.40515826 34.1899446 -5.06349993 33.01214325 -4.4675293 29.70288086 C-4.48211182 28.73745361 -4.49669434 27.77202637 -4.51171875 26.77734375 C-4.52428711 25.19276367 -4.52428711 25.19276367 -4.53710938 23.57617188 C-4.56611328 22.47853516 -4.59511719 21.38089844 -4.625 20.25 C-4.63466797 19.14849609 -4.64433594 18.04699219 -4.65429688 16.91210938 C-4.67189632 11.01635311 -4.67189632 11.01635311 -5.9375 5.3125 C-8.33469432 4.63291397 -8.33469432 4.63291397 -10.9375 4.3125 Z " fill="#FFFFFF" transform="translate(498.9375,151.6875)"/>
<path d="M0 0 C6.94966093 -0.1346906 13.71856383 0.24284996 20.625 1 C21.98818359 1.14308594 21.98818359 1.14308594 23.37890625 1.2890625 C25.58647043 1.52143768 27.79342261 1.75846489 30 2 C29.44931279 6.97240963 27.80112077 10.9151792 25.5078125 15.296875 C25.16120575 15.97171936 24.814599 16.64656372 24.45748901 17.34185791 C23.72684873 18.75913463 22.99208242 20.17429111 22.25341797 21.58740234 C21.12424728 23.75144258 20.01255512 25.92383982 18.90234375 28.09765625 C18.18852718 29.47709452 17.47371751 30.85601944 16.7578125 32.234375 C16.42645294 32.88331726 16.09509338 33.53225952 15.75369263 34.2008667 C14.07531677 37.38479345 13.05847746 38.96101503 10 41 C2.58015341 32.36824513 -1.15406407 22.39311723 -1.125 11 C-1.12757812 9.989375 -1.13015625 8.97875 -1.1328125 7.9375 C-1.00826727 5.18285256 -0.62110865 2.68161197 0 0 Z " fill="#FFFFFF" transform="translate(51,88)"/>
<path d="M0 0 C3.32079551 9.96238654 1.32654001 22.30507671 -3.2421875 31.5 C-5.01939407 34.78099674 -6.92989533 37.894843 -9 41 C-12.60559558 39.79813481 -13.0526776 38.50026008 -14.7280426 35.23721313 C-15.22037636 34.24194107 -15.22037636 34.24194107 -15.72265625 33.2265625 C-16.06880478 32.54701508 -16.41495331 31.86746765 -16.77159119 31.16732788 C-17.87788299 28.99112919 -18.9705479 26.80842391 -20.0625 24.625 C-21.16072481 22.45018317 -22.261686 20.2767811 -23.36412048 18.10409546 C-24.04944101 16.75116899 -24.7318152 15.3967451 -25.41090393 14.04067993 C-26.82037239 11.23902337 -28.25730938 8.61403593 -30 6 C-29.625 3.8125 -29.625 3.8125 -29 2 C-25.85495307 1.65896535 -22.70886583 1.32862537 -19.5625 1 C-18.24475586 0.85691406 -18.24475586 0.85691406 -16.90039062 0.7109375 C-11.23241145 0.12531604 -5.69811032 -0.09274645 0 0 Z " fill="#FFFFFF" transform="translate(141,88)"/>
<path d="M0 0 C1.98 0 3.96 0 6 0 C6.94011264 1.85284336 7.87695592 3.70734568 8.8125 5.5625 C9.33457031 6.59503906 9.85664062 7.62757813 10.39453125 8.69140625 C12.03753866 12.07736069 13.51747276 15.54076977 15 19 C15.33 12.73 15.66 6.46 16 0 C18.31 0 20.62 0 23 0 C23 14.52 23 29.04 23 44 C21.02 44 19.04 44 17 44 C16.0587556 42.00175947 15.12220229 40.00130904 14.1875 38 C13.66542969 36.88625 13.14335938 35.7725 12.60546875 34.625 C10.91763329 30.81402359 9.46348696 26.90263189 8 23 C7.67 29.93 7.34 36.86 7 44 C4.69 44 2.38 44 0 44 C0 29.48 0 14.96 0 0 Z " fill="#FFFFFF" transform="translate(595,150)"/>
<path d="M0 0 C2.64 0 5.28 0 8 0 C8.02505615 0.98395752 8.0501123 1.96791504 8.07592773 2.98168945 C8.1701082 6.63270057 8.2703029 10.28352616 8.37231445 13.93432617 C8.41562305 15.51436015 8.45730106 17.09443969 8.49731445 18.67456055 C8.55511583 20.94594048 8.6187816 23.21709189 8.68359375 25.48828125 C8.70030624 26.19463211 8.71701874 26.90098297 8.73423767 27.6287384 C8.8259747 30.6664824 9.03207686 33.09623058 10 36 C11.65 36.33 13.3 36.66 15 37 C15.33 24.79 15.66 12.58 16 0 C18.97 0 21.94 0 25 0 C25.07453636 4.85633035 25.12878329 9.71232268 25.16479492 14.5690918 C25.17981806 16.21889044 25.2002426 17.86864958 25.22631836 19.51831055 C25.26298899 21.89902536 25.27979103 24.27920908 25.29296875 26.66015625 C25.30845261 27.38960953 25.32393646 28.11906281 25.33988953 28.87062073 C25.34153657 33.96017559 24.35630513 37.46986454 22 42 C18.199787 44.95027289 13.47704189 44.45647556 8.859375 44.39453125 C6 44 6 44 2.8125 41.625 C-0.23142984 37.21654988 -0.13141536 33.93711101 -0.09765625 28.7109375 C-0.0962413 27.89251373 -0.09482635 27.07408997 -0.09336853 26.23086548 C-0.0877629 23.61220675 -0.07520948 20.99363296 -0.0625 18.375 C-0.05748572 16.60156373 -0.05292269 14.82812613 -0.04882812 13.0546875 C-0.03779164 8.70309218 -0.02052325 4.3515605 0 0 Z " fill="#FFFFFF" transform="translate(536,150)"/>
<path d="M0 0 C3.79789507 1.26596502 4.3520003 2.63005283 6.50390625 5.953125 C7.16197266 6.96503906 7.82003906 7.97695312 8.49804688 9.01953125 C9.51995117 10.61861328 9.51995117 10.61861328 10.5625 12.25 C11.24763672 13.30058594 11.93277344 14.35117188 12.63867188 15.43359375 C15.50402903 19.87082005 18.17824726 24.02103087 20 29 C7.8273081 34.48964537 -4.36433419 34.33222828 -17 30 C-17 25.47196383 -16.23981515 24.35972272 -13.7890625 20.68359375 C-13.12132813 19.67232422 -12.45359375 18.66105469 -11.765625 17.61914062 C-11.05921875 16.56919922 -10.3528125 15.51925781 -9.625 14.4375 C-8.92632812 13.38369141 -8.22765625 12.32988281 -7.5078125 11.24414062 C-5.68019131 8.49040755 -3.84260671 5.74371712 -2 3 C-1.34 2.01 -0.68 1.02 0 0 Z " fill="#FFFFFF" transform="translate(95,112)"/>
<path d="M0 0 C2.97 0 5.94 0 9 0 C10.88122525 4.2170542 11.84144149 8.49611898 12.7265625 13.00390625 C12.87910492 13.76420639 13.03164734 14.52450653 13.18881226 15.30784607 C13.5087401 16.90846114 13.82629252 18.50955264 14.14160156 20.11108398 C14.62433539 22.55912961 15.116299 25.00519079 15.609375 27.45117188 C15.91982264 29.0103069 16.22973673 30.56954827 16.5390625 32.12890625 C16.75932602 33.22278404 16.75932602 33.22278404 16.98403931 34.33876038 C17.63197968 37.65521449 18 40.6027059 18 44 C15.36 44 12.72 44 10 44 C9.34 40.7 8.68 37.4 8 34 C5.03 34.495 5.03 34.495 2 35 C1.34 37.97 0.68 40.94 0 44 C-2.97 44 -5.94 44 -9 44 C-7.8815409 38.21540402 -6.76046892 32.43132295 -5.63696289 26.64770508 C-5.25505708 24.67974589 -4.87386808 22.71164745 -4.4934082 20.7434082 C-3.94670589 17.91580967 -3.39743528 15.08872046 -2.84765625 12.26171875 C-2.6778273 11.38037766 -2.50799835 10.49903656 -2.33302307 9.59098816 C-2.17293259 8.77036392 -2.0128421 7.94973969 -1.84790039 7.10424805 C-1.70800186 6.38254929 -1.56810333 5.66085052 -1.42396545 4.9172821 C-1 3 -1 3 0 0 Z M4 16 C3.67 19.96 3.34 23.92 3 28 C4.32 28 5.64 28 7 28 C6.88601335 26.37419034 6.75844341 24.74932843 6.625 23.125 C6.55539062 22.22007812 6.48578125 21.31515625 6.4140625 20.3828125 C6.20431868 17.82058097 6.20431868 17.82058097 4 16 Z " fill="#FFFFFF" transform="translate(716,150)"/>
<path d="M0 0 C6.27 0 12.54 0 19 0 C19 1.98 19 3.96 19 6 C15.7 6 12.4 6 9 6 C9 9.96 9 13.92 9 18 C11.64 18 14.28 18 17 18 C17 19.98 17 21.96 17 24 C14.36 24 11.72 24 9 24 C9 30.6 9 37.2 9 44 C6.03 44 3.06 44 0 44 C0 29.48 0 14.96 0 0 Z " fill="#FFFFFF" transform="translate(427,150)"/>
<path d="M0 0 C7.92 0 15.84 0 24 0 C24 2.31 24 4.62 24 7 C21.69 7 19.38 7 17 7 C17 19.21 17 31.42 17 44 C14.03 44 11.06 44 8 44 C8 31.79 8 19.58 8 7 C5.36 7 2.72 7 0 7 C0 4.69 0 2.38 0 0 Z " fill="#FFFFFF" transform="translate(761,150)"/>
<path d="M0 0 C2.97 0 5.94 0 9 0 C9 14.52 9 29.04 9 44 C6.03 44 3.06 44 0 44 C0 29.48 0 14.96 0 0 Z " fill="#FFFFFF" transform="translate(816,150)"/>
<path d="M0 0 C8.70080479 0.98548609 17.50778805 6.13473506 23 13 C23 13.66 23 14.32 23 15 C14.75 15 6.5 15 -2 15 C-1.34 13.02 -0.68 11.04 0 9 C0.23773983 6.48636986 0.23773983 6.48636986 0.125 4.125 C0.10695313 3.34382813 0.08890625 2.56265625 0.0703125 1.7578125 C0.04710938 1.17773438 0.02390625 0.59765625 0 0 Z " fill="#FFFFFF" transform="translate(108,55)"/>
<path d="M0 0 C-0.02320312 0.61488281 -0.04640625 1.22976562 -0.0703125 1.86328125 C-0.08835937 2.67152344 -0.10640625 3.47976562 -0.125 4.3125 C-0.14820312 5.11300781 -0.17140625 5.91351563 -0.1953125 6.73828125 C-0.15817322 9.28388576 -0.15817322 9.28388576 2 12 C2 12.99 2 13.98 2 15 C-6.25 15 -14.5 15 -23 15 C-18.50259802 7.50433003 -9.26720399 0 0 0 Z " fill="#FFFFFF" transform="translate(84,55)"/>
<path d="M0 0 C2.81688642 1.64890912 3.63560511 2.7708088 4.5546875 5.87109375 C5.21153203 9.41671371 5.2069254 11.49902272 3.8125 14.875 C1.06654531 18.09439515 -0.74240979 18.86621381 -4.9375 19.3125 C-8.48551399 18.95045776 -10.22838237 18.23269198 -13 16 C-14.89441323 12.90005108 -15.00323683 11.09224952 -14.875 7.4375 C-12.81161247 -0.66866529 -7.53485136 -1.20357027 0 0 Z M-8 2 C-8.33 2.66 -8.66 3.32 -9 4 C-6.36 4 -3.72 4 -1 4 C-1.33 3.34 -1.66 2.68 -2 2 C-3.98 2 -5.96 2 -8 2 Z M-10 4 C-12.29827312 5.87938172 -12.29827312 5.87938172 -12.3125 8.9375 C-12.29101221 12.34066074 -12.29101221 12.34066074 -9 15 C-9 11.37 -9 7.74 -9 4 C-9.33 4 -9.66 4 -10 4 Z M-1 4 C-1.29562367 9.32170494 -1.29562367 9.32170494 1 14 C2.36952673 11.26094655 2.12621361 9.02912668 2 6 C1.67 5.34 1.34 4.68 1 4 C0.34 4 -0.32 4 -1 4 Z M-6 6 C-6 6.66 -6 7.32 -6 8 C-5.01 8 -4.02 8 -3 8 C-3 7.34 -3 6.68 -3 6 C-3.99 6 -4.98 6 -6 6 Z M-6 11 C-6 12.32 -6 13.64 -6 15 C-6.99 15.33 -7.98 15.66 -9 16 C-6.64632287 16.6878236 -6.64632287 16.6878236 -4 17 C-3.01 16.34 -2.02 15.68 -1 15 C-1.66 15 -2.32 15 -3 15 C-3 13.68 -3 12.36 -3 11 C-3.99 11 -4.98 11 -6 11 Z " fill="#FFFFFF" transform="translate(162,177)"/>
<path d="M0 0 C3.20879247 2.03005238 4.62927537 3.42299447 5.5078125 7.16015625 C5.85189424 11.64069887 5.3836246 13.5081736 2.5625 17.125 C-0.88335276 19.48225794 -3.92127861 19.4352899 -7.94140625 18.703125 C-11.2655836 17.56773236 -12.44680328 16.10639345 -14 13 C-14.62347637 8.01218907 -14.06233637 5.00459372 -11 1 C-7.50797535 -0.74601232 -3.81017721 -0.55838804 0 0 Z M-9 4 C-6.03 4 -3.06 4 0 4 C-0.33 3.34 -0.66 2.68 -1 2 C-5.49304582 1.57496554 -5.49304582 1.57496554 -9 4 Z M-10 4 C-11.57035335 6.49409061 -12.0274945 7.70443416 -11.75 10.6875 C-11.37875 11.8321875 -11.37875 11.8321875 -11 13 C-10.34 13.33 -9.68 13.66 -9 14 C-9 10.7 -9 7.4 -9 4 C-9.33 4 -9.66 4 -10 4 Z M0 4 C-0.84098656 8.01804691 -1.05404945 11.01803543 0 15 C1.70735301 13.96431405 1.70735301 13.96431405 3 12 C2.92421045 8.38537214 2.92421045 8.38537214 2 5 C1.34 4.67 0.68 4.34 0 4 Z M-6 6 C-6 6.66 -6 7.32 -6 8 C-5.01 8 -4.02 8 -3 8 C-3 7.34 -3 6.68 -3 6 C-3.99 6 -4.98 6 -6 6 Z M-6 11 C-6 12.32 -6 13.64 -6 15 C-6.99 15.495 -6.99 15.495 -8 16 C-6.15274948 16.69159401 -6.15274948 16.69159401 -4 17 C-3.01 16.34 -2.02 15.68 -1 15 C-1.66 13.68 -2.32 12.36 -3 11 C-3.99 11 -4.98 11 -6 11 Z " fill="#FFFFFF" transform="translate(344,177)"/>
<path d="M0 0 C4.29 0 8.58 0 13 0 C13 4.62 13 9.24 13 14 C8.71 14 4.42 14 0 14 C0 9.38 0 4.76 0 0 Z " fill="#FFFFFF" transform="translate(724,0)"/>
<path d="M0 0 C4.29 0 8.58 0 13 0 C13 4.62 13 9.24 13 14 C8.71 14 4.42 14 0 14 C0 9.38 0 4.76 0 0 Z " fill="#FFFFFF" transform="translate(626,0)"/>
</svg>
