<?xml version="1.0" encoding="UTF-8"?>
<svg version="1.1" xmlns="http://www.w3.org/2000/svg" width="360" height="92">
<path d="M0 0 C6.69820655 7.53548237 7.69128188 15.05712409 7.5 24.8125 C9.48567708 24.77994792 11.47135417 24.74739583 13.45703125 24.71484375 C15.5 24.8125 15.5 24.8125 18.5 25.8125 C18.51417969 25.19503906 18.52835937 24.57757813 18.54296875 23.94140625 C19.08075319 14.39209882 22.77901036 7.72042509 29.76171875 1.24609375 C38.60043972 -6.04336827 51.60360253 -5.95450898 62.5 -5.1875 C70.30751704 -4.08011677 76.96874718 -2.02373418 82.5 3.8125 C86.49728308 9.93333971 86.15397004 16.6833055 85.5 23.8125 C83.80227342 29.30514483 80.31903755 32.82368926 75.5 35.8125 C65.17445108 40.68928987 54.62645671 40.23546984 43.5 39.8125 C43.95712762 41.0981832 44.42059507 42.38161341 44.88671875 43.6640625 C45.14412842 44.37900879 45.40153809 45.09395508 45.66674805 45.83056641 C47.25451722 49.60715889 49.4510013 51.30079332 53.0625 53.0625 C61.72821261 54.95320093 68.72993213 53.80957835 76.96875 50.6875 C79.5 49.8125 79.5 49.8125 82.5 49.8125 C82.5 55.7525 82.5 61.6925 82.5 67.8125 C74.13853966 70.45702227 66.74695923 71.30411505 58 71.25 C56.85402344 71.26998047 55.70804687 71.28996094 54.52734375 71.31054688 C44.40571886 71.30478941 35.29539842 69.11403535 27.2890625 62.65625 C21.9423988 57.14615116 18.56537207 50.73482412 18.4375 43.0625 C18.458125 41.99 18.47875 40.9175 18.5 39.8125 C14.54 39.8125 10.58 39.8125 6.5 39.8125 C6.83 49.7125 7.16 59.6125 7.5 69.8125 C-2.66372449 70.57957355 -12.80518371 70.9908091 -22.99871826 71.09960938 C-24.96632173 71.12457272 -26.93363879 71.16953493 -28.90087891 71.21484375 C-37.9567736 71.27136214 -44.50832139 69.87743045 -51.875 64.5625 C-56.6674607 59.54182689 -57.67180911 54.66132573 -58 47.8125 C-57.80933783 40.62181245 -55.15993289 36.71424497 -50.4375 31.5625 C-40.32696956 25.53920527 -28.95905819 24.7801538 -17.5 23.8125 C-18.26891032 17.73192594 -18.26891032 17.73192594 -21.5 12.75 C-28.66614085 10.51058099 -35.19844277 11.67130604 -42.17578125 14.05859375 C-44.59861797 14.84448868 -46.99617104 15.35604976 -49.5 15.8125 C-50.7062252 12.19382441 -50.60816918 8.88743749 -50.5625 5.125 C-50.55798828 4.42310547 -50.55347656 3.72121094 -50.54882812 2.99804688 C-50.53706927 1.26949462 -50.51913454 -0.45901365 -50.5 -2.1875 C-35.50045622 -5.66325635 -13.43053521 -9.81589734 0 0 Z M44.1875 16.6875 C43.19697658 19.74911784 43.37729374 22.62213735 43.5 25.8125 C45.39510699 25.89410748 47.29124504 25.95196459 49.1875 26 C50.77111328 26.05220703 50.77111328 26.05220703 52.38671875 26.10546875 C55.89023718 25.77577756 57.68351356 24.87457043 60.5 22.8125 C62.8110042 19.62111325 62.99351858 16.67839552 62.5 12.8125 C60.11604002 9.83255003 58.36977106 9.79596299 54.5625 9.3125 C49.27054752 9.5095932 47.09331878 12.53633031 44.1875 16.6875 Z M-31.5 41.8125 C-33.85598629 43.74255229 -33.85598629 43.74255229 -33.8125 47.1875 C-33.48002326 51.04423016 -33.14366005 52.12276309 -30.5 54.8125 C-28.11122187 55.54565933 -28.11122187 55.54565933 -25.5 55.625 C-24.63375 55.69332031 -23.7675 55.76164062 -22.875 55.83203125 C-20.34850471 55.93334361 -20.34850471 55.93334361 -17.5 54.8125 C-17.5 49.5325 -17.5 44.2525 -17.5 38.8125 C-24.30273784 38.8125 -25.95922147 38.98778938 -31.5 41.8125 Z " fill="#FFFFFF" transform="translate(57.5,21.1875)"/>
<path d="M0 0 C8.33246709 8.23022823 7.46238388 18.98115869 7.57836914 30.01489258 C7.60985091 35.8850532 7.58765097 41.75485823 7.5625 47.625 C7.55747274 49.68098849 7.55291201 51.73697817 7.54882812 53.79296875 C7.53878435 58.77870032 7.51919232 63.76426215 7.5 68.75 C-0.75 68.75 -9 68.75 -17.5 68.75 C-17.48839844 66.25308594 -17.47679687 63.75617188 -17.46484375 61.18359375 C-17.45700026 58.71102017 -17.45095377 56.23844807 -17.44506836 53.76586914 C-17.4401016 52.07380533 -17.43332592 50.38174566 -17.42456055 48.68969727 C-17.3819417 40.23863109 -17.38123814 31.78968026 -17.81640625 23.34765625 C-17.8738501 22.18886963 -17.93129395 21.03008301 -17.99047852 19.83618164 C-18.54538573 16.47509777 -19.49059815 14.4805666 -21.5 11.75 C-25.68462795 9.65768602 -30.82144372 10.75 -35.5 10.75 C-35.17 29.89 -34.84 49.03 -34.5 68.75 C-43.08 68.75 -51.66 68.75 -60.5 68.75 C-60.5 44.66 -60.5 20.57 -60.5 -4.25 C-10.13268927 -8.12440852 -10.13268927 -8.12440852 0 0 Z " fill="#FFFFFF" transform="translate(263.5,22.25)"/>
<path d="M0 0 C6.49083453 6.54026603 6.84173365 15.6875114 6.83988953 24.47941589 C6.82440567 25.60382584 6.80892181 26.72823578 6.79296875 27.88671875 C6.78872391 29.06974075 6.78447906 30.25276276 6.78010559 31.47163391 C6.7634564 35.21049803 6.72582955 38.94880174 6.6875 42.6875 C6.6724354 45.23892445 6.65875012 47.79035744 6.64648438 50.34179688 C6.61359806 56.56138567 6.56353771 62.78065278 6.5 69 C-4.14668093 69.69263248 -14.76514319 70.22620062 -25.4375 70.3125 C-27.27151367 70.35600586 -27.27151367 70.35600586 -29.14257812 70.40039062 C-37.25806693 70.4570813 -45.15056446 69.93066191 -51.43725586 64.24926758 C-57.14578912 58.08769028 -57.8983217 52.32024039 -57.75 44.09765625 C-57.33745089 38.98591489 -55.52649601 36.26802448 -52.375 32.375 C-42.45410915 24.17948148 -29.85510715 23.61188145 -17.5 24 C-17.86966799 22.20275237 -18.2717248 20.41214422 -18.6875 18.625 C-18.90792969 17.62726562 -19.12835938 16.62953125 -19.35546875 15.6015625 C-20.26898775 12.81850964 -20.26898775 12.81850964 -22.86328125 11.671875 C-31.63154874 9.43759054 -39.15021024 12.12036337 -47.5 15 C-48.49 15.33 -49.48 15.66 -50.5 16 C-51.82594359 10.03325384 -51.5884587 4.07416385 -51.5 -2 C-38.46096499 -9.33638376 -12.09115916 -9.08470877 0 0 Z M-28.8125 39.375 C-29.48925781 39.63023438 -30.16601562 39.88546875 -30.86328125 40.1484375 C-32.6930896 40.89697491 -32.6930896 40.89697491 -33.5 43 C-34.10316689 48.14797393 -34.10316689 48.14797393 -32.30078125 52.70703125 C-29.97544904 54.37662987 -28.27716337 54.53252946 -25.4375 54.75 C-24.55964844 54.82734375 -23.68179688 54.9046875 -22.77734375 54.984375 C-20.46682513 55.17230408 -20.46682513 55.17230408 -18.5 54 C-18.5 48.72 -18.5 43.44 -18.5 38 C-24.00264429 37.93056286 -24.00264429 37.93056286 -28.8125 39.375 Z " fill="#FFFFFF" transform="translate(335.5,22)"/>
<path d="M0 0 C4.95 0 9.9 0 15 0 C15.06988892 6.29000291 15.03727221 11.77636672 14 18 C18.95 18 23.9 18 29 18 C29 23.61 29 29.22 29 35 C24.05 35 19.1 35 14 35 C14.09713145 39.60863188 14.19998007 44.21640518 14.31738281 48.82446289 C14.35557409 50.39079081 14.39044394 51.95720349 14.421875 53.52368164 C14.46774071 55.780418 14.52569769 58.03657583 14.5859375 60.29296875 C14.59748871 60.98899704 14.60903992 61.68502533 14.62094116 62.40214539 C14.73962749 66.34631513 15.28121304 69.43879404 17 73 C21.65537393 73.83796731 25.37078475 74.0161692 30 73 C31.2039337 76.75399798 31.09877617 80.33217412 31.0625 84.25 C31.05347656 85.51328125 31.04445312 86.7765625 31.03515625 88.078125 C31.02355469 89.04234375 31.01195312 90.0065625 31 91 C21.883416 93.57387998 8.53129909 93.93493896 -0.0625 89.8125 C-5.65119307 86.26602097 -8.29908699 82.36508595 -10 76 C-10.26030266 72.81177482 -10.23342666 69.64232807 -10.1953125 66.4453125 C-10.1924826 65.54376434 -10.18965271 64.64221619 -10.18673706 63.71334839 C-10.17559439 60.85042724 -10.1505008 57.98782566 -10.125 55.125 C-10.11496255 53.17708787 -10.10583804 51.22917081 -10.09765625 49.28125 C-10.07567443 44.5207113 -10.0411855 39.76040973 -10 35 C-12.64 35 -15.28 35 -18 35 C-18 30.38 -18 25.76 -18 21 C-16.618125 20.608125 -15.23625 20.21625 -13.8125 19.8125 C-9.34669911 18.26556897 -6.78642896 16.98061279 -4 13 C-2.41311649 8.7039305 -1.20775935 4.42845096 0 0 Z " fill="#FFFFFF" transform="translate(165,0)"/>
<path d="M0 0 C0.89589844 -0.01417969 1.79179687 -0.02835938 2.71484375 -0.04296875 C5.0625 0.1875 5.0625 0.1875 7.0625 2.1875 C7.3925 1.5275 7.7225 0.8675 8.0625 0.1875 C9.0525 0.1875 10.0425 0.1875 11.0625 0.1875 C11.0625 3.4875 11.0625 6.7875 11.0625 10.1875 C8.41659986 10.21434679 5.77096904 10.23426357 3.125 10.25 C1.99288086 10.26256836 1.99288086 10.26256836 0.83789062 10.27539062 C-1.08744313 10.28402441 -3.01285581 10.23974333 -4.9375 10.1875 C-5.9375 9.1875 -5.9375 9.1875 -6.0703125 7.375 C-6.06773437 6.653125 -6.06515625 5.93125 -6.0625 5.1875 C-6.06507813 4.465625 -6.06765625 3.74375 -6.0703125 3 C-5.79374846 -0.77428572 -3.20008255 0.02295612 0 0 Z " fill="#FFFFFF" transform="translate(348.9375,17.8125)"/>
<path d="" fill="#FFFFFF" transform="translate(0,0)"/>
<path d="" fill="#FFFFFF" transform="translate(0,0)"/>
<path d="" fill="#FFFFFF" transform="translate(0,0)"/>
<path d="" fill="#FFFFFF" transform="translate(0,0)"/>
<path d="" fill="#FFFFFF" transform="translate(0,0)"/>
<path d="" fill="#FFFFFF" transform="translate(0,0)"/>
<path d="" fill="#FFFFFF" transform="translate(0,0)"/>
<path d="" fill="#FFFFFF" transform="translate(0,0)"/>
</svg>
