<?xml version="1.0" encoding="UTF-8"?>
<svg version="1.1" xmlns="http://www.w3.org/2000/svg" width="850" height="468">
<path d="M0 0 C6.38741378 4.82758166 11.87789784 10.48879268 16.33984375 17.16015625 C16.33984375 18.15015625 16.33984375 19.14015625 16.33984375 20.16015625 C15.07011719 20.45148438 13.80039063 20.7428125 12.4921875 21.04296875 C-14.99863006 27.37710101 -14.99863006 27.37710101 -36.66015625 44.16015625 C-37.38431255 50.41495685 -35.4556389 55.31941984 -33.22265625 61.03515625 C-32.89716797 61.90140625 -32.57167969 62.76765625 -32.23632812 63.66015625 C-30.94252601 67.70574219 -30.94252601 67.70574219 -28.66015625 71.16015625 C-28.12390625 70.27328125 -27.58765625 69.38640625 -27.03515625 68.47265625 C-17.61785507 54.49436251 2.51530461 49.66249902 18.10302734 46.56689453 C37.96933224 42.95444485 64.40602678 40.28571447 82.33984375 51.16015625 C84.02879428 52.46514731 85.70136501 53.79233208 87.33984375 55.16015625 C89.66379713 42.19362353 89.66379713 42.19362353 89.33984375 29.16015625 C84.67376566 22.88508571 73.47091471 20.8482417 66.03515625 19.53125 C54.17676251 17.8985726 42.28078934 18.04558428 30.33984375 18.16015625 C31.79150193 13.35988779 34.66436003 10.29699195 38.15234375 6.84765625 C38.72621826 6.27732666 39.30009277 5.70699707 39.89135742 5.11938477 C45.48712654 -0.2659999 51.49391818 -4.15217184 58.33984375 -7.83984375 C59.07976562 -8.2575 59.8196875 -8.67515625 60.58203125 -9.10546875 C78.39281117 -18.69038646 101.28923593 -19.53100581 120.47265625 -14.1015625 C141.58386835 -7.50234622 159.73568185 6.42304633 170.30566406 25.94384766 C182.0491903 49.37263566 181.23324531 75.29899152 173.27734375 99.72265625 C168.1526219 114.71406826 160.39216714 128.22271552 151.33984375 141.16015625 C149.74117569 143.63986805 148.14753007 146.12234875 146.56640625 148.61328125 C146.16164063 149.12375 145.756875 149.63421875 145.33984375 150.16015625 C144.67984375 150.16015625 144.01984375 150.16015625 143.33984375 150.16015625 C143.0867041 150.72041504 142.83356445 151.28067383 142.57275391 151.85791016 C137.24130265 161.81347162 127.81413072 169.99959335 119.875 177.88574219 C117.96770043 179.78231564 116.07134316 181.6893593 114.17578125 183.59765625 C107.94144606 189.83848031 101.66783337 195.79433443 94.72631836 201.2512207 C92.14795806 203.31364517 89.71197392 205.49316066 87.27734375 207.72265625 C67.00894218 226.16015625 67.00894218 226.16015625 63.33984375 226.16015625 C59.78155032 194.17336958 59.15077238 161.99638217 59.15225983 129.84247208 C59.15234222 127.76122128 59.15098479 125.67997462 59.14959717 123.59872437 C59.14851512 119.59961949 59.15821597 115.60064631 59.171875 111.6015625 C59.1758429 110.31898056 59.17981079 109.03639862 59.18389893 107.71495056 C59.2274192 101.15452917 59.38086461 94.61682366 59.71630859 88.06591797 C59.77904465 86.77241928 59.8417807 85.47892059 59.90641785 84.14622498 C60.03365285 81.68737307 60.17903892 79.22937293 60.34516907 76.77284241 C60.40230576 75.68241135 60.45944244 74.59198029 60.51831055 73.46850586 C60.57995895 72.51205673 60.64160736 71.5556076 60.7051239 70.57017517 C60.56600461 68.034804 60.56600461 68.034804 58.56697083 66.40260315 C47.79211034 60.39163406 31.83722621 62.24066384 20.33984375 65.16015625 C9.72611398 68.35374652 9.72611398 68.35374652 1.33984375 75.16015625 C1.70294554 79.90651722 2.84630376 84.26689308 4.23828125 88.8046875 C4.63393005 90.11237558 5.02925916 91.42016043 5.42431641 92.72802734 C5.6340509 93.41660828 5.8437854 94.10518921 6.05987549 94.81463623 C18.2438117 134.95883831 27.8901215 175.65867991 35.77734375 216.84765625 C35.95123627 217.75378662 36.12512878 218.65991699 36.30429077 219.59350586 C36.79869571 222.18126871 37.28732726 224.77004241 37.7734375 227.359375 C37.91783264 228.11723801 38.06222778 228.87510101 38.21099854 229.65592957 C38.6126591 231.82063237 38.98489733 233.98732502 39.33984375 236.16015625 C39.47570892 236.96345871 39.6115741 237.76676117 39.7515564 238.59440613 C39.86746124 239.39131363 39.98336609 240.18822113 40.1027832 241.00927734 C40.21209671 241.72787933 40.32141022 242.44648132 40.43403625 243.18685913 C40.31222367 245.73878641 39.48364331 246.60228295 37.69921875 248.375 C36.51972235 249.31305586 35.31521482 250.22037277 34.08984375 251.09765625 C33.49042969 251.56494141 32.89101562 252.03222656 32.2734375 252.51367188 C24.91301652 258.20126991 24.91301652 258.20126991 22.48828125 258.02734375 C19.59445313 256.85928949 17.43843709 255.18948427 14.96484375 253.28515625 C14.44736572 252.88876953 13.9298877 252.49238281 13.39672852 252.08398438 C11.70505245 250.78366432 10.02189023 249.47290346 8.33984375 248.16015625 C7.76314941 247.7125293 7.18645508 247.26490234 6.59228516 246.80371094 C-0.37891292 241.38960028 -7.26678516 235.88306257 -14.08203125 230.2734375 C-17.40507849 227.54954575 -20.76517166 224.87359087 -24.125 222.1953125 C-27.76364557 219.27430427 -31.36271886 216.30569586 -34.96484375 213.33984375 C-38.27305642 210.66450655 -41.65962964 208.10275302 -45.078125 205.5703125 C-45.60019531 205.10496094 -46.12226562 204.63960937 -46.66015625 204.16015625 C-46.66015625 203.50015625 -46.66015625 202.84015625 -46.66015625 202.16015625 C-47.2413623 201.90113525 -47.82256836 201.64211426 -48.42138672 201.37524414 C-50.83092413 200.06747231 -52.50604734 198.61546386 -54.48046875 196.71875 C-55.18042969 196.05294922 -55.88039063 195.38714844 -56.6015625 194.70117188 C-57.68244141 193.65993164 -57.68244141 193.65993164 -58.78515625 192.59765625 C-60.22331164 191.21931794 -61.66332681 189.84291668 -63.10546875 188.46875 C-63.73984863 187.85829834 -64.37422852 187.24784668 -65.02783203 186.61889648 C-66.6117 185.07499304 -66.6117 185.07499304 -68.66015625 184.16015625 C-68.66015625 183.50015625 -68.66015625 182.84015625 -68.66015625 182.16015625 C-69.25957031 181.89847656 -69.85898438 181.63679687 -70.4765625 181.3671875 C-72.79077389 180.08795437 -73.9567507 178.89765183 -75.59765625 176.84765625 C-78.1028017 173.74239239 -80.8304267 170.97319123 -83.66015625 168.16015625 C-100.66015625 150.21983602 -100.66015625 150.21983602 -100.66015625 146.16015625 C-101.32015625 146.16015625 -101.98015625 146.16015625 -102.66015625 146.16015625 C-104.4140058 143.80003772 -106.02009206 141.44848346 -107.59765625 138.97265625 C-108.08129639 138.21525146 -108.56493652 137.45784668 -109.06323242 136.67749023 C-119.94457595 119.33661267 -129.86822929 100.71889115 -132.66015625 80.16015625 C-132.76972656 79.35707031 -132.87929687 78.55398438 -132.9921875 77.7265625 C-135.6006189 55.43316878 -131.19407162 32.59307436 -117.41699219 14.53027344 C-87.64827498 -22.14783707 -37.72813703 -26.09390976 0 0 Z " fill="#FFFFFF" transform="translate(172.66015625,184.83984375)"/>
<path d="M0 0 C7.1265352 5.86891134 11.00005 15.15229492 13 24 C14.77917649 42.83342806 11.09003755 58.71336233 -0.8125 73.75 C-1.534375 74.4925 -2.25625 75.235 -3 76 C-3.66 76 -4.32 76 -5 76 C-5 76.66 -5 77.32 -5 78 C-7.1875 79.7265625 -7.1875 79.7265625 -10 81.625 C-10.928125 82.25664063 -11.85625 82.88828125 -12.8125 83.5390625 C-13.534375 84.02117187 -14.25625 84.50328125 -15 85 C-6.21073678 84.55308831 2.08386673 81.98167846 9.640625 77.3984375 C11.82238285 76.10527639 13.52693212 75.45797553 16 75 C10.44668121 93.51106263 1.34271694 106.49521191 -15.8125 115.75 C-23.62367325 119.40577531 -31.9645544 121.37589187 -40.3671875 123.1484375 C-50.81819397 125.36518245 -59.68412711 127.63785823 -69 133 C-69.99 133.33 -70.98 133.66 -72 134 C-73.20882096 136.00016466 -73.20882096 136.00016466 -74 138 C-74.99 138 -75.98 138 -77 138 C-78.70667103 125.43643372 -77.63458508 113.51380817 -70 103 C-67.11248557 99.55439454 -64.10998432 96.24549562 -61 93 C-76.65899853 93.56428824 -94.01349387 98.61562744 -105.7421875 109.578125 C-107.4774467 111.53972236 -108.72630891 113.72076331 -110 116 C-110.66 116 -111.32 116 -112 116 C-112.2475 116.763125 -112.495 117.52625 -112.75 118.3125 C-114.12699035 122.37462153 -115.60529471 126.39313368 -117.09765625 130.4140625 C-118.72690101 135.08315354 -119.24122333 139.29315993 -119.5625 144.25 C-119.64628906 145.51328125 -119.73007813 146.7765625 -119.81640625 148.078125 C-119.87699219 149.04234375 -119.93757813 150.0065625 -120 151 C-130.22439384 141.67775856 -136.06385973 129.28564284 -136.9375 115.5 C-137.69961829 96.8706725 -131.80966162 81.87346141 -119.6875 67.875 C-103.12939879 50.16930761 -81.23904141 45.57752459 -58.1875 41.5625 C-28.06506096 37.02214282 -28.06506096 37.02214282 -3.57421875 20.25390625 C-0.21840787 13.85273395 -0.19980879 7.11319279 0 0 Z " fill="#FFFFFF" transform="translate(292,27)"/>
<path d="M0 0 C1.23556641 0.01740234 1.23556641 0.01740234 2.49609375 0.03515625 C3.32238281 0.04417969 4.14867187 0.05320313 5 0.0625 C5.63808594 0.07410156 6.27617187 0.08570313 6.93359375 0.09765625 C7.26359375 1.08765625 7.59359375 2.07765625 7.93359375 3.09765625 C8.48144531 2.61167969 9.02929688 2.12570313 9.59375 1.625 C13.68510286 -1.04564936 18.21905523 -0.56488984 22.93359375 0.09765625 C26.12109375 2.09765625 26.12109375 2.09765625 27.93359375 4.09765625 C28.51109375 3.80890625 29.08859375 3.52015625 29.68359375 3.22265625 C30.79734375 2.66578125 30.79734375 2.66578125 31.93359375 2.09765625 C32.52785156 1.7521875 33.12210937 1.40671875 33.734375 1.05078125 C37.93525032 -0.76984677 42.45465613 -0.4406137 46.93359375 0.09765625 C51.12461719 2.40699569 52.4905658 4.6361301 53.93359375 9.09765625 C54.16064453 12.14379883 54.16064453 12.14379883 54.12890625 15.4921875 C54.12246094 16.69423828 54.11601563 17.89628906 54.109375 19.13476562 C54.09261719 20.38064453 54.07585938 21.62652344 54.05859375 22.91015625 C54.04957031 24.17537109 54.04054688 25.44058594 54.03125 26.74414062 C54.00771769 29.86217189 53.9748392 32.97981722 53.93359375 36.09765625 C50.63359375 36.09765625 47.33359375 36.09765625 43.93359375 36.09765625 C43.9085376 35.38109863 43.88348145 34.66454102 43.85766602 33.92626953 C43.74189624 30.69154111 43.61908406 27.45711784 43.49609375 24.22265625 C43.45677734 23.09472656 43.41746094 21.96679688 43.37695312 20.8046875 C43.33505859 19.72832031 43.29316406 18.65195313 43.25 17.54296875 C43.19501343 16.05047607 43.19501343 16.05047607 43.13891602 14.52783203 C43.08399843 12.08986124 43.08399843 12.08986124 41.93359375 10.09765625 C36.61188881 9.80203258 36.61188881 9.80203258 31.93359375 12.09765625 C31.42398684 14.61150884 31.42398684 14.61150884 31.421875 17.54296875 C31.38642578 18.61933594 31.35097656 19.69570312 31.31445312 20.8046875 C31.29189453 21.93261719 31.26933594 23.06054688 31.24609375 24.22265625 C31.21193359 25.35832031 31.17777344 26.49398437 31.14257812 27.6640625 C31.05989873 30.47516204 30.99081438 33.28594178 30.93359375 36.09765625 C27.63359375 36.09765625 24.33359375 36.09765625 20.93359375 36.09765625 C20.88460938 34.47214844 20.835625 32.84664063 20.78515625 31.171875 C20.7101281 29.04295133 20.63458029 26.91404593 20.55859375 24.78515625 C20.52765625 23.71330078 20.49671875 22.64144531 20.46484375 21.53710938 C20.42617188 20.50908203 20.3875 19.48105469 20.34765625 18.421875 C20.31623535 17.47401123 20.28481445 16.52614746 20.25244141 15.54956055 C20.08468865 12.84462935 20.08468865 12.84462935 17.93359375 10.09765625 C14.21719236 9.82737251 11.47639275 9.91672325 7.93359375 11.09765625 C7.60359375 19.34765625 7.27359375 27.59765625 6.93359375 36.09765625 C3.63359375 36.09765625 0.33359375 36.09765625 -3.06640625 36.09765625 C-3.09105723 31.13143276 -3.10924274 26.16524459 -3.12133789 21.19897461 C-3.12637815 19.50821309 -3.1332103 17.81745596 -3.1418457 16.12670898 C-3.15392482 13.70164918 -3.15963748 11.27664681 -3.1640625 8.8515625 C-3.16922379 8.09114151 -3.17438507 7.33072052 -3.17970276 6.54725647 C-3.17989863 4.73033055 -3.12837902 2.91352498 -3.06640625 1.09765625 C-2.06640625 0.09765625 -2.06640625 0.09765625 0 0 Z " fill="#FFFFFF" transform="translate(466.06640625,227.90234375)"/>
<path d="M0 0 C3.63 0 7.26 0 11 0 C11 6.6 11 13.2 11 20 C17.6 20 24.2 20 31 20 C31 13.4 31 6.8 31 0 C34.63 0 38.26 0 42 0 C42.02464201 6.96003966 42.04283222 13.92005416 42.05493164 20.88012695 C42.05997341 23.24992312 42.06680665 25.61971615 42.07543945 27.98950195 C42.0875119 31.38754039 42.09322971 34.78553785 42.09765625 38.18359375 C42.10281754 39.25024765 42.10797882 40.31690155 42.11329651 41.4158783 C42.11337204 42.39681961 42.11344757 43.37776093 42.11352539 44.38842773 C42.115746 45.25668686 42.11796661 46.12494598 42.12025452 47.01951599 C42 49 42 49 41 50 C39.50261876 50.0979057 38.00057108 50.12974864 36.5 50.125 C35.6853125 50.12757813 34.870625 50.13015625 34.03125 50.1328125 C32 50 32 50 31 49 C30.91330568 47.5112814 30.89296506 46.018555 30.90234375 44.52734375 C30.90484131 43.71773193 30.90733887 42.90812012 30.90991211 42.07397461 C30.91901611 41.03893799 30.92812012 40.00390137 30.9375 38.9375 C30.958125 35.658125 30.97875 32.37875 31 29 C24.4 29 17.8 29 11 29 C11.03958259 35.5370285 11.03958259 35.5370285 11.09008789 42.07397461 C11.09258545 42.88358643 11.09508301 43.69319824 11.09765625 44.52734375 C11.10289307 45.35999756 11.10812988 46.19265137 11.11352539 47.05053711 C11 49 11 49 10 50 C6.7 50 3.4 50 0 50 C0 33.5 0 17 0 0 Z " fill="#FFFFFF" transform="translate(415,281)"/>
<path d="M0 0 C3.96 0 7.92 0 12 0 C14.4054442 6.47686857 16.80812687 12.95475219 19.20825195 19.43359375 C20.02520063 21.63765151 20.8429043 23.84142958 21.66137695 26.04492188 C22.83743535 29.21150726 24.01077834 32.3790873 25.18359375 35.546875 C25.55028671 36.53242371 25.91697968 37.51797241 26.29478455 38.53338623 C26.6350618 39.4540387 26.97533905 40.37469116 27.32592773 41.32324219 C27.6257103 42.1315448 27.92549286 42.93984741 28.23435974 43.77264404 C28.93574349 45.81306871 29.47670321 47.90681285 30 50 C26.37 50 22.74 50 19 50 C17.35 46.37 15.7 42.74 14 39 C8.39 39 2.78 39 -3 39 C-4.32 42.63 -5.64 46.26 -7 50 C-10.63 50 -14.26 50 -18 50 C-16.05565399 43.3106168 -13.89797091 36.78431342 -11.42578125 30.2734375 C-11.09708542 29.39974518 -10.76838959 28.52605286 -10.42973328 27.62588501 C-9.39377637 24.87440147 -8.353227 22.12468234 -7.3125 19.375 C-6.60320925 17.49360506 -5.89422215 15.61209561 -5.18554688 13.73046875 C-3.4605337 9.15231649 -1.73140369 4.57573905 0 0 Z M5 13 C4.13670227 15.45546966 3.28410564 17.91378043 2.4375 20.375 C2.0672168 21.42300781 2.0672168 21.42300781 1.68945312 22.4921875 C1.06908951 24.30959075 0.52893476 26.15391397 0 28 C0.33 28.66 0.66 29.32 1 30 C4.3 29.67 7.6 29.34 11 29 C10.34309381 25.21760329 9.279869 21.78158474 7.9375 18.1875 C7.57527344 17.21167969 7.21304687 16.23585938 6.83984375 15.23046875 C6.56269531 14.49441406 6.28554688 13.75835937 6 13 C5.67 13 5.34 13 5 13 Z " fill="#FFFFFF" transform="translate(430,347)"/>
<path d="M0 0 C3.33926306 -0.41056513 6.64335548 -0.12910171 10 0 C12.79685987 6.11734427 15.32415088 12.29142186 17.671875 18.59375 C17.99915588 19.4664856 18.32643677 20.33922119 18.66363525 21.23840332 C19.34721929 23.06306669 20.02947716 24.88822741 20.71044922 26.71386719 C21.75800762 29.52146148 22.81033466 32.32723509 23.86328125 35.1328125 C24.52892463 36.91135402 25.19429915 38.68999618 25.859375 40.46875 C26.17493347 41.3103064 26.49049194 42.15186279 26.81561279 43.0189209 C29 48.88426615 29 48.88426615 29 50 C25.04 50 21.08 50 17 50 C15.02 44.555 15.02 44.555 13 39 C7.39 39 1.78 39 -4 39 C-5.32 42.63 -6.64 46.26 -8 50 C-11.63 50 -15.26 50 -19 50 C-15.42322381 38.72636365 -11.43172252 27.6238029 -7.25 16.5625 C-7.00607513 15.91358795 -6.76215027 15.2646759 -6.51083374 14.59609985 C-5.80844718 12.73039199 -5.0996504 10.86710127 -4.390625 9.00390625 C-3.97844727 7.91924072 -3.56626953 6.8345752 -3.14160156 5.71704102 C-2 3 -2 3 0 0 Z M4 13 C3.16301614 15.45714547 2.33027576 17.91558857 1.5 20.375 C1.26152344 21.07367188 1.02304687 21.77234375 0.77734375 22.4921875 C-0.53735912 26.16403079 -0.53735912 26.16403079 -1 30 C2.63 30 6.26 30 10 30 C9.35083537 23.99522721 7.14204997 18.599219 5 13 C4.67 13 4.34 13 4 13 Z " fill="#FFFFFF" transform="translate(431,214)"/>
<path d="M0 0 C0.33 -0.66 0.66 -1.32 1 -2 C2.47906892 -2.02689216 3.95827483 -2.04634621 5.4375 -2.0625 C6.26121094 -2.07410156 7.08492187 -2.08570313 7.93359375 -2.09765625 C10 -2 10 -2 11 -1 C11.08748207 0.92667507 11.10697334 2.85651861 11.09765625 4.78515625 C11.09443359 5.95498047 11.09121094 7.12480469 11.08789062 8.33007812 C11.07532227 10.17762695 11.07532227 10.17762695 11.0625 12.0625 C11.05798828 13.29806641 11.05347656 14.53363281 11.04882812 15.80664062 C11.03699608 18.87114117 11.02051173 21.93554721 11 25 C12.32 25.33 13.64 25.66 15 26 C15 28.64 15 31.28 15 34 C8.73920552 34.43177893 5.90924297 33.92739438 1 30 C1 30.66 1 31.32 1 32 C-5.01511459 34.734143 -9.52740541 35.76525307 -16 34 C-20.92031596 31.4005878 -24.74693555 28.31351578 -26.7578125 22.99609375 C-28.30765986 17.35582646 -28.27616103 12.43309742 -26 7 C-22.65274449 1.86166917 -19.20715743 -1.1253207 -13.25 -2.75 C-8.53213671 -3.11291256 -4.27080579 -2.1354029 0 0 Z M-17 12 C-17.9669424 16.24427815 -17.47541541 19.14059522 -15.375 22.9375 C-12.41310805 25.50966932 -10.9191424 26 -7 26 C-4.41348618 25.25266711 -2.41241999 24.27716352 0 23 C1.86035042 19.27929915 1.56208663 15.05225244 1 11 C-1.12566396 8.21006605 -2.51593574 7.3081827 -5.9375 6.59765625 C-11.21569179 6.18779666 -13.97088113 7.45632169 -17 12 Z " fill="#FFFFFF" transform="translate(649,363)"/>
<path d="M0 0 C0.33 -0.33 0.66 -0.66 1 -1 C3.97 -1 6.94 -1 10 -1 C10.495 11.375 10.495 11.375 11 24 C12.32 24.66 13.64 25.32 15 26 C15 28.97 15 31.94 15 35 C8.60743802 35.37603306 8.60743802 35.37603306 5.375 33.375 C4.59125 32.92125 3.8075 32.4675 3 32 C0.2995961 32.64663567 0.2995961 32.64663567 -2 34 C-6.18365063 36.09182531 -11.44407619 35.42935408 -16 35 C-21.4369471 32.37861479 -24.84770793 28.65027176 -27.25 23.125 C-28.81757497 16.59343764 -28.29553728 10.85326771 -25 5 C-18.15564124 -2.78840824 -9.2653767 -3.70615068 0 0 Z M-16 10 C-17.9579567 13.06462787 -18.00156724 14.91066741 -17.9375 18.5625 C-17.24356447 22.06008639 -17.24356447 22.06008639 -14.9375 24.4375 C-10.86036211 26.60619037 -8.59806306 26.5108959 -4 26 C-1.69085665 24.95049259 -1.69085665 24.95049259 0 23 C0.59713962 20.1401439 0.59713962 20.1401439 0.4375 17 C0.43621094 15.948125 0.43492187 14.89625 0.43359375 13.8125 C0.22136744 11.01351815 0.22136744 11.01351815 -1.3203125 9.1796875 C-6.27606362 5.69913672 -11.32097725 6.73556552 -16 10 Z " fill="#FFFFFF" transform="translate(530,296)"/>
<path d="M0 0 C3.6875 1.5 3.6875 1.5 6 3 C6 2.01 6 1.02 6 0 C8.97 0 11.94 0 15 0 C15.33 8.58 15.66 17.16 16 26 C17.32 26.66 18.64 27.32 20 28 C20 30.64 20 33.28 20 36 C18.5629191 36.05422947 17.12524538 36.09289723 15.6875 36.125 C14.88699219 36.14820313 14.08648438 36.17140625 13.26171875 36.1953125 C11 36 11 36 8 34 C8 33.34 8 32.68 8 32 C6.6078125 32.9590625 6.6078125 32.9590625 5.1875 33.9375 C0.52767945 36.952678 -3.52753148 37.7023489 -9 37 C-15.34285351 34.8895388 -19.00073247 31.59868156 -22.25 25.75 C-24.01878012 19.2644729 -23.57274628 13.68239602 -20.28125 7.79296875 C-14.90870733 0.27468495 -8.75879255 -0.73913861 0 0 Z M-12 13 C-13.21645511 17.10553601 -13.26054288 19.2732225 -11.8125 23.3125 C-9.59482159 26.67547623 -9.59482159 26.67547623 -6 28 C-1.97965005 28.05802567 1.0661272 27.5836705 4.5 25.4375 C6.61400931 22.00223488 6.64570463 18.8742278 6 15 C4.84587664 12.07201057 4.84587664 12.07201057 3 10 C-3.00791974 7.99736009 -7.68696845 8.05269911 -12 13 Z " fill="#FFFFFF" transform="translate(666,228)"/>
<path d="M0 0 C4.36386245 4.28152543 6.2081934 8.12292759 6.4375 14.25 C6.23838599 20.02430629 4.51276559 23.46824513 0.875 27.9375 C-3.55611282 31.58085943 -7.76164372 33.01687254 -13.4375 33.625 C-21.28683183 32.78400016 -25.4823123 30.32344514 -30.58984375 24.28515625 C-33.3788119 20.07341015 -33.57327622 15.18398168 -32.9375 10.25 C-31.07788399 4.47987719 -28.08295444 0.55085756 -22.9375 -2.75 C-15.13746848 -5.87899537 -6.66844256 -5.33475405 0 0 Z M-21.9375 9.25 C-22.98643023 12.00417435 -23.31397702 14.32246972 -22.9375 17.25 C-21.20276964 20.93333159 -18.85681716 22.91748103 -15 24.3125 C-11.15666733 24.23406464 -9.10878881 23.41224237 -5.9375 21.25 C-3.96563043 18.16359546 -3.93346598 16.36496954 -4.0625 12.6875 C-5.04604663 8.82356681 -5.58492511 7.39908647 -8.9375 5.25 C-14.5839195 4.53299435 -18.1064051 4.6062486 -21.9375 9.25 Z " fill="#FFFFFF" transform="translate(558.9375,364.75)"/>
<path d="M0 0 C4.2074238 4.16706482 5.78594529 8.3860076 6.4375 14.25 C6.20216715 19.52964144 4.13326948 23.94552965 0.609375 27.85546875 C-3.66698844 31.69294226 -7.7445214 33.10365939 -13.375 33.625 C-19.12562089 33.12925682 -23.3363044 31.68042749 -27.8125 28 C-32.16191692 22.65643064 -33.5325699 18.52276761 -33.27734375 11.703125 C-32.58876124 5.7677377 -29.46217602 2.16453943 -24.94140625 -1.421875 C-17.36482773 -6.36113343 -7.08463709 -5.58682798 0 0 Z M-22.2421875 9.39453125 C-23.73436746 13.17113104 -23.52126289 16.57656137 -22 20.3125 C-19.04520793 23.40416254 -16.07762377 24.26939505 -11.875 24.4375 C-8.09352898 22.95779395 -5.71478887 20.97019186 -4 17.3125 C-3.54916903 13.26279421 -4.42152433 10.27662611 -6.5 6.8125 C-11.98453782 3.52177731 -18.40384486 3.74438352 -22.2421875 9.39453125 Z " fill="#FFFFFF" transform="translate(747,364.6875)"/>
<path d="M0 0 C4.7697942 2.60904156 6.9593291 5.77373279 9.046875 10.72265625 C9.640625 13.19921875 9.640625 13.19921875 9.640625 20.19921875 C1.060625 20.19921875 -7.519375 20.19921875 -16.359375 20.19921875 C-13.93118402 25.3845902 -13.93118402 25.3845902 -9.796875 26.63671875 C-4.78786682 27.65344481 -0.22169666 26.49450936 4.640625 25.19921875 C7.640625 28.82421875 7.640625 28.82421875 7.640625 32.19921875 C-0.37737688 35.94876451 -6.97966231 37.77302403 -15.609375 35.07421875 C-20.60682491 32.9637419 -23.01696883 29.56441057 -25.671875 24.88671875 C-27.38446438 18.19205117 -26.88530033 12.22741367 -23.359375 6.19921875 C-16.89443353 -0.57139371 -9.20880382 -3.12550461 0 0 Z M-15.359375 10.19921875 C-15.359375 11.18921875 -15.359375 12.17921875 -15.359375 13.19921875 C-10.409375 13.19921875 -5.459375 13.19921875 -0.359375 13.19921875 C-1.69501116 8.2545824 -1.69501116 8.2545824 -4.359375 7.19921875 C-8.98904256 6.85628041 -12.07620765 6.65339801 -15.359375 10.19921875 Z " fill="#FFFFFF" transform="translate(551.359375,228.80078125)"/>
<path d="M0 0 C3.30185637 2.50461327 5.40974396 5.50899891 6.828125 9.38671875 C7.323125 13.84171875 7.323125 13.84171875 7.828125 18.38671875 C-0.751875 18.38671875 -9.331875 18.38671875 -18.171875 18.38671875 C-17.181875 20.36671875 -16.191875 22.34671875 -15.171875 24.38671875 C-9.73087055 26.2003869 -5.33657807 25.68214233 -0.171875 23.38671875 C0.818125 23.38671875 1.808125 23.38671875 2.828125 23.38671875 C4.11836629 25.51182205 4.828125 26.94017374 4.828125 29.44921875 C3.25378072 32.49951079 0.93606511 33.08513362 -2.171875 34.38671875 C-8.48991242 35.26625992 -15.11623678 35.55961984 -20.796875 32.32421875 C-25.72698186 28.56593601 -27.67415606 24.44395705 -29.109375 18.51171875 C-29.47001945 13.74011525 -28.45264374 9.58364355 -26.171875 5.38671875 C-19.16984466 -2.70183354 -9.56216117 -5.36459829 0 0 Z M-18.171875 10.38671875 C-17.841875 11.04671875 -17.511875 11.70671875 -17.171875 12.38671875 C-12.551875 12.05671875 -7.931875 11.72671875 -3.171875 11.38671875 C-4.50751116 6.4420824 -4.50751116 6.4420824 -7.171875 5.38671875 C-12.74021522 4.64427339 -14.61005803 6.19634584 -18.171875 10.38671875 Z " fill="#FFFFFF" transform="translate(491.171875,296.61328125)"/>
<path d="M0 0 C0.94552734 0.16242188 0.94552734 0.16242188 1.91015625 0.328125 C2.57015625 1.318125 3.23015625 2.308125 3.91015625 3.328125 C4.50828125 2.833125 5.10640625 2.338125 5.72265625 1.828125 C10.42531324 -0.38489005 14.79637094 -0.22638184 19.91015625 0.328125 C23.55223416 1.69390422 24.54246374 2.70761246 26.5168457 6.03955078 C28.02812192 9.60655458 28.25813446 11.9696501 28.203125 15.8203125 C28.18862305 17.61855469 28.18862305 17.61855469 28.17382812 19.453125 C28.14869141 20.690625 28.12355469 21.928125 28.09765625 23.203125 C28.07735352 25.09417969 28.07735352 25.09417969 28.05664062 27.0234375 C28.0213906 30.12543954 27.97211129 33.22656034 27.91015625 36.328125 C24.61015625 36.328125 21.31015625 36.328125 17.91015625 36.328125 C17.89033691 35.61156738 17.87051758 34.89500977 17.85009766 34.15673828 C17.75506106 30.9218187 17.64529606 27.68756406 17.53515625 24.453125 C17.50421875 23.32519531 17.47328125 22.19726562 17.44140625 21.03515625 C17.40273438 19.95878906 17.3640625 18.88242188 17.32421875 17.7734375 C17.2770874 16.28094482 17.2770874 16.28094482 17.22900391 14.75830078 C17.13768542 12.14957983 17.13768542 12.14957983 14.91015625 10.328125 C9.71048674 9.99266245 7.66317292 9.95161667 2.91015625 12.328125 C2.91015625 20.248125 2.91015625 28.168125 2.91015625 36.328125 C-0.38984375 36.328125 -3.68984375 36.328125 -7.08984375 36.328125 C-7.11449473 31.36190151 -7.13268024 26.39571334 -7.14477539 21.42944336 C-7.14981565 19.73868184 -7.1566478 18.04792471 -7.1652832 16.35717773 C-7.17736232 13.93211793 -7.18307498 11.50711556 -7.1875 9.08203125 C-7.19266129 8.32161026 -7.19782257 7.56118927 -7.20314026 6.77772522 C-7.20333613 4.9607993 -7.15181652 3.14399373 -7.08984375 1.328125 C-5.19856033 -0.56315842 -2.51916649 0.0914398 0 0 Z " fill="#FFFFFF" transform="translate(698.08984375,227.671875)"/>
<path d="M0 0 C4.10271196 3.69244077 5.8082905 8.12969753 6.17529297 13.62451172 C6.23247608 16.68962784 6.223519 19.74709348 6.1875 22.8125 C6.18685547 23.87404297 6.18621094 24.93558594 6.18554688 26.02929688 C6.1404591 33.8595409 6.1404591 33.8595409 5 35 C3.48071962 35.07179964 1.95832518 35.08392007 0.4375 35.0625 C-0.38878906 35.05347656 -1.21507812 35.04445313 -2.06640625 35.03515625 C-2.70449219 35.02355469 -3.34257813 35.01195312 -4 35 C-5.19251191 32.61497618 -5.08682587 31.22540224 -5.02734375 28.5703125 C-5.00897461 27.25353516 -5.00897461 27.25353516 -4.99023438 25.91015625 C-4.95522451 24.06111674 -4.91619583 22.21214873 -4.87304688 20.36328125 C-4.86208984 19.48285156 -4.85113281 18.60242188 -4.83984375 17.6953125 C-4.81458618 16.4889917 -4.81458618 16.4889917 -4.78881836 15.25830078 C-5.02691745 12.71215445 -5.61869223 11.14434136 -7 9 C-10.0224864 7.8563565 -11.58809475 7.87547051 -14.6875 8.8125 C-17.11298256 9.90897644 -17.11298256 9.90897644 -19 12 C-19.37095708 14.42246595 -19.37095708 14.42246595 -19.4140625 17.2265625 C-19.47207031 18.7734375 -19.47207031 18.7734375 -19.53125 20.3515625 C-19.5621875 21.43179687 -19.593125 22.51203125 -19.625 23.625 C-19.68300781 25.25695312 -19.68300781 25.25695312 -19.7421875 26.921875 C-19.83666247 29.61441165 -19.92222431 32.30693757 -20 35 C-21.47906892 35.02689216 -22.95827483 35.04634621 -24.4375 35.0625 C-25.26121094 35.07410156 -26.08492187 35.08570313 -26.93359375 35.09765625 C-29 35 -29 35 -30 34 C-30.10087212 31.49075847 -30.13972032 29.00963616 -30.1328125 26.5 C-30.13376923 25.74912109 -30.13472595 24.99824219 -30.13571167 24.22460938 C-30.13639338 22.63411373 -30.13453972 21.04361533 -30.13037109 19.453125 C-30.12502267 17.01035345 -30.13031634 14.56776579 -30.13671875 12.125 C-30.13605797 10.58333293 -30.1347768 9.04166597 -30.1328125 7.5 C-30.13483673 6.76458984 -30.13686096 6.02917969 -30.13894653 5.27148438 C-30.11495161 0.11495161 -30.11495161 0.11495161 -29 -1 C-27.48071962 -1.07179964 -25.95832518 -1.08392007 -24.4375 -1.0625 C-23.61121094 -1.05347656 -22.78492188 -1.04445313 -21.93359375 -1.03515625 C-21.29550781 -1.02355469 -20.65742187 -1.01195312 -20 -1 C-19.67 -0.01 -19.34 0.98 -19 2 C-18.2575 1.525625 -17.515 1.05125 -16.75 0.5625 C-10.98434106 -2.71344258 -6.1839072 -2.08191542 0 0 Z " fill="#FFFFFF" transform="translate(787,362)"/>
<path d="M0 0 C3.3 0 6.6 0 10 0 C10 3.3 10 6.6 10 10 C12.1965625 9.9690625 12.1965625 9.9690625 14.4375 9.9375 C15.95832518 9.91607993 17.48071962 9.92820036 19 10 C20 11 20 11 20.125 14.5 C20 18 20 18 19 19 C17.48071962 19.07179964 15.95832518 19.08392007 14.4375 19.0625 C13.61121094 19.05347656 12.78492188 19.04445313 11.93359375 19.03515625 C10.97646484 19.01775391 10.97646484 19.01775391 10 19 C10.14021805 21.64624284 10.28689776 24.29184578 10.4375 26.9375 C10.47681641 27.69224609 10.51613281 28.44699219 10.55664062 29.22460938 C10.44038024 32.91944187 10.44038024 32.91944187 12 36 C13.155 36.165 14.31 36.33 15.5 36.5 C19 37 19 37 20 38 C20.14115161 40.67058851 20.04247107 43.32432238 20 46 C8.18478865 46.68826474 8.18478865 46.68826474 4.375 44.25 C1.59387666 41.61525157 0.1705521 39.65123772 -0.22705078 35.80175781 C-0.21657715 35.02670898 -0.20610352 34.25166016 -0.1953125 33.453125 C-0.18886719 32.60878906 -0.18242188 31.76445312 -0.17578125 30.89453125 C-0.15902344 30.02183594 -0.14226563 29.14914062 -0.125 28.25 C-0.11597656 27.36183594 -0.10695313 26.47367187 -0.09765625 25.55859375 C-0.07414577 23.37211942 -0.04128499 21.18619906 0 19 C-1.7015625 19.0309375 -1.7015625 19.0309375 -3.4375 19.0625 C-7 19 -7 19 -8 18 C-8.125 14.5 -8.125 14.5 -8 11 C-7 10 -7 10 -3.4375 9.9375 C-2.303125 9.958125 -1.16875 9.97875 0 10 C0 6.7 0 3.4 0 0 Z " fill="#FFFFFF" transform="translate(672,351)"/>
<path d="M0 0 C1.2065625 0.9590625 1.2065625 0.9590625 2.4375 1.9375 C1.28799049 5.38602854 0.63713849 6.2944424 -2.5625 7.9375 C-5.4375 7.125 -5.4375 7.125 -8.5625 5.9375 C-11.81294709 5.76951531 -11.81294709 5.76951531 -14.5625 5.9375 C-14.2325 6.9275 -13.9025 7.9175 -13.5625 8.9375 C-10.91196054 10.26767381 -10.91196054 10.26767381 -7.75 11.375 C-3.44120251 12.96521394 -0.48916241 14.33229056 2.4375 17.9375 C3.622643 22.59341894 3.79113241 25.70096166 1.4375 29.9375 C-0.58311659 32.80890253 -3.09480891 33.805761 -6.47265625 34.6484375 C-13.80156089 35.66215515 -19.52218361 34.008148 -25.5625 29.9375 C-25.5625 26.9375 -25.5625 26.9375 -23.5625 24.75 C-22.5725 23.8528125 -22.5725 23.8528125 -21.5625 22.9375 C-16.8125 24.8125 -16.8125 24.8125 -14.5625 25.9375 C-13.18907169 26.0064472 -11.81247898 26.02217708 -10.4375 26 C-8.519375 25.9690625 -8.519375 25.9690625 -6.5625 25.9375 C-7.60766127 22.87991642 -8.34073127 22.05013937 -11.27734375 20.55859375 C-12.34082031 20.16800781 -13.40429688 19.77742188 -14.5 19.375 C-21.47462894 16.79023472 -21.47462894 16.79023472 -23.5625 13.9375 C-24.57183323 10.92670486 -24.8214462 8.09880153 -24.5625 4.9375 C-22.2503828 0.96354856 -20.50748265 -0.64452691 -16.3125 -2.5 C-10.40541864 -3.3860622 -5.10741821 -3.38486914 0 0 Z " fill="#FFFFFF" transform="translate(519.5625,363.0625)"/>
<path d="M0 0 C1.2375 0.9590625 1.2375 0.9590625 2.5 1.9375 C1.34826645 4.40550047 0.45216435 5.98533565 -1.5 7.9375 C-3.1875 7.625 -3.1875 7.625 -5.5 6.9375 C-7.83094534 6.5878582 -10.16404762 6.25195513 -12.5 5.9375 C-12.83 6.9275 -13.16 7.9175 -13.5 8.9375 C-12.69175781 9.24042969 -11.88351562 9.54335938 -11.05078125 9.85546875 C0.07889193 14.21873025 0.07889193 14.21873025 3.5 18.9375 C4.62647713 21.94143902 4.64242194 23.4066546 3.8125 26.5 C1.73581518 30.35670038 -0.29071106 32.40003825 -4.3125 34.1875 C-10.9200878 35.74222654 -16.52423955 35.09426041 -22.5 31.9375 C-24.234375 30.45703125 -24.234375 30.45703125 -25.5 28.9375 C-25.5 26.9375 -25.5 26.9375 -23.75 24.75 C-21.5 22.9375 -21.5 22.9375 -19.5 23.0625 C-17.5 23.9375 -17.5 23.9375 -15.625 25 C-12.84310544 26.22730643 -10.50536594 26.07410754 -7.5 25.9375 C-7.5 24.6175 -7.5 23.2975 -7.5 21.9375 C-8.23605469 21.70675781 -8.97210938 21.47601563 -9.73046875 21.23828125 C-20.46198743 17.65165744 -20.46198743 17.65165744 -23.5 12.9375 C-24.18468515 9.77874244 -24.20457704 7.093776 -23.5 3.9375 C-21.0418172 0.43645177 -19.12199684 -0.80431263 -15.1875 -2.4375 C-9.4900754 -3.40316519 -4.90977816 -3.24622979 0 0 Z " fill="#FFFFFF" transform="translate(486.5,363.0625)"/>
<path d="M0 0 C3.3 0 6.6 0 10 0 C10 3.63 10 7.26 10 11 C13.3 11 16.6 11 20 11 C20 13.64 20 16.28 20 19 C16.7 19 13.4 19 10 19 C10.33 24.94 10.66 30.88 11 37 C13.97 37.33 16.94 37.66 20 38 C20 40.97 20 43.94 20 47 C13.95641015 47.32248404 9.19254493 47.54612824 4 44 C0.83626936 40.50898688 -0.13067957 37.42581871 -0.09765625 32.76953125 C-0.09282227 31.56586914 -0.09282227 31.56586914 -0.08789062 30.33789062 C-0.07951172 29.50451172 -0.07113281 28.67113281 -0.0625 27.8125 C-0.05798828 26.96751953 -0.05347656 26.12253906 -0.04882812 25.25195312 C-0.03705403 23.16793845 -0.0191189 21.08396023 0 19 C-2.31 19 -4.62 19 -7 19 C-7 16.36 -7 13.72 -7 11 C-4.69 11 -2.38 11 0 11 C0 7.37 0 3.74 0 0 Z " fill="#FFFFFF" transform="translate(582,284)"/>
<path d="M0 0 C1.91015625 0.82421875 1.91015625 0.82421875 4.66015625 2.32421875 C2.78515625 8.07421875 2.78515625 8.07421875 1.66015625 10.32421875 C1.09296875 10.164375 0.52578125 10.00453125 -0.05859375 9.83984375 C-4.66788099 8.79801855 -9.4502455 8.52113949 -13.83984375 10.38671875 C-16.09151109 13.2951224 -16.21462745 15.69294591 -16.33984375 19.32421875 C-15.619719 22.27018365 -15.16608143 23.75749221 -12.6484375 25.484375 C-9.60056882 26.59315971 -7.30036125 26.29818804 -4.08984375 25.94921875 C-2.47335937 25.78292969 -2.47335937 25.78292969 -0.82421875 25.61328125 C0.40554688 25.47019531 0.40554688 25.47019531 1.66015625 25.32421875 C4.71484375 30.05078125 4.71484375 30.05078125 4.22265625 32.51171875 C1.55700635 35.60387263 -1.52147755 36.13576989 -5.48828125 36.546875 C-12.09919629 36.80634777 -16.88498427 35.33274014 -22.08984375 31.07421875 C-25.47697767 26.9343884 -27.133826 23.21271479 -27.71484375 17.88671875 C-27.10837674 12.12528211 -25.91678955 7.33507083 -21.40234375 3.44921875 C-14.74940971 -1.16710283 -7.97588409 -2.3035525 0 0 Z " fill="#FFFFFF" transform="translate(636.33984375,228.67578125)"/>
<path d="M0 0 C0.38800781 0.46792969 0.77601563 0.93585938 1.17578125 1.41796875 C-0.14421875 3.72796875 -1.46421875 6.03796875 -2.82421875 8.41796875 C-3.81421875 8.08796875 -4.80421875 7.75796875 -5.82421875 7.41796875 C-7.48689749 7.27576596 -9.15573605 7.19776308 -10.82421875 7.16796875 C-11.69046875 7.1421875 -12.55671875 7.11640625 -13.44921875 7.08984375 C-15.85853998 7.2338829 -15.85853998 7.2338829 -17.5859375 8.6875 C-19.716847 11.66539561 -19.82421875 14.82938952 -19.82421875 18.41796875 C-19.0459871 21.10640534 -18.44348147 22.00608038 -16.1328125 23.54296875 C-13.08048726 24.69985683 -10.80407507 24.39404009 -7.57421875 24.04296875 C-5.95773437 23.87667969 -5.95773437 23.87667969 -4.30859375 23.70703125 C-3.07882812 23.56394531 -3.07882812 23.56394531 -1.82421875 23.41796875 C-0.83421875 25.72796875 0.15578125 28.03796875 1.17578125 30.41796875 C-4.32813028 33.93435667 -8.24299641 34.94871249 -14.82421875 34.41796875 C-22.15185734 32.34048724 -26.25507611 29.91396837 -30.07421875 23.23046875 C-31.52325155 17.79659574 -31.50983039 12.51513376 -29.76171875 7.16796875 C-26.0061123 1.83743057 -21.62590747 -2.20019723 -15.078125 -3.46875 C-10.05582267 -3.72117074 -3.90936446 -3.39034819 0 0 Z " fill="#FFFFFF" transform="translate(598.82421875,363.58203125)"/>
<path d="M0 0 C1.23556641 0.01740234 1.23556641 0.01740234 2.49609375 0.03515625 C3.32238281 0.04417969 4.14867187 0.05320313 5 0.0625 C5.63808594 0.07410156 6.27617188 0.08570313 6.93359375 0.09765625 C7.26359375 1.08765625 7.59359375 2.07765625 7.93359375 3.09765625 C8.82046875 2.58203125 9.70734375 2.06640625 10.62109375 1.53515625 C14.13382706 0.01076255 15.38065882 -0.0518227 18.93359375 1.09765625 C18.93359375 4.06765625 18.93359375 7.03765625 18.93359375 10.09765625 C15.515625 10.78125 15.515625 10.78125 12.09765625 11.46484375 C9.74685452 11.96424557 9.74685452 11.96424557 7.93359375 14.09765625 C7.56307382 16.42219015 7.56307382 16.42219015 7.51953125 19.10546875 C7.46152344 20.58466797 7.46152344 20.58466797 7.40234375 22.09375 C7.3559375 23.64255859 7.3559375 23.64255859 7.30859375 25.22265625 C7.25058594 26.78306641 7.25058594 26.78306641 7.19140625 28.375 C7.09695046 30.94892027 7.01417604 33.5232643 6.93359375 36.09765625 C3.63359375 36.09765625 0.33359375 36.09765625 -3.06640625 36.09765625 C-3.09105723 31.13143276 -3.10924274 26.16524459 -3.12133789 21.19897461 C-3.12637815 19.50821309 -3.1332103 17.81745596 -3.1418457 16.12670898 C-3.15392482 13.70164918 -3.15963748 11.27664681 -3.1640625 8.8515625 C-3.16922379 8.09114151 -3.17438507 7.33072052 -3.17970276 6.54725647 C-3.17989863 4.73033055 -3.12837902 2.91352498 -3.06640625 1.09765625 C-2.06640625 0.09765625 -2.06640625 0.09765625 0 0 Z " fill="#FFFFFF" transform="translate(570.06640625,227.90234375)"/>
<path d="M0 0 C1.23556641 0.01740234 1.23556641 0.01740234 2.49609375 0.03515625 C3.32238281 0.04417969 4.14867187 0.05320312 5 0.0625 C5.63808594 0.07410156 6.27617188 0.08570313 6.93359375 0.09765625 C7.26359375 0.75765625 7.59359375 1.41765625 7.93359375 2.09765625 C8.92359375 1.43765625 9.91359375 0.77765625 10.93359375 0.09765625 C12.9765625 -0.09765625 12.9765625 -0.09765625 15.12109375 -0.02734375 C17.00828125 0.03453125 17.00828125 0.03453125 18.93359375 0.09765625 C18.93359375 3.06765625 18.93359375 6.03765625 18.93359375 9.09765625 C15.515625 9.78125 15.515625 9.78125 12.09765625 10.46484375 C9.74685452 10.96424557 9.74685452 10.96424557 7.93359375 13.09765625 C7.56263667 15.5201222 7.56263667 15.5201222 7.51953125 18.32421875 C7.46152344 19.87109375 7.46152344 19.87109375 7.40234375 21.44921875 C7.37140625 22.52945312 7.34046875 23.6096875 7.30859375 24.72265625 C7.25058594 26.35460937 7.25058594 26.35460937 7.19140625 28.01953125 C7.09693128 30.7120679 7.01136944 33.40459382 6.93359375 36.09765625 C5.45452483 36.12454841 3.97531892 36.14400246 2.49609375 36.16015625 C1.67238281 36.17175781 0.84867188 36.18335938 0 36.1953125 C-2.06640625 36.09765625 -2.06640625 36.09765625 -3.06640625 35.09765625 C-3.16727837 32.58841472 -3.20612657 30.10729241 -3.19921875 27.59765625 C-3.20017548 26.84677734 -3.2011322 26.09589844 -3.20211792 25.32226562 C-3.20279963 23.73176998 -3.20094597 22.14127158 -3.19677734 20.55078125 C-3.19142892 18.1080097 -3.19672259 15.66542204 -3.203125 13.22265625 C-3.20246422 11.68098918 -3.20118305 10.13932222 -3.19921875 8.59765625 C-3.20124298 7.86224609 -3.20326721 7.12683594 -3.20535278 6.36914062 C-3.17641375 0.15011407 -3.17641375 0.15011407 0 0 Z " fill="#FFFFFF" transform="translate(553.06640625,294.90234375)"/>
<path d="M0 0 C0.721875 0.00257813 1.44375 0.00515625 2.1875 0.0078125 C2.909375 0.00523437 3.63125 0.00265625 4.375 0 C6.1875 0.1328125 6.1875 0.1328125 7.1875 1.1328125 C7.27601529 3.72640572 7.30275945 6.29320941 7.28515625 8.88671875 C7.2837413 9.66216537 7.28232635 10.437612 7.28086853 11.23655701 C7.27525345 13.72284744 7.26269846 16.2090491 7.25 18.6953125 C7.24498694 20.37695183 7.2404237 22.05859256 7.23632812 23.74023438 C7.22527913 27.87112816 7.20800445 32.00195526 7.1875 36.1328125 C3.8875 36.1328125 0.5875 36.1328125 -2.8125 36.1328125 C-2.83715098 31.16658901 -2.85533649 26.20040084 -2.86743164 21.23413086 C-2.8724719 19.54336934 -2.87930405 17.85261221 -2.88793945 16.16186523 C-2.90001857 13.73680543 -2.90573123 11.31180306 -2.91015625 8.88671875 C-2.91531754 8.12629776 -2.92047882 7.36587677 -2.92579651 6.58241272 C-2.92599238 4.7654868 -2.87447277 2.94868123 -2.8125 1.1328125 C-1.8125 0.1328125 -1.8125 0.1328125 0 0 Z " fill="#FFFFFF" transform="translate(596.8125,227.8671875)"/>
<path d="M0 0 C2.97 0 5.94 0 9 0 C9 11.88 9 23.76 9 36 C6.03 36 3.06 36 0 36 C-1.7329298 34.2670702 -1.12820046 32.03785664 -1.13894653 29.72851562 C-1.1369223 28.99310547 -1.13489807 28.25769531 -1.1328125 27.5 C-1.13376923 26.74912109 -1.13472595 25.99824219 -1.13571167 25.22460938 C-1.13639338 23.63411373 -1.13453972 22.04361533 -1.13037109 20.453125 C-1.12502267 18.01035345 -1.13031634 15.56776579 -1.13671875 13.125 C-1.13605797 11.58333293 -1.1347768 10.04166597 -1.1328125 8.5 C-1.13483673 7.76458984 -1.13686096 7.02917969 -1.13894653 6.27148438 C-1.11495161 1.11495161 -1.11495161 1.11495161 0 0 Z " fill="#FFFFFF" transform="translate(607,361)"/>
<path d="M0 0 C2.97 0 5.94 0 9 0 C9.98089538 8.13867004 9.97929719 16.00965172 9.5625 24.1875 C9.51029297 25.33025391 9.45808594 26.47300781 9.40429688 27.65039062 C9.27618196 30.43397839 9.14131009 33.21705629 9 36 C6.03 36 3.06 36 0 36 C0 24.12 0 12.24 0 0 Z " fill="#FFFFFF" transform="translate(699,361)"/>
<path d="M0 0 C1.9375 1.125 1.9375 1.125 3 3 C3.5 5.9375 3.5 5.9375 3 9 C0.8125 11.4375 0.8125 11.4375 -2 13 C-4.89481608 12.93107581 -6.40685358 12.38861317 -8.8125 10.8125 C-10.58260835 8.11075568 -10.39415803 6.15326426 -10 3 C-7.72054654 -1.02256493 -4.21158603 -0.45124136 0 0 Z M-8 4 C-7 8 -7 8 -7 8 Z M0 4 C-0.33 4.99 -0.66 5.98 -1 7 C-0.01 7.495 -0.01 7.495 1 8 C0.67 6.68 0.34 5.36 0 4 Z M-4 8 C-4 8.99 -4 9.98 -4 11 C-3.34 10.67 -2.68 10.34 -2 10 C-2.66 9.34 -3.32 8.68 -4 8 Z " fill="#FFFFFF" transform="translate(808,385)"/>
<path d="M0 0 C0.9075 0.391875 1.815 0.78375 2.75 1.1875 C4.07 7.5475 4.07 7.5475 2.75 10.1875 C-0.46118663 11.79309331 -2.86365767 11.04947805 -6.25 10.1875 C-8.25 7.1875 -8.25 7.1875 -8.125 4.6875 C-7.25 2.1875 -7.25 2.1875 -5.5625 0.25 C-3.25 -0.8125 -3.25 -0.8125 0 0 Z " fill="#FFFFFF" transform="translate(601.25,212.8125)"/>
<path d="M0 0 C2 2 2 2 2.3125 5.5 C2.1578125 7.2325 2.1578125 7.2325 2 9 C-1.23253796 11.15502531 -2.25150923 11.46856135 -6 11 C-7.8125 9.875 -7.8125 9.875 -9 8 C-9.4375 5 -9.4375 5 -9 2 C-6.12524616 -1.3006433 -4.03854228 -1.38160657 0 0 Z " fill="#FFFFFF" transform="translate(707,346)"/>
<path d="M0 0 C2 2 2 2 2.3125 4.9375 C2 8 2 8 0.8125 9.875 C-1.65507108 11.40659584 -3.14519831 11.42822025 -6 11 C-7.8125 9.875 -7.8125 9.875 -9 8 C-9.4375 5 -9.4375 5 -9 2 C-6.12524616 -1.3006433 -4.03854228 -1.38160657 0 0 Z " fill="#FFFFFF" transform="translate(615,346)"/>
</svg>
