<?xml version="1.0" encoding="UTF-8"?>
<svg version="1.1" xmlns="http://www.w3.org/2000/svg" width="300" height="186">
<path d="M0 0 C1.18239258 0.00676758 1.18239258 0.00676758 2.38867188 0.01367188 C4.32164761 0.02538688 6.25458393 0.04332002 8.1875 0.0625 C7.4375 6.6875 7.4375 6.6875 5.1875 10.0625 C2.50645553 10.36890508 -0.00218239 10.52923058 -2.6875 10.5625 C-8.17496344 10.56565026 -8.17496344 10.56565026 -13.265625 12.421875 C-15.58357775 14.88030973 -15.68388305 16.71845935 -15.8125 20.0625 C-14.95953322 23.84309045 -14.95953322 23.84309045 -13.8125 27.0625 C-7.04077114 28.46400687 -7.04077114 28.46400687 -0.875 26.125 C-0.194375 25.444375 0.48625 24.76375 1.1875 24.0625 C2.1775 24.0625 3.1675 24.0625 4.1875 24.0625 C4.5431604 23.0252478 4.5431604 23.0252478 4.90600586 21.96704102 C5.97599543 18.85198439 7.05043565 15.73848131 8.125 12.625 C8.49818359 11.53638672 8.87136719 10.44777344 9.25585938 9.32617188 C9.61357422 8.29169922 9.97128906 7.25722656 10.33984375 6.19140625 C10.8347229 4.75390015 10.8347229 4.75390015 11.33959961 3.28735352 C12.1875 1.0625 12.1875 1.0625 13.1875 0.0625 C15.71799402 -0.01063567 18.22054837 -0.02997527 20.75 0 C21.81637695 0.00676758 21.81637695 0.00676758 22.90429688 0.01367188 C24.66540013 0.02549136 26.42646036 0.04342737 28.1875 0.0625 C31.19477783 7.29276373 33.78076535 14.61186402 36.1875 22.0625 C36.22508423 21.11612671 36.22508423 21.11612671 36.26342773 20.15063477 C36.37904137 17.30853175 36.50192316 14.46678917 36.625 11.625 C36.66431641 10.63177734 36.70363281 9.63855469 36.74414062 8.61523438 C36.80698242 7.19887695 36.80698242 7.19887695 36.87109375 5.75390625 C36.90775146 4.87935791 36.94440918 4.00480957 36.98217773 3.10375977 C37.1875 1.0625 37.1875 1.0625 38.1875 0.0625 C41.4124944 -0.50328849 43.0996241 -0.76164712 46.1875 0.0625 C49.36045568 2.67413205 51.73231243 5.78386475 54.1875 9.0625 C54.79335937 9.84753906 55.39921875 10.63257812 56.0234375 11.44140625 C57.43681606 13.29605089 58.81599436 15.17667975 60.1875 17.0625 C60.5175 11.4525 60.8475 5.8425 61.1875 0.0625 C64.8175 0.0625 68.4475 0.0625 72.1875 0.0625 C72.1875 12.2725 72.1875 24.4825 72.1875 37.0625 C62.1875 37.0625 62.1875 37.0625 59.63671875 35.0859375 C59.05535156 34.21195313 58.47398437 33.33796875 57.875 32.4375 C57.28074219 31.57898438 56.68648438 30.72046875 56.07421875 29.8359375 C55.14029297 28.46308594 55.14029297 28.46308594 54.1875 27.0625 C52.5375 25.0825 50.8875 23.1025 49.1875 21.0625 C48.8575 26.3425 48.5275 31.6225 48.1875 37.0625 C45.24847651 37.19731759 42.31560441 37.29649416 39.375 37.375 C38.54162109 37.41689453 37.70824219 37.45878906 36.84960938 37.50195312 C34.52830451 37.54856567 32.45931789 37.54929744 30.1875 37.0625 C28.4296875 34.578125 28.4296875 34.578125 27.1875 32.0625 C24.7596454 31.39435405 24.7596454 31.39435405 22.125 31.5 C19.46484375 31.49609375 19.46484375 31.49609375 17.1875 31.0625 C16.5275 29.7425 15.8675 28.4225 15.1875 27.0625 C13.8675 30.3625 12.5475 33.6625 11.1875 37.0625 C6.8570608 37.4480399 2.52482682 37.76516421 -1.8125 38.0625 C-2.80121094 38.15402344 -3.78992188 38.24554688 -4.80859375 38.33984375 C-11.14163729 38.70814841 -14.92319411 37.56777679 -20 33.71484375 C-24.62731863 29.49640457 -25.62433244 25.32051072 -26.125 19.3125 C-26.00862909 13.62090435 -24.04845897 9.21443546 -19.94140625 5.26171875 C-13.46843982 0.13473778 -8.01023178 -0.08728668 0 0 Z M20.1875 9.0625 C18.8675 13.3525 17.5475 17.6425 16.1875 22.0625 C18.8275 22.0625 21.4675 22.0625 24.1875 22.0625 C23.63894652 17.491221 22.77005197 13.38814205 21.1875 9.0625 C20.8575 9.0625 20.5275 9.0625 20.1875 9.0625 Z M37.1875 25.0625 C38.1875 28.0625 38.1875 28.0625 38.1875 28.0625 Z " fill="#FFFFFF" transform="translate(84.8125,105.9375)"/>
<path d="M0 0 C0.93779297 0.00322266 1.87558594 0.00644531 2.84179688 0.00976562 C4.30649414 0.02233398 4.30649414 0.02233398 5.80078125 0.03515625 C6.78884766 0.03966797 7.77691406 0.04417969 8.79492188 0.04882812 C11.23443599 0.06061322 13.67382814 0.07706614 16.11328125 0.09765625 C14.72259615 7.1585637 14.72259615 7.1585637 13.11328125 9.09765625 C10.38156679 9.48489929 7.97289959 9.65773623 5.23828125 9.66015625 C-0.2274435 9.63067421 -0.2274435 9.63067421 -5.3359375 11.3828125 C-7.43688525 13.70602677 -7.74757784 16.02683776 -7.99609375 19.09375 C-7.8339433 22.06457788 -6.74403456 23.82760359 -4.88671875 26.09765625 C-1.69037769 27.69582678 1.64425385 27.6103532 5.11328125 27.09765625 C7.96248178 25.21996483 7.96248178 25.21996483 10.11328125 23.09765625 C10.77328125 23.09765625 11.43328125 23.09765625 12.11328125 23.09765625 C14.75328125 15.50765625 17.39328125 7.91765625 20.11328125 0.09765625 C25.39328125 0.09765625 30.67328125 0.09765625 36.11328125 0.09765625 C39.09891781 7.34848789 41.68548874 14.64086497 44.11328125 22.09765625 C44.44328125 14.83765625 44.77328125 7.57765625 45.11328125 0.09765625 C55.11328125 0.09765625 55.11328125 0.09765625 57.44189453 1.56640625 C58.18028564 2.571875 58.18028564 2.571875 58.93359375 3.59765625 C59.48789062 4.31953125 60.0421875 5.04140625 60.61328125 5.78515625 C61.14953125 6.54828125 61.68578125 7.31140625 62.23828125 8.09765625 C62.81320312 8.86078125 63.388125 9.62390625 63.98046875 10.41015625 C65.38656683 12.28495369 66.75397446 14.18866114 68.11328125 16.09765625 C68.44328125 10.81765625 68.77328125 5.53765625 69.11328125 0.09765625 C72.41328125 0.09765625 75.71328125 0.09765625 79.11328125 0.09765625 C79.11328125 12.30765625 79.11328125 24.51765625 79.11328125 37.09765625 C71.11328125 37.09765625 71.11328125 37.09765625 69.13525391 35.86010742 C68.68714355 35.29267822 68.2390332 34.72524902 67.77734375 34.140625 C67.27074219 33.52251953 66.76414062 32.90441406 66.2421875 32.26757812 C65.74589844 31.61337891 65.24960937 30.95917969 64.73828125 30.28515625 C64.21878906 29.64255859 63.69929688 28.99996094 63.1640625 28.33789062 C61.01391547 25.65715175 59.02095882 22.95917261 57.11328125 20.09765625 C56.78328125 25.70765625 56.45328125 31.31765625 56.11328125 37.09765625 C53.15440666 37.17835283 50.19771535 37.2380029 47.23828125 37.28515625 C46.39652344 37.31029297 45.55476563 37.33542969 44.6875 37.36132812 C43.88183594 37.37099609 43.07617188 37.38066406 42.24609375 37.390625 C41.50246582 37.40633545 40.75883789 37.4220459 39.99267578 37.43823242 C39.06237549 37.26964722 39.06237549 37.26964722 38.11328125 37.09765625 C36.11328125 34.09765625 36.11328125 34.09765625 36.11328125 31.09765625 C32.48328125 31.09765625 28.85328125 31.09765625 25.11328125 31.09765625 C24.45328125 29.11765625 23.79328125 27.13765625 23.11328125 25.09765625 C22.83613281 25.88011719 22.55898437 26.66257812 22.2734375 27.46875 C21.91121094 28.48066406 21.54898438 29.49257812 21.17578125 30.53515625 C20.81613281 31.54449219 20.45648438 32.55382812 20.0859375 33.59375 C19.11328125 36.09765625 19.11328125 36.09765625 18.11328125 37.09765625 C16.42644801 37.14508917 14.73787272 37.13478619 13.05078125 37.09765625 C9.58237934 37.04842732 6.39445976 37.14520756 2.98828125 37.78515625 C-1.93543543 38.18223018 -5.54541814 37.4649089 -9.88671875 35.09765625 C-13.88380298 31.56079067 -17.43357061 27.19592495 -18.22265625 21.80078125 C-18.33187742 14.94169185 -17.23455274 9.61157078 -12.390625 4.52734375 C-8.34192527 0.99356593 -5.25654002 -0.03185782 0 0 Z M28.11328125 8.09765625 C27.44270238 9.88786235 26.77693435 11.67987114 26.11328125 13.47265625 C25.74203125 14.47039062 25.37078125 15.468125 24.98828125 16.49609375 C24.00701848 18.95613686 24.00701848 18.95613686 24.11328125 21.09765625 C26.75328125 21.09765625 29.39328125 21.09765625 32.11328125 21.09765625 C31.12328125 16.80765625 30.13328125 12.51765625 29.11328125 8.09765625 C28.78328125 8.09765625 28.45328125 8.09765625 28.11328125 8.09765625 Z " fill="#FFFFFF" transform="translate(220.88671875,63.90234375)"/>
<path d="M0 0 C1.39456452 0.00667256 2.78911118 0.01863093 4.18359375 0.03515625 C4.89451172 0.03966797 5.60542969 0.04417969 6.33789062 0.04882812 C8.09899388 0.06064761 9.86005411 0.07858362 11.62109375 0.09765625 C14.62837158 7.32791998 17.2143591 14.64702027 19.62109375 22.09765625 C19.95109375 22.09765625 20.28109375 22.09765625 20.62109375 22.09765625 C20.79499634 21.15128296 20.79499634 21.15128296 20.97241211 20.18579102 C21.49709856 17.34314944 22.02776399 14.50165675 22.55859375 11.66015625 C22.74099609 10.66693359 22.92339844 9.67371094 23.11132812 8.65039062 C23.28857422 7.70615234 23.46582031 6.76191406 23.6484375 5.7890625 C23.81077881 4.91451416 23.97312012 4.03996582 24.14038086 3.13891602 C24.62109375 1.09765625 24.62109375 1.09765625 25.62109375 0.09765625 C30.28954603 -0.04660989 34.94975328 0.0555721 39.62109375 0.09765625 C42.09609375 9.99765625 42.09609375 9.99765625 44.62109375 20.09765625 C46.60109375 13.49765625 48.58109375 6.89765625 50.62109375 0.09765625 C55.57109375 0.09765625 60.52109375 0.09765625 65.62109375 0.09765625 C66.19594554 4.08055793 66.76727593 8.06373859 67.33007812 12.04833984 C67.52209501 13.40051246 67.71606404 14.75240948 67.91210938 16.10400391 C68.93139494 23.14019459 69.91158135 29.98071005 69.62109375 37.09765625 C66.65109375 37.09765625 63.68109375 37.09765625 60.62109375 37.09765625 C60.41613281 35.95425781 60.21117188 34.81085938 60 33.6328125 C59.72807065 32.14188949 59.45592401 30.65100609 59.18359375 29.16015625 C59.04888672 28.40541016 58.91417969 27.65066406 58.77539062 26.87304688 C58.37837341 23.17812451 58.37837341 23.17812451 56.62109375 20.09765625 C54.97109375 25.70765625 53.32109375 31.31765625 51.62109375 37.09765625 C47.33109375 37.09765625 43.04109375 37.09765625 38.62109375 37.09765625 C36.48800998 30.79998035 34.49865949 24.47605332 32.62109375 18.09765625 C32.41613281 19.38542969 32.21117187 20.67320313 32 22 C31.72807723 23.67841988 31.45593024 25.35680345 31.18359375 27.03515625 C31.04888672 27.88529297 30.91417969 28.73542969 30.77539062 29.61132812 C30.64326172 30.42021484 30.51113281 31.22910156 30.375 32.0625 C30.19432983 33.18579712 30.19432983 33.18579712 30.01000977 34.33178711 C29.62109375 36.09765625 29.62109375 36.09765625 28.62109375 37.09765625 C26.14331526 37.30463059 23.72752116 37.42192075 21.24609375 37.47265625 C20.21742187 37.52873047 20.21742187 37.52873047 19.16796875 37.5859375 C17.16015625 37.62109375 17.16015625 37.62109375 13.62109375 37.09765625 C11.890625 34.6015625 11.890625 34.6015625 10.62109375 32.09765625 C8.60551985 31.87370359 6.58738951 31.6548411 4.5625 31.54296875 C2.62109375 31.09765625 2.62109375 31.09765625 0.12109375 28.03515625 C-0.62140625 26.58109375 -0.62140625 26.58109375 -1.37890625 25.09765625 C-2.69890625 29.05765625 -4.01890625 33.01765625 -5.37890625 37.09765625 C-8.67890625 37.09765625 -11.97890625 37.09765625 -15.37890625 37.09765625 C-14.80104286 32.17247009 -13.75585686 27.78616961 -12.12890625 23.10546875 C-11.91073242 22.47405975 -11.69255859 21.84265076 -11.46777344 21.19210815 C-11.01015851 19.87182117 -10.54951114 18.55258159 -10.0859375 17.234375 C-9.37427363 15.20947503 -8.67275705 13.18126717 -7.97265625 11.15234375 C-4.13689722 0.1195635 -4.13689722 0.1195635 0 0 Z M3.62109375 7.09765625 C2.95077656 9.05474305 2.28494692 11.01336738 1.62109375 12.97265625 C1.24984375 14.06320313 0.87859375 15.15375 0.49609375 16.27734375 C-0.47767825 18.92386479 -0.47767825 18.92386479 -0.37890625 21.09765625 C2.26109375 21.09765625 4.90109375 21.09765625 7.62109375 21.09765625 C7.33681958 19.51297897 7.04334557 17.92995055 6.74609375 16.34765625 C6.50246094 15.02507812 6.50246094 15.02507812 6.25390625 13.67578125 C5.65313111 11.22817881 4.84112258 9.29165768 3.62109375 7.09765625 Z " fill="#FFFFFF" transform="translate(61.37890625,63.90234375)"/>
<path d="M0 0 C0.845625 0.00644531 1.69125 0.01289063 2.5625 0.01953125 C5 0.1875 5 0.1875 9 1.1875 C9 4.4875 9 7.7875 9 11.1875 C8.319375 11.0225 7.63875 10.8575 6.9375 10.6875 C3.5835178 10.11660941 0.39610195 10.12090977 -3 10.1875 C-1.04969189 12.35968819 -1.04969189 12.35968819 1.875 13.5625 C4.91874214 15.14524591 6.66436826 16.73053674 9 19.1875 C9.31130859 18.10082031 9.31130859 18.10082031 9.62890625 16.9921875 C12.18549268 8.96942674 15.15289005 4.92176715 22.4375 0.8125 C28.78756641 -0.73629669 33.5152996 -0.2187762 39.171875 2.91015625 C42.99042377 5.57824482 45.51418162 8.73004487 47 13.1875 C47.711925 20.05249104 47.78794612 25.88690518 43.53125 31.5625 C39.12469092 36.23884841 35.3940497 37.44607524 29.125 37.8125 C22.88138073 37.60856269 18.46272971 35.5501685 14 31.1875 C12.7578125 28.984375 12.7578125 28.984375 12 27.1875 C11.68546875 27.74179688 11.3709375 28.29609375 11.046875 28.8671875 C10.61890625 29.59164062 10.1909375 30.31609375 9.75 31.0625 C9.33234375 31.78179687 8.9146875 32.50109375 8.484375 33.2421875 C6.76913878 35.4900497 5.65926677 36.2579545 3 37.1875 C0.37890625 37.453125 0.37890625 37.453125 -2.4375 37.4375 C-3.36433594 37.44265625 -4.29117188 37.4478125 -5.24609375 37.453125 C-8.16054176 37.17201512 -10.34890497 36.39997903 -13 35.1875 C-13 31.8875 -13 28.5875 -13 25.1875 C-12.154375 25.5175 -11.30875 25.8475 -10.4375 26.1875 C-6.79010784 27.24855954 -3.77725336 27.33859013 0 27.1875 C0 26.1975 0 25.2075 0 24.1875 C-0.53109375 23.94515625 -1.0621875 23.7028125 -1.609375 23.453125 C-6.39337533 21.18334382 -10.53299979 19.12150041 -13 14.1875 C-13.38482057 10.10840194 -13.44121857 7.89660127 -11.25 4.375 C-7.6611152 0.88580645 -4.98749368 -0.08363175 0 0 Z M21 14.1875 C19.88533349 18.01916611 19.65957675 20.23005961 21 24 C23.79769427 27.05997811 25.9191578 27.63416546 30 28.1875 C33.64790056 27.01741869 35.40549355 26.14387994 37.4375 22.875 C38.13948837 19.52105555 38.04495329 17.46168698 37 14.1875 C34.39482991 11.35902961 32.8004888 10.3209148 29 9.6875 C25.16539447 10.32660092 23.59679473 11.29392873 21 14.1875 Z M10 21.1875 C11 24.1875 11 24.1875 11 24.1875 Z " fill="#FFFFFF" transform="translate(64,148.8125)"/>
<path d="M0 0 C1.10408203 0.01353516 1.10408203 0.01353516 2.23046875 0.02734375 C4.0287888 0.05069856 5.82693911 0.08656164 7.625 0.125 C6.965 3.425 6.305 6.725 5.625 10.125 C4.50480469 10.16238281 3.38460937 10.19976562 2.23046875 10.23828125 C0.7577791 10.30394257 -0.71487566 10.37038986 -2.1875 10.4375 C-2.92548828 10.46005859 -3.66347656 10.48261719 -4.42382812 10.50585938 C-8.64262505 10.67828765 -8.64262505 10.67828765 -12.32421875 12.54296875 C-14.72091136 16.15137212 -14.81473187 18.80096995 -14.375 23.125 C-12.45833333 26.20833333 -12.45833333 26.20833333 -9.375 28.125 C-5.83228358 28.87511367 -5.83228358 28.87511367 -2.375 28.125 C0.06598818 26.27079161 0.06598818 26.27079161 1.625 24.125 C4.54017292 25.19901108 6.40310176 25.90310176 8.625 28.125 C8.955 18.885 9.285 9.645 9.625 0.125 C17.545 0.125 25.465 0.125 33.625 0.125 C33.625 3.425 33.625 6.725 33.625 10.125 C29.005 10.125 24.385 10.125 19.625 10.125 C19.625 11.445 19.625 12.765 19.625 14.125 C24.245 14.125 28.865 14.125 33.625 14.125 C33.625 17.095 33.625 20.065 33.625 23.125 C29.005 23.125 24.385 23.125 19.625 23.125 C19.625 24.775 19.625 26.425 19.625 28.125 C24.575 28.125 29.525 28.125 34.625 28.125 C34.625 31.095 34.625 34.065 34.625 37.125 C26.375 37.125 18.125 37.125 9.625 37.125 C9.295 35.475 8.965 33.825 8.625 32.125 C7.51125 33.053125 7.51125 33.053125 6.375 34 C0.59520401 38.46620599 -4.16417062 38.94325014 -11.375 38.125 C-16.78019115 36.35346622 -20.13466176 32.60429109 -23.375 28.125 C-25.24295333 22.52114002 -25.11035867 16.41758879 -23.3125 10.8125 C-17.17196149 2.29497884 -10.2596253 -0.24118468 0 0 Z " fill="#FFFFFF" transform="translate(182.375,105.875)"/>
<path d="M0 0 C3.691875 -0.061875 7.38375 -0.12375 11.1875 -0.1875 C12.3427417 -0.21481201 13.4979834 -0.24212402 14.68823242 -0.27026367 C15.60967041 -0.27775635 16.5311084 -0.28524902 17.48046875 -0.29296875 C18.41785889 -0.3086792 19.35524902 -0.32438965 20.32104492 -0.34057617 C24.45540402 0.18502585 27.09221368 1.96700178 29.8125 5.0625 C31.57161007 9.4139828 31.80396054 13.37722691 31 18 C29.59525801 20.75095306 28.04903796 22.64360634 26 25 C27.98 27.97 29.96 30.94 32 34 C32.33 22.78 32.66 11.56 33 0 C36.3 0 39.6 0 43 0 C43 12.21 43 24.42 43 37 C22.60478737 38.20681732 22.60478737 38.20681732 18.0859375 34.80859375 C16.3125 32.0625 16.3125 32.0625 15.05078125 29.28515625 C14.70402344 28.53105469 14.35726562 27.77695313 14 27 C13.01 26.67 12.02 26.34 11 26 C11 23.03 11 20.06 11 17 C13.97 16.67 16.94 16.34 20 16 C20 14.35 20 12.7 20 11 C16.7 10.67 13.4 10.34 10 10 C10 18.91 10 27.82 10 37 C6.7 37 3.4 37 0 37 C0 24.79 0 12.58 0 0 Z " fill="#FFFFFF" transform="translate(159,64)"/>
<path d="M0 0 C1.50491452 -0.04160084 3.00942176 -0.10291869 4.51269531 -0.18457031 C9.3713065 -0.44417441 13.83218517 -0.52651794 18.58227539 0.62475586 C21.07674389 3.10538099 22.29342231 5.23027059 23.64794922 8.46142578 C23.95627686 9.17532471 24.26460449 9.88922363 24.58227539 10.62475586 C25.24227539 10.62475586 25.90227539 10.62475586 26.58227539 10.62475586 C27.49187044 8.96555967 28.38477398 7.29719947 29.26977539 5.62475586 C31.10571289 2.85913086 31.10571289 2.85913086 33.58227539 0.62475586 C38.71954934 -0.38762098 43.39378588 -0.25358578 48.58227539 0.62475586 C49.57227539 1.61475586 49.57227539 1.61475586 50.58227539 2.62475586 C50.39477539 4.68725586 50.39477539 4.68725586 49.58227539 6.62475586 C46.58227539 7.62475586 46.58227539 7.62475586 44.39477539 6.68725586 C43.79665039 6.33663086 43.19852539 5.98600586 42.58227539 5.62475586 C34.05979763 16.18308086 29.79717881 23.89469474 30.58227539 37.62475586 C27.28227539 37.62475586 23.98227539 37.62475586 20.58227539 37.62475586 C20.59129883 36.58577148 20.60032227 35.54678711 20.60961914 34.47631836 C20.50554274 26.21463436 19.77436552 20.27431348 14.85961914 13.34741211 C11.98286583 10.87315533 11.98286583 10.87315533 4.58227539 10.62475586 C4.58227539 19.53475586 4.58227539 28.44475586 4.58227539 37.62475586 C1.28227539 37.62475586 -2.01772461 37.62475586 -5.41772461 37.62475586 C-5.41772461 28.71475586 -5.41772461 19.80475586 -5.41772461 10.62475586 C-8.05772461 10.62475586 -10.69772461 10.62475586 -13.41772461 10.62475586 C-14.41772461 9.62475586 -14.41772461 9.62475586 -14.55053711 7.81225586 C-14.54795898 7.09038086 -14.54538086 6.36850586 -14.54272461 5.62475586 C-14.54530273 4.90288086 -14.54788086 4.18100586 -14.55053711 3.43725586 C-14.16719772 -1.79419932 -4.16885179 0.09010552 0 0 Z " fill="#FFFFFF" transform="translate(198.417724609375,148.375244140625)"/>
<path d="M0 0 C0.66 0 1.32 0 2 0 C4.441645 7.72419771 5.2822786 15.18746171 5.546875 23.234375 C5.58483688 24.28823898 5.62279877 25.34210297 5.66191101 26.42790222 C6.18530167 42.10773734 6.45549347 57.79601861 6.68039799 73.48256016 C6.75143783 78.43146567 6.83077739 83.37993008 6.92944336 88.32836914 C7.02622972 93.18751745 7.10339391 98.0465997 7.16626549 102.9063015 C7.19329276 104.74243768 7.22722353 106.57848611 7.26828957 108.41436195 C7.32381881 110.95908076 7.35408869 113.50291246 7.37817383 116.0480957 C7.40033463 116.79860199 7.42249542 117.54910828 7.44532776 118.32235718 C7.45277739 121.83345422 7.25261542 123.66604588 5.10527039 126.50480652 C3 128 3 128 0.9375 127.875 C-1 127 -1 127 -4 125 C-4.25071937 122.06134505 -4.29037744 119.33623228 -4.2109375 116.3984375 C-4.19791595 115.44947601 -4.18489441 114.50051453 -4.17147827 113.52279663 C-4.14097367 111.30348551 -4.10442238 109.08425308 -4.06335449 106.8651123 C-3.99278974 102.56011836 -3.95635971 98.25562746 -3.92675781 93.95019531 C-3.87195027 86.21060732 -3.79844197 78.47139293 -3.71242142 70.73209 C-3.66241164 66.21416439 -3.6158986 61.69626871 -3.578125 57.17822266 C-3.54087877 52.73068692 -3.49449348 48.28332923 -3.44193649 43.83594894 C-3.42369251 42.16897046 -3.4084798 40.50195536 -3.39665604 38.83491898 C-3.31733965 28.06596204 -2.56756143 17.66105336 -1 7 C-0.81361969 5.69455231 -0.62723938 4.38910461 -0.43521118 3.0440979 C-0.21978165 1.53726944 -0.21978165 1.53726944 0 0 Z " fill="#FFFFFF" transform="translate(24,0)"/>
<path d="M0 0 C0.74507812 0.00451172 1.49015625 0.00902344 2.2578125 0.01367188 C4.0885764 0.02540754 5.91929873 0.0433415 7.75 0.0625 C7.09 3.3625 6.43 6.6625 5.75 10.0625 C4.64140625 10.08828125 3.5328125 10.1140625 2.390625 10.140625 C0.92704453 10.19691656 -0.53649562 10.25426367 -2 10.3125 C-3.09441406 10.33376953 -3.09441406 10.33376953 -4.2109375 10.35546875 C-7.71892618 10.51492278 -9.87698184 10.78742843 -12.734375 12.89453125 C-14.97660552 16.10184552 -14.78633482 18.2411144 -14.25 22.0625 C-12.99612994 25.15067732 -12.99612994 25.15067732 -10.25 27.0625 C-7.16758714 27.64671182 -4.31861481 27.74064692 -1.25 27.0625 C0.38826276 25.57038012 0.38826276 25.57038012 1.75 24.0625 C4.7917096 24.34766028 6.14045802 25.32280535 8.75 27.0625 C9.08 18.1525 9.41 9.2425 9.75 0.0625 C13.05 0.0625 16.35 0.0625 19.75 0.0625 C19.75 12.2725 19.75 24.4825 19.75 37.0625 C16.45 37.0625 13.15 37.0625 9.75 37.0625 C9.255 34.0925 9.255 34.0925 8.75 31.0625 C7.821875 31.866875 6.89375 32.67125 5.9375 33.5 C1.27099409 37.54430512 -3.33555304 37.4045693 -9.3046875 37.33984375 C-14.77642973 36.82460012 -17.63041042 33.89312867 -21.0625 29.9375 C-25.14165683 24.57632245 -24.9693366 19.66055294 -24.25 13.0625 C-22.56109283 8.3517365 -19.95605318 5.21005053 -15.6875 2.625 C-10.31272664 0.1819212 -5.86465293 -0.06735025 0 0 Z " fill="#FFFFFF" transform="translate(137.25,148.9375)"/>
<path d="M0 0 C4.455 -0.0928125 4.455 -0.0928125 9 -0.1875 C9.91910156 -0.21481201 10.83820313 -0.24212402 11.78515625 -0.27026367 C17.55118127 -0.32775084 21.77594898 0.50355084 27 3 C30.38069969 6.7787376 31.70413944 10.79064118 31.47265625 15.93359375 C30.58948896 19.79471355 28.33725862 22.86139556 26 26 C26.433125 26.62648437 26.86625 27.25296875 27.3125 27.8984375 C27.869375 28.71570313 28.42625 29.53296875 29 30.375 C29.556875 31.18710938 30.11375 31.99921875 30.6875 32.8359375 C32 35 32 35 32 37 C28.19547847 37.55726265 24.7831787 37.77394773 21 37 C18.64345414 34.87531464 17.11724553 32.74979973 15.4375 30.06640625 C14.09703141 27.70001458 14.09703141 27.70001458 11 27 C11 30.3 11 33.6 11 37 C7.37 37 3.74 37 0 37 C0 24.79 0 12.58 0 0 Z M10 10 C10.33 12.64 10.66 15.28 11 18 C15.0100934 18.17864631 15.0100934 18.17864631 19 18 C19.66 17.34 20.32 16.68 21 16 C20.83492354 13.42459787 20.83492354 13.42459787 20 11 C17.71294169 9.85647084 16.40735238 9.89665561 13.875 9.9375 C11.956875 9.9684375 11.956875 9.9684375 10 10 Z M10 19 C10 21.31 10 23.62 10 26 C10.33 26 10.66 26 11 26 C11 23.69 11 21.38 11 19 C10.67 19 10.34 19 10 19 Z " fill="#FFFFFF" transform="translate(218,106)"/>
<path d="M0 0 C7.92 0 15.84 0 24 0 C24 3.3 24 6.6 24 10 C17.565 10.495 17.565 10.495 11 11 C11 11.66 11 12.32 11 13 C17.93 13.495 17.93 13.495 25 14 C25.09765625 20.15234375 25.09765625 20.15234375 25 22 C23.12175109 23.87824891 19.96064724 23.39102397 17.4375 23.5625 C15.64119141 23.68818359 15.64119141 23.68818359 13.80859375 23.81640625 C12.88175781 23.87699219 11.95492187 23.93757813 11 24 C11 24.99 11 25.98 11 27 C17.93 27.495 17.93 27.495 25 28 C25 30.97 25 33.94 25 37 C16.75 37 8.5 37 0 37 C0 24.79 0 12.58 0 0 Z " fill="#FFFFFF" transform="translate(159,149)"/>
<path d="M0 0 C7.92 0 15.84 0 24 0 C24 2.97 24 5.94 24 9 C19.38 9 14.76 9 10 9 C10 10.32 10 11.64 10 13 C14.62 13 19.24 13 24 13 C24 15.97 24 18.94 24 22 C19.38 22 14.76 22 10 22 C10 23.98 10 25.96 10 28 C14.95 28 19.9 28 25 28 C25 30.97 25 33.94 25 37 C16.75 37 8.5 37 0 37 C0 24.79 0 12.58 0 0 Z " fill="#FFFFFF" transform="translate(133,64)"/>
<path d="M0 0 C4.1909932 1.94581827 5.59082382 3.13254649 7.5625 7.3125 C8.0772108 11.65077675 7.26828016 14.36753155 5 18 C2.76263322 20.35638709 0.27258274 22.28899741 -2.3125 24.25 C-3.01656982 24.80212158 -3.72063965 25.35424316 -4.44604492 25.9230957 C-5.90206963 27.06295505 -7.3628092 28.19681657 -8.828125 29.32470703 C-10.91990745 30.93821997 -12.99396435 32.57167609 -15.0625 34.21484375 C-24.22586692 41.48391128 -24.22586692 41.48391128 -28 44 C-31.1875 43.625 -31.1875 43.625 -34 43 C-34.3125 40.3125 -34.3125 40.3125 -34 37 C-30.22852346 32.7227699 -25.74916014 29.24427851 -21.3125 25.6875 C-20.60931641 25.1200708 -19.90613281 24.5526416 -19.18164062 23.96801758 C-17.12367423 22.30877038 -15.06245784 20.65365931 -13 19 C-12.14994385 18.31744141 -12.14994385 18.31744141 -11.28271484 17.62109375 C-8.52633643 15.40836091 -5.76593243 13.20077796 -3 11 C-5.97 11 -8.94 11 -12 11 C-11.62875 9.9275 -11.2575 8.855 -10.875 7.75 C-9.68508268 4.18370653 -9.68508268 4.18370653 -10.875 1.5625 C-11.431875 0.7890625 -11.431875 0.7890625 -12 0 C-8.27377559 -1.86311221 -3.97582435 -0.77443204 0 0 Z " fill="#FFFFFF" transform="translate(44,106)"/>
<path d="M0 0 C-0.5259375 0.7734375 -0.5259375 0.7734375 -1.0625 1.5625 C-2.3615641 4.94006667 -1.67217681 7.50468057 -1 11 C-3.64 11 -6.28 11 -9 11 C-4.73412126 15.54109672 0.03612328 19.24735246 5 23 C0.375 27.875 0.375 27.875 -3 29 C-5.30951321 27.51488777 -7.37056473 26.02407492 -9.5 24.3125 C-10.37205078 23.64057617 -10.37205078 23.64057617 -11.26171875 22.95507812 C-18.61277238 17.17684719 -18.61277238 17.17684719 -19.43359375 12.5625 C-19.44403893 5.71046229 -19.44403893 5.71046229 -17.4375 2.5 C-11.47450216 -1.16953713 -6.63567011 -1.16415265 0 0 Z " fill="#FFFFFF" transform="translate(19,106)"/>
<path d="M0 0 C2 2 2 2 2.45703125 4.32421875 C1.78509365 8.25821241 -0.21703801 9.37782278 -3.3125 11.8125 C-3.85140869 12.23829346 -4.39031738 12.66408691 -4.94555664 13.1027832 C-6.06556487 13.98135253 -7.19156899 14.8523284 -8.32324219 15.71582031 C-9.92337972 16.94131877 -11.49763436 18.20039395 -13.0703125 19.4609375 C-14.01648437 20.19570312 -14.96265625 20.93046875 -15.9375 21.6875 C-17.21947266 22.68330078 -17.21947266 22.68330078 -18.52734375 23.69921875 C-21 25 -21 25 -23.75390625 24.76953125 C-26 24 -26 24 -27 23 C-27.29296875 20.66796875 -27.29296875 20.66796875 -27 18 C-25.48828125 16.11328125 -25.48828125 16.11328125 -23.3125 14.3125 C-22.49910156 13.63832031 -21.68570312 12.96414062 -20.84765625 12.26953125 C-19.90792969 11.52058594 -18.96820313 10.77164063 -18 10 C-16.89435569 9.08745225 -15.78889454 8.17468255 -14.68359375 7.26171875 C-13.54065568 6.33916857 -12.39613499 5.41857545 -11.25 4.5 C-10.70770752 4.05438721 -10.16541504 3.60877441 -9.60668945 3.1496582 C-6.34940756 0.60411015 -4.16561788 -0.75738507 0 0 Z " fill="#FFFFFF" transform="translate(40,136)"/>
<path d="M0 0 C2.3125 0.375 2.3125 0.375 4.3125 2.375 C4.12653969 5.09678279 3.43260949 6.242305 1.59765625 8.26953125 C-0.80378245 10.34177449 -3.22097321 12.38039463 -5.6875 14.375 C-6.56019531 15.08269531 -7.43289062 15.79039062 -8.33203125 16.51953125 C-9.19183594 17.17308594 -10.05164063 17.82664063 -10.9375 18.5 C-11.72640625 19.10070312 -12.5153125 19.70140625 -13.328125 20.3203125 C-15.6875 21.375 -15.6875 21.375 -18.484375 20.5546875 C-19.21140625 20.16539062 -19.9384375 19.77609375 -20.6875 19.375 C-20.45047646 15.69455108 -19.80336697 14.49033384 -17.140625 11.83984375 C-16.08313774 10.98460093 -15.01497873 10.14241516 -13.9375 9.3125 C-13.4115625 8.89162109 -12.885625 8.47074219 -12.34375 8.03710938 C-10.80053633 6.80521232 -9.24413843 5.58988913 -7.6875 4.375 C-6.33978516 3.24384766 -6.33978516 3.24384766 -4.96484375 2.08984375 C-2.6875 0.375 -2.6875 0.375 0 0 Z " fill="#FFFFFF" transform="translate(35.6875,151.625)"/>
<path d="M0 0 C0.66 0.33 1.32 0.66 2 1 C2.40197001 3.32249342 2.72686657 5.65885633 3 8 C3.2475 8.886875 3.495 9.77375 3.75 10.6875 C4 13 4 13 2.9375 15.3125 C1 17 1 17 -2 17.375 C-5 17 -5 17 -8 15 C-8.91107724 10.11331301 -8.91107724 10.11331301 -8 7 C-5.62758463 4.24510373 -2.95180194 2.10842995 0 0 Z " fill="#FFFFFF" transform="translate(29,168)"/>
</svg>
