<?xml version="1.0" encoding="UTF-8"?>
<svg version="1.1" xmlns="http://www.w3.org/2000/svg" width="2560" height="1042">
<path d="M0 0 C0.99 0 1.98 0 3 0 C4.77295183 2.00103312 6.35428443 3.98101533 7.9375 6.125 C8.9230132 7.42137978 9.91138428 8.7155911 10.90234375 10.0078125 C11.41265137 10.67329102 11.92295898 11.33876953 12.44873047 12.02441406 C14.86636342 15.1033385 17.42704524 18.05073015 20 21 C24.68408659 26.38842027 29.15623533 31.91050827 33.5234375 37.55859375 C35.27041952 39.81598919 36.97904621 41.97904621 39 44 C39.19309069 46.53353698 39.26053242 48.95728646 39.24050903 51.49160767 C39.24307231 52.66410869 39.24307231 52.66410869 39.24568737 53.86029661 C39.24899581 56.49370738 39.23795643 59.12686639 39.22705078 61.76025391 C39.22648696 63.64229832 39.22680266 65.52434317 39.22793579 67.40638733 C39.22851144 72.52804462 39.21672292 77.64960892 39.20278788 82.77124453 C39.19031575 88.11908787 39.1891128 93.46693317 39.18673706 98.81478882 C39.18051192 108.9472511 39.16408715 119.07967041 39.14403808 129.21211374 C39.12171119 140.7451874 39.11069374 152.27826308 39.10064721 163.81135297 C39.0797218 187.54092584 39.04452579 211.27046051 39 235 C39.7559228 234.98986028 40.51184561 234.97972055 41.29067516 234.96927357 C59.72947009 234.72577884 78.16794194 234.54404526 96.60800457 234.43006611 C105.52579875 234.37347323 114.4425163 234.29639546 123.35961914 234.17016602 C131.13673354 234.0601271 138.91306794 233.98946688 146.69093925 233.96502656 C150.80538149 233.95075049 154.91759344 233.91748795 159.03131676 233.83696938 C188.76314578 233.27703695 188.76314578 233.27703695 196.37646484 240.37597656 C197.97737688 242.19990525 199.53100977 244.06823839 201 246 C202.94218192 247.71673772 202.94218192 247.71673772 204.83984375 249.05859375 C211.52743098 254.19445834 218.02053667 259.49420005 224.38256836 265.02905273 C226.66971173 267.01686179 228.93385956 268.95260295 231.3984375 270.71875 C231.92695313 271.1415625 232.45546875 271.564375 233 272 C233 272.66 233 273.32 233 274 C231.41015625 275.453125 231.41015625 275.453125 229.0625 277.25 C224.16378021 281.07016643 219.35068976 284.97960159 214.5625 288.9375 C213.08600733 290.1550326 211.60944579 291.3724817 210.1328125 292.58984375 C208.18407695 294.19748387 206.23554751 295.80536762 204.28808594 297.41455078 C202.83919506 298.61128156 201.38841456 299.80572353 199.9375 301 C199.16277344 301.639375 198.38804687 302.27875 197.58984375 302.9375 C196.73519531 303.618125 195.88054687 304.29875 195 305 C194.26078938 305.73753478 194.26078938 305.73753478 193.5066452 306.48996925 C187.169406 312.22944149 180.67088426 311.81436284 172.50585938 311.68115234 C171.04657054 311.67945766 169.5872766 311.68041427 168.12799072 311.68380737 C164.18598754 311.68552193 160.24509006 311.65036152 156.30334282 311.60836363 C152.17677359 311.57073831 148.05017621 311.56732202 143.92346191 311.56021118 C136.11780589 311.54159681 128.31265685 311.4924065 120.50722361 311.43211424 C109.95356619 311.35237125 99.39976915 311.32009493 88.84588623 311.28510094 C72.23021142 311.22876113 55.61560622 311.10920676 39 311 C39 357.86 39 404.72 39 453 C54.83806641 452.75636719 54.83806641 452.75636719 70.99609375 452.5078125 C77.70903285 452.43622857 84.42169298 452.36824956 91.13476562 452.31640625 C101.77676614 452.23355727 112.41720697 452.13654775 123.05786133 451.94384766 C130.81011549 451.80352382 138.56109626 451.7138049 146.31458527 451.68276107 C150.41412805 451.66463445 154.51003093 451.62260669 158.60839653 451.51977921 C188.13663115 450.80731506 188.13663115 450.80731506 198.27368164 459.78466797 C200.09153141 461.57333737 201.80898193 463.39755856 203.4834156 465.3205986 C205.72638721 467.80437046 208.23744153 469.75723269 210.875 471.8125 C211.72191406 472.50472656 212.56882812 473.19695312 213.44140625 473.91015625 C214.28574219 474.59980469 215.13007813 475.28945313 216 476 C227.64982578 485.5174216 227.64982578 485.5174216 233 490 C230.27855962 493.61174918 227.47332467 496.43800395 223.9375 499.25 C222.96683594 500.02859375 221.99617188 500.8071875 220.99609375 501.609375 C220.00738281 502.39828125 219.01867187 503.1871875 218 504 C216.1644832 505.49732735 214.33110736 506.99728348 212.5 508.5 C211.14261719 509.60988281 211.14261719 509.60988281 209.7578125 510.7421875 C207.89658472 512.26596888 206.0372517 513.79206716 204.1796875 515.3203125 C203.25414062 516.08085938 202.32859375 516.84140625 201.375 517.625 C200.55773437 518.29789063 199.74046875 518.97078125 198.8984375 519.6640625 C197.46371094 520.82035156 197.46371094 520.82035156 196 522 C195.42637757 522.57137223 194.85275515 523.14274446 194.26175022 523.73143101 C187.48290298 529.95918156 181.2454799 529.96364705 172.39233398 529.79467773 C170.93289791 529.79270002 169.47345488 529.79381778 168.01402283 529.79777527 C164.07604498 529.7997734 160.13957748 529.75879099 156.20194888 529.70975757 C152.07807619 529.66582328 147.954164 529.66187275 143.83009338 529.65357971 C136.03146527 529.63187387 128.23352888 529.57450078 120.43520457 529.50413328 C111.55255431 529.42573147 102.66986999 529.38736369 93.78695953 529.35226524 C75.52424838 529.27921291 57.26217992 529.15618884 39 529 C39.00417692 529.97264162 39.00835385 530.94528324 39.01265734 531.94739884 C39.25926446 589.59958668 39.44758556 647.25175456 39.56171862 704.90435959 C39.57543895 711.82743534 39.58970109 718.75050993 39.60424805 725.67358398 C39.6056864 726.36250144 39.60712475 727.0514189 39.60860668 727.76121264 C39.65545513 750.07834575 39.73805936 772.39517186 39.83926943 794.71211909 C39.94606056 818.30262772 40.01197427 841.89286357 40.03497344 865.48362428 C40.05006365 879.61186035 40.09771551 893.7392149 40.18708114 907.86717961 C40.24524685 917.55652613 40.26279673 927.24541722 40.24851515 936.93492564 C40.24147221 942.52485122 40.2522321 948.11323704 40.31126022 953.70288849 C40.36496269 958.82573852 40.36739128 963.94602014 40.32988784 969.06899074 C40.32525616 970.9171756 40.33907416 972.76552352 40.37371501 974.61338951 C40.5617943 985.27016646 39.67874412 992.11367302 32.11450816 1000.01435147 C30.75613502 1001.35632238 29.37874452 1002.67896742 28 1004 C26.95110221 1005.25599525 25.92430736 1006.5315563 24.94140625 1007.83984375 C20.29055872 1013.89587346 15.5316767 1019.8264838 10.5625 1025.625 C9.81818726 1026.49499634 9.81818726 1026.49499634 9.05883789 1027.38256836 C6.477892 1030.37244678 3.83636087 1033.25080861 1 1036 C-12.04507444 1021.08566184 -12.04507444 1021.08566184 -18.109375 1013.390625 C-20.87036981 1009.89944975 -23.70332011 1006.46827248 -26.53125 1003.03125 C-27.3459375 1002.0309375 -28.160625 1001.030625 -29 1000 C-29.6458982 999.39743256 -30.29179641 998.79486511 -30.95726728 998.17403805 C-38.18833275 990.74807395 -38.12454499 983.82143136 -37.99906546 974.01999389 C-37.98684578 973.12111288 -37.9746261 972.22223188 -37.96203613 971.29611206 C-37.96552753 969.38593925 -37.97253733 967.4757702 -37.98274946 965.5656215 C-38.00059899 960.33159537 -37.9686943 955.09888417 -37.92852497 949.86502552 C-37.89392998 944.2155247 -37.90567158 938.56609613 -37.91174316 932.91651917 C-37.91593503 923.13329418 -37.89086645 913.3504965 -37.84584045 903.567379 C-37.78078345 889.42276424 -37.75998474 875.2783558 -37.74993652 861.13360764 C-37.73243382 838.18399056 -37.6792804 815.23464292 -37.60351562 792.28515625 C-37.53000876 769.99382712 -37.47335534 747.70255891 -37.43945312 725.41113281 C-37.43840092 724.7236883 -37.43734871 724.03624379 -37.43626461 723.32796762 C-37.42571621 716.4241969 -37.41550973 709.52042571 -37.40555374 702.61665412 C-37.32206344 644.74428167 -37.18092849 586.87214661 -37 529 C-37.74984728 529.01106152 -38.49969456 529.02212303 -39.27226448 529.03351974 C-57.56947871 529.29924093 -75.86630484 529.49744798 -94.16504097 529.62174606 C-103.01454349 529.68346389 -111.86275338 529.76750799 -120.71142578 529.90527344 C-128.42958772 530.02537999 -136.14681313 530.10241421 -143.86588371 530.12906194 C-147.94869719 530.14462591 -152.02883305 530.18084053 -156.11078262 530.26876068 C-185.58815056 530.87944033 -185.58815056 530.87944033 -193.78466797 523.18847656 C-195.64219741 521.19702765 -197.29980985 519.13535748 -199 517 C-200.69090819 515.55805772 -202.41400006 514.15155415 -204.1875 512.8125 C-208.58052337 509.33978267 -212.91772435 505.80464383 -217.23828125 502.2421875 C-219.11099207 500.72176881 -221.00523828 499.22756791 -222.91796875 497.7578125 C-223.83191406 497.05398438 -224.74585938 496.35015625 -225.6875 495.625 C-226.51636719 494.99851562 -227.34523437 494.37203125 -228.19921875 493.7265625 C-229.09060547 492.87191406 -229.09060547 492.87191406 -230 492 C-230 491.01 -230 490.02 -230 489 C-227.99896688 487.22704817 -226.01898467 485.64571557 -223.875 484.0625 C-222.57862022 483.0769868 -221.2844089 482.08861572 -219.9921875 481.09765625 C-219.32670898 480.58734863 -218.66123047 480.07704102 -217.97558594 479.55126953 C-214.8966615 477.13363658 -211.94926985 474.57295476 -209 472 C-203.61157973 467.31591341 -198.08949173 462.84376467 -192.44140625 458.4765625 C-190.18401081 456.72958048 -188.02095379 455.02095379 -186 453 C-183.42691612 452.75390434 -183.42691612 452.75390434 -180.10287476 452.75949097 C-178.84641647 452.75674164 -177.58995819 452.75399231 -176.29542542 452.75115967 C-174.89535428 452.75823843 -173.4952841 452.76550806 -172.09521484 452.77294922 C-170.62695829 452.77351311 -169.15870117 452.7731972 -167.69044495 452.77206421 C-163.69684001 452.77148884 -159.70335447 452.78327279 -155.70977736 452.79721212 C-151.53907846 452.80968893 -147.36837703 452.81088757 -143.19766235 452.81326294 C-135.29640017 452.8194867 -127.39519312 452.8359096 -119.49395525 452.85596192 C-108.81943409 452.88246618 -98.14489792 452.89328632 -87.47035217 452.90496635 C-70.64686012 452.92378959 -53.82348445 452.96362927 -37 453 C-37 406.14 -37 359.28 -37 311 C-47.53292969 311.12761719 -58.06585938 311.25523437 -68.91796875 311.38671875 C-75.60354547 311.44294494 -82.28895003 311.49635553 -88.97460938 311.53710938 C-99.57929283 311.60227327 -110.18301191 311.67869578 -120.78686523 311.82983398 C-128.51124198 311.93987761 -136.23483331 312.01053419 -143.9599722 312.03497344 C-148.04647559 312.04924877 -152.13073325 312.08250607 -156.21651268 312.16303062 C-185.7447963 312.72276577 -185.7447963 312.72276577 -193.2824707 305.69067383 C-194.90558443 303.83689787 -196.48468964 301.94288909 -198 300 C-199.67150243 298.58045521 -201.3750337 297.19660725 -203.125 295.875 C-208.46375594 291.64021944 -213.73190019 287.32217028 -219 283 C-221.06198172 281.31186566 -223.12476368 279.62471252 -225.1875 277.9375 C-226.79166667 276.625 -228.39583333 275.3125 -230 274 C-228.41959423 269.71466897 -225.15677495 267.27034742 -221.75 264.4375 C-220.81607422 263.64859375 -220.81607422 263.64859375 -219.86328125 262.84375 C-215.11490355 258.85969869 -210.30025245 254.94437385 -205.31838417 251.2544899 C-202.3277002 249.00395538 -199.75175105 246.84006566 -197.44784546 243.87908936 C-192.24837288 237.63339766 -187.13962152 234.7947041 -178.99200439 233.94885254 C-170.83846458 233.41340902 -162.6559725 233.60866291 -154.4930501 233.78327274 C-150.35468583 233.85891085 -146.21618885 233.86538546 -142.07723999 233.87957764 C-134.2604229 233.91669653 -126.44564896 234.01491643 -118.62972677 234.13577151 C-109.72296942 234.27046816 -100.81610816 234.33601975 -91.90858388 234.39611673 C-73.60456943 234.52114065 -55.30244965 234.73185091 -37 235 C-37.01013972 234.03277417 -37.02027945 233.06554834 -37.03072643 232.06901264 C-37.27528488 208.49788306 -37.45585363 184.92691865 -37.56993389 161.35478687 C-37.62657386 149.95522186 -37.70374641 138.55649659 -37.82983398 127.1574707 C-37.93972308 117.21811187 -38.01049887 107.27936137 -38.03497344 97.33941191 C-38.04927331 92.07941353 -38.08270194 86.8211549 -38.16303062 81.56171608 C-38.23815104 76.60272633 -38.26063908 71.64617884 -38.24418449 66.68667412 C-38.24719085 64.87464711 -38.26880855 63.06253161 -38.31126022 61.25099945 C-38.52172311 51.7999182 -38.19513459 44.96106538 -31.71101379 37.66923523 C-29.85074169 35.72968047 -27.93061689 33.87161425 -26 32 C-24.43376334 30.14547477 -22.88760978 28.27351857 -21.375 26.375 C-20.65183594 25.48683594 -19.92867187 24.59867188 -19.18359375 23.68359375 C-18.10271484 22.35521484 -18.10271484 22.35521484 -17 21 C-14.7374603 18.24071059 -12.47417282 15.48207256 -10.20703125 12.7265625 C-8.70086097 10.8658424 -7.21996113 8.98445201 -5.76171875 7.0859375 C-5.05660156 6.17070313 -4.35148438 5.25546875 -3.625 4.3125 C-2.99851563 3.48363281 -2.37203125 2.65476563 -1.7265625 1.80078125 C-0.87191406 0.90939453 -0.87191406 0.90939453 0 0 Z " fill="#FFFFFF" transform="translate(230,0)"/>
<path d="M0 0 C19.89709567 -0.59375929 40.598106 3.97972484 55.51953125 17.9453125 C59.14663883 21.47008425 62.64707166 24.93545125 65.4609375 29.15625 C67.04917182 23.19001324 68.16698179 17.25837266 69.0859375 11.15625 C69.5396875 8.18625 69.9934375 5.21625 70.4609375 2.15625 C82.3409375 2.15625 94.2209375 2.15625 106.4609375 2.15625 C106.52879991 27.15710882 106.58400376 52.15789244 106.61637402 77.15882015 C106.63180719 88.76859281 106.65282848 100.37830395 106.68725586 111.98803711 C106.71726727 122.11347595 106.73653826 132.2388702 106.74320298 142.36435229 C106.74709543 147.71990105 106.75616837 153.07532232 106.77812767 158.43083 C106.7986788 163.48444669 106.80473414 168.53788487 106.80026054 173.59153938 C106.80107749 175.43401183 106.80693111 177.27649103 106.81855392 179.118927 C106.96792047 204.04525724 102.68369506 226.92069626 85.02734375 245.7421875 C61.65753508 267.72474725 29.49347555 269.90008782 -0.90576172 269.29248047 C-25.1576078 268.38315846 -48.82409177 260.15698771 -65.5390625 242.15625 C-75.0733788 230.74316419 -80.5390625 217.03135666 -80.5390625 202.15625 C-66.6790625 202.15625 -52.8190625 202.15625 -38.5390625 202.15625 C-37.2190625 205.78625 -35.8990625 209.41625 -34.5390625 213.15625 C-27.50531099 223.94133565 -18.57182744 230.39671148 -5.9140625 233.40625 C11.68098563 236.72488897 30.62593968 236.0778844 46.2109375 226.40625 C57.21766467 218.56961777 62.11921607 208.19533877 64.4609375 195.15625 C64.7905032 190.22947672 64.74888408 185.34101012 64.6484375 180.40625 C64.63490234 179.12492188 64.62136719 177.84359375 64.60742188 176.5234375 C64.57246455 173.40058305 64.5233984 170.27865459 64.4609375 167.15625 C63.94362061 167.75735596 63.42630371 168.35846191 62.89331055 168.9777832 C49.68136509 184.12370655 32.80559407 192.28377992 12.74609375 194.03125 C-12.82900298 195.43022965 -37.11510632 189.39962388 -56.5390625 172.15625 C-57.21324219 171.57617188 -57.88742187 170.99609375 -58.58203125 170.3984375 C-75.87563405 154.4510433 -84.55360657 129.68432316 -85.66333008 106.56762695 C-86.45071029 78.51202679 -82.31335226 52.25088358 -63.5390625 30.15625 C-62.96929688 29.43050781 -62.39953125 28.70476562 -61.8125 27.95703125 C-48.65495729 11.91602705 -28.34717885 3.21600284 -8.1015625 0.40625 C-5.40342806 0.20414255 -2.70330184 0.11935107 0 0 Z M-28.62890625 51.74609375 C-40.86001132 67.17879688 -44.79171902 85.70640038 -43.5390625 105.15625 C-41.34766751 122.61838964 -34.82018003 137.52732092 -21.34765625 149.11328125 C-8.51694814 158.44632762 6.15909062 160.9371743 21.671875 158.69140625 C36.20609476 155.46793756 47.655995 148.21146499 55.86328125 135.81640625 C66.28051197 118.47133505 68.7190692 97.1051732 63.8359375 77.46875 C59.31184499 62.07734435 51.50737415 49.36094431 37.4609375 41.15625 C15.76594492 29.50523547 -11.7100175 33.71549157 -28.62890625 51.74609375 Z " fill="#FFFFFF" transform="translate(1264.5390625,452.84375)"/>
<path d="M0 0 C7.33927091 6.14481453 13.24779405 12.50207208 18.25 20.6875 C18.806875 19.97464844 19.36375 19.26179688 19.9375 18.52734375 C33.16278798 1.92871374 49.37065027 -8.17482638 70.64453125 -10.99609375 C91.34987326 -12.81313893 111.72177306 -10.63401842 128.65625 2.48046875 C144.98849686 16.37763664 151.54808349 35.87253292 154.25 56.6875 C154.50144449 60.97001434 154.50444665 65.23552183 154.47705078 69.52441406 C154.47734283 70.7453627 154.47763489 71.96631134 154.47793579 73.22425842 C154.47679157 76.53139482 154.46684931 79.83827302 154.45278788 83.14536381 C154.44017746 86.61665631 154.43910197 90.08795326 154.43673706 93.55926514 C154.43055229 100.1143935 154.4141827 106.66945415 154.39403808 113.22455287 C154.37158488 120.69505429 154.3606621 128.16555916 154.35064721 135.63608599 C154.32981334 150.98660307 154.29317528 166.33702702 154.25 181.6875 C140.72 181.6875 127.19 181.6875 113.25 181.6875 C113.22812622 176.48891235 113.22812622 176.48891235 113.20581055 171.18530273 C113.15530524 159.69010502 113.08882919 148.1950298 113.01428509 136.69996548 C112.96950688 129.73562074 112.93005199 122.77132508 112.90356445 115.80688477 C112.8779514 109.07644752 112.8369278 102.34626017 112.78681374 95.61595345 C112.77022473 93.05778829 112.75866117 90.49958508 112.75238609 87.94137383 C113.07561087 58.96719203 113.07561087 58.96719203 100.125 33.75 C92.82309408 27.17185127 82.91103192 24.46251706 73.25 24.6875 C61.05778232 25.52885158 50.49293021 29.3820715 42.25 38.6875 C30.13807662 55.10918752 30.64713565 73.02324802 30.640625 92.52734375 C30.62562144 95.1066643 30.60888978 97.68597531 30.59051514 100.26527405 C30.55149535 106.32092706 30.52968479 112.37640966 30.51654124 118.43216664 C30.50056994 125.33695192 30.46211296 132.24155791 30.42194796 139.14623821 C30.33995406 153.32661801 30.28857661 167.50693715 30.25 181.6875 C16.72 181.6875 3.19 181.6875 -10.75 181.6875 C-10.76981934 178.37323975 -10.78963867 175.05897949 -10.81005859 171.64428711 C-10.87720722 160.64803294 -10.95484216 149.65187038 -11.03752708 138.65572262 C-11.08730148 131.99405076 -11.13363209 125.33240538 -11.171875 118.6706543 C-11.20896729 112.23203873 -11.25538987 105.79354969 -11.30806351 99.35504341 C-11.32648101 96.90851644 -11.34163467 94.46196248 -11.35334396 92.01539421 C-10.76013239 61.45371804 -10.76013239 61.45371804 -23.75 34.6875 C-32.80456906 27.01043495 -42.93708225 24.15055402 -54.69921875 24.8671875 C-65.65514698 26.27069203 -75.88810002 30.83229745 -82.75 39.6875 C-91.50712307 51.68878731 -93.87457374 65.21989302 -93.95532227 79.74169922 C-93.96522186 80.84472885 -93.97512146 81.94775848 -93.98532104 83.08421326 C-94.01683953 86.72018304 -94.04165534 90.35616588 -94.06640625 93.9921875 C-94.0869841 96.51710342 -94.1079808 99.04201595 -94.12937927 101.56692505 C-94.1788825 107.52720905 -94.22416999 113.48751557 -94.26740164 119.44784749 C-94.31687594 126.23628015 -94.37175609 133.02466578 -94.42708123 139.81305289 C-94.5407187 153.77115967 -94.64688354 167.72931174 -94.75 181.6875 C-108.28 181.6875 -121.81 181.6875 -135.75 181.6875 C-135.75 118.6575 -135.75 55.6275 -135.75 -9.3125 C-123.87 -9.3125 -111.99 -9.3125 -99.75 -9.3125 C-97.8125 1.625 -97.8125 1.625 -97.20727539 5.07788086 C-97.04735107 5.96870361 -96.88742676 6.85952637 -96.72265625 7.77734375 C-96.56031494 8.69378662 -96.39797363 9.61022949 -96.23071289 10.55444336 C-95.95586873 12.65974773 -95.95586873 12.65974773 -94.75 13.6875 C-94.37230469 13.2028125 -93.99460937 12.718125 -93.60546875 12.21875 C-82.50142374 -1.30374041 -67.1052641 -9.10973895 -49.84716797 -11.11621094 C-32.63240873 -12.7274643 -14.1939851 -10.65155463 0 0 Z " fill="#FFFFFF" transform="translate(961.75,126.3125)"/>
<path d="M0 0 C17.16 0 34.32 0 52 0 C57.62457249 13.49897398 57.62457249 13.49897398 59.60522461 18.85180664 C60.28025276 20.67045731 60.28025276 20.67045731 60.96891785 22.52584839 C61.44676041 23.82060516 61.92456798 25.11537484 62.40234375 26.41015625 C62.91732147 27.80006105 63.43253074 29.18988008 63.94795227 30.57962036 C65.04327045 33.53422119 66.13715371 36.48934741 67.2298584 39.44491577 C68.9661422 44.14105368 70.70585731 48.8359156 72.44628906 53.53051758 C73.03921569 55.12992836 73.63214172 56.72933938 74.22506714 58.32875061 C74.51952602 59.12303026 74.81398491 59.91730991 75.11736679 60.73565865 C76.01411395 63.15489926 76.91055365 65.5742536 77.80691528 67.99363708 C83.26798521 82.7323875 88.75460707 97.46151139 94.25 112.1875 C95.14893748 114.59683808 96.04786326 117.00618053 96.94677734 119.41552734 C98.28889773 123.01269592 99.63106421 126.60984726 100.97338867 130.2069397 C104.15794677 138.74119187 107.33933611 147.27662118 110.51953125 155.8125 C111.44546329 158.29720498 112.37140729 160.78190551 113.29736328 163.26660156 C115.1234174 168.16667284 116.9484494 173.06712325 118.77294922 177.96777344 C123.25241999 189.99324307 127.75229457 202.01044603 132.29332542 214.01277733 C133.77568349 217.93239522 135.25494017 221.85318526 136.73447514 225.77386951 C138.36705006 230.09818309 140.00911628 234.41882683 141.65258789 238.73901367 C142.49530428 240.97040827 143.33768958 243.20192795 144.1796875 245.43359375 C144.5691304 246.45040222 144.9585733 247.46721069 145.3598175 248.51483154 C145.88529427 249.91405853 145.88529427 249.91405853 146.42138672 251.34155273 C146.72809296 252.14954819 147.03479919 252.95754364 147.35079956 253.7900238 C148 256 148 256 148 260 C132.82 260 117.64 260 102 260 C92.74348293 236.85870734 92.74348293 236.85870734 89.71875 228.9296875 C89.37493286 228.03049591 89.03111572 227.13130432 88.67687988 226.2048645 C87.97059045 224.35581168 87.26513299 222.50644083 86.56054688 220.65673828 C85.47626178 217.81273635 84.38660771 214.97082464 83.296875 212.12890625 C82.60384355 210.31262326 81.91112258 208.49622176 81.21875 206.6796875 C80.89386597 205.83405243 80.56898193 204.98841736 80.23425293 204.11715698 C78 198.22890272 78 198.22890272 78 196 C43.02 196 8.04 196 -28 196 C-28.99 199.3 -29.98 202.6 -31 206 C-31.69537831 208.00366586 -32.41214815 210.00018444 -33.16064453 211.98461914 C-33.55760529 213.04173599 -33.95456604 214.09885284 -34.36355591 215.18800354 C-34.78241058 216.29256393 -35.20126526 217.39712433 -35.6328125 218.53515625 C-36.07011688 219.69502548 -36.50742126 220.85489471 -36.95797729 222.0499115 C-37.87577889 224.48173003 -38.79524783 226.91291988 -39.71630859 229.34350586 C-40.66123506 231.83814448 -41.60450062 234.33331895 -42.54443359 236.82983398 C-43.90423385 240.44107969 -45.26782695 244.05086772 -46.6328125 247.66015625 C-47.05571564 248.78293472 -47.47861877 249.9057132 -47.91433716 251.06251526 C-48.30499359 252.09126266 -48.69565002 253.12001007 -49.09814453 254.17993164 C-49.44217316 255.08908829 -49.78620178 255.99824493 -50.14065552 256.93495178 C-51 259 -51 259 -52 260 C-53.41225046 260.0928726 -54.82908934 260.11746772 -56.24438477 260.11352539 C-57.14524307 260.11344986 -58.04610138 260.11337433 -58.97425842 260.11329651 C-59.95341721 260.10813522 -60.93257599 260.10297394 -61.94140625 260.09765625 C-62.93881332 260.0962413 -63.9362204 260.09482635 -64.96385193 260.09336853 C-68.16343124 260.08775114 -71.36294169 260.07519571 -74.5625 260.0625 C-76.72591045 260.05748724 -78.88932199 260.05292395 -81.05273438 260.04882812 C-86.36851325 260.03777607 -91.68425171 260.02102104 -97 260 C-94.66348807 251.6057284 -91.65389203 243.48993424 -88.57421875 235.34765625 C-88.03361072 233.91075588 -87.49332042 232.47373593 -86.95332336 231.03660583 C-85.8023568 227.97520091 -84.64942047 224.91454844 -83.49487305 221.85449219 C-81.65919613 216.98890784 -79.82812093 212.12160033 -77.99804688 207.25390625 C-77.69061617 206.43622206 -77.38318546 205.61853786 -77.06643867 204.77607536 C-76.44371562 203.11978365 -75.82100508 201.46348724 -75.19830704 199.80718613 C-74.25921426 197.30974576 -73.31970165 194.81246368 -72.38009644 192.31521606 C-67.32833147 178.88683475 -62.30817764 165.44691219 -57.30322266 152.00100708 C-40.92621217 108.00543243 -24.45001116 64.04637075 -7.875 20.125 C-7.51852386 19.1794928 -7.16204773 18.2339856 -6.79476929 17.25982666 C-5.82008202 14.67537685 -4.84393404 12.09148462 -3.8671875 9.5078125 C-3.58630783 8.76265381 -3.30542816 8.01749512 -3.01603699 7.24975586 C-1.1152772 2.2305544 -1.1152772 2.2305544 0 0 Z M24 49 C14.07036551 75.93112416 4.20551927 102.88488088 -5.5625 129.875 C-6.03331369 131.17559863 -6.50412871 132.47619677 -6.97494507 133.77679443 C-8.29785284 137.43165289 -9.61978408 141.08686395 -10.94140625 144.7421875 C-11.338508 145.83998535 -11.73560974 146.9377832 -12.14474487 148.06884766 C-12.50762604 149.07334961 -12.8705072 150.07785156 -13.24438477 151.11279297 C-13.71921043 152.42665482 -13.71921043 152.42665482 -14.20362854 153.76705933 C-14.82314576 155.50411956 -15.41680365 157.25041095 -16 159 C10.73 159 37.46 159 65 159 C64.13739864 153.75426031 64.13739864 153.75426031 62.61157227 148.8737793 C62.32873383 148.10964722 62.04589539 147.34551514 61.75448608 146.55822754 C61.29013657 145.32864319 61.29013657 145.32864319 60.81640625 144.07421875 C60.4891153 143.19399048 60.16182434 142.31376221 59.82461548 141.40686035 C58.74214382 138.49855383 57.65231833 135.59306063 56.5625 132.6875 C55.41356963 129.60734978 54.26648171 126.52651749 53.11952209 123.44563293 C52.31913903 121.2959808 51.51813325 119.14656044 50.71653748 116.99736023 C47.78560215 109.13339868 44.88823253 101.25759304 42.0078125 93.375 C41.6022966 92.26614944 41.1967807 91.15729889 40.77897644 90.0148468 C39.19267721 85.67653929 37.60663129 81.33814865 36.02566528 76.99789429 C34.93004585 73.99106199 33.83060204 70.98565191 32.73046875 67.98046875 C32.25173813 66.66133484 32.25173813 66.66133484 31.76333618 65.31555176 C29.72850679 59.7693433 27.46782206 54.36750919 25 49 C24.67 49 24.34 49 24 49 Z " fill="#FFFFFF" transform="translate(655,729)"/>
<path d="M0 0 C17.16 0 34.32 0 52 0 C57.62457249 13.49897398 57.62457249 13.49897398 59.60522461 18.85180664 C60.28025276 20.67045731 60.28025276 20.67045731 60.96891785 22.52584839 C61.44676041 23.82060516 61.92456798 25.11537484 62.40234375 26.41015625 C62.91732147 27.80006105 63.43253074 29.18988008 63.94795227 30.57962036 C65.04327045 33.53422119 66.13715371 36.48934741 67.2298584 39.44491577 C68.9661422 44.14105368 70.70585731 48.8359156 72.44628906 53.53051758 C73.03921569 55.12992836 73.63214172 56.72933938 74.22506714 58.32875061 C74.51952602 59.12303026 74.81398491 59.91730991 75.11736679 60.73565865 C76.01411395 63.15489926 76.91055365 65.5742536 77.80691528 67.99363708 C83.26798521 82.7323875 88.75460707 97.46151139 94.25 112.1875 C95.14893748 114.59683808 96.04786326 117.00618053 96.94677734 119.41552734 C98.28889773 123.01269592 99.63106421 126.60984726 100.97338867 130.2069397 C104.15794677 138.74119187 107.33933611 147.27662118 110.51953125 155.8125 C111.44546329 158.29720498 112.37140729 160.78190551 113.29736328 163.26660156 C115.1234174 168.16667284 116.9484494 173.06712325 118.77294922 177.96777344 C123.25241999 189.99324307 127.75229457 202.01044603 132.29332542 214.01277733 C133.77568349 217.93239522 135.25494017 221.85318526 136.73447514 225.77386951 C138.36705006 230.09818309 140.00911628 234.41882683 141.65258789 238.73901367 C142.49530428 240.97040827 143.33768958 243.20192795 144.1796875 245.43359375 C144.5691304 246.45040222 144.9585733 247.46721069 145.3598175 248.51483154 C145.88529427 249.91405853 145.88529427 249.91405853 146.42138672 251.34155273 C146.72809296 252.14954819 147.03479919 252.95754364 147.35079956 253.7900238 C148 256 148 256 148 260 C132.82 260 117.64 260 102 260 C92.74348293 236.85870734 92.74348293 236.85870734 89.71875 228.9296875 C89.37493286 228.03049591 89.03111572 227.13130432 88.67687988 226.2048645 C87.97059045 224.35581168 87.26513299 222.50644083 86.56054688 220.65673828 C85.47626178 217.81273635 84.38660771 214.97082464 83.296875 212.12890625 C82.60384355 210.31262326 81.91112258 208.49622176 81.21875 206.6796875 C80.89386597 205.83405243 80.56898193 204.98841736 80.23425293 204.11715698 C78 198.22890272 78 198.22890272 78 196 C43.02 196 8.04 196 -28 196 C-28.99 199.3 -29.98 202.6 -31 206 C-31.69537831 208.00366586 -32.41214815 210.00018444 -33.16064453 211.98461914 C-33.55760529 213.04173599 -33.95456604 214.09885284 -34.36355591 215.18800354 C-34.78241058 216.29256393 -35.20126526 217.39712433 -35.6328125 218.53515625 C-36.07011688 219.69502548 -36.50742126 220.85489471 -36.95797729 222.0499115 C-37.87577889 224.48173003 -38.79524783 226.91291988 -39.71630859 229.34350586 C-40.66123506 231.83814448 -41.60450062 234.33331895 -42.54443359 236.82983398 C-43.90423385 240.44107969 -45.26782695 244.05086772 -46.6328125 247.66015625 C-47.05571564 248.78293472 -47.47861877 249.9057132 -47.91433716 251.06251526 C-48.30499359 252.09126266 -48.69565002 253.12001007 -49.09814453 254.17993164 C-49.44217316 255.08908829 -49.78620178 255.99824493 -50.14065552 256.93495178 C-51 259 -51 259 -52 260 C-53.41225046 260.0928726 -54.82908934 260.11746772 -56.24438477 260.11352539 C-57.14524307 260.11344986 -58.04610138 260.11337433 -58.97425842 260.11329651 C-59.95341721 260.10813522 -60.93257599 260.10297394 -61.94140625 260.09765625 C-62.93881332 260.0962413 -63.9362204 260.09482635 -64.96385193 260.09336853 C-68.16343124 260.08775114 -71.36294169 260.07519571 -74.5625 260.0625 C-76.72591045 260.05748724 -78.88932199 260.05292395 -81.05273438 260.04882812 C-86.36851325 260.03777607 -91.68425171 260.02102104 -97 260 C-94.64127192 251.50837627 -91.58319749 243.30189435 -88.46875 235.06640625 C-87.91985758 233.60741072 -87.3712813 232.14829622 -86.82299805 230.68907166 C-85.65834856 227.59116617 -84.49173033 224.49401267 -83.32348633 221.39746094 C-81.47464598 216.49671276 -79.63038142 211.59425109 -77.78710938 206.69140625 C-77.47940865 205.873002 -77.17170792 205.05459774 -76.85468292 204.21139336 C-76.23391686 202.56031433 -75.61316133 200.90923135 -74.99241638 199.25814438 C-74.06235862 196.78478026 -73.13187807 194.31157555 -72.20129395 191.83840942 C-67.63907415 179.71199896 -63.10367942 167.57586255 -58.58963013 155.431427 C-42.73681838 112.78267925 -26.74022483 70.18693984 -10.68966675 27.61224365 C-9.81885039 25.30234358 -8.94834256 22.99232716 -8.07815552 20.68218994 C-6.89439708 17.54029643 -5.70918706 14.39895501 -4.5234375 11.2578125 C-4.17690628 10.33758301 -3.83037506 9.41735352 -3.4733429 8.46923828 C-3.00193123 7.22207031 -3.00193123 7.22207031 -2.52099609 5.94970703 C-2.24935638 5.2297757 -1.97771667 4.50984436 -1.69784546 3.76809692 C-1 2 -1 2 0 0 Z M24 49 C15.54876006 71.79818973 7.2115128 94.6369814 -1.0625 117.5 C-1.2914584 118.13254448 -1.52041679 118.76508896 -1.75631332 119.41680145 C-3.30836094 123.70467391 -4.85953217 127.99286256 -6.41015625 132.28125 C-6.7993222 133.35722443 -7.18848816 134.43319885 -7.58944702 135.54177856 C-10.4124173 143.35442777 -13.20599324 151.17678108 -16 159 C10.73 159 37.46 159 65 159 C64.14431444 153.77695762 64.14431444 153.77695762 62.62744141 148.92138672 C62.20797241 147.7895546 62.20797241 147.7895546 61.7800293 146.63485718 C61.32043823 145.41954819 61.32043823 145.41954819 60.8515625 144.1796875 C60.52696045 143.30752594 60.2023584 142.43536438 59.86791992 141.53677368 C58.79173359 138.64770476 57.70831735 135.76140171 56.625 132.875 C55.08085196 128.73790251 53.54044895 124.59941353 52 120.4609375 C51.59762115 119.38144836 51.19524231 118.30195923 50.78067017 117.1897583 C47.73438913 109.00669195 44.73262642 100.80802529 41.75 92.6015625 C41.32020844 91.41988495 40.89041687 90.2382074 40.44760132 89.02072144 C38.75519056 84.36608133 37.06341164 79.71122613 35.37774658 75.05413818 C34.20546437 71.81620234 33.02887466 68.57985968 31.8515625 65.34375 C31.50536865 64.38320709 31.1591748 63.42266418 30.80249023 62.43301392 C29.11049769 57.79263548 27.33112944 53.35674443 25 49 C24.67 49 24.34 49 24 49 Z " fill="#FFFFFF" transform="translate(655,48)"/>
<path d="M0 0 C0.70382812 0.49757813 1.40765625 0.99515625 2.1328125 1.5078125 C14.72101638 11.33154807 20.3331074 26.80971554 22.58963013 42.07104492 C23.32859204 49.14599941 23.2975215 56.22602126 23.30496025 63.33370972 C23.30867091 66.18427816 23.32551755 69.03451308 23.34571838 71.88500977 C23.40072727 79.97877827 23.43193454 88.07259088 23.45629883 96.16650391 C23.47216784 101.14178767 23.50235819 106.11682425 23.54106331 111.09197998 C23.55269596 112.98017763 23.55864351 114.86841935 23.55874443 116.75665283 C23.55893641 119.38881401 23.57719107 122.02028917 23.59936523 124.65234375 C23.59478806 125.42745804 23.59021088 126.20257233 23.585495 127.00117493 C23.64571353 131.49591056 24.1180207 134.48595693 27 138 C32.05227358 140.83562902 32.05227358 140.83562902 43 141 C43 152.88 43 164.76 43 177 C36.2246875 177.0928125 36.2246875 177.0928125 29.3125 177.1875 C27.91684814 177.21481201 26.52119629 177.24212402 25.08325195 177.27026367 C14.48074189 177.33963913 3.06056989 176.93189109 -5.3515625 169.7265625 C-10.63332696 164.19447745 -12.8384966 158.48909655 -14 151 C-14.66 151 -15.32 151 -16 151 C-17.46412122 152.48677661 -17.46412122 152.48677661 -19 154.4375 C-31.48045557 168.97658741 -46.90189617 177.17727535 -66 179 C-89.12683785 180.29701431 -112.84670411 177.48449048 -131.24609375 162.125 C-141.25998104 152.73579755 -146.37307772 140.84576298 -147.23828125 127.2578125 C-147.61819389 113.11719024 -145.7418376 99.60169631 -137 88 C-136.12021484 86.83210937 -136.12021484 86.83210937 -135.22265625 85.640625 C-122.60729591 70.26484839 -101.90049166 64.24285058 -82.7492218 62.20126343 C-77.02744339 61.78238681 -71.29244039 61.87974811 -65.55859375 61.90234375 C-64.1814021 61.90421272 -62.80420977 61.90563436 -61.42701721 61.90663147 C-57.83171702 61.91041897 -54.23645831 61.92021632 -50.64117432 61.93133545 C-46.96065837 61.94163131 -43.28013562 61.94614647 -39.59960938 61.95117188 C-32.39972083 61.96184261 -25.19986627 61.97887282 -18 62 C-18.13663155 59.44753427 -18.27944449 56.89566262 -18.42578125 54.34375 C-18.48239929 53.26818848 -18.48239929 53.26818848 -18.54016113 52.17089844 C-19.09333775 42.73721337 -21.19652617 34.87742463 -28 28 C-39.81226621 18.35331593 -53.25528632 17.07071132 -68 18 C-77.72165757 19.32160783 -88.10618092 22.89535602 -94.4375 30.75 C-97.61968386 35.76928204 -97.61968386 35.76928204 -101 45 C-114.2 45 -127.4 45 -141 45 C-141 30.10641099 -134.64440608 17.06280507 -124.47265625 6.34765625 C-93.79478071 -22.77936302 -33.98423571 -25.07033782 0 0 Z M-99.53125 102.31640625 C-104.76401204 108.31459891 -106.25820981 115.14144045 -106 123 C-104.91112278 130.10635657 -101.31720549 135.2804649 -96 140 C-85.05170334 147.87158556 -72.38346916 148.19298379 -59.34375 146.53515625 C-46.25247076 144.08778214 -34.27181521 138.51371407 -26.21875 127.58203125 C-20.25121011 118.14805274 -17.94280008 108.89685541 -17.98046875 97.76953125 C-17.98469849 96.14881714 -17.98469849 96.14881714 -17.98901367 94.49536133 C-17.99263916 93.67189209 -17.99626465 92.84842285 -18 92 C-25.3099465 91.94888352 -32.61984613 91.91409322 -39.92993164 91.89013672 C-42.41172 91.88013926 -44.89349676 91.86653686 -47.37524414 91.84912109 C-50.96243164 91.82459578 -54.54946209 91.81345399 -58.13671875 91.8046875 C-59.22893234 91.79436493 -60.32114594 91.78404236 -61.44645691 91.77340698 C-74.67870984 91.77152145 -89.43353653 92.7664461 -99.53125 102.31640625 Z " fill="#FFFFFF" transform="translate(1816,812)"/>
<path d="M0 0 C12.87997272 11.52180336 20.07983649 25.9153597 21.39648056 43.28089142 C21.62910666 48.50309411 21.64211554 53.72611987 21.63334656 58.95274353 C21.62880735 61.89615959 21.64303378 64.83899368 21.66174316 67.78234863 C21.7044092 75.07878813 21.71579561 82.37521047 21.72796631 89.67175293 C21.73950417 95.87055611 21.76305621 102.06908714 21.80265808 108.26777649 C21.81618874 111.16052826 21.81206797 114.05290796 21.80725098 116.94567871 C21.81659038 118.71965 21.8267589 120.49361718 21.83789062 122.26757812 C21.8317424 123.06557831 21.82559418 123.86357849 21.81925964 124.6857605 C21.87206513 129.48363613 22.47526302 132.88147342 25.22265625 136.98828125 C30.27492983 139.82391027 30.27492983 139.82391027 41.22265625 139.98828125 C41.22265625 151.86828125 41.22265625 163.74828125 41.22265625 175.98828125 C36.82953125 176.02953125 32.43640625 176.07078125 27.91015625 176.11328125 C26.54850342 176.13148926 25.18685059 176.14969727 23.78393555 176.16845703 C11.1812686 176.22519694 0.241741 175.33430133 -9.40625 166.49609375 C-13.74891258 161.28489865 -14.57539199 154.48663835 -15.77734375 147.98828125 C-16.504375 148.94927734 -16.504375 148.94927734 -17.24609375 149.9296875 C-29.18309606 165.33301163 -44.32977654 174.52041915 -63.640625 177.60546875 C-88.2078823 180.25961527 -113.24368307 176.63060179 -132.96484375 160.80078125 C-143.45470576 151.13739321 -148.06281002 138.02724773 -148.75390625 124.06079102 C-149.19813421 107.41612466 -144.59169658 93.75553709 -133.46484375 81.42578125 C-114.67146978 64.38062811 -91.40599066 60.59393672 -66.75 60.79296875 C-65.3813854 60.7967139 -64.01276806 60.79955373 -62.64414978 60.80154419 C-59.09819711 60.80906274 -55.55241682 60.82860476 -52.00653076 60.85095215 C-48.36570567 60.87166954 -44.72485183 60.88060037 -41.08398438 60.890625 C-33.98170169 60.91186604 -26.87953417 60.94585312 -19.77734375 60.98828125 C-19.91032862 58.09854064 -20.050694 55.20947487 -20.1953125 52.3203125 C-20.2320105 51.50630981 -20.2687085 50.69230713 -20.30651855 49.8536377 C-20.73822718 41.45977595 -22.12288747 35.42266253 -27.77734375 28.98828125 C-27.77734375 28.32828125 -27.77734375 27.66828125 -27.77734375 26.98828125 C-28.31359375 26.74078125 -28.84984375 26.49328125 -29.40234375 26.23828125 C-31.77734375 24.98828125 -31.77734375 24.98828125 -34.46484375 23.05078125 C-46.43886602 15.59525795 -62.77596523 15.12858119 -76.27734375 18.11328125 C-85.88922958 20.97158755 -92.86304465 25.94483448 -98.77734375 33.98828125 C-100.75734375 38.93828125 -100.75734375 38.93828125 -102.77734375 43.98828125 C-115.97734375 43.98828125 -129.17734375 43.98828125 -142.77734375 43.98828125 C-141.05853785 26.80022221 -134.91373282 11.97824818 -121.3359375 0.82421875 C-88.92328587 -22.43371448 -32.05507241 -26.40162048 0 0 Z M-102.30078125 103.0859375 C-107.32414513 109.55783753 -107.68953104 117.04071842 -106.77734375 124.98828125 C-105.00652191 132.18294105 -100.89871491 136.95278828 -94.77734375 140.98828125 C-81.05056623 147.9575865 -65.25602675 147.51487616 -50.77734375 142.98828125 C-38.90277765 138.2634539 -29.54768294 131.66060235 -23.77734375 119.98828125 C-20.86220583 112.71873228 -19.6172982 106.01694249 -19.71484375 98.17578125 C-19.71935547 97.48291016 -19.72386719 96.79003906 -19.72851562 96.07617188 C-19.74021219 94.38017057 -19.75814451 92.68421422 -19.77734375 90.98828125 C-27.03231917 90.91137646 -34.28718713 90.85932792 -41.54248047 90.82348633 C-44.00378345 90.80852351 -46.46506034 90.78814597 -48.92626953 90.76196289 C-77.95520351 89.57226955 -77.95520351 89.57226955 -102.30078125 103.0859375 Z " fill="#FFFFFF" transform="translate(1922.77734375,132.01171875)"/>
<path d="M0 0 C19.09146322 17.53562242 28.09616531 40.95980774 29.28125 66.48046875 C29.31296013 72.37855314 29.08221853 78.26118425 28.30078125 84.11328125 C27.30078125 85.11328125 27.30078125 85.11328125 24.9600668 85.23632908 C23.91383176 85.23540729 22.86759672 85.23448549 21.78965759 85.23353577 C20.59347305 85.23491043 19.39728851 85.2362851 18.16485596 85.23770142 C16.82727026 85.23416182 15.48968481 85.230527 14.15209961 85.22680664 C12.75295514 85.22652477 11.35381052 85.2266825 9.95466614 85.22724915 C6.14491666 85.22753713 2.33519839 85.22164023 -1.47454381 85.21467519 C-5.45173184 85.20844184 -9.42892051 85.20783787 -13.40611267 85.20664978 C-20.94260414 85.20353641 -28.47908118 85.19532294 -36.01556629 85.18530029 C-44.59341703 85.17413933 -53.17126845 85.16862875 -61.74912465 85.16360486 C-79.39916421 85.15314033 -97.04919032 85.13554078 -114.69921875 85.11328125 C-114.40774478 87.31712731 -114.10954154 89.5200839 -113.80859375 91.72265625 C-113.64327148 92.94952148 -113.47794922 94.17638672 -113.30761719 95.44042969 C-111.15818226 108.41639241 -105.33761762 120.99582998 -94.69921875 129.11328125 C-80.07620904 137.68422452 -64.54517847 140.90569086 -47.72265625 137.42578125 C-36.098503 134.09666815 -26.28247351 128.20711413 -20.23046875 117.51953125 C-18.99310737 115.07358434 -17.83239029 112.60880508 -16.69921875 110.11328125 C-16.03921875 108.79328125 -15.37921875 107.47328125 -14.69921875 106.11328125 C-1.16921875 106.11328125 12.36078125 106.11328125 26.30078125 106.11328125 C22.81109434 121.23525787 22.81109434 121.23525787 19.61328125 127.23828125 C19.26587891 127.90859375 18.91847656 128.57890625 18.56054688 129.26953125 C8.31691182 148.53863936 -7.79142894 162.47499401 -28.69921875 169.11328125 C-56.98915752 177.33014528 -88.42316021 174.43714912 -114.34301758 160.33276367 C-135.21085513 148.41734144 -148.63352687 128.61824546 -154.95703125 105.734375 C-162.11407813 76.96437417 -158.69335845 45.97664491 -144.51171875 19.98828125 C-132.40264101 0.25791994 -114.12274268 -12.98810287 -91.8125 -19.14453125 C-60.245205 -26.66998426 -25.19024263 -21.2323649 0 0 Z M-94.69921875 21.11328125 C-95.75689453 21.88285156 -95.75689453 21.88285156 -96.8359375 22.66796875 C-106.30641354 30.20827158 -111.04334768 40.50003133 -113.69921875 52.11328125 C-113.69921875 53.10328125 -113.69921875 54.09328125 -113.69921875 55.11328125 C-80.36921875 55.11328125 -47.03921875 55.11328125 -12.69921875 55.11328125 C-15.77722047 39.72327265 -20.75145532 28.56420346 -33.69921875 19.11328125 C-51.77262324 7.32070527 -77.48302232 8.27092932 -94.69921875 21.11328125 Z " fill="#FFFFFF" transform="translate(1296.69921875,136.88671875)"/>
<path d="M0 0 C0.86818359 0.65162109 0.86818359 0.65162109 1.75390625 1.31640625 C19.29596195 14.95118272 28.51195948 38.72198639 31.3125 60.125 C34.37101298 89.7780116 28.31984172 118.34603638 9.6171875 142.015625 C-3.79271705 157.45210676 -21.19501461 166.53624291 -41 171 C-41.97324219 171.22429687 -42.94648437 171.44859375 -43.94921875 171.6796875 C-70.98010114 176.83852257 -100.82494534 172.00524995 -124 157 C-142.55495924 144.11028042 -154.61806937 124.78400495 -160 103 C-160.21269531 102.14792969 -160.42539063 101.29585937 -160.64453125 100.41796875 C-166.6493541 72.29466171 -161.98622916 42.45433275 -147.125 17.90234375 C-132.37995679 -3.44725007 -111.22807264 -15.61445495 -85.98974609 -20.64013672 C-55.97059896 -26.06936652 -23.58015989 -19.84468902 0 0 Z M-104.9375 29.4296875 C-119.13813331 47.12668886 -121.29703168 66.0635541 -120 88 C-117.95065885 104.65797788 -109.30183479 118.04102911 -96.8125 128.8125 C-84.93468509 137.673727 -69.091998 139.58457114 -54.7734375 137.5390625 C-39.08313544 134.02012932 -27.69186859 125.91060837 -19.046875 112.53515625 C-8.94094863 95.85110624 -7.60044426 74.4789306 -11.828125 55.7734375 C-15.04074842 45.42879009 -20.04610328 35.47982341 -28 28 C-28.92232422 27.08347656 -28.92232422 27.08347656 -29.86328125 26.1484375 C-39.73655802 16.84895838 -52.06526426 12.99773694 -65.5 12.625 C-80.58060674 13.07814323 -94.55973073 18.17438627 -104.9375 29.4296875 Z " fill="#FFFFFF" transform="translate(1341,818)"/>
<path d="M0 0 C15.90766903 13.99718917 25.33376943 31.18934421 30.0625 51.6875 C30.30742187 52.72648438 30.55234375 53.76546875 30.8046875 54.8359375 C35.85945585 81.21767368 31.62722932 111.44891533 16.54272461 133.95825195 C0.34953384 156.97754806 -21.92734391 168.44343038 -49.09765625 173.24609375 C-76.22134917 176.36407676 -105.08821594 171.90030357 -127.125 154.875 C-128.7481873 153.50133178 -130.3523245 152.10486376 -131.9375 150.6875 C-132.77023438 149.94886719 -133.60296875 149.21023438 -134.4609375 148.44921875 C-152.34138603 131.64159713 -161.41726004 107.47504645 -162.2734375 83.21484375 C-162.66373454 54.62451357 -157.36950094 28.37928076 -137.14355469 6.86572266 C-102.42157381 -28.79888245 -38.37410891 -32.05474492 0 0 Z M-105.9375 31.6875 C-118.44236878 47.73378669 -121.45911756 66.90647177 -119.9375 86.6875 C-117.90388931 102.49873709 -110.82879824 116.9924735 -98.9375 127.6875 C-86.68306845 136.94597431 -72.94467904 139.49627013 -57.9375 138.6875 C-43.55810082 136.63330012 -30.88208308 129.5988107 -21.9375 118.12109375 C-10.66056313 101.42442213 -7.21841874 81.00605071 -10.58984375 61.26171875 C-13.90987326 45.34840824 -21.63237323 31.08032369 -35.25 21.8125 C-58.38000432 8.03845248 -87.69763098 11.64264394 -105.9375 31.6875 Z " fill="#FFFFFF" transform="translate(2234.9375,817.3125)"/>
<path d="M0 0 C19.11364599 17.96075941 22.98461962 43.98396532 23.875 68.9375 C24.04089636 77.2188355 23.99221227 85.50264724 23.97265625 93.78515625 C23.97078672 96.13740509 23.96936535 98.48965432 23.96836853 100.84190369 C23.96458547 106.97540397 23.95479211 113.10887984 23.94366455 119.24237061 C23.93335893 125.52420726 23.92885148 131.80604792 23.92382812 138.08789062 C23.91316525 150.37110609 23.89560355 162.65429718 23.875 174.9375 C10.345 174.9375 -3.185 174.9375 -17.125 174.9375 C-17.15005615 171.89063965 -17.1751123 168.8437793 -17.20092773 165.70458984 C-17.28471377 155.59444799 -17.3733575 145.48435283 -17.46433926 135.3742733 C-17.51930938 129.24953244 -17.57268534 123.12478665 -17.62231445 117 C-17.67034345 111.08013765 -17.72269532 105.16032735 -17.77794075 99.24052811 C-17.79819123 96.99133235 -17.81693069 94.74212243 -17.83407402 92.49290085 C-17.01381909 59.08264248 -17.01381909 59.08264248 -31.0078125 29.84765625 C-41.50474257 20.11226817 -53.26004858 18.34454824 -67.09375 18.62890625 C-79.86864008 19.20501937 -90.05298662 24.43229401 -98.875 33.5625 C-110.11427247 47.29349798 -112.22468979 65.33151168 -112.33032227 82.41430664 C-112.34022186 83.42023865 -112.35012146 84.42617065 -112.36032104 85.46258545 C-112.39168014 88.75758585 -112.41659134 92.05260063 -112.44140625 95.34765625 C-112.46199792 97.64408219 -112.48299495 99.94050452 -112.50437927 102.23692322 C-112.55937143 108.25870839 -112.60888082 114.28052646 -112.65722656 120.30236816 C-112.70760924 126.45616558 -112.76320749 132.60991568 -112.81835938 138.76367188 C-112.9256611 150.82157552 -113.02668493 162.87951973 -113.125 174.9375 C-126.655 174.9375 -140.185 174.9375 -154.125 174.9375 C-154.125 111.9075 -154.125 48.8775 -154.125 -16.0625 C-142.245 -16.0625 -130.365 -16.0625 -118.125 -16.0625 C-115.65 -4.6775 -115.65 -4.6775 -113.125 6.9375 C-111.92875 5.638125 -110.7325 4.33875 -109.5 3 C-80.76153398 -25.51394675 -30.53424104 -25.28103828 0 0 Z " fill="#FFFFFF" transform="translate(1132.125,471.0625)"/>
<path d="M0 0 C16.18776468 14.32545547 23.54020608 34.16962726 25.6484375 55.34375 C26.15850205 64.78194781 25.99924765 74.2435537 25.94140625 83.69140625 C25.93411165 86.40237686 25.93138684 89.11334711 25.92854309 91.82432556 C25.91929681 98.18454306 25.89478602 104.54460197 25.86449462 110.90475029 C25.8307165 118.15770465 25.81440637 125.41066744 25.79940832 132.66368115 C25.76822778 147.55713974 25.71331128 162.45039288 25.6484375 177.34375 C12.1184375 177.34375 -1.4115625 177.34375 -15.3515625 177.34375 C-15.3609082 173.91355469 -15.37025391 170.48335937 -15.37988281 166.94921875 C-15.41377855 155.56576982 -15.46919978 144.18248076 -15.53546524 132.79917908 C-15.57509098 125.90322536 -15.60756626 119.00738304 -15.62255859 112.11132812 C-15.63707091 105.44567319 -15.67236874 98.78041353 -15.71987152 92.11489868 C-15.73461176 89.58268248 -15.74259925 87.05041692 -15.74344635 84.51815796 C-15.5560569 56.52580624 -15.5560569 56.52580624 -28.234375 32.2578125 C-37.55581663 23.59435499 -48.79404506 20.49504539 -61.3515625 20.34375 C-75.46780941 21.26215643 -86.7181794 25.88317121 -96.3515625 36.34375 C-110.59649125 53.09328161 -109.66058019 75.95370935 -109.765625 96.58203125 C-109.78436328 98.91758386 -109.80393862 101.25312989 -109.8243103 103.58866882 C-109.87535654 109.69587298 -109.91512855 115.80309902 -109.95245361 121.91040039 C-109.99266686 128.1584197 -110.04367969 134.40635016 -110.09375 140.65429688 C-110.19018313 152.88405797 -110.2736913 165.11385661 -110.3515625 177.34375 C-123.8815625 177.34375 -137.4115625 177.34375 -151.3515625 177.34375 C-151.3515625 114.31375 -151.3515625 51.28375 -151.3515625 -13.65625 C-139.4715625 -13.65625 -127.5915625 -13.65625 -115.3515625 -13.65625 C-113.4140625 -3.28125 -113.4140625 -3.28125 -112.80883789 -0.01416016 C-112.64891357 0.83355957 -112.48898926 1.6812793 -112.32421875 2.5546875 C-112.16187744 3.42399902 -111.99953613 4.29331055 -111.83227539 5.18896484 C-111.4349726 7.37837366 -111.4349726 7.37837366 -110.3515625 9.34375 C-109.71992187 8.6425 -109.08828125 7.94125 -108.4375 7.21875 C-81.62498076 -21.21642891 -30.70994291 -24.69968598 0 0 Z " fill="#FFFFFF" transform="translate(2139.3515625,130.65625)"/>
<path d="M0 0 C13.53 0 27.06 0 41 0 C41.0093457 3.39466553 41.01869141 6.78933105 41.02832031 10.28686523 C41.06223199 21.55855215 41.1176622 32.8300667 41.18390274 44.10160732 C41.22351037 50.92915109 41.25599467 57.75658266 41.27099609 64.58422852 C41.28551998 71.18502244 41.32083837 77.7855035 41.36830902 84.38615608 C41.38303734 86.89242573 41.39103605 89.39874512 41.39188385 91.90505791 C41.23815954 120.48079368 41.23815954 120.48079368 54.03515625 145.3046875 C63.9853231 154.88632965 75.25812308 156.40515986 88.5078125 156.2109375 C99.72056935 155.83516865 109.51793274 150.9892607 117.25 142.875 C133.06330978 123.71411456 132.12915078 98.844446 132.31640625 75.390625 C132.33701214 73.21058796 132.35800947 71.03055459 132.37937927 68.8505249 C132.43422492 63.14936315 132.48379752 57.44816763 132.53222656 51.74694824 C132.58271778 45.91460206 132.63825877 40.08230413 132.69335938 34.25 C132.80048126 22.83337326 132.9015583 11.41670489 133 0 C146.53 0 160.06 0 174 0 C174 63.03 174 126.06 174 191 C161.79 191 149.58 191 137 191 C135.02 180.11 135.02 180.11 133 169 C131.35 170.65 129.7 172.3 128 174 C110.29266972 190.15516716 89.939113 193.76076026 66.74267578 193.13183594 C51.32504653 192.39073572 36.51960771 187.48024461 25 177 C24.25234375 176.35546875 23.5046875 175.7109375 22.734375 175.046875 C7.52413114 161.0782837 0.92791821 139.14431601 -0.16292953 118.9896965 C-0.41687348 110.54516116 -0.34468317 102.09941104 -0.29296875 93.65234375 C-0.28567415 90.94137314 -0.28294934 88.23040289 -0.28010559 85.51942444 C-0.27085931 79.15920694 -0.24634852 72.79914803 -0.21605712 66.43899971 C-0.182279 59.18604535 -0.16596887 51.93308256 -0.15097082 44.68006885 C-0.11979028 29.78661026 -0.06487378 14.89335712 0 0 Z " fill="#FFFFFF" transform="translate(772,455)"/>
<path d="M0 0 C17.92499753 14.79714561 25.31786446 36.48038585 27.52903748 59.02522278 C28.05193712 64.93129694 28.13428222 70.78763634 28.11352539 76.71362305 C28.11367142 77.82713638 28.11381744 78.94064972 28.1139679 80.08790588 C28.11327719 83.7291974 28.10552462 87.37043628 28.09765625 91.01171875 C28.09578907 93.55190503 28.09436659 96.09209167 28.09336853 98.63227844 C28.08995447 104.61013775 28.08209163 110.58797484 28.07201904 116.56582528 C28.06079206 123.37852373 28.05533095 130.19122313 28.05032361 137.00392854 C28.03990696 151.00263115 28.02158805 165.00131039 28 179 C14.47 179 0.94 179 -13 179 C-13.02187378 174.13519897 -13.02187378 174.13519897 -13.04418945 169.17211914 C-13.09475799 158.39936929 -13.16139109 147.62676062 -13.23571491 136.85414982 C-13.28024727 130.32929303 -13.31954037 123.80449623 -13.34643555 117.27954102 C-13.3726404 110.9705458 -13.4131619 104.66178359 -13.46318626 98.35293388 C-13.47973958 95.95830646 -13.49132504 93.56363885 -13.49761391 91.16896248 C-13.33371559 59.26315311 -13.33371559 59.26315311 -28.4375 32.1953125 C-38.26094782 23.77949287 -50.18720085 21.54479343 -62.78125 22.1953125 C-76.33122149 23.81541779 -86.89318718 28.62818968 -95.75 39.1875 C-107.77280673 55.63536754 -107.46120396 74.92218132 -107.51171875 94.33203125 C-107.52858699 96.77968738 -107.54674008 99.22733497 -107.56611633 101.67497253 C-107.61338933 108.07810799 -107.64334522 114.48120876 -107.66955566 120.88446045 C-107.69947622 127.43411097 -107.74596681 133.98364228 -107.79101562 140.53320312 C-107.87679036 153.35541971 -107.94271628 166.17762445 -108 179 C-121.53 179 -135.06 179 -149 179 C-149 115.97 -149 52.94 -149 -12 C-137.45 -12 -125.9 -12 -114 -12 C-111.75 -4.125 -111.75 -4.125 -111.1484375 -0.81640625 C-111.01953125 -0.11708984 -110.890625 0.58222656 -110.7578125 1.30273438 C-110.56832031 2.35944336 -110.56832031 2.35944336 -110.375 3.4375 C-110.17390625 4.53481445 -110.17390625 4.53481445 -109.96875 5.65429688 C-109.64275312 7.43563697 -109.320935 9.21774098 -109 11 C-108.48953125 10.443125 -107.9790625 9.88625 -107.453125 9.3125 C-80.60291933 -18.87069461 -31.747242 -22.70121646 0 0 Z " fill="#FFFFFF" transform="translate(2441,810)"/>
<path d="M0 0 C14.15994114 12.00418087 20.71685535 25.88919812 22.75 44.1875 C9.55 44.1875 -3.65 44.1875 -17.25 44.1875 C-18.9 40.2275 -20.55 36.2675 -22.25 32.1875 C-28.41792898 23.37617289 -37.65673573 18.19656736 -48.25 16.1875 C-62.7087776 14.29758364 -76.57173475 15.53851742 -89.125 23.4375 C-93.70047215 27.00701728 -95.8412471 31.22088099 -96.62890625 36.9375 C-96.8162202 41.38469579 -96.54241925 44.51737256 -94.75 48.625 C-83.84770669 59.79985064 -63.56172313 59.53783994 -48.96850586 61.41162109 C-28.21684972 64.09759229 -4.13716905 67.31244789 11.75 82.1875 C12.45898438 82.84363281 13.16796875 83.49976563 13.8984375 84.17578125 C23.58720798 94.02663153 26.01810968 106.5495746 25.99658203 119.93823242 C25.75772145 134.30422382 20.28392844 146.3754182 10.4140625 156.7734375 C-10.89553039 176.0833032 -39.63133064 179.3823471 -67.25 178.1875 C-89.87305603 176.47869774 -111.37411298 168.93138085 -127.25 152.1875 C-136.87956223 140.9184624 -141.25 126.86445319 -141.25 112.1875 C-128.05 112.1875 -114.85 112.1875 -101.25 112.1875 C-100.59 115.1575 -99.93 118.1275 -99.25 121.1875 C-95.71950557 130.50290096 -88.60097319 136.82295822 -79.75 141.0625 C-71.69556228 144.61739072 -63.66475849 145.55441034 -54.9375 145.5 C-54.01686768 145.49581055 -53.09623535 145.49162109 -52.14770508 145.48730469 C-41.8625657 145.31704791 -33.22280042 143.22450387 -24.25 138.1875 C-23.53972656 137.85105469 -22.82945313 137.51460937 -22.09765625 137.16796875 C-19.61373699 135.8498636 -19.28257368 134.80335332 -18.25 132.1875 C-17.693125 130.99125 -17.13625 129.795 -16.5625 128.5625 C-14.35708859 122.52012282 -15.02817565 116.20018667 -17.6875 110.375 C-22.35318752 103.29315287 -31.73702005 101.64745997 -39.46118164 99.92382812 C-45.74303988 98.7029966 -52.07199554 97.9138853 -58.41845703 97.1105957 C-114.52755081 89.93685712 -114.52755081 89.93685712 -130.25 70.1875 C-137.9649206 57.85933171 -139.08411746 43.59913685 -136.59765625 29.484375 C-131.9095637 12.82454397 -122.12291963 1.53433798 -107.25 -6.8125 C-76.12922052 -23.50919242 -28.45115886 -21.88216041 0 0 Z " fill="#FFFFFF" transform="translate(1132.25,812.8125)"/>
<path d="M0 0 C14.43196251 12.30121615 19.46940254 25.43197587 22.31640625 43.9375 C9.11640625 43.9375 -4.08359375 43.9375 -17.68359375 43.9375 C-19.33359375 39.9775 -20.98359375 36.0175 -22.68359375 31.9375 C-28.85152273 23.12617289 -38.09032948 17.94656736 -48.68359375 15.9375 C-63.29791081 14.02725297 -76.12613205 15.62779906 -89.05859375 22.8125 C-93.39776844 26.32516523 -96.32073328 30.53493953 -96.921875 36.171875 C-97.09336396 41.98444817 -96.80460514 46.5589254 -92.68359375 50.9375 C-81.25495237 59.45403565 -63.04610645 59.40971934 -49.40209961 61.16162109 C-29.20936426 63.7752489 -5.46095912 66.869646 10.31640625 80.9375 C10.91839844 81.43636719 11.52039063 81.93523437 12.140625 82.44921875 C20.17097175 89.64343396 24.71653449 100.21730532 25.44921875 110.86816406 C26.33317533 127.24345978 23.01022689 141.18073887 12.47265625 154.21875 C-3.07626948 170.78727742 -27.18911329 177.42147851 -49.234375 178.16015625 C-77.01668538 178.73895438 -104.53379479 174.25066102 -125.40234375 154.3984375 C-137.11253467 141.76586853 -140.38347041 128.83910344 -141.68359375 111.9375 C-128.48359375 111.9375 -115.28359375 111.9375 -101.68359375 111.9375 C-100.69359375 115.5675 -99.70359375 119.1975 -98.68359375 122.9375 C-92.51213974 133.73754452 -84.77607805 140.00810838 -72.70947266 143.51049805 C-66.72890092 145.001987 -60.95462786 145.28619698 -54.80859375 145.25 C-53.83841309 145.24581055 -52.86823242 145.24162109 -51.86865234 145.23730469 C-45.10086083 145.13033102 -38.98772619 144.57172677 -32.68359375 141.9375 C-31.56984375 141.48503906 -31.56984375 141.48503906 -30.43359375 141.0234375 C-23.78065971 138.01494159 -19.47606498 133.6772142 -16.41015625 127.046875 C-14.73553593 122.18507406 -15.29470906 118.14508929 -16.87109375 113.25 C-20.8994822 105.88777283 -25.99868471 103.47089193 -33.68359375 100.9375 C-37.49132631 100.05931473 -41.31558099 99.4821642 -45.18359375 98.9375 C-46.25947754 98.77435303 -47.33536133 98.61120605 -48.44384766 98.44311523 C-52.98249729 97.75742233 -57.52537009 97.10303211 -62.06933594 96.45361328 C-115.14529423 88.84816974 -115.14529423 88.84816974 -129.3828125 70.78125 C-137.93952834 58.68168087 -139.17611051 44.92900055 -137.22265625 30.54296875 C-134.03940665 16.25579552 -125.46282403 4.12554198 -113.24609375 -3.9375 C-80.39364093 -23.18949683 -31.01942591 -23.84025747 0 0 Z " fill="#FFFFFF" transform="translate(949.68359375,813.0625)"/>
<path d="M0 0 C14.31166602 13.2587056 21.6897907 30.29243823 23.6015625 49.41015625 C9.7415625 49.41015625 -4.1184375 49.41015625 -18.3984375 49.41015625 C-20.3784375 43.96515625 -20.3784375 43.96515625 -22.3984375 38.41015625 C-29.21172574 26.90326944 -36.98533635 19.71264205 -49.97265625 15.59375 C-64.01843064 12.35937683 -78.51138502 14.40236675 -90.90234375 21.7578125 C-104.18488643 30.5504816 -111.21002817 44.0450542 -114.7109375 59.41015625 C-117.89005773 80.58371428 -115.08406841 102.03568036 -102.70703125 119.84375 C-94.89078874 129.43723559 -82.63281368 135.89064986 -70.3984375 137.41015625 C-56.91308266 138.25911321 -44.59913964 136.36987561 -33.3984375 128.41015625 C-26.60763522 122.39031597 -22.61515766 115.82013546 -19.3984375 107.41015625 C-18.7384375 105.76015625 -18.0784375 104.11015625 -17.3984375 102.41015625 C-3.5384375 102.41015625 10.3215625 102.41015625 24.6015625 102.41015625 C22.54415964 112.01136961 20.71441541 119.77198667 16.6015625 128.41015625 C16.18261719 129.32410156 15.76367188 130.23804688 15.33203125 131.1796875 C6.82547397 148.31537493 -9.40957674 161.35109434 -27.0234375 168.16015625 C-55.01722632 177.43023058 -84.92456071 175.34684885 -111.4921875 162.96875 C-131.13749683 152.84258634 -146.23083843 134.89465197 -153.22119141 113.94433594 C-162.18443267 83.93621116 -161.30609864 51.03400211 -146.62109375 23.01953125 C-134.97827825 2.92436502 -116.46517485 -11.22273521 -94.2734375 -17.96484375 C-61.34011455 -26.33709458 -26.45848063 -22.32201394 0 0 Z " fill="#FFFFFF" transform="translate(1550.3984375,817.58984375)"/>
<path d="M0 0 C13.75517276 12.09291623 22.86104422 28.63325692 26.35839844 46.63183594 C26.35839844 48.28183594 26.35839844 49.93183594 26.35839844 51.63183594 C12.49839844 51.63183594 -1.36160156 51.63183594 -15.64160156 51.63183594 C-18.11660156 45.19683594 -18.11660156 45.19683594 -20.64160156 38.63183594 C-28.21488831 27.55239791 -36.86636757 20.776107 -50.01660156 17.31933594 C-63.73803618 14.77561187 -77.83992275 17.10448311 -89.64160156 24.63183594 C-103.12750978 34.45845809 -109.79080607 48.48765713 -112.64160156 64.63183594 C-114.11030598 87.03920085 -112.35898611 107.25122192 -97.32910156 125.06933594 C-88.44439061 134.36132566 -77.15447886 139.03296231 -64.41503906 139.83496094 C-50.31655299 140.02942281 -38.51760683 137.15247355 -27.54394531 127.85449219 C-21.48554523 121.55641914 -17.741776 113.03253368 -15.64160156 104.63183594 C-1.45160156 104.63183594 12.73839844 104.63183594 27.35839844 104.63183594 C20.99383421 130.09009284 12.00111206 149.71109035 -10.96191406 163.55761719 C-34.41748356 177.09827285 -63.60978331 179.18603992 -89.64160156 172.63183594 C-105.82615268 168.0325663 -118.95167538 160.61530532 -130.64160156 148.63183594 C-131.38023438 147.90222656 -132.11886719 147.17261719 -132.87988281 146.42089844 C-151.33908184 127.13730799 -157.03372339 99.48736893 -156.64160156 73.63183594 C-155.75261862 47.91699416 -147.58724487 23.59656576 -128.64160156 5.63183594 C-127.91457031 4.89835937 -127.18753906 4.16488281 -126.43847656 3.40917969 C-94.5083794 -27.27919147 -33.69248814 -28.08041397 0 0 Z " fill="#FFFFFF" transform="translate(1723.6416015625,134.3681640625)"/>
<path d="M0 0 C14.19 0 28.38 0 43 0 C43 72.93 43 145.86 43 221 C79.96 221 116.92 221 155 221 C155 233.87 155 246.74 155 260 C103.85 260 52.7 260 0 260 C0 174.2 0 88.4 0 0 Z " fill="#FFFFFF" transform="translate(602,386)"/>
<path d="M0 0 C13.53 0 27.06 0 41 0 C41 17.49 41 34.98 41 53 C56.18 53 71.36 53 87 53 C87 64.88 87 76.76 87 89 C71.82 89 56.64 89 41 89 C41.11998582 106.70711384 41.11998582 106.70711384 41.2578125 124.4140625 C41.31801804 131.6405975 41.3761763 138.8671068 41.421875 146.09375 C41.4588678 151.92286994 41.50526534 157.75184743 41.55806351 163.58084488 C41.57653326 165.79984146 41.59166831 168.01886849 41.60334396 170.23791122 C41.62033384 173.3565084 41.64939887 176.47478456 41.68115234 179.59326172 C41.68331253 180.50173355 41.68547272 181.41020538 41.68769836 182.34620667 C41.80107788 193.34094601 41.80107788 193.34094601 46.3125 203 C51.53354364 206.88542782 56.20302596 207.32001908 62.58203125 207.4140625 C63.80329964 207.44311172 63.80329964 207.44311172 65.04924011 207.4727478 C67.63688852 207.53228752 70.22458203 207.57882583 72.8125 207.625 C74.57228449 207.6632034 76.33205074 207.7022565 78.09179688 207.7421875 C82.3944337 207.83955976 86.69688818 207.91932992 91 208 C91 219.88 91 231.76 91 244 C84.59902412 244.06946397 78.19939457 244.12901618 71.79833984 244.16479492 C69.62804698 244.17973476 67.4577835 244.20009404 65.28759766 244.22631836 C26.46390594 244.68317306 26.46390594 244.68317306 12.125 231.875 C-1.81059195 216.34191336 -0.42070728 195.31408368 -0.29296875 175.9140625 C-0.2873642 173.40058649 -0.28309817 170.88710718 -0.28010559 168.37362671 C-0.26988313 162.47016904 -0.24632186 156.56688659 -0.21605712 150.66350019 C-0.17899294 143.27048896 -0.1630703 135.87745561 -0.14648438 128.484375 C-0.1144392 115.32281368 -0.06172697 102.16145561 0 89 C-10.89 89 -21.78 89 -33 89 C-33 77.12 -33 65.24 -33 53 C-22.11 53 -11.22 53 0 53 C0 35.51 0 18.02 0 0 Z " fill="#FFFFFF" transform="translate(1890,745)"/>
<path d="M0 0 C11.88 0 23.76 0 36 0 C38.25 9 38.25 9 38.8515625 12.71875 C38.98046875 13.50507813 39.109375 14.29140625 39.2421875 15.1015625 C39.36851563 15.89304688 39.49484375 16.68453125 39.625 17.5 C39.82609375 18.73363281 39.82609375 18.73363281 40.03125 19.9921875 C40.35717596 21.9943041 40.67901995 23.99708452 41 26 C41.53367187 25.28714844 42.06734375 24.57429688 42.6171875 23.83984375 C53.35582559 10.03567749 66.75939325 3.10168361 83.9375 0.375 C91.27263262 -0.16834316 98.64477109 0 106 0 C106 12.87 106 25.74 106 39 C92.25 39.25 92.25 39.25 87.99316406 39.29785156 C73.71405584 39.67878818 63.18046638 43.33248807 53.3125 53.6875 C40.57535571 69.03590394 41.53817839 89.22162217 41.48828125 107.9921875 C41.4714092 110.39357405 41.45325562 112.7949519 41.43388367 115.19631958 C41.38665198 121.47285239 41.35666962 127.74934994 41.33044434 134.02600098 C41.30050263 140.44839439 41.25401945 146.87066658 41.20898438 153.29296875 C41.12325681 165.86192923 41.05730795 178.43087778 41 191 C27.47 191 13.94 191 0 191 C0 127.97 0 64.94 0 0 Z " fill="#FFFFFF" transform="translate(1357,117)"/>
<path d="M0 0 C13.53 0 27.06 0 41 0 C41 63.03 41 126.06 41 191 C27.47 191 13.94 191 0 191 C0 127.97 0 64.94 0 0 Z " fill="#FFFFFF" transform="translate(2008,798)"/>
<path d="M0 0 C13.53 0 27.06 0 41 0 C41 63.03 41 126.06 41 191 C27.47 191 13.94 191 0 191 C0 127.97 0 64.94 0 0 Z " fill="#FFFFFF" transform="translate(1603,798)"/>
<path d="M0 0 C13.53 0 27.06 0 41 0 C41 63.03 41 126.06 41 191 C27.47 191 13.94 191 0 191 C0 127.97 0 64.94 0 0 Z " fill="#FFFFFF" transform="translate(1495,117)"/>
<path d="M0 0 C5.85678506 4.05469735 9.58776718 8.92551294 11 16 C11.78093113 23.29722534 10.81331124 29.65864397 7 36 C2.24157165 41.37434183 -2.45139096 44.67841899 -9.70703125 45.3359375 C-18.26106782 45.52549777 -25.12239363 45.42909084 -31.69921875 39.45703125 C-36.78858929 34.07191036 -39.10372014 28.38107279 -39.375 21 C-39.13941399 14.32164873 -37.23975194 8.38912303 -32.62109375 3.38671875 C-23.25436659 -4.62578279 -10.864459 -5.52753177 0 0 Z " fill="#FFFFFF" transform="translate(1638,726)"/>
<path d="M0 0 C5.80557532 3.82640191 9.29202936 8.87933656 10.74609375 15.73046875 C11.58158198 23.19844817 10.65824791 30.91765915 6 37 C-1.43510261 43.98401898 -8.25620995 45.59003791 -18.33203125 45.3046875 C-25.37256401 44.71985091 -29.11373433 42.19720547 -33.875 37.125 C-39.35152889 30.31364516 -39.86903999 23.54739333 -39 15 C-36.8933222 6.71205199 -31.9818192 2.38909152 -24.875 -1.875 C-16.87893546 -4.90736759 -7.47824913 -3.73912456 0 0 Z " fill="#FFFFFF" transform="translate(1530,45)"/>
<path d="M0 0 C6.15485621 3.53278738 10.38438666 8.13825431 12.5625 14.9375 C13.36764105 22.77358208 13.68710392 30.55672577 8.5625 36.9375 C3.68744908 42.05681234 -0.66393355 45.5277985 -7.85546875 46.30859375 C-15.94031444 46.45102108 -22.87021442 46.21587906 -29.4375 40.9375 C-34.58152445 35.28873828 -37.30520429 29.10530107 -37.5 21.49609375 C-37.10413508 13.39323375 -33.90833902 7.98611941 -28 2.5625 C-20.52288049 -3.88764165 -8.65636085 -3.98114024 0 0 Z " fill="#FFFFFF" transform="translate(2040.4375,725.0625)"/>
<path d="M0 0 C6.34692495 4.51608121 9.88119571 9.54361213 12 17 C13.01101122 25.98203652 12.4601586 33.59639512 7 41 C1.70693381 46.95893166 -3.8839821 50.43312821 -11.8203125 51.3125 C-20.6439119 51.67356801 -27.86396783 49.69806321 -34.875 44.25 C-39.83148697 39.64420786 -42.60075086 33.44548566 -43.203125 26.73828125 C-43.36917197 18.14535032 -41.89509128 11.91717304 -36.375 5.1875 C-26.87766276 -4.6361472 -12.16391673 -6.41370155 0 0 Z M-30.7890625 9.1640625 C-35.32040981 15.75706545 -36.83124876 21.00813689 -36 29 C-34.18638618 35.21654375 -30.33162413 39.46110538 -25 43 C-18.81175199 45.83628034 -13.30630164 45.65794478 -6.9375 43.5 C-1.65537513 41.25348652 1.23803484 37.96338389 4 33 C5.91561899 27.25314302 6.21646949 20.2203632 4.05859375 14.5078125 C0.61881641 8.79282193 -3.67466015 5.17924117 -10 3 C-18.03059356 1.9676666 -25.40744778 2.65442374 -30.7890625 9.1640625 Z " fill="#FFFFFF" transform="translate(2542,940)"/>
<path d="M0 0 C2.866875 -0.0825 5.73375 -0.165 8.6875 -0.25 C9.58170654 -0.28641602 10.47591309 -0.32283203 11.3972168 -0.36035156 C15.36539689 -0.41553316 17.52207636 -0.28007685 21.01953125 1.76953125 C23.57466892 4.64721095 23.89107234 6.31266235 24.140625 10.03515625 C23.92825438 13.0024458 22.86808943 14.7316057 21 17 C20.01 17.66 19.02 18.32 18 19 C18.433125 19.71027344 18.86625 20.42054688 19.3125 21.15234375 C19.869375 22.07144531 20.42625 22.99054687 21 23.9375 C21.556875 24.85402344 22.11375 25.77054688 22.6875 26.71484375 C24 29 24 29 24 30 C18.8301455 30.70099722 18.8301455 30.70099722 16 30 C13.36841056 27.26214685 11 23.89044106 11 20 C9.68 20 8.36 20 7 20 C7 23.3 7 26.6 7 30 C4.69 30 2.38 30 0 30 C0 20.1 0 10.2 0 0 Z M7 5 C7 7.97 7 10.94 7 14 C11.72415328 14.39875273 11.72415328 14.39875273 16 12.75 C17.19118264 11.03630594 17.19118264 11.03630594 16.875 8.9375 C16.04747907 6.6488757 16.04747907 6.6488757 13 5 C9.87478167 4.83300768 9.87478167 4.83300768 7 5 Z " fill="#FFFFFF" transform="translate(2516,949)"/>
</svg>
