<?xml version="1.0" encoding="UTF-8"?>
<svg version="1.1" xmlns="http://www.w3.org/2000/svg" width="668" height="300">
<path d="M0 0 C198.99 0 397.98 0 603 0 C603 77.55 603 155.1 603 235 C532.91793538 235.02013078 532.91793538 235.02013078 511.2412262 235.02565002 C510.08159059 235.02594602 510.08159059 235.02594602 508.89852799 235.02624801 C482.88697764 235.03286967 456.87542719 235.03812179 430.86387634 235.04234314 C430.0153524 235.0424812 429.16682846 235.04261925 428.29259167 235.04276149 C409.85417401 235.04575404 391.41575634 235.04852428 372.97733862 235.05106533 C363.93582014 235.05231272 354.89430167 235.05360927 345.8527832 235.05493164 C344.95301866 235.0550624 344.05325412 235.05519316 343.12622398 235.05532788 C313.93512345 235.05959316 284.74402484 235.06710739 255.55292548 235.07629722 C225.5682113 235.0857198 195.58349819 235.09188311 165.59878255 235.09391499 C161.36867015 235.09420317 157.13855776 235.0945288 152.90844536 235.09487724 C151.65956161 235.09497838 151.65956161 235.09497838 150.38544788 235.09508156 C136.95513409 235.09626565 123.52482358 235.1009101 110.09451113 235.10683203 C96.60943576 235.11270487 83.12436367 235.11497161 69.63928706 235.11350138 C61.61662711 235.11273781 53.59397912 235.11479504 45.57132131 235.12079754 C39.59744843 235.12496386 33.62358857 235.12397505 27.64971452 235.12089889 C25.22037195 235.12047296 22.7910284 235.12177076 20.36168779 235.12488318 C17.08267297 235.12884295 13.80371864 235.12676603 10.52470493 235.12304783 C9.56151599 235.12567484 8.59832705 235.12830186 7.60595056 235.13100848 C1.1141458 235.1141458 1.1141458 235.1141458 0 234 C-0.1224331 232.49683231 -0.17776285 230.98811833 -0.20532227 229.48022461 C-0.22526749 228.51930405 -0.24521271 227.55838348 -0.26576233 226.56834412 C-0.28247482 225.523564 -0.29918732 224.47878387 -0.31640625 223.40234375 C-0.33718735 222.33834854 -0.35796844 221.27435333 -0.37937927 220.17811584 C-0.44499254 216.7646456 -0.50381423 213.35109571 -0.5625 209.9375 C-0.60567403 207.62954891 -0.64928794 205.321606 -0.69335938 203.01367188 C-0.80068584 197.34253318 -0.90242992 191.67131448 -1 186 C-1.73968018 186.60835693 -2.47936035 187.21671387 -3.24145508 187.84350586 C-4.22009521 188.64667236 -5.19873535 189.44983887 -6.20703125 190.27734375 C-7.17358643 191.07132568 -8.1401416 191.86530762 -9.13598633 192.68334961 C-12.68613289 195.55500085 -16.31358793 198.30648975 -20 201 C-18.60154175 196.63370257 -16.55565223 194.26036105 -13.25 191.125 C-10.16458867 188.14659716 -7.22174623 185.18960184 -4.5 181.875 C-3.675 180.92625 -2.85 179.9775 -2 179 C-1.34 179 -0.68 179 0 179 C0 119.93 0 60.86 0 0 Z M366 31 C366 87.43 366 143.86 366 202 C372.93 201.67 379.86 201.34 387 201 C387 173.28 387 145.56 387 117 C398 118 398 118 400.7265625 120.15234375 C401.35304688 121.07144531 401.97953125 121.99054688 402.625 122.9375 C403.35332031 123.94296875 404.08164062 124.9484375 404.83203125 125.984375 C405.54746094 126.97953125 406.26289063 127.9746875 407 129 C408.41488093 130.5830112 409.85238012 132.14611671 411.3125 133.6875 C415.61463069 138.41388926 419.41437277 143.42452819 423.20849609 148.55786133 C427.03404716 153.732372 430.96201168 158.81503762 434.9375 163.875 C440.77136071 171.32431696 446.36758162 178.92255229 451.8671875 186.62109375 C452.62757324 187.64795288 452.62757324 187.64795288 453.40332031 188.69555664 C455 191 455 191 456.65136719 193.97436523 C458.55230494 197.1499687 460.20924594 199.55953483 463 202 C467.94631141 203.18381177 472.47914181 202.74112105 477.5 202.1875 C478.799375 202.09017578 480.09875 201.99285156 481.4375 201.89257812 C484.63288395 201.64587569 487.81424356 201.3472882 491 201 C487.4749893 195.44741058 483.84509556 190.45080038 479.25 185.75 C473.80720135 180.01473229 468.98733969 173.98178378 464.25195312 167.65917969 C462.09986334 164.80707318 459.89541219 161.99649015 457.6875 159.1875 C457.23568359 158.61209473 456.78386719 158.03668945 456.31835938 157.44384766 C452.73924534 152.90237743 449.09448003 148.41636353 445.4375 143.9375 C437.71402004 134.47504129 430.29791367 124.79456835 423 115 C423.87140625 114.84144531 424.7428125 114.68289062 425.640625 114.51953125 C442.68283056 111.18117713 457.58789502 104.4885423 468 90 C473.68645947 79.71808782 474.55411318 68.22591118 472.38671875 56.75390625 C469.61396283 48.14248367 464.23101618 41.43628848 456.25 37.125 C429.19795889 25.05562781 391.22382661 31 366 31 Z M496 31 C496 87.43 496 143.86 496 202 C502.93 201.67 509.86 201.34 517 201 C517.33 172.95 517.66 144.9 518 116 C524.744375 115.979375 531.48875 115.95875 538.4375 115.9375 C540.52763428 115.928396 542.61776855 115.91929199 544.77124023 115.90991211 C555.88638638 115.88258185 566.91442913 116.17942908 578 117 C578 112.71 578 108.42 578 104 C557.87 104.33 537.74 104.66 517 105 C517.33 84.54 517.66 64.08 518 43 C529.6325 42.938125 529.6325 42.938125 541.5 42.875 C543.91248047 42.85679199 546.32496094 42.83858398 548.81054688 42.81982422 C560.41346848 42.77011353 571.52712531 43.22310355 583 45 C583 40.38 583 35.76 583 31 C554.29 31 525.58 31 496 31 Z M109 32 C104.01756398 42.59840164 99.14302492 53.24304926 94.32131958 63.91546631 C93.09593027 66.62682106 91.86825651 69.33713371 90.64038086 72.04736328 C86.42394489 81.36304626 82.24183835 90.69235283 78.12109375 100.05078125 C77.3456957 101.80597684 76.5701453 103.56110512 75.79443359 105.31616211 C74.33021079 108.62906026 72.87805263 111.94690398 71.43212891 115.26782227 C70.76903609 116.76990662 70.10548749 118.27178987 69.44140625 119.7734375 C69.1505162 120.4506636 68.85962616 121.12788971 68.55992126 121.82563782 C65.47347855 128.74539844 61.09199017 131.72757629 54.75 135.5 C39.25557646 144.95425475 25.34754983 156.5568663 11.5625 168.3125 C10.67473877 169.06853516 10.67473877 169.06853516 9.76904297 169.83984375 C8.16772181 171.21384802 6.58317764 172.60518314 5 174 C4.18402344 174.69480469 3.36804688 175.38960937 2.52734375 176.10546875 C2.02332031 176.73066406 1.51929687 177.35585937 1 178 C1.35778784 180.09880042 1.35778784 180.09880042 2 182 C2.70624512 181.45811035 2.70624512 181.45811035 3.42675781 180.90527344 C20.30260489 168.03083203 37.82353908 157.10614066 57 148 C56.23429687 149.58748047 56.23429687 149.58748047 55.453125 151.20703125 C50.68163332 161.1581394 46.06996955 171.17652992 41.5625 181.25 C40.78277832 182.98020386 40.78277832 182.98020386 39.98730469 184.74536133 C39.4977832 185.84517334 39.00826172 186.94498535 38.50390625 188.078125 C38.06892822 189.05168945 37.6339502 190.02525391 37.18579102 191.02832031 C35.89256669 194.26923578 34.95861387 197.64485146 34 201 C39.61 201 45.22 201 51 201 C51.59425781 199.14761719 52.18851563 197.29523438 52.80078125 195.38671875 C57.55037399 180.76811899 62.63143109 166.42903629 68.5949707 152.2565918 C69.0405835 151.19738525 69.48619629 150.13817871 69.9453125 149.046875 C70.34250488 148.11713867 70.73969727 147.18740234 71.14892578 146.22949219 C72.11887779 144.08632055 72.11887779 144.08632055 72 142 C94.74795801 136.88399338 116.78694047 134.55986844 137.86328125 146.4375 C142.20804809 149.61466039 143.81149248 153.63479381 145.70703125 158.57421875 C146.07633255 159.53016182 146.07633255 159.53016182 146.45309448 160.50541687 C147.24600455 162.5637044 148.02946857 164.62543649 148.8125 166.6875 C149.35294711 168.09664138 149.89371919 169.50565816 150.43481445 170.91455078 C153.54710616 179.04441704 156.59154498 187.1952567 159.38793945 195.44018555 C160.2655041 198.46264972 160.2655041 198.46264972 162 201 C163.85174706 201.15786308 165.7090911 201.25107356 167.56640625 201.31640625 C168.69111328 201.35830078 169.81582031 201.40019531 170.97460938 201.44335938 C172.15861328 201.48267578 173.34261719 201.52199219 174.5625 201.5625 C175.75037109 201.60568359 176.93824219 201.64886719 178.16210938 201.69335938 C181.10794784 201.79983546 184.0538743 201.90184841 187 202 C184.70345917 194.70600322 181.85709858 187.76103536 178.8125 180.75 C178.30436768 179.56647949 177.79623535 178.38295898 177.27270508 177.16357422 C174.4729718 170.64848359 171.63068692 164.15375798 168.74305725 157.67712402 C167.24999553 154.32372986 165.7683264 150.9653551 164.28744507 147.60656738 C163.55678505 145.95813773 162.82050936 144.31218527 162.07852173 142.66882324 C161.0320155 140.35018667 160.00455503 138.0239203 158.98046875 135.6953125 C158.50485001 134.66100601 158.50485001 134.66100601 158.0196228 133.60580444 C156.16122389 129.31757434 155.6971421 126.50660684 157 122 C158.41015625 119.4453125 158.41015625 119.4453125 160.0625 117.125 C160.88427734 115.95324219 160.88427734 115.95324219 161.72265625 114.7578125 C162.14417969 114.17773438 162.56570312 113.59765625 163 113 C160.32445543 110.32445543 158.53746005 110.7111436 154.8125 110.3125 C150.61398404 109.34881742 148.57483071 108.84822945 146.11767578 105.22241211 C145.6276709 104.04428955 145.13766602 102.86616699 144.6328125 101.65234375 C144.21043556 100.66829559 144.21043556 100.66829559 143.77952576 99.66436768 C143.1629827 98.22203121 142.55717517 96.77507068 141.96072388 95.3243103 C140.96546793 92.91645545 139.93314995 90.52753148 138.89038086 88.13989258 C136.58599923 82.85528055 134.32309176 77.55345785 132.0625 72.25 C131.29513556 70.45563777 130.52755818 68.66136658 129.75976562 66.8671875 C124.79778541 55.2624478 119.8859463 43.63693572 115 32 C113.02 32 111.04 32 109 32 Z M195 32 C195 88.1 195 144.2 195 202 C201.27 202 207.54 202 214 202 C214.17125102 188.29172034 214.33816697 174.58339421 214.5 160.875 C214.51187725 159.86917877 214.5237545 158.86335754 214.53599167 157.82705688 C214.88803805 127.88362129 215.16814795 97.94585698 215 68 C215.66 68 216.32 68 217 68 C217.27602051 68.59441895 217.55204102 69.18883789 217.83642578 69.80126953 C218.93794952 71.88274724 220.06503249 73.42210824 221.6171875 75.1796875 C222.39461304 76.06732788 222.39461304 76.06732788 223.18774414 76.97290039 C223.74453857 77.60059326 224.30133301 78.22828613 224.875 78.875 C226.05896864 80.22493171 227.24255399 81.57519967 228.42578125 82.92578125 C229.02471191 83.60721191 229.62364258 84.28864258 230.24072266 84.99072266 C232.87112698 87.99491744 235.4682362 91.02709935 238.0625 94.0625 C239.05335836 95.22007524 240.04424379 96.37762731 241.03515625 97.53515625 C241.76822998 98.39197998 241.76822998 98.39197998 242.51611328 99.26611328 C245.00895524 102.17894046 247.50462766 105.08934061 250 108 C251.0000134 109.16665518 252.00001341 110.33332184 253 111.5 C253.495 112.0775 253.99 112.655 254.5 113.25 C256 115 257.5 116.75 259 118.5 C259.49508057 119.07758057 259.99016113 119.65516113 260.50024414 120.25024414 C261.49948396 121.41605104 262.49867023 122.58190386 263.49780273 123.74780273 C266.00899461 126.67800398 268.52113393 129.60738291 271.03515625 132.53515625 C276.33379018 138.70779166 281.61474021 144.89431778 286.86010742 151.11230469 C289.19267091 153.87453995 291.5354614 156.62699597 293.8984375 159.36328125 C298.6025815 164.81149157 303.27054612 170.28132063 307.80786133 175.86987305 C308.89376251 177.20597888 309.98606672 178.53690627 311.0847168 179.86254883 C313.93821113 183.33007021 316.59367353 186.82777034 319.078125 190.5703125 C319.86038452 191.68237061 319.86038452 191.68237061 320.65844727 192.81689453 C322.1875 195 322.1875 195 323.45678711 197.12451172 C325.20193213 199.54255347 326.33376974 200.58645551 329 202 C332.09465988 202.35904488 335.14903635 202.27651374 338.2590332 202.18359375 C339.09884987 202.17034058 339.93866653 202.1570874 340.80393219 202.14343262 C342.86955328 202.10892836 344.93485654 202.05624526 347 202 C347.17755709 189.79180837 347.34316654 177.58347513 347.5 165.375 C347.51187725 164.4509285 347.5237545 163.52685699 347.53599167 162.57478333 C347.93018586 131.6325787 348.0903969 100.69463629 348.0625 69.75 C348.06121597 68.31529987 348.06121597 68.31529987 348.05990601 66.85161591 C348.04871807 55.23438762 348.02809637 43.61719907 348 32 C341.4 32 334.8 32 328 32 C327.67 73.25 327.34 114.5 327 157 C314.21448468 143.14902507 314.21448468 143.14902507 309.83984375 138.08984375 C307.43329844 135.35629441 304.96696804 132.67885994 302.5 130 C298.89984677 126.09020819 295.35582336 122.14133464 291.875 118.125 C289.45449925 115.38176582 286.97799358 112.69115432 284.5 110 C281.46111982 106.69971077 278.43843955 103.39050717 275.5 100 C272.13677362 96.12182987 268.66664329 92.34472189 265.19189453 88.56689453 C260.75776372 83.74415109 256.3748176 78.8765888 252 74 C250.50028872 72.33307353 249.00028679 70.66640851 247.5 69 C241.5 62.33333333 235.5 55.66666667 229.5 49 C228.39978516 47.77796875 228.39978516 47.77796875 227.27734375 46.53125 C225.68506044 44.76143939 224.09401513 42.99051451 222.50390625 41.21875 C221.69824219 40.3215625 220.89257812 39.424375 220.0625 38.5 C219.33160156 37.6853125 218.60070312 36.870625 217.84765625 36.03125 C216.5977181 34.65711081 215.3135075 33.3135075 214 32 C207.73 32 201.46 32 195 32 Z " fill="#FFFFFF" transform="translate(38,12)"/>
<path d="M0 0 C2.23884528 -0.00954935 4.47670884 -0.04047688 6.71533203 -0.07226562 C19.88193127 -0.17005328 32.26004713 0.89740184 42.47314453 9.95507812 C48.68157149 16.26676375 50.57299455 23.59988156 50.91455078 32.30273438 C50.57206547 41.32151422 47.54144511 49.45658071 41.53955078 56.24023438 C28.60198914 67.37357824 15.01107595 69.59623526 -1.58544922 69.36523438 C-2.82810547 69.35621094 -4.07076172 69.3471875 -5.35107422 69.33789062 C-8.38773926 69.31453166 -11.42398775 69.28177721 -14.46044922 69.24023438 C-14.4835751 60.39141047 -14.50136556 51.54259691 -14.51226139 42.69374943 C-14.51748968 38.58529153 -14.52458635 34.47685424 -14.53588867 30.3684082 C-14.54671947 26.40676609 -14.55272646 22.44514385 -14.55532646 18.48348808 C-14.55718036 16.96875127 -14.56080031 15.45401559 -14.56617928 13.93928719 C-14.57339229 11.82481625 -14.57444005 9.71042844 -14.57397461 7.59594727 C-14.57619522 6.39015518 -14.57841583 5.1843631 -14.58070374 3.94203186 C-14.29455587 -2.48694568 -5.04035499 0.0129711 0 0 Z " fill="#FFFFFF" transform="translate(439.46044921875,50.759765625)"/>
<path d="M0 0 C0.66 0 1.32 0 2 0 C4.24527251 5.15809972 6.48719267 10.31763868 8.72607422 15.47851562 C9.48753302 17.23249213 10.24989221 18.98607803 11.01318359 20.73925781 C12.11274707 23.26524326 13.20902113 25.79263464 14.3046875 28.3203125 C14.6443454 29.09867462 14.9840033 29.87703674 15.33395386 30.6789856 C17.08900934 34.73698212 18.67767866 38.77444871 20 43 C19.25878906 43.15855469 18.51757812 43.31710938 17.75390625 43.48046875 C4.88223818 46.33208677 -7.7659112 49.66136773 -19.77734375 55.1796875 C-20.51082031 55.45039063 -21.24429688 55.72109375 -22 56 C-22.66 55.67 -23.32 55.34 -24 55 C-21.0190967 48.12391603 -18.0375963 41.24809129 -15.05532932 34.37259865 C-13.67062448 31.18016751 -12.28612695 27.9876468 -10.90209961 24.79492188 C-9.31164854 21.12603586 -7.72030232 17.45753872 -6.12890625 13.7890625 C-5.63097061 12.64007477 -5.13303497 11.49108704 -4.62001038 10.30728149 C-4.15960861 9.2463327 -3.69920685 8.18538391 -3.22485352 7.09228516 C-2.8184816 6.15518707 -2.41210968 5.21808899 -1.99342346 4.25259399 C-1.3617037 2.82016544 -0.70013162 1.40026324 0 0 Z " fill="#FFFFFF" transform="translate(143,77)"/>
<path d="M0 0 C2.31 0 4.62 0 7 0 C7.99 2.97 8.98 5.94 10 9 C10.66 6.03 11.32 3.06 12 0 C14.31 0 16.62 0 19 0 C19.88902912 6.04819812 20.12348383 11.89223486 20.0625 18 C20.05798828 18.87011719 20.05347656 19.74023438 20.04882812 20.63671875 C20.0371736 22.75784293 20.01924357 24.8789311 20 27 C18.35 27 16.7 27 15 27 C14.67 24.69 14.34 22.38 14 20 C13.34 22.31 12.68 24.62 12 27 C10.35 26.67 8.7 26.34 7 26 C6.67 24.35 6.34 22.7 6 21 C5.67 22.98 5.34 24.96 5 27 C3.35 27 1.7 27 0 27 C0 18.09 0 9.18 0 0 Z " fill="#FFFFFF" transform="translate(253,261)"/>
<path d="M0 0 C2.31 0 4.62 0 7 0 C7.99 2.97 8.98 5.94 10 9 C10.66 6.03 11.32 3.06 12 0 C14.31 0 16.62 0 19 0 C19.83930594 9.02253886 20.12224626 17.9401941 20 27 C18.35 27 16.7 27 15 27 C14.67 25.68 14.34 24.36 14 23 C13.34 24.32 12.68 25.64 12 27 C10.35 27 8.7 27 7 27 C6.67 25.35 6.34 23.7 6 22 C5.01 24.475 5.01 24.475 4 27 C2.35 26.67 0.7 26.34 -1 26 C-0.67 17.42 -0.34 8.84 0 0 Z " fill="#FFFFFF" transform="translate(57,261)"/>
<path d="M0 0 C4.29 0 8.58 0 13 0 C17 4 17 4 17.375 7.4375 C17 11 17 11 15.875 13.5 C14.61383683 17.10332335 15.83699675 19.44637896 17 23 C17 24.32 17 25.64 17 27 C15.02 27 13.04 27 11 27 C10.01 24.03 9.02 21.06 8 18 C7.67 20.97 7.34 23.94 7 27 C4.69 27 2.38 27 0 27 C0 18.09 0 9.18 0 0 Z M7 5 C7 6.98 7 8.96 7 11 C7.99 11 8.98 11 10 11 C10.33 9.35 10.66 7.7 11 6 C9.68 5.67 8.36 5.34 7 5 Z " fill="#FFFFFF" transform="translate(93,261)"/>
<path d="M0 0 C12 0 12 0 15.3125 2.0625 C17.87878566 6.529738 16.6125732 9.61603677 15.38671875 14.38671875 C14.95228045 17.32246847 15.28380243 19.42854011 15.9375 22.3125 C16.22947266 23.63701172 16.22947266 23.63701172 16.52734375 24.98828125 C16.68332031 25.65214844 16.83929688 26.31601562 17 27 C14.69 27 12.38 27 10 27 C9.34 24.69 8.68 22.38 8 20 C7.34 22.31 6.68 24.62 6 27 C4.02 27 2.04 27 0 27 C0 18.09 0 9.18 0 0 Z M7 5 C7 6.98 7 8.96 7 11 C7.99 10.67 8.98 10.34 10 10 C10 8.35 10 6.7 10 5 C9.01 5 8.02 5 7 5 Z " fill="#FFFFFF" transform="translate(326,261)"/>
<path d="M0 0 C12 0 12 0 15.3125 2.0625 C17.49257655 5.85744806 17.11946086 7.84200252 16 12 C15.67 12.33 15.34 12.66 15 13 C15.47828177 17.70310404 16.18502036 22.34297349 17 27 C14.69 27 12.38 27 10 27 C9.34 24.69 8.68 22.38 8 20 C7.34 22.31 6.68 24.62 6 27 C4.02 27 2.04 27 0 27 C0 18.09 0 9.18 0 0 Z M7 5 C7 6.98 7 8.96 7 11 C7.99 10.67 8.98 10.34 10 10 C10 8.35 10 6.7 10 5 C9.01 5 8.02 5 7 5 Z " fill="#FFFFFF" transform="translate(376,261)"/>
<path d="M0 0 C1.65 0 3.3 0 5 0 C6.32 2.64 7.64 5.28 9 8 C9.33 5.36 9.66 2.72 10 0 C11.98 0 13.96 0 16 0 C16 8.58 16 17.16 16 26 C14.35 26.33 12.7 26.66 11 27 C9.68 24.03 8.36 21.06 7 18 C6.67 20.97 6.34 23.94 6 27 C4.02 27 2.04 27 0 27 C0 18.09 0 9.18 0 0 Z " fill="#FFFFFF" transform="translate(182,261)"/>
<path d="M0 0 C2.31 0 4.62 0 7 0 C7 7.26 7 14.52 7 22 C7.99 22 8.98 22 10 22 C10 14.74 10 7.48 10 0 C12.31 0 14.62 0 17 0 C17.05834353 3.22909006 17.09371115 6.45804338 17.125 9.6875 C17.14175781 10.59951172 17.15851562 11.51152344 17.17578125 12.45117188 C17.23818946 21.03230051 17.23818946 21.03230051 15 25 C12.60713116 27.39286884 11.90552906 27.32050616 8.625 27.375 C7.46871094 27.41753906 7.46871094 27.41753906 6.2890625 27.4609375 C3.10867181 26.82051753 2.03076447 25.49352367 0 23 C-0.45410156 20.43457031 -0.45410156 20.43457031 -0.390625 17.578125 C-0.37773437 16.55332031 -0.36484375 15.52851563 -0.3515625 14.47265625 C-0.31804687 13.40917969 -0.28453125 12.34570312 -0.25 11.25 C-0.23195313 10.17105469 -0.21390625 9.09210938 -0.1953125 7.98046875 C-0.14821415 5.31941212 -0.082456 2.66015746 0 0 Z " fill="#FFFFFF" transform="translate(512,261)"/>
<path d="M0 0 C2.37772112 1.58514741 2.87703488 2.50040045 3.55859375 5.26953125 C4.62532053 11.86813316 4.84371691 18.83861336 2 25 C-0.50063147 27.50063147 -1.47811698 27.32420142 -4.9375 27.375 C-6.25041016 27.41753906 -6.25041016 27.41753906 -7.58984375 27.4609375 C-10 27 -10 27 -11.79296875 25.5703125 C-13.65326595 21.60890294 -13.4336479 17.82039511 -13.375 13.5 C-13.38660156 12.64535156 -13.39820313 11.79070312 -13.41015625 10.91015625 C-13.39315771 7.27813476 -13.37746516 4.71519714 -11.6640625 1.46875 C-7.96608957 -1.79518855 -4.52729341 -0.9701343 0 0 Z M-6 4 C-6 9.94 -6 15.88 -6 22 C-5.34 22 -4.68 22 -4 22 C-2.58119737 19.16239474 -2.8679528 16.72317025 -2.875 13.5625 C-2.87242187 12.40878906 -2.86984375 11.25507813 -2.8671875 10.06640625 C-2.86104078 6.95874333 -2.86104078 6.95874333 -4 4 C-4.66 4 -5.32 4 -6 4 Z " fill="#FFFFFF" transform="translate(620,261)"/>
<path d="M0 0 C2.62140686 3.58718833 2.3523788 7.22006978 2.375 11.5 C2.38917969 12.71429688 2.40335937 13.92859375 2.41796875 15.1796875 C2.12041542 19.62785761 1.35579894 22.45670106 -1.8125 25.625 C-3.8359375 25.9609375 -3.8359375 25.9609375 -6.1875 26 C-7.34378906 26.04253906 -7.34378906 26.04253906 -8.5234375 26.0859375 C-11.88033137 25.40997594 -12.88704528 24.47207687 -14.8125 21.625 C-15.37263985 18.44556119 -15.32527567 15.34485619 -15.25 12.125 C-15.25708984 11.27035156 -15.26417969 10.41570312 -15.27148438 9.53515625 C-15.23418435 5.85679964 -15.20701657 3.33447593 -13.3984375 0.08203125 C-9.59350786 -3.41363071 -4.06147488 -3.08111887 0 0 Z M-6.8125 2.625 C-8.25638571 3.83928988 -8.25638571 3.83928988 -7.91015625 7.44140625 C-7.90348089 9.02346682 -7.89151875 10.60551159 -7.875 12.1875 C-7.87048828 12.99380859 -7.86597656 13.80011719 -7.86132812 14.63085938 C-7.84950518 16.62893756 -7.83156914 18.62697783 -7.8125 20.625 C-6.8225 20.295 -5.8325 19.965 -4.8125 19.625 C-4.8125 14.345 -4.8125 9.065 -4.8125 3.625 C-5.4725 3.295 -6.1325 2.965 -6.8125 2.625 Z " fill="#FFFFFF" transform="translate(289.8125,262.375)"/>
<path d="M0 0 C3.56010226 4.2589676 3.42573327 8.28582944 3.3125 13.5625 C3.31733398 14.69461914 3.31733398 14.69461914 3.32226562 15.84960938 C3.2542308 22.86956642 3.2542308 22.86956642 1 26 C-1.32686453 27.16343227 -2.84721413 27.19895988 -5.4375 27.25 C-6.21996094 27.27578125 -7.00242187 27.3015625 -7.80859375 27.328125 C-10.53677498 26.91962728 -11.3441611 26.16727539 -13 24 C-14.22716023 20.3185193 -14.18406814 16.89589238 -14.1875 13.0625 C-14.20586914 11.98838867 -14.20586914 11.98838867 -14.22460938 10.89257812 C-14.23507655 7.12788471 -14.22989608 4.12804867 -12 1 C-7.88808964 -1.46714622 -4.55382779 -1.26495216 0 0 Z M-6 4 C-7.44388571 5.21428988 -7.44388571 5.21428988 -7.09765625 8.81640625 C-7.09098089 10.39846682 -7.07901875 11.98051159 -7.0625 13.5625 C-7.05798828 14.36880859 -7.05347656 15.17511719 -7.04882812 16.00585938 C-7.03700518 18.00393756 -7.01906914 20.00197783 -7 22 C-6.01 22 -5.02 22 -4 22 C-4 16.39 -4 10.78 -4 5 C-4.66 4.67 -5.32 4.34 -6 4 Z " fill="#FFFFFF" transform="translate(507,261)"/>
<path d="M0 0 C2.81697897 1.97188528 3.36679263 3.70508024 4 7 C4.1177153 9.14351348 4.17509129 11.29079253 4.1875 13.4375 C4.20167969 14.54996094 4.21585938 15.66242188 4.23046875 16.80859375 C3.91894204 21.12244662 3.07280372 23.92719628 0 27 C-2.0234375 27.3359375 -2.0234375 27.3359375 -4.375 27.375 C-5.53128906 27.41753906 -5.53128906 27.41753906 -6.7109375 27.4609375 C-10.06783137 26.78497594 -11.07454528 25.84707687 -13 23 C-13.56013985 19.82056119 -13.51277567 16.71985619 -13.4375 13.5 C-13.44458984 12.64535156 -13.45167969 11.79070312 -13.45898438 10.91015625 C-13.42219084 7.28174759 -13.37508058 4.70860704 -11.66015625 1.46875 C-7.96731434 -1.79832896 -4.52391969 -0.96941136 0 0 Z M-6 4 C-6 9.94 -6 15.88 -6 22 C-5.01 21.67 -4.02 21.34 -3 21 C-2.97308315 18.54159395 -2.95320198 16.08348118 -2.9375 13.625 C-2.92912109 12.92632812 -2.92074219 12.22765625 -2.91210938 11.5078125 C-2.8164558 7.62704624 -2.8164558 7.62704624 -4 4 C-4.66 4 -5.32 4 -6 4 Z " fill="#FFFFFF" transform="translate(213,261)"/>
<path d="M0 0 C1.98 0 3.96 0 6 0 C6 3.3 6 6.6 6 10 C6.99 10 7.98 10 9 10 C9 6.7 9 3.4 9 0 C11.31 0 13.62 0 16 0 C16 8.91 16 17.82 16 27 C14.02 27 12.04 27 10 27 C9 26 9 26 8.90234375 23.71484375 C8.91394531 22.79832031 8.92554688 21.88179688 8.9375 20.9375 C8.94652344 20.01839844 8.95554687 19.09929687 8.96484375 18.15234375 C8.97644531 17.44207031 8.98804688 16.73179687 9 16 C8.01 16 7.02 16 6 16 C6 19.63 6 23.26 6 27 C4.02 27 2.04 27 0 27 C0 18.09 0 9.18 0 0 Z " fill="#FFFFFF" transform="translate(423,261)"/>
<path d="M0 0 C3.96 0 7.92 0 12 0 C16.41855678 4.41855678 16.52591992 4.89994212 16.59570312 10.50585938 C16.58474609 11.30830078 16.57378906 12.11074219 16.5625 12.9375 C16.58634766 13.73607422 16.61019531 14.53464844 16.63476562 15.35742188 C16.6247818 19.37424717 16.25990277 21.56866031 14.15234375 25.06640625 C11 27 11 27 0 27 C0 18.09 0 9.18 0 0 Z M6 5 C6 10.61 6 16.22 6 22 C6.99 22 7.98 22 9 22 C9 16.39 9 10.78 9 5 C8.01 5 7.02 5 6 5 Z " fill="#FFFFFF" transform="translate(549,261)"/>
<path d="M0 0 C1.65 0 3.3 0 5 0 C5.99 1.98 6.98 3.96 8 6 C8.33 4.02 8.66 2.04 9 0 C10.98 0 12.96 0 15 0 C15 8.91 15 17.82 15 27 C13.35 27 11.7 27 10 27 C9.01 24.69 8.02 22.38 7 20 C6.67 22.31 6.34 24.62 6 27 C4.02 27 2.04 27 0 27 C0 18.09 0 9.18 0 0 Z " fill="#FFFFFF" transform="translate(531,261)"/>
<path d="M0 0 C1.65 0 3.3 0 5 0 C5.99 2.31 6.98 4.62 8 7 C8.33 4.69 8.66 2.38 9 0 C10.98 0 12.96 0 15 0 C15 8.91 15 17.82 15 27 C13.35 27 11.7 27 10 27 C9.01 24.69 8.02 22.38 7 20 C6.34 22.31 5.68 24.62 5 27 C3.35 27 1.7 27 0 27 C0 18.09 0 9.18 0 0 Z " fill="#FFFFFF" transform="translate(219,261)"/>
<path d="M0 0 C1.65 0 3.3 0 5 0 C5.99 2.31 6.98 4.62 8 7 C8.33 4.69 8.66 2.38 9 0 C10.98 0 12.96 0 15 0 C15 8.91 15 17.82 15 27 C13.35 27 11.7 27 10 27 C9.01 24.69 8.02 22.38 7 20 C6.34 22.31 5.68 24.62 5 27 C3.35 27 1.7 27 0 27 C0 18.09 0 9.18 0 0 Z " fill="#FFFFFF" transform="translate(626,261)"/>
<path d="M0 0 C2 2 2 2 2.125 5.625 C2.08375 6.73875 2.0425 7.8525 2 9 C0.02 9 -1.96 9 -4 9 C-4.12375 8.195625 -4.2475 7.39125 -4.375 6.5625 C-4.58125 5.716875 -4.7875 4.87125 -5 4 C-5.66 3.67 -6.32 3.34 -7 3 C-7 8.94 -7 14.88 -7 21 C-6.01 21 -5.02 21 -4 21 C-4 19.35 -4 17.7 -4 16 C-4.66 16 -5.32 16 -6 16 C-6 14.35 -6 12.7 -6 11 C-3.36 11 -0.72 11 2 11 C2 15.95 2 20.9 2 26 C-10.34838776 26.48904506 -10.34838776 26.48904506 -12.89453125 24.578125 C-14.60254459 20.59477234 -14.43319246 16.78684425 -14.375 12.5 C-14.38660156 11.64535156 -14.39820313 10.79070312 -14.41015625 9.91015625 C-14.38101736 3.6841472 -14.38101736 3.6841472 -12.5859375 0.4609375 C-8.52644983 -3.27859055 -4.87550188 -1.71545436 0 0 Z " fill="#FFFFFF" transform="translate(418,262)"/>
<path d="M0 0 C2.31 0 4.62 0 7 0 C7.33 1.32 7.66 2.64 8 4 C8.66 2.68 9.32 1.36 10 0 C11.98 0 13.96 0 16 0 C15.54159957 2.67400252 15.04135129 4.91270284 13.875 7.375 C11.75125657 13.7462303 15.03149728 20.84688142 17 27 C14.69 27 12.38 27 10 27 C9.34 25.35 8.68 23.7 8 22 C7.01 24.475 7.01 24.475 6 27 C4.02 27 2.04 27 0 27 C0 18.09 0 9.18 0 0 Z " fill="#FFFFFF" transform="translate(294,261)"/>
<path d="M0 0 C1.65 0 3.3 0 5 0 C5.99 2.31 6.98 4.62 8 7 C8.33 4.69 8.66 2.38 9 0 C10.98 0 12.96 0 15 0 C15 8.91 15 17.82 15 27 C13.35 27 11.7 27 10 27 C9.01 24.69 8.02 22.38 7 20 C6.34 22.31 5.68 24.62 5 27 C3.35 27 1.7 27 0 27 C0 18.09 0 9.18 0 0 Z " fill="#FFFFFF" transform="translate(157,261)"/>
<path d="M0 0 C1.65930794 2.53262792 1.92787425 4.82680386 2.1875 7.8125 C1.1875 8.8125 1.1875 8.8125 -1.875 8.875 C-2.844375 8.854375 -3.81375 8.83375 -4.8125 8.8125 C-5.1425 7.1625 -5.4725 5.5125 -5.8125 3.8125 C-6.1425 3.8125 -6.4725 3.8125 -6.8125 3.8125 C-7.1425 9.4225 -7.4725 15.0325 -7.8125 20.8125 C-6.8225 20.8125 -5.8325 20.8125 -4.8125 20.8125 C-4.833125 20.008125 -4.85375 19.20375 -4.875 18.375 C-4.8125 15.8125 -4.8125 15.8125 -3.8125 14.8125 C-2.14632885 14.77186168 -0.47861905 14.769779 1.1875 14.8125 C2.17745103 17.48536779 2.23324968 18.66469333 1.375 21.4375 C0.1875 23.8125 0.1875 23.8125 -1.8125 25.8125 C-3.8359375 26.18359375 -3.8359375 26.18359375 -6.1875 26.25 C-6.95835937 26.28996094 -7.72921875 26.32992188 -8.5234375 26.37109375 C-10.8125 25.8125 -10.8125 25.8125 -13.07421875 23.81640625 C-15.37651276 19.83783526 -15.3707429 16.8228316 -15.25 12.3125 C-15.25708984 11.56613281 -15.26417969 10.81976563 -15.27148438 10.05078125 C-15.21921841 5.50766273 -14.71113254 2.51075531 -11.8125 -1.1875 C-8.00609021 -3.02507714 -3.48182416 -2.28119514 0 0 Z " fill="#FFFFFF" transform="translate(135.8125,262.1875)"/>
<path d="M0 0 C1.134375 0.020625 2.26875 0.04125 3.4375 0.0625 C8.4375 21.32916667 8.4375 21.32916667 8.4375 27.0625 C6.4575 27.0625 4.4775 27.0625 2.4375 27.0625 C2.1075 25.4125 1.7775 23.7625 1.4375 22.0625 C0.4475 22.0625 -0.5425 22.0625 -1.5625 22.0625 C-1.8925 23.7125 -2.2225 25.3625 -2.5625 27.0625 C-4.5425 27.0625 -6.5225 27.0625 -8.5625 27.0625 C-6.93821199 0.12172302 -6.93821199 0.12172302 0 0 Z M-0.5625 12.0625 C-0.5625 13.7125 -0.5625 15.3625 -0.5625 17.0625 C-0.2325 17.0625 0.0975 17.0625 0.4375 17.0625 C0.4375 15.4125 0.4375 13.7625 0.4375 12.0625 C0.1075 12.0625 -0.2225 12.0625 -0.5625 12.0625 Z " fill="#FFFFFF" transform="translate(574.5625,260.9375)"/>
<path d="M0 0 C2.64 0 5.28 0 8 0 C8.67396301 3.56115958 9.33787818 7.12412141 10 10.6875 C10.19078125 11.69490234 10.3815625 12.70230469 10.578125 13.74023438 C10.75859375 14.71669922 10.9390625 15.69316406 11.125 16.69921875 C11.29257812 17.59471436 11.46015625 18.49020996 11.6328125 19.4128418 C11.99717982 21.98012932 12.06528807 24.41092013 12 27 C10.02 27 8.04 27 6 27 C5.8453125 26.0409375 5.8453125 26.0409375 5.6875 25.0625 C5.460625 24.381875 5.23375 23.70125 5 23 C4.01 22.67 3.02 22.34 2 22 C1.67 23.65 1.34 25.3 1 27 C-0.98 27 -2.96 27 -5 27 C-4.47489999 21.11887992 -3.57917094 15.36312502 -2.5 9.5625 C-2.30410278 8.49708984 -2.30410278 8.49708984 -2.10424805 7.41015625 C-1.12489481 2.24978963 -1.12489481 2.24978963 0 0 Z M3 12 C3 13.65 3 15.3 3 17 C3.33 17 3.66 17 4 17 C4 15.35 4 13.7 4 12 C3.67 12 3.34 12 3 12 Z " fill="#FFFFFF" transform="translate(43,261)"/>
<path d="M0 0 C2.64 0 5.28 0 8 0 C8.67590188 3.37321776 9.33905518 6.74882242 10 10.125 C10.19078125 11.07632812 10.3815625 12.02765625 10.578125 13.0078125 C11.49756891 17.73638116 12.2609763 22.15562735 12 27 C10.02 27 8.04 27 6 27 C6 25.35 6 23.7 6 22 C4.68 22 3.36 22 2 22 C1.67 23.65 1.34 25.3 1 27 C-0.98 27 -2.96 27 -5 27 C-3.8322916 17.83692346 -2.23443486 8.96753189 0 0 Z M3 13 C3 14.32 3 15.64 3 17 C3.66 16.67 4.32 16.34 5 16 C4.34 15.01 3.68 14.02 3 13 Z " fill="#FFFFFF" transform="translate(143,261)"/>
<path d="M0 0 C1.875 1.25 1.875 1.25 3 3 C3.1875 5.6875 3.1875 5.6875 3 8 C1.02 8 -0.96 8 -3 8 C-3 7.01 -3 6.02 -3 5 C-3.66 5 -4.32 5 -5 5 C-3.33605685 7.97758249 -1.66017679 10.38027836 0.625 12.9375 C3.17727084 16.22858608 4.0882531 17.85210423 4 22 C2.5625 24.875 2.5625 24.875 0 27 C-3.53386448 27.75218802 -6.77147919 27.75296437 -9.9375 25.8125 C-11.24912987 23.57501375 -11.65447612 21.55687669 -12 19 C-10.02 18.34 -8.04 17.68 -6 17 C-5.87625 17.639375 -5.7525 18.27875 -5.625 18.9375 C-5.41875 19.618125 -5.2125 20.29875 -5 21 C-4.34 21.33 -3.68 21.66 -3 22 C-4.40652774 17.52468445 -6.6797098 15.23728294 -10 12 C-11.87055636 9.36421604 -12.00443146 8.21714149 -11.9375 4.9375 C-11 2 -11 2 -8.8125 0.0625 C-5.34567461 -1.24718959 -3.52513753 -1.07286794 0 0 Z " fill="#FFFFFF" transform="translate(467,261)"/>
<path d="M0 0 C1.8378888 2.58975241 2 3.78481903 2 7 C0.02 7 -1.96 7 -4 7 C-4 6.01 -4 5.02 -4 4 C-4.66 4 -5.32 4 -6 4 C-4.95063559 7.56783901 -3.63063834 9.44031134 -0.875 11.8125 C1.65708407 14.20219303 2.45353127 15.68768076 2.5625 19.1875 C2 23 2 23 1 25 C-2.26034531 26.63017266 -5.48814687 26.63594926 -9 26 C-11.5 24.3125 -11.5 24.3125 -13 22 C-13.25 19.25 -13.25 19.25 -13 17 C-10.125 16.8125 -10.125 16.8125 -7 17 C-6.34 17.99 -5.68 18.98 -5 20 C-5.26088269 16.47808373 -6.24314592 15.78724732 -9 13.375 C-9.99 12.59125 -10.98 11.8075 -12 11 C-13.40457737 8.19084526 -13.24895157 6.11189466 -13 3 C-11.6602648 0.52148989 -10.72328842 -0.65082628 -8.1875 -1.875 C-5.02748499 -2.05557229 -2.86516962 -1.30801222 0 0 Z " fill="#FFFFFF" transform="translate(249,262)"/>
<path d="M0 0 C1.875 1.8125 1.875 1.8125 3 4 C3 5.32 3 6.64 3 8 C1.02 8 -0.96 8 -3 8 C-3 7.01 -3 6.02 -3 5 C-3.66 5 -4.32 5 -5 5 C-3.99131871 8.30113875 -3.23726654 9.81018677 -0.5 12 C2.30570343 14.24456275 3.15546413 15.53740294 4 19 C3.8045898 21.73574279 3.31956119 23.45486621 1.9375 25.8125 C-1.21117163 27.742331 -4.41409239 27.53900908 -8 27 C-9.9375 25.875 -9.9375 25.875 -11 24 C-11.6875 20.8125 -11.6875 20.8125 -12 18 C-10.02 18 -8.04 18 -6 18 C-5.67 18.99 -5.34 19.98 -5 21 C-4.34 21.33 -3.68 21.66 -3 22 C-4.09392001 18.11050663 -5.92826302 15.95019483 -8.6875 13.125 C-11.43178209 10.0942584 -11.97106517 9.44125613 -12.25 5.1875 C-11 2 -11 2 -8.8125 0 C-5.33229915 -1.23740475 -3.50268174 -1.14217883 0 0 Z " fill="#FFFFFF" transform="translate(356,261)"/>
<path d="M0 0 C4.29 0 8.58 0 13 0 C12.67 1.65 12.34 3.3 12 5 C10.35 5 8.7 5 7 5 C7 6.65 7 8.3 7 10 C8.32 10 9.64 10 11 10 C11 11.65 11 13.3 11 15 C9.68 15 8.36 15 7 15 C7 17.31 7 19.62 7 22 C8.98 22 10.96 22 13 22 C13 23.65 13 25.3 13 27 C8.71 27 4.42 27 0 27 C0 18.09 0 9.18 0 0 Z " fill="#FFFFFF" transform="translate(79,261)"/>
<path d="M0 0 C4.29 0 8.58 0 13 0 C12.67 1.65 12.34 3.3 12 5 C10.35 5 8.7 5 7 5 C7 6.65 7 8.3 7 10 C8.32 10 9.64 10 11 10 C11 11.65 11 13.3 11 15 C9.68 15 8.36 15 7 15 C7 17.31 7 19.62 7 22 C8.65 22 10.3 22 12 22 C12.5625 23.9375 12.5625 23.9375 13 26 C12.67 26.33 12.34 26.66 12 27 C8.04 27 4.08 27 0 27 C0 18.09 0 9.18 0 0 Z " fill="#FFFFFF" transform="translate(312,261)"/>
<path d="M0 0 C3.96 0 7.92 0 12 0 C12 1.65 12 3.3 12 5 C10.35 5 8.7 5 7 5 C7 6.65 7 8.3 7 10 C8.65 10.33 10.3 10.66 12 11 C12 12.32 12 13.64 12 15 C10.35 15 8.7 15 7 15 C7.01160156 15.78246094 7.02320313 16.56492187 7.03515625 17.37109375 C7.04417969 18.38300781 7.05320312 19.39492188 7.0625 20.4375 C7.07410156 21.44683594 7.08570313 22.45617187 7.09765625 23.49609375 C7 26 7 26 6 27 C4.02 27 2.04 27 0 27 C0 18.09 0 9.18 0 0 Z " fill="#FFFFFF" transform="translate(480,261)"/>
<path d="M0 0 C4.95 0 9.9 0 15 0 C15 1.65 15 3.3 15 5 C13.68 5 12.36 5 11 5 C11 12.26 11 19.52 11 27 C8.69 27 6.38 27 4 27 C4 19.74 4 12.48 4 5 C2.68 5 1.36 5 0 5 C0 3.35 0 1.7 0 0 Z " fill="#FFFFFF" transform="translate(582,261)"/>
<path d="M0 0 C4.95 0 9.9 0 15 0 C15 1.65 15 3.3 15 5 C13.68 5 12.36 5 11 5 C11 12.26 11 19.52 11 27 C8.69 27 6.38 27 4 27 C4 19.74 4 12.48 4 5 C2.68 5 1.36 5 0 5 C0 3.35 0 1.7 0 0 Z " fill="#FFFFFF" transform="translate(440,261)"/>
<path d="M0 0 C2.31 0 4.62 0 7 0 C7 8.91 7 17.82 7 27 C4.69 27 2.38 27 0 27 C0 18.09 0 9.18 0 0 Z " fill="#FFFFFF" transform="translate(112,261)"/>
<path d="M0 0 C2.31 0 4.62 0 7 0 C7.02886537 4.31248609 7.04675255 8.62494762 7.0625 12.9375 C7.07087891 14.16919922 7.07925781 15.40089844 7.08789062 16.66992188 C7.09111328 17.83974609 7.09433594 19.00957031 7.09765625 20.21484375 C7.10289307 21.29886475 7.10812988 22.38288574 7.11352539 23.49975586 C7 26 7 26 6 27 C4.02 27 2.04 27 0 27 C0 18.09 0 9.18 0 0 Z " fill="#FFFFFF" transform="translate(598,261)"/>
<path d="M0 0 C2.31 0 4.62 0 7 0 C7.02886537 4.31248609 7.04675255 8.62494762 7.0625 12.9375 C7.07087891 14.16919922 7.07925781 15.40089844 7.08789062 16.66992188 C7.09111328 17.83974609 7.09433594 19.00957031 7.09765625 20.21484375 C7.10289307 21.29886475 7.10812988 22.38288574 7.11352539 23.49975586 C7 26 7 26 6 27 C4.02 27 2.04 27 0 27 C0 18.09 0 9.18 0 0 Z " fill="#FFFFFF" transform="translate(395,261)"/>
<path d="M0 0 C1.98 0 3.96 0 6 0 C5.64766839 5.4611399 5.64766839 5.4611399 5 8 C2.9375 9.5 2.9375 9.5 1 10 C1.33 8.35 1.66 6.7 2 5 C1.34 5 0.68 5 0 5 C0 3.35 0 1.7 0 0 Z " fill="#FFFFFF" transform="translate(361,261)"/>
</svg>
