<?xml version="1.0" encoding="UTF-8"?>
<svg version="1.1" xmlns="http://www.w3.org/2000/svg" width="846" height="233">
<path d="M0 0 C5.29355981 2.68000614 9.96951903 3.25639193 15.61132812 1.64990234 C17.99949352 0.79952302 20.3413257 -0.12906315 22.68774414 -1.08837891 C39.97559003 -7.75811353 57.37194335 -9.36679027 74.94555664 -2.27197266 C91.72583463 5.53828632 101.89088824 18.13868569 108.37524414 35.28662109 C116.76615175 62.10500255 114.39582131 89.5089198 101.66088867 114.48828125 C97.97488302 121.36081085 93.51218228 127.43420082 88.37524414 133.28662109 C87.93229004 133.7914502 87.48933594 134.2962793 87.03295898 134.81640625 C71.08645537 152.58862764 50.32219698 165.39446632 26.30493164 167.56396484 C20.8144574 167.75513735 16.53248642 166.86850491 11.41040039 164.96240234 C6.39910367 163.29838251 1.559143 164.39763634 -3.49975586 165.28662109 C-21.09865961 168.31415528 -36.61850764 163.23789561 -51.28491211 153.52490234 C-53.48615154 151.85941431 -55.5597831 150.11782335 -57.62475586 148.28662109 C-58.83518555 147.25408203 -58.83518555 147.25408203 -60.07006836 146.20068359 C-69.77521948 137.74206565 -78.13394475 128.46425767 -84.62475586 117.28662109 C-84.62475586 116.62662109 -84.62475586 115.96662109 -84.62475586 115.28662109 C-79.78287542 116.29153968 -75.88658495 117.61747195 -71.49975586 119.91162109 C-64.13403975 123.41419938 -55.44733454 123.63147269 -47.62475586 121.28662109 C-47.87225586 120.54412109 -48.11975586 119.80162109 -48.37475586 119.03662109 C-48.62475586 116.28662109 -48.62475586 116.28662109 -46.99975586 113.91162109 C-44.62475586 112.28662109 -44.62475586 112.28662109 -42.37475586 112.28662109 C-37.20300835 114.16725655 -32.61748222 116.17981203 -28.68725586 120.09912109 C-25.29988577 122.51867116 -24.67722425 122.54027199 -20.74975586 122.09912109 C-19.36968423 121.85544508 -17.99215657 121.59352659 -16.62475586 121.28662109 C-16.62475586 125.81711091 -17.60501814 129.24714566 -19.62475586 133.28662109 C-15.29196103 134.87178993 -11.1863182 135.6605243 -6.62475586 136.28662109 C-6.29475586 136.61662109 -5.96475586 136.94662109 -5.62475586 137.28662109 C-2.2186064 137.26535647 -2.2186064 137.26535647 1.37524414 136.28662109 C2.75756857 134.66035706 4.09461929 132.99412089 5.37524414 131.28662109 C7.75024414 130.22412109 7.75024414 130.22412109 10.37524414 130.28662109 C13.68774414 132.03662109 13.68774414 132.03662109 16.37524414 134.28662109 C16.37524414 135.27662109 16.37524414 136.26662109 16.37524414 137.28662109 C18.43805187 136.73649075 18.43805187 136.73649075 20.37524414 135.28662109 C21.08060025 132.4079276 21.08060025 132.4079276 21.12524414 129.16162109 C21.21032227 127.51806641 21.21032227 127.51806641 21.29711914 125.84130859 C21.32290039 124.99826172 21.34868164 124.15521484 21.37524414 123.28662109 C24.76882819 122.53373987 27.05217865 122.09981199 30.37524414 123.28662109 C31.37524414 124.28662109 31.37524414 124.28662109 31.43774414 126.84912109 C31.41711914 127.65349609 31.39649414 128.45787109 31.37524414 129.28662109 C32.53024414 129.18349609 33.68524414 129.08037109 34.87524414 128.97412109 C39.90700615 128.95618255 43.64330666 130.98278617 47.37524414 134.28662109 C48.58299994 137.90988849 47.91835542 138.92808478 46.37524414 142.28662109 C46.95274414 141.60599609 47.53024414 140.92537109 48.12524414 140.22412109 C49.23899414 139.26505859 49.23899414 139.26505859 50.37524414 138.28662109 C52.43774414 138.72412109 52.43774414 138.72412109 54.37524414 139.28662109 C56.31179362 138.26691791 56.31179362 138.26691791 57.37524414 136.28662109 C57.52999026 133.72472265 57.52999026 133.72472265 56.37524414 131.28662109 C54.25026667 129.26139917 54.25026667 129.26139917 51.37524414 128.28662109 C50.46774414 128.47224609 49.56024414 128.65787109 48.62524414 128.84912109 C43.89393674 129.48602786 40.42742815 127.66390238 36.37524414 125.28662109 C35.35344321 124.30890802 34.35278058 123.30859101 33.37524414 122.28662109 C32.16440047 121.36617248 30.93488072 120.46976361 29.68774414 119.59912109 C29.06512695 119.16212891 28.44250977 118.72513672 27.80102539 118.27490234 C27.33051758 117.94876953 26.86000977 117.62263672 26.37524414 117.28662109 C26.87024414 115.80162109 26.87024414 115.80162109 27.37524414 114.28662109 C30.13788703 113.6892929 32.53557183 113.28662109 35.37524414 113.28662109 C35.70524414 112.62662109 36.03524414 111.96662109 36.37524414 111.28662109 C38.66040039 110.65380859 38.66040039 110.65380859 41.43774414 110.16162109 C42.3568457 109.99404297 43.27594727 109.82646484 44.22290039 109.65380859 C44.93317383 109.53263672 45.64344727 109.41146484 46.37524414 109.28662109 C46.37524414 108.62662109 46.37524414 107.96662109 46.37524414 107.28662109 C45.38524414 106.95662109 44.39524414 106.62662109 43.37524414 106.28662109 C43.25149414 105.48224609 43.12774414 104.67787109 43.00024414 103.84912109 C42.69086914 102.58068359 42.69086914 102.58068359 42.37524414 101.28662109 C41.71524414 100.95662109 41.05524414 100.62662109 40.37524414 100.28662109 C39.88024414 102.26662109 39.88024414 102.26662109 39.37524414 104.28662109 C36.62776588 105.16581414 34.696661 105.26322167 31.75024414 105.16162109 C30.63649414 105.20287109 29.52274414 105.24412109 28.37524414 105.28662109 C27.71524414 106.27662109 27.05524414 107.26662109 26.37524414 108.28662109 C25.38524414 108.28662109 24.39524414 108.28662109 23.37524414 108.28662109 C23.37524414 106.30662109 23.37524414 104.32662109 23.37524414 102.28662109 C24.63336914 102.05974609 25.89149414 101.83287109 27.18774414 101.59912109 C30.19492355 100.82462551 31.24220908 100.41965615 33.50024414 98.16162109 C34.72364373 94.14187958 33.98242006 91.05321841 32.37524414 87.28662109 C31.49639319 86.08649834 30.59974587 84.89924937 29.68774414 83.72412109 C25.71933985 77.957171 27.59065965 70.83518766 28.37524414 64.28662109 C27.26109131 64.4295459 26.14693848 64.5724707 24.99902344 64.71972656 C12.35417155 66.24783797 -0.08773507 66.52881626 -12.81225586 66.41162109 C-14.74910009 66.40155282 -16.6859495 66.39243389 -18.62280273 66.38427734 C-23.29025236 66.36261084 -27.95744385 66.32830211 -32.62475586 66.28662109 C-34.33539826 63.08342616 -35.10865275 60.96423746 -34.62475586 57.28662109 C-33.63475586 56.62662109 -32.64475586 55.96662109 -31.62475586 55.28662109 C-31.11694479 52.92567883 -31.11694479 52.92567883 -31.06225586 50.28662109 C-30.83238945 45.49425468 -30.83238945 45.49425468 -28.62475586 43.28662109 C-28.16663911 41.31426776 -28.16663911 41.31426776 -27.99975586 39.16162109 C-27.81413086 37.24349609 -27.81413086 37.24349609 -27.62475586 35.28662109 C-26.84100586 35.05974609 -26.05725586 34.83287109 -25.24975586 34.59912109 C-22.40600586 33.50537109 -22.40600586 33.50537109 -21.31225586 30.66162109 C-21.08538086 29.87787109 -20.85850586 29.09412109 -20.62475586 28.28662109 C-19.96475586 28.28662109 -19.30475586 28.28662109 -18.62475586 28.28662109 C-18.52163086 27.17287109 -18.41850586 26.05912109 -18.31225586 24.91162109 C-18.08538086 23.71537109 -17.85850586 22.51912109 -17.62475586 21.28662109 C-16.63475586 20.62662109 -15.64475586 19.96662109 -14.62475586 19.28662109 C-13.40594376 15.7298993 -13.40594376 15.7298993 -12.62475586 12.28662109 C-13.24350586 11.99787109 -13.86225586 11.70912109 -14.49975586 11.41162109 C-16.62475586 10.28662109 -16.62475586 10.28662109 -18.62475586 8.28662109 C-19.03881836 6.12255859 -19.03881836 6.12255859 -19.24975586 3.66162109 C-19.3619043 2.43572266 -19.3619043 2.43572266 -19.47631836 1.18505859 C-19.52530273 0.55857422 -19.57428711 -0.06791016 -19.62475586 -0.71337891 C-24.55758653 -3.30960558 -29.50096167 -3.09626566 -34.93725586 -3.08837891 C-35.90969238 -3.08894287 -36.88212891 -3.08950684 -37.8840332 -3.09008789 C-46.63193312 -2.95854593 -54.29394898 -1.3128412 -62.62475586 1.28662109 C-63.95527497 1.63101591 -65.287228 1.97053864 -66.62475586 2.28662109 C-49.62443682 -16.54826475 -19.62686538 -10.43346501 0 0 Z M-43.62475586 120.28662109 C-43.62475586 121.27662109 -43.62475586 122.26662109 -43.62475586 123.28662109 C-41.31475586 123.61662109 -39.00475586 123.94662109 -36.62475586 124.28662109 C-36.95475586 122.96662109 -37.28475586 121.64662109 -37.62475586 120.28662109 C-40.67388814 119.27551017 -40.67388814 119.27551017 -43.62475586 120.28662109 Z " fill="#FEFEFE" transform="translate(725.624755859375,56.71337890625)"/>
<path d="M0 0 C4.95 0 9.9 0 15 0 C18.07371702 3.24137431 19.23132358 5.08403141 21 9 C22.10882407 10.96753745 23.23580317 12.92489102 24.375 14.875 C25.06200807 16.08938578 25.74813401 17.30427084 26.43359375 18.51953125 C29.6914053 24.24566426 33.07177053 29.89939136 36.4375 35.5625 C42.46679333 45.71207797 48.46630992 55.87862359 54.4375 66.0625 C54.81220428 66.70099884 55.18690857 67.33949768 55.57296753 67.99734497 C56.63140595 69.80118887 57.68892493 71.60556806 58.74609375 73.41015625 C59.35122803 74.44277588 59.9563623 75.47539551 60.57983398 76.53930664 C61.42542645 78.00444786 62.24347301 79.48694602 63 81 C63.33 54.27 63.66 27.54 64 0 C67.96 0 71.92 0 76 0 C76 32.67 76 65.34 76 99 C70.72 99 65.44 99 60 99 C56.30914843 95.10540006 54.66798594 92.77865783 52.4375 88.125 C51.19923216 85.81900321 49.96095049 83.51301386 48.72265625 81.20703125 C48.10243119 80.00178876 47.48410947 78.79556493 46.86767578 77.58837891 C43.92583581 71.87116725 40.62183123 66.35988342 37.375 60.8125 C36.13374438 58.65590956 34.89414765 56.49836344 33.65625 54.33984375 C30.10152338 48.16170614 26.5004872 42.01184353 22.875 35.875 C22.35470215 34.99303955 21.8344043 34.1110791 21.29833984 33.20239258 C18.26821665 28.08466408 15.15464844 23.0474375 12 18 C11.67 44.73 11.34 71.46 11 99 C7.37 99 3.74 99 0 99 C0 66.33 0 33.66 0 0 Z " fill="#FEFEFE" transform="translate(520,59)"/>
<path d="M0 0 C11.76302493 8.34583333 17.68035108 19.8811495 20.5859375 33.80859375 C22.88227567 51.50772854 21.07079881 70.42721381 10 85 C1.73242186 94.12808117 -8.19554042 98.42062311 -20.32421875 99.21875 C-33.5887917 99.56896975 -44.37201354 97.21342198 -54.15625 87.9609375 C-65.14993175 76.35193774 -68.54033551 62.65176149 -68.375 47 C-68.38660156 45.90171875 -68.39820312 44.8034375 -68.41015625 43.671875 C-68.3637309 30.61087554 -64.64237188 18.16726965 -56.6875 7.625 C-42.13585512 -6.58823453 -17.87599136 -10.68564847 0 0 Z M-47.69140625 16.00390625 C-56.15319969 27.85890007 -58.64104562 42.04246706 -56.50390625 56.3125 C-54.17054956 67.4915196 -50.226914 76.86561828 -41 84 C-32.61796885 88.75625123 -24.40392064 90.33448694 -15 87.875 C-6.64437363 85.11969376 -0.31058113 79.64701964 4 72 C10.46344603 57.67560609 11.62774544 43.82899098 6.99609375 28.7265625 C3.4422382 19.41381891 -2.18978723 11.90117692 -11 7 C-24.06253564 1.72474522 -38.6503642 5.29246382 -47.69140625 16.00390625 Z " fill="#FEFEFE" transform="translate(151,62)"/>
<path d="M0 0 C6.7224401 5.58006466 10.14851555 11.04986569 11.078125 19.734375 C11.160625 21.219375 11.243125 22.704375 11.328125 24.234375 C7.698125 24.234375 4.068125 24.234375 0.328125 24.234375 C-0.22875 22.873125 -0.785625 21.511875 -1.359375 20.109375 C-3.92421737 14.40573952 -6.33027372 10.51562853 -11.984375 7.421875 C-21.06867385 4.49642283 -29.52814681 4.6625109 -38.171875 8.984375 C-41.87574326 12.31785644 -43.39240008 15.31797556 -44.109375 20.234375 C-43.40750504 25.04719759 -41.02403868 27.9983184 -37.48828125 31.23046875 C-34.26454194 33.52419727 -30.99516458 34.86987565 -27.296875 36.171875 C-26.59933105 36.42710938 -25.90178711 36.68234375 -25.18310547 36.9453125 C-21.05134763 38.44201595 -16.88981379 39.81183552 -12.69848633 41.13061523 C-2.78578514 44.27788832 6.52438196 48.15622287 12.328125 57.234375 C15.84877234 64.20257666 15.57846929 73.86375188 13.453125 81.29296875 C9.61501666 89.5878279 3.77824016 93.94795389 -4.4609375 97.47265625 C-14.71871344 101.00669567 -28.43526542 100.82232865 -38.34765625 96.49609375 C-47.20618193 91.68717981 -54.5218888 85.01591109 -57.671875 75.234375 C-58.17190479 71.89103854 -58.44046797 68.61291769 -58.671875 65.234375 C-54.711875 65.234375 -50.751875 65.234375 -46.671875 65.234375 C-46.135625 67.07 -45.599375 68.905625 -45.046875 70.796875 C-42.77188214 77.48015852 -40.58441245 82.17028044 -34.19140625 85.54296875 C-25.62872251 89.03325874 -17.48278877 89.57508519 -8.78125 86.2734375 C-3.75928356 83.79965403 -0.45828429 81.00379591 1.828125 75.859375 C2.43969154 71.42551759 2.38616376 68.60760186 1.328125 64.234375 C-5.48586665 55.41626816 -16.87372312 52.97191256 -26.98046875 49.67773438 C-33.65035809 47.44799733 -39.68577972 44.9359775 -45.671875 41.234375 C-46.579375 40.6775 -47.486875 40.120625 -48.421875 39.546875 C-53.91478338 33.90138583 -55.99915416 27.93886875 -56.234375 20.109375 C-55.99971988 14.26202311 -55.18448602 9.94721988 -51.671875 5.234375 C-51.27097656 4.68265625 -50.87007813 4.1309375 -50.45703125 3.5625 C-39.27697764 -9.52950481 -13.26517729 -8.76587739 0 0 Z " fill="#FEFEFE" transform="translate(368.671875,61.765625)"/>
<path d="M0 0 C5.28 0 10.56 0 16 0 C24.70591801 23.41695221 33.35916495 46.85302874 41.85406494 70.34747314 C42.65966865 72.57410335 43.46691998 74.80013813 44.27581787 77.02557373 C45.4087289 80.14424564 46.53534642 83.26511738 47.66015625 86.38671875 C47.99996017 87.3190181 48.3397641 88.25131744 48.68986511 89.21186829 C48.99596207 90.06580673 49.30205902 90.91974518 49.61743164 91.79956055 C49.88592422 92.54239792 50.15441681 93.28523529 50.43104553 94.05058289 C51 96 51 96 51 99 C47.04 99 43.08 99 39 99 C37.5695796 95.21204894 36.1456021 91.42174552 34.72753906 87.62915039 C34.24427735 86.33942542 33.75926331 85.05035562 33.27246094 83.76196289 C32.57286085 81.90945042 31.88008767 80.05436431 31.1875 78.19921875 C30.76855469 77.08377686 30.34960938 75.96833496 29.91796875 74.8190918 C29 72 29 72 29 69 C15.14 69 1.28 69 -13 69 C-13.99 72.63 -14.98 76.26 -16 80 C-17.19220228 83.41832731 -18.40464189 86.80493257 -19.6875 90.1875 C-20.16799805 91.47237305 -20.16799805 91.47237305 -20.65820312 92.78320312 C-21.43446517 94.85709724 -22.21659089 96.9287951 -23 99 C-27.29 99 -31.58 99 -36 99 C-33.34536944 89.55709986 -29.9184324 80.43563232 -26.5 71.25 C-25.87190148 69.5555428 -25.24413877 67.86096109 -24.61669922 66.16625977 C-23.66342204 63.59153117 -22.70995289 61.01687613 -21.75534058 58.44264221 C-19.79590472 53.15763943 -17.84791807 47.86863392 -15.9140625 42.57421875 C-15.67688004 41.9248938 -15.43969757 41.27556885 -15.19532776 40.60656738 C-14.50521578 38.71687925 -13.81510785 36.82718964 -13.125 34.9375 C-8.8509768 23.25241267 -4.47247656 11.61049788 0 0 Z M7 13 C-1.52737316 35.81980317 -1.52737316 35.81980317 -9 59 C1.89 59 12.78 59 24 59 C23.12193914 53.71999052 23.12193914 53.71999052 21.63305664 48.75463867 C21.35929703 47.97751022 21.08553741 47.20038177 20.80348206 46.39970398 C20.50868454 45.58073135 20.21388702 44.76175873 19.91015625 43.91796875 C19.60556992 43.06318436 19.30098358 42.20839996 18.98716736 41.32771301 C18.34502387 39.5307815 17.70024375 37.73479026 17.05297852 35.93969727 C16.06065814 33.18238211 15.08168382 30.42056579 14.10351562 27.65820312 C13.47736378 25.91117094 12.85043784 24.16441596 12.22265625 22.41796875 C11.78349632 21.17432808 11.78349632 21.17432808 11.33546448 19.90556335 C10.11389774 15.7041995 10.11389774 15.7041995 7 13 Z " fill="#FEFFFE" transform="translate(460,59)"/>
<path d="M0 0 C5.28 0 10.56 0 16 0 C20.88241846 11.2774293 24.97809337 22.81178683 29.125 34.375 C30.63931644 38.58510692 32.15554576 42.79452392 33.671875 47.00390625 C34.22994339 48.55439919 34.22994339 48.55439919 34.79928589 50.13621521 C36.99561376 56.23299792 39.20982007 62.32269076 41.453125 68.40234375 C41.70863129 69.09523499 41.96413757 69.78812622 42.22738647 70.50201416 C43.37668303 73.61606392 44.52989275 76.72856186 45.68798828 79.83935547 C48.02957721 86.17269705 50.13206849 92.5104444 52 99 C48.04 99 44.08 99 40 99 C37.16196594 92.76511544 34.60121806 86.49555371 32.25 80.0625 C31.93417969 79.21365234 31.61835937 78.36480469 31.29296875 77.49023438 C30.99519531 76.68005859 30.69742188 75.86988281 30.390625 75.03515625 C30.12282227 74.3069165 29.85501953 73.57867676 29.57910156 72.82836914 C29 71 29 71 29 69 C15.47 69.33 1.94 69.66 -12 70 C-15.63 79.57 -19.26 89.14 -23 99 C-27.29 99 -31.58 99 -36 99 C-30.99524189 84.39113903 -25.77920518 69.8748733 -20.38417053 55.40592957 C-16.94105923 46.16695858 -13.52673042 36.91730479 -10.1088562 27.66897583 C-8.94822772 24.52902268 -7.78678573 21.38937133 -6.62524414 18.24975586 C-5.90507707 16.301933 -5.18494217 14.35409824 -4.46484375 12.40625 C-4.12987885 11.50121231 -3.79491394 10.59617462 -3.44979858 9.66371155 C-2.98726181 8.41188332 -2.98726181 8.41188332 -2.51538086 7.13476562 C-2.11095009 6.04113708 -2.11095009 6.04113708 -1.698349 4.92541504 C-1.10620484 3.2928169 -0.54918225 1.64754674 0 0 Z M8 13 C4.31115358 20.82536837 1.43546166 28.88745843 -1.42871094 37.04052734 C-2.25617143 39.39254198 -3.09260884 41.74123741 -3.9296875 44.08984375 C-4.45887356 45.588351 -4.98753855 47.08704239 -5.515625 48.5859375 C-5.76556213 49.28592865 -6.01549927 49.9859198 -6.27301025 50.7071228 C-7.2856949 53.6089349 -8 55.90176153 -8 59 C2.89 59 13.78 59 25 59 C19.90723531 43.56500549 14.75750919 28.19908375 9 13 C8.67 13 8.34 13 8 13 Z " fill="#FFFFFF" transform="translate(636,59)"/>
<path d="M0 0 C3.96 0 7.92 0 12 0 C11.99880661 1.35730728 11.99880661 1.35730728 11.99758911 2.74203491 C11.99537378 11.30400301 12.02197373 19.86530578 12.0802784 28.42708397 C12.10924957 32.82799686 12.12739752 37.22838046 12.12011719 41.62939453 C12.11349004 45.88326888 12.13619904 50.13610047 12.17855453 54.38975906 C12.18962597 56.00586862 12.19044011 57.6220847 12.18042374 59.23820114 C12.12080957 70.27938789 13.36315451 78.21481647 21.375 86.4375 C28.72303471 90.81133019 35.35158525 92.26671078 43.76953125 90.37890625 C50.52929962 88.29826619 55.50530973 85.28664391 59 79 C62.51730819 70.52989672 62.47407348 61.94299416 62.51171875 52.9296875 C62.528596 51.39696849 62.54675026 49.86426307 62.56611633 48.33157349 C62.61329243 44.33028409 62.64330992 40.32904979 62.66955566 36.32757568 C62.69952622 32.23129399 62.74599914 28.13520158 62.79101562 24.0390625 C62.87667937 16.0261354 62.94418716 8.01319041 63 0 C66.63 0 70.26 0 74 0 C74.06971764 9.49292813 74.12292128 18.98576721 74.15543652 28.47889614 C74.17104751 32.88763453 74.19220165 37.29619688 74.22631836 41.70483398 C74.25907562 45.96478553 74.27688731 50.22456846 74.28463173 54.48463631 C74.29014601 56.10442824 74.30091365 57.72421166 74.31719017 59.3439312 C74.44179763 72.26575912 73.43179317 82.28454388 64 92 C54.36303575 100.343412 45.21858695 102.59428036 32.6171875 102.27734375 C21.89700255 101.45538572 14.40963524 97.02971509 7.1875 89.125 C2.01738714 81.73912449 -0.12896692 74.80081444 -0.11352539 65.84472656 C-0.11374443 64.77583443 -0.11374443 64.77583443 -0.1139679 63.68534851 C-0.11327291 61.33707605 -0.10549994 58.98888355 -0.09765625 56.640625 C-0.0957906 55.00966434 -0.09436739 53.37870312 -0.09336853 51.7477417 C-0.08955494 47.46025031 -0.07973454 43.17279292 -0.06866455 38.88531494 C-0.05842553 34.50818339 -0.05386557 30.13104633 -0.04882812 25.75390625 C-0.03811123 17.16925525 -0.02104872 8.58463186 0 0 Z " fill="#FEFEFE" transform="translate(186,59)"/>
<path d="M0 0 C3.63 0 7.26 0 11 0 C11 29.37 11 58.74 11 89 C27.5 89 44 89 61 89 C61 92.3 61 95.6 61 99 C40.87 99 20.74 99 0 99 C0 66.33 0 33.66 0 0 Z " fill="#FFFFFF" transform="translate(8,59)"/>
<path d="M0 0 C3.96 0 7.92 0 12 0 C12 32.67 12 65.34 12 99 C8.04 99 4.08 99 0 99 C0 66.33 0 33.66 0 0 Z " fill="#FEFEFE" transform="translate(402,59)"/>
<path d="M0 0 C3.96 0 7.92 0 12 0 C12 32.67 12 65.34 12 99 C8.04 99 4.08 99 0 99 C0 66.33 0 33.66 0 0 Z " fill="#FFFFFF" transform="translate(279,59)"/>
<path d="M0 0 C0.96550781 0.00902344 1.93101562 0.01804687 2.92578125 0.02734375 C5.28412099 0.05069365 7.64192286 0.08343953 10 0.125 C10.495 1.115 10.495 1.115 11 2.125 C6.00334962 15.85492627 -3.17672753 25.0419274 -16.1875 31.15234375 C-24.65757423 34.34332657 -34.10268323 33.3716402 -43 33.125 C-41.99650237 23.15340246 -38.67815014 15.81437725 -31.23828125 8.87890625 C-21.80114967 1.48401606 -11.65116028 -0.20891736 0 0 Z " fill="#FEFEFE" transform="translate(787,12.875)"/>
<path d="M0 0 C4.52574149 1.88572562 6.03744092 4.8709091 8 9.25 C12.27931901 21.66180078 15.15110882 38.68760195 10 51.25 C7.05314405 53.21457063 5.5157904 53.25 2 53.25 C1.96559814 52.66210693 1.93119629 52.07421387 1.89575195 51.46850586 C1.03375001 37.76334319 -0.33929561 25.4372878 -6.62890625 13.0390625 C-8.24737611 9.74679047 -8.62921122 7.86796452 -8 4.25 C-5.4096423 1.27870735 -3.94084621 0.32840385 0 0 Z " fill="#FEFEFE" transform="translate(729,2.75)"/>
<path d="M0 0 C1.65 0 3.3 0 5 0 C5 3.96 5 7.92 5 12 C9.29 12 13.58 12 18 12 C18 8.04 18 4.08 18 0 C19.65 0 21.3 0 23 0 C23 9.9 23 19.8 23 30 C21.35 30 19.7 30 18 30 C18 25.71 18 21.42 18 17 C13.71 17 9.42 17 5 17 C5 21.29 5 25.58 5 30 C3.35 30 1.7 30 0 30 C0 20.1 0 10.2 0 0 Z " fill="#FEFEFE" transform="translate(174,173)"/>
<path d="M0 0 C0.66 0.33 1.32 0.66 2 1 C3.66619446 1.0396713 5.33391013 1.04384447 7 1 C6.94816332 5.0843728 6.8530929 9.16662471 6.75 13.25 C6.72873047 14.98830078 6.72873047 14.98830078 6.70703125 16.76171875 C6.67480469 17.87675781 6.64257812 18.99179688 6.609375 20.140625 C6.5779541 21.68024902 6.5779541 21.68024902 6.54589844 23.25097656 C5.86889189 26.66023136 4.66185054 27.83639008 2 30 C-0.3396669 31.16983345 -1.83391527 31.1661241 -4.4375 31.1875 C-5.61119141 31.20876953 -5.61119141 31.20876953 -6.80859375 31.23046875 C-9 31 -9 31 -12 29 C-11.67 28.01 -11.34 27.02 -11 26 C-7.7 26 -4.4 26 -1 26 C-0.67 24.68 -0.34 23.36 0 22 C-1.216875 22.103125 -2.43375 22.20625 -3.6875 22.3125 C-6.97843689 22.27158249 -8.02888905 21.98314805 -11 20.25 C-14.04119007 15.30806613 -14.0912658 10.64340315 -13 5 C-10.04806616 -0.03076048 -5.4833395 -0.63269302 0 0 Z M-6.6875 5.125 C-8.54906972 7.78438531 -8.87067304 9.76682611 -9 13 C-8.04331967 15.92902303 -8.04331967 15.92902303 -6 18 C-3.5 18.75 -3.5 18.75 -1 18 C1.50907308 15.75048621 1.95656309 14.34749528 2.375 11 C1.95954192 7.67633535 1.44659771 6.27184073 -1 4 C-4.78332024 3.63019987 -4.78332024 3.63019987 -6.6875 5.125 Z " fill="#FEFEFE" transform="translate(288,181)"/>
<path d="M0 0 C1.98 0 3.96 0 6 0 C7.51009763 4.24648022 9.00631943 8.49772018 10.5 12.75 C10.92925781 13.9565625 11.35851562 15.163125 11.80078125 16.40625 C12.40986328 18.14648438 12.40986328 18.14648438 13.03125 19.921875 C13.40830078 20.99018555 13.78535156 22.05849609 14.17382812 23.15917969 C15 26 15 26 15 30 C13.35 30 11.7 30 10 30 C8.50178941 26.62902617 8 24.79557881 8 21 C4.7 21 1.4 21 -2 21 C-2.99 23.97 -3.98 26.94 -5 30 C-6.65 30 -8.3 30 -10 30 C-6.7 20.1 -3.4 10.2 0 0 Z M2 7 C1.01 10.3 0.02 13.6 -1 17 C1.31 17 3.62 17 6 17 C5.01 13.7 4.02 10.4 3 7 C2.67 7 2.34 7 2 7 Z " fill="#FEFEFE" transform="translate(51,173)"/>
<path d="M0 0 C-0.33 1.32 -0.66 2.64 -1 4 C-1.66386719 3.96519531 -2.32773437 3.93039063 -3.01171875 3.89453125 C-10.02969553 3.60626616 -10.02969553 3.60626616 -16 7 C-17.36146716 11.08440148 -17.62011425 14.73391282 -17 19 C-15.37768449 22.28944376 -15.37768449 22.28944376 -12 24 C-8.29370744 24.3956155 -4.71102824 24.29246282 -1 24 C-0.4375 25.9375 -0.4375 25.9375 0 28 C-1.91779602 29.91779602 -5.06550462 29.34859121 -7.625 29.4375 C-12.42845143 29.41791406 -15.58325841 29.34601908 -19.3125 26.1875 C-22.71876895 22.71259087 -23.17114136 19.43873308 -23.25 14.6875 C-23.18243058 10.03135254 -22.88880592 6.82067879 -20 3 C-14.53599333 -1.32567194 -6.57605505 -3.28802753 0 0 Z " fill="#FEFEFE" transform="translate(401,174)"/>
<path d="M0 0 C2.8100346 1.79363911 4.50940468 3.01880935 6 6 C6.59726998 10.74403015 6.91686361 15.50632135 4.1875 19.625 C0.16607066 22.62135912 -2.46394881 22.87364683 -7.39453125 22.57421875 C-10.07671116 21.98309364 -11.2872114 21.50634823 -13.1875 19.5625 C-15.44440646 15.12651144 -15.82800686 11.87804041 -15 7 C-13.7671112 4.10271132 -12.7754988 2.60316573 -10.3125 0.6875 C-6.84767407 -0.34258338 -3.54883321 -0.5914722 0 0 Z M-8.8125 5.625 C-10.36249345 8.72498689 -10.49023888 10.56832782 -10 14 C-8.12230858 16.84920053 -8.12230858 16.84920053 -6 19 C-3.56282742 18.72965366 -3.56282742 18.72965366 -1 18 C1.53637054 14.19544419 1.59473663 11.46052469 1 7 C-0.02421261 4.89061215 -0.02421261 4.89061215 -2 4 C-5.16305868 3.44646473 -6.39311923 3.4559 -8.8125 5.625 Z " fill="#FEFEFE" transform="translate(567,181)"/>
<path d="M0 0 C5.53846154 3.07692308 5.53846154 3.07692308 7 6 C7.59726998 10.74403015 7.91686361 15.50632135 5.1875 19.625 C1.16607066 22.62135912 -1.46394881 22.87364683 -6.39453125 22.57421875 C-9.07671116 21.98309364 -10.2872114 21.50634823 -12.1875 19.5625 C-14.44440646 15.12651144 -14.82800686 11.87804041 -14 7 C-12.7530291 4.06961838 -11.77654345 2.58240759 -9.25 0.6875 C-5.96856187 -0.31516165 -3.41780831 -0.35356638 0 0 Z M-7.8125 5.5625 C-9.45959365 8.94337643 -9.46433455 11.28532359 -9 15 C-7.47722993 17.60720318 -7.47722993 17.60720318 -5 19 C-2.3566226 19.08805146 -2.3566226 19.08805146 0 18 C2.47342266 14.28986601 2.38503486 12.38939738 2 8 C0.98009206 5.49901018 0.98009206 5.49901018 -1 4 C-4.13879451 3.3722411 -5.36936846 3.45635212 -7.8125 5.5625 Z " fill="#FEFEFE" transform="translate(425,181)"/>
<path d="M0 0 C2.74248928 2.0053462 4.71306251 3.55722979 5.39868164 7.00463867 C5.49180295 9.29359599 5.43711985 11.52524644 5.3125 13.8125 C5.28994141 14.60076172 5.26738281 15.38902344 5.24414062 16.20117188 C5.18554161 18.13493929 5.09586827 20.06772167 5 22 C2.54101345 22.08076963 0.08466258 22.14037143 -2.375 22.1875 C-3.07367188 22.21263672 -3.77234375 22.23777344 -4.4921875 22.26367188 C-6.5234375 22.29296875 -6.5234375 22.29296875 -10 22 C-12.32749345 18.50875983 -12.50299316 17.10777749 -12 13 C-10.29781752 10.37580202 -9.02875145 9.23362867 -5.953125 8.53515625 C-3.9772303 8.27941101 -1.98796405 8.13253094 0 8 C-0.33 7.01 -0.66 6.02 -1 5 C-3.97 5 -6.94 5 -10 5 C-10.33 4.01 -10.66 3.02 -11 2 C-7.33755697 -0.34396354 -4.27605847 -0.52512999 0 0 Z M-7 14 C-7 15.32 -7 16.64 -7 18 C-5.15274948 18.69159401 -5.15274948 18.69159401 -3 19 C-2.01 18.34 -1.02 17.68 0 17 C0.25030977 14.41619823 0.25030977 14.41619823 0 12 C-3.95457848 11.65176193 -3.95457848 11.65176193 -7 14 Z " fill="#FEFEFE" transform="translate(455,181)"/>
<path d="M0 0 C3.1359157 1.77984405 3.84102736 2.52308207 5 6 C5.07051114 8.73865287 5.09357765 11.45027588 5.0625 14.1875 C5.05798828 14.93708984 5.05347656 15.68667969 5.04882812 16.45898438 C5.03706354 18.30602383 5.01912865 20.15302213 5 22 C3.35 22 1.7 22 0 22 C-0.06058594 20.94039062 -0.12117188 19.88078125 -0.18359375 18.7890625 C-0.26800127 17.40102779 -0.35264917 16.01300768 -0.4375 14.625 C-0.47681641 13.92632812 -0.51613281 13.22765625 -0.55664062 12.5078125 C-0.74280134 8.62639508 -0.74280134 8.62639508 -2 5 C-4.47266765 5.34444881 -4.47266765 5.34444881 -7 6 C-8.4807848 8.9615696 -8.35314037 11.83506295 -8.5625 15.125 C-8.64628906 16.40632813 -8.73007813 17.68765625 -8.81640625 19.0078125 C-8.90728516 20.48894531 -8.90728516 20.48894531 -9 22 C-10.65 22 -12.3 22 -14 22 C-14 15.07 -14 8.14 -14 1 C-12.02 1 -10.04 1 -8 1 C-5.19084526 -0.40457737 -3.11189466 -0.24895157 0 0 Z " fill="#FEFEFE" transform="translate(92,181)"/>
<path d="M0 0 C3.1359157 1.77984405 3.84102736 2.52308207 5 6 C5.07051114 8.73865287 5.09357765 11.45027588 5.0625 14.1875 C5.05798828 14.93708984 5.05347656 15.68667969 5.04882812 16.45898438 C5.03706354 18.30602383 5.01912865 20.15302213 5 22 C3.35 22 1.7 22 0 22 C-0.33 16.39 -0.66 10.78 -1 5 C-2.65 5 -4.3 5 -6 5 C-8.84614024 7.84614024 -8.45579076 10.80369142 -8.625 14.625 C-8.66367188 15.33140625 -8.70234375 16.0378125 -8.7421875 16.765625 C-8.83647724 18.50998524 -8.91932891 20.25495691 -9 22 C-10.65 22 -12.3 22 -14 22 C-14 15.07 -14 8.14 -14 1 C-12.02 1 -10.04 1 -8 1 C-5.19084526 -0.40457737 -3.11189466 -0.24895157 0 0 Z " fill="#FEFEFE" transform="translate(257,181)"/>
<path d="M0 0 C2.36497439 1.86708505 3.66030715 3.32061431 5 6 C5 7.98 5 9.96 5 12 C0.38 12 -4.24 12 -9 12 C-8.34 13.65 -7.68 15.3 -7 17 C-5.9275 17.144375 -4.855 17.28875 -3.75 17.4375 C-1.08337051 17.83749442 1.41399729 18.27591924 4 19 C4 19.99 4 20.98 4 22 C-7.32236674 22.8951798 -7.32236674 22.8951798 -10.9765625 20.9453125 C-13.44206398 18.2779571 -14.3036198 15.52130005 -14.5 12 C-14.23337406 8.13392387 -13.16788336 5.25182504 -11 2 C-7.65878883 -0.62523735 -4.11076177 -0.44043876 0 0 Z M-7 4 C-7.66 5.65 -8.32 7.3 -9 9 C-6.03 9 -3.06 9 0 9 C-0.57125354 5.25724788 -0.57125354 5.25724788 -2 4 C-3.66617115 3.95936168 -5.33388095 3.957279 -7 4 Z " fill="#FEFEFE" transform="translate(321,181)"/>
<path d="M0 0 C2.70141264 3.82165287 2.24366446 7.25300708 2.05859375 11.80859375 C2.04054688 12.6490625 2.0225 13.48953125 2.00390625 14.35546875 C1.95690173 16.4236677 1.88516099 18.49127816 1.80859375 20.55859375 C0.15859375 20.55859375 -1.49140625 20.55859375 -3.19140625 20.55859375 C-3.52140625 15.27859375 -3.85140625 9.99859375 -4.19140625 4.55859375 C-7.91562914 3.13455695 -7.91562914 3.13455695 -9.8984375 4.546875 C-11.8219034 7.53957875 -11.71737698 10.22475566 -11.87890625 13.74609375 C-11.94464844 15.01839844 -12.01039063 16.29070312 -12.078125 17.6015625 C-12.11550781 18.57738281 -12.15289063 19.55320313 -12.19140625 20.55859375 C-13.51140625 20.55859375 -14.83140625 20.55859375 -16.19140625 20.55859375 C-16.19140625 13.62859375 -16.19140625 6.69859375 -16.19140625 -0.44140625 C-3.44045205 -2.26297114 -3.44045205 -2.26297114 0 0 Z " fill="#FEFEFE" transform="translate(602.19140625,182.44140625)"/>
<path d="M0 0 C1.32 0 2.64 0 4 0 C4.66 5.28 5.32 10.56 6 16 C7.65 16 9.3 16 11 16 C12.99616554 14.00383446 12.40983427 10.18298037 12.5625 7.4375 C12.60568359 6.72658203 12.64886719 6.01566406 12.69335938 5.28320312 C12.79971777 3.52238088 12.90038846 1.7612168 13 0 C14.65 0 16.3 0 18 0 C18 6.93 18 13.86 18 21 C16.35 20.67 14.7 20.34 13 20 C12.67 20.33 12.34 20.66 12 21 C10.0390625 21.23828125 10.0390625 21.23828125 7.625 21.3125 C6.43777344 21.36857422 6.43777344 21.36857422 5.2265625 21.42578125 C3 21 3 21 1.22265625 19.52734375 C-0.58874277 15.78301415 -0.32002504 12.34808211 -0.1875 8.25 C-0.17396484 7.45722656 -0.16042969 6.66445312 -0.14648438 5.84765625 C-0.11125223 3.89814436 -0.05744821 1.94898374 0 0 Z " fill="#FEFEFE" transform="translate(211,182)"/>
<path d="M0 0 C1.32 0 2.64 0 4 0 C4 1.65 4 3.3 4 5 C5.65 5 7.3 5 9 5 C9 6.32 9 7.64 9 9 C7.35 9 5.7 9 4 9 C4.33 13.29 4.66 17.58 5 22 C6.32 22.33 7.64 22.66 9 23 C9 24.32 9 25.64 9 27 C6.36 27 3.72 27 1 27 C-0.95031692 22.92276266 -1.21581971 19.68307578 -1.125 15.1875 C-1.10695313 14.02605469 -1.08890625 12.86460937 -1.0703125 11.66796875 C-1.04710938 10.78753906 -1.02390625 9.90710938 -1 9 C-1.99 9 -2.98 9 -4 9 C-4 7.68 -4 6.36 -4 5 C-3.01 5 -2.02 5 -1 5 C-0.67 3.35 -0.34 1.7 0 0 Z " fill="#FEFEFE" transform="translate(112,176)"/>
<path d="M0 0 C1.32 0 2.64 0 4 0 C4 1.65 4 3.3 4 5 C5.98 5 7.96 5 10 5 C10 6.32 10 7.64 10 9 C8.02 9 6.04 9 4 9 C4.33 13.29 4.66 17.58 5 22 C6.32 22.33 7.64 22.66 9 23 C9 24.32 9 25.64 9 27 C5.625 27.125 5.625 27.125 2 27 C0 25 0 25 -0.1953125 21.3046875 C-0.182009 19.82799892 -0.15814835 18.35137642 -0.125 16.875 C-0.11597656 16.12089844 -0.10695313 15.36679688 -0.09765625 14.58984375 C-0.0740687 12.72642746 -0.03819719 10.86317407 0 9 C-1.32 9 -2.64 9 -4 9 C-4 7.68 -4 6.36 -4 5 C-2.68 5 -1.36 5 0 5 C0 3.35 0 1.7 0 0 Z " fill="#FEFEFE" transform="translate(513,176)"/>
<path d="M0 0 C1.65 0 3.3 0 5 0 C5 10.23 5 20.46 5 31 C3.35 31 1.7 31 0 31 C0 20.77 0 10.54 0 0 Z " fill="#FFFFFF" transform="translate(474,172)"/>
<path d="M0 0 C1.2065625 0.0309375 1.2065625 0.0309375 2.4375 0.0625 C2.4375 1.7125 2.4375 3.3625 2.4375 5.0625 C0.7875 5.0625 -0.8625 5.0625 -2.5625 5.0625 C-3.61132391 8.62321312 -3.86636953 12.11777897 -4.125 15.8125 C-4.20878906 16.98296875 -4.29257812 18.1534375 -4.37890625 19.359375 C-4.43949219 20.25140625 -4.50007813 21.1434375 -4.5625 22.0625 C-5.8825 22.0625 -7.2025 22.0625 -8.5625 22.0625 C-8.8925 15.1325 -9.2225 8.2025 -9.5625 1.0625 C-7.5825 1.0625 -5.6025 1.0625 -3.5625 1.0625 C-2.5625 0.0625 -2.5625 0.0625 0 0 Z " fill="#FEFEFE" transform="translate(347.5625,180.9375)"/>
<path d="M0 0 C1.65 0 3.3 0 5 0 C5 6.93 5 13.86 5 21 C3.35 21 1.7 21 0 21 C0 14.07 0 7.14 0 0 Z " fill="#FFFFFF" transform="translate(493,182)"/>
<path d="M0 0 C1.32 0 2.64 0 4 0 C4 6.93 4 13.86 4 21 C2.68 21 1.36 21 0 21 C0 14.07 0 7.14 0 0 Z " fill="#FFFFFF" transform="translate(535,182)"/>
<path d="M0 0 C1.32 0 2.64 0 4 0 C4 6.93 4 13.86 4 21 C2.68 21 1.36 21 0 21 C0 14.07 0 7.14 0 0 Z " fill="#FFFFFF" transform="translate(134,182)"/>
<path d="M0 0 C3.96 0 7.92 0 12 0 C12 1.32 12 2.64 12 4 C8.04 4 4.08 4 0 4 C0 2.68 0 1.36 0 0 Z " fill="#FEFEFE" transform="translate(150,189)"/>
<path d="M0 0 C1.65 0.33 3.3 0.66 5 1 C4.67 2.65 4.34 4.3 4 6 C2.35 5.67 0.7 5.34 -1 5 C-0.67 3.35 -0.34 1.7 0 0 Z " fill="#FEFEFE" transform="translate(535,173)"/>
<path d="M0 0 C2.0625 0.4375 2.0625 0.4375 4 1 C3.67 2.65 3.34 4.3 3 6 C1.35 5.67 -0.3 5.34 -2 5 C-1.125 1.125 -1.125 1.125 0 0 Z " fill="#FEFEFE" transform="translate(494,173)"/>
<path d="M0 0 C1.9375 0.3125 1.9375 0.3125 4 1 C4.33 1.99 4.66 2.98 5 4 C4.67 4.66 4.34 5.32 4 6 C2.35 5.67 0.7 5.34 -1 5 C-0.67 3.35 -0.34 1.7 0 0 Z " fill="#FEFEFE" transform="translate(134,173)"/>
</svg>
