<?xml version="1.0" encoding="UTF-8"?>
<svg version="1.1" xmlns="http://www.w3.org/2000/svg" width="570" height="101">
<path d="M0 0 C14.85 0 29.7 0 45 0 C45 8.58 45 17.16 45 26 C58.365 26.495 58.365 26.495 72 27 C72 41.85 72 56.7 72 72 C58.635 72.495 58.635 72.495 45 73 C45 81.58 45 90.16 45 99 C30.15 99 15.3 99 0 99 C0 90.09 0 81.18 0 72 C-8.91 72 -17.82 72 -27 72 C-27 57.15 -27 42.3 -27 27 C-18.09 27 -9.18 27 0 27 C0 18.09 0 9.18 0 0 Z M1 33 C-0.18938922 35.60211243 -0.18938922 35.60211243 -1 38 C2.12498063 38.02895976 5.2499269 38.04678483 8.375 38.0625 C9.26445313 38.07087891 10.15390625 38.07925781 11.0703125 38.08789062 C11.92109375 38.09111328 12.771875 38.09433594 13.6484375 38.09765625 C14.82672119 38.10551147 14.82672119 38.10551147 16.02880859 38.11352539 C18.07772668 38.12573953 18.07772668 38.12573953 20 37 C20.07095984 34.4454459 20.05950561 32.23802245 19.4375 29.75 C19.293125 29.1725 19.14875 28.595 19 28 C20 27 20 27 22.5625 26.9375 C23.7690625 26.9684375 23.7690625 26.9684375 25 27 C25.07115235 29.56148445 25.0822487 31.71212955 24.375 34.1875 C24.25125 34.785625 24.1275 35.38375 24 36 C25.77601843 38.19302257 25.77601843 38.19302257 28.06298828 38.22705078 C28.89040527 38.21657715 29.71782227 38.20610352 30.5703125 38.1953125 C31.46621094 38.18886719 32.36210938 38.18242188 33.28515625 38.17578125 C34.22230469 38.15902344 35.15945312 38.14226563 36.125 38.125 C37.54232422 38.11146484 37.54232422 38.11146484 38.98828125 38.09765625 C41.32577292 38.07404522 43.66276123 38.04111516 46 38 C42.00722135 30.40200361 37.51600899 26.74302101 29.4375 23.625 C18.72875312 21.67795511 8.20165235 24.30482316 1 33 Z M-3 41 C-5.07924773 48.387246 -4.63086031 55.0717317 -1.22265625 61.94921875 C0.56837504 64.95334471 2.62896221 67.43137573 5 70 C8.29472298 65.76837761 10.7300533 61.21956119 13.25 56.5 C13.72179687 55.64535156 14.19359375 54.79070313 14.6796875 53.91015625 C15.12054688 53.08386719 15.56140625 52.25757813 16.015625 51.40625 C16.42071289 50.65666016 16.82580078 49.90707031 17.24316406 49.13476562 C18.13360354 46.62315181 17.94435937 45.45828969 17 43 C14.26070623 40.26070623 7.03469635 41.0242744 3.3359375 40.9375 C1.22385558 40.9375 -0.88819275 40.96593859 -3 41 Z M27 43 C27.41679976 49.53577504 29.92516437 54.26267695 33.0625 59.9375 C33.53494141 60.81212891 34.00738281 61.68675781 34.49414062 62.58789062 C35.65332746 64.73062992 36.82203317 66.86754529 38 69 C38.99 69 39.98 69 41 69 C46.09963221 63.39429742 49.14235055 56.89685899 48.921875 49.3125 C48.85754855 44.80496584 48.85754855 44.80496584 47 41 C36.72186935 40.47013204 36.72186935 40.47013204 27 43 Z M21 52 C19.39438174 54.39487151 17.79046593 56.79085413 16.1875 59.1875 C15.73568359 59.86103516 15.28386719 60.53457031 14.81835938 61.22851562 C12.45229248 64.76898069 10.14973234 68.32188654 8 72 C15.00834731 75.66345428 21.47212525 77.42834348 29.328125 75.3984375 C33.40714508 74.1309746 33.40714508 74.1309746 36 71 C34.07568585 68.01212005 32.13340929 65.03635215 30.1875 62.0625 C29.36668945 60.78729492 29.36668945 60.78729492 28.52929688 59.48632812 C27.73168945 58.27299805 27.73168945 58.27299805 26.91796875 57.03515625 C26.43094482 56.2862915 25.9439209 55.53742676 25.44213867 54.76586914 C24.0271111 52.7119497 24.0271111 52.7119497 21 52 Z " fill="#FFFFFF" transform="translate(27,1)"/>
<path d="M0 0 C1.051875 0.19916016 1.051875 0.19916016 2.125 0.40234375 C3.07375 0.57894531 4.0225 0.75554688 5 0.9375 C5.928125 1.11152344 6.85625 1.28554688 7.8125 1.46484375 C22.08285296 3.86072409 35.44313578 3.51846345 49.5859375 0.65625 C53 0 53 0 56 0 C60.43157804 19.66741658 56.19825376 38.82947071 46 56 C41.23798946 63.00695837 35.50358348 68.61045628 29 74 C18.75257867 70.69497582 10.61121586 59.12108468 5.88769531 49.92480469 C0.82652675 38.9505877 -2.17682257 27.63867238 -2.1875 15.5625 C-2.19974609 14.83740234 -2.21199219 14.11230469 -2.22460938 13.36523438 C-2.23762586 8.53611817 -1.52787035 4.58361106 0 0 Z M26 9 C26 9.66 26 10.32 26 11 C26.66 11 27.32 11 28 11 C28.66 12.65 29.32 14.3 30 16 C29 17 29 17 26 19 C26 19.66 26 20.32 26 21 C28.70200421 21.58939897 28.70200421 21.58939897 32 21 C34.6203019 18.91317274 36.8158151 16.53313752 39 14 C38.67 13.34 38.34 12.68 38 12 C37.401875 12.309375 36.80375 12.61875 36.1875 12.9375 C34 14 34 14 31 15 C31 13.35 31 11.7 31 10 C29.35 9.67 27.7 9.34 26 9 Z M15 13 C13.57337781 15.85324437 13.68966132 17.83454549 14 21 C16.20605578 24.71605325 17.49631083 25.84299901 21.671875 27.14453125 C23.0276685 27.38804756 24.38743146 27.6103041 25.75 27.8125 C26.44738281 27.93302734 27.14476562 28.05355469 27.86328125 28.17773438 C29.57244369 28.47039918 31.28590438 28.73776895 33 29 C32.67 31.31 32.34 33.62 32 36 C35.24983135 34.91215032 35.24983135 34.91215032 38 33 C38.42767799 28.99350682 38.42767799 28.99350682 36.92578125 25.40625 C34.1127431 23.35210449 31.34008825 23.01540441 27.9375 22.375 C21.14070352 21.07035176 21.14070352 21.07035176 19 20 C18.375 17.9375 18.375 17.9375 18 16 C20.97 16.495 20.97 16.495 24 17 C23.34 16.67 22.68 16.34 22 16 C22.33 15.01 22.66 14.02 23 13 C22.67 12.34 22.34 11.68 22 11 C18.87099787 11 17.62581138 11.42451317 15 13 Z M25 30 C25.33 32.31 25.66 34.62 26 37 C27.32 37 28.64 37 30 37 C30 34.69 30 32.38 30 30 C28.35 30 26.7 30 25 30 Z M22 34 C20.73527935 35.05429686 20.73527935 35.05429686 20.75 37.4375 C20.8325 38.283125 20.915 39.12875 21 40 C24.03525486 42.02350324 25.19426202 42.32124018 28.6875 42.625 C29.49574219 42.69976562 30.30398437 42.77453125 31.13671875 42.8515625 C31.75160156 42.90054688 32.36648437 42.94953125 33 43 C32.67 44.98 32.34 46.96 32 49 C33.32 48.34 34.64 47.68 36 47 C36.16687448 44.58354218 36.16687448 44.58354218 36 42 C33.50494038 39.50494038 32.32671112 39.64051624 28.875 39.375 C27.96492188 39.30023438 27.05484375 39.22546875 26.1171875 39.1484375 C25.41851562 39.09945312 24.71984375 39.05046875 24 39 C24 37.35 24 35.7 24 34 C23.34 34 22.68 34 22 34 Z M27 45 C27.33 46.65 27.66 48.3 28 50 C28.66 50 29.32 50 30 50 C30 48.35 30 46.7 30 45 C29.01 45 28.02 45 27 45 Z M24 47 C23.67 48.65 23.34 50.3 23 52 C25.97180943 53.89865603 28.51460083 55.35455571 32 56 C32.33 57.32 32.66 58.64 33 60 C33.33 58.35 33.66 56.7 34 55 C32.329375 54.01 32.329375 54.01 30.625 53 C29.99851563 52.62875 29.37203125 52.2575 28.7265625 51.875 C27.02527333 50.84931652 27.02527333 50.84931652 25 51 C24.67 49.68 24.34 48.36 24 47 Z M28 57 C28 60.63 28 64.26 28 68 C30.18331689 66.23863645 30.18331689 66.23863645 30.1953125 64.0546875 C30.17210937 63.33539063 30.14890625 62.61609375 30.125 61.875 C30.063125 59.956875 30.063125 59.956875 30 58 C29.34 57.67 28.68 57.34 28 57 Z M25 61 C26 63 26 63 26 63 Z " fill="#FFFFFF" transform="translate(124,15)"/>
<path d="M0 0 C3.15256545 0.70951009 6.05453788 1.76355308 9.0625 2.9375 C27.29506511 9.54350185 47.31338894 8.71147084 65.01171875 0.76953125 C67 0 67 0 70 0 C70.64964023 1.89453221 71.29455115 3.79068649 71.9375 5.6875 C72.47697266 7.27111328 72.47697266 7.27111328 73.02734375 8.88671875 C77.83665921 24.28039113 76.23202128 42.92148621 71 58 C70.63777344 59.06089844 70.27554688 60.12179688 69.90234375 61.21484375 C63.69417481 77.56652941 51.67561074 92.83693095 36 101 C27.66863048 100.67479784 18.95334323 90.54425801 13.60546875 85.0078125 C-1.37267382 67.71670339 -7.4970157 44.90161451 -6.22900391 22.36328125 C-5.49476266 14.78603682 -3.71382334 6.67484464 0 0 Z M5 12 C-1.34922636 29.35455206 2.95869477 47.54482197 10 64 C11.75525227 67.54292345 13.72050391 70.7731063 16 74 C16.78310547 75.14855469 16.78310547 75.14855469 17.58203125 76.3203125 C21.73385111 82.0570191 26.74039365 87.55822288 33 91 C39.00604087 91.00959431 42.88591926 86.21437402 46.9296875 82.28125 C60.22085244 68.55282141 67.38494687 48.87511213 67.3125 29.9375 C67.32861328 29.09123047 67.34472656 28.24496094 67.36132812 27.37304688 C67.36579561 21.57872501 66.32629922 17.30936366 64 12 C63.38713135 12.13317627 62.7742627 12.26635254 62.14282227 12.40356445 C45.02772619 16.06228808 28.37849047 17.68106055 11.3828125 12.62109375 C8.76529285 11.83184789 8.76529285 11.83184789 5 12 Z " fill="#FFFFFF" transform="translate(117,0)"/>
<path d="M0 0 C2.97 0 5.94 0 9 0 C9.01213028 0.98932022 9.01213028 0.98932022 9.02450562 1.99862671 C9.11035572 8.84401207 9.20985003 15.68910129 9.31738281 22.53417969 C9.3557398 25.09109537 9.39058062 27.64806625 9.421875 30.20507812 C9.46737976 33.87389909 9.5253981 37.54233773 9.5859375 41.2109375 C9.59748871 42.35992523 9.60903992 43.50891296 9.62094116 44.69271851 C9.64081085 45.7536673 9.66068054 46.81461609 9.68115234 47.90771484 C9.69447601 48.84481293 9.70779968 49.78191101 9.7215271 50.74740601 C9.79034466 53.20035151 9.79034466 53.20035151 12 55 C16.57742958 54.74569836 19.68392088 54.23453482 23 51 C23.61521594 48.65246128 23.61521594 48.65246128 23.54589844 45.9777832 C23.57547638 44.44653557 23.57547638 44.44653557 23.60565186 42.88435364 C23.60749481 41.23423531 23.60749481 41.23423531 23.609375 39.55078125 C23.62591125 38.4230278 23.64244751 37.29527435 23.65948486 36.13334656 C23.70812458 32.5263432 23.729372 28.9197619 23.75 25.3125 C23.77814619 22.86911921 23.8080717 20.42575821 23.83984375 17.98242188 C23.91388781 11.98835829 23.96543658 5.99441418 24 0 C26.97 0 29.94 0 33 0 C33 20.13 33 40.26 33 61 C30.03 61 27.06 61 24 61 C23.67 60.01 23.34 59.02 23 58 C22.0409375 58.9590625 22.0409375 58.9590625 21.0625 59.9375 C17.08432711 62.61667766 13.77552745 63.34532033 9 63 C3.94487649 60.65966504 1.93219896 58.14904725 0 53 C-0.40553565 48.93658174 -0.34895747 44.90033351 -0.29296875 40.8203125 C-0.28872391 39.6524118 -0.28447906 38.48451111 -0.28010559 37.28121948 C-0.263354 33.56224214 -0.22570698 29.84381273 -0.1875 26.125 C-0.17244867 23.59896618 -0.15876105 21.07292383 -0.14648438 18.546875 C-0.11346192 12.36439735 -0.06329691 6.18223783 0 0 Z " fill="#FFFFFF" transform="translate(315,28)"/>
<path d="M0 0 C4.35031224 2.25366494 6.52262932 5.40193781 8 10 C8.24050903 12.57539368 8.24050903 12.57539368 8.22705078 15.34106445 C8.22689972 16.3817659 8.22674866 17.42246735 8.22659302 18.4947052 C8.21627045 19.6063353 8.20594788 20.71796539 8.1953125 21.86328125 C8.1924826 23.01040085 8.18965271 24.15752045 8.18673706 25.33940125 C8.17555697 28.99720768 8.15045595 32.65476778 8.125 36.3125 C8.11496741 38.79491833 8.10584205 41.27734051 8.09765625 43.75976562 C8.07562471 49.83992756 8.04216848 55.91994618 8 62 C5.03 62 2.06 62 -1 62 C-1.01030746 61.35298126 -1.02061493 60.70596252 -1.03123474 60.03933716 C-1.1391575 53.32380778 -1.2537668 46.60841646 -1.37231445 39.89306641 C-1.41570903 37.38463216 -1.4573807 34.87616751 -1.49731445 32.36767578 C-1.55490757 28.76846132 -1.61863343 25.16940058 -1.68359375 21.5703125 C-1.70030624 20.44319855 -1.71701874 19.31608459 -1.73423767 18.15481567 C-1.75418289 17.11388763 -1.77412811 16.07295959 -1.79467773 15.00048828 C-1.81022202 14.08115509 -1.8257663 13.1618219 -1.84178162 12.21463013 C-1.8610678 9.95924846 -1.8610678 9.95924846 -3 8 C-6.48023588 6.5669617 -8.03744855 7.01313134 -11.62329102 8.27050781 C-14.09681867 9.7646356 -14.86699029 10.52403064 -15.65328979 13.33776855 C-15.91064637 16.42577804 -15.94268556 19.44829321 -15.90234375 22.546875 C-15.92078087 24.23638275 -15.92078087 24.23638275 -15.93959045 25.96002197 C-15.97138249 29.55733952 -15.95502362 33.15261731 -15.9375 36.75 C-15.95060498 39.18882118 -15.96684279 41.6276277 -15.98632812 44.06640625 C-16.02723718 50.04457596 -16.02861924 56.02178073 -16 62 C-18.97 62 -21.94 62 -25 62 C-25 41.87 -25 21.74 -25 1 C-22.03 1 -19.06 1 -16 1 C-15.67 1.99 -15.34 2.98 -15 4 C-14.195625 3.34 -13.39125 2.68 -12.5625 2 C-8.54419681 -0.65037019 -4.67424084 -0.96996769 0 0 Z " fill="#FFFFFF" transform="translate(517,27)"/>
<path d="M0 0 C5.84911044 4.98894714 7.07423269 9.41327244 8.125 16.8125 C8.35958663 20.35181437 8.36049747 23.86825872 8.3203125 27.4140625 C8.3174826 28.376539 8.31465271 29.3390155 8.31173706 30.33065796 C8.30065578 33.36640535 8.2755746 36.4018437 8.25 39.4375 C8.23995459 41.51171445 8.23083149 43.58593359 8.22265625 45.66015625 C8.20075609 50.71105426 8.16631123 55.76172497 8.125 60.8125 C5.485 60.8125 2.845 60.8125 0.125 60.8125 C-0.205 59.4925 -0.535 58.1725 -0.875 56.8125 C-2.3909375 58.0190625 -2.3909375 58.0190625 -3.9375 59.25 C-7.5644111 61.81662459 -10.34346872 62.8125 -14.875 62.8125 C-18.54246354 61.59001215 -20.52397011 60.16352989 -23.25 57.4375 C-25.7195472 51.9285101 -25.59652108 46.7517577 -24.875 40.8125 C-21.41496168 32.68893178 -12.57214551 27.75009749 -4.72265625 24.44140625 C-2.875 23.8125 -2.875 23.8125 -0.875 23.8125 C-1.865 17.8725 -2.855 11.9325 -3.875 5.8125 C-6.185 5.8125 -8.495 5.8125 -10.875 5.8125 C-13.79672287 9.12378592 -14.37346199 12.49927314 -14.875 16.8125 C-17.845 16.8125 -20.815 16.8125 -23.875 16.8125 C-23.50169728 10.65300515 -23.10063566 6.60916751 -18.875 1.8125 C-13.29930213 -2.17014134 -6.28202996 -2.5947515 0 0 Z M-7.8125 32.5 C-8.68777344 33.18449219 -9.56304688 33.86898437 -10.46484375 34.57421875 C-14.9833427 38.77049087 -16.54600807 42.67131735 -16.875 48.8125 C-15.89886521 52.11813979 -15.89886521 52.11813979 -13.875 54.8125 C-10.92275928 55.22444057 -8.77542627 55.3685236 -6.1796875 53.765625 C-3.9898488 51.96720674 -2.15339466 50.36928931 -0.875 47.8125 C-0.79157841 46.36401418 -0.76767139 44.91179131 -0.77734375 43.4609375 C-0.78056641 42.61015625 -0.78378906 41.759375 -0.78710938 40.8828125 C-0.79548828 39.99335937 -0.80386719 39.10390625 -0.8125 38.1875 C-0.81701172 37.2903125 -0.82152344 36.393125 -0.82617188 35.46875 C-0.83797409 33.24993352 -0.85443845 31.03124982 -0.875 28.8125 C-3.9629556 28.8125 -5.43133252 30.608353 -7.8125 32.5 Z " fill="#FFFFFF" transform="translate(561.875,28.1875)"/>
<path d="M0 0 C7.45412189 7.45412189 7.65584842 17.46689779 7.75292969 27.45043945 C7.72288078 51.67736854 7.72288078 51.67736854 1.5625 58.5625 C-2.47238765 62.10831036 -6.00411409 62.86610179 -11.37890625 62.77734375 C-15.84407554 62.31133936 -18.66368878 60.37930073 -21.6875 57.1875 C-29.34421183 45.70243225 -27.89252003 24.71142084 -25.4375 11.5625 C-24.01951657 6.51385571 -22.43033219 3.39323714 -18.375 0 C-12.47957395 -2.75712813 -5.89594037 -2.46557507 0 0 Z M-14.05078125 5.7421875 C-21.05228069 14.93288817 -18.06695546 36.20542359 -16.625 47.0625 C-16.17548844 50.04387584 -15.87656134 51.96389602 -14.09375 54.39453125 C-11.38374993 56.30559262 -8.63685913 55.7435958 -5.4375 55.5625 C1.79808019 43.29347272 -0.41688713 23.24816567 -2.70703125 9.7421875 C-3.53988134 7.25699848 -4.35386437 6.13657825 -6.4375 4.5625 C-10.49616288 4.0298545 -10.49616288 4.0298545 -14.05078125 5.7421875 Z " fill="#FFFFFF" transform="translate(294.4375,28.4375)"/>
<path d="M0 0 C4.91808291 2.14607254 6.9204001 4.92377721 9.1595459 9.58227539 C10.76178948 14.19143101 10.60373119 18.88450579 10.609375 23.71875 C10.62591125 24.81723267 10.64244751 25.91571533 10.65948486 27.04748535 C10.70779597 30.53171475 10.7292991 34.01550817 10.75 37.5 C10.77817367 39.87241757 10.80810304 42.24481498 10.83984375 44.6171875 C10.91355042 50.41137963 10.96529176 56.20545 11 62 C8.36 62 5.72 62 3 62 C2.34 60.68 1.68 59.36 1 58 C0.175 58.804375 -0.65 59.60875 -1.5 60.4375 C-4.56081671 62.96411757 -7.09154531 63.93113409 -11.04296875 64.203125 C-15.34991771 63.75609636 -18.07084114 61.0573187 -20.8125 57.9375 C-23.34149381 53.81124694 -23.44377719 49.69881731 -23 45 C-20.89982707 37.15935439 -15.10685484 32.42199132 -8.2578125 28.3828125 C-1.66419492 25 -1.66419492 25 1 25 C0.71880143 22.37348569 0.42556162 19.74930665 0.125 17.125 C0.04636719 16.37863281 -0.03226562 15.63226563 -0.11328125 14.86328125 C-0.5080769 10.47444593 -0.5080769 10.47444593 -3 7 C-6.58343976 6.83322718 -6.58343976 6.83322718 -10 7 C-10.99 10.63 -11.98 14.26 -13 18 C-15.64 18 -18.28 18 -21 18 C-22.3238515 15.35229699 -21.72884003 14.45512597 -20.8125 11.6875 C-19.21835773 7.18042503 -17.40486699 3.48273934 -13.20703125 0.89453125 C-8.95315176 -0.82960752 -4.49862293 -0.50927807 0 0 Z M-10 38 C-12.81004752 41.34091292 -13.91751399 44.30476075 -14.4375 48.6875 C-13.97358126 52.20002757 -13.72234592 53.7313784 -11 56 C-7.017235 56.796553 -5.33358204 56.19530757 -1.82421875 54.140625 C0.25874172 52.32906003 0.92837703 51.35304292 1.48266602 48.62084961 C1.59091159 45.78778397 1.52330415 43.01858825 1.375 40.1875 C1.34792969 39.20845703 1.32085937 38.22941406 1.29296875 37.22070312 C1.22245648 34.81153379 1.12398568 32.40691181 1 30 C-2.58743908 30 -7.45944059 35.70582235 -10 38 Z " fill="#FFFFFF" transform="translate(468,27)"/>
<path d="M0 0 C4.48819773 2.89498468 7.52789494 6.97949149 8.9296875 12.1640625 C8.5234375 14.41015625 8.5234375 14.41015625 7.9296875 16.1640625 C5.6196875 16.4940625 3.3096875 16.8240625 0.9296875 17.1640625 C0.67574219 16.53757812 0.42179687 15.91109375 0.16015625 15.265625 C-0.18402344 14.44835938 -0.52820313 13.63109375 -0.8828125 12.7890625 C-1.21925781 11.97695313 -1.55570312 11.16484375 -1.90234375 10.328125 C-3.01470332 7.86258792 -3.01470332 7.86258792 -6.0703125 6.1640625 C-8.65364583 6.24739583 -8.65364583 6.24739583 -11.0703125 7.1640625 C-13.39610351 10.65274901 -13.48896707 12.06124769 -13.0703125 16.1640625 C-11.65053341 18.39150037 -11.65053341 18.39150037 -10.0703125 20.1640625 C-10.0703125 20.8240625 -10.0703125 21.4840625 -10.0703125 22.1640625 C-9.2659375 22.49857422 -9.2659375 22.49857422 -8.4453125 22.83984375 C-5.27993319 24.60475096 -2.7285398 26.92033728 -0.0703125 29.3515625 C0.45046875 29.80853516 0.97125 30.26550781 1.5078125 30.73632812 C5.94289588 34.77382196 9.34213975 38.9800721 10.4609375 45.04296875 C10.39295076 50.88132963 10.07494159 54.68270672 5.9296875 59.1640625 C0.9902189 62.65783297 -3.03894504 63.57296877 -9.0703125 63.1640625 C-15.18330017 61.04323004 -19.00266033 56.64461031 -22.2421875 51.19140625 C-23.0703125 49.1640625 -23.0703125 49.1640625 -23.0703125 45.1640625 C-20.7603125 44.5040625 -18.4503125 43.8440625 -16.0703125 43.1640625 C-15.74417969 43.86273438 -15.41804688 44.56140625 -15.08203125 45.28125 C-14.64503906 46.19132812 -14.20804687 47.10140625 -13.7578125 48.0390625 C-13.32855469 48.94398437 -12.89929688 49.84890625 -12.45703125 50.78125 C-11.1503737 53.42855726 -11.1503737 53.42855726 -8.0703125 55.1640625 C-4.9827532 55.48568326 -2.93015689 55.65130765 -0.1953125 54.1015625 C1.61032852 50.99184741 1.34810964 48.69076338 0.9296875 45.1640625 C-2.7451089 37.8144697 -9.68292142 32.07288997 -15.9453125 26.9140625 C-19.82846049 23.633162 -21.67820561 20.79281421 -22.8828125 15.7890625 C-23.09807135 11.62739141 -22.70544661 9.00307301 -21.0703125 5.1640625 C-15.67157549 -0.8208231 -7.63533602 -3.082947 0 0 Z " fill="#FFFFFF" transform="translate(404.0703125,27.8359375)"/>
<path d="M0 0 C2.64 0 5.28 0 8 0 C8 24.42 8 48.84 8 74 C16.25 74 24.5 74 33 74 C33 76.31 33 78.62 33 81 C21.78 81 10.56 81 -1 81 C-1.02255116 70.58656689 -1.04091517 60.17314987 -1.05181217 49.75969791 C-1.05704097 44.92483173 -1.06413854 40.08998306 -1.07543945 35.25512695 C-1.08626847 30.5932288 -1.09227686 25.93134754 -1.09487724 21.26943779 C-1.09673147 19.48675712 -1.10035203 17.70407741 -1.10573006 15.92140388 C-1.11294069 13.4333404 -1.11399093 10.94534757 -1.11352539 8.45727539 C-1.11712067 7.71281158 -1.12071594 6.96834778 -1.12442017 6.20132446 C-1.11405216 1.11405216 -1.11405216 1.11405216 0 0 Z " fill="#FFFFFF" transform="translate(229,8)"/>
<path d="M0 0 C2.97 0 5.94 0 9 0 C9 20.13 9 40.26 9 61 C6.03 61 3.06 61 0 61 C0 40.87 0 20.74 0 0 Z " fill="#FFFFFF" transform="translate(425,28)"/>
<path d="M0 0 C2.64 0 5.28 0 8 0 C8 20.13 8 40.26 8 61 C5.36 61 2.72 61 0 61 C0 40.87 0 20.74 0 0 Z " fill="#FFFFFF" transform="translate(362,28)"/>
<path d="M0 0 C0.71404789 8.34642647 -0.6550765 13.84639381 -5 21 C-8 20 -8 20 -9.16674805 18.14233398 C-9.52808838 17.35157471 -9.88942871 16.56081543 -10.26171875 15.74609375 C-10.65810547 14.89208984 -11.05449219 14.03808594 -11.46289062 13.15820312 C-12.06907227 11.81145508 -12.06907227 11.81145508 -12.6875 10.4375 C-13.31108398 9.08495117 -13.31108398 9.08495117 -13.94726562 7.70507812 C-14.9742053 5.47414021 -15.99126292 3.23921286 -17 1 C-14.73052303 0.63724344 -12.45935265 0.28506814 -10.1875 -0.0625 C-8.92292969 -0.25972656 -7.65835938 -0.45695312 -6.35546875 -0.66015625 C-3 -1 -3 -1 0 0 Z " fill="#FFFFFF" transform="translate(73,45)"/>
<path d="M0 0 C2.10448938 0.14109986 4.2085877 0.28804175 6.3125 0.4375 C8.07013672 0.55931641 8.07013672 0.55931641 9.86328125 0.68359375 C13 1 13 1 16 2 C15.37348573 4.8624741 14.47829483 7.28081653 13.15234375 9.890625 C12.79462891 10.59960938 12.43691406 11.30859375 12.06835938 12.0390625 C11.69517578 12.76867188 11.32199219 13.49828125 10.9375 14.25 C10.37192383 15.36761719 10.37192383 15.36761719 9.79492188 16.5078125 C8.86689327 18.34037531 7.93392821 20.17043676 7 22 C4.11999956 20.72329877 3.10274644 20.15602238 1.3125 17.4375 C-0.95352874 11.50266282 -1.43667868 6.19295583 0 0 Z " fill="#FFFFFF" transform="translate(26,44)"/>
<path d="M0 0 C4.02423424 1.50463625 5.52065616 3.85054292 7.75 7.4375 C8.36359375 8.40558594 8.9771875 9.37367187 9.609375 10.37109375 C11 13 11 13 11 16 C7.6546121 17.1151293 5.08241188 17.13299072 1.5625 17.125 C0.42941406 17.12757812 -0.70367187 17.13015625 -1.87109375 17.1328125 C-4.45221183 17.02325193 -6.54944405 16.75864877 -9 16 C-7.56691865 12.04093183 -5.66858051 8.71281819 -3.375 5.1875 C-2.74335937 4.21167969 -2.11171875 3.23585937 -1.4609375 2.23046875 C-0.73777344 1.12638672 -0.73777344 1.12638672 0 0 Z " fill="#FFFFFF" transform="translate(48,57)"/>
<path d="M0 0 C2.97 0 5.94 0 9 0 C9 3.63 9 7.26 9 11 C6.03 11 3.06 11 0 11 C0 7.37 0 3.74 0 0 Z " fill="#FFFFFF" transform="translate(425,8)"/>
<path d="M0 0 C2.64 0 5.28 0 8 0 C8 3.63 8 7.26 8 11 C5.36 11 2.72 11 0 11 C0 7.37 0 3.74 0 0 Z " fill="#FFFFFF" transform="translate(362,8)"/>
<path d="M0 0 C3.0625 0.3125 3.0625 0.3125 5 1.5 C6.0625 3.3125 6.0625 3.3125 6 5.8125 C4.85785702 8.85821461 4.00626912 9.92238681 1.0625 11.3125 C-1.33013407 10.64478817 -3.15847385 10.09152615 -4.9375 8.3125 C-5.125 5.375 -5.125 5.375 -4.9375 2.3125 C-2.9375 0.3125 -2.9375 0.3125 0 0 Z M-2.9375 3.3125 C-1.9375 7.3125 -1.9375 7.3125 -1.9375 7.3125 Z M3.0625 4.3125 C4.0625 6.3125 4.0625 6.3125 4.0625 6.3125 Z M0.0625 6.3125 C1.0625 8.3125 1.0625 8.3125 1.0625 8.3125 Z " fill="#FFFFFF" transform="translate(79.9375,89.6875)"/>
<path d="M0 0 C3.0625 0.3125 3.0625 0.3125 5 1.5 C6.0625 3.3125 6.0625 3.3125 6.0625 5.8125 C4.76334623 9.06038441 3.14430517 9.81110774 0.0625 11.3125 C-2.4375 10.1875 -2.4375 10.1875 -4.9375 8.3125 C-5.375 5.25 -5.375 5.25 -4.9375 2.3125 C-2.9375 0.3125 -2.9375 0.3125 0 0 Z M-2.9375 3.3125 C-1.9375 7.3125 -1.9375 7.3125 -1.9375 7.3125 Z M3.0625 4.3125 C4.0625 6.3125 4.0625 6.3125 4.0625 6.3125 Z M0.0625 6.3125 C1.0625 8.3125 1.0625 8.3125 1.0625 8.3125 Z " fill="#FFFFFF" transform="translate(172.9375,89.6875)"/>
<path d="M0 0 C1.44197868 2.88395737 1.58833581 5.82430479 2 9 C-2.62 9 -7.24 9 -12 9 C-12 8.34 -12 7.68 -12 7 C-10.13671875 5.52734375 -10.13671875 5.52734375 -7.6875 3.9375 C-6.88699219 3.41027344 -6.08648437 2.88304687 -5.26171875 2.33984375 C-3 1 -3 1 0 0 Z " fill="#FFFFFF" transform="translate(43,27)"/>
<path d="M0 0 C1.61013585 0.73709784 3.21292391 1.49025857 4.8125 2.25 C5.70582031 2.66765625 6.59914063 3.0853125 7.51953125 3.515625 C10 5 10 5 13 9 C8.38 9 3.76 9 -1 9 C-0.67 6.03 -0.34 3.06 0 0 Z " fill="#FFFFFF" transform="translate(55,27)"/>
</svg>
