<?xml version="1.0" encoding="UTF-8"?>
<svg version="1.1" xmlns="http://www.w3.org/2000/svg" width="233" height="237">
<path d="M0 0 C4.44670765 4.00932657 8.03432434 8.59056389 11.62109375 13.36328125 C12.73484375 14.70132813 12.73484375 14.70132813 13.87109375 16.06640625 C15.62109375 18.36328125 15.62109375 18.36328125 15.62109375 20.36328125 C16.28109375 20.36328125 16.94109375 20.36328125 17.62109375 20.36328125 C29.83812339 44.32289277 34.42907555 68.76657569 26.51953125 95.01953125 C19.62891252 113.69088524 6.61894647 132.82131623 -11.37890625 142.36328125 C-12.03890625 142.36328125 -12.69890625 142.36328125 -13.37890625 142.36328125 C-13.37890625 143.02328125 -13.37890625 143.68328125 -13.37890625 144.36328125 C-12.22841797 144.54890625 -12.22841797 144.54890625 -11.0546875 144.73828125 C1.59181091 147.08838548 14.17004267 151.4686405 25.62109375 157.36328125 C24.63109375 161.32328125 24.63109375 161.32328125 23.62109375 165.36328125 C25.53921875 165.70359375 25.53921875 165.70359375 27.49609375 166.05078125 C33.00778203 167.25126026 37.69934534 169.67121844 42.62109375 172.36328125 C41.62109375 175.36328125 41.62109375 175.36328125 39.94702148 176.25463867 C38.88656616 176.60812378 38.88656616 176.60812378 37.8046875 176.96875 C37.04091797 177.22978516 36.27714844 177.49082031 35.49023438 177.75976562 C34.68779297 178.02080078 33.88535156 178.28183594 33.05859375 178.55078125 C31.84913086 178.95973633 31.84913086 178.95973633 30.61523438 179.37695312 C28.6207292 180.04965606 26.62133973 180.7078454 24.62109375 181.36328125 C26.61887503 187.67206422 28.97760005 193.69937527 31.6328125 199.76171875 C32.62109375 202.36328125 32.62109375 202.36328125 32.62109375 205.36328125 C29.13403569 204.71777623 25.80169868 203.8631098 22.41796875 202.8046875 C21.43699219 202.50111328 20.45601562 202.19753906 19.4453125 201.88476562 C17.41118299 201.25023094 15.37732425 200.61482757 13.34375 199.97851562 C8.04404909 198.34011136 2.8472426 196.88873963 -2.62792969 195.96850586 C-4.37890625 195.36328125 -4.37890625 195.36328125 -6.37890625 192.36328125 C-6.35546875 190.1015625 -6.35546875 190.1015625 -6.00390625 187.67578125 C-5.89304688 186.86753906 -5.7821875 186.05929688 -5.66796875 185.2265625 C-5.57257813 184.61167969 -5.4771875 183.99679688 -5.37890625 183.36328125 C-11.30089845 181.04011794 -17.43564101 180.28640993 -23.69140625 179.36328125 C-24.86638672 179.18958008 -26.04136719 179.01587891 -27.25195312 178.83691406 C-29.59021159 178.49433799 -31.92890849 178.15473905 -34.26806641 177.81835938 C-36.74126895 177.45655985 -39.20622442 177.0689561 -41.671875 176.66015625 C-62.67015385 173.56241227 -85.43296791 174.26097169 -106.37890625 177.36328125 C-107.76756819 177.52655662 -109.15692603 177.68400759 -110.546875 177.8359375 C-118.04709809 178.66724949 -125.29885662 179.8816766 -132.609375 181.77734375 C-135.29162931 182.34481645 -137.64756836 182.47313396 -140.37890625 182.36328125 C-140.02828125 183.60078125 -139.67765625 184.83828125 -139.31640625 186.11328125 C-138.44401691 189.19230246 -137.98891783 191.39631044 -139.37890625 194.36328125 C-143.32873528 196.51299987 -147.83719182 197.27673923 -152.19140625 198.30078125 C-156.61904769 199.3671505 -160.94477872 200.4415678 -165.19140625 202.11328125 C-168.37890625 203.36328125 -168.37890625 203.36328125 -171.37890625 203.36328125 C-170.78311848 198.09706519 -169.56581829 193.41920106 -167.81640625 188.42578125 C-167.58244141 187.74193359 -167.34847656 187.05808594 -167.10742188 186.35351562 C-166.53678796 184.68819624 -165.95863527 183.02545632 -165.37890625 181.36328125 C-166.16394531 181.18152344 -166.94898438 180.99976563 -167.7578125 180.8125 C-173.58999967 179.41706871 -178.92998756 177.85083109 -184.37890625 175.36328125 C-185.03890625 175.36328125 -185.69890625 175.36328125 -186.37890625 175.36328125 C-186.30859375 173.5625 -186.30859375 173.5625 -185.37890625 171.36328125 C-183.06175628 170.0980344 -180.94699473 169.11449289 -178.50390625 168.17578125 C-177.86582031 167.91603516 -177.22773438 167.65628906 -176.5703125 167.38867188 C-173.86365672 166.29527335 -171.14843275 165.28645675 -168.37890625 164.36328125 C-168.70890625 162.05328125 -169.03890625 159.74328125 -169.37890625 157.36328125 C-162.08933566 153.73137505 -154.78895344 150.67463283 -147.06640625 148.11328125 C-146.32664551 147.86755371 -145.58688477 147.62182617 -144.82470703 147.36865234 C-140.0519408 145.82041094 -135.25830646 144.53213192 -130.37890625 143.36328125 C-131.08789062 142.80511719 -131.796875 142.24695313 -132.52734375 141.671875 C-154.08973091 124.21520265 -168.86065411 104.07100327 -172.06640625 75.8203125 C-174.19626711 52.2587267 -167.28113761 30.63593271 -152.21484375 12.5390625 C-151.60898438 11.82105469 -151.003125 11.10304687 -150.37890625 10.36328125 C-149.93804687 9.79996094 -149.4971875 9.23664062 -149.04296875 8.65625 C-134.30401375 -10.08893103 -109.79384965 -20.06563486 -87.0234375 -24.25390625 C-55.07839317 -27.60933427 -25.39144979 -19.82716537 0 0 Z M-75.8046875 -21.63671875 C-93.03775223 -20.98870692 -109.31979 -15.81356883 -124.37890625 -7.63671875 C-125.01924805 -7.2900415 -125.65958984 -6.94336426 -126.31933594 -6.58618164 C-130.34214937 -4.3537814 -133.17356047 -1.92219818 -136.37890625 1.36328125 C-137.49080722 2.15289208 -138.61687221 2.92281204 -139.75390625 3.67578125 C-154.90595253 14.4057711 -165.19040115 36.17221903 -168.56640625 54.05078125 C-171.83253656 75.94492598 -166.63682852 96.43404442 -154.390625 114.70703125 C-148.27359557 122.78388564 -141.16945931 129.89987993 -133.37890625 136.36328125 C-132.858125 136.85699219 -132.33734375 137.35070312 -131.80078125 137.859375 C-128.0615165 141.33295515 -125.40539133 141.99548966 -120.37890625 142.36328125 C-117.52619885 142.09039841 -114.75002221 141.54847303 -111.94140625 140.98828125 C-83.77314956 135.9138737 -45.97064952 134.16603349 -18.37890625 143.36328125 C-16.65742053 142.5679226 -16.65742053 142.5679226 -14.97265625 141.22265625 C-14.316604 140.73490723 -13.66055176 140.2471582 -12.98461914 139.74462891 C-12.28973389 139.20628418 -11.59484863 138.66793945 -10.87890625 138.11328125 C-10.16275146 137.56333496 -9.44659668 137.01338867 -8.70874023 136.44677734 C10.03151288 121.81009126 23.25957315 102.74396908 27.1796875 78.9765625 C29.93125823 56.4526428 23.9257751 34.4524277 9.99609375 16.42578125 C8.87683873 15.06686235 7.75247063 13.71212473 6.62109375 12.36328125 C5.85796875 11.35265625 5.09484375 10.34203125 4.30859375 9.30078125 C0.51034493 5.14920696 -3.76224556 1.58268711 -8.37890625 -1.63671875 C-9.03890625 -1.63671875 -9.69890625 -1.63671875 -10.37890625 -1.63671875 C-10.37890625 -2.29671875 -10.37890625 -2.95671875 -10.37890625 -3.63671875 C-28.69949342 -17.6515458 -53.38565989 -21.63671875 -75.8046875 -21.63671875 Z M-146.37890625 151.36328125 C-149.12750549 152.48607506 -151.87088461 153.5346576 -154.67578125 154.51171875 C-156.38507813 155.11886719 -156.38507813 155.11886719 -158.12890625 155.73828125 C-159.27875 156.13789063 -160.42859375 156.5375 -161.61328125 156.94921875 C-164.44658191 158.07482098 -164.44658191 158.07482098 -165.4296875 160.24609375 C-165.36103437 163.10840117 -164.39843094 164.48429676 -162.81640625 166.86328125 C-159.2277176 172.49424471 -156.28811944 178.35916041 -153.37890625 184.36328125 C-152.38890625 184.36328125 -151.39890625 184.36328125 -150.37890625 184.36328125 C-150.37890625 183.70328125 -150.37890625 183.04328125 -150.37890625 182.36328125 C-149.47120483 182.18913696 -149.47120483 182.18913696 -148.54516602 182.01147461 C-144.16206173 181.1549284 -139.80521163 180.24917924 -135.46875 179.1796875 C-87.64234878 167.41810747 -32.50317522 167.91357366 13.62109375 186.36328125 C16.26109375 177.45328125 18.90109375 168.54328125 21.62109375 159.36328125 C17.66109375 157.71328125 13.70109375 156.06328125 9.62109375 154.36328125 C7.99171875 153.68265625 6.36234375 153.00203125 4.68359375 152.30078125 C-15.32902475 144.46565231 -36.84268123 141.2208723 -58.28515625 141.1953125 C-59.28994019 141.1919841 -60.29472412 141.1886557 -61.32995605 141.18522644 C-63.44424996 141.18019855 -65.55855169 141.17781682 -67.67285156 141.17797852 C-70.84323843 141.17580569 -74.0132688 141.15764258 -77.18359375 141.13867188 C-100.23736021 141.07462863 -124.8017925 142.4706916 -146.37890625 151.36328125 Z M-173.94140625 169.23828125 C-175.08802734 169.76035156 -175.08802734 169.76035156 -176.2578125 170.29296875 C-178.58592896 171.41435106 -178.58592896 171.41435106 -181.37890625 173.36328125 C-175.43890625 175.34328125 -169.49890625 177.32328125 -163.37890625 179.36328125 C-164.50390625 189.48828125 -164.50390625 189.48828125 -165.94140625 193.92578125 C-166.21082031 194.77269531 -166.48023438 195.61960938 -166.7578125 196.4921875 C-166.96277344 197.10964844 -167.16773438 197.72710937 -167.37890625 198.36328125 C-159.40750195 196.42783784 -159.40750195 196.42783784 -151.50390625 194.23828125 C-148.47061185 193.38895882 -145.4933926 192.81905974 -142.37890625 192.36328125 C-142.37890625 190.05328125 -142.37890625 187.74328125 -142.37890625 185.36328125 C-147.6563991 185.90180093 -151.63536189 187.13671961 -156.37890625 189.36328125 C-156.50072266 188.39841797 -156.50072266 188.39841797 -156.625 187.4140625 C-157.67179598 183.17806425 -159.54168437 179.4650614 -161.44140625 175.55078125 C-161.81845703 174.76251953 -162.19550781 173.97425781 -162.58398438 173.16210938 C-163.51060786 171.22675652 -164.44408092 169.29468576 -165.37890625 167.36328125 C-169.18930697 167.36328125 -170.62414035 167.70032718 -173.94140625 169.23828125 Z M22.62109375 167.36328125 C21.61434916 170.63207741 20.61686886 173.90362835 19.62109375 177.17578125 C19.19183594 178.56893555 19.19183594 178.56893555 18.75390625 179.99023438 C18.34785156 181.32924805 18.34785156 181.32924805 17.93359375 182.6953125 C17.68222656 183.51749268 17.43085938 184.33967285 17.171875 185.18676758 C16.49843197 187.47381492 16.49843197 187.47381492 16.62109375 190.36328125 C15.57308594 190.00234375 14.52507812 189.64140625 13.4453125 189.26953125 C12.06648724 188.80054307 10.6875765 188.33180615 9.30859375 187.86328125 C8.2731543 187.50556641 8.2731543 187.50556641 7.21679688 187.140625 C4.23177886 186.13119862 1.79450461 185.36328125 -1.37890625 185.36328125 C-1.70890625 187.34328125 -2.03890625 189.32328125 -2.37890625 191.36328125 C-0.98091797 191.74613281 -0.98091797 191.74613281 0.4453125 192.13671875 C6.4749048 193.85859175 12.38837929 195.95056111 18.32226562 197.97265625 C19.23169922 198.27945313 20.14113281 198.58625 21.078125 198.90234375 C21.9028833 199.18287598 22.7276416 199.4634082 23.57739258 199.75244141 C25.58496078 200.45873831 25.58496078 200.45873831 27.62109375 200.36328125 C25.81733414 193.79967503 25.81733414 193.79967503 23.62109375 187.36328125 C22.96109375 187.03328125 22.30109375 186.70328125 21.62109375 186.36328125 C21.62109375 184.05328125 21.62109375 181.74328125 21.62109375 179.36328125 C26.57109375 177.38328125 31.52109375 175.40328125 36.62109375 173.36328125 C32.26328091 170.09492162 28.19307885 167.36328125 22.62109375 167.36328125 Z " fill="#FAFAFA" transform="translate(190.37890625,28.63671875)"/>
<path d="M0 0 C3.54813789 1.94787975 6.18410919 4.36821838 8 8 C8.73711239 12.50643711 8.96325851 16.41178556 6.54296875 20.40234375 C3.33767691 24.13397825 1.07800047 26.63612785 -4.015625 27.23828125 C-8.79027179 27.39687966 -12.50185162 27.06186277 -16.5546875 24.39453125 C-19.30069129 21.74500867 -20.34146697 18.70164885 -21 15 C-20.91025155 9.70484132 -19.75480579 6.75480579 -16 3 C-15.34 3 -14.68 3 -14 3 C-14 2.34 -14 1.68 -14 1 C-9.76844833 -1.11577584 -4.58223826 -0.63707139 0 0 Z M-13 6 C-13.9702889 8.91086669 -14.16467847 10.90223685 -14.1875 13.9375 C-14.20167969 14.79214844 -14.21585938 15.64679687 -14.23046875 16.52734375 C-13.98357294 19.17624285 -13.42413681 20.76635385 -12 23 C-9.14675563 24.42662219 -7.16545451 24.31033868 -4 24 C-0.66238955 21.84909549 0.73470933 20.79587201 2 17 C2.34222737 11.69547577 2.52076609 8.27521597 -1 4 C-6.04771181 0.68743913 -8.78197238 2.11497456 -13 6 Z " fill="#FAFAFA" transform="translate(143,47)"/>
<path d="M0 0 C3.6925908 2.74797455 5.5778076 5.51466987 6.6875 10 C6.48916448 14.83938681 5.27185393 19.56499415 1.6875 23 C1.0275 23 0.3675 23 -0.3125 23 C-0.6425 23.66 -0.9725 24.32 -1.3125 25 C-3.01384085 26.70134085 -5.11019403 26.29256137 -7.4375 26.375 C-12.25810317 26.31858202 -15.31430393 25.69675132 -19.00390625 22.546875 C-22.14087482 18.83869723 -22.52656653 14.61128596 -22.3125 9.9375 C-21.67203243 5.92286183 -19.81448981 3.83223683 -16.8828125 1.12890625 C-12.03603044 -2.3554719 -5.41152761 -1.63366871 0 0 Z M-13.1875 3.3125 C-15.97199833 6.83407142 -16.46730019 8.46706556 -16.5 12.875 C-16.51417969 13.73867187 -16.52835937 14.60234375 -16.54296875 15.4921875 C-16.29772656 18.16075509 -15.7489726 19.75204639 -14.3125 22 C-11.11758241 23.59745879 -7.78040611 23.50816842 -4.3125 23 C-1.34391843 20.79259319 -0.48384209 19.51402627 0.6875 16 C1.07241631 11.30402096 1.08538326 8.87534317 -0.875 4.5625 C-3.17312667 1.75328111 -3.17312667 1.75328111 -6.75 0.8125 C-10.46328805 0.65966732 -10.46328805 0.65966732 -13.1875 3.3125 Z " fill="#FAFAFA" transform="translate(99.3125,80)"/>
<path d="M0 0 C13.46120219 -0.3704918 13.46120219 -0.3704918 15.92578125 1.32421875 C17.60776504 3.94811347 17.37899431 5.96804552 17 9 C15.6875 10.875 15.6875 10.875 14 12 C13.01 12 12.02 12 11 12 C11.5775 12.84304687 12.155 13.68609375 12.75 14.5546875 C13.50024193 15.66129435 14.25022874 16.76807419 15 17.875 C15.7425 18.96554688 16.485 20.05609375 17.25 21.1796875 C19 24 19 24 19 26 C16.3125 26.5 16.3125 26.5 13 26 C10.03177978 22.70964735 8 19.4678673 8 15 C7.34 15 6.68 15 6 15 C5.67 18.63 5.34 22.26 5 26 C3.35 26 1.7 26 0 26 C0 17.42 0 8.84 0 0 Z M5 1 C5 4.63 5 8.26 5 12 C6.65 12 8.3 12 10 12 C11.4783226 9.04335481 11.06032783 6.25770263 11 3 C9.02 2.34 7.04 1.68 5 1 Z " fill="#FAFAFA" transform="translate(56,80)"/>
<path d="M0 0 C13 0 13 0 17 3 C17.5 6 17.5 6 17 9 C15 10.875 15 10.875 13 12 C13.845625 12.680625 14.69125 13.36125 15.5625 14.0625 C18 17 18 17 18 20.6875 C17 24 17 24 14 26 C8.52960894 26.98646396 5.69999082 26.94999847 0 26 C0 17.42 0 8.84 0 0 Z M5 4 C4.95907063 6.33297433 4.95758277 8.66705225 5 11 C6.83700789 11.77242269 6.83700789 11.77242269 9 12 C10.87359395 10.96040481 10.87359395 10.96040481 12 9 C12.33374277 6.41583753 12.33374277 6.41583753 12 4 C10.9404123 2.71677453 10.9404123 2.71677453 8.5 2.875 C6.0595877 2.71677453 6.0595877 2.71677453 5 4 Z M5 14 C5 16.97 5 19.94 5 23 C7.475 23.495 7.475 23.495 10 24 C11.73647948 22.32511472 11.73647948 22.32511472 13 20 C12.33228817 17.60736593 11.77902615 15.77902615 10 14 C8.33382885 13.95936168 6.66611905 13.957279 5 14 Z " fill="#FAFAFA" transform="translate(60,47)"/>
<path d="M0 0 C1.32 0 2.64 0 4 0 C5.25220142 1.68058611 6.49465639 3.37161526 7.63671875 5.12890625 C9.00761189 7.01044726 10.34404829 8.22110612 12.1875 9.625 C15.04095966 12.03458816 15.99095336 13.46833675 17 17 C17.66 17 18.32 17 19 17 C19.33 11.39 19.66 5.78 20 0 C20.99 0 21.98 0 23 0 C23 8.58 23 17.16 23 26 C17.53919012 24.90783802 16.86415562 24.27855513 13.4375 20.25 C12.69371094 19.38890625 11.94992188 18.5278125 11.18359375 17.640625 C9.71146721 15.86037895 8.26643799 14.05741941 6.84765625 12.234375 C5.19471607 9.9289027 5.19471607 9.9289027 3 9 C3 14.61 3 20.22 3 26 C2.01 26.33 1.02 26.66 0 27 C0 18.09 0 9.18 0 0 Z " fill="#FAFAFA" transform="translate(156,47)"/>
<path d="M0 0 C1.65 0 3.3 0 5 0 C5.66 0.66 6.32 1.32 7 2 C8.33599921 1.67751743 9.66893378 1.34227417 11 1 C11.86625 1.185625 12.7325 1.37125 13.625 1.5625 C14.40875 1.706875 15.1925 1.85125 16 2 C16.66 1.34 17.32 0.68 18 0 C18.99 0 19.98 0 21 0 C21.33 0.99 21.66 1.98 22 3 C22.66 3.33 23.32 3.66 24 4 C23.67 2.68 23.34 1.36 23 0 C24.32 0 25.64 0 27 0 C26.41196203 3.02419525 25.77321882 6.01758453 25 9 C25.5775 8.319375 26.155 7.63875 26.75 6.9375 C27.4925 6.298125 28.235 5.65875 29 5 C31.25 5.25 31.25 5.25 33 6 C33.6875 8.25 33.6875 8.25 34 11 C32.5625 13.3125 32.5625 13.3125 31 15 C28.13275314 14.42655063 27.1385485 14.1385485 25 12 C24.01 12.33 23.02 12.66 22 13 C21.67 10.69 21.34 8.38 21 6 C20.01 6 19.02 6 18 6 C18 6.99 18 7.98 18 9 C18.66 9.33 19.32 9.66 20 10 C19.67 10.66 19.34 11.32 19 12 C9.58997722 11.03644647 9.58997722 11.03644647 5 10 C5 8.35 5 6.7 5 5 C4.01 4.67 3.02 4.34 2 4 C2 5.65 2 7.3 2 9 C0.35 9.33 -1.3 9.66 -3 10 C-2.01 6.7 -1.02 3.4 0 0 Z M14 3 C13.67 4.65 13.34 6.3 13 8 C13.99 7.67 14.98 7.34 16 7 C15.67 5.68 15.34 4.36 15 3 C14.67 3 14.34 3 14 3 Z M9 4 C9 5.32 9 6.64 9 8 C9.66 7.67 10.32 7.34 11 7 C10.67 6.01 10.34 5.02 10 4 C9.67 4 9.34 4 9 4 Z M29 8 C28.01 9.485 28.01 9.485 27 11 C28.32 11 29.64 11 31 11 C31 10.01 31 9.02 31 8 C30.34 8 29.68 8 29 8 Z " fill="#FAFAFA" transform="translate(152,184)"/>
<path d="M0 0 C0.61875 0.33 1.2375 0.66 1.875 1 C1.215 2.32 0.555 3.64 -0.125 5 C-0.785 4.67 -1.445 4.34 -2.125 4 C-2.125 3.34 -2.125 2.68 -2.125 2 C-8.52215287 1.50600787 -8.52215287 1.50600787 -14.125 4 C-17.17400726 8.31066543 -17.6213417 11.85867605 -16.82421875 16.94140625 C-16.18765528 19.32579946 -16.18765528 19.32579946 -13.5 21.5625 C-9.76071265 23.15515943 -7.14822694 23.32185816 -3.125 23 C-3.455 20.03 -3.785 17.06 -4.125 14 C-2.475 13.67 -0.825 13.34 0.875 13 C2.15817892 16.84953676 1.94143637 19.94738135 1.875 24 C-3.49166798 26.41209446 -8.31075252 26.82347711 -14.125 26 C-17.70022234 24.40607316 -20.14754917 22.232438 -22.5625 19.1875 C-23.79676715 14.38757218 -23.57732351 10.3835778 -22.0625 5.75 C-16.69906609 -1.86261587 -8.44302371 -2.70176759 0 0 Z " fill="#FAFAFA" transform="translate(162.125,80)"/>
<path d="M0 0 C1.98 0.495 1.98 0.495 4 1 C4.6837045 2.32467746 5.34964186 3.65863633 6 5 C7.32467746 5.6837045 8.65863633 6.34964186 10 7 C13 10.42857143 13 10.42857143 13 13 C13.99 13.33 14.98 13.66 16 14 C17.32 15.32 18.64 16.64 20 18 C19.67 12.39 19.34 6.78 19 1 C20.32 0.67 21.64 0.34 23 0 C22.67 8.58 22.34 17.16 22 26 C17.92925353 24.98231338 17.22561004 24.5826848 14.546875 21.69140625 C13.928125 21.02689453 13.309375 20.36238281 12.671875 19.67773438 C12.03765625 18.97970703 11.4034375 18.28167969 10.75 17.5625 C10.1003125 16.86833984 9.450625 16.17417969 8.78125 15.45898438 C4 10.27092634 4 10.27092634 4 8 C3.34 8 2.68 8 2 8 C2.33 13.94 2.66 19.88 3 26 C1.68 26 0.36 26 -1 26 C-0.67 17.42 -0.34 8.84 0 0 Z " fill="#FAFAFA" transform="translate(118,111)"/>
<path d="M0 0 C2.31 0 4.62 0 7 0 C6.97679688 1.25296875 6.95359375 2.5059375 6.9296875 3.796875 C6.91092573 5.4479107 6.89272597 7.09895285 6.875 8.75 C6.85824219 9.575 6.84148437 10.4 6.82421875 11.25 C6.81777344 12.04921875 6.81132813 12.8484375 6.8046875 13.671875 C6.79421387 14.4050293 6.78374023 15.13818359 6.77294922 15.89355469 C7.03222456 18.29896076 7.80774075 19.91251494 9 22 C11.64 22 14.28 22 17 22 C18.61635488 19.13026116 19.2733418 16.95535797 19.4140625 13.671875 C19.45273438 12.87265625 19.49140625 12.0734375 19.53125 11.25 C19.5621875 10.425 19.593125 9.6 19.625 8.75 C19.66367188 7.90953125 19.70234375 7.0690625 19.7421875 6.203125 C19.83615836 4.13576618 19.91915564 2.06791373 20 0 C21.32 0 22.64 0 24 0 C24.47787611 18.90265487 24.47787611 18.90265487 20 24.5 C15.64276061 26.6786197 11.77873464 26.77025657 7 26 C3.54261727 24.12725102 2.36873247 22.87370846 0.84765625 19.26953125 C-0.08994885 15.65305444 0.02081734 13.01109561 0.4375 9.3125 C1.00122031 4.580707 1.00122031 4.580707 0 0 Z " fill="#FAFAFA" transform="translate(110,80)"/>
<path d="M0 0 C4.95 0 9.9 0 15 0 C14.67 0.99 14.34 1.98 14 3 C11.36 2.67 8.72 2.34 6 2 C6.33 4.64 6.66 7.28 7 10 C9.64 10 12.28 10 15 10 C14.67 11.32 14.34 12.64 14 14 C11.36 13.67 8.72 13.34 6 13 C6 16.3 6 19.6 6 23 C8.97 22.67 11.94 22.34 15 22 C14.67 23.32 14.34 24.64 14 26 C11.85423363 26.02685938 9.70837355 26.04633088 7.5625 26.0625 C6.36753906 26.07410156 5.17257813 26.08570312 3.94140625 26.09765625 C1 26 1 26 0 25 C-0.08737645 23.14630389 -0.10698153 21.28932459 -0.09765625 19.43359375 C-0.09443359 18.30888672 -0.09121094 17.18417969 -0.08789062 16.02539062 C-0.07951172 14.84138672 -0.07113281 13.65738281 -0.0625 12.4375 C-0.05798828 11.24962891 -0.05347656 10.06175781 -0.04882812 8.83789062 C-0.03699686 5.89190588 -0.01906076 2.94594684 0 0 Z " fill="#FAFAFA" transform="translate(169,80)"/>
<path d="M0 0 C2.2734375 -0.078125 2.2734375 -0.078125 5 1 C6.66856768 3.91560248 7.60967256 7.0582994 8.625 10.25 C9.1958446 11.96510516 9.7712491 13.67870046 10.3515625 15.390625 C10.62387695 16.19564453 10.89619141 17.00066406 11.17675781 17.83007812 C12.16020575 20.42227423 13.50928801 22.66906853 15 25 C15 25.66 15 26.32 15 27 C12.69 26.67 10.38 26.34 8 26 C7.34 23.36 6.68 20.72 6 18 C3.03 18.33 0.06 18.66 -3 19 C-3.433125 20.134375 -3.86625 21.26875 -4.3125 22.4375 C-4.869375 23.613125 -5.42625 24.78875 -6 26 C-6.99 26.33 -7.98 26.66 -9 27 C-8.39054642 21.66728116 -6.60749836 17.25017692 -4.5 12.375 C-3.86205212 10.8838929 -3.22654891 9.39173701 -2.59375 7.8984375 C-2.31208984 7.24536621 -2.03042969 6.59229492 -1.74023438 5.91943359 C-0.98732127 3.96712394 -0.4646792 2.03835498 0 0 Z M0 8 C-0.66 10.64 -1.32 13.28 -2 16 C0.31 16 2.62 16 5 16 C4.22969878 12.51190809 4.22969878 12.51190809 3 9 C2.01 8.67 1.02 8.34 0 8 Z " fill="#FAFAFA" transform="translate(89,47)"/>
<path d="M0 0 C1.32 0 2.64 0 4 0 C4 0.99 4 1.98 4 3 C5.670625 2.7215625 5.670625 2.7215625 7.375 2.4375 C11 2 11 2 13 3 C13.40729228 5.32156597 13.74438677 7.6568787 14 10 C12.02 10.99 12.02 10.99 10 12 C9.67 11.01 9.34 10.02 9 9 C8.67 9.99 8.34 10.98 8 12 C5.69 12.33 3.38 12.66 1 13 C-0.125 9.25 -0.125 9.25 1 7 C-0.32 7.33 -1.64 7.66 -3 8 C-3 10.31 -3 12.62 -3 15 C-4.6396875 15.2165625 -4.6396875 15.2165625 -6.3125 15.4375 C-9.93122987 15.88288104 -9.93122987 15.88288104 -13 17 C-15.28773145 15.18887927 -15.95209822 14.39279457 -16.3125 11.4375 C-16 9 -16 9 -14 7 C-10.875 6.875 -10.875 6.875 -8 7 C-8 8.65 -8 10.3 -8 12 C-7.34 12 -6.68 12 -6 12 C-6.33 10.02 -6.66 8.04 -7 6 C-4.625 4.9375 -4.625 4.9375 -2 4 C-1.34 4.33 -0.68 4.66 0 5 C0 3.35 0 1.7 0 0 Z M3 3 C3 4.98 3 6.96 3 9 C3.99 9.495 3.99 9.495 5 10 C5.77242269 8.16299211 5.77242269 8.16299211 6 6 C4.64555699 4.22809091 4.64555699 4.22809091 3 3 Z M-13 10 C-12.67 11.32 -12.34 12.64 -12 14 C-11.34 12.68 -10.68 11.36 -10 10 C-10.99 10 -11.98 10 -13 10 Z " fill="#FAFAFA" transform="translate(63,183)"/>
<path d="M0 0 C0.33 1.65 0.66 3.3 1 5 C-0.216875 4.608125 -1.43375 4.21625 -2.6875 3.8125 C-5.99263255 2.96428014 -6.66086533 2.83780516 -9.875 4.375 C-10.57625 4.91125 -11.2775 5.4475 -12 6 C-12.66 6 -13.32 6 -14 6 C-15.19084133 12.32724129 -15.23429248 16.33998816 -12 22 C-8.51195905 24.32536063 -7.09859246 24.33457898 -3 24 C-0.69769234 23.10168984 -0.69769234 23.10168984 1 22 C1 22.99 1 23.98 1 25 C-2.73940565 27.4929371 -6.66477404 27.54294737 -11 27 C-15.17905855 25.42299677 -17.70772617 23.86067171 -20 20 C-21.3605163 15.91845111 -21.80116991 12.23411951 -20.31640625 8.09375 C-18.73184754 4.99038191 -17.2396757 3.18121821 -14.4375 1.0625 C-9.59988585 -0.43276256 -5.02258126 -0.24129839 0 0 Z " fill="#FAFAFA" transform="translate(179,111)"/>
<path d="M0 0 C0.66 0.33 1.32 0.66 2 1 C2 2.32 2 3.64 2 5 C0.80375 4.608125 -0.3925 4.21625 -1.625 3.8125 C-5.01827968 2.95816363 -5.90514104 2.9666237 -9.375 4.1875 C-12.19958851 5.89907365 -12.19958851 5.89907365 -14 9 C-14.46418669 13.71923133 -14.40781619 16.10280438 -12.4375 20.4375 C-10.15474631 23.26767181 -10.15474631 23.26767181 -6.5625 24 C-3.08311189 24 -1.06169832 23.57723853 2 22 C1.6875 23.9375 1.6875 23.9375 1 26 C-4.02858199 27.676194 -8.34030411 27.60642735 -13.25 25.8125 C-16.44026198 23.70982733 -18.13874348 22.36457909 -20 19 C-20.82440161 13.96946775 -20.56768467 10.1563947 -18.3125 5.5625 C-12.84315132 -0.49812961 -7.87666809 -0.65955997 0 0 Z " fill="#FAFAFA" transform="translate(79,111)"/>
<path d="M0 0 C6.27 0 12.54 0 19 0 C19 1.32 19 2.64 19 4 C16.69 3.67 14.38 3.34 12 3 C12.0721875 3.57105469 12.144375 4.14210938 12.21875 4.73046875 C13.03217777 11.83666412 13.10081943 18.85302234 13 26 C11.02 26 9.04 26 7 26 C7 18.74 7 11.48 7 4 C4.69 4 2.38 4 0 4 C0 2.68 0 1.36 0 0 Z " fill="#FAFAFA" transform="translate(102,47)"/>
<path d="M0 0 C0.99 0 1.98 0 3 0 C3.33773437 0.78246094 3.67546875 1.56492188 4.0234375 2.37109375 C4.46945313 3.38300781 4.91546875 4.39492187 5.375 5.4375 C5.81585938 6.44683594 6.25671875 7.45617187 6.7109375 8.49609375 C7.75076286 11.12143547 7.75076286 11.12143547 10 12 C10.268125 11.13375 10.53625 10.2675 10.8125 9.375 C11.97111987 6.08208036 13.38209839 3.08872125 15 0 C15.99 0 16.98 0 18 0 C18.66 5.94 19.32 11.88 20 18 C18.35 18 16.7 18 15 18 C14.67 15.03 14.34 12.06 14 9 C11.0459281 13.26577569 11.0459281 13.26577569 9 18 C8.01 17.67 7.02 17.34 6 17 C5.05078125 14.93359375 5.05078125 14.93359375 4.3125 12.4375 C4.06113281 11.61121094 3.80976562 10.78492188 3.55078125 9.93359375 C3.36902344 9.29550781 3.18726562 8.65742188 3 8 C2.34 8 1.68 8 1 8 C1 11.3 1 14.6 1 18 C0.01 18 -0.98 18 -2 18 C-1.48758893 11.97099313 -0.930215 5.97995357 0 0 Z " fill="#FAFAFA" transform="translate(111,143)"/>
<path d="M0 0 C1.90845703 0.05414063 1.90845703 0.05414063 3.85546875 0.109375 C5.31919922 0.17898437 5.31919922 0.17898437 6.8125 0.25 C6.8125 2.23 6.8125 4.21 6.8125 6.25 C7.8025 4.6 8.7925 2.95 9.8125 1.25 C12.2875 1.745 12.2875 1.745 14.8125 2.25 C15.8451802 5.03823655 15.85759293 6.1177274 14.875 9 C14.3490625 10.11375 14.3490625 10.11375 13.8125 11.25 C13.02875 11.085 12.245 10.92 11.4375 10.75 C8.14415804 10.12269677 6.01690957 10.39549078 2.8125 11.25 C2.8125 8.94 2.8125 6.63 2.8125 4.25 C2.1525 6.23 1.4925 8.21 0.8125 10.25 C-2.4875 10.25 -5.7875 10.25 -9.1875 10.25 C-10.51423267 4.94306931 -10.51423267 4.94306931 -9.15625 2.0625 C-6.22067185 -0.64009576 -3.90484984 -0.14329724 0 0 Z M-6.1875 2.25 C-5.1875 4.25 -5.1875 4.25 -5.1875 4.25 Z M-2.1875 2.25 C-2.8475 3.9 -3.5075 5.55 -4.1875 7.25 C-3.5275 7.91 -2.8675 8.57 -2.1875 9.25 C-1.5275 7.27 -0.8675 5.29 -0.1875 3.25 C-0.8475 2.92 -1.5075 2.59 -2.1875 2.25 Z " fill="#FAFAFA" transform="translate(135.1875,181.75)"/>
<path d="M0 0 C1.98 0 3.96 0 6 0 C6 7.92 6 15.84 6 24 C9.96 23.505 9.96 23.505 14 23 C13.67 24.32 13.34 25.64 13 27 C8.71 26.67 4.42 26.34 0 26 C0 17.42 0 8.84 0 0 Z " fill="#FAFAFA" transform="translate(86,111)"/>
<path d="M0 0 C1.65 0 3.3 0 5 0 C5 1.98 5 3.96 5 6 C7.64 6.33 10.28 6.66 13 7 C12.67 4.69 12.34 2.38 12 0 C13.65 0 15.3 0 17 0 C17 5.94 17 11.88 17 18 C15.35 18 13.7 18 12 18 C12 15.36 12 12.72 12 10 C9.69 10 7.38 10 5 10 C5 12.64 5 15.28 5 18 C3.35 18 1.7 18 0 18 C0 12.06 0 6.12 0 0 Z " fill="#FAFAFA" transform="translate(112,23)"/>
<path d="M0 0 C1.98 0 3.96 0 6 0 C6 8.58 6 17.16 6 26 C4.02 26 2.04 26 0 26 C0 17.42 0 8.84 0 0 Z " fill="#FAFAFA" transform="translate(147,111)"/>
<path d="M0 0 C1.98 0 3.96 0 6 0 C6 8.58 6 17.16 6 26 C4.02 26 2.04 26 0 26 C0 17.42 0 8.84 0 0 Z " fill="#FAFAFA" transform="translate(105,111)"/>
<path d="M0 0 C1.67542976 0.28604898 3.34385343 0.61781233 5 1 C4.67 1.99 4.34 2.98 4 4 C3.01 4 2.02 4 1 4 C2.89755144 6.34973818 2.89755144 6.34973818 6.125 6.125 C7.548125 6.063125 7.548125 6.063125 9 6 C10.16095535 8.84961767 10.06567925 9.83945073 8.875 12.75 C7 15 7 15 4.3125 15.3125 C3.549375 15.209375 2.78625 15.10625 2 15 C1.67 13.02 1.34 11.04 1 9 C1.04125 9.78375 1.0825 10.5675 1.125 11.375 C1 14 1 14 -1 16 C-1.99 16 -2.98 16 -4 16 C-4.34963286 10.17278563 -4.19639756 6.11423609 -1 1 C-0.67 0.67 -0.34 0.34 0 0 Z M5 8 C5 9.32 5 10.64 5 12 C5.66 11.67 6.32 11.34 7 11 C6.67 10.01 6.34 9.02 6 8 C5.67 8 5.34 8 5 8 Z " fill="#FAFAFA" transform="translate(93,177)"/>
<path d="M0 0 C2.31 0.33 4.62 0.66 7 1 C7.33 1.99 7.66 2.98 8 4 C7.01 5.485 7.01 5.485 6 7 C7.32 7.33 8.64 7.66 10 8 C10 6.68 10 5.36 10 4 C11.875 3.375 11.875 3.375 14 3 C16 5 16 5 16 8 C15.34 8 14.68 8 14 8 C14 9.32 14 10.64 14 12 C7.98579743 12.38388527 3.65404897 11.08764885 -2 9 C-1.34 6.03 -0.68 3.06 0 0 Z M2 4 C1.67 5.65 1.34 7.3 1 9 C2.32 7.68 3.64 6.36 5 5 C4.01 4.67 3.02 4.34 2 4 Z M11 6 C11.66 6.66 12.32 7.32 13 8 C13 7.34 13 6.68 13 6 C12.34 6 11.68 6 11 6 Z " fill="#FAFAFA" transform="translate(187,191)"/>
<path d="M0 0 C0 1.32 0 2.64 0 4 C-1.258125 3.773125 -2.51625 3.54625 -3.8125 3.3125 C-7.02316322 2.89952897 -7.02316322 2.89952897 -10 4 C-11.53752647 7.07505294 -11.30156712 9.62244827 -11 13 C-10.01 14.485 -10.01 14.485 -9 16 C-6.79274927 16.36362818 -6.79274927 16.36362818 -4.375 16.1875 C-3.55773437 16.16042969 -2.74046875 16.13335937 -1.8984375 16.10546875 C-0.95871094 16.05326172 -0.95871094 16.05326172 0 16 C-0.33 16.99 -0.66 17.98 -1 19 C-4.47333809 20.15777936 -6.06087844 19.98110669 -9.625 18.875 C-13.30055587 16.83302451 -14.60055 15.93595313 -16 12 C-16.18148748 8.03883854 -15.53590473 4.97437224 -13.625 1.5 C-9.34441259 -0.94604995 -4.81556356 -0.29889705 0 0 Z " fill="#FAFAFA" transform="translate(149,143)"/>
<path d="M0 0 C0.66 0 1.32 0 2 0 C2.33773437 0.88042969 2.67546875 1.76085937 3.0234375 2.66796875 C3.46945313 3.82941406 3.91546875 4.99085938 4.375 6.1875 C4.81585938 7.33605469 5.25671875 8.48460937 5.7109375 9.66796875 C6.78852143 12.45335994 7.8836443 15.22997721 9 18 C7.35 18 5.7 18 4 18 C3.67 16.68 3.34 15.36 3 14 C0.12635209 13.58253392 0.12635209 13.58253392 -3 14 C-4.9354148 16.39056942 -4.9354148 16.39056942 -6 19 C-6.66 18.34 -7.32 17.68 -8 17 C-6.85700498 14.35290709 -5.71075628 11.70730948 -4.5625 9.0625 C-4.23701172 8.30775391 -3.91152344 7.55300781 -3.57617188 6.77539062 C-1.11328125 1.11328125 -1.11328125 1.11328125 0 0 Z M-1 6 C-1.33 7.98 -1.66 9.96 -2 12 C-0.68 12 0.64 12 2 12 C1.67 10.02 1.34 8.04 1 6 C0.34 6 -0.32 6 -1 6 Z " fill="#FAFAFA" transform="translate(98,143)"/>
<path d="M0 0 C2.31 0.33 4.62 0.66 7 1 C6.67 2.65 6.34 4.3 6 6 C5.01 5.67 4.02 5.34 3 5 C3 4.34 3 3.68 3 3 C1.68 3.33 0.36 3.66 -1 4 C-1.33 5.65 -1.66 7.3 -2 9 C-0.68 9.66 0.64 10.32 2 11 C2 10.34 2 9.68 2 9 C1.34 9 0.68 9 0 9 C0 8.34 0 7.68 0 7 C1.98 7 3.96 7 6 7 C5.67 9.31 5.34 11.62 5 14 C1.67707176 15.04434887 0.43241099 15.2162055 -2.75 13.625 C-5 12 -5 12 -6 11 C-5.82364548 8.30917128 -5.38164079 5.67148554 -5 3 C-3.35 2.67 -1.7 2.34 0 2 C0 1.34 0 0.68 0 0 Z " fill="#FAFAFA" transform="translate(119,177)"/>
<path d="M0 0 C3.63 0 7.26 0 11 0 C10.67 0.99 10.34 1.98 10 3 C7.03 2.505 7.03 2.505 4 2 C4.33 3.65 4.66 5.3 5 7 C6.98 7 8.96 7 11 7 C11 7.99 11 8.98 11 10 C8.69 10 6.38 10 4 10 C4 12.31 4 14.62 4 17 C7.465 16.505 7.465 16.505 11 16 C11 16.66 11 17.32 11 18 C7.37 18 3.74 18 0 18 C0 12.06 0 6.12 0 0 Z " fill="#FAFAFA" transform="translate(133,23)"/>
<path d="M0 0 C5.625 -0.25 5.625 -0.25 9 2 C8.67 2.99 8.34 3.98 8 5 C5.69 4.67 3.38 4.34 1 4 C1.33 5.98 1.66 7.96 2 10 C3.32 10.33 4.64 10.66 6 11 C6 10.34 6 9.68 6 9 C6.99 9 7.98 9 9 9 C8.125 12.875 8.125 12.875 7 14 C3.5625 14.25 3.5625 14.25 0 14 C-2.46751239 10.29873141 -2.30721156 8.37776468 -2 4 C-1 1.5625 -1 1.5625 0 0 Z " fill="#FAFAFA" transform="translate(38,188)"/>
<path d="M0 0 C-0.11344376 2.1464753 -0.24106345 4.29220592 -0.375 6.4375 C-0.44460937 7.63246094 -0.51421875 8.82742187 -0.5859375 10.05859375 C-0.72257812 11.02925781 -0.85921875 11.99992188 -1 13 C-3.86177057 14.43088528 -5.93375773 13.59991697 -9 13 C-8.814375 12.4225 -8.62875 11.845 -8.4375 11.25 C-7.84176441 9.03334176 -7.84176441 9.03334176 -8.5 7 C-9.08662023 4.65351906 -8.73092672 3.27399422 -8 1 C-5.23735711 0.40267181 -2.83967231 0 0 0 Z M-6 4 C-6 5.32 -6 6.64 -6 8 C-5.34 8 -4.68 8 -4 8 C-3.67 6.68 -3.34 5.36 -3 4 C-3.99 4 -4.98 4 -6 4 Z " fill="#FAFAFA" transform="translate(86,183)"/>
<path d="M0 0 C4.95 0 9.9 0 15 0 C14.67 0.99 14.34 1.98 14 3 C12.35 2.67 10.7 2.34 9 2 C9.33 7.28 9.66 12.56 10 18 C8.68 18 7.36 18 6 18 C5.67 12.72 5.34 7.44 5 2 C3.68 2.33 2.36 2.66 1 3 C0.67 2.01 0.34 1.02 0 0 Z " fill="#FAFAFA" transform="translate(95,23)"/>
<path d="M0 0 C-0.33 1.65 -0.66 3.3 -1 5 C-1.99 5 -2.98 5 -4 5 C-4 6.98 -4 8.96 -4 11 C-5.32 11 -6.64 11 -8 11 C-8 7.7 -8 4.4 -8 1 C-5.29120665 -0.35439668 -2.99066732 -0.06501451 0 0 Z " fill="#FAFAFA" transform="translate(111,181)"/>
<path d="M0 0 C1.65 0 3.3 0 5 0 C4.01 0.33 3.02 0.66 2 1 C2.33 3.64 2.66 6.28 3 9 C2.01 9 1.02 9 0 9 C0 6.03 0 3.06 0 0 Z " fill="#FAFAFA" transform="translate(75,218)"/>
<path d="M0 0 C0.66 0 1.32 0 2 0 C2.625 3.375 2.625 3.375 3 7 C2.34 7.66 1.68 8.32 1 9 C1 8.34 1 7.68 1 7 C-0.32 6.67 -1.64 6.34 -3 6 C-1.68 5.67 -0.36 5.34 1 5 C0.34 3.68 -0.32 2.36 -1 1 C-0.67 0.67 -0.34 0.34 0 0 Z " fill="#FAFAFA" transform="translate(154,218)"/>
<path d="M0 0 C0.99 0 1.98 0 3 0 C3 2.64 3 5.28 3 8 C2.01 7.67 1.02 7.34 0 7 C0 4.69 0 2.38 0 0 Z " fill="#FAFAFA" transform="translate(86,219)"/>
<path d="M0 0 C0.99 0.33 1.98 0.66 3 1 C3 3.64 3 6.28 3 9 C2.34 9 1.68 9 1 9 C0.67 6.03 0.34 3.06 0 0 Z " fill="#FAFAFA" transform="translate(114,218)"/>
<path d="M0 0 C0.99 0.33 1.98 0.66 3 1 C2.67 3.64 2.34 6.28 2 9 C1.34 9 0.68 9 0 9 C0 6.03 0 3.06 0 0 Z " fill="#FAFAFA" transform="translate(103,218)"/>
<path d="M0 0 C0.66 0 1.32 0 2 0 C3.2077558 3.62326739 2.54311128 4.64146369 1 8 C0.34 8 -0.32 8 -1 8 C-0.67 5.36 -0.34 2.72 0 0 Z " fill="#FAFAFA" transform="translate(148,219)"/>
<path d="M0 0 C0.66 0 1.32 0 2 0 C2 2.97 2 5.94 2 9 C1.34 9 0.68 9 0 9 C0 6.03 0 3.06 0 0 Z " fill="#FAFAFA" transform="translate(131,218)"/>
<path d="M0 0 C0.99 0 1.98 0 3 0 C3 2.64 3 5.28 3 8 C2.34 8 1.68 8 1 8 C0.67 5.36 0.34 2.72 0 0 Z " fill="#FAFAFA" transform="translate(139,219)"/>
<path d="M0 0 C0.66 0 1.32 0 2 0 C2 1.98 2 3.96 2 6 C1.34 6 0.68 6 0 6 C-1.125 2.25 -1.125 2.25 0 0 Z " fill="#FAFAFA" transform="translate(128,221)"/>
<path d="M0 0 C1.9375 0.8125 1.9375 0.8125 4 2 C4.33 2.99 4.66 3.98 5 5 C3.0625 4.1875 3.0625 4.1875 1 3 C0.67 2.01 0.34 1.02 0 0 Z " fill="#FAFAFA" transform="translate(109,221)"/>
<path d="M0 0 C0.99 0 1.98 0 3 0 C3 1.98 3 3.96 3 6 C2.34 6 1.68 6 1 6 C0.67 4.02 0.34 2.04 0 0 Z " fill="#FAFAFA" transform="translate(92,221)"/>
<path d="M0 0 C3 3.75 3 3.75 3 6 C1.68 5.34 0.36 4.68 -1 4 C-0.67 2.68 -0.34 1.36 0 0 Z " fill="#FAFAFA" transform="translate(82,220)"/>
<path d="M0 0 C0.99 0.33 1.98 0.66 3 1 C3 1.99 3 2.98 3 4 C2.01 4.33 1.02 4.66 0 5 C0 3.35 0 1.7 0 0 Z " fill="#FAFAFA" transform="translate(162,222)"/>
<path d="M0 0 C0.66 0 1.32 0 2 0 C2 1.98 2 3.96 2 6 C1.34 6 0.68 6 0 6 C0 4.02 0 2.04 0 0 Z " fill="#FAFAFA" transform="translate(122,221)"/>
<path d="M0 0 C0.66 0 1.32 0 2 0 C2 1.65 2 3.3 2 5 C1.01 4.34 0.02 3.68 -1 3 C-0.67 2.01 -0.34 1.02 0 0 Z " fill="#FAFAFA" transform="translate(145,219)"/>
<path d="M0 0 C0.33 0 0.66 0 1 0 C1 2.97 1 5.94 1 9 C-1.14809171 5.77786243 -1.29386153 4.72224599 -1 1 C-0.67 0.67 -0.34 0.34 0 0 Z " fill="#FAFAFA" transform="translate(97,217)"/>
<path d="M0 0 C3.63 0 7.26 0 11 0 C11 0.33 11 0.66 11 1 C7.37 1 3.74 1 0 1 C0 0.67 0 0.34 0 0 Z " fill="#FAFAFA" transform="translate(113,0)"/>
<path d="M0 0 C0 2.83967231 -0.40267181 5.23735711 -1 8 C-1.33 8 -1.66 8 -2 8 C-2.125 5.125 -2.125 5.125 -2 2 C-1.34 1.34 -0.68 0.68 0 0 Z " fill="#FAFAFA" transform="translate(161,218)"/>
<path d="M0 0 C0.99 0.495 0.99 0.495 2 1 C1.67 2.65 1.34 4.3 1 6 C0.67 6 0.34 6 0 6 C0 4.02 0 2.04 0 0 Z " fill="#FAFAFA" transform="translate(100,221)"/>
<path d="M0 0 C2.475 0.495 2.475 0.495 5 1 C5 1.33 5 1.66 5 2 C3.35 2 1.7 2 0 2 C0 1.34 0 0.68 0 0 Z " fill="#FAFAFA" transform="translate(66,209)"/>
<path d="M0 0 C0.99 0 1.98 0 3 0 C3 0.99 3 1.98 3 3 C2.01 2.67 1.02 2.34 0 2 C0 1.34 0 0.68 0 0 Z " fill="#FAFAFA" transform="translate(106,224)"/>
<path d="M0 0 C0.66 0 1.32 0 2 0 C2 1.98 2 3.96 2 6 C1.67 6 1.34 6 1 6 C0.67 4.02 0.34 2.04 0 0 Z " fill="#FAFAFA" transform="translate(118,221)"/>
<path d="M0 0 C0.66 0.33 1.32 0.66 2 1 C1.01 1.99 0.02 2.98 -1 4 C-0.67 2.68 -0.34 1.36 0 0 Z " fill="#FAFAFA" transform="translate(17,184)"/>
<path d="M0 0 C0.66 0 1.32 0 2 0 C2 0.99 2 1.98 2 3 C1.34 3 0.68 3 0 3 C0 2.01 0 1.02 0 0 Z " fill="#FAFAFA" transform="translate(90,224)"/>
<path d="M0 0 C0.66 1.32 1.32 2.64 2 4 C1.34 3.67 0.68 3.34 0 3 C0 2.01 0 1.02 0 0 Z " fill="#FAFAFA" transform="translate(181,222)"/>
<path d="M0 0 C0.66 0 1.32 0 2 0 C1.67 0.99 1.34 1.98 1 3 C0.67 2.01 0.34 1.02 0 0 Z " fill="#FAFAFA" transform="translate(125,221)"/>
<path d="M0 0 C0.66 0.33 1.32 0.66 2 1 C1.01 1 0.02 1 -1 1 C-0.67 0.67 -0.34 0.34 0 0 Z " fill="#FAFAFA" transform="translate(225,234)"/>
<path d="M0 0 C0.99 0.495 0.99 0.495 2 1 C1.67 1.66 1.34 2.32 1 3 C0.67 2.01 0.34 1.02 0 0 Z " fill="#FAFAFA" transform="translate(1,204)"/>
<path d="M0 0 C0.66 0 1.32 0 2 0 C2 0.66 2 1.32 2 2 C1.34 2 0.68 2 0 2 C0 1.34 0 0.68 0 0 Z " fill="#FAFAFA" transform="translate(42,169)"/>
<path d="" fill="#FAFAFA" transform="translate(0,0)"/>
<path d="M0 0 C0.66 0.66 1.32 1.32 2 2 C1.34 2 0.68 2 0 2 C0 1.34 0 0.68 0 0 Z " fill="#FAFAFA" transform="translate(52,225)"/>
<path d="M0 0 C2 1 2 1 2 1 Z " fill="#FAFAFA" transform="translate(107,218)"/>
<path d="M0 0 C2 1 2 1 2 1 Z " fill="#FAFAFA" transform="translate(58,213)"/>
<path d="M0 0 C2 1 2 1 2 1 Z " fill="#FAFAFA" transform="translate(79,209)"/>
<path d="M0 0 C2 1 2 1 2 1 Z " fill="#FAFAFA" transform="translate(148,208)"/>
<path d="" fill="#FAFAFA" transform="translate(0,0)"/>
<path d="M0 0 C2 1 2 1 2 1 Z " fill="#FAFAFA" transform="translate(32,150)"/>
<path d="" fill="#FAFAFA" transform="translate(0,0)"/>
<path d="" fill="#FAFAFA" transform="translate(0,0)"/>
<path d="" fill="#FAFAFA" transform="translate(0,0)"/>
<path d="" fill="#FAFAFA" transform="translate(0,0)"/>
<path d="" fill="#FAFAFA" transform="translate(0,0)"/>
<path d="" fill="#FAFAFA" transform="translate(0,0)"/>
<path d="" fill="#FAFAFA" transform="translate(0,0)"/>
<path d="" fill="#FAFAFA" transform="translate(0,0)"/>
<path d="" fill="#FAFAFA" transform="translate(0,0)"/>
<path d="" fill="#FAFAFA" transform="translate(0,0)"/>
<path d="" fill="#FAFAFA" transform="translate(0,0)"/>
<path d="" fill="#FAFAFA" transform="translate(0,0)"/>
<path d="" fill="#FAFAFA" transform="translate(0,0)"/>
<path d="" fill="#FAFAFA" transform="translate(0,0)"/>
<path d="" fill="#FAFAFA" transform="translate(0,0)"/>
<path d="" fill="#FAFAFA" transform="translate(0,0)"/>
<path d="" fill="#FAFAFA" transform="translate(0,0)"/>
<path d="" fill="#FAFAFA" transform="translate(0,0)"/>
<path d="" fill="#FAFAFA" transform="translate(0,0)"/>
</svg>
