<?xml version="1.0" encoding="UTF-8"?>
<svg version="1.1" xmlns="http://www.w3.org/2000/svg" width="500" height="103">
<path d="M0 0 C8.17824952 2.39707314 15.46651278 6.08858772 23 10 C21.68 10.33 20.36 10.66 19 11 C22.94307315 14.40899696 26.90470548 17.77340432 31 21 C31.33 17.37 31.66 13.74 32 10 C30.68 10.33 29.36 10.66 28 11 C28.60694155 7.84669446 29.6416665 5.81111133 31.5625 3.25 C32.01753906 2.63640625 32.47257812 2.0228125 32.94140625 1.390625 C33.46541016 0.70226562 33.46541016 0.70226562 34 0 C38.08596252 1.52763464 39.79826179 4.11084191 42.25 7.625 C42.95640625 8.62789062 43.6628125 9.63078125 44.390625 10.6640625 C44.92171875 11.43492188 45.4528125 12.20578125 46 13 C45.67 13.66 45.34 14.32 45 15 C44.01 14.34 43.02 13.68 42 13 C43.32 16.96 44.64 20.92 46 25 C48.64 23.35 51.28 21.7 54 20 C53.01 19.01 52.02 18.02 51 17 C55.98645274 15.67027927 60.87777466 15.93170366 66 16 C66 20.62 66 25.24 66 30 C65.34 29.67 64.68 29.34 64 29 C64 28.01 64 27.02 64 26 C63.34 26 62.68 26 62 26 C61.731875 26.7425 61.46375 27.485 61.1875 28.25 C60 31 60 31 57 35 C61.29 35.66 65.58 36.32 70 37 C70 36.01 70 35.02 70 34 C72.29674382 35.26230959 74.58714709 36.53425733 76.875 37.8125 C77.52597656 38.16892578 78.17695312 38.52535156 78.84765625 38.89257812 C82.06597903 40.70081103 83.9196783 41.87951745 86 45 C82.37 47.31 78.74 49.62 75 52 C74.67 51.34 74.34 50.68 74 50 C74.33 49.01 74.66 48.02 75 47 C70.38 47.33 65.76 47.66 61 48 C65.26706172 51.76080016 69.51641748 55.49720115 74 59 C74.33 58.01 74.66 57.02 75 56 C79.74728968 62.66640679 83.47851723 69.61987122 87 77 C80.3227105 76.39297368 74.29872004 74.22368606 68 72 C68.33 71.34 68.66 70.68 69 70 C69.99 70 70.98 70 72 70 C72 69.34 72 68.68 72 68 C70.824375 67.7215625 70.824375 67.7215625 69.625 67.4375 C64.52092787 65.4134714 60.39631503 62.24945024 56 59 C56.64138224 61.98019006 57.2878731 64.95910676 57.9375 67.9375 C58.11990234 68.78763672 58.30230469 69.63777344 58.49023438 70.51367188 C58.75610352 71.72700195 58.75610352 71.72700195 59.02734375 72.96484375 C59.18968506 73.7137085 59.35202637 74.46257324 59.51928711 75.23413086 C59.84622796 77.01174303 59.84622796 77.01174303 61 78 C61.99 77.01 62.98 76.02 64 75 C64.29211698 83.86088167 63.44796872 92.26047454 62 101 C61.34 101 60.68 101 60 101 C58.31640268 98.99160249 56.74129864 96.98029418 55.1875 94.875 C54.32807135 93.72562794 53.46739687 92.57718636 52.60546875 91.4296875 C52.18056152 90.86088867 51.7556543 90.29208984 51.31787109 89.70605469 C49.988917 87.98565246 48.59524275 86.34142752 47.17578125 84.6953125 C45 82 45 82 45 80 C46.98 80.33 48.96 80.66 51 81 C50.60167969 80.2265625 50.20335938 79.453125 49.79296875 78.65625 C46.84216654 72.85515952 44.12937848 67.15153783 42 61 C41.18595703 62.55460937 41.18595703 62.55460937 40.35546875 64.140625 C39.63299391 65.51051236 38.91032757 66.88029873 38.1875 68.25 C37.83107422 68.93191406 37.47464844 69.61382812 37.10742188 70.31640625 C35.28746373 73.75596018 33.47369319 76.97226196 31 80 C33.31 79.67 35.62 79.34 38 79 C36.91588509 82.25234474 36.22803669 82.9217165 33.6875 85.0625 C32.97851562 85.66320312 32.26953125 86.26390625 31.5390625 86.8828125 C30.70117188 87.58148438 29.86328125 88.28015625 29 89 C27.94491728 89.8927623 26.89025215 90.78601827 25.8359375 91.6796875 C24.74525061 92.59950281 23.6541064 93.51877613 22.5625 94.4375 C22.03035889 94.88681885 21.49821777 95.3361377 20.94995117 95.79907227 C17.11615926 99 17.11615926 99 16 99 C15.67 89.1 15.34 79.2 15 69 C15.66 69 16.32 69 17 69 C18.625 71.5 18.625 71.5 20 74 C20.27585938 73.17242187 20.55171875 72.34484375 20.8359375 71.4921875 C22.890625 65.328125 24.9453125 59.1640625 27 53 C25.75863281 53.433125 24.51726563 53.86625 23.23828125 54.3125 C21.59649108 54.87539949 19.95455633 55.4378774 18.3125 56 C17.49587891 56.28617188 16.67925781 56.57234375 15.83789062 56.8671875 C8.32355667 59.42266949 8.32355667 59.42266949 4 59 C4 59.66 4 60.32 4 61 C5.98 61.66 7.96 62.32 10 63 C10 63.66 10 64.32 10 65 C-0.56 65 -11.12 65 -22 65 C-20.27411242 61.54822484 -19.35431135 60.13370871 -16.6640625 57.65234375 C-16.01179688 57.04712891 -15.35953125 56.44191406 -14.6875 55.81835938 C-14.006875 55.19767578 -13.32625 54.57699219 -12.625 53.9375 C-11.95210937 53.31294922 -11.27921875 52.68839844 -10.5859375 52.04492188 C-7.4904422 49.19011961 -4.40119228 46.48937333 -1 44 C-1 46.31 -1 48.62 -1 51 C-0.38253906 50.61328125 0.23492188 50.2265625 0.87109375 49.828125 C1.71800781 49.30734375 2.56492187 48.7865625 3.4375 48.25 C4.26121094 47.73953125 5.08492187 47.2290625 5.93359375 46.703125 C9.84476878 44.53080358 13.89131243 42.76272483 18 41 C14.87694627 39.82807565 11.75125261 38.66336124 8.625 37.5 C7.73554687 37.16613281 6.84609375 36.83226562 5.9296875 36.48828125 C4.65351562 36.01455078 4.65351562 36.01455078 3.3515625 35.53125 C2.56604004 35.23798828 1.78051758 34.94472656 0.97119141 34.64257812 C-0.97137234 33.89668911 -0.97137234 33.89668911 -3 34 C-2.67 35.65 -2.34 37.3 -2 39 C-2.65484375 38.57589844 -3.3096875 38.15179688 -3.984375 37.71484375 C-10.13783966 33.76028666 -16.36625408 30.03169881 -22.76171875 26.48046875 C-23.50035156 25.99191406 -24.23898438 25.50335937 -25 25 C-25 24.34 -25 23.68 -25 23 C-15.65438032 21.53708385 -6.44363607 20.54537716 3 20 C3 20.66 3 21.32 3 22 C2.01 22.66 1.02 23.32 0 24 C6.6 24.99 13.2 25.98 20 27 C18.741875 25.5975 17.48375 24.195 16.1875 22.75 C13.64837833 19.91950371 11.23655934 17.07615102 9 14 C8.01 14.99 7.02 15.98 6 17 C5.18167278 15.10667466 4.37057732 13.21022267 3.5625 11.3125 C3.11003906 10.25675781 2.65757813 9.20101563 2.19140625 8.11328125 C1.14552545 5.38027471 0.46479252 2.87957663 0 0 Z " fill="#FFFFFF" transform="translate(25,1)"/>
<path d="M0 0 C11 0 11 0 15 2 C16.82611864 5.65223727 16.008558 10.01647317 15.9375 14.03125 C15.78651752 16.92994225 15.78651752 16.92994225 17 19 C17.1729629 20.78633815 17.2668055 22.58088959 17.3125 24.375 C17.34988281 25.33148438 17.38726562 26.28796875 17.42578125 27.2734375 C17 30 17 30 13 34 C8.71 34 4.42 34 0 34 C0 22.78 0 11.56 0 0 Z M4 4 C4 7.63 4 11.26 4 15 C6.3431213 14.74438677 8.67843403 14.40729228 11 14 C12.38125018 11.23749964 12.19079306 9.05268901 12 6 C10.10244856 3.65026182 10.10244856 3.65026182 6.875 3.875 C5.92625 3.91625 4.9775 3.9575 4 4 Z M4 19 C4 22.63 4 26.26 4 30 C7.41642759 30.25015873 7.41642759 30.25015873 11 30 C13.38798682 27.09414313 13.38798682 27.09414313 12.6875 23.375 C12.35886877 20.17495688 12.35886877 20.17495688 11 19 C8.66702567 18.95907063 6.33294775 18.95758277 4 19 Z " fill="#FFFFFF" transform="translate(123,45)"/>
<path d="M0 0 C12 0 12 0 16 3 C17.75100028 8.2831905 16.99102486 12.8979988 15 18 C15.33 18.66 15.66 19.32 16 20 C16.38923527 22.36950521 16.7380578 24.7457572 17.0625 27.125 C17.23910156 28.40632813 17.41570312 29.68765625 17.59765625 31.0078125 C17.79681641 32.48894531 17.79681641 32.48894531 18 34 C16.35 34 14.7 34 13 34 C11.64908472 31.29816945 11.66141942 28.88191794 11.4375 25.875 C11.35371094 24.77929688 11.26992187 23.68359375 11.18359375 22.5546875 C11.12300781 21.71164063 11.06242188 20.86859375 11 20 C9.02 19.67 7.04 19.34 5 19 C5 23.95 5 28.9 5 34 C3.35 34 1.7 34 0 34 C0 22.78 0 11.56 0 0 Z M5 4 C5 7.63 5 11.26 5 15 C6.98 15 8.96 15 11 15 C12.50662097 11.98675805 12.17770373 9.31713623 12 6 C11.34 5.34 10.68 4.68 10 4 C8.35 4 6.7 4 5 4 Z " fill="#FFFFFF" transform="translate(208,45)"/>
<path d="M0 0 C0.680625 -0.185625 1.36125 -0.37125 2.0625 -0.5625 C4.89667042 -1.20247396 6.49452777 -0.35430932 9 1 C9.98043964 3.94131891 10.11621202 5.82501665 10.09765625 8.88671875 C10.09443359 9.82451172 10.09121094 10.76230469 10.08789062 11.72851562 C10.07951172 12.70498047 10.07113281 13.68144531 10.0625 14.6875 C10.05798828 15.67556641 10.05347656 16.66363281 10.04882812 17.68164062 C10.03704303 20.12115474 10.02059011 22.56054689 10 25 C8.68 25 7.36 25 6 25 C5.93941406 23.73542969 5.87882812 22.47085938 5.81640625 21.16796875 C5.73199096 19.50780129 5.64734345 17.84764563 5.5625 16.1875 C5.52318359 15.35412109 5.48386719 14.52074219 5.44335938 13.66210938 C5.40146484 12.85966797 5.35957031 12.05722656 5.31640625 11.23046875 C5.27974854 10.49207764 5.24309082 9.75368652 5.20532227 8.99291992 C5.05157859 6.792505 5.05157859 6.792505 4 4 C3.01 4.33 2.02 4.66 1 5 C0.67 11.6 0.34 18.2 0 25 C-1.32 25 -2.64 25 -4 25 C-4.33 18.4 -4.66 11.8 -5 5 C-6.32 4.67 -7.64 4.34 -9 4 C-9.33 10.93 -9.66 17.86 -10 25 C-11.32 25 -12.64 25 -14 25 C-14 16.75 -14 8.5 -14 0 C-7.88711544 -0.76411057 -5.46973816 -0.99449785 0 0 Z " fill="#FFFFFF" transform="translate(435,54)"/>
<path d="M0 0 C0.08719631 4.56237931 0.14045922 9.12454386 0.1875 13.6875 C0.21263672 14.98107422 0.23777344 16.27464844 0.26367188 17.60742188 C0.27817383 19.47817383 0.27817383 19.47817383 0.29296875 21.38671875 C0.31653442 23.10701294 0.31653442 23.10701294 0.34057617 24.86206055 C-0.04133957 28.38088712 -0.81507161 30.23213057 -3 33 C-6.68827805 34.07295361 -8.87839092 34.48890652 -12.4375 32.9375 C-14.59592703 30.26105048 -14.29697766 28.34099864 -14 25 C-12.68 25 -11.36 25 -10 25 C-9.67 26.32 -9.34 27.64 -9 29 C-8.01 29 -7.02 29 -6 29 C-5.67 27.35 -5.34 25.7 -5 24 C-6.670625 24.061875 -6.670625 24.061875 -8.375 24.125 C-12 24 -12 24 -14 22 C-14.50021348 18.70975116 -14.41662352 15.38649907 -14.4375 12.0625 C-14.47037109 11.14275391 -14.50324219 10.22300781 -14.53710938 9.27539062 C-14.5902009 2.65825588 -14.5902009 2.65825588 -12.03515625 -0.19140625 C-7.83912668 -1.30926741 -4.23009037 -0.7649183 0 0 Z M-8 3 C-8.99 3.495 -8.99 3.495 -10 4 C-10 8.95 -10 13.9 -10 19 C-8.68 19.33 -7.36 19.66 -6 20 C-4.60843516 18.83722968 -4.60843516 18.83722968 -4.90234375 15.62109375 C-4.90901631 14.22652923 -4.92097468 12.83198257 -4.9375 11.4375 C-4.94201172 10.72658203 -4.94652344 10.01566406 -4.95117188 9.28320312 C-4.96299136 7.52209987 -4.98092737 5.76103964 -5 4 C-5.99 3.67 -6.98 3.34 -8 3 Z " fill="#FFFFFF" transform="translate(274,54)"/>
<path d="M0 0 C1.65 0 3.3 0 5 0 C6.14397482 4.35874181 7.28317467 8.71869295 8.41796875 13.07983398 C8.80467865 14.56324927 9.19269087 16.04632568 9.58203125 17.52905273 C10.14145196 19.66041711 10.69617699 21.79295646 11.25 23.92578125 C11.42499023 24.58838455 11.59998047 25.25098785 11.78027344 25.93367004 C12.49911058 28.71814699 13 31.1090539 13 34 C11.35 33.67 9.7 33.34 8 33 C7.34 30.36 6.68 27.72 6 25 C3.36 24.67 0.72 24.34 -2 24 C-2.144375 25.27875 -2.28875 26.5575 -2.4375 27.875 C-2.70642746 30.25692894 -2.92226346 31.84452691 -4 34 C-5.32 34 -6.64 34 -8 34 C-7.40238417 29.36527122 -6.56007324 24.92827833 -5.37109375 20.41015625 C-5.05849609 19.21455078 -4.74589844 18.01894531 -4.42382812 16.78710938 C-4.09833984 15.55798828 -3.77285156 14.32886719 -3.4375 13.0625 C-3.10814453 11.80630859 -2.77878906 10.55011719 -2.43945312 9.25585938 C-1.62976195 6.16964518 -0.81650981 3.08441589 0 0 Z M2 8 C1.67 9.2375 1.34 10.475 1 11.75 C0.814375 12.44609375 0.62875 13.1421875 0.4375 13.859375 C-0.13349349 16.28901861 -0.13349349 16.28901861 0 20 C1.65 20 3.3 20 5 20 C4.47519999 13.71091518 4.47519999 13.71091518 2 8 Z " fill="#FFFFFF" transform="translate(305,45)"/>
<path d="M0 0 C1.32 0 2.64 0 4 0 C4 2.97 4 5.94 4 9 C5.32 8.67 6.64 8.34 8 8 C10.6875 8.75 10.6875 8.75 13 10 C14.34632052 14.03896157 14.18417548 17.7712147 14.1875 22 C14.19974609 22.81984375 14.21199219 23.6396875 14.22460938 24.484375 C14.22750977 25.66773438 14.22750977 25.66773438 14.23046875 26.875 C14.23457764 27.59429687 14.23868652 28.31359375 14.24291992 29.0546875 C14 31 14 31 12 34 C7.91287345 35.8863661 4.73458568 34.59182321 0 34 C0 22.78 0 11.56 0 0 Z M6 12 C3.51711164 14.48288836 3.71416833 16.01186156 3.67773438 19.41015625 C3.68095703 20.09980469 3.68417969 20.78945312 3.6875 21.5 C3.67138672 22.18964844 3.65527344 22.87929687 3.63867188 23.58984375 C3.60074325 25.83257651 3.60074325 25.83257651 4 29 C5.485 29.99 5.485 29.99 7 31 C8.61217461 29.90341037 8.61217461 29.90341037 10 28 C10.47722466 24.90508469 10.47722466 24.90508469 10.375 21.5 C10.38273437 20.3553125 10.39046875 19.210625 10.3984375 18.03125 C10.25779342 15.00757025 10.25779342 15.00757025 8.5390625 13.09375 C7.17883207 11.90345342 7.17883207 11.90345342 6 12 Z " fill="#FFFFFF" transform="translate(448,45)"/>
<path d="M0 0 C1.32 0 2.64 0 4 0 C4 2.97 4 5.94 4 9 C5.32 8.67 6.64 8.34 8 8 C10.125 8.125 10.125 8.125 12 9 C14.77570488 13.77929466 14.22316342 18.97014478 14.125 24.3125 C14.11597656 25.24384766 14.10695313 26.17519531 14.09765625 27.13476562 C14.07418263 29.4234436 14.04134729 31.71158672 14 34 C12.35 34 10.7 34 9 34 C8.67 27.07 8.34 20.14 8 13 C7.01 13.33 6.02 13.66 5 14 C4.67 20.6 4.34 27.2 4 34 C2.68 34 1.36 34 0 34 C0 22.78 0 11.56 0 0 Z " fill="#FFFFFF" transform="translate(388,45)"/>
<path d="M0 0 C0.78246094 -0.02578125 1.56492187 -0.0515625 2.37109375 -0.078125 C4.5625 0.25 4.5625 0.25 6.3046875 1.53515625 C8.26420161 4.20666773 8.25769661 7.01908402 8.5625 10.25 C6.9125 10.25 5.2625 10.25 3.5625 10.25 C3.2325 8.6 2.9025 6.95 2.5625 5.25 C0.9125 5.25 -0.7375 5.25 -2.4375 5.25 C-3.34433762 7.97051286 -3.56592547 9.57733006 -3.5703125 12.375 C-3.57160156 13.16390625 -3.57289063 13.9528125 -3.57421875 14.765625 C-3.57035156 15.58546875 -3.56648438 16.4053125 -3.5625 17.25 C-3.56636719 18.06984375 -3.57023437 18.8896875 -3.57421875 19.734375 C-3.57292969 20.52328125 -3.57164062 21.3121875 -3.5703125 22.125 C-3.56918457 22.84429687 -3.56805664 23.56359375 -3.56689453 24.3046875 C-3.50527378 26.46762361 -3.50527378 26.46762361 -2.4375 29.25 C-0.7875 29.25 0.8625 29.25 2.5625 29.25 C2.8925 27.6 3.2225 25.95 3.5625 24.25 C5.2125 24.25 6.8625 24.25 8.5625 24.25 C7.9581044 30.65659341 7.9581044 30.65659341 6.3125 33.125 C3.97344314 34.62867941 2.34782425 35.05567505 -0.4375 35.25 C-4.64333575 34.26039159 -5.99621351 33.91192973 -8.4375 30.25 C-8.69628906 27.67797852 -8.69628906 27.67797852 -8.703125 24.62890625 C-8.70570313 23.52869141 -8.70828125 22.42847656 -8.7109375 21.29492188 C-8.70320313 20.14572266 -8.69546875 18.99652344 -8.6875 17.8125 C-8.69523437 16.66716797 -8.70296875 15.52183594 -8.7109375 14.34179688 C-8.70835937 13.24029297 -8.70578125 12.13878906 -8.703125 11.00390625 C-8.70086914 9.99658447 -8.69861328 8.9892627 -8.69628906 7.95141602 C-8.43215113 5.19416489 -7.94050689 3.55913504 -6.4375 1.25 C-4.11063547 0.08656773 -2.59028587 0.05104012 0 0 Z " fill="#FFFFFF" transform="translate(377.4375,44.75)"/>
<path d="M0 0 C2.75604998 4.19838281 2.14311631 8.13404535 2 13 C-1.63 13 -5.26 13 -9 13 C-8.67 15.31 -8.34 17.62 -8 20 C-6.35 20 -4.7 20 -3 20 C-3 18.35 -3 16.7 -3 15 C-1.35 15 0.3 15 2 15 C1.25 21.75 1.25 21.75 -1 24 C-5.20025926 25.40008642 -8.00102131 24.81771759 -12 23 C-13.34514997 18.96455008 -13.22342133 15.22600854 -13.25 11 C-13.270625 10.18015625 -13.29125 9.3603125 -13.3125 8.515625 C-13.31765625 7.72671875 -13.3228125 6.9378125 -13.328125 6.125 C-13.3374707 5.40570313 -13.34681641 4.68640625 -13.35644531 3.9453125 C-12.89755846 1.44092181 -11.94970514 0.58271588 -10 -1 C-6.3041377 -2.65676586 -3.57761855 -1.63326064 0 0 Z M-6 2 C-7.5833253 3.2488427 -7.5833253 3.2488427 -9 5 C-9 6.32 -9 7.64 -9 9 C-7.02 9 -5.04 9 -3 9 C-3 7.02 -3 5.04 -3 3 C-3.99 2.67 -4.98 2.34 -6 2 Z " fill="#FFFFFF" transform="translate(477,55)"/>
<path d="M0 0 C2.62594862 4.05828422 2.15830207 8.33008898 2 13 C-1.63 13 -5.26 13 -9 13 C-8.67 15.31 -8.34 17.62 -8 20 C-6.35 20 -4.7 20 -3 20 C-3 18.35 -3 16.7 -3 15 C-1.35 15 0.3 15 2 15 C1.25 21.75 1.25 21.75 -1 24 C-5.21395063 25.40465021 -7.96691533 24.74155929 -12 23 C-13.76279117 19.47441767 -13.22713881 15.44604409 -13.25 11.5625 C-13.270625 10.69044922 -13.29125 9.81839844 -13.3125 8.91992188 C-13.31765625 8.08138672 -13.3228125 7.24285156 -13.328125 6.37890625 C-13.3374707 5.6113501 -13.34681641 4.84379395 -13.35644531 4.05297852 C-12.90757344 1.46766099 -12.01957598 0.6193136 -10 -1 C-6.30509514 -2.65633666 -3.55483428 -1.70013813 0 0 Z M-6 2 C-7.5833253 3.2488427 -7.5833253 3.2488427 -9 5 C-9 6.32 -9 7.64 -9 9 C-7.02 9 -5.04 9 -3 9 C-3 7.02 -3 5.04 -3 3 C-3.99 2.67 -4.98 2.34 -6 2 Z " fill="#FFFFFF" transform="translate(289,55)"/>
<path d="M0 0 C2.92332269 4.38498404 2.1356502 7.7774672 2 13 C-1.63 13 -5.26 13 -9 13 C-8.67 15.31 -8.34 17.62 -8 20 C-6.35 20 -4.7 20 -3 20 C-3 18.35 -3 16.7 -3 15 C-1.35 15 0.3 15 2 15 C1.25 21.75 1.25 21.75 -1 24 C-3.99161275 24.97025279 -5.63788051 25.1010566 -8.6875 24.25 C-11 23 -11 23 -13 20 C-13.22192711 17.14376926 -13.32448385 14.41705309 -13.3125 11.5625 C-13.32861328 10.79873047 -13.34472656 10.03496094 -13.36132812 9.24804688 C-13.3643538 5.77155077 -13.33333708 3.58796957 -11.59375 0.51953125 C-7.80262998 -3.09504152 -4.53300573 -1.97087205 0 0 Z M-6 2 C-7.5833253 3.2488427 -7.5833253 3.2488427 -9 5 C-9 6.32 -9 7.64 -9 9 C-7.02 9 -5.04 9 -3 9 C-3 7.02 -3 5.04 -3 3 C-3.99 2.67 -4.98 2.34 -6 2 Z " fill="#FFFFFF" transform="translate(342,55)"/>
<path d="M0 0 C1.68300669 1.68300669 1.22809077 3.82008727 1.31640625 6.12890625 C1.37924805 7.68061523 1.37924805 7.68061523 1.44335938 9.26367188 C1.48267578 10.35228516 1.52199219 11.44089844 1.5625 12.5625 C1.60568359 13.65498047 1.64886719 14.74746094 1.69335938 15.87304688 C1.79982068 18.58189564 1.90183516 21.29083992 2 24 C0.41870971 24.22331199 -1.16521089 24.42804644 -2.75 24.625 C-4.07257813 24.79902344 -4.07257813 24.79902344 -5.421875 24.9765625 C-8.26349367 25.0023954 -9.64837549 24.55715677 -12 23 C-13.60460499 19.79079002 -13.61994003 16.47166416 -13 13 C-10.71851833 10.59176935 -8.76122185 9.33832082 -5.75 8 C-3.78571015 7.1304373 -3.78571015 7.1304373 -3.25 4.875 C-3.1675 4.25625 -3.085 3.6375 -3 3 C-4.32 3.33 -5.64 3.66 -7 4 C-7.33 5.32 -7.66 6.64 -8 8 C-9.32 8 -10.64 8 -12 8 C-12.25 2.375 -12.25 2.375 -10 -1 C-6.33005393 -2.70390353 -3.60527221 -1.44210888 0 0 Z M-9 15 C-8.67 16.65 -8.34 18.3 -8 20 C-6.68 20 -5.36 20 -4 20 C-2.58422523 18.81575674 -2.58422523 18.81575674 -2.9375 15.4375 C-2.958125 14.303125 -2.97875 13.16875 -3 12 C-5.76223278 12 -6.89281454 13.31425163 -9 15 Z " fill="#FFFFFF" transform="translate(417,55)"/>
<path d="M0 0 C2.16926659 3.25389988 2.24080049 4.13395957 2.1953125 7.88671875 C2.18564453 9.2934082 2.18564453 9.2934082 2.17578125 10.72851562 C2.15902344 11.70498047 2.14226562 12.68144531 2.125 13.6875 C2.11597656 14.67556641 2.10695313 15.66363281 2.09765625 16.68164062 C2.0740843 19.12133765 2.04118022 21.56054697 2 24 C0.56473222 24.19072888 -0.87171155 24.37262219 -2.30859375 24.55078125 C-3.10837646 24.65302002 -3.90815918 24.75525879 -4.73217773 24.8605957 C-7 25 -7 25 -10.0625 24.1875 C-12.83200447 21.06064011 -12.56036007 18.43803439 -12.56640625 14.375 C-12 12 -12 12 -10.13671875 10.23046875 C-7.751862 8.85710518 -5.7127889 8.37677624 -3 8 C-3.33 6.35 -3.66 4.7 -4 3 C-4.99 3 -5.98 3 -7 3 C-7.33 4.65 -7.66 6.3 -8 8 C-9.32 8 -10.64 8 -12 8 C-11.25 1.25 -11.25 1.25 -9 -1 C-5.45630005 -2.4663586 -3.33112925 -1.75322592 0 0 Z M-8 14 C-8.41746608 17.12635209 -8.41746608 17.12635209 -8 20 C-7.01 20.33 -6.02 20.66 -5 21 C-4.34 20.67 -3.68 20.34 -3 20 C-2.53348793 17.87423218 -2.53348793 17.87423218 -2.375 15.4375 C-2.30023438 14.61121094 -2.22546875 13.78492187 -2.1484375 12.93359375 C-2.09945313 12.29550781 -2.05046875 11.65742187 -2 11 C-4.47976302 11 -6.13604817 12.5661909 -8 14 Z " fill="#FFFFFF" transform="translate(358,55)"/>
<path d="M0 0 C2.55305926 3.82958888 2.33112701 7.00054728 2.3125 11.4375 C2.32861328 12.20126953 2.34472656 12.96503906 2.36132812 13.75195312 C2.36433398 17.20567657 2.32263849 19.41630928 0.62890625 22.48046875 C-1.57278325 24.53432298 -3.00425029 24.85734525 -6 25 C-8.81161896 24.28074864 -10.44505238 23.7977372 -12.125 21.3828125 C-13.34558152 18.05890748 -13.30199565 15.0954627 -13.3125 11.5625 C-13.32925781 10.26441406 -13.34601563 8.96632813 -13.36328125 7.62890625 C-12.9856976 3.85712983 -12.27922069 1.98309766 -10 -1 C-6.43197559 -2.84552987 -3.52147086 -1.53107429 0 0 Z M-8 3 C-8 8.61 -8 14.22 -8 20 C-7.01 20.33 -6.02 20.66 -5 21 C-4.34 20.67 -3.68 20.34 -3 20 C-1.93564565 16.80693695 -1.79934647 14.35556004 -1.75 11 C-1.72421875 9.948125 -1.6984375 8.89625 -1.671875 7.8125 C-1.75672428 4.98032163 -1.75672428 4.98032163 -3.453125 3.125 C-5.61974057 1.54927958 -5.54927448 1.77463724 -8 3 Z " fill="#FFFFFF" transform="translate(180,55)"/>
<path d="M0 0 C1.68300669 1.68300669 1.22809077 3.82008727 1.31640625 6.12890625 C1.37924805 7.68061523 1.37924805 7.68061523 1.44335938 9.26367188 C1.48267578 10.35228516 1.52199219 11.44089844 1.5625 12.5625 C1.60568359 13.65498047 1.64886719 14.74746094 1.69335938 15.87304688 C1.79982068 18.58189564 1.90183516 21.29083992 2 24 C0.56359829 24.19573608 -0.87419504 24.38127816 -2.3125 24.5625 C-3.11300781 24.66691406 -3.91351563 24.77132812 -4.73828125 24.87890625 C-7 25 -7 25 -10 24 C-12 22 -12 22 -13 18.625 C-13 14.54558847 -12.6427362 13.06898398 -10 10 C-6.8125 8.1875 -6.8125 8.1875 -4 7 C-4 5.68 -4 4.36 -4 3 C-4.99 3.33 -5.98 3.66 -7 4 C-7.73323796 6.01508358 -7.73323796 6.01508358 -8 8 C-9.32 8 -10.64 8 -12 8 C-11.63781321 1.60136674 -11.63781321 1.60136674 -8.8125 -1.0625 C-5.16652582 -2.27782473 -3.44058374 -1.5639017 0 0 Z M-8 14 C-8.2502157 17.08365871 -8.2502157 17.08365871 -8 20 C-7.01 20.33 -6.02 20.66 -5 21 C-4.34 20.67 -3.68 20.34 -3 20 C-3 17.36 -3 14.72 -3 12 C-5.32357511 11.81509993 -5.32357511 11.81509993 -8 14 Z " fill="#FFFFFF" transform="translate(154,55)"/>
<path d="M0 0 C2.55305926 3.82958888 2.33112701 7.00054728 2.3125 11.4375 C2.32861328 12.20126953 2.34472656 12.96503906 2.36132812 13.75195312 C2.36433398 17.20567657 2.32263849 19.41630928 0.62890625 22.48046875 C-1.57278325 24.53432298 -3.00425029 24.85734525 -6 25 C-8.6875 24.4375 -8.6875 24.4375 -11 23 C-14.28736178 16.89489954 -13.58989221 9.0567142 -12.3125 2.4375 C-11 0 -11 0 -8.75 -1.5 C-5.20460521 -2.14461724 -3.24319104 -1.51348915 0 0 Z M-6 2 C-8.48288836 4.48288836 -8.28583167 6.01186156 -8.32226562 9.41015625 C-8.31904297 10.09980469 -8.31582031 10.78945312 -8.3125 11.5 C-8.32861328 12.18964844 -8.34472656 12.87929687 -8.36132812 13.58984375 C-8.39925675 15.83257651 -8.39925675 15.83257651 -8 19 C-6.515 19.99 -6.515 19.99 -5 21 C-3.38782539 19.90341037 -3.38782539 19.90341037 -2 18 C-1.52277534 14.90508469 -1.52277534 14.90508469 -1.625 11.5 C-1.61726562 10.3553125 -1.60953125 9.210625 -1.6015625 8.03125 C-1.74220658 5.00757025 -1.74220658 5.00757025 -3.4609375 3.09375 C-4.82116793 1.90345342 -4.82116793 1.90345342 -6 2 Z " fill="#FFFFFF" transform="translate(239,55)"/>
<path d="M0 0 C1 1 1 1 1.11352539 3.22485352 C1.10828857 4.18319092 1.10305176 5.14152832 1.09765625 6.12890625 C1.09443359 7.16337891 1.09121094 8.19785156 1.08789062 9.26367188 C1.07951172 10.35228516 1.07113281 11.44089844 1.0625 12.5625 C1.05798828 13.65498047 1.05347656 14.74746094 1.04882812 15.87304688 C1.03699826 18.58208495 1.02051543 21.29101599 1 24 C-0.32 24 -1.64 24 -3 24 C-3.33 17.4 -3.66 10.8 -4 4 C-4.99 4 -5.98 4 -7 4 C-7.33 10.6 -7.66 17.2 -8 24 C-9.65 24 -11.3 24 -13 24 C-13 15.75 -13 7.5 -13 -1 C-3.91525424 -2.13559322 -3.91525424 -2.13559322 0 0 Z " fill="#FFFFFF" transform="translate(197,55)"/>
<path d="M0 0 C1.32 0 2.64 0 4 0 C4.33 6.6 4.66 13.2 5 20 C6.32 20.33 7.64 20.66 9 21 C9.33 14.07 9.66 7.14 10 0 C11.32 0 12.64 0 14 0 C14 8.25 14 16.5 14 25 C5 26 5 26 1.96801758 24.89526367 C0 23 0 23 -0.56762695 20.5480957 C-0.54144287 19.60023193 -0.51525879 18.65236816 -0.48828125 17.67578125 C-0.47216797 16.64775391 -0.45605469 15.61972656 -0.43945312 14.56054688 C-0.39755859 13.48869141 -0.35566406 12.41683594 -0.3125 11.3125 C-0.27866211 9.68731445 -0.27866211 9.68731445 -0.24414062 8.02929688 C-0.1851579 5.35148095 -0.10290307 2.67642973 0 0 Z " fill="#FFFFFF" transform="translate(243,54)"/>
<path d="M0 0 C1.65 0 3.3 0 5 0 C5 1.98 5 3.96 5 6 C5.99 6 6.98 6 8 6 C8 7.32 8 8.64 8 10 C7.01 10 6.02 10 5 10 C5.33 15.61 5.66 21.22 6 27 C6.66 27.33 7.32 27.66 8 28 C8 28.99 8 29.98 8 31 C6.02 31 4.04 31 2 31 C-0.20949832 26.58970217 -0.2370648 22.51059676 -0.125 17.6875 C-0.11597656 16.94693359 -0.10695312 16.20636719 -0.09765625 15.44335938 C-0.07424213 13.62876533 -0.03837615 11.81433929 0 10 C-0.66 10 -1.32 10 -2 10 C-2 8.68 -2 7.36 -2 6 C-1.34 6 -0.68 6 0 6 C0 4.02 0 2.04 0 0 Z " fill="#FFFFFF" transform="translate(159,48)"/>
<path d="M0 0 C0 1.65 0 3.3 0 5 C-0.639375 5.103125 -1.27875 5.20625 -1.9375 5.3125 C-2.618125 5.539375 -3.29875 5.76625 -4 6 C-4.86419223 8.59257669 -5.17580932 10.34037707 -5.31640625 13.01171875 C-5.35830078 13.76904297 -5.40019531 14.52636719 -5.44335938 15.30664062 C-5.48267578 16.09232422 -5.52199219 16.87800781 -5.5625 17.6875 C-5.60568359 18.48478516 -5.64886719 19.28207031 -5.69335938 20.10351562 C-5.79927368 22.06881447 -5.90012551 24.03438496 -6 26 C-7.32 26 -8.64 26 -10 26 C-10 17.75 -10 9.5 -10 1 C-2 0 -2 0 0 0 Z " fill="#FFFFFF" transform="translate(491,53)"/>
<path d="M0 0 C0 1.65 0 3.3 0 5 C-1.98 5.99 -1.98 5.99 -4 7 C-4.33 13.27 -4.66 19.54 -5 26 C-6.32 26 -7.64 26 -9 26 C-9 17.75 -9 9.5 -9 1 C-1 0 -1 0 0 0 Z " fill="#FFFFFF" transform="translate(329,53)"/>
<path d="M0 0 C2.8125 0.8125 2.8125 0.8125 3.8125 1.8125 C4.39248725 8.07636233 4.39248725 8.07636233 2.1875 10.875 C-1.15560888 12.19464824 -2.97696147 11.19886891 -6.1875 9.8125 C-6.9375 7.0625 -6.9375 7.0625 -7.1875 3.8125 C-5.00620137 0.40967413 -4.07622126 -0.23977772 0 0 Z M-4.1875 3.8125 C-4.1875 5.1325 -4.1875 6.4525 -4.1875 7.8125 C-3.8575 6.4925 -3.5275 5.1725 -3.1875 3.8125 C-3.5175 3.8125 -3.8475 3.8125 -4.1875 3.8125 Z M0.8125 4.8125 C1.8125 6.8125 1.8125 6.8125 1.8125 6.8125 Z " fill="#FFFFFF" transform="translate(496.1875,68.1875)"/>
</svg>
