<?xml version="1.0" encoding="UTF-8"?>
<svg version="1.1" xmlns="http://www.w3.org/2000/svg" width="455" height="121">
<path d="M0 0 C0.66625977 2.61157227 0.66625977 2.61157227 1 5 C2.22477051 4.86424561 3.44954102 4.72849121 4.71142578 4.58862305 C74.69083054 -3.13862599 74.69083054 -3.13862599 99.5 -3.375 C100.40169922 -3.38893799 101.30339844 -3.40287598 102.23242188 -3.41723633 C107.14764124 -3.38007295 110.88295348 -2.98355586 115 0 C115.65429688 2.61181641 115.65429688 2.61181641 116 5 C117.22477051 4.86424561 118.44954102 4.72849121 119.71142578 4.58862305 C189.69083054 -3.13862599 189.69083054 -3.13862599 214.5 -3.375 C215.40169922 -3.38893799 216.30339844 -3.40287598 217.23242188 -3.41723633 C222.16690888 -3.37992726 225.82306679 -2.92120962 230 0 C230.65429688 2.10791016 230.65429688 2.10791016 231 4 C232.03366699 3.88930176 233.06733398 3.77860352 234.13232422 3.66455078 C323.68477032 -5.86671192 323.68477032 -5.86671192 339 3 C339 3.66 339 4.32 339 5 C338.39124023 4.93143799 337.78248047 4.86287598 337.15527344 4.79223633 C305.70366448 1.42328282 273.62994265 6.73259293 242.66552734 12.06884766 C241.91802719 12.19689789 241.17052704 12.32494812 240.40037537 12.45687866 C238.38643172 12.80394062 236.37370693 13.15805478 234.36108398 13.51269531 C231.50308955 13.92705987 228.87860278 14.10299116 226 14 C225.67 12.02 225.34 10.04 225 8 C211.80797153 3.77198676 196.83707249 6.22362126 183.1875 7.1875 C182.27222534 7.25047272 181.35695068 7.31344543 180.41394043 7.37832642 C163.99854514 8.52209166 147.6880988 10.28412267 131.36791992 12.3737793 C130.52108139 12.48129517 129.67424286 12.58881104 128.80174255 12.69958496 C127.23342403 12.90001556 125.66562473 13.10457651 124.098526 13.31433105 C119.67961946 13.88317734 115.44213239 14.09214984 111 14 C111.061875 13.21625 111.12375 12.4325 111.1875 11.625 C111.125625 10.75875 111.06375 9.8925 111 9 C100.43572874 1.95715249 80.36010381 6.32791894 68.1875 7.1875 C66.81458801 7.28195908 66.81458801 7.28195908 65.41394043 7.37832642 C48.99854514 8.52209166 32.6880988 10.28412267 16.36791992 12.3737793 C15.52108139 12.48129517 14.67424286 12.58881104 13.80174255 12.69958496 C12.23342403 12.90001556 10.66562473 13.10457651 9.098526 13.31433105 C4.67961946 13.88317734 0.44213239 14.09214984 -4 14 C-3.938125 13.21625 -3.87625 12.4325 -3.8125 11.625 C-3.874375 10.75875 -3.93625 9.8925 -4 9 C-13.68414662 2.54390225 -29.22773725 6.2511864 -40.25 7.1875 C-41.01324585 7.25047272 -41.7764917 7.31344543 -42.56286621 7.37832642 C-57.16558308 8.59296285 -71.6840463 10.35508958 -86.19628906 12.3737793 C-96.21284223 13.73433545 -105.88531317 14.28946294 -116 14 C-116 13.34 -116 12.68 -116 12 C-108.32275433 10.62609858 -100.6440544 9.26062891 -92.96363735 7.90458298 C-89.3934477 7.27399031 -85.82372805 6.6409912 -82.25512695 6.00146484 C-66.87783989 3.24772221 -51.50295284 0.67090147 -36.0078125 -1.33203125 C-34.738806 -1.49701111 -33.4697995 -1.66199097 -32.16233826 -1.83197021 C-7.34802695 -4.9310548 -7.34802695 -4.9310548 0 0 Z " fill="#FAFAF9" transform="translate(116,107)"/>
<path d="M0 0 C2.31 0 4.62 0 7 0 C7.57315882 4.05631812 8.14271706 8.11312407 8.70898438 12.17041016 C8.90201192 13.54977983 9.09601238 14.92901372 9.29101562 16.30810547 C9.57158777 18.29358281 9.84833964 20.27959881 10.125 22.265625 C10.37636719 24.05661621 10.37636719 24.05661621 10.6328125 25.88378906 C11 29 11 29 11 33 C12.32 33 13.64 33 15 33 C15.103125 31.72125 15.20625 30.4425 15.3125 29.125 C15.88133308 23.86329406 17.3374613 19.00852854 19 14 C17.68 14 16.36 14 15 14 C15.33 12.68 15.66 11.36 16 10 C19.3 9.67 22.6 9.34 26 9 C26.495 9.99 26.495 9.99 27 11 C27.99 10.34 28.98 9.68 30 9 C32.6875 9.375 32.6875 9.375 35 10 C35.495 11.485 35.495 11.485 36 13 C37.03125 12.34 38.0625 11.68 39.125 11 C43.37318761 8.57982039 46.55813219 8.40603215 51.3125 9.5625 C53 11 53 11 54.0625 14.3125 C54 18 54 18 52.0625 20.75 C47.23807977 24.294472 43.00134051 26 37 26 C37.495 28.97 37.495 28.97 38 32 C39.27875 31.731875 40.5575 31.46375 41.875 31.1875 C42.59429687 31.03667969 43.31359375 30.88585937 44.0546875 30.73046875 C46.37046549 30.07691162 46.37046549 30.07691162 48 27 C48.99 26.67 49.98 26.34 51 26 C52.2144579 23.87432516 52.2144579 23.87432516 53.25 21.3125 C55.64185298 16.34371019 58.06707398 12.66378005 63 10 C68.4019388 8.4866909 73.55856941 8.95802393 79 10 C78.34034961 16.86036401 76.7637236 23.34443923 75 30 C75.99 28.515 75.99 28.515 77 27 C77.99 27 78.98 27 80 27 C79.69558521 30.55150592 79.02406007 31.97138802 76.6875 34.75 C72.92189007 37.90260366 72.92189007 37.90260366 70 38 C67 36 67 36 66 33 C65.278125 33.639375 64.55625 34.27875 63.8125 34.9375 C60.96763636 37.02373333 59.48380442 37.82134336 56 38 C53.17636058 37.11257047 52.25822744 36.43898664 50.75 33.875 C50.5025 33.25625 50.255 32.6375 50 32 C49.154375 32.804375 48.30875 33.60875 47.4375 34.4375 C44.08271629 37.21469123 41.42414812 38 37 38 C33.42612398 36.41161066 32.18910428 35.28365642 30 32 C29.10138215 25.97809337 30.27186136 21.34260484 33 16 C31.35 16 29.7 16 28 16 C24.30337613 22.73313634 22.11234695 29.62925744 20 37 C15.2710653 37.99440216 10.90729882 37.96565891 6.125 37.5625 C5.43664062 37.51029297 4.74828125 37.45808594 4.0390625 37.40429688 C2.35887242 37.27594902 0.67935251 37.13887775 -1 37 C-0.67 35.68 -0.34 34.36 0 33 C0.99 33 1.98 33 3 33 C3 29.7 3 26.4 3 23 C-0.63 23 -4.26 23 -8 23 C-8.28875 23.9075 -8.5775 24.815 -8.875 25.75 C-9.76531776 28.32202908 -10.71494413 30.61346766 -12 33 C-11.01 33 -10.02 33 -9 33 C-9 34.32 -9 35.64 -9 37 C-13.29 37 -17.58 37 -22 37 C-22 35.68 -22 34.36 -22 33 C-21.21625 32.938125 -20.4325 32.87625 -19.625 32.8125 C-18.75875 32.544375 -17.8925 32.27625 -17 32 C-16.27568336 30.35756655 -15.62027597 28.6844821 -15 27 C-13.95458812 25.02226288 -12.87764231 23.06101665 -11.77734375 21.11328125 C-10.84631836 19.4590918 -10.84631836 19.4590918 -9.89648438 17.77148438 C-9.25001953 16.63001953 -8.60355469 15.48855469 -7.9375 14.3125 C-6.65406631 12.03825678 -5.37207296 9.76320404 -4.08984375 7.48828125 C-3.52128662 6.48321533 -2.95272949 5.47814941 -2.36694336 4.44262695 C-1.54751944 2.97837686 -0.75039775 1.5007955 0 0 Z M0 9 C-1.65 12.3 -3.3 15.6 -5 19 C-2.69 19 -0.38 19 2 19 C1.67 15.7 1.34 12.4 1 9 C0.67 9 0.34 9 0 9 Z M40.8125 14.6875 C38.83925733 17.20508548 38.3492558 18.85669777 38 22 C41.14330223 21.6507442 42.79491452 21.16074267 45.3125 19.1875 C47.4072023 16.93260425 47.4072023 16.93260425 47 13 C43.06739575 12.5927977 43.06739575 12.5927977 40.8125 14.6875 Z M64.4375 14.9375 C60.83403577 19.46492942 58.2260049 24.23143999 57.75 30.0625 C57.87375 31.0215625 57.87375 31.0215625 58 32 C62.23368957 31.25180486 63.87507103 29.49261669 66.5390625 26.25390625 C69.18381093 22.17363929 70.57903566 17.62231342 72 13 C67.91194962 12.765916 67.91194962 12.765916 64.4375 14.9375 Z " fill="#FAFAF9" transform="translate(70,47)"/>
<path d="M0 0 C-1.61177442 7.37817125 -3.35423214 14.72101505 -5.125 22.0625 C-5.40214844 23.21427734 -5.67929687 24.36605469 -5.96484375 25.55273438 C-6.64253481 28.36865757 -7.32093598 31.18440764 -8 34 C-7.71125 33.360625 -7.4225 32.72125 -7.125 32.0625 C-6 30 -6 30 -4 29 C-3.38125 27.453125 -3.38125 27.453125 -2.75 25.875 C-0.42600638 20.22769552 2.99241061 16.28485721 8.125 13 C13.19285181 11.1124254 18.77560683 12.28797269 24 13 C23.34034961 19.86036401 21.7637236 26.34443923 20 33 C20.66 32.01 21.32 31.02 22 30 C22.99 30 23.98 30 25 30 C24.68416552 33.47417927 24.36514364 35.53412708 22.1875 38.3125 C19.96363062 40.02805638 18.78875855 40.82570259 16 41 C13.8125 40.25 13.8125 40.25 12 39 C11.67 38.01 11.34 37.02 11 36 C10.2575 36.639375 9.515 37.27875 8.75 37.9375 C4.7826087 40.91304348 4.7826087 40.91304348 2 41 C0.30485863 40.04906703 -1.36368108 39.04892238 -3 38 C-6.06161188 37.73016694 -6.06161188 37.73016694 -8.4375 39.5625 C-11 41 -11 41 -13.3125 40.6875 C-13.869375 40.460625 -14.42625 40.23375 -15 40 C-15.495 38.02 -15.495 38.02 -16 36 C-16.66 36 -17.32 36 -18 36 C-18 36.66 -18 37.32 -18 38 C-20.61677441 39.26618117 -23.15929824 40.35414729 -26 41 C-29 39.875 -29 39.875 -31 38 C-31 37.01 -31 36.02 -31 35 C-31.9075 35.804375 -32.815 36.60875 -33.75 37.4375 C-37.93790705 40.89793023 -37.93790705 40.89793023 -41 41 C-42.34888048 40.36537911 -43.68459036 39.70136987 -45 39 C-44.47458553 31.2501365 -42.44408524 24.3549914 -40 17 C-48.9939645 21.93992374 -51.19304743 30.59122042 -54 40 C-56.97 40.495 -56.97 40.495 -60 41 C-59.61375277 32.61843511 -57.4744657 24.98734511 -55 17 C-56.32 17 -57.64 17 -59 17 C-59 16.01 -59 15.02 -59 14 C-57.7625 13.67 -56.525 13.34 -55.25 13 C-54.20585937 12.7215625 -54.20585937 12.7215625 -53.140625 12.4375 C-51 12 -51 12 -47 12 C-47 13.32 -47 14.64 -47 16 C-45.96875 15.319375 -44.9375 14.63875 -43.875 13.9375 C-40.97498236 12.26350608 -40.12540682 11.99303295 -36.625 12.1875 C-34 13 -34 13 -33 14 C-32.49626597 20.80040943 -34.00003972 26.52393814 -36 33 C-35.34 32.01 -34.68 31.02 -34 30 C-33.01 30 -32.02 30 -31 30 C-30.896875 29.13375 -30.79375 28.2675 -30.6875 27.375 C-29.43877829 21.2449116 -27.22045166 17.42257691 -22.05078125 13.96875 C-18.50980291 12.29605928 -14.87274401 12.09659906 -11 12 C-10.34 10.02 -9.68 8.04 -9 6 C-9.99 5.67 -10.98 5.34 -12 5 C-12 3.68 -12 2.36 -12 1 C-7.9472484 0.01751476 -4.16138263 -0.08159574 0 0 Z M-18.625 18.125 C-23.13044777 23.57896309 -24.40663158 28.11692633 -25 35 C-22.16970548 35 -20.49191523 34.47100883 -18.4375 32.50390625 C-14.35507507 27.43149327 -12.47052961 22.29489868 -11 16 C-15.16143566 15.74337429 -15.16143566 15.74337429 -18.625 18.125 Z M8.39453125 19.44921875 C5.02440122 23.19695439 4.04717386 27.00934885 3.8125 31.9375 C3.874375 32.948125 3.93625 33.95875 4 35 C6.92582625 34.66488334 7.87356559 34.1440392 9.8515625 31.890625 C10.43679688 31.01921875 11.02203125 30.1478125 11.625 29.25 C12.21539062 28.38890625 12.80578125 27.5278125 13.4140625 26.640625 C15.5778326 23.0378945 17 20.2344088 17 16 C12.72275551 16 11.50140847 16.65696201 8.39453125 19.44921875 Z " fill="#FAFAF9" transform="translate(302,44)"/>
<path d="M0 0 C-0.33 1.65 -0.66 3.3 -1 5 C3.95 5 8.9 5 14 5 C13.34034961 11.86036401 11.7637236 18.34443923 10 25 C12.0255102 24.30059518 12.0255102 24.30059518 14 23 C14.69589828 21.05330231 14.69589828 21.05330231 14.875 18.8125 C15.82818763 13.58262097 18.04626248 10.48917337 22 7 C25.81665547 4.52433159 29.462858 4.76322037 33.83984375 5.40625 C37.44593302 6.39743548 38.96451996 7.91394961 41 11 C41.9061181 18.02241531 40.13158317 23.00246117 36 28.8125 C32.69157076 32.43109449 29.91324408 33.52689814 25.0625 34.03515625 C20.9675447 33.96535588 18.07991268 31.97192141 15.125 29.3125 C14.568125 28.6628125 14.568125 28.6628125 14 28 C13.2575 28.804375 12.515 29.60875 11.75 30.4375 C7.92682927 34 7.92682927 34 5 34 C2.75 32.5625 2.75 32.5625 1 31 C1.67069152 26.41105799 2.76122296 22.07452793 4.0625 17.625 C4.42472656 16.37976563 4.78695313 15.13453125 5.16015625 13.8515625 C5.43730469 12.91054688 5.71445312 11.96953125 6 11 C3.03 10.67 0.06 10.34 -3 10 C-3.12375 10.763125 -3.2475 11.52625 -3.375 12.3125 C-4.20617157 17.21641224 -5.10336754 22.10769474 -6 27 C-5.01 25.68 -4.02 24.36 -3 23 C-2.01 23.33 -1.02 23.66 0 24 C-0.4743098 28.2687882 -2.80716564 30.31511656 -6 33 C-8.625 33.9375 -8.625 33.9375 -11 34 C-11.99 33.34 -12.98 32.68 -14 32 C-14.53206228 26.67272645 -13.46837023 22.11746373 -12 17.0625 C-11.71382813 16.03672852 -11.71382813 16.03672852 -11.421875 14.99023438 C-10.95595063 13.32455474 -10.47911589 11.66193325 -10 10 C-11.32 10 -12.64 10 -14 10 C-13.67 8.68 -13.34 7.36 -13 6 C-11.35 6 -9.7 6 -8 6 C-8 5.01 -8 4.02 -8 3 C-5.0936485 0.19744677 -4.21174952 0 0 0 Z M28 9 C23.20942326 14.74869209 21.47252465 18.55773683 21 26 C21.66 26.99 22.32 27.98 23 29 C25.883975 29.21790719 25.883975 29.21790719 29 28 C33.08576318 22.44088585 33.42310855 16.66395974 33 10 C31.35 9.67 29.7 9.34 28 9 Z " fill="#FAFAF9" transform="translate(342,51)"/>
<path d="M0 0 C-0.33 1.98 -0.66 3.96 -1 6 C0.65 6.33 2.3 6.66 4 7 C4 7.99 4 8.98 4 10 C1.69 10 -0.62 10 -3 10 C-3.12375 11.11375 -3.2475 12.2275 -3.375 13.375 C-3.98457542 18.30460991 -4.97473685 23.14244255 -6 28 C-5.566875 27.34 -5.13375 26.68 -4.6875 26 C-4.130625 25.34 -3.57375 24.68 -3 24 C-2.01 24 -1.02 24 0 24 C0.0825 22.80375 0.165 21.6075 0.25 20.375 C0.98104929 14.70686442 3.42734183 11.38979094 7.6875 7.625 C11.96472277 5.52673977 15.32050426 5.29203201 20 6 C23.16363765 7.27891735 24.50235013 8.28598061 26.4375 11.0625 C27.54672376 16.85511297 25.90797247 22.18405505 23.3125 27.375 C19.53165519 31.66676979 16.12100072 33.70231569 10.4375 34.5 C6.33477477 33.90323997 4.13946524 32.6800313 1 30 C1 29.01 1 28.02 1 27 C0.34 27 -0.32 27 -1 27 C-1.2475 27.598125 -1.495 28.19625 -1.75 28.8125 C-3.21965004 31.38438757 -4.43090159 32.53194377 -7 34 C-9.625 34.375 -9.625 34.375 -12 34 C-14 31 -14 31 -13.828125 28.6171875 C-13.54195312 27.25980469 -13.54195312 27.25980469 -13.25 25.875 C-12.95222656 24.42287109 -12.95222656 24.42287109 -12.6484375 22.94140625 C-12.43445313 21.97074219 -12.22046875 21.00007813 -12 20 C-11.80664062 19.10152344 -11.61328125 18.20304687 -11.4140625 17.27734375 C-10.95580723 15.18198814 -10.47979352 13.09052893 -10 11 C-10.99 10.67 -11.98 10.34 -13 10 C-13 9.01 -13 8.02 -13 7 C-11.35 7 -9.7 7 -8 7 C-7.9175 6.401875 -7.835 5.80375 -7.75 5.1875 C-6.40138854 1.25404992 -4.03742556 0 0 0 Z M10.8125 12.125 C7.51528938 17.35505822 6.52459626 21.81975137 7 28 C7.66 28.66 8.32 29.32 9 30 C11.51047485 30.06546898 11.51047485 30.06546898 14 29 C18.08113896 23.86078797 19.46164572 17.46304012 19 11 C17.95657219 9.76163834 17.95657219 9.76163834 15.6875 9.625 C12.82098467 9.75511758 12.82098467 9.75511758 10.8125 12.125 Z " fill="#FAFAF9" transform="translate(171,3)"/>
<path d="M0 0 C3.74959217 -0.14528105 7.49846105 -0.23406281 11.25 -0.3125 C12.84521484 -0.3753418 12.84521484 -0.3753418 14.47265625 -0.43945312 C22.34910043 -0.56329659 22.34910043 -0.56329659 25.69921875 2.3359375 C27.31776632 5.65080068 27.66948884 7.3550052 27 11 C25.51023437 13.26300039 23.8833558 15.02247641 22 17 C22.495 17.515625 22.99 18.03125 23.5 18.5625 C25.54050648 21.87832303 25.34224015 24.16691031 25 28 C23.39600128 32.13427758 21.35170378 33.42215585 17.43359375 35.23242188 C12.84994232 36.67814821 8.25782816 36.41234059 3.5 36.25 C2.48679687 36.23195312 1.47359375 36.21390625 0.4296875 36.1953125 C-2.04788607 36.14856583 -4.52342316 36.08306372 -7 36 C-6.67 34.68 -6.34 33.36 -6 32 C-4.68 32 -3.36 32 -2 32 C-1.9175 30.700625 -1.835 29.40125 -1.75 28.0625 C-1.24793014 22.9310507 -0.18547388 18.00762341 1 13 C1.17821289 12.245979 1.35642578 11.49195801 1.54003906 10.71508789 C2.85845548 5.28308905 2.85845548 5.28308905 4 3 C2.68 3 1.36 3 0 3 C0 2.01 0 1.02 0 0 Z M11 3 C10.34 6.63 9.68 10.26 9 14 C12.33200185 14.41771804 12.33200185 14.41771804 16 14 C18.61963135 11.89286554 18.61963135 11.89286554 20 9 C19.82560493 5.94808622 19.18741485 5.18741485 17 3 C13.91652174 2.83318891 13.91652174 2.83318891 11 3 Z M7 18 C5.27071163 24.91159038 5.27071163 24.91159038 5 32 C10.59887581 32.55046364 10.59887581 32.55046364 15.4375 30.25 C17.47036653 27.3705102 17.47036653 27.3705102 18 24 C17.2081584 21.17891059 17.2081584 21.17891059 15 19 C12.26931435 18.25819957 9.85629849 18.1404737 7 18 Z " fill="#FAFAF9" transform="translate(102,0)"/>
<path d="M0 0 C3.74973906 -0.11622939 7.49901464 -0.1872595 11.25 -0.25 C12.31347656 -0.28351562 13.37695312 -0.31703125 14.47265625 -0.3515625 C15.49746094 -0.36445312 16.52226562 -0.37734375 17.578125 -0.390625 C18.99206543 -0.4220459 18.99206543 -0.4220459 20.43457031 -0.45410156 C23.75850564 0.13426156 24.91290769 1.40843469 27 4 C27.90989908 7.12045144 27.86387912 9.86774151 27 13 C24.93909716 15.21943383 22.68935424 16.63474109 20 18 C20.33 18.845625 20.66 19.69125 21 20.5625 C22.06105954 24.20989216 22.15109013 27.22274664 22 31 C23.32 31.66 24.64 32.32 26 33 C26 33.99 26 34.98 26 36 C24.56344146 36.08131463 23.1255517 36.13933559 21.6875 36.1875 C20.48673828 36.23970703 20.48673828 36.23970703 19.26171875 36.29296875 C17 36 17 36 15.25 34.875 C13.47735354 32.21603031 13.48277442 29.97960423 13.3125 26.8125 C13.24675781 25.72582031 13.18101562 24.63914062 13.11328125 23.51953125 C13.07589844 22.68808594 13.03851563 21.85664063 13 21 C11.02 20.67 9.04 20.34 7 20 C6.34 23.96 5.68 27.92 5 32 C6.32 32.33 7.64 32.66 9 33 C8.67 33.99 8.34 34.98 8 36 C3.05 36 -1.9 36 -7 36 C-6.67 34.68 -6.34 33.36 -6 32 C-4.68 32 -3.36 32 -2 32 C-1.88785156 30.73285156 -1.77570313 29.46570313 -1.66015625 28.16015625 C-1.06283195 22.78423753 0.19406382 17.66208968 1.5625 12.4375 C1.79646484 11.52419922 2.03042969 10.61089844 2.27148438 9.66992188 C2.84223625 7.44515436 3.41847478 5.22197103 4 3 C2.68 3 1.36 3 0 3 C0 2.01 0 1.02 0 0 Z M11 3 C9.515 9.435 9.515 9.435 8 16 C13.65387856 16.46256601 13.65387856 16.46256601 16.875 14.5 C19.20304318 11.76112567 19.30643811 11.16890388 19.3125 7.75 C19.209375 6.5125 19.10625 5.275 19 4 C16.47825081 2.5527864 16.47825081 2.5527864 11 3 Z " fill="#FAFAF9" transform="translate(242,0)"/>
<path d="M0 0 C-0.25 2.375 -0.25 2.375 -1 5 C-3.0625 6.3125 -3.0625 6.3125 -5 7 C-4.896875 7.886875 -4.79375 8.77375 -4.6875 9.6875 C-5 13 -5 13 -6.875 15.75 C-11.0404806 18.74914603 -14.98094902 19.34703609 -20 20 C-18.86111328 20.38091797 -18.86111328 20.38091797 -17.69921875 20.76953125 C-16.70535156 21.11371094 -15.71148437 21.45789063 -14.6875 21.8125 C-13.20830078 22.31716797 -13.20830078 22.31716797 -11.69921875 22.83203125 C-9.07539938 23.96737422 -7.67898455 24.71502434 -6 27 C-5.53964869 30.17130903 -5.30064716 31.98514279 -6 35 C-9.2691553 39.04342893 -11.82422528 40.25838 -16.9375 41 C-21.81691805 41.25719824 -24.80102546 40.48510738 -29 38 C-31 36.1875 -31 36.1875 -32 34 C-31.89612322 29.01391479 -30.39010191 27.39010191 -27 24 C-26.83312552 21.41645782 -26.83312552 21.41645782 -27 19 C-26.34 18.34 -25.68 17.68 -25 17 C-25.66 16.01 -26.32 15.02 -27 14 C-27.27833489 10.85133653 -26.89093113 8.02807267 -26 5 C-23.74603719 2.35964356 -23.21085405 1.82678076 -20 1 C-16.38882039 0.79077754 -12.85627661 0.81324491 -9.2421875 0.95703125 C-5.9853914 1.00019361 -3.17583297 0 0 0 Z M-18 5 C-20.29013653 8.4352048 -20.17842973 9.985331 -20 14 C-17.525 14.495 -17.525 14.495 -15 15 C-12.64551835 12.44931155 -12.01672076 11.28982642 -11.8125 7.75 C-11.874375 6.8425 -11.93625 5.935 -12 5 C-14.91634129 4.7497843 -14.91634129 4.7497843 -18 5 Z M-23.875 28.1875 C-25.27887164 30.02996899 -25.27887164 30.02996899 -24.6875 32.6875 C-24.460625 33.450625 -24.23375 34.21375 -24 35 C-19.32047386 36.80441192 -19.32047386 36.80441192 -14.5625 36.125 C-14.046875 35.75375 -13.53125 35.3825 -13 35 C-12.66574265 32.62625139 -12.66574265 32.62625139 -13 30 C-15.12791162 27.7144653 -16.47408328 27.07696342 -19.5625 26.625 C-22.01835473 26.83632398 -22.01835473 26.83632398 -23.875 28.1875 Z " fill="#FAFAF9" transform="translate(352,8)"/>
<path d="M0 0 C9.24 0 18.48 0 28 0 C27.67 2.97 27.34 5.94 27 9 C25.35 9.33 23.7 9.66 22 10 C22 8.02 22 6.04 22 4 C18.37 4 14.74 4 11 4 C10.34 7.63 9.68 11.26 9 15 C10.27875 15.061875 11.5575 15.12375 12.875 15.1875 C13.59429687 15.22230469 14.31359375 15.25710937 15.0546875 15.29296875 C15.69664062 15.19628906 16.33859375 15.09960938 17 15 C17.66 14.01 18.32 13.02 19 12 C20.32 12 21.64 12 23 12 C22.01 15.96 21.02 19.92 20 24 C18.68 24 17.36 24 16 24 C16 22.68 16 21.36 16 20 C13.03 20 10.06 20 7 20 C6.34 24.29 5.68 28.58 5 33 C6.32 33 7.64 33 9 33 C9 34.32 9 35.64 9 37 C3.72 37 -1.56 37 -7 37 C-7 35.68 -7 34.36 -7 33 C-5.02 32.505 -5.02 32.505 -3 32 C-0.69 22.43 1.62 12.86 4 3 C2.68 3 1.36 3 0 3 C0 2.01 0 1.02 0 0 Z " fill="#FAFAF9" transform="translate(164,47)"/>
<path d="M0 0 C1.25425781 0.01804687 2.50851563 0.03609375 3.80078125 0.0546875 C5.22970703 0.08949219 5.22970703 0.08949219 6.6875 0.125 C5.35416667 6.79166667 4.02083333 13.45833333 2.6875 20.125 C3.0175 19.465 3.3475 18.805 3.6875 18.125 C5.0075 18.125 6.3275 18.125 7.6875 18.125 C6.45947179 23.03711284 5.06352196 25.47903323 0.6875 28.125 C-1.9375 28.6875 -1.9375 28.6875 -4.3125 28.125 C-6.125 25.625 -6.125 25.625 -7.3125 23.125 C-8.6428125 24.3625 -8.6428125 24.3625 -10 25.625 C-12.19144978 27.4443168 -13.133514 28.09170028 -16 28.625 C-18.82558918 28.0140618 -19.70771184 27.53218224 -21.3125 25.125 C-23.13640625 19.65328126 -21.79499981 15.13221901 -19.3125 10.125 C-13.93355577 2.37455081 -9.54730607 -0.17845432 0 0 Z M-11.3125 9.125 C-13.9245266 13.41618656 -14.8143185 17.143185 -15.3125 22.125 C-14.3225 22.455 -13.3325 22.785 -12.3125 23.125 C-6.82033583 18.60204127 -4.0899332 12.58658857 -1.3125 6.125 C-1.3125 5.465 -1.3125 4.805 -1.3125 4.125 C-6.41188372 3.39651661 -8.14152527 5.28645164 -11.3125 9.125 Z " fill="#FAFAF9" transform="translate(149.3125,8.875)"/>
<path d="M0 0 C-0.55363461 8.02770189 -2.65687944 15.33854067 -5 23 C-0.89303618 20.52449216 1.67483023 18.69800149 3.6875 14.3125 C4.28691406 13.01119141 4.28691406 13.01119141 4.8984375 11.68359375 C6.47247319 7.84897489 7.81972242 3.97264162 9 0 C11.31 0 13.62 0 16 0 C15.566875 1.78857422 15.566875 1.78857422 15.125 3.61328125 C14.74982302 5.17964512 14.37483274 6.74605372 14 8.3125 C13.71382813 9.49102539 13.71382813 9.49102539 13.421875 10.69335938 C13.24140625 11.45068359 13.0609375 12.20800781 12.875 12.98828125 C12.70742188 13.68477783 12.53984375 14.38127441 12.3671875 15.09887695 C11.90518116 17.16821738 11.90518116 17.16821738 12 20 C12.33 19.34 12.66 18.68 13 18 C14.32 18 15.64 18 17 18 C15.77197179 22.91211284 14.37602196 25.35403323 10 28 C7.1875 28.25 7.1875 28.25 5 28 C4.34 26.35 3.68 24.7 3 23 C1.989375 23.845625 0.97875 24.69125 -0.0625 25.5625 C-3.16041502 27.80233672 -3.81783589 28.00587626 -7.875 27.875 C-11 27 -11 27 -12 26 C-12.31606155 20.77839985 -11.51893706 16.54651224 -10 11.5625 C-9.62875 10.32628906 -9.2575 9.09007812 -8.875 7.81640625 C-8.58625 6.88699219 -8.2975 5.95757812 -8 5 C-9.32 5 -10.64 5 -12 5 C-11.67 3.68 -11.34 2.36 -11 1 C-7.27569643 0.30710631 -3.78916254 -0.11144596 0 0 Z M10 21 C11 23 11 23 11 23 Z " fill="#FAFAF9" transform="translate(307,9)"/>
<path d="M0 0 C-1.61088355 7.78593716 -3.76543688 15.37428218 -6 23 C-0.57827406 20.90176143 1.46776472 18.27878014 3.75 13.125 C4.04003906 12.51269531 4.33007812 11.90039062 4.62890625 11.26953125 C5.88884775 8.58280668 7.03182309 5.90860113 8.0078125 3.10546875 C8.33523437 2.41066406 8.66265625 1.71585938 9 1 C12.125 0.1875 12.125 0.1875 15 0 C14.29843593 7.15595346 12.69214979 14.01855181 11 21 C11.66 20.01 12.32 19.02 13 18 C13.99 18 14.98 18 16 18 C15.73517462 21.88410563 15.46605993 23.5462048 12.625 26.3125 C10 28 10 28 7 29 C4.875 28.25 4.875 28.25 3 27 C2.67 26.01 2.34 25.02 2 24 C1.278125 24.639375 0.55625 25.27875 -0.1875 25.9375 C-3.03236364 28.02373333 -4.51619558 28.82134336 -8 29 C-9.35379344 28.37592825 -10.69131055 27.71383061 -12 27 C-12.37369729 19.52605426 -11.04061541 13.17859349 -9 6 C-9.99 5.67 -10.98 5.34 -12 5 C-12 4.01 -12 3.02 -12 2 C-10.7625 1.67 -9.525 1.34 -8.25 1 C-7.55390625 0.814375 -6.8578125 0.62875 -6.140625 0.4375 C-4 0 -4 0 0 0 Z " fill="#FAFAF9" transform="translate(225,56)"/>
<path d="M0 0 C0 1.32 0 2.64 0 4 C0.60328125 3.28650391 0.60328125 3.28650391 1.21875 2.55859375 C4.30537531 -0.1422034 8.01322408 -0.22189847 12 0 C14.1875 1.4375 14.1875 1.4375 15 4 C14.47729191 6.80361611 13.82688607 9.29253875 13 12 C12.61059333 13.66335962 12.23527991 15.33008947 11.875 17 C11.70742187 17.763125 11.53984375 18.52625 11.3671875 19.3125 C11.24601562 19.869375 11.12484375 20.42625 11 21 C11.33 20.01 11.66 19.02 12 18 C13.32 18 14.64 18 16 18 C15.78191021 21.81657129 14.98132135 23.01998181 12.3125 25.875 C9 28 9 28 5.625 27.8125 C4.75875 27.544375 3.8925 27.27625 3 27 C2.4060652 19.42733125 4.56713714 13.12481267 7 6 C4.38111952 6.36766141 3.23093227 6.75212893 1.40234375 8.71484375 C-1.85436065 13.65634989 -3.95311743 18.1733464 -5.359375 23.93359375 C-6 26 -6 26 -8 28 C-10.625 28.125 -10.625 28.125 -13 28 C-12.44636539 19.97229811 -10.34312056 12.66145933 -8 5 C-9.32 5 -10.64 5 -12 5 C-11.67 3.68 -11.34 2.36 -11 1 C-7.26562152 0.12132271 -3.83225427 -0.08912219 0 0 Z " fill="#FAFAF9" transform="translate(211,9)"/>
<path d="M0 0 C0.33 1.32 0.66 2.64 1 4 C1.886875 3.34 2.77375 2.68 3.6875 2 C6.97506886 0.01505276 8.28458576 -0.61923571 12 0 C14 2 14 2 14.3125 5.9375 C14.21203889 11.54505667 12.67017752 16.68127993 11 22 C11.66 20.68 12.32 19.36 13 18 C13.99 18 14.98 18 16 18 C15.68795779 21.43246436 15.35261037 23.53405058 13.25 26.3125 C10.71684301 28.21236774 9.15414408 28.83824902 6 29 C5.01 28.34 4.02 27.68 3 27 C3.52541447 19.2501365 5.55591476 12.3549914 8 5 C-0.9939645 9.93992374 -3.19304743 18.59122042 -6 28 C-8.31 28.33 -10.62 28.66 -13 29 C-11.69951304 21.22767795 -9.99548103 13.62273755 -8 6 C-8.99 5.67 -9.98 5.34 -11 5 C-10.67 3.68 -10.34 2.36 -10 1 C-3.375 0 -3.375 0 0 0 Z " fill="#FAFAF9" transform="translate(396,56)"/>
<path d="M0 0 C3.5386994 1.65139305 4.81070153 2.71605229 7 6 C7.67458953 12.52103215 6.44430747 17.40166743 3 23 C0.32688971 26.24316839 -2.36453362 27.81513705 -6.4375 29 C-10.7906928 29 -13.26129187 28.22884523 -17 26 C-19.47371106 23.00156236 -20.09554708 21.10897271 -19.76171875 17.234375 C-18.53237052 10.06474104 -18.53237052 10.06474104 -17 7 C-16.34 7 -15.68 7 -15 7 C-14.79375 6.401875 -14.5875 5.80375 -14.375 5.1875 C-11.11311388 -0.00186429 -5.69843983 -0.62164798 0 0 Z M-7.125 5.4375 C-11.11081993 10.88478723 -12.55303465 16.22532559 -12 23 C-10.95533891 24.21615968 -10.95533891 24.21615968 -8.75 24.5625 C-5.95072021 24.28328577 -5.95072021 24.28328577 -4.59375 22.35546875 C-0.7755561 16.37289167 0.13711987 12.13023317 0 5 C-3.09419856 3.96860048 -4.35319493 3.56245539 -7.125 5.4375 Z " fill="#FAFAF9" transform="translate(204,56)"/>
<path d="M0 0 C3.125 1.875 3.125 1.875 5 5 C6.13482396 10.96038172 5.19237028 16.06348474 2.21484375 21.30859375 C0.00952355 24.37902349 -2.65394163 26.32697081 -6 28 C-10.9415897 28.5862903 -13.9252172 28.56671869 -18 25.5625 C-20.56047895 23.06074764 -21.52381993 21.26868452 -21.75 17.6875 C-21.18984738 11.05529292 -18.0537245 5.95820243 -13.3125 1.4375 C-8.7613769 -0.53751568 -4.88176597 -0.901624 0 0 Z M-10.3125 6.8125 C-12.47066202 10.88902825 -13.12153273 13.6419798 -13.0625 18.1875 C-13.05347656 19.08855469 -13.04445313 19.98960938 -13.03515625 20.91796875 C-13.02355469 21.60503906 -13.01195312 22.29210937 -13 23 C-11.13666067 23.69282945 -11.13666067 23.69282945 -9 24 C-4.96279924 20.82791369 -3.05821014 18.00244795 -2 13 C-1.85695053 9.99102832 -1.87962883 7.00927931 -2 4 C-6.32028546 3.41087016 -7.45622518 3.33865224 -10.3125 6.8125 Z " fill="#FAFAF9" transform="translate(288,9)"/>
<path d="M0 0 C0.99 0.66 1.98 1.32 3 2 C3.3974068 5.07990272 3.61062596 7.04668406 3 10 C-0.35547385 13.87976664 -5.12302201 15.65321947 -10 17 C-10.99 17 -11.98 17 -13 17 C-12.34 18.65 -11.68 20.3 -11 22 C-8.06556598 21.73343428 -8.06556598 21.73343428 -5 21 C-4.34 20.01 -3.68 19.02 -3 18 C-1.68 18 -0.36 18 1 18 C0.7416116 21.48824341 -0.26466736 22.24214247 -2.9375 24.6875 C-7.31571256 27.99349724 -9.48598404 28.38027696 -15 28 C-18.1850357 26.23984869 -18.83296972 25.50109084 -20 22 C-20.74164899 14.95433464 -19.07492955 9.82426799 -15 4 C-10.56344413 -0.1996524 -5.80952325 -0.58095233 0 0 Z M-10.3125 6.8125 C-12.23394386 9.84078821 -12.23394386 9.84078821 -12 13 C-8.72766181 12.12737648 -6.50912029 11.52609096 -4.125 9.0625 C-2.76057393 6.95261359 -2.76057393 6.95261359 -3 4 C-6.97354515 3.33774248 -7.67559702 3.60545583 -10.3125 6.8125 Z " fill="#FAFAF9" transform="translate(367,9)"/>
</svg>
