<?xml version="1.0" encoding="UTF-8"?>
<svg version="1.1" xmlns="http://www.w3.org/2000/svg" width="1436" height="1295">
<path d="M0 0 C0.66 0 1.32 0 2 0 C3.35351562 1.52197266 3.35351562 1.52197266 4.90625 3.6640625 C5.48004395 4.44918213 6.05383789 5.23430176 6.64501953 6.04321289 C7.25716309 6.89520264 7.86930664 7.74719238 8.5 8.625 C9.13147949 9.49439209 9.76295898 10.36378418 10.41357422 11.25952148 C12.28172097 13.83540023 14.14101583 16.41750537 16 19 C16.90820688 20.24916878 17.8169805 21.4979259 18.7265625 22.74609375 C61.36862788 81.51861434 92.39414318 145.86427045 101.75 218.25 C101.85718353 219.07920959 101.96436707 219.90841919 102.07479858 220.76275635 C104.11124547 236.68888116 105.21187601 252.4443362 105.1875 268.5 C105.18656342 269.30767822 105.18562683 270.11535645 105.18466187 270.94750977 C105.07811433 313.80586176 100.00402855 356.91554935 92 399 C91.79370972 400.08658905 91.79370972 400.08658905 91.58325195 401.19512939 C83.34757513 444.2915907 72.01507696 486.76492371 59.63531494 528.83551025 C58.65873029 532.16269073 57.6946785 535.49343041 56.73046875 538.82421875 C52.32528525 554.02414426 52.32528525 554.02414426 51 558 C52.98 558.33 54.96 558.66 57 559 C57.12168045 558.44614624 57.2433609 557.89229248 57.36872864 557.32165527 C60.46825601 543.28240229 63.88487018 529.36495914 67.6875 515.5 C67.94700439 514.55155212 68.20650879 513.60310425 68.47387695 512.62591553 C84.70931656 453.49118267 108.09576626 394.06483001 144 344 C144.73605469 342.96746094 145.47210937 341.93492187 146.23046875 340.87109375 C152.34912071 332.50113452 159.1022298 324.72791334 166 317 C166.85368164 316.03344482 166.85368164 316.03344482 167.72460938 315.04736328 C189.56541877 290.41167065 216.73425659 273.93624898 250 271 C277.43138291 269.47818935 302.69717813 276.6919901 323.6875 294.90234375 C324.450625 295.59457031 325.21375 296.28679687 326 297 C326.928125 297.80630859 326.928125 297.80630859 327.875 298.62890625 C350.6201342 319.63656493 355.37407768 349.58149537 357 379 C357.17643788 384.20845956 357.24200113 389.41389304 357.25 394.625 C357.25233643 395.33521301 357.25467285 396.04542603 357.25708008 396.77716064 C357.26927591 406.74087666 356.71906854 416.47411054 355.5 426.375 C354.34743037 435.75321351 353.67221867 444.98458398 353.625 454.4375 C353.61146484 455.5085498 353.59792969 456.57959961 353.58398438 457.68310547 C353.64396495 468.34798415 355.60992558 478.5916765 360.625 488.0625 C360.96837402 488.72950928 361.31174805 489.39651855 361.66552734 490.08374023 C365.1204545 496.58681227 369.34320667 502.29564824 374 508 C374.46535156 508.6290625 374.93070313 509.258125 375.41015625 509.90625 C386.64137909 524.46905882 405.05612612 533.63210381 423 536 C426.28925183 536.2474784 429.58008292 536.41115215 432.875 536.5625 C433.75414062 536.60568359 434.63328125 536.64886719 435.5390625 536.69335938 C437.69255797 536.79869339 439.84626064 536.89977649 442 537 C439.73453944 547.11600166 428.27162598 554.41236565 420.1875 559.9140625 C390.77730633 578.05567653 352.26780473 579.37994499 319.3125 571.875 C300.12715857 567.15515195 279.85737924 558.27259212 265 545 C264.25105469 544.34386719 263.50210938 543.68773437 262.73046875 543.01171875 C256.35906175 537.05203434 251.42488405 530.31358354 246.32910156 523.26635742 C242.55632245 518.06466647 238.70130954 512.9792414 234.5625 508.0625 C234.10311035 507.50208008 233.6437207 506.94166016 233.17041016 506.36425781 C229.31649836 501.86964881 225.21026725 498.63091958 219.296875 497.46875 C199.35376973 497.71345068 185.57768489 511.28015126 172.36962891 524.65039062 C161.09613922 536.26398241 151.11790692 549.00426994 141.5 562 C140.92459473 562.77682129 140.34918945 563.55364258 139.75634766 564.35400391 C137.10509006 567.9754427 134.50997712 571.63300974 132.03125 575.375 C131.40573242 576.31472656 131.40573242 576.31472656 130.76757812 577.2734375 C129.68631052 579.18284299 129.68631052 579.18284299 131 582 C132.92831285 583.61346462 132.92831285 583.61346462 135.25 585.1875 C140.89386086 589.45634381 144.05377687 593.68821906 146 600.5 C146 606.53349931 144.2278181 610.99939249 140.1875 615.5 C134.93233292 620.42529728 128.30924814 623.630984 122 627 C120.40459193 625.40459193 120.53463837 623.4431359 120.1875 621.25 C119.35990783 616.82775177 118.12162996 614.32973862 115 611 C115 610.34 115 609.68 115 609 C114.23623047 608.62294922 114.23623047 608.62294922 113.45703125 608.23828125 C111.50684295 607.25543595 109.56939721 606.24731351 107.63671875 605.23046875 C76.36557152 588.92810739 41.02237657 585.75276362 6.25 585.875 C5.40940033 585.87721558 4.56880066 585.87943115 3.70272827 585.88171387 C-33.66625028 585.99721063 -76.90883882 586.91551759 -107 612 C-110.76268555 616.5988379 -111.1501727 622.29116012 -112 628 C-134.07934521 617.94965794 -134.07934521 617.94965794 -138.4765625 606.23046875 C-139.65361962 601.21479997 -138.77627198 597.43754071 -136.3125 592.875 C-133.72308584 589.65572834 -130.98751794 586.85172167 -128 584 C-129.58123499 578.49232758 -132.11542825 573.73476859 -134.875 568.75 C-135.3589624 567.874646 -135.8429248 566.99929199 -136.34155273 566.09741211 C-151.6886175 538.75929882 -172.47523887 508.00117309 -202.1875 494.9375 C-210.34574813 492.93137341 -218.40634371 493.20317186 -226 497 C-231.54401751 500.54335032 -235.42009031 505.78697424 -239.48046875 510.87109375 C-246.94180458 520.20746716 -254.87856094 529.23660895 -263 538 C-263.680625 538.74636719 -264.36125 539.49273438 -265.0625 540.26171875 C-284.08171249 560.29482308 -313.3001204 573.15989705 -340.828125 574.09619141 C-379.17398725 575.05837976 -415.4871667 567.06240477 -444.578125 540.66015625 C-448.42623254 536.93987046 -448.42623254 536.93987046 -450 535 C-450 534.34 -450 533.68 -450 533 C-449.34628418 533.01047363 -448.69256836 533.02094727 -448.01904297 533.03173828 C-423.54125727 533.37176731 -398.08015815 532.5612602 -379.1875 514.75 C-363.98506228 498.42247213 -357.86655288 475.22455822 -357.83203125 453.3125 C-357.82797775 452.50087402 -357.82392426 451.68924805 -357.81974792 450.85302734 C-357.81033965 448.23531083 -357.81034844 445.61773108 -357.8125 443 C-357.8117749 442.10361816 -357.8110498 441.20723633 -357.81030273 440.28369141 C-357.81123829 429.81103461 -357.96711328 419.43107997 -359 409 C-362.85072845 369.94357996 -359.07462558 326.21054158 -333.3671875 294.7109375 C-327.74862611 288.11694543 -321.6807527 283.08105389 -314 279 C-312.99195313 278.45601563 -311.98390625 277.91203125 -310.9453125 277.3515625 C-291.31507308 267.51244494 -266.08732742 266.85922362 -245.18457031 273.27246094 C-212.06262041 284.30323996 -181.83520927 305.92263121 -160.296875 333.35253906 C-159.38577512 334.50993778 -158.46854925 335.66252764 -157.546875 336.81152344 C-144.06736519 353.63538133 -133.11617326 371.99894427 -123 391 C-122.46181641 392.00933594 -121.92363281 393.01867187 -121.36914062 394.05859375 C-95.51498268 442.78263392 -75.91169387 493.43286367 -57.02404785 545.20303345 C-56.30509069 547.16671038 -55.57984402 549.12809048 -54.84997559 551.08773804 C-54.48279419 552.07931915 -54.11561279 553.07090027 -53.73730469 554.0925293 C-53.23731964 555.43374092 -53.23731964 555.43374092 -52.72723389 556.80204773 C-52 559 -52 559 -52 561 C-50.68 560.67 -49.36 560.34 -48 560 C-50.08403282 551.35356235 -52.30844958 542.75980595 -54.75 534.20703125 C-55.00276703 533.32129929 -55.25553406 532.43556732 -55.51596069 531.522995 C-56.05805207 529.62418257 -56.60015662 527.7253739 -57.14227295 525.8265686 C-85.76369932 425.25035086 -85.76369932 425.25035086 -93.63000488 380.11859131 C-94.01899317 377.89124512 -94.41681252 375.66558327 -94.81542969 373.43994141 C-100.84573913 339.55658663 -105.23616993 305.33081276 -105.1875 270.875 C-105.18656342 270.01328186 -105.18562683 269.15156372 -105.18466187 268.26373291 C-105.15442153 255.40458921 -104.89573397 242.73979747 -103 230 C-102.84934082 228.9486084 -102.69868164 227.8972168 -102.54345703 226.81396484 C-94.17656462 169.88533953 -72.41467142 115.77439698 -44 66 C-43.56107422 65.22591797 -43.12214844 64.45183594 -42.66992188 63.65429688 C-35.88823378 51.77876259 -28.38141902 40.38241329 -20.8125 29 C-20.34491272 28.29539642 -19.87732544 27.59079285 -19.39556885 26.86483765 C-4.58181695 4.58181695 -4.58181695 4.58181695 0 0 Z M4 27 C3.86691846 118.12623198 4.01131527 209.24962188 4.4375 300.375 C4.44297317 301.54754806 4.44844633 302.72009611 4.45408535 303.92817593 C4.85010784 388.61957606 5.36199975 473.31008249 6 558 C15.57 558.33 25.14 558.66 35 559 C37.30688238 552.96514006 37.30688238 552.96514006 39.28344727 546.87109375 C39.49157547 546.15834793 39.69970367 545.44560211 39.91413879 544.71125793 C40.23701118 543.58574776 40.23701118 543.58574776 40.56640625 542.4375 C40.801353 541.625728 41.03629974 540.81395599 41.27836609 539.97758484 C42.04478377 537.3198058 42.80464618 534.66023309 43.5625 532 C43.82567017 531.07772614 44.08884033 530.15545227 44.35998535 529.20523071 C59.36234088 476.48701679 71.76270135 422.8133667 77.75134277 368.26391602 C77.92300121 366.70104056 78.09671312 365.13838976 78.27209473 363.57592773 C83.14920695 319.97794559 84.66740938 275.60311257 79 232 C78.91514343 231.33987915 78.83028687 230.6797583 78.74285889 229.99963379 C71.86710042 176.90607095 53.66109984 129.10352647 32 80.5625 C31.65500458 79.7883374 31.31000916 79.0141748 30.95455933 78.21655273 C26.24109449 67.66823644 21.25160686 57.2906182 16 47 C15.52997559 46.07695068 15.05995117 45.15390137 14.57568359 44.20288086 C13.45823869 42.02455638 12.3267861 39.85446007 11.1875 37.6875 C10.81947266 36.97400391 10.45144531 36.26050781 10.07226562 35.52539062 C8.3409389 32.23308237 6.71624295 29.53506371 4 27 Z M181.6328125 334.89453125 C176.44108682 340.70174291 171.65098588 346.7554557 167 353 C166.49259277 353.67224609 165.98518555 354.34449219 165.46240234 355.03710938 C157.30175478 365.87829781 150.075164 377.09694314 143.26464844 388.82910156 C142.18398679 390.68416786 141.08237946 392.52700561 139.9765625 394.3671875 C124.31119376 420.52339141 112.86272047 449.5492658 101.51023865 477.78146362 C100.16752939 481.12023135 98.81663416 484.45451918 97.43017578 487.77539062 C88.72967114 508.6476581 82.39705015 529.94185372 76.421875 551.734375 C76.17564896 552.62664795 75.92942291 553.5189209 75.67573547 554.43823242 C75.45370956 555.26009033 75.23168365 556.08194824 75.00292969 556.92871094 C74.71080597 558.00424225 74.71080597 558.00424225 74.41278076 559.10150146 C73.89376953 561.16477565 73.89376953 561.16477565 74 564 C80.93 565.98 87.86 567.96 95 570 C97.03528948 567.96471052 97.75044116 566.59508089 98.8828125 563.9921875 C99.24093018 563.17903076 99.59904785 562.36587402 99.96801758 561.52807617 C100.34982178 560.65256104 100.73162598 559.7770459 101.125 558.875 C104.8236227 550.53659714 108.68926818 542.32958466 112.86181641 534.21875 C113.66603443 532.65102513 114.4646535 531.08042207 115.25927734 529.5078125 C126.93090841 506.41009066 139.8446089 484.00131531 155 463 C155.52078125 462.2771582 156.0415625 461.55431641 156.578125 460.80957031 C162.63854966 452.45023456 168.95950887 444.56405016 176 437 C177.08740366 435.73264774 178.17085594 434.46189262 179.25 433.1875 C196.56296276 413.49747142 221.08212658 391.6878192 248.4453125 389.59765625 C258.2298939 389.13104903 266.11239293 389.83359201 273.75390625 396.5390625 C287.17099238 410.72956462 288.9742674 434.20314301 291.90673828 452.61645508 C297.11822319 485.05002889 308.52202038 514.89773722 334.9765625 535.84375 C347.66715776 544.89440708 360.92380835 547.22076321 376.1875 547.3125 C377.09685303 547.31813965 378.00620605 547.3237793 378.94311523 547.32958984 C383.25211629 547.28184244 386.18950156 547.17194628 390 545 C389.24976563 544.6596875 388.49953125 544.319375 387.7265625 543.96875 C380.28794703 540.44618147 374.1102065 536.50569597 368 531 C367.52030762 530.56945312 367.04061523 530.13890625 366.54638672 529.6953125 C358.45438953 522.32901997 352.4574262 514.46029046 347 505 C346.52046875 504.21753906 346.0409375 503.43507813 345.546875 502.62890625 C338.87552659 490.78515163 335.25020713 475.49820236 335 462 C334.97856934 461.25097412 334.95713867 460.50194824 334.93505859 459.73022461 C334.80696978 451.36944075 335.57853917 443.109749 336.28338623 434.78842163 C339.43616813 398.23110873 339.43616813 398.23110873 335 362 C334.83371094 361.28102539 334.66742187 360.56205078 334.49609375 359.82128906 C329.58923148 339.45781066 320.45227008 322.76222578 302.87109375 310.7421875 C259.8905661 284.66148637 213.41075068 299.99904753 181.6328125 334.89453125 Z M-310 316 C-310.68835938 316.60585938 -311.37671875 317.21171875 -312.0859375 317.8359375 C-327.30718211 332.12407899 -332.407453 352.62185387 -333.06272697 372.94550896 C-333.15876069 377.72359694 -333.18027166 382.50222831 -333.19923019 387.28114891 C-333.21119457 390.03973976 -333.23069389 392.79818596 -333.25234985 395.55671692 C-333.31334495 403.39477513 -333.36761195 411.23281803 -333.40136719 419.07104492 C-333.7700805 500.16248042 -333.7700805 500.16248042 -362.08227539 528.58837891 C-366.96013077 533.25309833 -372.39154359 536.80122917 -378.1640625 540.2578125 C-381.00941836 541.85450607 -381.00941836 541.85450607 -383 544 C-356.63872161 543.10377834 -333.02254745 533.45738095 -314.57421875 513.84765625 C-297.56368277 493.8824366 -293.7418375 469.37406014 -290.9375 444.125 C-286.46741711 404.08614356 -286.46741711 404.08614356 -273 392 C-263.11989223 385.71265869 -251.302833 385.59466125 -240.0625 388 C-223.3036779 392.83643859 -208.71187298 403.28363973 -196.10546875 415.046875 C-194.38742539 416.64060724 -192.65134665 418.11458926 -190.8125 419.5625 C-187.88911498 422.09610035 -185.47015002 424.77850787 -182.96875 427.71875 C-180.78802915 430.24561702 -178.52223857 432.68018634 -176.25 435.125 C-147.89666995 466.30083349 -125.99859938 504.0861987 -106.86328125 541.4453125 C-103.78675253 547.44813833 -100.59638477 553.3863722 -97.375 559.3125 C-96.61062622 560.72873657 -96.61062622 560.72873657 -95.83081055 562.17358398 C-95.35812744 563.04055908 -94.88544434 563.90753418 -94.3984375 564.80078125 C-93.77461182 565.94800659 -93.77461182 565.94800659 -93.13818359 567.1184082 C-92.01517262 569.14418935 -92.01517262 569.14418935 -90 571 C-82.41 568.69 -74.82 566.38 -67 564 C-69.76065835 554.6697561 -72.93930379 545.61393451 -76.5 536.5625 C-77.03242665 535.20276457 -77.56473182 533.84298158 -78.09692383 532.4831543 C-79.19271615 529.68617953 -80.29207576 526.89063514 -81.39306641 524.09570312 C-82.90026623 520.26394998 -84.37884881 516.42176309 -85.85546875 512.578125 C-93.06869534 493.97302677 -101.38755758 476.00332292 -110.05664062 458.03808594 C-111.76000541 454.50565061 -113.43984781 450.96263921 -115.109375 447.4140625 C-133.18297369 409.04394323 -153.75487205 372.99483646 -183 342 C-183.80179688 341.1440625 -184.60359375 340.288125 -185.4296875 339.40625 C-205.93921341 318.15703627 -234.66102289 299.32313875 -264.9375 298.6875 C-281.85516078 298.8379535 -297.26162063 304.78831779 -310 316 Z " fill="#FFFFFF" transform="translate(710,109)"/>
<path d="M0 0 C1.18951263 0.00432037 2.37902527 0.00864075 3.60458374 0.01309204 C103.93156234 0.43814597 103.93156234 0.43814597 132.4609375 27.48046875 C136.06672777 31.74585481 136.59064149 35.37349382 136.4140625 40.85546875 C135.82639943 45.06705405 134.16418829 47.63712803 131.0625 50.375 C126.03716013 53.87198243 120.89976431 57.42924523 115.0625 59.375 C114.83175781 58.72273437 114.60101562 58.07046875 114.36328125 57.3984375 C111.49796154 49.71983369 108.63761997 44.27077598 101.0625 40.375 C103.23850008 56.42300056 115.72159018 69.68913938 128.0625 79.375 C131.05464611 81.31845392 134.14286392 82.99073772 137.3125 84.625 C138.08207031 85.04523438 138.85164063 85.46546875 139.64453125 85.8984375 C150.13376241 91.39361956 160.59241644 92.82034951 172.3125 93.0625 C173.45074219 93.09666016 174.58898437 93.13082031 175.76171875 93.16601562 C178.52854702 93.24739293 181.2951023 93.31689107 184.0625 93.375 C179.25120151 105.80067913 167.98191149 111.89838548 156.25 117.125 C134.05389216 125.85016324 110.82679955 126.90191105 88.5 118 C86.67184934 117.1581886 84.85783174 116.2847061 83.0625 115.375 C82.22847656 114.95734375 81.39445312 114.5396875 80.53515625 114.109375 C60.44286214 103.06337445 47.75543019 82.29172423 41.3046875 60.79296875 C40.0097526 56.1972349 38.83095069 51.57601036 37.69580078 46.93847656 C36.75002578 43.11016605 35.71698666 39.30645854 34.6875 35.5 C34.14516082 33.45851187 33.60319635 31.41692385 33.0625 29.375 C32.0725 29.375 31.0825 29.375 30.0625 29.375 C30.2958606 30.1625769 30.2958606 30.1625769 30.53393555 30.96606445 C44.03485107 77.07726474 49.77553964 123.40986712 26.16918945 167.13623047 C23.0221649 172.7191551 19.26395647 177.56083113 15.0625 182.375 C14.52625 183.04273438 13.99 183.71046875 13.4375 184.3984375 C10.33154529 188.23235035 7.30674358 190.84866453 3.0625 193.375 C-16.17480547 181.03408706 -28.7204329 154.58654714 -34.1015625 133.02734375 C-40.7590193 102.40017444 -31.58880747 70.51295492 -24.86328125 40.6875 C-24.59472321 39.49401192 -24.59472321 39.49401192 -24.32073975 38.27641296 C-23.63305375 35.25771816 -22.91724127 32.31422382 -21.9375 29.375 C-23.2575 29.375 -24.5775 29.375 -25.9375 29.375 C-26.04707031 29.98883545 -26.15664063 30.6026709 -26.26953125 31.23510742 C-31.73562938 60.33485851 -46.15898568 91.46043169 -71.0625 108.5625 C-92.20242662 122.51282708 -116.09677853 125.75721358 -140.56445312 120.91845703 C-155.64721 117.4643195 -171.54377726 108.84341754 -180.9375 96.375 C-180.9375 95.055 -180.9375 93.735 -180.9375 92.375 C-180.24938232 92.39071045 -179.56126465 92.4064209 -178.85229492 92.42260742 C-151.49183789 92.96212222 -126.07729405 91.47027689 -105.0625 72 C-96.45960741 62.72402046 -90.95990876 50.40484576 -84.9375 39.375 C-85.41960937 39.7359375 -85.90171875 40.096875 -86.3984375 40.46875 C-87.03007813 40.9328125 -87.66171875 41.396875 -88.3125 41.875 C-88.93898438 42.3390625 -89.56546875 42.803125 -90.2109375 43.28125 C-91.9375 44.375 -91.9375 44.375 -93.9375 44.375 C-97.72473639 51.52169354 -97.72473639 51.52169354 -98.9375 59.375 C-107.8119413 57.9813603 -114.96939823 53.15767648 -120.59765625 46.3046875 C-122.91877628 42.96173329 -123.96618683 41.14954433 -123.8125 37 C-121.87088178 28.95615307 -116.36620428 24.18034477 -109.625 19.91015625 C-77.55116035 2.33481098 -35.7129512 -0.24787788 0 0 Z M6.0625 28.375 C5.22335035 61.50355706 4.97018644 94.61222963 5 127.75 C5.00085602 128.70823166 5.00171204 129.66646332 5.00259399 130.6537323 C5.01401821 142.56084014 5.03414338 154.46792087 5.0625 166.375 C19.22553776 155.40175738 24.80682948 133.44869072 27.0625 116.375 C30.34203078 89.34733925 29.4172847 53.0845694 17.0625 28.375 C13.4325 28.375 9.8025 28.375 6.0625 28.375 Z M50.0625 30.375 C51.08043057 51.07292161 58.87623122 69.50878811 72.0625 85.375 C72.61421875 86.04144531 73.1659375 86.70789063 73.734375 87.39453125 C83.27887635 97.86040773 98.14365955 104.79234769 112.28491211 105.48364258 C114.79500639 105.54443725 117.30169944 105.56058919 119.8125 105.5625 C120.67488281 105.57474609 121.53726563 105.58699219 122.42578125 105.59960938 C123.24949219 105.60154297 124.07320312 105.60347656 124.921875 105.60546875 C125.66920898 105.60957764 126.41654297 105.61368652 127.18652344 105.61791992 C129.30706958 105.53739511 129.30706958 105.53739511 131.0625 103.375 C130.49442627 103.16931396 129.92635254 102.96362793 129.34106445 102.75170898 C114.42993025 97.31509106 100.19363674 91.94778913 88.0625 81.375 C87.47210937 80.87871094 86.88171875 80.38242187 86.2734375 79.87109375 C74.31376175 68.97632063 66.74460881 52.23312916 62.70996094 36.8972168 C62.21342444 35.04159263 61.64396986 33.20578736 61.0625 31.375 C58.65704362 30.17227181 57.11253047 30.27428528 54.4375 30.3125 C53.62023437 30.32152344 52.80296875 30.33054687 51.9609375 30.33984375 C51.33445312 30.35144531 50.70796875 30.36304688 50.0625 30.375 Z M-51.9375 33.375 C-52.88364508 35.78951309 -53.56235202 38.00143214 -54.1875 40.5 C-57.67404702 52.88436017 -63.58891778 63.5554771 -71.9375 73.375 C-72.56011719 74.1896875 -73.18273437 75.004375 -73.82421875 75.84375 C-86.88732834 91.49050603 -107.56385716 100.5689037 -126.9375 105.375 C-126.9375 106.035 -126.9375 106.695 -126.9375 107.375 C-104.46670208 107.96923266 -88.03673918 103.90704214 -70.9375 88.375 C-70.30457031 87.83488281 -69.67164063 87.29476562 -69.01953125 86.73828125 C-54.76120397 73.78506402 -46.36901443 52.65499701 -41.9375 34.375 C-41.9375 33.715 -41.9375 33.055 -41.9375 32.375 C-47.09585767 32.07491844 -47.09585767 32.07491844 -51.9375 33.375 Z " fill="#FFFFFF" transform="translate(708.9375,813.625)"/>
<path d="M0 0 C1.02738281 -0.01224609 2.05476562 -0.02449219 3.11328125 -0.03710938 C4.59634766 -0.04000977 4.59634766 -0.04000977 6.109375 -0.04296875 C7.00108398 -0.04707764 7.89279297 -0.05118652 8.81152344 -0.05541992 C11.3956091 0.20200551 13.02622724 0.88189054 15.25 2.1875 C14.5075 2.6825 13.765 3.1775 13 3.6875 C6.68682863 9.4267467 5.262125 16.72857147 4.6875 24.9375 C4.56181641 26.69320312 4.56181641 26.69320312 4.43359375 28.484375 C4.37300781 29.37640625 4.31242188 30.2684375 4.25 31.1875 C8.21 30.6925 8.21 30.6925 12.25 30.1875 C12.50394531 29.00414062 12.75789062 27.82078125 13.01953125 26.6015625 C14.80608012 18.36706972 16.59396038 10.19586188 19.25 2.1875 C19.58 2.1875 19.91 2.1875 20.25 2.1875 C20.25 11.4275 20.25 20.6675 20.25 30.1875 C21.57 30.5175 22.89 30.8475 24.25 31.1875 C24.24476318 30.34453369 24.23952637 29.50156738 24.23413086 28.63305664 C24.21712174 25.51522064 24.20456594 22.39740823 24.19506836 19.27954102 C24.19002943 17.92829614 24.18319823 16.57705674 24.17456055 15.22583008 C24.16247581 13.28729566 24.15730172 11.348722 24.15234375 9.41015625 C24.14710693 8.24234619 24.14187012 7.07453613 24.13647461 5.87133789 C24.25 3.1875 24.25 3.1875 25.25 2.1875 C32.18998781 1.75500801 38.6973755 1.74931414 45.25 4.1875 C44.86328125 4.868125 44.4765625 5.54875 44.078125 6.25 C39.55716282 14.66525634 37.25413407 22.89774912 35.25 32.1875 C37.89 31.8575 40.53 31.5275 43.25 31.1875 C43.59611328 29.62902344 43.59611328 29.62902344 43.94921875 28.0390625 C45.83838339 19.85399157 47.95873694 12.50375177 52.25 5.1875 C52.58 5.1875 52.91 5.1875 53.25 5.1875 C53.11100313 9.10444071 52.96261867 13.02097102 52.8125 16.9375 C52.77318359 18.04867187 52.73386719 19.15984375 52.69335938 20.3046875 C52.65146484 21.37460937 52.60957031 22.44453125 52.56640625 23.546875 C52.51141968 25.02365723 52.51141968 25.02365723 52.45532227 26.53027344 C52.25 29.1875 52.25 29.1875 51.25 33.1875 C55.21 33.8475 59.17 34.5075 63.25 35.1875 C63.25 25.6175 63.25 16.0475 63.25 6.1875 C74.5 8.4375 74.5 8.4375 79.875 10.8125 C80.89851562 11.25851562 81.92203125 11.70453125 82.9765625 12.1640625 C83.72679687 12.50179687 84.47703125 12.83953125 85.25 13.1875 C85.25 17.10440212 83.91785098 18.15194986 81.5 21.1875 C77.3920878 26.64286567 75.27547316 31.68910695 73.25 38.1875 C76.88 38.8475 80.51 39.5075 84.25 40.1875 C84.806875 38.3003125 84.806875 38.3003125 85.375 36.375 C87.65595629 29.48847648 91.23635204 23.20797193 95.25 17.1875 C95.91 17.5175 96.57 17.8475 97.25 18.1875 C96.72599609 19.52941406 96.72599609 19.52941406 96.19140625 20.8984375 C93.49883344 28.05320604 91.59991587 34.48935088 91.25 42.1875 C94.55 43.5075 97.85 44.8275 101.25 46.1875 C101.37117187 44.81335938 101.49234375 43.43921875 101.6171875 42.0234375 C101.78608569 40.20309039 101.95537727 38.38277974 102.125 36.5625 C102.20363281 35.65886719 102.28226563 34.75523437 102.36328125 33.82421875 C102.82019973 29.00900097 103.45520265 24.72728154 105.25 20.1875 C109.42169313 22.80693522 113.0261724 25.39476165 116.25 29.1875 C116.25 33.31364387 115.64287619 34.88760559 113.875 38.5 C111.88478568 42.70594867 110.3532174 46.67433789 109.25 51.1875 C110.054375 51.5278125 110.054375 51.5278125 110.875 51.875 C115.83639937 54.61682597 119.89263173 57.97647539 122.25 63.1875 C123.72289704 68.39173621 123.25289212 71.5815609 120.70703125 76.1875 C118.09349207 79.77498542 114.73718733 82.47900498 111.25 85.1875 C114.46323757 93.63441998 117.61016938 100.4015464 123.7109375 107.19921875 C125.25 109.1875 125.25 109.1875 125.25 112.1875 C116.79647639 109.42327725 107.79785807 106.39957048 101.25 100.1875 C98.04475055 93.13038895 98.28769919 85.24650263 98.7121582 77.63256836 C98.4888431 74.92136325 98.4888431 74.92136325 95.73120117 73.35375977 C94.91240479 72.96889404 94.0936084 72.58402832 93.25 72.1875 C93.43536543 79.34934634 95.15651636 85.52059841 97.61010742 92.18383789 C98.20667123 93.83452417 98.7341214 95.50984603 99.25 97.1875 C98.92 97.8475 98.59 98.5075 98.25 99.1875 C92.78504783 92.27740851 89.19161457 85.08629874 85.828125 77.01953125 C85.56233643 76.38490967 85.29654785 75.75028809 85.02270508 75.09643555 C84.50273203 73.81186391 84.01068359 72.51567205 83.5456543 71.21020508 C82.43665425 68.24072415 81.76778331 66.49423519 78.98828125 64.84765625 C78.18777344 64.65042969 77.38726563 64.45320312 76.5625 64.25 C75.75425781 64.03472656 74.94601562 63.81945312 74.11328125 63.59765625 C73.49839844 63.46230469 72.88351562 63.32695313 72.25 63.1875 C74.28630743 76.29744117 79.33178521 85.62988028 87.25 96.1875 C86.92 96.8475 86.59 97.5075 86.25 98.1875 C82.0992122 97.27108075 77.95551447 96.32589263 73.8125 95.375 C72.62849609 95.11396484 71.44449219 94.85292969 70.22460938 94.58398438 C68.53754883 94.19243164 68.53754883 94.19243164 66.81640625 93.79296875 C65.77427979 93.55731201 64.73215332 93.32165527 63.65844727 93.07885742 C62.86365967 92.78470947 62.06887207 92.49056152 61.25 92.1875 C60.11082782 88.76998347 60.13661519 86.15262063 60.15234375 82.55078125 C60.15556641 81.25205078 60.15878906 79.95332031 60.16210938 78.61523438 C60.17046469 77.24348892 60.17892963 75.87174413 60.1875 74.5 C60.19251665 73.11653805 60.19707927 71.73307437 60.20117188 70.34960938 C60.21297471 66.96219605 60.22943981 63.57486967 60.25 60.1875 C57.61 59.8575 54.97 59.5275 52.25 59.1875 C52.58 69.7475 52.91 80.3075 53.25 91.1875 C51.25 90.1875 51.25 90.1875 50.06640625 86.64453125 C49.63909081 85.09890786 49.22174432 83.55050613 48.8125 82 C48.59440674 81.1951416 48.37631348 80.3902832 48.15161133 79.56103516 C46.26401671 72.48727257 44.67036724 65.37017008 43.25 58.1875 C40.28 57.8575 37.31 57.5275 34.25 57.1875 C34.46382262 70.32787205 38.46481248 79.68226939 44.25 91.1875 C40.77048477 91.04931468 37.29149505 90.90067399 33.8125 90.75 C32.81927734 90.71068359 31.82605469 90.67136719 30.80273438 90.63085938 C29.85849609 90.58896484 28.91425781 90.54707031 27.94140625 90.50390625 C27.06685791 90.46724854 26.19230957 90.43059082 25.29125977 90.39282227 C23.25 90.1875 23.25 90.1875 22.25 89.1875 C22.16156207 86.73919574 22.13471248 84.31929401 22.15234375 81.87109375 C22.15446617 80.77451195 22.15446617 80.77451195 22.15663147 79.65577698 C22.16224592 77.31214368 22.17480078 74.96860461 22.1875 72.625 C22.19251314 71.03971492 22.19707637 69.45442834 22.20117188 67.86914062 C22.21222003 63.9752239 22.22949428 60.08137795 22.25 56.1875 C20.6 56.1875 18.95 56.1875 17.25 56.1875 C17.26160156 56.90550781 17.27320313 57.62351562 17.28515625 58.36328125 C17.37206522 68.3329817 16.83833998 78.23825076 16.25 88.1875 C14.19619089 84.73235544 13.7957777 81.645277 13.3984375 77.671875 C13.26953125 76.42148437 13.140625 75.17109375 13.0078125 73.8828125 C12.88148438 72.58085938 12.75515625 71.27890625 12.625 69.9375 C12.49030082 68.60669802 12.3548918 67.27596768 12.21875 65.9453125 C11.88884032 62.69334567 11.56620728 59.44082304 11.25 56.1875 C8.94 56.1875 6.63 56.1875 4.25 56.1875 C4.33140775 59.56344805 4.44420201 62.93765913 4.5625 66.3125 C4.58505859 67.26382813 4.60761719 68.21515625 4.63085938 69.1953125 C4.94891073 77.5224753 6.9567596 81.5709495 12.25 88.1875 C1.69 88.1875 -8.87 88.1875 -19.75 88.1875 C-19.75 77.9575 -19.75 67.7275 -19.75 57.1875 C-22.06 57.1875 -24.37 57.1875 -26.75 57.1875 C-26.6778125 57.85394531 -26.605625 58.52039063 -26.53125 59.20703125 C-25.54785974 68.97264282 -25.33746004 78.45666917 -26.75 88.1875 C-28.42647437 89.86397437 -30.57584536 89.53388077 -32.87890625 89.72265625 C-33.91337891 89.80966797 -34.94785156 89.89667969 -36.01367188 89.98632812 C-37.10228516 90.07333984 -38.19089844 90.16035156 -39.3125 90.25 C-40.9512207 90.38631836 -40.9512207 90.38631836 -42.62304688 90.52539062 C-45.33172492 90.75012811 -48.04068166 90.97064089 -50.75 91.1875 C-49.39615752 87.68678288 -47.89098083 84.75065438 -45.8125 81.625 C-41.61367425 74.76726014 -39.48576955 67.24652881 -39.75 59.1875 C-43.215 59.6825 -43.215 59.6825 -46.75 60.1875 C-47.27787109 61.6415625 -47.27787109 61.6415625 -47.81640625 63.125 C-48.57610033 65.21159841 -49.3518568 67.28726989 -50.16674805 69.35302734 C-51.63569373 73.07978939 -52.91637471 76.69780407 -53.828125 80.6015625 C-55.04501014 85.08331148 -56.22438506 88.99923649 -59.75 92.1875 C-67.73371106 95.92486044 -77.90214147 98.1875 -86.75 98.1875 C-85.1474291 94.70149526 -83.07056405 91.70257085 -80.875 88.5625 C-77.32609522 83.29057623 -74.77361392 78.19443817 -72.75 72.1875 C-72.3375 70.99125 -71.925 69.795 -71.5 68.5625 C-71.2525 67.77875 -71.005 66.995 -70.75 66.1875 C-71.30429687 66.47625 -71.85859375 66.765 -72.4296875 67.0625 C-73.15414062 67.43375 -73.87859375 67.805 -74.625 68.1875 C-75.34429688 68.55875 -76.06359375 68.93 -76.8046875 69.3125 C-78.75 70.1875 -78.75 70.1875 -80.75 70.1875 C-81.018125 70.991875 -81.28625 71.79625 -81.5625 72.625 C-82.17726827 74.46930482 -82.79705997 76.31282548 -83.48046875 78.1328125 C-85.18333522 82.81785629 -85.99134587 87.09206452 -86.5 92.0625 C-86.99609375 95.42578125 -86.99609375 95.42578125 -87.75 98.1875 C-90.54461555 100.23688473 -91.51560645 100.52874205 -94.75 101.1875 C-97.00261325 101.9085531 -99.25244153 102.63834204 -101.5 103.375 C-107.33801498 105.1875 -107.33801498 105.1875 -110.75 105.1875 C-109.07051839 100.15833407 -106.08774298 96.54151923 -102.76367188 92.47265625 C-101.6844885 91.09978207 -100.70855034 89.64715801 -99.75 88.1875 C-100.9490572 84.5903284 -102.09593339 83.97891981 -105.125 81.8125 C-111.42070896 76.99813433 -111.42070896 76.99813433 -112.75 73.1875 C-113.38883252 68.32254464 -113.35750337 64.47844467 -111.25 60 C-108.0277833 56.37500621 -104.49545703 53.26022931 -100.75 50.1875 C-101.15992188 49.04152344 -101.56984375 47.89554688 -101.9921875 46.71484375 C-102.53657178 45.1849362 -103.08083624 43.654986 -103.625 42.125 C-103.89441406 41.37283203 -104.16382813 40.62066406 -104.44140625 39.84570312 C-106.04490891 35.32851879 -107.48509086 30.81117272 -108.75 26.1875 C-101.63610478 19.66813781 -101.63610478 19.66813781 -96.75 18.1875 C-94.788284 24.13034552 -94.1437719 29.90398938 -93.625 36.125 C-93.53863281 37.09501953 -93.45226562 38.06503906 -93.36328125 39.06445312 C-93.15278881 41.43834011 -92.94852115 43.81258706 -92.75 46.1875 C-91.8528125 45.6925 -91.8528125 45.6925 -90.9375 45.1875 C-88.75 44.1875 -88.75 44.1875 -85.75 44.1875 C-86.20374362 41.18674219 -86.66285996 38.18696658 -87.125 35.1875 C-87.25132812 34.34832031 -87.37765625 33.50914062 -87.5078125 32.64453125 C-88.32117921 27.39831598 -89.38417996 22.31823268 -90.75 17.1875 C-86.06527815 19.02757122 -84.99170195 21.92475823 -82.921875 26.30078125 C-81.08795406 30.81833984 -79.8587151 35.44616551 -78.75 40.1875 C-76.77 40.1875 -74.79 40.1875 -72.75 40.1875 C-74.47810148 27.61620436 -74.47810148 27.61620436 -78.98046875 15.8515625 C-79.75 14.1875 -79.75 14.1875 -79.75 11.1875 C-77.85751181 10.51139577 -75.9608398 9.84699561 -74.0625 9.1875 C-73.00675781 8.81625 -71.95101562 8.445 -70.86328125 8.0625 C-67.75 7.1875 -67.75 7.1875 -62.75 7.1875 C-62.75 17.0875 -62.75 26.9875 -62.75 37.1875 C-58.295 36.6925 -58.295 36.6925 -53.75 36.1875 C-53.84087891 35.45635986 -53.93175781 34.72521973 -54.02539062 33.97192383 C-54.43672028 30.64832752 -54.84340622 27.32417885 -55.25 24 C-55.39308594 22.84951172 -55.53617188 21.69902344 -55.68359375 20.51367188 C-55.88662109 18.84594727 -55.88662109 18.84594727 -56.09375 17.14453125 C-56.21943359 16.12335205 -56.34511719 15.10217285 -56.47460938 14.05004883 C-56.72897068 11.40608939 -56.80115721 8.8412801 -56.75 6.1875 C-50.879676 13.22162001 -46.75 25.00165443 -46.75 34.1875 C-43.285 33.6925 -43.285 33.6925 -39.75 33.1875 C-38.62268617 23.49260105 -43.89700033 14.27583279 -48.75 6.1875 C-48.75 5.5275 -48.75 4.8675 -48.75 4.1875 C-31.60693692 0.02259096 -31.60693692 0.02259096 -25.7109375 3.33203125 C-18.1952493 10.13588114 -14.37828468 20.41779192 -12.75 30.1875 C-10.77 30.1875 -8.79 30.1875 -6.75 30.1875 C-7.82222716 18.22662116 -11.27224635 11.41590795 -19.75 3.1875 C-19.75 2.5275 -19.75 1.8675 -19.75 1.1875 C-13.14358463 0.19969866 -6.6747113 0.00425141 0 0 Z M-26.75 9.1875 C-26.75 16.7775 -26.75 24.3675 -26.75 32.1875 C-22.79 31.6925 -22.79 31.6925 -18.75 31.1875 C-19.13395847 23.50833054 -21.18827313 17.02246496 -24.75 10.1875 C-25.41 9.8575 -26.07 9.5275 -26.75 9.1875 Z M-12.75 57.1875 C-13.02230983 58.56487031 -13.24039631 59.95307522 -13.43359375 61.34375 C-13.55669922 62.20226562 -13.67980469 63.06078125 -13.80664062 63.9453125 C-13.93232422 64.85023438 -14.05800781 65.75515625 -14.1875 66.6875 C-15.10531191 73.27243623 -16.2299833 79.71262368 -17.75 86.1875 C-12.84977724 83.84834532 -10.87905888 81.19788522 -8.75 76.1875 C-6.97297637 69.69764753 -5.75 62.91201015 -5.75 56.1875 C-9.55621045 55.74902641 -9.55621045 55.74902641 -12.75 57.1875 Z M-59.75 62.1875 C-59.75 69.4475 -59.75 76.7075 -59.75 84.1875 C-55.46378062 77.75817093 -54.21581642 68.84413132 -54.75 61.1875 C-56.96081851 61.08209074 -56.96081851 61.08209074 -59.75 62.1875 Z " fill="#FFFFFF" transform="translate(712.75,710.8125)"/>
<path d="M0 0 C17.50470292 14.91240341 24.61479616 35.95605426 26.59765625 58.265625 C26.71422009 59.79913757 26.82622374 61.3330038 26.93359375 62.8671875 C26.99047363 63.59760254 27.04735352 64.32801758 27.10595703 65.08056641 C27.33970581 69.02129576 27.10876622 71.45052489 25.18359375 74.8671875 C24.92255859 74.24900146 24.66152344 73.63081543 24.39257812 72.99389648 C13.67188291 47.70591685 4.13929687 25.26290956 -22.21875 12.8984375 C-36.84842511 7.09056648 -48.45470976 8.1393034 -62.8203125 14.1171875 C-86.38759678 25.16337134 -107.93805134 46.02609511 -123.79296875 66.28515625 C-125.99354872 69.09323223 -128.30603264 71.78461085 -130.62890625 74.4921875 C-145.41602604 92.27329909 -157.11755398 112.2054079 -167.69238281 132.70898438 C-168.86760226 134.96548741 -170.06917706 137.20629009 -171.27734375 139.4453125 C-176.06236094 148.34522295 -180.46922162 157.32462088 -184.55151367 166.56835938 C-186.95672169 172.00296248 -189.46676007 177.36606381 -192.12890625 182.6796875 C-192.44230957 183.30705811 -192.75571289 183.93442871 -193.07861328 184.58081055 C-195.19236064 188.75916149 -197.46793937 192.81828543 -199.81640625 196.8671875 C-200.47640625 196.8671875 -201.13640625 196.8671875 -201.81640625 196.8671875 C-202.12798661 191.02505584 -201.06061884 186.30025036 -199.31640625 180.7421875 C-199.04723389 179.86892822 -198.77806152 178.99566895 -198.50073242 178.09594727 C-195.69003357 169.16601476 -192.41369988 160.43654467 -188.95556641 151.73974609 C-188.17712696 149.77679742 -187.40630527 147.81081513 -186.64208984 145.84228516 C-176.35768183 119.35139506 -164.1866992 93.40321608 -149.81640625 68.8671875 C-149.41292969 68.17463867 -149.00945313 67.48208984 -148.59375 66.76855469 C-139.39938182 51.1366506 -128.4054328 36.90646536 -115.81640625 23.8671875 C-114.87478607 22.86217956 -113.93338354 21.85696766 -112.9921875 20.8515625 C-83.37343501 -10.3037532 -37.68497894 -28.53813939 0 0 Z " fill="#FFFFFF" transform="translate(1007.81640625,439.1328125)"/>
<path d="M0 0 C1.79907227 0.55004883 1.79907227 0.55004883 4 2 C5.25120273 4.4115969 6.25554087 6.6743851 7.21484375 9.19921875 C7.50716888 9.93442245 7.79949402 10.66962616 8.10067749 11.42710876 C8.7302468 13.01480991 9.35358054 14.6049948 9.97134399 16.19732666 C11.27159538 19.54859843 12.6013824 22.8878775 13.9294281 26.22821045 C14.60986103 27.94083653 15.28869001 29.65410068 15.96595764 31.36798096 C19.04338992 39.1501207 22.22548731 46.88591069 25.46414185 54.60220337 C26.30044149 56.5962481 27.13168873 58.59234753 27.96264648 60.58862305 C28.46610596 61.78914307 28.96956543 62.98966309 29.48828125 64.2265625 C30.14630737 65.79784912 30.14630737 65.79784912 30.81762695 67.40087891 C32.54281433 71.19322763 33.82699475 73.27284859 37.6875 74.8125 C41.98805026 76.32942137 44.72253163 75.59356665 49 74 C49.99 74 50.98 74 52 74 C52.02312635 65.4119428 52.04091658 56.82389851 52.05181217 48.23581791 C52.05704036 44.248428 52.06413684 40.26105933 52.07543945 36.27368164 C52.08627061 32.42874886 52.09227732 28.58383655 52.09487724 24.73888969 C52.09673108 23.26881017 52.10035091 21.79873182 52.10573006 20.32866096 C52.11294355 18.27645533 52.11399081 16.22433533 52.11352539 14.17211914 C52.115746 13.00185684 52.11796661 11.83159454 52.12025452 10.62586975 C52.29900313 8.07433058 52.29900313 8.07433058 51 7 C48.67182036 6.63239269 46.3381615 6.29758419 44 6 C43.4375 4.0625 43.4375 4.0625 43 2 C45.97198148 -0.97198148 54.11044727 0.13919191 58.07104492 0.06567383 C66.92419033 0.30913704 66.92419033 0.30913704 70.62109375 3.44140625 C73.07033375 6.11387878 75.01257011 9.08770295 76.87890625 12.1875 C78.63520672 15.02695441 80.73527938 17.57765871 82.8125 20.1875 C83.63168557 21.25829612 84.447995 22.33129744 85.26171875 23.40625 C88.51798086 27.69112575 91.82119019 31.93924062 95.125 36.1875 C95.68678955 36.91155029 96.2485791 37.63560059 96.82739258 38.3815918 C101.16658608 43.96271632 105.57276292 49.48852697 110 55 C110.049623 49.28915661 110.08582503 43.57844015 110.10986328 37.86743164 C110.1198898 35.92665418 110.13351443 33.9858917 110.15087891 32.04516602 C110.17527489 29.24752084 110.18651681 26.45007629 110.1953125 23.65234375 C110.20563507 22.7916478 110.21595764 21.93095184 110.22659302 21.04417419 C110.22752775 15.96820807 109.64042491 11.81058863 108 7 C103.545 6.01 103.545 6.01 99 5 C99.33 3.68 99.66 2.36 100 1 C108.91 1 117.82 1 127 1 C127.33 2.32 127.66 3.64 128 5 C126.43413992 6.56586008 124.5748512 6.61094693 122.4375 7.0625 C121.61121094 7.23910156 120.78492188 7.41570312 119.93359375 7.59765625 C119.29550781 7.73042969 118.65742187 7.86320312 118 8 C117.99413376 8.89758026 117.98826752 9.79516052 117.98222351 10.71994019 C117.92439099 19.1665617 117.85236918 27.6129161 117.76428509 36.05927849 C117.71950059 40.40196768 117.68026266 44.74456131 117.65356445 49.08740234 C117.62761155 53.27617928 117.58726709 57.46459002 117.53681374 61.65314102 C117.5200905 63.2535256 117.50861031 64.85397359 117.50238609 66.45443344 C117.49280372 68.69120701 117.46481783 70.92703211 117.43237305 73.16357422 C117.41571846 75.07552078 117.41571846 75.07552078 117.39872742 77.02609253 C117.20135735 78.49817673 117.20135735 78.49817673 117 80 C116.01 80.66 115.02 81.32 114 82 C110.42599494 78.5092603 107.08945387 74.8890348 103.875 71.0625 C103.39909424 70.49821289 102.92318848 69.93392578 102.43286133 69.35253906 C98.63252332 64.81739817 94.96937823 60.18425607 91.33740234 55.51391602 C87.6397449 50.77381311 83.83538011 46.12910445 80 41.5 C75.52081684 36.08962309 71.08936185 30.64835439 66.75 25.125 C66.29625 24.54814453 65.8425 23.97128906 65.375 23.37695312 C63.48942078 20.96469206 61.69950857 18.54926285 60 16 C59.94903713 22.67110916 59.91415652 29.34216758 59.89013672 36.01342773 C59.88011672 38.28004838 59.86649703 40.54665623 59.84912109 42.81323242 C59.82469638 46.0825518 59.81347657 49.35169936 59.8046875 52.62109375 C59.79436493 53.62458359 59.78404236 54.62807343 59.77340698 55.66197205 C59.77244881 61.75318538 60.46216947 67.1014355 62 73 C64.97 73.66 67.94 74.32 71 75 C71 76.32 71 77.64 71 79 C49.88 79 28.76 79 7 79 C7.495 77.02 7.495 77.02 8 75 C11.465 74.505 11.465 74.505 15 74 C14.74605469 73.17757813 14.49210937 72.35515625 14.23046875 71.5078125 C13.88628906 70.39148437 13.54210938 69.27515625 13.1875 68.125 C12.85105469 67.03445313 12.51460937 65.94390625 12.16796875 64.8203125 C10.76118064 60.21884503 9.38263477 55.60878257 8 51 C0.74 51 -6.52 51 -14 51 C-14.66 53.97 -15.32 56.94 -16 60 C-16.75663662 62.63087413 -17.5783509 65.22951022 -18.4140625 67.8359375 C-19.13067392 70.10895846 -19.13067392 70.10895846 -19 73 C-16.03 73.66 -13.06 74.32 -10 75 C-10 76.32 -10 77.64 -10 79 C-38.71 79 -67.42 79 -97 79 C-97 77.68 -97 76.36 -97 75 C-96.15115234 74.83564453 -96.15115234 74.83564453 -95.28515625 74.66796875 C-94.55167969 74.50941406 -93.81820313 74.35085938 -93.0625 74.1875 C-92.33160156 74.03667969 -91.60070313 73.88585938 -90.84765625 73.73046875 C-89.93306641 73.36888672 -89.93306641 73.36888672 -89 73 C-87.9465104 69.83953119 -87.87316271 67.60947885 -87.87060547 64.29101562 C-87.86745331 63.11970093 -87.86430115 61.94838623 -87.86105347 60.74157715 C-87.8630777 59.47591919 -87.86510193 58.21026123 -87.8671875 56.90625 C-87.86623077 55.60804321 -87.86527405 54.30983643 -87.86428833 52.97229004 C-87.86281447 50.22516693 -87.86495592 47.47807636 -87.86962891 44.73095703 C-87.87532602 41.21024231 -87.87204535 37.68960383 -87.86605644 34.16889191 C-87.86157354 30.81050516 -87.8647125 27.45213891 -87.8671875 24.09375 C-87.86516327 22.82809204 -87.86313904 21.56243408 -87.86105347 20.25842285 C-87.86420563 19.08710815 -87.86735779 17.91579346 -87.87060547 16.70898438 C-87.87140106 15.67656616 -87.87219666 14.64414795 -87.87301636 13.58044434 C-87.88973867 10.88208851 -87.88973867 10.88208851 -89 8 C-90.84725052 7.30840599 -90.84725052 7.30840599 -93 7 C-95.1875 6.625 -95.1875 6.625 -97 6 C-97.33 5.01 -97.66 4.02 -98 3 C-97.67 2.34 -97.34 1.68 -97 1 C-89.71578452 0.97687084 -82.4315769 0.95908199 -75.14733219 0.94818783 C-71.76528187 0.94296025 -68.3832566 0.93586489 -65.0012207 0.92456055 C-61.11670223 0.91165733 -57.23219403 0.90677076 -53.34765625 0.90234375 C-52.12788589 0.89718246 -50.90811554 0.89202118 -49.65138245 0.88670349 C-47.96975258 0.88659019 -47.96975258 0.88659019 -46.25415039 0.88647461 C-45.26153702 0.884254 -44.26892365 0.88203339 -43.24623108 0.87974548 C-41 1 -41 1 -40 2 C-39.92674832 4.86267567 -39.90761795 7.700719 -39.9375 10.5625 C-39.94201172 11.36880859 -39.94652344 12.17511719 -39.95117188 13.00585938 C-39.96299482 15.00393756 -39.98093086 17.00197783 -40 19 C-43.78125 18.3046875 -43.78125 18.3046875 -45.75 15.5625 C-47 13 -47 13 -47 11 C-55.52046886 7.34837049 -62.83377544 7.76891871 -72 8 C-72.33 16.91 -72.66 25.82 -73 35 C-70.4425 34.87625 -67.885 34.7525 -65.25 34.625 C-64.45110352 34.59100098 -63.65220703 34.55700195 -62.82910156 34.52197266 C-57.58283134 34.27138197 -57.58283134 34.27138197 -53 32 C-51.46557968 30.0734106 -51.46557968 30.0734106 -50.25 27.875 C-49.82203125 27.15054687 -49.3940625 26.42609375 -48.953125 25.6796875 C-48.63859375 25.12539062 -48.3240625 24.57109375 -48 24 C-47.34 24.33 -46.68 24.66 -46 25 C-45.91305958 29.10403363 -45.85962851 33.20783129 -45.8125 37.3125 C-45.78736328 38.47974609 -45.76222656 39.64699219 -45.73632812 40.84960938 C-45.72666016 41.96787109 -45.71699219 43.08613281 -45.70703125 44.23828125 C-45.6913208 45.26993408 -45.67561035 46.30158691 -45.65942383 47.36450195 C-46 50 -46 50 -47.51831055 51.86010742 C-48.00726807 52.23627197 -48.49622559 52.61243652 -49 53 C-49.4125 52.29875 -49.825 51.5975 -50.25 50.875 C-53.50689466 44.65803482 -53.50689466 44.65803482 -59 41 C-61.22818441 40.93062938 -63.45834524 40.91542916 -65.6875 40.9375 C-66.86699219 40.94652344 -68.04648438 40.95554687 -69.26171875 40.96484375 C-70.16535156 40.97644531 -71.06898437 40.98804688 -72 41 C-72.02469575 45.09341499 -72.04285793 49.18680121 -72.05493164 53.28027344 C-72.0599643 54.67318477 -72.06679098 56.0660908 -72.07543945 57.45898438 C-72.08755152 59.45961246 -72.09270412 61.46027888 -72.09765625 63.4609375 C-72.10289307 64.66540527 -72.10812988 65.86987305 -72.11352539 67.11083984 C-72.20087891 69.9413677 -72.20087891 69.9413677 -71 72 C-67.57008462 73.14330513 -64.8013584 73.20381651 -61.1875 73.25 C-59.38345703 73.28867188 -59.38345703 73.28867188 -57.54296875 73.328125 C-52.56285374 72.86690156 -49.259425 71.37055073 -45.875 67.6875 C-43.8723477 64.8170317 -41.90989214 61.93304864 -40 59 C-39.01 59.33 -38.02 59.66 -37 60 C-37.33 64.95 -37.66 69.9 -38 75 C-34.5913541 74.40199195 -32.81582481 73.91610308 -30 72 C-21.92183595 60.10219576 -17.78090815 44.83520195 -12.75 31.5 C-11.40386867 27.94567328 -10.05562329 24.39217677 -8.70391846 20.83996582 C-7.86892595 18.64429926 -7.03733007 16.44733703 -6.20965576 14.24890137 C-4.35533647 9.36043026 -2.47095332 4.61060563 0 0 Z M-4 24 C-9.02258606 34.12398562 -9.02258606 34.12398562 -11 45 C-5.72 45 -0.44 45 5 45 C1.30061697 34.38183186 1.30061697 34.38183186 -3 24 C-3.33 24 -3.66 24 -4 24 Z " fill="#FFFFFF" transform="translate(1185,1105)"/>
<path d="M0 0 C2 1 2 1 3.296875 4.53125 C13.92518975 39.74258538 18.04834481 77.36828116 20.83856201 113.91021729 C20.99353777 115.91634768 21.15698552 117.92181816 21.32080078 119.92724609 C27.82032084 202.1343294 21.26013595 285.45331708 7 404 C6.01 404 5.02 404 4 404 C3.68350022 379.04171636 3.37139971 354.08337884 3.0625 329.125 C3.05097098 328.19404794 3.03944196 327.26309587 3.02756357 326.30393314 C2.37003862 273.19436282 1.7796656 220.08553058 1.35405922 166.97354889 C1.30949137 161.42506983 1.26438269 155.8765954 1.21875 150.328125 C1.20576433 148.74720818 1.20576433 148.74720818 1.19251633 147.13435364 C1.01443636 125.71293528 0.72362754 104.29372617 0.40390015 82.87402344 C-0.00798498 55.24767488 -0.12182303 27.62946345 0 0 Z " fill="#FFFFFF" transform="translate(727,234)"/>
<path d="M0 0 C6.25705338 5.47137194 12.07184647 11.1901176 17.36767578 17.60644531 C18.10115234 18.45207031 18.83462891 19.29769531 19.59033203 20.16894531 C51.56888616 57.46881193 73.44330071 103.82819296 90.36767578 149.60644531 C90.61855957 150.28239746 90.86944336 150.95834961 91.12792969 151.65478516 C92.72262464 155.9542561 94.30112158 160.25921838 95.85949707 164.57199097 C96.36158461 165.96065387 96.86602982 167.34846678 97.3729248 168.73538208 C98.07357891 170.65914319 98.76157565 172.58694589 99.44580078 174.51660156 C100.03989746 176.17381226 100.03989746 176.17381226 100.64599609 177.86450195 C101.36767578 180.60644531 101.36767578 180.60644531 100.36767578 183.60644531 C99.70767578 183.60644531 99.04767578 183.60644531 98.36767578 183.60644531 C96.55342652 179.69058672 94.7415 175.77365772 92.93017578 171.85644531 C92.09993896 170.06279541 92.09993896 170.06279541 91.25292969 168.23291016 C88.86579034 163.0685506 86.48058139 157.90486132 84.19970703 152.69238281 C73.22422592 127.61260166 61.02197788 102.75126228 46.36767578 79.60644531 C45.93583984 78.919375 45.50400391 78.23230469 45.05908203 77.52441406 C21.27566785 39.95995616 -10.30408833 2.32683185 -55.02294922 -8.99902344 C-70.26713905 -11.30390843 -84.39875775 -9.03889914 -97.21435547 -0.21777344 C-110.4109498 9.73830015 -117.64871026 24.1896558 -122.63232422 39.60644531 C-127.43237032 34.80639921 -125.99600359 25.42439413 -126.01733398 19.05493164 C-125.83248458 6.92381467 -121.61915105 -1.41489969 -113.63232422 -10.39355469 C-113.13345703 -10.99683594 -112.63458984 -11.60011719 -112.12060547 -12.22167969 C-80.18288312 -47.94044222 -29.69093696 -25.3478714 0 0 Z " fill="#FFFFFF" transform="translate(516.63232421875,456.3935546875)"/>
<path d="M0 0 C5.53180661 -0.0497499 11.06348052 -0.08588418 16.59545898 -0.10986328 C18.47406282 -0.11986873 20.35265129 -0.13347733 22.23120117 -0.15087891 C24.94453748 -0.1753688 27.65766638 -0.1865379 30.37109375 -0.1953125 C31.61384315 -0.21079636 31.61384315 -0.21079636 32.88169861 -0.22659302 C41.33966794 -0.22818981 48.69609426 0.81015978 55.3359375 6.3125 C59.4205623 10.45465473 60.18472138 14.90057053 60.4375 20.5 C60.26458286 25.54918043 59.50921685 29.25748341 56 33 C52.48395476 35.78029332 49.56287306 38 45 38 C45.53367187 38.80179688 46.06734375 39.60359375 46.6171875 40.4296875 C51.66920314 48.11090693 56.29767587 55.9367282 60.63623047 64.04443359 C61.23008545 65.14198975 61.23008545 65.14198975 61.8359375 66.26171875 C62.18188965 66.91100342 62.5278418 67.56028809 62.88427734 68.22924805 C64.8996217 71.42778035 66.66803051 72.84729403 70.125 74.4375 C75.02809496 75.50085422 75.02809496 75.50085422 83 71 C83 49.55 83 28.1 83 6 C80.36 5.67 77.72 5.34 75 5 C74.4375 3.0625 74.4375 3.0625 74 1 C75 0 75 0 78.14282227 -0.11352539 C79.53402697 -0.11336633 80.92523761 -0.10767506 82.31640625 -0.09765625 C83.41298805 -0.09553383 83.41298805 -0.09553383 84.53172302 -0.09336853 C86.87535632 -0.08775408 89.21889539 -0.07519922 91.5625 -0.0625 C93.14778508 -0.05748686 94.73307166 -0.05292363 96.31835938 -0.04882812 C100.2122761 -0.03777997 104.10612205 -0.02050572 108 0 C108.495 1.98 108.495 1.98 109 4 C108.36191406 4.18175781 107.72382812 4.36351562 107.06640625 4.55078125 C106.24011719 4.80214844 105.41382813 5.05351563 104.5625 5.3125 C103.73878906 5.55613281 102.91507813 5.79976562 102.06640625 6.05078125 C101.38449219 6.36402344 100.70257812 6.67726563 100 7 C98.98954123 10.03137631 98.86168388 12.10612697 98.83886719 15.27832031 C98.82925964 16.35664124 98.8196521 17.43496216 98.80975342 18.54595947 C98.80550354 19.7115741 98.80125366 20.87718872 98.796875 22.078125 C98.79117493 23.27806091 98.78547485 24.47799683 98.77960205 25.71429443 C98.77014854 28.25629799 98.76361668 30.79831382 98.75976562 33.34033203 C98.75007344 37.22059669 98.71905788 41.10032874 98.6875 44.98046875 C98.68096855 47.45051769 98.67571864 49.92057042 98.671875 52.390625 C98.6533548 54.12690155 98.6533548 54.12690155 98.63446045 55.89825439 C98.65120558 61.98527693 98.81588913 66.71790355 102 72 C107.32693486 73.81115785 112.83677633 73.09894341 118 71 C122.69633122 67.82282983 126.50187104 64.15239097 129 59 C130.32 59.33 131.64 59.66 133 60 C132.69272975 62.81316358 132.37944848 65.62542519 132.0625 68.4375 C131.93198242 69.64116211 131.93198242 69.64116211 131.79882812 70.86914062 C131.11328125 76.88671875 131.11328125 76.88671875 130 78 C127.56286934 78.13749443 125.15315802 78.21038195 122.71386719 78.24047852 C121.95122055 78.25347488 121.18857391 78.26647125 120.40281677 78.27986145 C112.41808681 78.40667395 104.43228818 78.46334215 96.44677734 78.51489258 C92.65549519 78.54164845 88.86546849 78.59038596 85.07470703 78.65844727 C80.50224574 78.74034191 75.93098109 78.7830677 71.35782623 78.79795647 C69.61458543 78.81021605 67.87138491 78.83627681 66.12856293 78.87640572 C52.51373389 79.17417534 52.51373389 79.17417534 48.91094971 76.37956238 C47.56590532 74.28352914 46.76939133 72.36215837 46 70 C45.13616699 68.4380188 45.13616699 68.4380188 44.25488281 66.84448242 C43.74280273 65.85810791 43.23072266 64.8717334 42.703125 63.85546875 C42.13722656 62.76685547 41.57132813 61.67824219 40.98828125 60.55664062 C40.41464844 59.44482422 39.84101562 58.33300781 39.25 57.1875 C38.66089844 56.05634766 38.07179688 54.92519531 37.46484375 53.75976562 C33.13375235 45.40125705 33.13375235 45.40125705 32 42 C29.36 41.67 26.72 41.34 24 41 C24.495 56.345 24.495 56.345 25 72 C27.97 72.99 30.94 73.98 34 75 C34 75.99 34 76.98 34 78 C22.78 78 11.56 78 0 78 C0 76.68 0 75.36 0 74 C3.96 73.01 3.96 73.01 8 72 C8.87449292 68.50202832 9.13155831 65.94747195 9.14526367 62.39282227 C9.15164352 61.26807999 9.15802338 60.14333771 9.16459656 58.98451233 C9.16626579 57.16879982 9.16626579 57.16879982 9.16796875 55.31640625 C9.17129715 54.06874985 9.17462555 52.82109344 9.17805481 51.53562927 C9.18311752 48.89700756 9.18589592 46.25848888 9.18530273 43.61987305 C9.1852011 40.24617516 9.19885934 36.87268768 9.21607494 33.49903965 C9.22989466 30.27150311 9.22928429 27.04396836 9.23046875 23.81640625 C9.24124702 22.00373009 9.24124702 22.00373009 9.25224304 20.1544342 C9.24916641 19.02653976 9.24608978 17.89864532 9.24291992 16.73657227 C9.24434494 15.74714127 9.24576996 14.75771027 9.24723816 13.73829651 C8.98406169 10.82347464 8.21743226 8.64727997 7 6 C4.69 5.67 2.38 5.34 0 5 C-0.33 4.01 -0.66 3.02 -1 2 C-0.67 1.34 -0.34 0.68 0 0 Z M24 6 C23.89987599 8.20650656 23.8691882 10.41622386 23.8671875 12.625 C23.86623077 13.28709473 23.86527405 13.94918945 23.86428833 14.63134766 C23.86360674 16.03352961 23.86545958 17.4357147 23.86962891 18.83789062 C23.87497754 20.99095713 23.8696833 23.14381502 23.86328125 25.296875 C23.86394204 26.65625046 23.86522321 28.0156258 23.8671875 29.375 C23.86831543 30.62023438 23.86944336 31.86546875 23.87060547 33.1484375 C23.67427873 35.89905431 23.67427873 35.89905431 25 37 C31.34091322 37.32797827 37.22957435 37.26008408 42.375 33.0625 C46.21319873 28.19094008 45.42939999 21.89449078 45 16 C43.37837809 11.22048279 41.16394853 8.81066526 37 6 C34.15785932 5.05261977 32.32391609 4.86539441 29.375 4.875 C28.57835937 4.87242188 27.78171875 4.86984375 26.9609375 4.8671875 C24.99646464 4.78429926 24.99646464 4.78429926 24 6 Z " fill="#FFFFFF" transform="translate(952,1106)"/>
<path d="M0 0 C0.99 0.66 1.98 1.32 3 2 C3 2.99 3 3.98 3 5 C14.55 5 26.1 5 38 5 C38.495 6.98 38.495 6.98 39 9 C37.03177114 10.96822886 33.65191291 10.66248381 31 11 C31.64152946 14.97496686 33.6171329 17.7547786 35.81640625 21.078125 C36.19232407 21.64956238 36.56824188 22.22099976 36.95555115 22.80975342 C38.15258243 24.62672336 39.35739567 26.43837698 40.5625 28.25 C41.37747264 29.48403206 42.19193172 30.71840345 43.00585938 31.953125 C44.99797102 34.97270435 46.9970931 37.98756724 49 41 C55.4448136 32.248638 55.4448136 32.248638 61.4375 23.1875 C62.09621094 22.14980469 62.75492188 21.11210938 63.43359375 20.04296875 C65.02893968 16.94378052 65.63421372 14.44663413 66 11 C64.88625 10.896875 63.7725 10.79375 62.625 10.6875 C61.42875 10.460625 60.2325 10.23375 59 10 C58.01 8.515 58.01 8.515 57 7 C59 5 59 5 61.61376953 4.77294922 C62.69255371 4.78342285 63.77133789 4.79389648 64.8828125 4.8046875 C66.63271484 4.81435547 66.63271484 4.81435547 68.41796875 4.82421875 C69.64128906 4.84097656 70.86460937 4.85773438 72.125 4.875 C73.97158203 4.88853516 73.97158203 4.88853516 75.85546875 4.90234375 C78.90383815 4.92597452 81.95182382 4.95891946 85 5 C85.33 6.32 85.66 7.64 86 9 C85.443125 9.10054687 84.88625 9.20109375 84.3125 9.3046875 C71.77271933 12.39726854 65.68353233 26.76386788 59.31347656 37.04760742 C58 39 58 39 56.56933594 40.5559082 C51.35786545 46.37218258 52.41463314 53.40976259 52.625 60.8125 C52.64153141 62.16078202 52.65587318 63.50909276 52.66796875 64.85742188 C52.44032906 71.11458593 52.44032906 71.11458593 54 77 C56.04524321 77.59505999 58.09333957 77.95466781 60.1875 78.33984375 C60.785625 78.55769531 61.38375 78.77554687 62 79 C62.33 79.99 62.66 80.98 63 82 C62 83 62 83 58.76538086 83.11352539 C57.33185874 83.11336631 55.89833088 83.10767407 54.46484375 83.09765625 C53.33496788 83.09553383 53.33496788 83.09553383 52.18226624 83.09336853 C49.7673044 83.08775376 47.35243399 83.07519883 44.9375 83.0625 C43.30403779 83.0574869 41.67057414 83.05292366 40.03710938 83.04882812 C36.02470415 83.03777954 32.01236759 83.02050506 28 83 C28.24609375 81.109375 28.24609375 81.109375 29 79 C30.84765625 77.953125 30.84765625 77.953125 33.0625 77.25 C33.79597656 77.00765625 34.52945313 76.7653125 35.28515625 76.515625 C35.85105469 76.34546875 36.41695313 76.1753125 37 76 C38.85801655 55.54817988 38.85801655 55.54817988 30.05517578 37.82739258 C28.93971859 36.53079137 27.81205788 35.24458751 26.67236328 33.96923828 C23.32481256 30.02743623 20.64694089 25.58904027 17.83081055 21.26098633 C13.79711428 15.27567797 10.37114096 11.47422819 3 10 C2.67 14.62 2.34 19.24 2 24 C0.68 24.33 -0.64 24.66 -2 25 C-2.36351562 23.96939453 -2.36351562 23.96939453 -2.734375 22.91796875 C-3.23710937 21.56638672 -3.23710937 21.56638672 -3.75 20.1875 C-4.07484375 19.29417969 -4.3996875 18.40085937 -4.734375 17.48046875 C-6.22403213 14.56092468 -7.16452766 13.63618151 -10 12 C-12.64902575 11.63082726 -15.09559527 11.40031112 -17.75 11.3125 C-18.44738281 11.27833984 -19.14476562 11.24417969 -19.86328125 11.20898438 C-21.57497108 11.12691705 -23.2874576 11.06177081 -25 11 C-25.02317818 19.01470955 -25.04094303 27.02940507 -25.05181217 35.04413986 C-25.05702901 38.76576675 -25.0641049 42.48737069 -25.07543945 46.20898438 C-25.08631093 49.80106074 -25.09228588 53.39311505 -25.09487724 56.9852066 C-25.0967238 58.35511879 -25.10032966 59.72502977 -25.10573006 61.09493256 C-25.11299688 63.01477377 -25.11340854 64.93463722 -25.11352539 66.85449219 C-25.115746 67.94703308 -25.11796661 69.03957397 -25.12025452 70.16522217 C-25.01498206 72.6468256 -24.86012673 74.67518718 -24 77 C-21.91965706 78.1375213 -21.91965706 78.1375213 -19.4375 78.75 C-18.19806641 79.11351562 -18.19806641 79.11351562 -16.93359375 79.484375 C-16.29550781 79.65453125 -15.65742188 79.8246875 -15 80 C-15.495 81.485 -15.495 81.485 -16 83 C-27.22 83 -38.44 83 -50 83 C-49.67 81.68 -49.34 80.36 -49 79 C-46.36 78.67 -43.72 78.34 -41 78 C-40.67 55.89 -40.34 33.78 -40 11 C-52.38768065 11.53579733 -52.38768065 11.53579733 -60.9765625 18.265625 C-62.7169144 20.47053298 -64.38478392 22.7023674 -66 25 C-66.99 24.67 -67.98 24.34 -69 24 C-68.38955672 16.36945905 -66.20378179 9.29810526 -64 2 C-62.68 1.67 -61.36 1.34 -60 1 C-59.34 2.32 -58.68 3.64 -58 5 C-50.82839988 5.05073147 -43.6568461 5.08574687 -36.48510742 5.10986328 C-34.0456367 5.1199176 -31.60617803 5.13356292 -29.16674805 5.15087891 C-25.65931221 5.17515182 -22.15203579 5.18648891 -18.64453125 5.1953125 C-17.00989677 5.21079636 -17.00989677 5.21079636 -15.34223938 5.22659302 C-14.32155869 5.22674408 -13.30087799 5.22689514 -12.24926758 5.22705078 C-11.35436111 5.231492 -10.45945465 5.23593323 -9.53742981 5.24050903 C-6.65654483 4.96744577 -4.57543315 4.31557857 -2 3 C-1.34 2.01 -0.68 1.02 0 0 Z " fill="#FFFFFF" transform="translate(253,1101)"/>
<path d="M0 0 C3.95092059 -0.07409401 7.90157294 -0.12857406 11.85302734 -0.16479492 C13.85919374 -0.18732251 15.86516526 -0.2254357 17.87109375 -0.26367188 C19.12792969 -0.27333984 20.38476562 -0.28300781 21.6796875 -0.29296875 C22.84226074 -0.3086792 24.00483398 -0.32438965 25.20263672 -0.34057617 C26.1257666 -0.22818604 27.04889648 -0.1157959 28 0 C28.66 0.99 29.32 1.98 30 3 C28.04783565 4.95216435 26.46800047 5.84826645 24 7 C35.05849908 32.70326267 35.05849908 32.70326267 47 58 C48.37795271 55.65717886 49.72643252 53.30405692 51.0625 50.9375 C51.45244141 50.28072266 51.84238281 49.62394531 52.24414062 48.94726562 C52.60830078 48.29306641 52.97246094 47.63886719 53.34765625 46.96484375 C53.68804932 46.3730835 54.02844238 45.78132324 54.37915039 45.17163086 C55.94025469 39.71114215 53.57777754 34.46288425 51.34765625 29.515625 C50.81849609 28.33355469 50.28933594 27.15148438 49.74414062 25.93359375 C49.46803955 25.3288623 49.19193848 24.72413086 48.9074707 24.10107422 C48.06001289 22.2445515 47.22526016 20.38272157 46.39257812 18.51953125 C43.29775048 10.11192805 43.29775048 10.11192805 36.875 4.8125 C35.92625 4.544375 34.9775 4.27625 34 4 C34.33 2.68 34.66 1.36 35 0 C44.24 0 53.48 0 63 0 C63.495 1.98 63.495 1.98 64 4 C61.69 4.33 59.38 4.66 57 5 C57.5053125 6.20398437 58.010625 7.40796875 58.53125 8.6484375 C59.18768492 10.2238813 59.84392483 11.79940636 60.5 13.375 C60.83386719 14.1690625 61.16773438 14.963125 61.51171875 15.78125 C61.82753906 16.54179688 62.14335938 17.30234375 62.46875 18.0859375 C62.76201172 18.7876709 63.05527344 19.4894043 63.35742188 20.21240234 C64 22 64 22 64 24 C64.66 24 65.32 24 66 24 C66.18175781 23.41992188 66.36351562 22.83984375 66.55078125 22.2421875 C68.04677793 17.59309012 69.81268851 13.37462298 72 9 C72 8.01 72 7.02 72 6 C70.35 5.34 68.7 4.68 67 4 C67.33 2.68 67.66 1.36 68 0 C74.6 0 81.2 0 88 0 C88.99 1.98 88.99 1.98 90 4 C88.700625 4.165 87.40125 4.33 86.0625 4.5 C79.87447105 6.48447058 77.85592777 11.52543978 75.00805664 16.93359375 C74.3085832 18.30650923 73.62220868 19.68619051 72.95019531 21.07275391 C72.09125055 22.81491988 71.1402796 24.51096783 70.1796875 26.19921875 C68.49065082 30.20928266 69.50105631 32.70416353 71.03149414 36.67895508 C71.65205688 38.08504028 71.65205688 38.08504028 72.28515625 39.51953125 C72.95708008 41.0519043 72.95708008 41.0519043 73.64257812 42.61523438 C74.11115234 43.67033203 74.57972656 44.72542969 75.0625 45.8125 C75.77116211 47.42415039 75.77116211 47.42415039 76.49414062 49.06835938 C77.65832536 51.71423376 78.82707832 54.35798995 80 57 C80.28609131 56.32235596 80.57218262 55.64471191 80.86694336 54.9465332 C81.7295896 52.90384063 82.59257758 50.86129235 83.45581055 48.81884766 C84.44896266 46.4686004 85.44130442 44.11801056 86.43286133 41.76708984 C88.8362933 36.07712773 91.25415967 30.39524815 93.734375 24.73828125 C94.35711304 23.31165161 94.35711304 23.31165161 94.99243164 21.85620117 C95.77463816 20.06855167 96.56266813 18.28343625 97.35717773 16.5012207 C97.70723877 15.699021 98.0572998 14.89682129 98.41796875 14.0703125 C98.87852661 13.03028076 98.87852661 13.03028076 99.34838867 11.96923828 C100.20942913 9.71279071 100.20942913 9.71279071 100 6 C98.02 5.34 96.04 4.68 94 4 C94.33 2.68 94.66 1.36 95 0 C98.458176 -0.0868329 101.91607344 -0.14033282 105.375 -0.1875 C106.35984375 -0.21263672 107.3446875 -0.23777344 108.359375 -0.26367188 C109.77089844 -0.27817383 109.77089844 -0.27817383 111.2109375 -0.29296875 C112.51490479 -0.31653442 112.51490479 -0.31653442 113.84521484 -0.34057617 C114.55629395 -0.22818604 115.26737305 -0.1157959 116 0 C116.99 1.485 116.99 1.485 118 3 C115.23776722 5.76223278 112.79293383 5.57856291 109 6 C108.71205566 6.72968994 108.42411133 7.45937988 108.12744141 8.21118164 C107.11870543 10.70637242 106.05958374 13.16450451 104.9609375 15.62109375 C98.23713288 30.74035978 91.7707261 45.95695936 85.39599609 61.22631836 C85.06082977 62.02708801 84.72566345 62.82785767 84.38034058 63.65289307 C83.75118761 65.15624519 83.12372638 66.66030694 82.49832153 68.16522217 C80.811389 72.19342414 79.00143894 76.11442952 77 80 C75.15454102 79.80297852 75.15454102 79.80297852 73 79 C71.67553711 76.90209961 71.67553711 76.90209961 70.52734375 74.15234375 C70.10259766 73.15396484 69.67785156 72.15558594 69.24023438 71.12695312 C68.81033203 70.07443359 68.38042969 69.02191406 67.9375 67.9375 C67.50373047 66.91205078 67.06996094 65.88660156 66.62304688 64.83007812 C64.2842758 59.26615242 62.07504103 53.66724321 60 48 C58.01833934 50.97249099 56.55749757 53.9011945 55.03125 57.12890625 C54.45453061 58.34054407 53.87770448 59.5521311 53.30078125 60.76367188 C52.39733867 62.66779404 51.49525823 64.57254011 50.59521484 66.47827148 C49.72339634 68.32191819 48.84639901 70.16302958 47.96875 72.00390625 C47.44732422 73.10549072 46.92589844 74.2070752 46.38867188 75.34204102 C45 78 45 78 43 80 C41.08959961 80.04589844 41.08959961 80.04589844 39 79 C37.65000453 76.74584741 36.59916103 74.66177565 35.56640625 72.265625 C35.25193039 71.56824722 34.93745453 70.87086945 34.6134491 70.15235901 C33.58256034 67.85751058 32.57264924 65.55404326 31.5625 63.25 C30.85391514 61.66304046 30.14394168 60.07670024 29.43261719 58.4909668 C27.62254417 54.44789717 25.82876967 50.39781522 24.03863525 46.34588623 C21.57243127 40.7756594 19.07213702 35.22062904 16.57833862 29.66271973 C15.76989616 27.85694108 14.9660657 26.04909989 14.16235352 24.24121094 C12.78778374 21.15478957 11.39668739 18.07645817 10 15 C9.63874023 14.1754834 9.27748047 13.3509668 8.90527344 12.50146484 C7.0711985 8.47915996 7.0711985 8.47915996 3.859375 5.5625 C3.16328125 5.376875 2.4671875 5.19125 1.75 5 C0.5125 4.67 -0.725 4.34 -2 4 C-1.34 2.68 -0.68 1.36 0 0 Z " fill="#FFFFFF" transform="translate(709,1106)"/>
<path d="M0 0 C1.06927734 0.54333984 1.06927734 0.54333984 2.16015625 1.09765625 C11.81899241 6.58774617 17.34396137 14.09429957 21.25 24.25 C23.69204556 36.46022781 21.43968505 47.1786838 14.7890625 57.61328125 C7.8094023 66.92457467 -1.82108439 72.2859745 -13 75 C-27.47179162 76.20467887 -39.20679003 73.22515642 -50.6875 64.3125 C-57.76694294 57.90650754 -62.42314635 48.36141387 -63.28125 38.8984375 C-63.63008468 26.48573691 -60.46772731 16.98464119 -51.99609375 7.8359375 C-38.48221102 -5.07356765 -16.80537479 -8.64357388 0 0 Z M-39.3125 7.1875 C-47.32350694 17.51279783 -48.01048494 29.41987549 -47 42 C-44.97956666 52.4485267 -39.81567678 61.88299979 -31 68 C-25.64820939 70.92833826 -20.99046638 72.01467183 -15 71 C-7.6018825 68.58611272 -2.76247969 64.79369373 1 58 C6.56786664 46.25556105 8.23340919 33.06784737 4.375 20.5 C1.08110085 12.00035814 -4.08401652 5.63101058 -12 1 C-21.62789997 -2.21583624 -32.3460155 -0.30147083 -39.3125 7.1875 Z " fill="#FFFFFF" transform="translate(436,1110)"/>
<path d="M0 0 C1.03729248 0.02513672 2.07458496 0.05027344 3.14331055 0.07617188 C4.09705566 0.09921387 5.05080078 0.12225586 6.03344727 0.14599609 C9.30136268 0.75623718 10.93890331 1.94850425 13.40112305 4.14648438 C14.55286234 5.95031135 15.65076475 7.78889794 16.71362305 9.64648438 C18.05890982 11.52366548 19.45512465 13.3556321 20.85791016 15.19018555 C22.425879 17.2413696 23.96283751 19.31343211 25.4987793 21.38867188 C29.13382462 26.24950124 32.95381433 30.95062306 36.82177734 35.62719727 C41.94486775 41.84408464 46.82269454 48.24667827 51.71362305 54.64648438 C51.76312115 48.61418856 51.7993893 42.58201142 51.82348633 36.54956055 C51.83353373 34.4981073 51.84717397 32.44666834 51.86450195 30.39526367 C51.8888055 27.44381175 51.90011886 24.49254948 51.90893555 21.54101562 C51.91925812 20.62624954 51.92958069 19.71148346 51.94021606 18.76899719 C51.94100383 14.28155382 51.85202207 10.71980154 49.71362305 6.64648438 C48.59987305 6.54335937 47.48612305 6.44023438 46.33862305 6.33398438 C44.54424805 5.99367188 44.54424805 5.99367188 42.71362305 5.64648438 C42.05362305 4.65648437 41.39362305 3.66648437 40.71362305 2.64648438 C41.04362305 1.98648437 41.37362305 1.32648438 41.71362305 0.64648438 C50.62362305 0.64648438 59.53362305 0.64648438 68.71362305 0.64648438 C69.20862305 2.62648438 69.20862305 2.62648438 69.71362305 4.64648438 C63.08862305 6.64648438 63.08862305 6.64648438 59.71362305 6.64648438 C59.38362305 31.06648438 59.05362305 55.48648437 58.71362305 80.64648438 C57.22862305 81.14148437 57.22862305 81.14148437 55.71362305 81.64648438 C52.13962231 78.15574888 48.80302051 74.53556401 45.58862305 70.70898438 C45.11344238 70.14542236 44.63826172 69.58186035 44.14868164 69.0012207 C40.32720534 64.44000228 36.63625538 59.78471931 32.98071289 55.09008789 C29.44957423 50.56063966 25.84606167 46.0949909 22.21362305 41.64648438 C15.23652152 33.09528067 8.32178994 24.48742866 1.71362305 15.64648438 C1.68813078 22.03278749 1.67069671 28.41907733 1.65869141 34.80541992 C1.65368302 36.97502126 1.64687441 39.14461927 1.63818359 41.31420898 C1.62596429 44.44450712 1.62035964 47.57476037 1.6159668 50.70507812 C1.61080551 51.6648204 1.60564423 52.62456268 1.60032654 53.61338806 C1.00212113 63.46834819 1.00212113 63.46834819 4.02574158 72.35374451 C6.66592253 74.37584572 9.4762319 74.34107012 12.71362305 74.64648438 C12.71362305 75.96648437 12.71362305 77.28648438 12.71362305 78.64648438 C3.47362305 78.64648438 -5.76637695 78.64648438 -15.28637695 78.64648438 C-15.28637695 77.32648438 -15.28637695 76.00648437 -15.28637695 74.64648438 C-10.83137695 73.65648437 -10.83137695 73.65648437 -6.28637695 72.64648438 C-5.16499521 65.47584954 -5.15824386 58.42533601 -5.1887207 51.17773438 C-5.19013565 49.90168335 -5.1915506 48.62563232 -5.19300842 47.31091309 C-5.19763685 43.94410281 -5.20659725 40.57736231 -5.2177124 37.21057129 C-5.22800365 33.7647359 -5.23252245 30.31889326 -5.23754883 26.87304688 C-5.24854369 20.13084035 -5.26525615 13.38866638 -5.28637695 6.64648438 C-8.25637695 6.31648438 -11.22637695 5.98648437 -14.28637695 5.64648438 C-14.61637695 4.32648438 -14.94637695 3.00648437 -15.28637695 1.64648438 C-12.35924568 -1.28064689 -3.91930081 0.02611878 0 0 Z " fill="#FFFFFF" transform="translate(574.286376953125,1105.353515625)"/>
<path d="M0 0 C7.62439514 5.75195139 13.56223998 13.38087268 15.6875 22.8125 C16.82363467 34.22069761 15.68950758 44.36636374 9 54 C1.88413949 62.68134982 -7.00170634 69.75224615 -18.3125 71.8125 C-33.50897102 72.85640173 -45.27391493 70.06644772 -57.24609375 60.22265625 C-64.54472749 53.55186197 -68.48124533 44.612555 -69.3125 34.8125 C-69.55309736 24.39604957 -66.76169962 14.70194616 -60.1875 6.5 C-44.32451996 -10.01676881 -19.04670725 -12.27898668 0 0 Z M-46.3125 5.8125 C-53.08364193 15.77006167 -54.63894989 27.11319946 -52.84375 38.88671875 C-50.48728565 49.84147267 -45.31462768 58.40277354 -36.25 65.0625 C-30.8457514 68.28205236 -25.45604761 68.54324192 -19.296875 67.45703125 C-12.17194339 65.36723832 -7.70698972 59.80803907 -3.9921875 53.609375 C1.93281007 41.4082689 1.87009096 28.47691884 -2.3125 15.8125 C-5.85946199 7.71908845 -10.73304105 2.42608371 -18.3125 -2.1875 C-29.11966335 -5.78988778 -39.12146126 -2.77679628 -46.3125 5.8125 Z " fill="#FFFFFF" transform="translate(929.3125,1113.1875)"/>
<path d="M0 0 C1.09461044 -0.00637985 2.18922089 -0.0127597 3.31700134 -0.01933289 C5.10443504 -0.02100212 5.10443504 -0.02100212 6.92797852 -0.02270508 C8.14260269 -0.02603348 9.35722687 -0.02936188 10.60865784 -0.03279114 C13.18360006 -0.03786556 15.75854888 -0.04019931 18.33349609 -0.04003906 C22.28632374 -0.04222496 26.23887222 -0.06037394 30.19165039 -0.0793457 C32.68709214 -0.08227955 35.18253522 -0.0842644 37.67797852 -0.08520508 C38.86757675 -0.09239059 40.05717499 -0.09957611 41.28282166 -0.10697937 C42.38058426 -0.10390274 43.47834686 -0.10082611 44.609375 -0.09765625 C45.57898666 -0.09908127 46.54859833 -0.10050629 47.54759216 -0.10197449 C49.86938477 0.14526367 49.86938477 0.14526367 51.86938477 2.14526367 C52.01436461 4.72590496 52.05616022 7.19470252 51.99438477 9.77026367 C51.98536133 10.47666992 51.97633789 11.18307617 51.96704102 11.91088867 C51.9434608 13.65582465 51.90758937 15.40058662 51.86938477 17.14526367 C50.54938477 17.47526367 49.22938477 17.80526367 47.86938477 18.14526367 C47.5896582 17.60256836 47.30993164 17.05987305 47.02172852 16.50073242 C46.62083008 15.78530273 46.21993164 15.06987305 45.80688477 14.33276367 C45.4240332 13.62506836 45.04118164 12.91737305 44.64672852 12.18823242 C41.68319067 8.78179221 38.10867612 7.38496175 33.70947266 6.9140625 C31.43970319 6.8515419 29.20149218 6.88251703 26.93188477 6.95776367 C24.27125977 7.01963867 21.61063477 7.08151367 18.86938477 7.14526367 C18.86938477 15.72526367 18.86938477 24.30526367 18.86938477 33.14526367 C21.24125977 33.20713867 23.61313477 33.26901367 26.05688477 33.33276367 C26.79447021 33.36007568 27.53205566 33.3873877 28.29199219 33.41552734 C32.69855737 33.47086976 35.41346092 32.8985043 38.86938477 30.14526367 C39.90100085 28.16138659 40.90462094 26.16249712 41.86938477 24.14526367 C42.85938477 23.81526367 43.84938477 23.48526367 44.86938477 23.14526367 C44.95612906 27.60347533 45.00968989 32.06147171 45.05688477 36.52026367 C45.08202148 37.7912793 45.1071582 39.06229492 45.13305664 40.37182617 C45.14272461 41.58354492 45.15239258 42.79526367 45.16235352 44.04370117 C45.17806396 45.16437988 45.19377441 46.28505859 45.20996094 47.43969727 C45.04137573 48.77895264 45.04137573 48.77895264 44.86938477 50.14526367 C43.87938477 50.80526367 42.88938477 51.46526367 41.86938477 52.14526367 C39.36724642 49.64312532 38.90841827 47.36331606 37.94360352 44.02026367 C36.39263938 41.31312628 34.82248331 41.06531692 31.86938477 40.14526367 C28.51432951 39.90476435 28.51432951 39.90476435 25.05688477 40.02026367 C23.3147168 40.04733398 23.3147168 40.04733398 21.53735352 40.07495117 C20.65692383 40.0981543 19.77649414 40.12135742 18.86938477 40.14526367 C18.84037076 44.72858373 18.82258128 49.31188018 18.80688477 53.89526367 C18.79850586 55.1972168 18.79012695 56.49916992 18.78149414 57.84057617 C18.77827148 59.0909668 18.77504883 60.34135742 18.77172852 61.62963867 C18.7664917 62.78173828 18.76125488 63.93383789 18.75585938 65.12084961 C18.85133991 67.66453331 19.12021215 69.72924681 19.86938477 72.14526367 C22.7449618 72.22664793 25.61820739 72.28594218 28.49438477 72.33276367 C29.30262695 72.35790039 30.11086914 72.38303711 30.94360352 72.40893555 C35.99596183 72.47054967 39.58811612 72.13013635 43.86938477 69.14526367 C45.94789946 66.47757533 45.94789946 66.47757533 47.55688477 63.45776367 C49.25610352 60.44604492 49.25610352 60.44604492 50.86938477 58.14526367 C51.85938477 58.14526367 52.84938477 58.14526367 53.86938477 58.14526367 C53.9817372 64.23726215 53.94265405 70.13495568 52.86938477 76.14526367 C50.86938477 78.14526367 50.86938477 78.14526367 48.4649353 78.38577271 C46.95269882 78.37911087 46.95269882 78.37911087 45.40991211 78.37231445 C44.26888031 78.37216339 43.12784851 78.37201233 41.95223999 78.37185669 C40.09751572 78.35637283 40.09751572 78.35637283 38.20532227 78.34057617 C36.9429776 78.33774628 35.68063293 78.33491638 34.3800354 78.33200073 C31.02291533 78.32268499 27.66606565 78.30471202 24.309021 78.28259277 C20.88385354 78.26213918 17.45865818 78.25300007 14.03344727 78.24291992 C7.31201806 78.22082825 0.59071703 78.18732744 -6.13061523 78.14526367 C-6.13061523 76.82526367 -6.13061523 75.50526367 -6.13061523 74.14526367 C-5.5647168 74.0240918 -4.99881836 73.90291992 -4.41577148 73.77807617 C-3.68229492 73.61049805 -2.94881836 73.44291992 -2.19311523 73.27026367 C-1.4622168 73.1078418 -0.73131836 72.94541992 0.02172852 72.77807617 C2.07638771 72.31564844 2.07638771 72.31564844 2.86938477 70.14526367 C2.97094387 68.18505589 3.00779029 66.22136987 3.01464844 64.25854492 C3.02102829 63.02386475 3.02740814 61.78918457 3.03398132 60.51708984 C3.03550977 59.16398152 3.03662385 57.81087267 3.03735352 56.45776367 C3.04056548 55.07535772 3.0439295 53.69295211 3.04743958 52.31054688 C3.05343094 49.41201997 3.05527942 46.51352289 3.0546875 43.61499023 C3.05458576 39.89567851 3.06824971 36.17655719 3.08545971 32.45729065 C3.09656097 29.60232662 3.09860731 26.74740894 3.09807777 23.89242554 C3.09926027 22.52085716 3.10369711 21.14928768 3.11141014 19.77774048 C3.12117371 17.86251266 3.11707718 15.94722918 3.11230469 14.03198242 C3.11372971 12.94103271 3.11515472 11.85008301 3.11662292 10.72607422 C3.12997457 7.98155141 3.12997457 7.98155141 0.86938477 6.14526367 C-1.44827252 5.42599072 -3.78157397 4.75427437 -6.13061523 4.14526367 C-6.13061523 -0.78847544 -4.41640032 0.01737629 0 0 Z " fill="#FFFFFF" transform="translate(654.130615234375,1105.854736328125)"/>
<path d="M0 0 C1.61188454 -0.00472824 1.61188454 -0.00472824 3.2563324 -0.009552 C4.42608109 -0.00752777 5.59582977 -0.00550354 6.80102539 -0.00341797 C7.99345352 -0.00437469 9.18588165 -0.00533142 10.41444397 -0.00631714 C12.94231214 -0.00699923 15.47018205 -0.00514293 17.99804688 -0.00097656 C21.87837647 0.00436657 25.75859007 -0.00091819 29.63891602 -0.00732422 C32.08878606 -0.00666335 34.53865604 -0.00538201 36.98852539 -0.00341797 C38.15624985 -0.0054422 39.3239743 -0.00746643 40.52708435 -0.009552 C42.14369713 -0.00482376 42.14369713 -0.00482376 43.79296875 0 C44.74481552 0.00079559 45.69666229 0.00159119 46.67735291 0.00241089 C48.96118164 0.12939453 48.96118164 0.12939453 50.96118164 1.12939453 C50.96118164 6.73939453 50.96118164 12.34939453 50.96118164 18.12939453 C49.97118164 18.62439453 49.97118164 18.62439453 48.96118164 19.12939453 C46.87319133 17.25020325 45.62256045 15.56891807 44.14868164 13.12939453 C41.37181017 9.32111365 38.61356666 7.54961748 33.88085938 6.79980469 C31.61214115 6.6140442 29.36167921 6.50990853 27.08618164 6.44189453 C23.06430664 6.28720703 23.06430664 6.28720703 18.96118164 6.12939453 C18.96118164 15.03939453 18.96118164 23.94939453 18.96118164 33.12939453 C21.35368164 33.19126953 23.74618164 33.25314453 26.21118164 33.31689453 C26.95787109 33.34420654 27.70456055 33.37151855 28.47387695 33.3996582 C31.50968357 33.4376262 33.64629347 33.29926841 36.33618164 31.84814453 C38.00823333 30.07962832 38.85633562 28.70723648 39.71118164 26.44189453 C40.32993164 24.80220703 40.32993164 24.80220703 40.96118164 23.12939453 C41.95118164 23.12939453 42.94118164 23.12939453 43.96118164 23.12939453 C44.29118164 32.36939453 44.62118164 41.60939453 44.96118164 51.12939453 C42.98118164 51.62439453 42.98118164 51.62439453 40.96118164 52.12939453 C40.61506836 51.20707031 40.61506836 51.20707031 40.26196289 50.26611328 C39.93583008 49.45787109 39.60969727 48.64962891 39.27368164 47.81689453 C38.96043945 47.01638672 38.64719727 46.21587891 38.32446289 45.39111328 C36.56385149 42.47021357 35.03010877 41.60991778 31.96118164 40.12939453 C28.60826156 39.76870951 28.60826156 39.76870951 25.14868164 39.94189453 C23.98723633 39.96896484 22.82579102 39.99603516 21.62915039 40.02392578 C20.7487207 40.05873047 19.86829102 40.09353516 18.96118164 40.12939453 C18.8869903 44.34688672 18.83256125 48.56403264 18.79638672 52.78198242 C18.78130575 54.21662005 18.76083784 55.65121162 18.73486328 57.08569336 C18.69844727 59.14855312 18.68144921 61.21080311 18.66821289 63.27392578 C18.65250244 64.51505127 18.63679199 65.75617676 18.62060547 67.03491211 C18.70636215 70.07724454 18.70636215 70.07724454 20.24902344 71.98364258 C22.93070411 73.7781852 25.85622349 74.36780102 28.96118164 75.12939453 C28.46618164 76.61439453 28.46618164 76.61439453 27.96118164 78.12939453 C16.74118164 78.12939453 5.52118164 78.12939453 -6.03881836 78.12939453 C-6.03881836 76.80939453 -6.03881836 75.48939453 -6.03881836 74.12939453 C-3.06881836 73.13939453 -0.09881836 72.14939453 2.96118164 71.12939453 C2.96118164 49.67939453 2.96118164 28.22939453 2.96118164 6.12939453 C0.32118164 5.79939453 -2.31881836 5.46939453 -5.03881836 5.12939453 C-5.60131836 3.19189453 -5.60131836 3.19189453 -6.03881836 1.12939453 C-4.36092046 -0.54850337 -2.30144356 0.00192525 0 0 Z " fill="#FFFFFF" transform="translate(470.038818359375,1105.87060546875)"/>
<path d="M0 0 C1.40668945 -0.01160156 1.40668945 -0.01160156 2.84179688 -0.0234375 C17.44302186 0.01714964 17.44302186 0.01714964 21.76953125 3.70507812 C24.33347245 6.76863929 24.18158945 10.15191763 24.125 14 C24.11597656 14.79921875 24.10695313 15.5984375 24.09765625 16.421875 C24.08605469 17.02515625 24.07445312 17.6284375 24.0625 18.25 C21.9375 18.25 21.9375 18.25 19.0625 17.25 C17.67578125 15.54296875 17.67578125 15.54296875 16.25 13.4375 C13.14181 9.05455866 10.29878111 6.65335842 5.0625 5.25 C-3.73384426 4.09795491 -10.69469099 5.44763953 -17.87109375 10.65234375 C-25.00501691 16.92712778 -28.34245719 26.61673592 -29.17578125 35.90625 C-29.4582659 46.72987233 -26.95844885 57.73564491 -19.9375 66.25 C-14.40930405 72.05071265 -9.49313876 74.29035004 -1.4375 74.5625 C4.18543766 74.41812728 7.74551728 73.56187923 11.8359375 69.48046875 C14.62494166 66.40314982 17.09831681 63.30238675 19.25 59.75 C19.848125 58.925 20.44625 58.1 21.0625 57.25 C22.3825 57.25 23.7025 57.25 25.0625 57.25 C25.00231983 59.50073828 24.91348794 61.75072325 24.8125 64 C24.76609375 65.25296875 24.7196875 66.5059375 24.671875 67.796875 C23.97060653 71.77072966 23.27888036 72.8949554 20.0625 75.25 C8.50902609 80.87060893 -5.77047826 81.02924114 -18 77.625 C-23.60498532 75.61566564 -28.31887811 72.99752621 -32.9375 69.25 C-33.56269531 68.74855469 -34.18789062 68.24710938 -34.83203125 67.73046875 C-41.70603664 61.57531359 -46.46778271 52.36402508 -47.17578125 43.1484375 C-47.44368127 30.43023655 -44.03688314 21.66667988 -35.4375 12.25 C-25.56794291 2.63822985 -13.29639243 -0.10921062 0 0 Z " fill="#FFFFFF" transform="translate(116.9375,1105.75)"/>
<path d="M0 0 C1.02963867 -0.01836914 1.02963867 -0.01836914 2.08007812 -0.03710938 C6.75650306 -0.0503821 10.73525177 0.59541626 15.1875 2.1875 C17.1875 4.1875 17.1875 4.1875 17.3828125 7.6640625 C17.36951493 9.04700968 17.34566232 10.42988654 17.3125 11.8125 C17.30347656 12.51890625 17.29445313 13.2253125 17.28515625 13.953125 C17.26157603 15.69806098 17.22570461 17.44282295 17.1875 19.1875 C15.8675 19.1875 14.5475 19.1875 13.1875 19.1875 C12.78917969 18.34445312 12.39085937 17.50140625 11.98046875 16.6328125 C11.45066406 15.53710938 10.92085937 14.44140625 10.375 13.3125 C9.59189453 11.67667969 9.59189453 11.67667969 8.79296875 10.0078125 C7.34025103 6.96528598 7.34025103 6.96528598 4.1875 5.1875 C-1.37420278 4.43484791 -6.21267534 4.15231934 -11 7.25 C-13.18341541 10.78863876 -13.8125 13.02610744 -13.8125 17.1875 C-12.59513601 21.53522855 -10.80468197 23.44988386 -7 25.625 C-4.14754249 27.08624255 -1.2573624 28.44781876 1.64453125 29.80859375 C9.94567121 33.74802363 16.37101977 37.37222735 21.125 45.5 C23.28809511 53.00721246 22.99540081 60.2758008 19.1875 67.1875 C14.8815665 73.74700617 9.49898974 76.75033675 2.1875 79.1875 C-7.07222534 79.87970986 -15.40195861 79.52740272 -23.8125 75.1875 C-25.8125 73.1875 -25.8125 73.1875 -26.03955078 71.30810547 C-26.02907715 70.56447754 -26.01860352 69.82084961 -26.0078125 69.0546875 C-26.00136719 68.24902344 -25.99492188 67.44335938 -25.98828125 66.61328125 C-25.97152344 65.77152344 -25.95476562 64.92976563 -25.9375 64.0625 C-25.92847656 63.21300781 -25.91945313 62.36351562 -25.91015625 61.48828125 C-25.88655647 59.38790116 -25.85068483 57.28766556 -25.8125 55.1875 C-24.4925 55.1875 -23.1725 55.1875 -21.8125 55.1875 C-21.53277344 55.98414063 -21.25304688 56.78078125 -20.96484375 57.6015625 C-18.42174714 64.32318762 -16.12050909 69.40568413 -9.8125 73.1875 C-4.73484424 74.88005192 -0.43564185 74.80000636 4.5 72.9375 C7.22897412 71.1604936 8.49132756 69.92672101 10.1875 67.1875 C11.0502138 62.47754896 10.67279471 58.33456022 8.8125 53.9375 C4.19961768 49.10495662 -1.42123148 46.33499665 -7.40234375 43.46484375 C-8.01867676 43.16892334 -8.63500977 42.87300293 -9.27001953 42.56811523 C-11.04314966 41.72635683 -12.82800038 40.90942144 -14.61328125 40.09375 C-20.30170069 36.70431326 -23.5640388 32.01871424 -25.43359375 25.68359375 C-26.3624664 19.56452547 -24.97210529 13.44301717 -21.625 8.25 C-15.94032617 1.2366598 -8.57109484 0.00791421 0 0 Z " fill="#FFFFFF" transform="translate(1343.8125,1105.8125)"/>
<path d="M0 0 C10.89 0 21.78 0 33 0 C33.495 1.98 33.495 1.98 34 4 C31.03 4.99 28.06 5.98 25 7 C25 28.78 25 50.56 25 73 C27.64 73.33 30.28 73.66 33 74 C33.33 75.32 33.66 76.64 34 78 C22.78 78 11.56 78 0 78 C0 76.68 0 75.36 0 74 C0.84884766 73.83564453 0.84884766 73.83564453 1.71484375 73.66796875 C2.44832031 73.50941406 3.18179688 73.35085938 3.9375 73.1875 C4.66839844 73.03667969 5.39929688 72.88585938 6.15234375 72.73046875 C7.06693359 72.36888672 7.06693359 72.36888672 8 72 C9.0534896 68.83953119 9.12683729 66.60947885 9.12939453 63.29101562 C9.13254669 62.11970093 9.13569885 60.94838623 9.13894653 59.74157715 C9.1369223 58.47591919 9.13489807 57.21026123 9.1328125 55.90625 C9.13376923 54.60804321 9.13472595 53.30983643 9.13571167 51.97229004 C9.13718553 49.22516693 9.13504408 46.47807636 9.13037109 43.73095703 C9.12467398 40.21024231 9.12795465 36.68960383 9.13394356 33.16889191 C9.13842646 29.81050516 9.1352875 26.45213891 9.1328125 23.09375 C9.13483673 21.82809204 9.13686096 20.56243408 9.13894653 19.25842285 C9.13579437 18.08710815 9.13264221 16.91579346 9.12939453 15.70898438 C9.12859894 14.67656616 9.12780334 13.64414795 9.12698364 12.58044434 C9.11026133 9.88208851 9.11026133 9.88208851 8 7 C6.15274948 6.30840599 6.15274948 6.30840599 4 6 C1.8125 5.625 1.8125 5.625 0 5 C-0.33 4.01 -0.66 3.02 -1 2 C-0.67 1.34 -0.34 0.68 0 0 Z " fill="#FFFFFF" transform="translate(148,1106)"/>
<path d="M0 0 C2.74641245 2.37865922 3.84158528 4.59923348 5.0625 8 C5.38347656 8.86625 5.70445312 9.7325 6.03515625 10.625 C8.85789788 20.49888165 9.40355223 30.13894923 9.375 40.375 C9.37478851 41.07565582 9.37457703 41.77631165 9.37435913 42.49819946 C9.32329683 59.51259494 7.06260464 75.39859057 0 91 C-0.66 91 -1.32 91 -2 91 C-2.08771298 74.4152862 -1.85975292 57.83411187 -1.62768555 41.25146484 C-1.57198858 37.25149423 -1.52206075 33.25147156 -1.47328281 29.25141144 C-1.43441372 26.14934645 -1.3913232 23.04735054 -1.34705925 19.94535828 C-1.32672896 18.46858321 -1.30800103 16.99178516 -1.29092598 15.51496887 C-1.26687691 13.46757001 -1.2368465 11.42034237 -1.20532227 9.37304688 C-1.18977798 8.21123901 -1.1742337 7.04943115 -1.15821838 5.85241699 C-1 3 -1 3 0 0 Z " fill="#FFFFFF" transform="translate(720,861)"/>
</svg>
