<?xml version="1.0" encoding="UTF-8"?>
<svg version="1.1" xmlns="http://www.w3.org/2000/svg" width="572" height="131">
<path d="M0 0 C15.25539028 8.21990749 22.3370612 29.32313627 29.35180664 44.26391602 C32.30063785 50.48933857 35.39444681 56.62163491 38.59765625 62.71875 C39.18262123 63.83594421 39.18262123 63.83594421 39.77940369 64.97570801 C41.73096758 68.70027513 43.69540837 72.41714143 45.67944336 76.12451172 C46.40136901 77.49681259 47.1228265 78.86935989 47.84375 80.2421875 C48.18586014 80.87038895 48.52797028 81.49859039 48.88044739 82.14582825 C50.17234424 84.62950447 51.10373576 86.49333601 50.97167969 89.32739258 C49.4697399 92.21103489 46.80175451 93.42038095 44.078125 95.04296875 C39.81286131 93.50273464 37.68885025 90.29699897 35.078125 86.79296875 C30.99688721 81.44834004 26.787137 76.25686558 22.390625 71.16796875 C21.59688477 70.24902832 21.59688477 70.24902832 20.78710938 69.31152344 C19.55313239 67.88663235 18.31600102 66.46447385 17.078125 65.04296875 C17.14668701 65.60346924 17.21524902 66.16396973 17.28588867 66.74145508 C19.22902565 83.2798644 18.88579618 98.38256287 9.046875 112.578125 C2.19083053 121.16178385 -6.52128648 126.57610591 -16.921875 130.04296875 C-18.31627164 130.10962251 -19.71357375 130.12835074 -21.109375 130.10546875 C-22.3675 130.08484375 -23.625625 130.06421875 -24.921875 130.04296875 C-24.921875 126.41296875 -24.921875 122.78296875 -24.921875 119.04296875 C-23.00375 118.73359375 -23.00375 118.73359375 -21.046875 118.41796875 C-11.8166556 116.32810775 -4.15043251 110.91361649 1.078125 103.04296875 C9.20097427 87.04491806 5.98698717 69.7400343 0.828125 53.29296875 C-1.37295379 46.97330695 -4.25773231 41.38181963 -7.6640625 35.65234375 C-8.921875 33.04296875 -8.921875 33.04296875 -7.921875 30.04296875 C-2.66473214 26.04296875 -2.66473214 26.04296875 1.078125 26.04296875 C3.03457322 28.27343758 4.8141839 30.48093266 6.578125 32.85546875 C7.54513616 34.13412939 8.51383414 35.41151644 9.484375 36.6875 C9.91041016 37.25831299 10.33644531 37.82912598 10.77539062 38.41723633 C12.11018245 40.08297447 13.5427255 41.56220481 15.078125 43.04296875 C7.86365368 24.14122257 7.86365368 24.14122257 -5.921875 11.04296875 C-10.90900633 10.43968673 -16.64728284 10.10418664 -20.921875 13.04296875 C-23.04544231 17.5024601 -23.41890906 22.18096465 -23.921875 27.04296875 C-27.551875 27.04296875 -31.181875 27.04296875 -34.921875 27.04296875 C-35.2890953 19.69856284 -35.47595983 14.05588298 -30.921875 8.04296875 C-22.49436034 -0.85958327 -11.92834973 -3.90701295 0 0 Z " fill="#FFFFFF" transform="translate(89.921875,0.95703125)"/>
<path d="M0 0 C4.95 0 9.9 0 15 0 C15.55985596 1.35681885 16.11971191 2.7136377 16.6965332 4.11157227 C18.78150582 9.16417791 20.86710112 14.21652633 22.95288086 19.26879883 C23.85409148 21.45199732 24.75513511 23.63526476 25.65600586 25.81860352 C26.95382078 28.96388771 28.25224371 32.10892033 29.55078125 35.25390625 C30.15095818 36.70900352 30.15095818 36.70900352 30.76325989 38.1934967 C31.14342758 39.11392258 31.52359528 40.03434845 31.9152832 40.98266602 C32.27135651 41.84779816 32.62742981 42.7129303 32.99429321 43.60427856 C33.8861507 45.72879649 34.82577035 47.82384364 35.77807617 49.92163086 C37 53 37 53 37 57 C31.72 57 26.44 57 21 57 C18 49.375 18 49.375 18 46 C10.74 46 3.48 46 -4 46 C-4.33 47.65 -4.66 49.3 -5 51 C-5.66 52.98 -6.32 54.96 -7 57 C-12.28 57 -17.56 57 -23 57 C-22.08092035 52.40460176 -20.67627544 48.47545665 -18.8671875 44.19921875 C-18.55226349 43.44518265 -18.23733948 42.69114655 -17.91287231 41.91426086 C-17.24419902 40.3155545 -16.57331963 38.71776932 -15.90039062 37.12084961 C-14.89519974 34.73543591 -13.89616209 32.34752911 -12.8984375 29.95898438 C-8.6992125 19.92758913 -4.38181036 9.95296925 0 0 Z M7 18 C4.54144009 23.26322777 2.43823491 28.36691325 1 34 C4.96 34 8.92 34 13 34 C11.40615011 28.63886855 9.8106711 23.29273092 8 18 C7.67 18 7.34 18 7 18 Z " fill="#FFFFFF" transform="translate(535,57)"/>
<path d="M0 0 C0.78375 0.680625 1.5675 1.36125 2.375 2.0625 C2.375 6.0625 2.375 6.0625 0.625 8.203125 C-0.1175 8.89921875 -0.86 9.5953125 -1.625 10.3125 C-2.3675 11.01890625 -3.11 11.7253125 -3.875 12.453125 C-4.74125 13.24976563 -4.74125 13.24976563 -5.625 14.0625 C-6.57375 13.4025 -7.5225 12.7425 -8.5 12.0625 C-13.10877279 9.44494142 -17.44394159 9.22463907 -22.625 10.0625 C-26.32027184 11.80935578 -28.10217274 13.34796941 -30.5 16.625 C-32.40762484 22.45385369 -32.86231709 28.53631095 -30.125 34.125 C-29.63 34.764375 -29.135 35.40375 -28.625 36.0625 C-28.625 36.7225 -28.625 37.3825 -28.625 38.0625 C-21.96789535 40.6475135 -16.39944228 42.02718435 -9.625 39.0625 C-7.8986532 37.56155788 -7.8986532 37.56155788 -6.625 36.0625 C-3.63279732 37.42620299 -1.33473471 39.01158083 1.125 41.1875 C1.73859375 41.72632813 2.3521875 42.26515625 2.984375 42.8203125 C3.44328125 43.23023438 3.9021875 43.64015625 4.375 44.0625 C3.06021599 47.09165924 1.83165439 48.79771878 -0.875 50.6875 C-1.43703125 51.09226563 -1.9990625 51.49703125 -2.578125 51.9140625 C-10.38059365 56.29178346 -20.00334125 56.37124595 -28.578125 54.375 C-37.66732397 51.02928259 -42.63796 46.04449682 -46.6796875 37.33203125 C-49.86702231 29.67979356 -49.88877417 20.51616429 -47.125 12.6875 C-43.48156734 4.91484366 -37.58518232 -0.19097294 -29.64453125 -3.26171875 C-19.67703089 -6.59707187 -9.06892302 -5.39867653 0 0 Z " fill="#FFFFFF" transform="translate(214.625,59.9375)"/>
<path d="M0 0 C3.62011046 2.33296007 5.89022378 4.96794755 7.8125 8.8125 C7.89889869 11.22088678 7.92817764 13.59983881 7.91015625 16.0078125 C7.9087413 16.71525604 7.90732635 17.42269958 7.90586853 18.15158081 C7.900266 20.41359669 7.88771318 22.67551398 7.875 24.9375 C7.86998532 26.47005065 7.86542236 28.00260286 7.86132812 29.53515625 C7.85114616 33.29433947 7.83157143 37.05330924 7.8125 40.8125 C3.1925 40.8125 -1.4275 40.8125 -6.1875 40.8125 C-6.5175 31.2425 -6.8475 21.6725 -7.1875 11.8125 C-12.95637492 11.2577998 -12.95637492 11.2577998 -16.1875 13.8125 C-16.69854922 16.62060144 -16.69854922 16.62060144 -16.69921875 19.9140625 C-16.73466797 21.12578125 -16.77011719 22.3375 -16.80664062 23.5859375 C-16.84047852 25.49246094 -16.84047852 25.49246094 -16.875 27.4375 C-16.90916016 28.71625 -16.94332031 29.995 -16.97851562 31.3125 C-17.06121887 34.4788529 -17.12602861 37.64566376 -17.1875 40.8125 C-22.1375 40.8125 -27.0875 40.8125 -32.1875 40.8125 C-32.1875 27.2825 -32.1875 13.7525 -32.1875 -0.1875 C-27.5675 -0.1875 -22.9475 -0.1875 -18.1875 -0.1875 C-17.8575 0.8025 -17.5275 1.7925 -17.1875 2.8125 C-16.589375 2.338125 -15.99125 1.86375 -15.375 1.375 C-10.55041404 -2.07113283 -5.44296405 -2.02777092 0 0 Z " fill="#FFFFFF" transform="translate(297.1875,73.1875)"/>
<path d="M0 0 C4.98254581 3.42662446 7.84866674 7.50920962 9.1640625 13.48828125 C9.74897623 20.7412115 8.3202012 26.10006329 4.4140625 32.23828125 C-0.65131418 37.30365793 -6.41881841 39.58340965 -13.5234375 39.80078125 C-19.79197146 39.70846116 -24.95835057 38.08858464 -29.66015625 33.83984375 C-34.8327318 28.10367038 -36.3198832 22.94375791 -36.14453125 15.26953125 C-35.4766058 9.24974746 -32.86640225 5.16709028 -28.4609375 1.11328125 C-19.8312954 -5.58652528 -9.28361827 -5.23124521 0 0 Z M-19.7109375 10.48828125 C-22.62471125 14.60184419 -22.38834304 16.51663141 -21.8359375 21.48828125 C-20.99749579 24.14334667 -20.32700952 25.10633634 -18.1484375 26.80078125 C-14.68327832 27.83096371 -12.30775874 27.41823337 -8.8359375 26.48828125 C-5.67743688 23.73471661 -4.92930941 22.14188463 -4.3359375 17.98828125 C-4.9127394 13.95066792 -5.98243967 12.34177908 -8.8359375 9.48828125 C-12.98802418 7.41223791 -15.96298835 7.88101227 -19.7109375 10.48828125 Z " fill="#FFFFFF" transform="translate(253.8359375,75.51171875)"/>
<path d="M0 0 C6.20764084 3.63590392 8.59434919 8.62078726 10.5625 15.3125 C10.5625 18.2825 10.5625 21.2525 10.5625 24.3125 C1.3225 24.3125 -7.9175 24.3125 -17.4375 24.3125 C-14.84878618 28.64811318 -14.84878618 28.64811318 -10.5625 29.25 C-6.59641844 29.59802909 -4.79606399 28.400256 -1.4375 26.3125 C2.27624754 27.24093689 5.33588004 29.28433888 8.5625 31.3125 C7.89819507 33.96971974 7.22553927 35.80478228 5.01171875 37.5 C-1.84364261 41.4928443 -8.78686309 42.41432365 -16.62109375 40.88671875 C-22.05551265 39.15999306 -26.01708478 35.84223908 -29.4375 31.3125 C-32.37564448 25.41668848 -32.41169299 18.52131816 -30.9375 12.15234375 C-28.50130919 5.85423683 -23.72946473 1.81067238 -17.7421875 -0.95703125 C-11.79578409 -2.84173877 -5.67574312 -2.58949174 0 0 Z M-16.4375 10.3125 C-16.7675 11.6325 -17.0975 12.9525 -17.4375 14.3125 C-12.4875 14.3125 -7.5375 14.3125 -2.4375 14.3125 C-4.80544696 9.05898938 -4.80544696 9.05898938 -8.875 8.375 C-13.04502589 8.26275253 -13.04502589 8.26275253 -16.4375 10.3125 Z " fill="#FFFFFF" transform="translate(383.4375,73.6875)"/>
<path d="M0 0 C4.60560821 2.37552423 7.02078151 5.12556461 8.60717773 10.00488281 C9.18983906 13.0327632 9.15414724 15.92083492 9.140625 19.00390625 C9.13740234 20.29941406 9.13417969 21.59492187 9.13085938 22.9296875 C9.12250473 24.29296942 9.11403979 25.65625067 9.10546875 27.01953125 C9.10045043 28.3984359 9.0958881 29.77734229 9.09179688 31.15625 C9.08000977 34.52736243 9.06207436 37.89845235 9.04296875 41.26953125 C4.09296875 41.26953125 -0.85703125 41.26953125 -5.95703125 41.26953125 C-6.01761719 39.25988281 -6.07820313 37.25023437 -6.140625 35.1796875 C-6.20318574 33.24030456 -6.26577982 31.30092252 -6.3293457 29.36157227 C-6.37274348 28.01038978 -6.41441495 26.65915072 -6.4543457 25.30786133 C-6.51193077 23.36916424 -6.57617423 21.43066849 -6.640625 19.4921875 C-6.67728271 18.32437744 -6.71394043 17.15656738 -6.75170898 15.95336914 C-6.65779313 13.3517333 -6.65779313 13.3517333 -7.95703125 12.26953125 C-11.47448412 12.52201752 -11.47448412 12.52201752 -14.95703125 13.26953125 C-16.2980953 15.95165935 -16.17153544 18.15351157 -16.2734375 21.15234375 C-16.31533203 22.31894531 -16.35722656 23.48554687 -16.40039062 24.6875 C-16.45936523 26.52248047 -16.45936523 26.52248047 -16.51953125 28.39453125 C-16.56271484 29.62558594 -16.60589844 30.85664062 -16.65039062 32.125 C-16.75671748 35.17303637 -16.85740097 38.22126864 -16.95703125 41.26953125 C-21.57703125 41.26953125 -26.19703125 41.26953125 -30.95703125 41.26953125 C-30.95703125 27.73953125 -30.95703125 14.20953125 -30.95703125 0.26953125 C-26.66703125 0.26953125 -22.37703125 0.26953125 -17.95703125 0.26953125 C-17.62703125 1.25953125 -17.29703125 2.24953125 -16.95703125 3.26953125 C-15.96703125 2.60953125 -14.97703125 1.94953125 -13.95703125 1.26953125 C-9.28251358 -1.36930937 -5.07987229 -1.89608008 0 0 Z " fill="#FFFFFF" transform="translate(339.95703125,72.73046875)"/>
<path d="M0 0 C4.62 0 9.24 0 14 0 C14 14.52 14 29.04 14 44 C21.59 43.67 29.18 43.34 37 43 C36 48 36 48 32 57 C21.44 57 10.88 57 0 57 C0 38.19 0 19.38 0 0 Z " fill="#FFFFFF" transform="translate(475,57)"/>
<path d="M0 0 C0 3.3 0 6.6 0 10 C-1.01578125 10.15855469 -2.0315625 10.31710938 -3.078125 10.48046875 C-20.08937778 13.29250334 -34.58393635 19.12110592 -45.28125 33.34765625 C-50.51708463 41.42750105 -53.7671664 50.37016482 -55.125 59.875 C-55.29257812 61.02742188 -55.46015625 62.17984375 -55.6328125 63.3671875 C-55.75398438 64.23601562 -55.87515625 65.10484375 -56 66 C-59.3 66 -62.6 66 -66 66 C-67.12027011 49.00923673 -61.07122264 34.32255007 -50.24609375 21.41015625 C-36.86951443 7.05650505 -19.61792566 -0.92440487 0 0 Z " fill="#FFFFFF" transform="translate(66,48)"/>
<path d="M0 0 C-1.82504909 3.92300272 -4.18270826 6.73787272 -7 10 C-7.845625 9.649375 -8.69125 9.29875 -9.5625 8.9375 C-13.62913944 7.82841652 -15.97596372 7.70927138 -20 9 C-22.62215545 12.97296281 -23.13342068 15.09570429 -22.4375 19.8125 C-21.28087171 22.95585529 -21.28087171 22.95585529 -19.3125 24.5 C-16.0379692 25.20800666 -13.27616364 24.58502922 -10 24 C-8.68 24 -7.36 24 -6 24 C-2 28.22222222 -2 28.22222222 -2 31 C-1.34 31 -0.68 31 0 31 C-1 34 -1 34 -2.6796875 35.16796875 C-9.60907735 38.38606617 -16.02032355 39.32113865 -23.48828125 37.33984375 C-29.88419626 34.85672381 -34.191938 30.80252215 -37.13671875 24.609375 C-39.06007083 18.795804 -38.95382504 12.30333271 -36.4375 6.6875 C-33.50091956 1.63409126 -29.44039184 -1.77980408 -24.25 -4.375 C-14.78996024 -6.19423841 -8.24030737 -5.00495892 0 0 Z " fill="#FFFFFF" transform="translate(435,77)"/>
<path d="M0 0 C4.62 0 9.24 0 14 0 C14 3.3 14 6.6 14 10 C16.1965625 9.9690625 16.1965625 9.9690625 18.4375 9.9375 C19.95832518 9.91607993 21.48071962 9.92820036 23 10 C24 11 24 11 24.09765625 13.28515625 C24.06510417 15.85677083 24.03255208 18.42838542 24 21 C20.7 21 17.4 21 14 21 C14.33 27.27 14.66 33.54 15 40 C17.64 40 20.28 40 23 40 C23 43.63 23 47.26 23 51 C10.94139441 52.63758841 10.94139441 52.63758841 5 49 C0.55134587 44.55134587 -0.04169427 40.65881228 -0.09765625 34.57421875 C-0.09106137 32.9452837 -0.07921288 31.31636266 -0.0625 29.6875 C-0.05798828 28.85154297 -0.05347656 28.01558594 -0.04882812 27.15429688 C-0.03710548 25.10283351 -0.01917203 23.05140727 0 21 C-1.98 21 -3.96 21 -6 21 C-6 17.37 -6 13.74 -6 10 C-4.02 10 -2.04 10 0 10 C0 6.7 0 3.4 0 0 Z " fill="#FFFFFF" transform="translate(443,63)"/>
<path d="M0 0 C0 3.63 0 7.26 0 11 C-1.45019531 11.32871094 -1.45019531 11.32871094 -2.9296875 11.6640625 C-13.67055538 14.22450623 -23.30203535 17.26037466 -29.7578125 26.87109375 C-33.75416467 33.72018788 -35.67998379 40.1899041 -37 48 C-40.63 48 -44.26 48 -48 48 C-47.23769243 33.32557922 -42.54503077 21.99645601 -31.8125 11.75 C-22.55338791 3.98429309 -12.06264065 0 0 0 Z " fill="#FFFFFF" transform="translate(66,66)"/>
<path d="M0 0 C0 3.63 0 7.26 0 11 C-1.5675 11.45375 -3.135 11.9075 -4.75 12.375 C-8.0124243 13.31938598 -11.06660921 14.26364312 -14 16 C-16.13040658 20.02410131 -16.9542573 24.59294147 -18 29 C-21.63 29 -25.26 29 -29 29 C-28.45645779 20.3033246 -26.19995878 13.37217986 -20 7 C-13.73775066 2.2861843 -7.94037698 0 0 0 Z " fill="#FFFFFF" transform="translate(66,85)"/>
</svg>
