<?xml version="1.0" encoding="UTF-8"?>
<svg version="1.1" xmlns="http://www.w3.org/2000/svg" width="642" height="232">
<path d="M0 0 C8.42482805 -0.04680519 16.84959974 -0.0821095 25.2745266 -0.10362434 C29.18859905 -0.11396205 33.10258111 -0.12793247 37.01660156 -0.15087891 C97.71301062 -0.49702815 97.71301062 -0.49702815 117.578125 18.32421875 C129.95611879 31.99990543 135.29128954 48.80577632 134.96142578 67.14453125 C134.18698123 81.26401821 129.90290994 93.98453516 121 105 C120.22914063 105.98871094 119.45828125 106.97742188 118.6640625 107.99609375 C107.12456439 121.73462829 88.14179946 127.30717702 71 129 C68.52578734 129.08135 66.04976447 129.11794601 63.57421875 129.11352539 C62.88054703 129.11367142 62.18687531 129.11381744 61.47218323 129.1139679 C59.21058879 129.11327885 56.9490798 129.10553439 54.6875 129.09765625 C53.10709681 129.09578848 51.52669304 129.09436627 49.94628906 129.09336853 C45.81010304 129.08957162 41.67395277 129.07976582 37.53778076 129.06866455 C33.30774418 129.05838932 29.07770175 129.05385788 24.84765625 129.04882812 C16.56508785 129.03814071 8.28254839 129.02109868 0 129 C0 127.68 0 126.36 0 125 C0.80824219 124.91363281 1.61648437 124.82726562 2.44921875 124.73828125 C9.24845582 123.88252309 9.24845582 123.88252309 15.1875 120.6875 C18.68318647 115.50424075 18.14842097 109.78800781 18.14526367 103.74682617 C18.14862228 102.82260361 18.1519809 101.89838104 18.15544128 100.94615173 C18.16492905 97.89507701 18.16689336 94.8440573 18.16796875 91.79296875 C18.17118303 89.66693601 18.17454723 87.54090349 18.17805481 85.41487122 C18.18404077 80.95878588 18.18589527 76.50271993 18.18530273 72.04663086 C18.18520119 66.34721157 18.19884833 60.64791707 18.21607494 54.94852734 C18.22721454 50.55694512 18.22922133 46.16539288 18.22869301 41.77379799 C18.22987036 39.6731352 18.23427836 37.57247157 18.24202538 35.47182274 C18.25186399 32.52824641 18.24893182 29.58493842 18.24291992 26.64135742 C18.24853943 25.78030396 18.25415894 24.91925049 18.25994873 24.03210449 C18.23238422 18.69905079 17.60510774 14.10105662 16 9 C11.87568431 5.00872675 5.48039539 4.81582068 0 4 C0 2.68 0 1.36 0 0 Z M38 11 C37.9045307 12.40411317 37.87811471 13.81299809 37.87974548 15.22035217 C37.87837082 16.13045547 37.87699615 17.04055878 37.87557983 17.97824097 C37.87917511 18.98452545 37.88277039 19.99080994 37.88647461 21.02758789 C37.88632858 22.08111954 37.88618256 23.13465118 37.8860321 24.22010803 C37.88673174 27.720978 37.89452652 31.22179552 37.90234375 34.72265625 C37.90420775 37.14261343 37.90563174 39.56257099 37.90663147 41.98252869 C37.91045808 48.36615024 37.92028959 54.74974921 37.93133545 61.13336182 C37.94154649 67.64163914 37.94612843 74.1499201 37.95117188 80.65820312 C37.96191173 93.43881175 37.97879888 106.21940467 38 119 C39.60680894 119.32896231 41.21404361 119.65584562 42.82145691 119.98184204 C43.71643985 120.16409647 44.61142279 120.3463509 45.53352642 120.53412819 C60.82076671 123.42160867 76.70668923 121.10981815 89.7890625 112.62109375 C101.19261419 104.25983235 108.26804901 90.85604351 110.68359375 77.015625 C112.64770318 58.29596471 110.13351619 40.75245657 98.9296875 25.109375 C93.81242272 18.98333042 88.31379474 15.12889614 81 12 C80.03578125 11.5875 79.0715625 11.175 78.078125 10.75 C69.46477697 7.60197433 45.54260509 3.45739491 38 11 Z " fill="#FFFFFF" transform="translate(26,38)"/>
<path d="M0 0 C2.78158448 1.20697637 4.99233008 1.25617503 8.02050781 1.31201172 C9.67953125 1.35648437 9.67953125 1.35648437 11.37207031 1.40185547 C13.70279665 1.44627514 16.03352584 1.49054498 18.36425781 1.53466797 C20.01941406 1.57914062 20.01941406 1.57914062 21.70800781 1.62451172 C23.22515381 1.65254883 23.22515381 1.65254883 24.77294922 1.68115234 C27.23144531 1.96826172 27.23144531 1.96826172 29.23144531 3.96826172 C29.48144531 6.46826172 29.48144531 6.46826172 29.23144531 8.96826172 C26.38530507 11.81440196 23.42775389 11.42405248 19.60644531 11.59326172 C18.54683594 11.65126953 18.54683594 11.65126953 17.46582031 11.71044922 C15.72146007 11.80473896 13.9764884 11.88759063 12.23144531 11.96826172 C12.70582031 13.02013672 13.18019531 14.07201172 13.66894531 15.15576172 C17.01141102 23.03893557 17.23161716 30.70845016 14.27050781 38.73388672 C10.84446386 46.1011692 5.5098571 51.7969357 -2.03808594 54.90185547 C-8.10638785 57.00513092 -13.69761183 58.10857275 -20.14355469 58.09326172 C-21.28566406 58.09326172 -22.42777344 58.09326172 -23.60449219 58.09326172 C-26.17265403 57.99180347 -28.29670561 57.70305708 -30.76855469 57.09326172 C-34.04056609 56.61224536 -34.04056609 56.61224536 -36.70605469 59.53076172 C-38.95334042 62.66668004 -39.22806357 65.1083871 -38.76855469 68.96826172 C-33.77431453 70.93699704 -29.39339608 71.3192362 -24.10839844 71.46044922 C-22.40981234 71.52638338 -20.71124513 71.59280561 -19.01269531 71.65966797 C-16.36936594 71.75383734 -13.72609661 71.84266123 -11.08227539 71.921875 C15.41651978 72.752683 15.41651978 72.752683 23.41894531 80.59326172 C27.28465865 85.79896047 28.61666554 91.04268414 27.98535156 97.47607422 C25.91550697 106.58339044 19.1935203 113.13290058 11.73144531 118.34326172 C10.24822952 119.24642057 8.74846078 120.12310548 7.23144531 120.96826172 C6.57015625 121.34595703 5.90886719 121.72365234 5.22753906 122.11279297 C-10.81958088 130.24292774 -30.08188784 129.2431461 -46.80761719 124.01904297 C-52.66658446 121.77989082 -58.05598266 119.45425338 -61.70605469 114.15576172 C-63.09979258 109.97454805 -63.09285577 108.21996518 -61.76855469 103.96826172 C-57.40930893 96.76039993 -51.92134805 90.67923216 -45.76855469 84.96826172 C-46.34605469 84.55576172 -46.92355469 84.14326172 -47.51855469 83.71826172 C-53.37371968 79.1642445 -53.37371968 79.1642445 -54.44042969 75.93310547 C-54.63371828 70.91726655 -52.98449795 67.82739363 -49.76855469 63.96826172 C-47.16601042 61.23198988 -44.49104309 58.58467915 -41.76855469 55.96826172 C-41.10855469 55.30826172 -40.44855469 54.64826172 -39.76855469 53.96826172 C-40.63480469 53.45263672 -41.50105469 52.93701172 -42.39355469 52.40576172 C-49.92777469 47.28817832 -53.51033449 40.70935001 -55.76855469 31.96826172 C-57.13759014 24.46650623 -54.18430431 17.07573227 -50.41308594 10.66357422 C-39.71766999 -4.5336656 -16.23002657 -9.46826232 0 0 Z M-30.76855469 3.96826172 C-36.36978633 9.38421089 -37.79172752 16.18370006 -38.08105469 23.71826172 C-37.8447308 33.92745361 -35.19872551 42.43740519 -28.01855469 49.78076172 C-22.9249734 53.20913374 -19.04627417 53.35431587 -13.08105469 52.34326172 C-8.62433284 50.49330171 -6.04855411 48.43058993 -3.79589844 44.09716797 C0.14411945 34.10968076 -0.95932425 22.82363237 -4.76855469 12.96826172 C-6.56289121 9.56548359 -6.56289121 9.56548359 -8.76855469 6.96826172 C-9.30480469 6.22576172 -9.84105469 5.48326172 -10.39355469 4.71826172 C-16.48429974 0.23034431 -24.44256267 -0.25845901 -30.76855469 3.96826172 Z M-39.76855469 85.96826172 C-43.76018346 91.48513514 -46.96679953 96.09607466 -47.76855469 102.96826172 C-46.07854134 107.61579842 -43.04653361 109.6764873 -38.76855469 111.96826172 C-30.80639245 114.82914722 -23.23720295 115.4602506 -14.83105469 115.40576172 C-13.74115234 115.42574219 -12.65125 115.44572266 -11.52832031 115.46630859 C-0.98815441 115.46004587 8.97269128 113.38016408 16.73144531 105.83154297 C19.02422509 102.98348059 19.83024993 100.57902018 20.23144531 96.96826172 C19.90922843 94.16244609 19.90922843 94.16244609 18.23144531 91.96826172 C12.0722262 88.04875864 5.76673797 87.85121791 -1.37011719 87.68701172 C-2.08783295 87.66860229 -2.80554871 87.65019287 -3.54501343 87.63122559 C-5.82778326 87.57291602 -8.11062721 87.52000356 -10.39355469 87.46826172 C-20.21983058 87.24239458 -29.98053691 86.94587707 -39.76855469 85.96826172 Z " fill="#FFFFFF" transform="translate(340.7685546875,81.03173828125)"/>
<path d="M0 0 C0.00496522 0.90529717 0.00496522 0.90529717 0.01003075 1.82888317 C0.09127267 16.51827177 0.18336907 31.20756461 0.28752708 45.89680767 C0.33763588 53.0004378 0.38407896 60.10405648 0.421875 67.20776367 C0.4583503 74.06130115 0.505064 80.91470763 0.55806351 87.76813698 C0.57661748 90.38481268 0.59172171 93.00151515 0.60334396 95.61823082 C0.6201889 99.27906498 0.64922054 102.93961252 0.68115234 106.6003418 C0.68331253 107.68575256 0.68547272 108.77116333 0.68769836 109.88946533 C0.69886185 110.88920883 0.71002533 111.88895233 0.7215271 112.91899109 C0.72705786 113.7845547 0.73258862 114.65011831 0.73828697 115.54191113 C1.03745885 118.35182498 1.73344621 120.47739774 3 123 C6.80939588 124.48143173 10.07196405 123.82214706 14 123 C14.33 124.32 14.66 125.64 15 127 C8.64357687 130.04354158 2.18867792 132.81323334 -4.375 135.375 C-5.05240234 135.64973145 -5.72980469 135.92446289 -6.42773438 136.20751953 C-10.33823768 137.70254099 -12.97374426 138.32135806 -17 137 C-17.33 133.7 -17.66 130.4 -18 127 C-18.94875 127.9075 -19.8975 128.815 -20.875 129.75 C-27.30116837 135.27493744 -36.26904098 138.48847278 -44.79296875 138.265625 C-55.35282567 136.99470417 -63.0595846 133.03428522 -70 125 C-78.64225212 113.15352304 -81.25901295 100.48379475 -80 86 C-77.49337045 72.85093757 -70.42005925 60.32194612 -59.6171875 52.2109375 C-50.79284828 46.59544891 -41.50068744 43.64741838 -31 45 C-21.39790576 47.60209424 -21.39790576 47.60209424 -18 51 C-17.97520519 46.53426489 -17.95709514 42.0685667 -17.94506836 37.6027832 C-17.94005234 36.08487245 -17.93323797 34.5669665 -17.92456055 33.04907227 C-17.91237503 30.86212984 -17.90674428 28.67525154 -17.90234375 26.48828125 C-17.89710693 25.17384033 -17.89187012 23.85939941 -17.88647461 22.50512695 C-17.91288167 18.72375248 -17.91288167 18.72375248 -19 14 C-22.96 14 -26.92 14 -31 14 C-31 12.68 -31 11.36 -31 10 C-26.96524575 8.31624018 -22.92118852 6.65607274 -18.875 5 C-17.73289062 4.52304687 -16.59078125 4.04609375 -15.4140625 3.5546875 C-14.30546875 3.10351562 -13.196875 2.65234375 -12.0546875 2.1875 C-11.03874512 1.76855469 -10.02280273 1.34960938 -8.97607422 0.91796875 C-5.8137236 -0.05745687 -3.28712119 -0.06701936 0 0 Z M-53.25 59.0625 C-61.51875912 69.51673497 -62.08251775 84.12031267 -60.69140625 96.81640625 C-59.010157 106.32364756 -54.9445889 116.01978751 -47.38671875 122.3515625 C-41.52792965 126.39310932 -35.91509115 126.69906659 -29 126 C-26.06913341 125.01980952 -23.56736409 123.70967007 -21 122 C-20.31450073 121.57743423 -19.62900146 121.15486847 -18.92272949 120.71949768 C-16.82378027 119.17258297 -16.82378027 119.17258297 -16.49206543 116.84629822 C-16.48729187 115.59581444 -16.48729187 115.59581444 -16.48242188 114.32006836 C-16.46981323 113.37155502 -16.45720459 112.42304169 -16.44421387 111.44578552 C-16.45231079 110.42082474 -16.46040771 109.39586395 -16.46875 108.33984375 C-16.4649231 107.28019913 -16.46109619 106.2205545 -16.45715332 105.12879944 C-16.45442874 102.88183648 -16.46182792 100.6348421 -16.47851562 98.38793945 C-16.49976846 94.97468658 -16.47880846 91.56357457 -16.453125 88.15039062 C-16.45577108 85.96353707 -16.46090183 83.77668483 -16.46875 81.58984375 C-16.46065308 80.57905258 -16.45255615 79.56826141 -16.44421387 78.52684021 C-16.54515208 70.75689518 -17.99464096 63.6514247 -23.03515625 57.52734375 C-23.70417969 57.00269531 -24.37320313 56.47804688 -25.0625 55.9375 C-25.73410156 55.38964844 -26.40570313 54.84179688 -27.09765625 54.27734375 C-35.69586184 48.50401063 -46.63166089 52.17942732 -53.25 59.0625 Z " fill="#FFFFFF" transform="translate(528,32)"/>
<path d="M0 0 C4.41788295 3.46618481 6.20552362 7.04468027 7.72265625 12.3515625 C7.9876709 15.21011353 7.9876709 15.21011353 8.00976562 18.20166016 C8.02317993 19.32947906 8.03659424 20.45729797 8.05041504 21.61929321 C8.05833069 23.42422745 8.05833069 23.42422745 8.06640625 25.265625 C8.08102905 26.51282318 8.09565186 27.76002136 8.11071777 29.04501343 C8.16503457 33.69780029 8.20233588 38.35064843 8.23834229 43.00360107 C8.27458236 47.57026411 8.32528396 52.13662608 8.37890625 56.703125 C8.3868219 58.51413193 8.3868219 58.51413193 8.39489746 60.36172485 C8.40831177 61.48323944 8.42172607 62.60475403 8.43554688 63.76025391 C8.44648376 65.23868271 8.44648376 65.23868271 8.4576416 66.74697876 C8.72883635 69.41230094 9.3630885 71.06653385 10.72265625 73.3515625 C14.29255794 73.03657117 16.26345173 72.09111016 18.91015625 69.7890625 C21.72265625 67.3515625 21.72265625 67.3515625 23.72265625 67.3515625 C24.02914583 70.46024255 23.9692421 71.96856746 22.25390625 74.6328125 C16.2311199 81.21154836 11.31165691 86.49159799 2.03515625 86.9765625 C-1.77765429 86.78116916 -3.08915931 86.47829896 -6.33984375 84.2890625 C-8.57430055 80.90133768 -9.42655804 78.29611444 -10.27734375 74.3515625 C-11.31181641 75.14820313 -11.31181641 75.14820313 -12.3671875 75.9609375 C-23.22156577 84.12033296 -31.2704915 88.32435859 -45.27734375 86.3515625 C-50.69469667 84.29851312 -54.09896992 81.28420469 -56.77734375 76.1640625 C-59.42078089 69.9593281 -60.59007726 63.7800611 -58.62890625 57.1640625 C-52.62594417 44.02937625 -38.76708571 38.0129476 -25.98046875 33.18164062 C-24.8409375 32.76333984 -23.70140625 32.34503906 -22.52734375 31.9140625 C-21.34140625 31.46869141 -20.15546875 31.02332031 -18.93359375 30.56445312 C-16.05165369 29.4837256 -13.16644057 28.41297479 -10.27734375 27.3515625 C-9.83153429 14.58240418 -9.83153429 14.58240418 -15.71484375 3.7265625 C-21.74281463 1.39997725 -27.75396383 1.71636161 -34.05078125 2.8515625 C-36.70203321 4.28276219 -36.70203321 4.28276219 -37.28125 8.125 C-37.48989674 9.65596205 -37.67523789 11.19024119 -37.83984375 12.7265625 C-38.73704401 20.64850854 -38.73704401 20.64850854 -41.18359375 23.83203125 C-43.9610066 25.84772826 -45.8512761 26.28164275 -49.27734375 26.3515625 C-52.02734375 25.4140625 -52.02734375 25.4140625 -54.27734375 23.3515625 C-56.05419281 18.98347522 -56.78343066 15.89838758 -55.40234375 11.3515625 C-52.32809084 4.53182243 -46.98987486 -0.22923144 -40.15234375 -3.0859375 C-27.4946743 -7.71324945 -11.36984805 -7.73059251 0 0 Z M-38.52734375 49.17578125 C-42.10569249 53.62475502 -42.8500106 57.72033849 -42.27734375 63.3515625 C-40.9377423 67.10106553 -39.20616676 70.28513608 -36.58984375 73.2890625 C-32.76503612 75.04640655 -29.49791946 75.78172457 -25.27734375 75.3515625 C-21.03318893 73.74868847 -17.15072394 71.70586015 -13.27734375 69.3515625 C-12.569729 68.97314209 -11.86211426 68.59472168 -11.13305664 68.20483398 C-8.94705147 66.39477874 -8.94705147 66.39477874 -8.82324219 63.07348633 C-8.8238736 61.7350217 -8.84636644 60.39645012 -8.88671875 59.05859375 C-8.89520844 57.99955086 -8.89520844 57.99955086 -8.90386963 56.91911316 C-8.92623964 54.66673624 -8.97643176 52.41595747 -9.02734375 50.1640625 C-9.04740819 48.63609071 -9.06565907 47.10809394 -9.08203125 45.58007812 C-9.12610573 41.83662494 -9.19513301 38.09436455 -9.27734375 34.3515625 C-19.58547211 34.3515625 -31.31802951 42.32943596 -38.52734375 49.17578125 Z " fill="#FFFFFF" transform="translate(423.27734375,82.6484375)"/>
<path d="M0 0 C8.69025748 7.86165154 13.45470045 19.23235206 14.61328125 30.7421875 C15.04207077 45.23075959 10.0833078 59.5006682 0.25 70.1875 C-9.32107472 79.07378901 -19.91347845 81.95950593 -32.625 82.375 C-44.14554054 81.90175572 -54.78930887 76.45450754 -62.5859375 68.0625 C-70.82438648 57.20416112 -74.75773232 44.96778787 -73.625 31.375 C-71.76252948 18.5411695 -66.53191275 6.76442445 -56.3046875 -1.5 C-38.58194352 -14.50751852 -17.25066965 -13.30218304 0 0 Z M-45.7109375 1.04296875 C-52.88600308 8.6267406 -54.93239552 18.39939586 -54.77734375 28.6328125 C-53.9586994 43.36841085 -51.60334864 59.39209754 -40.125 69.75 C-34.91405563 74.1498068 -29.91034494 74.77732736 -23.2734375 74.6171875 C-18.07065155 74.14141651 -14.97016941 71.96579714 -11.4375 68.3125 C-4.09808123 59.22468566 -3.95983558 45.96966211 -4.93359375 34.8515625 C-6.40333757 22.0270722 -9.49294605 9.99762153 -19.25 0.9375 C-27.57837166 -4.54169188 -37.5278251 -5.50045634 -45.7109375 1.04296875 Z " fill="#FFFFFF" transform="translate(610.625,87.625)"/>
<path d="M0 0 C7.13775262 5.6438044 11.33304597 11.73886492 14.6875 20.125 C15.1825 25.57 15.1825 25.57 15.6875 31.125 C-5.1025 31.125 -25.8925 31.125 -47.3125 31.125 C-43.15773855 52.49196879 -43.15773855 52.49196879 -29.390625 67.44140625 C-22.0896194 71.38010664 -12.98429289 71.3726025 -5.00390625 69.6171875 C4.02406339 66.11859793 7.61148639 59.37820486 11.6875 51.125 C13.0075 51.785 14.3275 52.445 15.6875 53.125 C12.32333389 66.4562918 6.56669148 77.05688239 -5.3984375 84.40625 C-14.40138078 88.95647404 -24.79654613 89.17498521 -34.3125 86.125 C-46.21650102 81.62470693 -52.75550379 73.88203398 -57.90234375 62.49609375 C-63.74068832 48.53905396 -62.4581277 33.11918375 -57.3125 19.125 C-53.08990332 9.66587004 -45.85474936 2.10541015 -36.328125 -2.1328125 C-24.27495812 -6.5709941 -11.28397217 -6.38715406 0 0 Z M-41.625 10.5 C-44.83743286 15.49711778 -46.3125 19.13737217 -46.3125 25.125 C-33.1125 25.125 -19.9125 25.125 -6.3125 25.125 C-6.3125 17.7437965 -6.39881742 14.82453774 -10.3125 9.125 C-15.97537948 3.7452645 -20.58471831 2.61105007 -28.265625 2.7421875 C-34.08476655 3.47331041 -37.63573749 6.40291958 -41.625 10.5 Z " fill="#FFFFFF" transform="translate(227.3125,81.875)"/>
<path d="M0 0 C0.00146656 0.64052937 0.00293312 1.28105873 0.00444412 1.94099808 C0.04148802 17.52304101 0.10047028 33.10482284 0.18390274 48.68667984 C0.22372042 56.22195037 0.25609896 63.75711606 0.27099609 71.29248047 C0.28399858 77.85994925 0.31092695 84.42718761 0.35461307 90.99452662 C0.37725993 94.47228231 0.39290878 97.94975345 0.39188385 101.42758942 C0.39100079 105.30906077 0.42120709 109.18994959 0.45410156 113.07128906 C0.4490712 114.22575027 0.44404083 115.38021149 0.43885803 116.56965637 C0.45277084 117.62692429 0.46668365 118.6841922 0.48101807 119.77349854 C0.48470524 120.69160435 0.48839241 121.60971016 0.49219131 122.55563736 C1.15736639 125.75749102 2.50713165 126.95348449 5 129 C7.09989111 129.88246003 7.09989111 129.88246003 9.25 130.25 C10.4875 130.4975 11.725 130.745 13 131 C13 132.32 13 133.64 13 135 C-1.52 135 -16.04 135 -31 135 C-31 133.68 -31 132.36 -31 131 C-29.95199219 130.72736328 -29.95199219 130.72736328 -28.8828125 130.44921875 C-27.51769531 130.07216797 -27.51769531 130.07216797 -26.125 129.6875 C-25.22007812 129.44386719 -24.31515625 129.20023438 -23.3828125 128.94921875 C-20.67886681 128.13330148 -20.67886681 128.13330148 -19 125 C-18.69998072 122.90047603 -18.69998072 122.90047603 -18.74603271 120.55932617 C-18.74039307 119.65080902 -18.73475342 118.74229187 -18.72894287 117.8062439 C-18.73299133 116.8118631 -18.73703979 115.8174823 -18.74121094 114.79296875 C-18.73595398 113.21946152 -18.73595398 113.21946152 -18.73059082 111.61416626 C-18.72177146 108.13854399 -18.72762347 104.66312443 -18.734375 101.1875 C-18.73302841 98.77758749 -18.73108793 96.36767525 -18.72857666 93.95776367 C-18.72562512 88.90378232 -18.72992407 83.84987159 -18.73925781 78.79589844 C-18.75065229 72.30897907 -18.744093 65.82222518 -18.73211288 59.33531189 C-18.72489515 54.35801948 -18.72718183 49.38076648 -18.73236847 44.4034729 C-18.7337052 42.01119975 -18.73205643 39.61892306 -18.72740936 37.22665405 C-18.72234562 33.886683 -18.73005244 30.54698212 -18.74121094 27.20703125 C-18.73716248 26.21265045 -18.73311401 25.21826965 -18.72894287 24.1937561 C-18.73740234 22.83098038 -18.73740234 22.83098038 -18.74603271 21.44067383 C-18.74678677 20.65090652 -18.74754082 19.86113922 -18.74831772 19.04743958 C-18.88260649 16.68963007 -18.88260649 16.68963007 -21 14 C-23.66653905 13.63539547 -23.66653905 13.63539547 -26.625 13.8125 C-27.62789062 13.83957031 -28.63078125 13.86664063 -29.6640625 13.89453125 C-30.43492187 13.92933594 -31.20578125 13.96414062 -32 14 C-32.33 13.01 -32.66 12.02 -33 11 C-27.4077227 8.12433522 -21.78467205 5.56109599 -15.9375 3.25 C-15.17373047 2.93417969 -14.40996094 2.61835937 -13.62304688 2.29296875 C-12.86958984 1.99519531 -12.11613281 1.69742188 -11.33984375 1.390625 C-10.67331787 1.12282227 -10.00679199 0.85501953 -9.32006836 0.57910156 C-6.19457153 -0.20103928 -3.20960977 -0.03462542 0 0 Z " fill="#FFFFFF" transform="translate(272,32)"/>
<path d="M0 0 C1.65 0 3.3 0 5 0 C6.65 3.63 8.3 7.26 10 11 C11.65 7.37 13.3 3.74 15 0 C16.65 0 18.3 0 20 0 C20 5.94 20 11.88 20 18 C18.68 17.67 17.36 17.34 16 17 C15.67 14.36 15.34 11.72 15 9 C13.68 11.64 12.36 14.28 11 17 C10.01 17 9.02 17 8 17 C6.68 14.36 5.36 11.72 4 9 C3.67 11.97 3.34 14.94 3 18 C2.01 18 1.02 18 0 18 C-0.19384179 15.18780295 -0.38036603 12.37545804 -0.5625 9.5625 C-0.61857422 8.76005859 -0.67464844 7.95761719 -0.73242188 7.13085938 C-0.8616295 5.08937889 -0.9351273 3.04453631 -1 1 C-0.67 0.67 -0.34 0.34 0 0 Z " fill="#FFFFFF" transform="translate(120,174)"/>
<path d="M0 0 C1.65 0 3.3 0 5 0 C6.65 3.63 8.3 7.26 10 11 C11.65 7.37 13.3 3.74 15 0 C16.65 0 18.3 0 20 0 C20 5.94 20 11.88 20 18 C18.68 18 17.36 18 16 18 C15.67 15.03 15.34 12.06 15 9 C13.35 11.97 11.7 14.94 10 18 C6.91910327 15.22719294 5.31224548 12.93673644 4 9 C3.67 11.97 3.34 14.94 3 18 C2.01 18 1.02 18 0 18 C0 12.06 0 6.12 0 0 Z " fill="#FFFFFF" transform="translate(85,174)"/>
<path d="M0 0 C5.19130616 1.03826123 5.73375591 1.25934554 8.8125 5.0625 C9.41707031 5.79597656 10.02164063 6.52945313 10.64453125 7.28515625 C11.09183594 7.85105469 11.53914062 8.41695312 12 9 C12.33 6.03 12.66 3.06 13 0 C14.32 0 15.64 0 17 0 C17 5.61 17 11.22 17 17 C13 17 13 17 10.859375 15.03125 C10.16328125 14.1959375 9.4671875 13.360625 8.75 12.5 C8.04359375 11.6646875 7.3371875 10.829375 6.609375 9.96875 C6.07828125 9.3190625 5.5471875 8.669375 5 8 C4.67 10.97 4.34 13.94 4 17 C2.68 17 1.36 17 0 17 C0 11.39 0 5.78 0 0 Z " fill="#FFFFFF" transform="translate(183,174)"/>
<path d="M0 0 C3.5060303 0.86943897 4.94966563 2.56083702 6.9375 5.48046875 C7.60100721 9.60895806 7.37264338 11.67980493 5.375 15.35546875 C2.17349794 18.14652183 0.15644271 18.48046875 -4.0625 18.48046875 C-7.63637602 16.89207941 -8.87339572 15.76412517 -11.0625 12.48046875 C-11.62295628 8.15694887 -11.5411058 6.18342102 -9.0625 2.54296875 C-5.72661401 0.24954713 -3.96265906 -0.27768634 0 0 Z M-6.0625 5.48046875 C-6.30462873 7.46175383 -6.30462873 7.46175383 -6.1875 9.60546875 C-6.14625 10.88421875 -6.105 12.16296875 -6.0625 13.48046875 C-3.73395537 14.67885084 -3.73395537 14.67885084 -1.0625 15.48046875 C2.18838039 13.78254059 2.18838039 13.78254059 2.75 10.60546875 C2.94205315 7.40458292 2.65967143 6.114378 0.9375 3.48046875 C-3.01707848 3.13223068 -3.01707848 3.13223068 -6.0625 5.48046875 Z " fill="#FFFFFF" transform="translate(64.0625,173.51953125)"/>
<path d="M0 0 C3.2018934 3.27998837 3.98343458 5.03920538 4.0625 9.625 C2.77457968 13.71604102 1.75514634 14.9591596 -2 17 C-5.5 17.5625 -5.5 17.5625 -9 17 C-11.96593118 14.74331324 -13.58516544 13.01115924 -15 9.5625 C-15 6.00466228 -13.9131909 3.96874449 -12 1 C-8.55335427 -1.93603155 -4.08998426 -1.42187592 0 0 Z M-8.6875 3.125 C-10.59626824 5.85181176 -10.40618007 7.75055942 -10 11 C-8.95625978 13.04451019 -8.95625978 13.04451019 -7 14 C-4.3727086 13.92466753 -4.3727086 13.92466753 -2 13 C-0.60064987 10.20129973 -0.74734595 8.09501208 -1 5 C-2.18895236 3.05967596 -2.18895236 3.05967596 -4 2 C-6.92199528 1.7226499 -6.92199528 1.7226499 -8.6875 3.125 Z " fill="#FFFFFF" transform="translate(424,176)"/>
<path d="M0 0 C1.65 0 3.3 0 5 0 C5.33 4.62 5.66 9.24 6 14 C7.32 14 8.64 14 10 14 C10.33 9.71 10.66 5.42 11 1 C12.32 0.67 13.64 0.34 15 0 C15.1079859 2.43868168 15.18726589 4.87259133 15.25 7.3125 C15.30027344 8.34793945 15.30027344 8.34793945 15.3515625 9.40429688 C15.45037546 14.5178673 15.45037546 14.5178673 13.171875 16.95703125 C10.22891432 18.37028755 8.22831873 18.40353984 5 18 C1.8640843 16.22015595 1.15897264 15.47691793 0 12 C-0.068991 9.93854893 -0.08467727 7.87498599 -0.0625 5.8125 C-0.05347656 4.72582031 -0.04445312 3.63914063 -0.03515625 2.51953125 C-0.02355469 1.68808594 -0.01195312 0.85664063 0 0 Z " fill="#FFFFFF" transform="translate(154,174)"/>
<path d="M0 0 C0.66 0.33 1.32 0.66 2 1 C1.67 1.99 1.34 2.98 1 4 C-0.11375 3.95875 -1.2275 3.9175 -2.375 3.875 C-6.04366025 3.58878141 -6.04366025 3.58878141 -8 6 C-8.24212873 7.98128508 -8.24212873 7.98128508 -8.125 10.125 C-8.08375 11.40375 -8.0425 12.6825 -8 14 C-5.69 14.33 -3.38 14.66 -1 15 C-1 13.35 -1 11.7 -1 10 C0.32 10 1.64 10 3 10 C3.04241723 12.33294775 3.04092937 14.66702567 3 17 C1.43966377 18.56033623 -0.08947136 18.20707559 -2.25 18.25 C-6.30914466 18.19837336 -8.81640989 17.70122797 -12 15 C-13.92863839 12.45770394 -14.00902291 11.21654982 -13.875 8 C-12.87252339 4.56293734 -11.77992173 3.2075849 -9 1 C-5.77390955 -0.07536348 -3.37822416 -0.14375422 0 0 Z " fill="#FFFFFF" transform="translate(542,175)"/>
<path d="M0 0 C1.23556641 0.01740234 1.23556641 0.01740234 2.49609375 0.03515625 C3.32238281 0.04417969 4.14867187 0.05320313 5 0.0625 C5.63808594 0.07410156 6.27617188 0.08570313 6.93359375 0.09765625 C6.93359375 1.08765625 6.93359375 2.07765625 6.93359375 3.09765625 C4.95359375 3.09765625 2.97359375 3.09765625 0.93359375 3.09765625 C0.93359375 4.41765625 0.93359375 5.73765625 0.93359375 7.09765625 C2.91359375 7.09765625 4.89359375 7.09765625 6.93359375 7.09765625 C6.93359375 8.08765625 6.93359375 9.07765625 6.93359375 10.09765625 C4.95359375 10.09765625 2.97359375 10.09765625 0.93359375 10.09765625 C0.93359375 11.74765625 0.93359375 13.39765625 0.93359375 15.09765625 C3.24359375 15.09765625 5.55359375 15.09765625 7.93359375 15.09765625 C7.93359375 16.08765625 7.93359375 17.07765625 7.93359375 18.09765625 C4.30359375 18.09765625 0.67359375 18.09765625 -3.06640625 18.09765625 C-3.09324937 15.28509344 -3.11316813 12.47278384 -3.12890625 9.66015625 C-3.13728516 8.85771484 -3.14566406 8.05527344 -3.15429688 7.22851562 C-3.16292055 5.18470404 -3.11868775 3.14081723 -3.06640625 1.09765625 C-2.06640625 0.09765625 -2.06640625 0.09765625 0 0 Z " fill="#FFFFFF" transform="translate(566.06640625,174.90234375)"/>
<path d="M0 0 C2.97 0 5.94 0 9 0 C9.33 0.99 9.66 1.98 10 3 C8.02 3 6.04 3 4 3 C4 4.32 4 5.64 4 7 C5.98 7 7.96 7 10 7 C10 7.99 10 8.98 10 10 C8.02 10 6.04 10 4 10 C4 11.65 4 13.3 4 15 C6.31 15 8.62 15 11 15 C11 15.99 11 16.98 11 18 C7.37 18 3.74 18 0 18 C0 12.06 0 6.12 0 0 Z " fill="#FFFFFF" transform="translate(501,175)"/>
<path d="M0 0 C0 1.32 0 2.64 0 4 C-0.94875 3.979375 -1.8975 3.95875 -2.875 3.9375 C-5.90666283 3.77448174 -5.90666283 3.77448174 -8 5 C-8.25015873 8.41642759 -8.25015873 8.41642759 -8 12 C-4.5647952 14.29013653 -3.014669 14.17842973 1 14 C1 14.99 1 15.98 1 17 C-1.82001327 18.41000664 -3.87007255 18.24548451 -7 18 C-9.77835049 16.73711341 -11.49102772 15.6477829 -13.375 13.25 C-14.32835544 9.81792041 -13.91654656 7.42177384 -13 4 C-9.07778052 -0.6353503 -5.67376296 -0.3846619 0 0 Z " fill="#FFFFFF" transform="translate(39,174)"/>
<path d="M0 0 C0.66 0.33 1.32 0.66 2 1 C1.67 1.99 1.34 2.98 1 4 C-0.3921875 3.9071875 -0.3921875 3.9071875 -1.8125 3.8125 C-4.91254753 3.75470649 -4.91254753 3.75470649 -6.9375 5.125 C-8.53943488 7.95194391 -7.79584319 9.94926777 -7 13 C-5.81575674 14.41577477 -5.81575674 14.41577477 -2.4375 14.0625 C-0.7359375 14.0315625 -0.7359375 14.0315625 1 14 C1 15.32 1 16.64 1 18 C-6.76785714 18.66964286 -6.76785714 18.66964286 -10.5 15.9375 C-13 13 -13 13 -13.625 9.5 C-12.91229391 5.50884592 -11.88710836 3.80461955 -9 1 C-5.77390955 -0.07536348 -3.37822416 -0.14375422 0 0 Z " fill="#FFFFFF" transform="translate(391,175)"/>
<path d="M0 0 C1.65 0 3.3 0 5 0 C5.99 1.98 6.98 3.96 8 6 C8.99 4.02 9.98 2.04 11 0 C12.32 0 13.64 0 15 0 C14.0113007 2.66188274 13.03251061 4.9518843 11.4375 7.3125 C9.50889664 10.91814977 9.34427931 13.93750416 9 18 C7.68 17.67 6.36 17.34 5 17 C4.89042969 16.33613281 4.78085937 15.67226562 4.66796875 14.98828125 C3.77839831 10.03416944 2.89625691 6.21273732 0 2 C0 1.34 0 0.68 0 0 Z " fill="#FFFFFF" transform="translate(257,174)"/>
<path d="M0 0 C4.95 0 9.9 0 15 0 C15 0.99 15 1.98 15 3 C13.02 3 11.04 3 9 3 C9 7.95 9 12.9 9 18 C7.68 17.67 6.36 17.34 5 17 C5 12.38 5 7.76 5 3 C3.35 3 1.7 3 0 3 C0 2.01 0 1.02 0 0 Z " fill="#FFFFFF" transform="translate(231,174)"/>
<path d="M0 0 C0.99 0 1.98 0 3 0 C3 4.95 3 9.9 3 15 C5.31 15 7.62 15 10 15 C10 15.99 10 16.98 10 18 C6.37 18 2.74 18 -1 18 C-1.02684312 15.18743719 -1.04676188 12.37512759 -1.0625 9.5625 C-1.07087891 8.76005859 -1.07925781 7.95761719 -1.08789062 7.13085938 C-1.0965143 5.08704779 -1.0522815 3.04316098 -1 1 C-0.67 0.67 -0.34 0.34 0 0 Z " fill="#FFFFFF" transform="translate(446,175)"/>
<path d="M0 0 C0.99 0.33 1.98 0.66 3 1 C3 5.62 3 10.24 3 15 C5.31 15 7.62 15 10 15 C10 15.99 10 16.98 10 18 C6.37 18 2.74 18 -1 18 C-1.02684312 15.18743719 -1.04676188 12.37512759 -1.0625 9.5625 C-1.07087891 8.76005859 -1.07925781 7.95761719 -1.08789062 7.13085938 C-1.0965143 5.08704779 -1.0522815 3.04316098 -1 1 C-0.67 0.67 -0.34 0.34 0 0 Z " fill="#FFFFFF" transform="translate(474,175)"/>
<path d="M0 0 C1.32 0 2.64 0 4 0 C4 5.94 4 11.88 4 18 C2.68 18 1.36 18 0 18 C0 12.06 0 6.12 0 0 Z " fill="#FFFFFF" transform="translate(214,174)"/>
</svg>
