<?xml version="1.0" encoding="UTF-8"?>
<svg version="1.1" xmlns="http://www.w3.org/2000/svg" width="2080" height="1751">
<path d="M0 0 C243.54 0 487.08 0 738 0 C735.72551183 4.54897634 732.99937471 8.56508344 730.125 12.75 C729.54564697 13.59546387 728.96629395 14.44092773 728.36938477 15.31201172 C724.20472741 21.34858428 719.88562589 27.2447923 715.44946289 33.08349609 C711.36424637 38.47193487 707.45075235 43.96745264 703.57006836 49.50439453 C699.92453568 54.70248968 696.22681573 59.85990837 692.5 65 C688.29295866 70.80552965 684.12395967 76.63516062 680 82.5 C675.28962914 89.19782638 670.51683279 95.84807447 665.71484375 102.48046875 C662.46049295 106.97568712 659.22002572 111.48013532 656 116 C652.23243835 121.28842633 648.43292858 126.55307864 644.625 131.8125 C639.87461056 138.37626995 635.18049019 144.97690434 630.52001953 151.60473633 C626.88581742 156.76520797 623.20335941 161.88897911 619.5 167 C615.27728458 172.82969497 611.08383982 178.67820956 606.9375 184.5625 C606.50026383 185.14496917 606.06302766 185.72743835 605.61254191 186.3275581 C602.95911193 189.93721825 600.77602968 193.27854366 599.17590714 197.47487545 C596.83909055 202.87349618 594.12340806 206.93066957 589 210 C577.34406874 213.15362714 564.67172811 212.19141352 552.7091381 211.9732364 C547.57811198 211.89876214 542.44737127 211.92385986 537.3159523 211.93614101 C527.36411085 211.94516385 517.41488617 211.86683227 507.4637164 211.75761842 C495.9483743 211.63503081 484.43459521 211.62169874 472.91845703 211.60827637 C442.5285577 211.51908449 412.13923935 211.28174425 381.75 211.0625 C313.8525 210.711875 245.955 210.36125 176 210 C176 398.43 176 586.86 176 781 C284.9 781 393.8 781 506 781 C506.66 774.07 507.32 767.14 508 760 C508.81781942 753.88198149 509.66883707 747.78347384 510.625 741.6875 C510.75249634 740.86772675 510.87999268 740.04795349 511.01135254 739.20333862 C524.40334552 653.61010228 550.52079035 571.27162955 608.51416016 452.64355469 C610.05781422 449.89713895 611.58241996 447.14070166 613.10546875 444.3828125 C633.80484237 407.09156249 657.93429117 371.72440311 684 338 C684.53044922 337.31212402 685.06089844 336.62424805 685.60742188 335.91552734 C691.35207633 328.479137 697.27709196 321.22837555 703.3828125 314.0859375 C705.80691756 311.24394435 708.15731399 308.34709935 710.5 305.4375 C714.55825768 300.44831582 718.84515566 295.72329385 723.2265625 291.01953125 C725.34457182 288.73597371 727.40349552 286.40710542 729.44921875 284.05859375 C739.93515684 272.03352649 751.17158809 260.72551447 762.4375 249.4375 C763.35189346 248.51922424 763.35189346 248.51922424 764.28475952 247.58239746 C776.02393708 235.80395315 776.02393708 235.80395315 782.27124023 230.48364258 C785.20915015 227.96229269 787.99682125 225.28097869 790.8125 222.625 C795.75748862 217.99727689 800.81227238 213.60172182 806.1015625 209.3671875 C809.5753339 206.53011813 812.93998768 203.5809407 816.3125 200.625 C822.7021366 195.05283859 829.23704526 189.72889255 835.9609375 184.56640625 C837.42154899 183.44436562 838.87959187 182.3189782 840.3359375 181.19140625 C921.07187474 118.69022119 1011.82816781 71.86686995 1318 1 C1318.95431915 0.93644821 1318.95431915 0.93644821 1319.92791748 0.87161255 C1335.64779831 -0.16111898 1351.37475901 -0.18754919 1367.12109375 -0.18530273 C1370.09869556 -0.18522218 1373.07614116 -0.19206703 1376.05371094 -0.20581055 C1404.33523674 -0.33405296 1432.48059911 0.83184916 1460.625 3.75 C1461.83947815 3.87355362 1461.83947815 3.87355362 1463.07849121 3.99960327 C1544.60390501 12.36808656 1625.05806332 32.39491129 1761 91 C1762.31556885 91.63736084 1762.31556885 91.63736084 1763.65771484 92.28759766 C1791.93742529 105.99551494 1819.53111183 122.06211285 1845.70019531 139.47314453 C1848.39484776 141.26214203 1851.10001981 143.03477597 1853.8046875 144.80859375 C1864.90365277 152.11571066 1875.78859243 159.58364427 1886.30957031 167.70214844 C1888.89259183 169.68530014 1891.51080535 171.62072287 1894.125 173.5625 C1914.5144744 188.86834534 1934.40684598 204.97178048 1953.0859375 222.33203125 C1955.33734304 224.39330469 1957.60847113 226.41407054 1959.91015625 228.41796875 C1971.05435546 238.1376326 1981.5974594 248.49776405 1992.0625 258.9375 C1992.80138962 259.67250732 1992.80138962 259.67250732 1993.5552063 260.42236328 C1998.66500957 265.5109499 2003.67154539 270.64251353 2008.3659668 276.12084961 C2011.2617471 279.45101859 2014.33328378 282.61621381 2017.375 285.8125 C2022.48096238 291.21431485 2027.33733848 296.68871977 2031.96875 302.50390625 C2034.02216169 305.02723331 2036.17188057 307.41932273 2038.375 309.8125 C2043.43394507 315.37206984 2048.01001203 321.26626511 2052.60595703 327.20751953 C2053.9436021 328.92748277 2055.29458922 330.63572841 2056.65234375 332.33984375 C2062.10314877 339.18718572 2067.4317783 346.12689591 2072.6875 353.125 C2073.31245361 353.94315186 2073.93740723 354.76130371 2074.58129883 355.60424805 C2075.1564624 356.37679932 2075.73162598 357.14935059 2076.32421875 357.9453125 C2076.84072998 358.63125488 2077.35724121 359.31719727 2077.8894043 360.02392578 C2079 362 2079 362 2079 366 C2077.56982422 367.58056641 2077.56982422 367.58056641 2075.5546875 369.1015625 C2074.81460449 369.66891113 2074.07452148 370.23625977 2073.31201172 370.82080078 C2072.50779785 371.41618652 2071.70358398 372.01157227 2070.875 372.625 C2070.05402832 373.24745605 2069.23305664 373.86991211 2068.38720703 374.51123047 C2063.04978224 378.53738122 2057.6443498 382.46805086 2052.17993164 386.31982422 C2047.83083546 389.3858966 2043.56128086 392.54656655 2039.3125 395.75 C2033.46228051 400.15919109 2027.58782232 404.5330484 2021.6875 408.875 C2020.49833984 409.75019287 2020.49833984 409.75019287 2019.28515625 410.64306641 C2016.04522037 413.02656528 2012.8043283 415.40876228 2009.56347656 417.79101562 C2001.3514643 423.82877474 1993.14566232 429.87289444 1985 436 C1974.35916634 444.00395456 1963.61976043 451.87428795 1952.88671875 459.75390625 C1952.04729736 460.37088379 1951.20787598 460.98786133 1950.34301758 461.62353516 C1948.75641827 462.7896676 1947.16907684 463.95479136 1945.58081055 465.11865234 C1944.85031494 465.65570801 1944.11981934 466.19276367 1943.3671875 466.74609375 C1942.65272461 467.26929199 1941.93826172 467.79249023 1941.20214844 468.33154297 C1939.63568097 469.51837653 1938.09990455 470.74619406 1936.58691406 472.00048828 C1935.79768555 472.65130371 1935.00845703 473.30211914 1934.1953125 473.97265625 C1933.48648926 474.574729 1932.77766602 475.17680176 1932.04736328 475.79711914 C1930 477 1930 477 1927.92504883 476.91992188 C1925.49254916 475.75750479 1924.54908017 474.51329627 1923.00390625 472.30859375 C1922.45178467 471.53644531 1921.89966309 470.76429688 1921.33081055 469.96875 C1920.74726807 469.1334375 1920.16372559 468.298125 1919.5625 467.4375 C1913.47547295 458.94464416 1907.1002126 450.78645636 1900.43701172 442.74121094 C1898.35496868 440.2184228 1896.30593205 437.6690823 1894.25 435.125 C1890.66068297 430.74024824 1886.92394958 426.51367393 1883.109375 422.32421875 C1881.25373343 420.27957665 1879.43243624 418.21215851 1877.625 416.125 C1868.98268744 406.23311765 1859.94821378 396.78547237 1850.64672852 387.51635742 C1848.80041754 385.67545292 1846.95957727 383.82919728 1845.11914062 381.98242188 C1839.24647708 376.10645245 1833.33548199 370.38054671 1827 365 C1825.22429779 363.38032183 1823.45291693 361.75588282 1821.6875 360.125 C1817.25368689 356.08597847 1812.71945416 352.22493122 1808.05078125 348.4609375 C1805.82711326 346.66719764 1803.61801522 344.86127617 1801.41796875 343.0390625 C1791.22861139 334.62744482 1780.72840167 326.71003951 1770 319 C1769.19546387 318.4210498 1768.39092773 317.84209961 1767.56201172 317.24560547 C1712.7792825 277.98044868 1652.66673777 247.84174184 1589 226 C1587.39294189 225.43998291 1587.39294189 225.43998291 1585.75341797 224.86865234 C1531.82461187 206.18355324 1473.96553146 195.29179605 1417 192 C1416.28955536 191.95869965 1415.57911072 191.91739929 1414.84713745 191.87484741 C1400.99909443 191.08984455 1387.1815628 190.79706786 1373.3125 190.8125 C1372.2949765 190.81310425 1371.277453 190.8137085 1370.22909546 190.81433105 C1292.52382635 190.9384766 1215.55817344 204.57076555 978 317 C977.19191895 317.58136719 976.38383789 318.16273438 975.55126953 318.76171875 C965.00326819 326.36887435 954.75661349 334.26807176 944.74121094 342.56298828 C942.2184228 344.64503132 939.6690823 346.69406795 937.125 348.75 C932.74024824 352.33931703 928.51367393 356.07605042 924.32421875 359.890625 C922.27957665 361.74626657 920.21215851 363.56756376 918.125 365.375 C908.23311765 374.01731256 898.78547237 383.05178622 889.51635742 392.35327148 C887.67545292 394.19958246 885.82919728 396.04042273 883.98242188 397.88085938 C878.10645245 403.75352292 872.38054671 409.66451801 867 416 C865.38032183 417.77570221 863.75588282 419.54708307 862.125 421.3125 C858.08597847 425.74631311 854.22493122 430.28054584 850.4609375 434.94921875 C848.66719764 437.17288674 846.86127617 439.38198478 845.0390625 441.58203125 C836.62768672 451.77184173 828.72654289 462.28369926 821 473 C820.48050781 473.71800781 819.96101562 474.43601562 819.42578125 475.17578125 C806.67417894 492.84445386 794.95687303 511.16916333 784 530 C783.46826172 530.91249512 782.93652344 531.82499023 782.38867188 532.76513672 C760.37392727 570.7711111 742.36138565 610.50966192 728 652 C727.61005859 653.12583496 727.22011719 654.25166992 726.81835938 655.41162109 C698.77236125 737.36374764 687.7790862 824.68171593 763.18505859 1182.77172852 C769.72444095 1195.98441483 776.86349872 1208.75844248 784.44824219 1221.39599609 C785.83679109 1223.72611921 787.19624841 1226.06910472 788.5390625 1228.42578125 C798.56344667 1245.96637724 810.03115097 1262.73247984 822 1279 C823.09828125 1280.49273438 823.09828125 1280.49273438 824.21875 1282.015625 C838.94057247 1301.81751297 854.54029672 1321.01216274 871.32421875 1339.10546875 C873.02857841 1340.94916292 874.72019189 1342.80478213 876.39453125 1344.67578125 C882.61497831 1351.60153884 889.11515333 1358.22136219 895.6875 1364.8125 C896.57872559 1365.70831787 897.46995117 1366.60413574 898.38818359 1367.52709961 C902.87271529 1372.00119828 907.41265984 1376.33832477 912.21948242 1380.46459961 C914.81411861 1382.70204195 917.30547758 1385.03978751 919.8125 1387.375 C924.45904128 1391.66751208 929.2409924 1395.73338031 934.171875 1399.69921875 C936.67816576 1401.73817628 939.13594318 1403.823751 941.58300781 1405.93310547 C949.43596744 1412.68435652 957.65184111 1418.87763006 966 1425 C966.68658691 1425.50756836 967.37317383 1426.01513672 968.08056641 1426.53808594 C986.72860978 1440.31443119 1006.02048311 1453.23284298 1026 1465 C1026.78310547 1465.46293457 1027.56621094 1465.92586914 1028.37304688 1466.40283203 C1043.28202608 1475.17683153 1058.56162258 1483.201664 1074 1491 C1074.93972656 1491.47791992 1075.87945313 1491.95583984 1076.84765625 1492.44824219 C1148.67408869 1528.75352409 1229.26545763 1549.71991096 1385 1560 C1386.52947266 1559.97099609 1386.52947266 1559.97099609 1388.08984375 1559.94140625 C1471.16735731 1558.21274318 1553.82827962 1540.84820541 1679 1487 C1680.10102051 1486.44812012 1681.20204102 1485.89624023 1682.33642578 1485.32763672 C1709.72357782 1471.52129731 1735.91575883 1455.63962979 1761 1438 C1761.58555664 1437.59072266 1762.17111328 1437.18144531 1762.77441406 1436.75976562 C1786.74167272 1419.98943591 1809.66442994 1401.56891955 1831.109375 1381.671875 C1832.9396556 1379.98010212 1834.78204074 1378.30125354 1836.640625 1376.640625 C1843.75609024 1370.25703618 1850.54640174 1363.56170465 1857.3125 1356.8125 C1857.78862732 1356.33896088 1858.26475464 1355.86542175 1858.75531006 1355.37753296 C1863.85040454 1350.30428934 1868.83247196 1345.19107314 1873.51342773 1339.73168945 C1875.57561888 1337.32946877 1877.72686543 1335.01283759 1879.875 1332.6875 C1884.32688655 1327.80112002 1888.5330313 1322.76464457 1892.68066406 1317.61962891 C1894.15464863 1315.81015192 1895.64990254 1314.01966395 1897.1484375 1312.23046875 C1907.66740893 1299.64103463 1918.05556887 1286.77264396 1927 1273 C1929.73567359 1274.30042413 1932.17285014 1275.73619269 1934.625 1277.51171875 C1935.66901978 1278.26569946 1935.66901978 1278.26569946 1936.73413086 1279.03491211 C1937.48186768 1279.58026611 1938.22960449 1280.12562012 1939 1280.6875 C1939.78963135 1281.26056885 1940.5792627 1281.8336377 1941.39282227 1282.42407227 C1948.13136808 1287.33090888 1954.80305046 1292.32517049 1961.46264648 1297.33837891 C1967.1397904 1301.61116805 1972.83929168 1305.85161758 1978.5625 1310.0625 C1979.73329102 1310.92391602 1979.73329102 1310.92391602 1980.92773438 1311.80273438 C1983.28466355 1313.53582787 1985.64220639 1315.26808275 1988 1317 C1998.5450669 1324.74587868 2009.05819043 1332.53016254 2019.51708984 1340.39208984 C2027.51421068 1346.39809714 2035.56376371 1352.33139671 2043.62353516 1358.25292969 C2046.86151824 1360.63334955 2050.09599478 1363.01851219 2053.33056641 1365.40356445 C2062.20962204 1371.95041203 2071.10016336 1378.48143505 2080 1385 C2078.75137487 1388.3977828 2077.34778645 1391.17270987 2075.19921875 1394.08203125 C2074.64057129 1394.84136963 2074.08192383 1395.60070801 2073.50634766 1396.38305664 C2072.90612793 1397.18477295 2072.3059082 1397.98648926 2071.6875 1398.8125 C2070.75623291 1400.0663147 2070.75623291 1400.0663147 2069.80615234 1401.34545898 C2064.20068355 1408.83906326 2058.340769 1416.10653457 2052.38085938 1423.31933594 C2050.51780455 1425.5868871 2048.69562664 1427.88581347 2046.875 1430.1875 C2042.51308493 1435.65358186 2037.9880642 1440.97836775 2033.44873047 1446.296875 C2032.02262688 1447.97339988 2030.6061717 1449.65765292 2029.19140625 1451.34375 C2021.79375958 1460.12085509 2014.00241947 1468.48182508 2006.09082031 1476.79589844 C2003.97620959 1479.02507938 2001.87306625 1481.26451984 1999.7734375 1483.5078125 C1981.19559325 1503.35588102 1981.19559325 1503.35588102 1971.99609375 1511.22265625 C1969.73867374 1513.23268777 1967.62264287 1515.34832953 1965.5 1517.5 C1962.16879193 1520.87100065 1958.74888372 1524.0451403 1955.15234375 1527.12890625 C1952.61947838 1529.33079829 1950.15667478 1531.60195826 1947.6875 1533.875 C1943.19851943 1537.96880209 1938.58756524 1541.85469667 1933.859375 1545.66796875 C1931.36180224 1547.70492358 1928.90746921 1549.78357627 1926.46435547 1551.88525391 C1918.87669344 1558.40061961 1910.97323442 1564.45719923 1902.99560547 1570.48486328 C1901.20805895 1571.84203403 1899.43098692 1573.2109756 1897.66015625 1574.58984375 C1828.59510372 1628.32646092 1749.33881953 1670.97501497 1422 1750 C1420.91638184 1750.07202637 1419.83276367 1750.14405273 1418.71630859 1750.21826172 C1333.92772313 1755.55737926 1247.43334147 1746.43403847 950 1642 C948.96294922 1641.4136377 947.92589844 1640.82727539 946.85742188 1640.22314453 C909.52001474 1619.07078748 873.94714897 1595.23786988 840 1569 C839.31212402 1568.46955078 838.62424805 1567.93910156 837.91552734 1567.39257812 C830.47621975 1561.64567008 823.2222867 1555.71878237 816.078125 1549.609375 C813.28333811 1547.22527908 810.42948955 1544.92194485 807.5625 1542.625 C801.880027 1538.00591376 796.56947021 1533.02540953 791.234375 1528.015625 C788.72371122 1525.6616963 786.17162129 1523.37005786 783.5625 1521.125 C780.51133843 1518.49491169 777.68254149 1515.70600182 774.86328125 1512.83081055 C773.11324949 1511.11127593 771.31121366 1509.52078184 769.44140625 1507.93359375 C764.20528754 1503.37924251 759.33211148 1498.47807341 754.4375 1493.5625 C753.53064453 1492.65951172 752.62378906 1491.75652344 751.68945312 1490.82617188 C747.12643392 1486.25653481 742.68603404 1481.64468007 738.50610352 1476.72045898 C736.90991284 1474.89709123 735.22995374 1473.19628129 733.5 1471.5 C730.46405075 1468.51127663 727.65491341 1465.38293521 724.875 1462.15625 C722.82640906 1459.80037042 720.72796998 1457.4949254 718.625 1455.1875 C714.72636603 1450.86739209 711.02496142 1446.41928619 707.3671875 1441.89453125 C705.31640969 1439.386897 703.22646202 1436.91978895 701.11401367 1434.46411133 C694.69593309 1426.98688088 688.7216001 1419.21103951 682.78613281 1411.34814453 C680.93499753 1408.91454431 679.06019205 1406.50080768 677.1796875 1404.08984375 C668.47010409 1392.87724752 660.39566373 1381.3678729 652.62109375 1369.48828125 C650.26860036 1365.89401913 647.86337175 1362.34967271 645.38671875 1358.83984375 C642.24951014 1354.38897577 639.27162874 1349.86044644 636.375 1345.25 C635.86557861 1344.43982422 635.35615723 1343.62964844 634.83129883 1342.79492188 C628.69313977 1332.97686298 622.78516062 1323.02959976 617 1313 C616.43474609 1312.02192383 615.86949219 1311.04384766 615.28710938 1310.03613281 C597.49859948 1279.08093126 581.66950528 1246.97889834 568 1214 C567.73697083 1213.36928589 567.47394165 1212.73857178 567.20294189 1212.08874512 C551.77038566 1175.0671725 538.84830215 1136.88236031 529 1098 C528.79308533 1097.18633972 528.58617065 1096.37267944 528.37298584 1095.53436279 C518.90928788 1058.22498519 512.07607003 1020.83475445 507.06640625 982.6796875 C506.95742508 981.85861511 506.84844391 981.03754272 506.73616028 980.19158936 C506.29319357 976.75282344 506 973.47381016 506 970 C397.1 970 288.2 970 176 970 C176.15082031 1016.95023438 176.30164063 1063.90046875 176.45703125 1112.2734375 C176.5194591 1140.17073188 176.58100476 1168.06797187 176.62614453 1195.96529078 C176.65268048 1212.32372497 176.67982361 1228.68215797 176.70883792 1245.04058798 C176.71234585 1247.01928853 176.71583467 1248.99798912 176.71930415 1250.97668974 C176.77478184 1282.52611071 176.87233709 1314.07522898 176.99186387 1345.62446695 C177.11447704 1378.04722031 177.19450819 1410.46980626 177.22089487 1442.89278755 C177.22464093 1447.4713785 177.22887421 1452.04996888 177.23340416 1456.62855911 C177.23428066 1457.529699 177.23515716 1458.43083888 177.23606022 1459.35928603 C177.2514279 1473.87038941 177.3117361 1488.38097543 177.38881644 1502.89186775 C177.46533462 1517.47724841 177.49458821 1532.06211573 177.47551791 1546.6476901 C177.46562326 1555.31573109 177.49204424 1563.98189461 177.57036806 1572.64959683 C177.61912175 1578.44012219 177.62062886 1584.22941847 177.58381358 1590.02002873 C177.56418091 1593.32039353 177.57219069 1596.6164947 177.62348137 1599.91662233 C177.92529357 1620.5313758 177.92529357 1620.5313758 173.16858041 1625.68859792 C170.07185924 1628.35957428 166.65633115 1630.17780822 163 1632 C161.38955092 1633.14867972 159.79711356 1634.32408464 158.2421875 1635.546875 C156.78749824 1636.61599972 155.33175992 1637.68369844 153.875 1638.75 C152.23695109 1639.95308677 150.59893109 1641.15621291 148.9609375 1642.359375 C148.13948242 1642.96201172 147.31802734 1643.56464844 146.47167969 1644.18554688 C142.47696245 1647.1180576 138.488791 1650.05943672 134.5 1653 C132.91798091 1654.16538109 131.33594965 1655.33074565 129.75390625 1656.49609375 C126.57249389 1658.84012017 123.39299384 1661.18670882 120.21484375 1663.53515625 C112.44399909 1669.27423642 104.65500166 1674.98413928 96.8125 1680.625 C90.52140061 1685.15170536 84.2913639 1689.7503164 78.10205078 1694.41503906 C70.5867322 1700.07602442 63.00388079 1705.64460722 55.42333984 1711.21777344 C52.23642571 1713.56156481 49.05169203 1715.90830731 45.8671875 1718.25537109 C44.29052811 1719.41737687 42.71370547 1720.57916116 41.13671875 1721.74072266 C37.11352581 1724.70417604 33.09225608 1727.67018428 29.07421875 1730.640625 C21.70103811 1736.08883855 14.32130244 1741.526945 6.875 1746.875 C6.28871826 1747.29813477 5.70243652 1747.72126953 5.09838867 1748.15722656 C1.1191107 1751 1.1191107 1751 0 1751 C0 1173.17 0 595.34 0 0 Z " fill="#FFFFFF" transform="translate(0,0)"/>
<path d="M0 0 C1.30453125 0.17692383 2.6090625 0.35384766 3.953125 0.53613281 C97.44886189 13.30909488 187.33986018 51.66140707 259.02734375 113.46484375 C261.78346419 115.81533279 264.59609179 118.0666708 267.4375 120.3125 C272.64422536 124.53725523 277.31215727 129.19748371 282.00390625 133.97436523 C285.05260436 137.0741848 288.11308009 140.06599403 291.4375 142.875 C294.71540616 145.65182496 297.45360459 148.70171176 300.2265625 151.9765625 C302.02461917 154.02808972 303.9157426 155.91519541 305.875 157.8125 C309.84803372 161.72417412 313.31081794 165.95506726 316.796875 170.30078125 C318.71607528 172.65214188 320.6951334 174.89313859 322.75 177.125 C331.64284707 187.01584193 339.55811412 197.9860089 347 209 C345.61839226 212.2574919 344.18026874 213.90773314 341.31640625 215.9609375 C340.56367432 216.50741943 339.81094238 217.05390137 339.03540039 217.61694336 C338.21934326 218.19710205 337.40328613 218.77726074 336.5625 219.375 C334.8227829 220.63392976 333.0832033 221.89304953 331.34375 223.15234375 C330.45300781 223.79284668 329.56226563 224.43334961 328.64453125 225.09326172 C324.59582554 228.01242638 320.57873834 230.97390647 316.5625 233.9375 C315.78269775 234.51161621 315.00289551 235.08573242 314.19946289 235.67724609 C308.44259433 239.92014256 302.71650112 244.20292108 297 248.5 C286.6018981 256.31622597 276.12921674 264.02868401 265.64550781 271.72949219 C256.73239153 278.2785826 247.84132466 284.85420661 239 291.5 C230.10428477 298.18500217 221.17465109 304.82134042 212.19238281 311.38964844 C210.05478474 312.95975945 207.92903748 314.54484324 205.8046875 316.1328125 C204.53679076 317.06815912 203.26858147 318.00308227 202 318.9375 C201.14559326 319.58489136 201.14559326 319.58489136 200.27392578 320.24536133 C198.6875 321.40234375 198.6875 321.40234375 196 323 C192.00919773 321.66973258 190.74811203 319.09450375 188.5 315.75 C183.42675403 308.42856546 177.86513888 301.69552367 172 295 C171.33097656 294.21882813 170.66195312 293.43765625 169.97265625 292.6328125 C158.76490751 279.80493375 146.58628113 267.30168569 133 257 C131.71760508 255.99103683 130.43645769 254.98048695 129.15625 253.96875 C82.98297826 217.73909018 27.33905627 195.31349993 -31 189 C-31.78568359 188.9057373 -32.57136719 188.81147461 -33.38085938 188.71435547 C-110.91195091 180.33464159 -191.98255869 204.96465902 -253 253 C-253.55026855 253.42861328 -254.10053711 253.85722656 -254.66748047 254.29882812 C-272.9194769 268.57124272 -291.09379724 285.44077122 -305 304 C-305.93396196 305.20645269 -306.86893754 306.41212109 -307.8046875 307.6171875 C-338.97102031 348.08982036 -359.38846448 394.87689938 -369 445 C-369.16725586 445.86431641 -369.33451172 446.72863281 -369.50683594 447.61914062 C-383.98322718 525.01335275 -365.18681245 609.25864028 -321.41357422 674.359375 C-310.48749383 690.20834102 -298.36072233 705.14474138 -285 719 C-284.43635742 719.58555664 -283.87271484 720.17111328 -283.29199219 720.77441406 C-275.91265079 728.39823944 -268.35926989 735.44570067 -260 742 C-258.83528009 742.95203486 -257.67263933 743.90661713 -256.51171875 744.86328125 C-248.02253447 751.82621976 -239.28280729 758.13911928 -230 764 C-229.42378906 764.36657715 -228.84757812 764.7331543 -228.25390625 765.11083984 C-159.0453007 808.83702515 -74.04161722 823.76958728 5.89892578 805.74316406 C15.0506138 803.54998674 24.04024169 800.86901224 33 798 C34.28632324 797.59442871 34.28632324 797.59442871 35.59863281 797.18066406 C62.09186043 788.73549552 88.33954609 776.17695798 111 760 C112.14659231 759.20104293 113.29375975 758.40291081 114.44140625 757.60546875 C121.90501907 752.38579153 129.03975743 746.88053735 136 741 C137.06473287 740.1219454 138.12985426 739.24436177 139.1953125 738.3671875 C151.77722832 727.90857206 163.86223603 716.50762499 173.9609375 703.6015625 C176.24860309 700.68281675 178.65218262 697.88060521 181.0625 695.0625 C185.86861858 689.32373869 189.98969757 683.31790663 194 677 C196.86253357 678.34716818 199.34286804 679.87773056 201.87890625 681.765625 C202.62551514 682.31879395 203.37212402 682.87196289 204.14135742 683.44189453 C204.94033447 684.03856934 205.73931152 684.63524414 206.5625 685.25 C208.27856558 686.52354564 209.99471374 687.79698002 211.7109375 689.0703125 C212.5884668 689.72290039 213.46599609 690.37548828 214.37011719 691.04785156 C217.67585365 693.50168268 220.99270177 695.94017746 224.31030273 698.37792969 C231.55327636 703.70099832 238.76541623 709.0625857 245.94873047 714.46582031 C254.25368527 720.70534748 262.63034487 726.84771643 271 733 C280.67996043 740.11544987 290.34775864 747.24404195 299.94873047 754.46582031 C307.42865755 760.08550269 314.96841488 765.62355776 322.50634766 771.16503906 C325.11419821 773.08403307 327.71951098 775.00643017 330.32421875 776.9296875 C331.6239563 777.8889917 331.6239563 777.8889917 332.94995117 778.86767578 C334.61582763 780.0973462 336.28136973 781.32746974 337.9465332 782.55810547 C338.69636475 783.11127441 339.44619629 783.66444336 340.21875 784.234375 C340.87810547 784.72131836 341.53746094 785.20826172 342.21679688 785.70996094 C343.78467986 786.84422897 345.38985454 787.92656969 347 789 C346.40436799 793.09000646 344.1275919 795.99809148 341.75 799.25 C341.30962402 799.8584375 340.86924805 800.466875 340.41552734 801.09375 C324.48957767 822.83656579 306.25236971 842.81475696 287.25 861.875 C286.75422455 862.37345428 286.2584491 862.87190857 285.74765015 863.38546753 C280.01214278 869.14446405 274.1948713 874.73444419 268 880 C266.91668594 880.94905855 265.83460466 881.89952656 264.75390625 882.8515625 C255.81121147 890.65207426 246.52386899 897.92410877 237 905 C236.26201172 905.54833496 235.52402344 906.09666992 234.76367188 906.66162109 C224.11278502 914.53874311 213.26347094 922.02509082 202 929 C200.80310547 929.7415332 200.80310547 929.7415332 199.58203125 930.49804688 C121.08944868 978.74968872 30.88712651 1004.1974992 -61.25 1004.25 C-62.32281219 1004.25067474 -63.39562439 1004.25134949 -64.50094604 1004.25204468 C-161.35030969 1004.15602895 -257.30778441 975.70782225 -371 898 C-372.39153129 896.89273158 -373.78347126 895.7859766 -375.17578125 894.6796875 C-382.11332086 889.13526676 -388.87314724 883.46677412 -395.375 877.4140625 C-396.76937092 876.13173924 -398.17018939 874.85520894 -399.61303711 873.62768555 C-405.98282609 868.20349741 -411.85330771 862.29792465 -417.75463867 856.37573242 C-419.55862085 854.56639067 -421.36788665 852.76245681 -423.17773438 850.95898438 C-428.99759646 845.1427776 -434.70449464 839.3050503 -440 833 C-440.87655981 831.98997812 -441.75411275 830.98081698 -442.6328125 829.97265625 C-450.10882003 821.24283555 -457.10133869 812.19031036 -464 803 C-464.7115625 802.06051514 -464.7115625 802.06051514 -465.4375 801.10205078 C-514.57349327 736.17483808 -546.58633863 657.65982907 -561.3125 555.5625 C-561.39399292 554.80997955 -561.47548584 554.05745911 -561.55944824 553.28213501 C-563.40308771 535.95435109 -564.21102059 518.67287544 -564.1875 501.25 C-564.18689575 500.40927948 -564.1862915 499.56855896 -564.18566895 498.70236206 C-564.03313499 419.66838102 -545.42913611 342.6746421 -510 272 C-509.51418457 271.02579102 -509.02836914 270.05158203 -508.52783203 269.04785156 C-498.20379566 248.45496913 -486.46750159 228.69695115 -473 210 C-472.1642041 208.83960205 -472.1642041 208.83960205 -471.31152344 207.65576172 C-464.47657115 198.20590824 -457.53771756 188.90334312 -450 180 C-449.13096145 178.95748863 -448.26250152 177.91449472 -447.39453125 176.87109375 C-441.57972323 169.90780942 -435.57382861 163.15575954 -429.39599609 156.51367188 C-427.99576971 154.99541312 -426.61514835 153.46132598 -425.23828125 151.921875 C-416.98719376 142.74799658 -408.07811089 134.34803671 -399 126 C-398.03578125 125.10925781 -397.0715625 124.21851563 -396.078125 123.30078125 C-390.23582881 117.97015112 -384.17316571 112.94179448 -378 108 C-377.4848584 107.58524414 -376.9697168 107.17048828 -376.43896484 106.74316406 C-304.94872454 49.28291044 -219.74796238 12.94011028 -125 0 C-123.24042969 -0.24991699 -123.24042969 -0.24991699 -121.4453125 -0.50488281 C-82.13844727 -5.88617984 -39.25780507 -5.57590253 0 0 Z " fill="#FFFFFF" transform="translate(1435,375)"/>
</svg>
