<?xml version="1.0" encoding="UTF-8"?>
<svg version="1.1" xmlns="http://www.w3.org/2000/svg" width="1892" height="958">
<path d="M0 0 C17.82 0 35.64 0 54 0 C60.93 9.405 60.93 9.405 68 19 C73.29822941 25.83229431 73.29822941 25.83229431 78.6171875 32.6484375 C82.39671348 37.48994337 86.07785829 42.4021833 89.75146484 47.32421875 C93.51895363 52.36926862 97.34486362 57.36644325 101.19140625 62.3515625 C110.09064399 73.89669636 118.90064052 85.50977145 127.625 97.1875 C132.97809343 104.35090975 138.42275366 111.43506816 143.9309082 118.47973633 C148.69525173 124.5822949 153.36050231 130.75440886 157.98828125 136.9609375 C161.98100841 142.31564552 165.99234276 147.65645702 170 153 C170.495 77.265 170.495 77.265 171 0 C189.81 0 208.62 0 228 0 C228 84.48 228 168.96 228 256 C211.83 256 195.66 256 179 256 C162.95404412 235.36948529 162.95404412 235.36948529 157.125 227.6875 C155.77346328 225.91013664 154.4219 224.13279349 153.0703125 222.35546875 C152.39774414 221.47036621 151.72517578 220.58526367 151.03222656 219.67333984 C147.69196774 215.27931844 144.34571399 210.88986818 141 206.5 C139.66663724 204.75002242 138.33330392 203.00002241 137 201.25 C136.34 200.38375 135.68 199.5175 135 198.625 C133 196 131 193.375 129 190.75 C128.33991943 189.88366943 127.67983887 189.01733887 126.99975586 188.12475586 C125.66713824 186.37564439 124.33461862 184.62645825 123.00219727 182.87719727 C119.65871529 178.4879836 116.31351262 174.10010178 112.96484375 169.71484375 C106.39620884 161.10912069 99.8546811 152.4854463 93.375 143.8125 C88.02689977 136.65579242 82.58764211 129.57800034 77.08447266 122.54003906 C73.08692406 117.4197893 69.14680964 112.2598276 65.25 107.0625 C64.74831299 106.39379883 64.24662598 105.72509766 63.72973633 105.03613281 C61.75526901 102.39342129 59.83031035 99.74546552 58 97 C57.67 149.47 57.34 201.94 57 256 C38.19 256 19.38 256 0 256 C0 171.52 0 87.04 0 0 Z " fill="#FFFFFF" transform="translate(1273,410)"/>
<path d="M0 0 C127.06453509 0 127.06453509 0 144.875 5.5625 C145.68469238 5.81225586 146.49438477 6.06201172 147.32861328 6.31933594 C179.48534392 16.74021317 206.32227901 38.11910315 222.23828125 68.11328125 C231.61742273 86.665596 235.43628463 106.29408324 235.375 127 C235.37412384 127.72544006 235.37324768 128.45088013 235.37234497 129.19830322 C235.23663253 163.36121075 222.79974659 193.61598491 199.125 218.25 C145.74694284 269.45277583 68.13698069 256 0 256 C0 171.52 0 87.04 0 0 Z M57 51 C57 101.49 57 151.98 57 204 C111.13852174 206.2611051 111.13852174 206.2611051 155.58203125 182.57421875 C170.42704799 166.76991175 176.42076133 146.283731 176.21484375 124.9140625 C175.06242361 103.91906283 167.77840164 86.08468975 153 71 C152.40832031 70.37222656 151.81664062 69.74445313 151.20703125 69.09765625 C127.08186186 45.61156419 86.05619881 51 57 51 Z " fill="#FFFFFF" transform="translate(841,410)"/>
<path d="M0 0 C-1.54444076 3.48509931 -3.62475353 6.14322337 -6.0625 9.0625 C-6.87074219 10.03574219 -7.67898438 11.00898438 -8.51171875 12.01171875 C-9.33285156 12.99785156 -10.15398437 13.98398437 -11 15 C-12.45977851 16.79048939 -13.91813592 18.58213843 -15.375 20.375 C-19.26131597 25.12873622 -23.21304059 29.82378007 -27.19482422 34.49755859 C-29.85304792 37.62217171 -32.45395788 40.78332207 -35 44 C-38.15105605 42.60802864 -40.77125746 40.74191644 -43.51513672 38.67431641 C-63.72869542 23.5354817 -87.35699079 16.11880276 -112.7265625 19.49609375 C-124.92405945 21.88961588 -135.23195418 26.31472759 -145 34 C-145.74894531 34.57234375 -146.49789063 35.1446875 -147.26953125 35.734375 C-162.90873861 48.55249942 -171.66419366 68.19732328 -174 88 C-175.49509246 112.65312028 -169.99077059 134.94517065 -153.875 154.125 C-139.82820221 169.09874383 -120.51686472 176.6568836 -100.19433594 177.40209961 C-85.06636012 177.6269414 -69.53185426 174.96409236 -56 168 C-54.86485962 167.68808716 -54.86485962 167.68808716 -53.70678711 167.36987305 C-50.68421658 166.28733495 -49.12268333 165.44000156 -47 163 C-45.67705367 156.8731073 -45.83615516 150.93929558 -45.9375 144.6875 C-45.9684375 135.9321875 -45.9684375 135.9321875 -46 127 C-64.81 127 -83.62 127 -103 127 C-103 110.83 -103 94.66 -103 78 C-66.04 78 -29.08 78 9 78 C9.226875 96.294375 9.45375 114.58875 9.6875 133.4375 C9.78764404 139.20275146 9.88778809 144.96800293 9.9909668 150.90795898 C10.04064941 157.97668457 10.04064941 157.97668457 10.04988098 161.29139709 C10.0667156 163.59457302 10.10528908 165.89765503 10.16133118 168.20021057 C10.63452403 188.67473822 10.63452403 188.67473822 6.63435364 193.46180725 C3.84070968 195.79027404 1.25689567 197.40828834 -2 199 C-3.49405519 199.98484021 -4.97962656 200.98292146 -6.44921875 202.00390625 C-7.85525867 202.86780539 -9.2681452 203.72065563 -10.6875 204.5625 C-11.45731201 205.02301758 -12.22712402 205.48353516 -13.02026367 205.95800781 C-50.95961923 228.37654088 -95.97599648 236.45794263 -139.15234375 225.78125 C-166.43356309 218.44996485 -192.23874537 203.08107195 -209 180 C-209.4017041 179.45537109 -209.8034082 178.91074219 -210.21728516 178.34960938 C-231.88605963 148.68095313 -238.43204357 111.49334379 -233.40673828 75.48925781 C-227.93066678 41.9754373 -209.86592476 11.36665959 -182.5 -8.8125 C-127.97546299 -47.84008327 -50.67905699 -42.90572795 0 0 Z " fill="#FFFFFF" transform="translate(1789,440)"/>
<path d="M0 0 C64.02 0 128.04 0 194 0 C194 16.83 194 33.66 194 51 C148.79 51 103.58 51 57 51 C57 67.5 57 84 57 101 C96.6 101 136.2 101 177 101 C177 117.83 177 134.66 177 152 C137.4 152 97.8 152 57 152 C57 169.49 57 186.98 57 205 C102.54 205 148.08 205 195 205 C195 221.83 195 238.66 195 256 C130.65 256 66.3 256 0 256 C0 171.52 0 87.04 0 0 Z " fill="#FFFFFF" transform="translate(565,410)"/>
<path d="M0 0 C64.02 0 128.04 0 194 0 C194 16.83 194 33.66 194 51 C148.79 51 103.58 51 57 51 C57 67.5 57 84 57 101 C96.6 101 136.2 101 177 101 C177 117.83 177 134.66 177 152 C137.4 152 97.8 152 57 152 C57 169.49 57 186.98 57 205 C102.54 205 148.08 205 195 205 C195 221.83 195 238.66 195 256 C130.65 256 66.3 256 0 256 C0 171.52 0 87.04 0 0 Z " fill="#FFFFFF" transform="translate(274,410)"/>
<path d="M0 0 C64.35 0 128.7 0 195 0 C195 17.16 195 34.32 195 52 C149.46 52 103.92 52 57 52 C57 69.49 57 86.98 57 105 C96.93 105 136.86 105 178 105 C178 122.16 178 139.32 178 157 C138.07 157 98.14 157 57 157 C57 189.67 57 222.34 57 256 C38.19 256 19.38 256 0 256 C0 171.52 0 87.04 0 0 Z " fill="#FFFFFF" transform="translate(0,410)"/>
<path d="M0 0 C14.85 0 29.7 0 45 0 C48.96 5.28 52.92 10.56 57 16 C59.39452949 19.11918974 61.7891893 22.23828933 64.19140625 25.3515625 C73.09064399 36.89669636 81.90064052 48.50977145 90.625 60.1875 C95.98089979 67.35466517 101.42826438 74.44266204 106.93969727 81.49072266 C111.20127754 86.94877946 115.37830738 92.46437691 119.51879883 98.01464844 C123.78788511 103.73338436 128.11614507 109.40546298 132.46118164 115.06665039 C136.00647333 119.68836297 139.50453641 124.33938188 143 129 C143.33 86.43 143.66 43.86 144 0 C159.51 0 175.02 0 191 0 C191 70.95 191 141.9 191 215 C149 215 149 215 140.25 206.625 C138.88049797 203.9856316 137.50973227 201.34322034 136.29443359 198.62939453 C134.16091189 194.29555282 131.12415917 190.76954961 128.0625 187.0625 C126.89213753 185.57814581 125.72679696 184.08981881 124.56640625 182.59765625 C123.69072998 181.47447998 123.69072998 181.47447998 122.79736328 180.32861328 C119.65209877 176.2536971 116.57773145 172.12601917 113.5 168 C108.1067333 160.77154387 102.62356174 153.62259278 97.06738281 146.51879883 C92.72367229 140.95596342 88.4698026 135.33144297 84.24829102 129.67553711 C80.49265531 124.64614778 76.6793099 119.66410601 72.84375 114.6953125 C69.12691362 109.87384112 65.43961857 105.0298092 61.75 100.1875 C61.07614258 99.30360596 60.40228516 98.41971191 59.70800781 97.5090332 C59.05670898 96.65398193 58.40541016 95.79893066 57.734375 94.91796875 C57.15913086 94.16281982 56.58388672 93.4076709 55.99121094 92.62963867 C53.31522361 89.09566865 50.65968923 85.54625231 48 82 C47.67 125.89 47.34 169.78 47 215 C31.49 215 15.98 215 0 215 C0 144.05 0 73.1 0 0 Z " fill="#FFFFFF" transform="translate(1347,739)"/>
<path d="M0 0 C0.83789062 0.66257812 1.67578125 1.32515625 2.5390625 2.0078125 C25.73885229 21.37779572 36.16762542 49.78182014 39 79 C39.29771324 83.05634296 39.29643521 86.94518976 39 91 C38.9071875 92.27617188 38.814375 93.55234375 38.71875 94.8671875 C37.21215637 111.91611065 32.40552688 127.12101247 24 142 C23.44441406 142.99644531 22.88882813 143.99289062 22.31640625 145.01953125 C7.4246094 169.98203964 -18.28754752 186.64656557 -45.98046875 194 C-47.31924733 194.33758601 -48.65901439 194.67129044 -50 195 C-51.00675781 195.2475 -52.01351562 195.495 -53.05078125 195.75 C-82.24530186 201.43878345 -114.83000828 195.85817504 -140 180 C-165.65359229 162.65063915 -182.53898135 138.25563036 -189 108 C-191.65159319 91.61043202 -191.79722081 71.98426206 -187 56 C-186.67128906 54.80503906 -186.34257812 53.61007812 -186.00390625 52.37890625 C-181.73427189 38.18126396 -174.8882734 25.08102233 -165 14 C-164.33742187 13.195625 -163.67484375 12.39125 -162.9921875 11.5625 C-123.37146657 -35.22211512 -46.2129119 -38.26799868 0 0 Z M-122 38 C-122.63808594 38.61488281 -123.27617187 39.22976563 -123.93359375 39.86328125 C-135.85071808 52.25815221 -140.70147918 70.39195289 -140.46850586 87.21118164 C-139.63841591 107.39125361 -131.74727884 124.28689219 -117 138 C-103.62181337 149.33284764 -86.74777931 153.81490679 -69.44140625 152.7890625 C-52.05500478 150.73448217 -37.18573839 142.93699988 -25.92578125 129.515625 C-13.30662089 113.03136684 -9.84112453 93.12432974 -12.26806641 72.74951172 C-15.09756163 56.32883437 -24.58098486 40.83555362 -37.8671875 30.84375 C-40.52639697 29.10531943 -43.21236233 27.52208437 -46 26 C-46.67546875 25.60296875 -47.3509375 25.2059375 -48.046875 24.796875 C-72.45572246 11.28123219 -103.17924016 19.24380537 -122 38 Z " fill="#FFFFFF" transform="translate(369,761)"/>
<path d="M0 0 C15.84 0 31.68 0 48 0 C48.01458252 3.82400391 48.02916504 7.64800781 48.04418945 11.58789062 C48.09468476 24.26852209 48.16115893 36.94902846 48.23571491 49.62953949 C48.28050174 57.31241984 48.3199548 64.9952556 48.34643555 72.67822266 C48.36955537 79.38201174 48.40310638 86.08565766 48.44870156 92.78933287 C48.47244733 96.3322578 48.49129713 99.87504262 48.49761391 103.41804504 C47.89710216 135.12123126 47.89710216 135.12123126 62.25390625 162.4765625 C73.42891244 172.2265679 86.52916983 174.06478894 100.83447266 173.21142578 C111.51700042 172.16846422 121.07694434 167.52651477 128.3125 159.625 C138.10933001 147.25717868 139.13172197 132.33531913 139.20532227 117.15820312 C139.21522186 115.88907074 139.22512146 114.61993835 139.23532104 113.31234741 C139.26218942 109.85427339 139.28329593 106.39618598 139.30332303 102.93806648 C139.32529501 99.31590503 139.35262848 95.69378401 139.37937927 92.07165527 C139.42915539 85.22249582 139.47414972 78.37331374 139.51740164 71.52411032 C139.56690348 63.72235368 139.6217733 55.92063763 139.67708123 48.11892033 C139.79066956 32.0793164 139.8968499 16.03967497 140 0 C155.84 0 171.68 0 188 0 C188.06803794 17.12602244 188.12316699 34.25192734 188.15543652 51.37804794 C188.17082611 59.33215973 188.19176185 67.28618084 188.22631836 75.24023438 C188.25646559 82.18276165 188.27563225 89.12522318 188.28226548 96.06781411 C188.28613547 99.73500743 188.2950594 103.40201285 188.31719017 107.0691452 C188.50535703 139.57297297 186.305979 170.08024146 163 195 C144.06683565 213.54185889 116.94995354 219.59411243 91.17456055 219.35327148 C65.89963419 218.61955965 42.14848287 212.43353757 24 194 C23.29230469 193.29101562 22.58460938 192.58203125 21.85546875 191.8515625 C14.28517643 183.83255304 9.35583969 174.79322651 5.75 164.4375 C5.51587402 163.78531494 5.28174805 163.13312988 5.04052734 162.46118164 C-0.86047949 144.35418541 -0.41569137 125.41266312 -0.30418181 106.61115861 C-0.28515709 102.85030191 -0.28364462 99.08943438 -0.28010559 95.32853699 C-0.27085959 88.23882497 -0.24634914 81.14925525 -0.21605712 74.0596053 C-0.18227815 65.97469544 -0.16596865 57.88977803 -0.15097082 49.80481493 C-0.1197909 33.20311403 -0.06487473 16.60160863 0 0 Z " fill="#FFFFFF" transform="translate(448,739)"/>
<path d="M0 0 C14.85 0 29.7 0 45 0 C51.92459296 15.55524505 58.64239001 31.18311563 65.25 46.875 C70.94173574 60.39130381 76.64706594 73.9006502 82.4375 87.375 C90.35816535 105.8118365 98.21169138 124.27703471 106.06277466 142.74359131 C109.19695849 150.11451337 112.33598363 157.4833633 115.4765625 164.8515625 C116.82215018 168.0096104 118.16764176 171.16769923 119.51309204 174.32580566 C120.364446 176.32359523 121.21613842 178.32124061 122.06820679 180.31872559 C126.10928131 189.79262195 130.13758785 199.27119363 134.07421875 208.7890625 C134.37286331 209.50855072 134.67150787 210.22803894 134.97920227 210.96932983 C137 215.87994687 137 215.87994687 137 217 C120.17 217 103.34 217 86 217 C83.6075 211.26625 81.215 205.5325 78.75 199.625 C78.00331055 197.83658691 77.25662109 196.04817383 76.48730469 194.20556641 C74.65177631 189.80636966 72.82325915 185.40429537 71 181 C70.54560547 179.90268555 70.09121094 178.80537109 69.62304688 177.67480469 C69.07487305 176.33144043 69.07487305 176.33144043 68.515625 174.9609375 C68.21430664 174.22407715 67.91298828 173.4872168 67.60253906 172.72802734 C67 171 67 171 67 169 C37.3 169 7.6 169 -23 169 C-23.99 171.97 -24.98 174.94 -26 178 C-27.15615497 180.98029215 -28.32913279 183.94441189 -29.5390625 186.90234375 C-29.86538666 187.70611954 -30.19171082 188.50989532 -30.52792358 189.33802795 C-31.21066691 191.01828321 -31.89473195 192.69800198 -32.58007812 194.37719727 C-33.63176894 196.95408549 -34.67950795 199.53255302 -35.7265625 202.11132812 C-36.39300363 203.75009174 -37.05966238 205.38876687 -37.7265625 207.02734375 C-38.04009674 207.79811752 -38.35363098 208.5688913 -38.67666626 209.36302185 C-40.88218968 214.76437935 -40.88218968 214.76437935 -42 217 C-58.5 217 -75 217 -92 217 C-79.44077211 186.73431967 -66.69667626 156.54510486 -53.76367188 126.43725586 C-46.44313252 109.39250727 -39.19109862 92.31862206 -31.93269348 75.24734497 C-28.81010635 67.90357975 -25.68490861 60.56092898 -22.55859375 53.21875 C-21.21966024 50.07385912 -19.88074955 46.92895853 -18.5418396 43.78405762 C-17.69708574 41.8000405 -16.85222134 39.81607044 -16.00723267 37.83215332 C-14.82217883 35.04970997 -13.63760882 32.26706105 -12.453125 29.484375 C-11.95412941 28.31328186 -11.95412941 28.31328186 -11.4450531 27.11853027 C-7.60313529 18.09021051 -3.80762484 9.04310899 0 0 Z M22 60 C18.14004511 67.39846294 14.85740994 74.94877986 11.734375 82.68359375 C11.25550842 83.86091568 10.77664185 85.03823761 10.28326416 86.25123596 C9.27975169 88.72038862 8.27769242 91.19006412 7.27832031 93.66088867 C5.9984519 96.82517873 4.71423649 99.98768068 3.42840195 103.14955044 C2.19568771 106.18117494 0.96495952 109.21360425 -0.265625 112.24609375 C-0.72600159 113.38042343 -1.18637817 114.51475311 -1.66070557 115.68345642 C-2.2970694 117.25638206 -2.2970694 117.25638206 -2.94628906 118.86108398 C-3.50657806 120.24480446 -3.50657806 120.24480446 -4.07818604 121.65647888 C-4.77106365 123.41797674 -5.40142218 125.20426653 -6 127 C12.48 127 30.96 127 50 127 C43.65349186 111.13372964 37.29406388 95.27430421 30.875 79.4375 C30.10151296 77.52801486 29.32807538 75.61850968 28.5546875 73.70898438 C26.70368943 69.13909403 24.85204216 64.5694673 23 60 C22.67 60 22.34 60 22 60 Z " fill="#FFFFFF" transform="translate(1662,737)"/>
<path d="M0 0 C0.77943466 0.00222061 1.55886932 0.00444122 2.36192322 0.00672913 C3.24276077 0.00680466 4.12359833 0.00688019 5.03112793 0.00695801 C5.98841293 0.01211929 6.94569794 0.01728058 7.93199158 0.02259827 C9.39480812 0.02472069 9.39480812 0.02472069 10.88717651 0.02688599 C14.01542675 0.03250319 17.14360656 0.04505859 20.27183533 0.05775452 C22.38706867 0.0627673 24.50230313 0.06733059 26.61753845 0.07142639 C31.81482829 0.0824782 37.01207678 0.09923305 42.20933533 0.12025452 C46.8095675 9.78126643 51.1442688 19.52014412 55.25746155 29.39784241 C56.98260113 33.5389296 58.71956016 37.67506232 60.45542908 41.81166077 C60.83106491 42.70728729 61.20670074 43.60291382 61.59371948 44.52568054 C66.44268142 56.07577948 71.35878508 67.59730992 76.27183533 79.12025452 C77.25621454 81.42957889 78.2405895 83.73890508 79.22496033 86.04823303 C81.22352332 90.73642967 83.22245052 95.42447086 85.22154236 100.11244202 C88.14494908 106.96849142 91.06618991 113.82546188 93.98667908 120.68275452 C94.46036926 121.79491333 94.93405945 122.90707214 95.42210388 124.05293274 C97.79271618 129.6190561 100.16278883 135.18540854 102.53208923 140.75209045 C107.04988642 151.36507793 111.57300283 161.97572706 116.11213684 172.5796051 C118.00878159 177.01046636 119.90310604 181.44231845 121.79690361 185.87439728 C123.09484042 188.91146566 124.39456735 191.94774954 125.69664001 194.98304749 C127.12986532 198.32429468 128.55874581 201.66736802 129.98667908 205.01087952 C130.63170631 206.50980743 130.63170631 206.50980743 131.2897644 208.03901672 C131.6769313 208.94786621 132.06409821 209.8567157 132.46299744 210.79310608 C132.80221725 211.58509399 133.14143707 212.37708191 133.49093628 213.19306946 C134.20933533 215.12025452 134.20933533 215.12025452 134.20933533 217.12025452 C117.37933533 217.12025452 100.54933533 217.12025452 83.20933533 217.12025452 C76.93933533 201.61025452 70.66933533 186.10025452 64.20933533 170.12025452 C34.50933533 169.79025452 4.80933533 169.46025452 -25.79066467 169.12025452 C-26.78066467 172.42025452 -27.77066467 175.72025452 -28.79066467 179.12025452 C-29.93426763 182.15515033 -31.09992586 185.15694218 -32.32972717 188.15541077 C-32.65605133 188.96014328 -32.98237549 189.76487579 -33.31858826 190.59399414 C-34.00047593 192.27281756 -34.68454493 193.95075658 -35.3707428 195.62782288 C-36.42508002 198.20577593 -37.47163797 200.78678949 -38.51722717 203.36830139 C-39.18344421 205.00585418 -39.85009479 206.64323067 -40.51722717 208.28041077 C-40.83076141 209.05320877 -41.14429565 209.82600677 -41.46733093 210.6222229 C-43.67479514 216.00438498 -43.67479514 216.00438498 -44.79066467 217.12025452 C-46.32549437 217.21344901 -47.8645855 217.23771252 -49.40223694 217.23377991 C-50.38317825 217.23370438 -51.36411957 217.23362885 -52.37478638 217.23355103 C-53.44144028 217.22838974 -54.50809418 217.22322845 -55.60707092 217.21791077 C-57.2363578 217.21578835 -57.2363578 217.21578835 -58.89855957 217.21362305 C-62.38345542 217.208005 -65.86828809 217.19544944 -69.35316467 217.18275452 C-71.70928354 217.17774184 -74.06540341 217.17317853 -76.42152405 217.16908264 C-82.21125932 217.15802971 -88.00095748 217.14127403 -93.79066467 217.12025452 C-93.1917427 213.67386934 -92.30908482 210.66441261 -90.93080139 207.45252991 C-90.54371002 206.54390701 -90.15661865 205.63528412 -89.75779724 204.6991272 C-89.33294037 203.71532578 -88.9080835 202.73152435 -88.47035217 201.71791077 C-88.0241452 200.67404709 -87.57793823 199.63018341 -87.11820984 198.5546875 C-85.63841051 195.09548166 -84.1519762 191.63916667 -82.66566467 188.18275452 C-81.6215382 185.74481849 -80.5778291 183.30670886 -79.5348053 180.86830139 C-77.63925769 176.43795569 -75.742213 172.00825729 -73.84319687 167.5793972 C-69.1111416 156.54273448 -64.40726895 145.49411161 -59.70545959 134.4445343 C-57.32120271 128.84235348 -54.93465988 123.24114651 -52.54847717 117.63978577 C-48.68744942 108.57538459 -44.82837852 99.51015227 -40.97035217 90.44447327 C-35.24889962 77.00088723 -29.52213802 63.55957132 -23.79066467 50.12025452 C-23.29365051 48.95461975 -22.79663635 47.78898499 -22.28456116 46.58802795 C-19.30151968 39.59278377 -16.31559122 32.59878384 -13.32563782 25.60649109 C-12.3908505 23.41948695 -11.45688116 21.232133 -10.52375793 19.04441833 C-9.24262761 16.04136515 -7.95847522 13.03962307 -6.67347717 10.03822327 C-6.29237793 9.14317078 -5.91127869 8.24811829 -5.51863098 7.32594299 C-5.17157104 6.51709656 -4.82451111 5.70825012 -4.4669342 4.87489319 C-4.16546478 4.16950912 -3.86399536 3.46412506 -3.5533905 2.73736572 C-2.33628777 0.15689658 -2.33628777 0.15689658 0 0 Z M19.20933533 60.12025452 C16.4878875 65.4308679 14.03583191 70.75425232 11.81871033 76.29212952 C11.51262344 77.0489653 11.20653656 77.80580109 10.89117432 78.58557129 C9.9106136 81.01249053 8.9347838 83.44127654 7.95933533 85.87025452 C7.28694835 87.53871902 6.61434017 89.2070944 5.94151306 90.87538147 C4.62446066 94.14261882 3.30940717 97.41064975 1.99595642 100.67933655 C0.4873839 104.43225133 -1.03034998 108.18136919 -2.55238342 111.92884827 C-3.27782833 113.72174238 -4.00310928 115.51470285 -4.72816467 117.30775452 C-5.05139709 118.10085022 -5.37462952 118.89394592 -5.70765686 119.71107483 C-7.25357278 123.3015737 -7.25357278 123.3015737 -7.79066467 127.12025452 C10.35933533 127.12025452 28.50933533 127.12025452 47.20933533 127.12025452 C42.03612954 113.324589 42.03612954 113.324589 36.53746033 99.67103577 C35.9247226 98.19125496 35.9247226 98.19125496 35.29960632 96.68157959 C34.02201763 93.59759337 32.74080729 90.51512886 31.45933533 87.43275452 C30.16443094 84.31075691 28.87027089 81.18845156 27.57621765 78.06610107 C26.77777892 76.14037583 25.97869885 74.21491634 25.17887878 72.2897644 C24.63756317 70.9863636 24.63756317 70.9863636 24.08531189 69.65663147 C23.61282013 68.51989738 23.61282013 68.51989738 23.13078308 67.36019897 C22.14063969 64.95326251 21.1723145 62.5381725 20.20933533 60.12025452 C19.87933533 60.12025452 19.54933533 60.12025452 19.20933533 60.12025452 Z " fill="#FFFFFF" transform="translate(1174.7906646728516,736.8797454833984)"/>
<path d="M0 0 C0.64227539 0.16097168 1.28455078 0.32194336 1.94628906 0.48779297 C17.20045679 4.42813753 34.39220363 11.04880625 46 22 C46.69829636 23.31704382 47.37017412 24.64887396 48 26 C40.01636459 37.67795604 32.02033172 49.34721344 24 61 C23.37996094 60.6596875 22.75992188 60.319375 22.12109375 59.96875 C20.21206877 58.92392701 18.30031405 57.88408495 16.38671875 56.84765625 C14.06476653 55.58089339 11.75776785 54.29978178 9.45703125 52.99609375 C-6.61050692 43.99741658 -24.47648242 37.56632765 -43.08203125 41.171875 C-48.60344751 42.73886328 -53.16101243 44.93113898 -57 49.25 C-59.1534121 55.17188326 -59.984936 61.15639515 -57.27294922 67.03417969 C-52.7954854 73.94874407 -43.44726609 76.6077601 -36 78.9375 C-34.44925781 79.43999268 -34.44925781 79.43999268 -32.8671875 79.95263672 C-24.25252569 82.70439842 -15.54847616 85.10572355 -6.82763672 87.49365234 C9.61710975 92.04530001 24.86408443 97.76204942 38 109 C38.61617187 109.49757813 39.23234375 109.99515625 39.8671875 110.5078125 C50.17056212 119.62057494 54.31924757 134.30246186 55.1640625 147.578125 C55.69632567 165.28797245 51.24921837 181.91847064 39.625 195.5625 C22.70131362 212.77400418 0.75916247 218.2609845 -22.62103271 218.49237061 C-36.09415204 218.53797541 -48.99187014 217.76120077 -62 214 C-62.66402832 213.81808105 -63.32805664 213.63616211 -64.01220703 213.44873047 C-83.15466859 208.11363346 -100.73425346 197.55991316 -116 185 C-115.41121629 181.85454286 -114.50426529 180.08856179 -112.375 177.71484375 C-111.83738037 177.10688965 -111.29976074 176.49893555 -110.74584961 175.87255859 C-110.16971924 175.23398926 -109.59358887 174.59541992 -109 173.9375 C-107.81260647 172.59610948 -106.62641558 171.25365348 -105.44140625 169.91015625 C-104.56379639 168.91846436 -104.56379639 168.91846436 -103.66845703 167.90673828 C-98.58718751 162.09978555 -93.81532503 156.02719971 -89 150 C-84.80828585 150.55957349 -82.00373477 153.07661365 -78.75 155.5625 C-60.35906195 169.12014135 -37.73394763 177.73062764 -14.640625 174.53515625 C-7.66763529 173.17751194 -1.88779825 171.35151244 3 166 C5.75943901 161.2572142 6.66929852 157.45000227 6 152 C4.35337495 146.58374275 1.7939311 142.96796162 -3.2199707 140.2890625 C-6.6487408 138.69918755 -10.15681391 137.40843759 -13.71875 136.15625 C-14.46372238 135.89399628 -15.20869476 135.63174255 -15.97624207 135.36154175 C-23.2677058 132.83816377 -30.65801851 130.75889769 -38.09954834 128.73165894 C-88.23665664 114.98706374 -88.23665664 114.98706374 -100.74609375 94.08203125 C-109.18979682 78.10581609 -109.95191508 58.97225204 -105.06640625 41.69921875 C-99.41385977 25.36746682 -88.40405641 12.8017667 -73 5 C-50.53869835 -5.30818537 -23.8164196 -6.06459344 0 0 Z " fill="#FFFFFF" transform="translate(893,739)"/>
<path d="M0 0 C15.84 0 31.68 0 48 0 C48 56.43 48 112.86 48 171 C83.31 171 118.62 171 155 171 C155 185.52 155 200.04 155 215 C103.85 215 52.7 215 0 215 C0 144.05 0 73.1 0 0 Z " fill="#FFFFFF" transform="translate(0,739)"/>
<path d="M0 0 C18.81 0 37.62 0 57 0 C57 84.48 57 168.96 57 256 C38.19 256 19.38 256 0 256 C0 171.52 0 87.04 0 0 Z " fill="#FFFFFF" transform="translate(1142,410)"/>
<path d="M0 0 C15.84 0 31.68 0 48 0 C48 70.95 48 141.9 48 215 C32.16 215 16.32 215 0 215 C0 144.05 0 73.1 0 0 Z " fill="#FFFFFF" transform="translate(993,739)"/>
<path d="M0 0 C15.84 0 31.68 0 48 0 C48 70.95 48 141.9 48 215 C32.16 215 16.32 215 0 215 C0 144.05 0 73.1 0 0 Z " fill="#FFFFFF" transform="translate(688,739)"/>
<path d="M0 0 C0.93296406 3.63072517 1.02678789 5.95425592 -0.1171875 9.51953125 C-0.52602173 10.79413208 -0.52602173 10.79413208 -0.94311523 12.09448242 C-1.25063721 12.99142822 -1.55815918 13.88837402 -1.875 14.8125 C-2.19090088 15.74231689 -2.50680176 16.67213379 -2.83227539 17.63012695 C-7.36298738 30.42963532 -13.88450484 41.89330537 -23 52 C-23.67417969 52.76699219 -24.34835937 53.53398437 -25.04296875 54.32421875 C-35.98856251 66.06730568 -50.26645461 72.53601899 -66 75 C-67.93651019 75.06533435 -69.87502861 75.08584303 -71.8125 75.0625 C-73.27623047 75.04896484 -73.27623047 75.04896484 -74.76953125 75.03515625 C-75.50558594 75.02355469 -76.24164062 75.01195312 -77 75 C-81.01429023 58.61910602 -77.48863574 40.80331449 -69.9140625 26.12109375 C-61.67259272 12.68245221 -46.52309834 4.94387326 -31.5625 1.0625 C-21.21362997 -0.8995979 -10.48380849 -0.25195251 0 0 Z " fill="#FFFFFF" transform="translate(1250,317)"/>
<path d="M0 0 C-0.55275219 5.6863587 -1.62730035 10.69430919 -3.5625 16.0625 C-3.95622803 17.15896851 -3.95622803 17.15896851 -4.35791016 18.27758789 C-11.82371011 38.34598748 -25.35237002 58.28997437 -45 68 C-53.89295592 71.64646436 -62.70792021 74.169912 -72.375 74.0625 C-73.43460938 74.05347656 -74.49421875 74.04445313 -75.5859375 74.03515625 C-76.78089844 74.01775391 -76.78089844 74.01775391 -78 74 C-81.78192833 58.01830287 -78.77956486 39.29234772 -70.93359375 25.01953125 C-61.7119323 10.61883569 -45.01422782 3.31849 -28.8125 -0.3125 C-19.87098608 -1.73136299 -8.78779082 -2.47222121 0 0 Z " fill="#FFFFFF" transform="translate(1251,241)"/>
<path d="M0 0 C18.94849701 0.24570674 36.4084241 5.97930361 50.34204102 19.31469727 C61.72593489 31.22501397 63.7052833 46.53264287 63.52954102 62.37719727 C63.52857422 64.08552734 63.52857422 64.08552734 63.52758789 65.82836914 C63.48274574 74.17399255 63.48274574 74.17399255 62.34204102 75.31469727 C46.14939335 77.26677534 29.12836078 69.84636652 16.59204102 60.12719727 C1.30872688 46.81592367 -12.22540034 25.94696548 -14.59545898 5.37719727 C-14.74780273 3.03735352 -14.74780273 3.03735352 -14.65795898 1.31469727 C-11.88203627 -1.46122545 -3.72641237 0.00259279 0 0 Z " fill="#FFFFFF" transform="translate(1101.657958984375,316.685302734375)"/>
<path d="M0 0 C11.85082849 8.25295825 18.16565733 19.36615779 20.88867188 33.49365234 C21.34948581 36.69261492 21.48091011 39.71529045 21.484375 42.9453125 C21.48566406 44.09451172 21.48695312 45.24371094 21.48828125 46.42773438 C21.48441406 47.61302734 21.48054688 48.79832031 21.4765625 50.01953125 C21.48042969 51.22416016 21.48429687 52.42878906 21.48828125 53.66992188 C21.48699219 54.81267578 21.48570313 55.95542969 21.484375 57.1328125 C21.48324707 58.17864502 21.48211914 59.22447754 21.48095703 60.30200195 C21.3515625 62.70703125 21.3515625 62.70703125 20.3515625 63.70703125 C1.82789795 63.85474787 -14.9420893 56.90902416 -28.6484375 44.70703125 C-29.28523438 44.14113281 -29.92203125 43.57523437 -30.578125 42.9921875 C-41.85980168 32.33727064 -49.22758325 17.68822394 -54.1484375 3.14453125 C-54.40375244 2.39494141 -54.65906738 1.64535156 -54.92211914 0.87304688 C-56.26154236 -3.30847529 -56.92931283 -6.84811668 -56.6484375 -11.29296875 C-38.71756112 -17.02345501 -15.13608175 -9.85366321 0 0 Z " fill="#FFFFFF" transform="translate(1143.6484375,252.29296875)"/>
<path d="M0 0 C1.32 0 2.64 0 4 0 C5.82749939 2.01422881 7.29866174 3.89133356 8.8125 6.125 C9.24973389 6.75809082 9.68696777 7.39118164 10.13745117 8.04345703 C22.70639538 26.66291995 30.70095008 49.75951858 26.3515625 72.37109375 C22.58772628 83.71085673 13.77918582 92.48054279 4 99 C-3.55325769 98.41428696 -9.24593705 92.00575248 -14.25 86.8125 C-23.21816737 76.06863549 -24.12416774 65.01965609 -23.24804688 51.52099609 C-22.6486439 45.42903242 -21.00944518 39.77632591 -19 34 C-18.49146484 32.39318359 -18.49146484 32.39318359 -17.97265625 30.75390625 C-14.29258922 20.05420958 -7.88919448 8.25428799 0 0 Z " fill="#FFFFFF" transform="translate(1167,0)"/>
<path d="M0 0 C18.49452623 2.23267254 32.80731705 10.032833 46 23 C46.66128906 23.64839844 47.32257813 24.29679687 48.00390625 24.96484375 C59.90662159 37.53596211 62.00209905 55.30500635 62.1875 71.875 C62.20063232 72.62547607 62.21376465 73.37595215 62.22729492 74.14916992 C62.23292676 77.97405533 62.17221572 79.74167641 60 83 C43.46433077 82.21258718 26.25488985 76.61136411 14.8046875 64.2109375 C1.62447745 48.06375376 -3.52556582 26.60806713 -2 6 C-1.39784447 3.97964034 -0.74767677 1.97114786 0 0 Z " fill="#FFFFFF" transform="translate(1103,80)"/>
<path d="M0 0 C0.60896221 23.96188227 -2.10503109 43.14879405 -16.25 63.1875 C-27.45225004 74.64434663 -44.39073253 81.73971696 -60.40625 82.0703125 C-61.2621875 82.04710937 -62.118125 82.02390625 -63 82 C-63.5025651 60.28661043 -63.65724307 40.14556445 -48.8125 22.6875 C-37.66202019 11.21736057 -17.06610226 -3.79167526 0 0 Z " fill="#FFFFFF" transform="translate(1236,81)"/>
<path d="M0 0 C16.96052241 -1.07685857 34.05279692 4.70596879 46.9375 15.75 C62.63201667 31.00599341 66.04861367 51.49647586 66.984375 72.4921875 C66.99210937 74.22855469 66.99210937 74.22855469 67 76 C64.67228822 78.32771178 58.52562513 77.31181028 55.27905273 77.31469727 C41.71022904 77.08950516 30.40263373 71.95712293 20.3125 62.9375 C5.75515711 47.36777595 -0.807494 23.23418738 -0.140625 2.39453125 C-0.09421875 1.60433594 -0.0478125 0.81414062 0 0 Z " fill="#FFFFFF" transform="translate(1098,161)"/>
<path d="M0 0 C0.40346825 22.79595586 -6.00754058 46.3238066 -21.625 63.375 C-31.85645552 73.06961989 -44.5919582 77.41946994 -58.5 77.125 C-59.32242187 77.11597656 -60.14484375 77.10695313 -60.9921875 77.09765625 C-62.99492083 77.07436865 -64.99750154 77.03850959 -67 77 C-67.58882863 55.47504243 -64.32982583 33.26595709 -49 17 C-34.83157648 5.41802695 -18.38898844 -0.88032391 0 0 Z " fill="#FFFFFF" transform="translate(1240,161)"/>
<path d="M0 0 C6.22640716 5.87420635 10.53929528 13.04741329 11.0234375 21.73828125 C11.19181563 29.79915275 11.26138228 36.79713251 6.6875 43.75 C6.01654297 44.80767578 6.01654297 44.80767578 5.33203125 45.88671875 C0.20658668 53.32067455 -6.35274667 58.08935606 -15.3125 59.75 C-27.54500845 60.72062295 -36.67776078 59.67992858 -46.234375 51.77734375 C-52.84219979 45.33098836 -56.49558896 37.98075635 -56.69335938 28.68554688 C-56.66241508 17.14332636 -54.7236591 9.31798253 -46.51171875 0.7265625 C-33.41773808 -11.04173984 -13.56873828 -11.12941454 0 0 Z M-43.26171875 5.609375 C-50.26002576 13.17987063 -51.91693107 19.05904475 -51.65625 29.3125 C-50.81858866 37.68911336 -46.54263472 44.19814608 -40.3125 49.75 C-32.61218733 54.64762534 -25.34202133 55.48581664 -16.3125 54.75 C-8.94831264 52.89498467 -2.04892028 48.05234865 2.0390625 41.625 C6.16020058 33.56061469 7.46484026 24.3127143 4.6875 15.5 C1.14232423 7.7006133 -5.05304213 2.04651502 -12.8046875 -1.37890625 C-24.03134559 -5.27850867 -34.72753495 -2.53144963 -43.26171875 5.609375 Z " fill="#FFFFFF" transform="translate(1881.3125,413.25)"/>
<path d="M0 0 C5.754375 -0.0928125 5.754375 -0.0928125 11.625 -0.1875 C13.42251709 -0.22846802 13.42251709 -0.22846802 15.25634766 -0.27026367 C20.89043234 -0.31425778 25.1958875 -0.32284448 30 3 C33.23973491 6.67169956 33.45397074 10.13087771 33.296875 14.84375 C32.89118392 17.79034838 31.86451114 19.70521706 30 22 C29.34 22.33 28.68 22.66 28 23 C28.60213096 26.14215467 29.61293869 28.10334521 31.5625 30.625 C34 33.78753541 34 33.78753541 34 36 C29.55229247 36.53451678 25.42415662 36.80151586 21 36 C18.74130554 33.83988234 17.58702149 31.87575977 16.24609375 29.06640625 C15.03530495 26.50907259 15.03530495 26.50907259 11 26 C11 29.3 11 32.6 11 36 C7.37 36 3.74 36 0 36 C0 24.12 0 12.24 0 0 Z M11 9 C11 11.64 11 14.28 11 17 C12.8871875 17.061875 12.8871875 17.061875 14.8125 17.125 C15.52019531 17.14820313 16.22789063 17.17140625 16.95703125 17.1953125 C19.31359719 17.13254462 19.31359719 17.13254462 22 15 C21.65555119 12.52733235 21.65555119 12.52733235 21 10 C18.71294169 8.85647084 17.40735238 8.89665561 14.875 8.9375 C12.956875 8.9684375 12.956875 8.9684375 11 9 Z " fill="#FFFFFF" transform="translate(1843,420)"/>
</svg>
