<?xml version="1.0" encoding="UTF-8"?>
<svg version="1.1" xmlns="http://www.w3.org/2000/svg" width="444" height="86">
<path d="M0 0 C2.72349568 0.38076056 4.12107532 -0.45594753 6.57421875 -1.65625 C14.4586517 -4.99553925 22.12828812 -4.69616435 30.078125 -1.62109375 C35.31627761 0.82337747 37.69237061 3.97434899 40.21484375 8.98828125 C42.45903804 15.44584032 42.14526771 22.2813005 42.109375 29.02734375 C42.10796005 30.03845718 42.1065451 31.04957062 42.10508728 32.09132385 C42.09951836 35.30049681 42.08697162 38.50959836 42.07421875 41.71875 C42.06919973 43.90299378 42.06463753 46.08723866 42.06054688 48.27148438 C42.04955912 53.60809702 42.03285211 58.9446684 42.01171875 64.28125 C39.36581861 64.30809679 36.72018779 64.32801357 34.07421875 64.34375 C33.31947266 64.35212891 32.56472656 64.36050781 31.78710938 64.36914062 C29.86177562 64.37777441 27.93636294 64.33349333 26.01171875 64.28125 C24.48569614 62.75522739 24.85743069 61.36827817 24.82226562 59.23974609 C24.8055481 58.38150238 24.78883057 57.52325867 24.77160645 56.63900757 C24.75803101 55.70368195 24.74445557 54.76835632 24.73046875 53.8046875 C24.71205933 52.84607819 24.6936499 51.88746887 24.67468262 50.89981079 C24.61573652 47.81868837 24.56306505 44.73750786 24.51171875 41.65625 C24.4602 38.5964212 24.40717378 35.53666451 24.34875488 32.47695923 C24.3123594 30.57043701 24.27986869 28.66383508 24.25183105 26.75717163 C24.15813401 21.84095522 23.83040842 17.1312405 23.01171875 12.28125 C21.05346002 12.25430149 19.09509649 12.23487782 17.13671875 12.21875 C16.04617187 12.20714844 14.955625 12.19554687 13.83203125 12.18359375 C11.05994329 12.08380697 11.05994329 12.08380697 9.01171875 13.28125 C9.00141129 13.89068451 8.99110382 14.50011902 8.98048401 15.12802124 C8.87254922 21.45427465 8.75794087 27.78038185 8.6394043 34.10644531 C8.59601359 36.46937001 8.55434162 38.83232691 8.5144043 41.1953125 C8.45680182 44.58603636 8.39307865 47.9765975 8.328125 51.3671875 C8.30305626 52.95942642 8.30305626 52.95942642 8.27748108 54.58383179 C8.25753586 55.56469757 8.23759064 56.54556335 8.21704102 57.55615234 C8.20149673 58.42219086 8.18595245 59.28822937 8.16993713 60.18051147 C8.01171875 62.28125 8.01171875 62.28125 7.01171875 64.28125 C2.06171875 64.28125 -2.88828125 64.28125 -7.98828125 64.28125 C-9.14490336 61.96800578 -9.13635318 60.5787483 -9.17773438 58.00268555 C-9.1944519 57.11804123 -9.21116943 56.23339691 -9.22839355 55.32194519 C-9.24196899 54.36363297 -9.25554443 53.40532074 -9.26953125 52.41796875 C-9.28794067 51.43383499 -9.3063501 50.44970123 -9.32531738 49.43574524 C-9.38418119 46.28014209 -9.43692168 43.12448367 -9.48828125 39.96875 C-9.55603302 35.82671096 -9.62977779 31.68484018 -9.70703125 27.54296875 C-9.72060669 26.59072922 -9.73418213 25.63848969 -9.74816895 24.65739441 C-9.76488647 23.76329361 -9.781604 22.86919281 -9.79882812 21.94799805 C-9.8113562 21.16571335 -9.82388428 20.38342865 -9.83679199 19.57743835 C-9.96901052 16.80933902 -9.96901052 16.80933902 -10.98828125 12.28125 C-15.93828125 11.95125 -20.88828125 11.62125 -25.98828125 11.28125 C-25.98042603 13.63624634 -25.98042603 13.63624634 -25.97241211 16.03881836 C-25.95436982 21.8402449 -25.94285208 27.64166894 -25.93334961 33.44311523 C-25.92830762 35.95841895 -25.92147422 38.47371972 -25.9128418 40.98901367 C-25.90077031 44.59554775 -25.89505176 48.20204323 -25.890625 51.80859375 C-25.88546371 52.94086899 -25.88030243 54.07314423 -25.87498474 55.23973083 C-25.87487144 56.80123619 -25.87487144 56.80123619 -25.87475586 58.39428711 C-25.87253525 59.31584091 -25.87031464 60.23739471 -25.86802673 61.18687439 C-25.98828125 63.28125 -25.98828125 63.28125 -26.98828125 64.28125 C-32.26828125 64.28125 -37.54828125 64.28125 -42.98828125 64.28125 C-42.98828125 43.49125 -42.98828125 22.70125 -42.98828125 1.28125 C-28.40384542 -4.9692225 -14.92720722 -5.39608277 0 0 Z " fill="#FAFAF9" transform="translate(184.98828125,21.71875)"/>
<path d="M0 0 C5.61 0 11.22 0 17 0 C17.04898437 2.05863281 17.09796875 4.11726562 17.1484375 6.23828125 C17.20406694 8.23398733 17.25976377 10.22969217 17.31738281 12.2253418 C17.3556435 13.61131907 17.39050156 14.99739465 17.421875 16.38354492 C17.46758699 18.3770164 17.52658925 20.37016914 17.5859375 22.36328125 C17.63306885 24.16212769 17.63306885 24.16212769 17.68115234 25.99731445 C17.78429494 29.17882706 17.78429494 29.17882706 20 32 C22.90613434 32.51146198 22.90613434 32.51146198 26.3203125 32.51171875 C27.57714844 32.54716797 28.83398438 32.58261719 30.12890625 32.61914062 C31.44761719 32.64169922 32.76632813 32.66425781 34.125 32.6875 C35.46487759 32.72066529 36.80472311 32.75515422 38.14453125 32.79101562 C41.4296033 32.87373327 44.71440032 32.94280693 48 33 C47.99476318 32.03586182 47.98952637 31.07172363 47.98413086 30.07836914 C47.96607882 26.51327436 47.95456726 22.94818364 47.94506836 19.38305664 C47.9400286 17.83780234 47.9331968 16.29255284 47.92456055 14.74731445 C47.91247924 12.53074971 47.90676827 10.31424782 47.90234375 8.09765625 C47.89718246 7.4028566 47.89202118 6.70805695 47.88670349 5.99220276 C47.88650723 4.3277067 47.93810871 2.66334501 48 1 C48.33 0.67 48.66 0.34 49 0 C54.61 0 60.22 0 66 0 C66 28.38 66 56.76 66 86 C60.39 86 54.78 86 49 86 C47.50731161 83.01462323 47.80240615 79.93299981 47.75390625 76.65625 C47.72097908 75.16796262 47.68776725 73.67968151 47.65429688 72.19140625 C47.60679703 69.84102541 47.56234463 67.49067205 47.52319336 65.14013672 C47.48357278 62.8744088 47.4320174 60.6091961 47.37890625 58.34375 C47.3704921 57.63851196 47.36207794 56.93327393 47.35340881 56.20666504 C47.35826824 52.15479444 47.35826824 52.15479444 45 49 C42.18597317 48.62760773 42.18597317 48.62760773 38.8984375 48.5859375 C37.68671875 48.54726563 36.475 48.50859375 35.2265625 48.46875 C33.95554688 48.4378125 32.68453125 48.406875 31.375 48.375 C30.09625 48.33632813 28.8175 48.29765625 27.5 48.2578125 C24.33347983 48.16328951 21.1669696 48.07773643 18 48 C17.97494385 49.11560303 17.9498877 50.23120605 17.92407227 51.38061523 C17.83016579 55.5049259 17.72990486 59.6290615 17.62768555 63.75317383 C17.584273 65.5408927 17.54260271 67.32865474 17.50268555 69.11645508 C17.4451354 71.68063391 17.38139797 74.24459412 17.31640625 76.80859375 C17.29133751 78.01484657 17.29133751 78.01484657 17.26576233 79.24546814 C17.11387171 84.88612829 17.11387171 84.88612829 16 86 C10.72 86 5.44 86 0 86 C0 57.62 0 29.24 0 0 Z " fill="#FAFAF9" transform="translate(0,0)"/>
<path d="M0 0 C0.73444336 0.12600586 1.46888672 0.25201172 2.22558594 0.38183594 C5.68244267 1.02808281 7.91108258 1.64905505 10.875 3.625 C11.23576355 6.25723267 11.23576355 6.25723267 11.21557617 9.63525391 C11.21523628 11.52698837 11.21523628 11.52698837 11.21488953 13.4569397 C11.19956844 14.83848421 11.18392044 16.22002513 11.16796875 17.6015625 C11.16237433 19.01117503 11.1581035 20.42079338 11.15510559 21.83041382 C11.14364454 25.54268464 11.11416704 29.254604 11.08099365 32.96673584 C11.0503196 36.75381719 11.03660599 40.54095526 11.02148438 44.328125 C10.98929803 51.76059554 10.93652041 59.19270378 10.875 66.625 C5.595 66.625 0.315 66.625 -5.125 66.625 C-5.785 65.305 -6.445 63.985 -7.125 62.625 C-8.33542969 63.60726562 -8.33542969 63.60726562 -9.5703125 64.609375 C-13.60095619 67.29647079 -17.29531644 67.08232504 -22 66.875 C-22.78375 66.85695313 -23.5675 66.83890625 -24.375 66.8203125 C-26.29220189 66.77355148 -28.20876715 66.70182003 -30.125 66.625 C-30.125 65.965 -30.125 65.305 -30.125 64.625 C-30.99125 64.46 -31.8575 64.295 -32.75 64.125 C-38.2964331 61.65991862 -40.88346718 57.63350837 -43.16796875 52.09765625 C-46.97967693 39.3382763 -47.32696679 22.27864991 -40.90625 10.36328125 C-37.00578189 4.50174445 -31.54219759 0.74535545 -24.70703125 -0.98828125 C-16.39910141 -2.23258542 -8.21980668 -1.42785374 0 0 Z M-27.125 19.625 C-28.62510238 24.0002986 -28.34464927 28.84315894 -28.375 33.4375 C-28.395625 34.20642578 -28.41625 34.97535156 -28.4375 35.76757812 C-28.47538655 41.37952405 -27.49338567 45.51781763 -25.125 50.625 C-20.89001573 53.95248764 -17.37718564 53.83314781 -12.2734375 53.2421875 C-9.47293039 52.43767818 -8.16412087 51.75235459 -6.125 49.625 C-5.76930674 46.76970106 -5.65818861 44.30582619 -5.734375 41.45703125 C-5.74003479 40.66221848 -5.74569458 39.8674057 -5.75152588 39.04850769 C-5.77390996 36.51089134 -5.82410738 33.9746892 -5.875 31.4375 C-5.8950625 29.71681727 -5.91331371 27.99611241 -5.9296875 26.27539062 C-5.97378106 22.05804918 -6.04282035 17.84176431 -6.125 13.625 C-8.69006424 13.46223447 -11.24475422 13.34386016 -13.8125 13.25 C-14.53373047 13.19972656 -15.25496094 13.14945313 -15.99804688 13.09765625 C-22.03874433 12.93215769 -23.85511358 14.59709744 -27.125 19.625 Z " fill="#FAFAF9" transform="translate(410.125,19.375)"/>
<path d="M0 0 C0 21.12 0 42.24 0 64 C-4.95 64 -9.9 64 -15 64 C-15.66 62.68 -16.32 61.36 -17 60 C-18.21042969 60.98226562 -18.21042969 60.98226562 -19.4453125 61.984375 C-23.47595619 64.67147079 -27.17031644 64.45732504 -31.875 64.25 C-32.65875 64.23195313 -33.4425 64.21390625 -34.25 64.1953125 C-36.16720189 64.14855148 -38.08376715 64.07682003 -40 64 C-40 63.34 -40 62.68 -40 62 C-40.86625 61.835 -41.7325 61.67 -42.625 61.5 C-48.17624088 59.03278183 -50.94633879 54.65379756 -53.15234375 49.09765625 C-54.68005542 43.25498004 -54.32811943 37.11661328 -54.3125 31.125 C-54.32861328 29.89652344 -54.34472656 28.66804688 -54.36132812 27.40234375 C-54.36591877 18.83619279 -53.61097206 11.99325139 -48.875 4.75 C-36.94100319 -6.66512738 -14.59434564 -7.29717282 0 0 Z M-34.4375 12.80859375 C-40.08542913 20.72981435 -38.54288187 32.63211701 -37.6171875 41.78515625 C-36.79891993 46.04739809 -35.49907762 47.46875236 -32 50 C-27.72575346 51.4516309 -24.22326821 51.35082172 -20.0625 49.625 C-17.20037303 48.29810301 -17.20037303 48.29810301 -16 47 C-15.91144839 44.3337397 -15.88475327 41.69352886 -15.90234375 39.02734375 C-15.9037587 38.22970108 -15.90517365 37.43205841 -15.90663147 36.61024475 C-15.91224684 34.05262565 -15.92480188 31.49509282 -15.9375 28.9375 C-15.94251302 27.20768355 -15.94707627 25.47786574 -15.95117188 23.74804688 C-15.96222125 19.49866447 -15.97949614 15.24934688 -16 11 C-18.58445773 10.8918134 -21.16437352 10.81262763 -23.75 10.75 C-24.84441406 10.69972656 -24.84441406 10.69972656 -25.9609375 10.6484375 C-29.50332745 10.58403041 -31.55109841 10.66692078 -34.4375 12.80859375 Z " fill="#FAFAF9" transform="translate(290,22)"/>
<path d="M0 0 C6.24707645 6.79828907 6.68652959 14.49734143 6.515625 23.34765625 C6.50996521 24.46692001 6.50430542 25.58618378 6.49847412 26.73936462 C6.47623251 30.28502687 6.42605731 33.82964748 6.375 37.375 C6.35491929 39.79100095 6.33667129 42.20701786 6.3203125 44.62304688 C6.2764075 50.5199275 6.20746357 56.41603765 6.125 62.3125 C0.845 62.3125 -4.435 62.3125 -9.875 62.3125 C-9.904729 60.36815063 -9.904729 60.36815063 -9.93505859 58.38452148 C-10.01137835 53.55555454 -10.10005469 48.72687857 -10.19238281 43.89819336 C-10.23056383 41.81198896 -10.26543533 39.72572118 -10.296875 37.6394043 C-10.34276227 34.633071 -10.40071733 31.62717001 -10.4609375 28.62109375 C-10.47248871 27.69477646 -10.48403992 26.76845917 -10.49594116 25.81407166 C-10.61274027 20.63894772 -11.04255213 16.17772644 -12.875 11.3125 C-16.06324568 9.71837716 -19.50396662 10.21075265 -23 10.25 C-24.13115234 10.25676758 -24.13115234 10.25676758 -25.28515625 10.26367188 C-27.14847127 10.27546501 -29.01174555 10.29340058 -30.875 10.3125 C-30.88530746 10.94921127 -30.89561493 11.58592255 -30.90623474 12.2419281 C-31.01406331 18.84376798 -31.12867961 25.44546478 -31.24731445 32.04711914 C-31.29073943 34.51388569 -31.33240872 36.98068378 -31.37231445 39.44750977 C-31.42983445 42.98463466 -31.49358075 46.52159966 -31.55859375 50.05859375 C-31.57530624 51.16899521 -31.59201874 52.27939667 -31.60923767 53.42344666 C-31.62918289 54.44442947 -31.64912811 55.46541229 -31.66967773 56.51733398 C-31.68522202 57.42112289 -31.7007663 58.3249118 -31.71678162 59.25608826 C-31.875 61.3125 -31.875 61.3125 -32.875 62.3125 C-38.155 62.3125 -43.435 62.3125 -48.875 62.3125 C-48.875 41.5225 -48.875 20.7325 -48.875 -0.6875 C-32.59347493 -6.7930719 -15.45357674 -9.07057765 0 0 Z " fill="#FAFAF9" transform="translate(349.875,23.6875)"/>
<path d="M0 0 C2.45840605 -0.02691685 4.91651882 -0.04679802 7.375 -0.0625 C8.07367188 -0.07087891 8.77234375 -0.07925781 9.4921875 -0.08789062 C14.7734375 -0.11328125 14.7734375 -0.11328125 17 1 C17.01213028 1.82899055 17.01213028 1.82899055 17.02450562 2.67472839 C17.11065313 8.43385586 17.2101611 14.19264316 17.31738281 19.95141602 C17.35563385 22.09979534 17.39049347 24.24823787 17.421875 26.39672852 C17.46760937 29.48737146 17.52559056 32.57758081 17.5859375 35.66796875 C17.59748871 36.62648239 17.60903992 37.58499603 17.62094116 38.57255554 C17.71381948 45.03056076 17.71381948 45.03056076 20 51 C23.30994713 52.65497356 26.99123 52.10084335 30.625 52.0625 C31.42679688 52.05798828 32.22859375 52.05347656 33.0546875 52.04882812 C35.03649006 52.03703168 37.01825433 52.01909605 39 52 C38.99777939 51.36328873 38.99555878 50.72657745 38.99327087 50.0705719 C38.9712196 43.46884724 38.95609407 36.86713296 38.94506836 30.26538086 C38.94002644 27.79857967 38.93319309 25.33178148 38.92456055 22.86499023 C38.91248875 19.32795471 38.90677044 15.79095855 38.90234375 12.25390625 C38.89718246 11.14350479 38.89202118 10.03310333 38.88670349 8.88905334 C38.88662796 7.86807053 38.88655243 6.84708771 38.88647461 5.79516602 C38.884254 4.89137711 38.88203339 3.9875882 38.87974548 3.05641174 C39 1 39 1 40 0 C44.95 0 49.9 0 55 0 C55 21.12 55 42.24 55 64 C50.545 64.99 50.545 64.99 46 66 C45.67 66.33 45.34 66.66 45 67 C40.87219405 67.3162432 36.74034456 67.3570729 32.6015625 67.4050293 C31.21458813 67.42645908 29.82774335 67.4603816 28.44140625 67.50756836 C20.53031471 67.77424503 14.08494401 67.74427408 7.65039062 62.60620117 C5.67554344 60.68423081 4.209166 58.92251394 3 56.4375 C2.62875 55.71433594 2.2575 54.99117187 1.875 54.24609375 C0.31468515 50.24082125 -0.12505125 46.39401227 -0.11352539 42.11791992 C-0.11344986 41.17732224 -0.11337433 40.23672455 -0.11329651 39.2676239 C-0.10813522 38.2653627 -0.10297394 37.2631015 -0.09765625 36.23046875 C-0.0962413 35.19432938 -0.09482635 34.15819 -0.09336853 33.09065247 C-0.08778242 29.78957196 -0.07523242 26.48855992 -0.0625 23.1875 C-0.05748321 20.94596452 -0.05292061 18.70442798 -0.04882812 16.46289062 C-0.03781753 10.97523716 -0.02109318 5.48762347 0 0 Z " fill="#FAFAF9" transform="translate(76,19)"/>
<path d="M0 0 C1.6640625 1.234375 1.6640625 1.234375 3 3 C3.29296875 5.48046875 3.29296875 5.48046875 3.1875 8.1875 C3.16042969 9.08855469 3.13335937 9.98960938 3.10546875 10.91796875 C3.07066406 11.60503906 3.03585937 12.29210937 3 13 C2.01 13.33 1.02 13.66 0 14 C0 14.66 0 15.32 0 16 C-3.07409699 16.3547035 -5.93685037 16.49999865 -9 16 C-12.29659455 12.7818958 -12.96673731 10.96461809 -13.125 6.375 C-12 3 -12 3 -9.3125 0.5 C-5.50701673 -1.22323771 -3.92701503 -1.30900501 0 0 Z M-9 4 C-9.67958603 6.39719432 -9.67958603 6.39719432 -10 9 C-9.34 9.66 -8.68 10.32 -8 11 C-8 8.69 -8 6.38 -8 4 C-8.33 4 -8.66 4 -9 4 Z M0 5 C-0.66 6.65 -1.32 8.3 -2 10 C-1.01 10 -0.02 10 1 10 C1 8.35 1 6.7 1 5 C0.67 5 0.34 5 0 5 Z M-5 10 C-5 10.99 -5 11.98 -5 13 C-4.34 12.67 -3.68 12.34 -3 12 C-3.66 11.34 -4.32 10.68 -5 10 Z " fill="#FAFAF9" transform="translate(441,70)"/>
</svg>
