<?xml version="1.0" encoding="UTF-8"?>
<svg version="1.1" xmlns="http://www.w3.org/2000/svg" width="296" height="170">
<path d="M0 0 C73.48819926 -0.04033135 73.48819926 -0.04033135 104.10351562 -0.04882812 C111.11173505 -0.05078614 118.11995445 -0.05280666 125.12817383 -0.05493164 C126.00659803 -0.05519539 126.88502223 -0.05545914 127.79006535 -0.05573088 C141.99065629 -0.06008586 156.1912432 -0.06797279 170.39183175 -0.0771528 C184.95430613 -0.08648857 199.51677839 -0.09205545 214.07925564 -0.09408849 C223.07252462 -0.09546388 232.06578222 -0.09981532 241.05904771 -0.10791647 C247.2174489 -0.11318298 253.37584417 -0.11480451 259.53424745 -0.11350138 C263.09277239 -0.11285785 266.65127738 -0.11387717 270.20979881 -0.11920547 C274.05865088 -0.12492675 277.90747652 -0.12300108 281.7563324 -0.12025452 C282.89346741 -0.12316736 284.03060242 -0.1260802 285.20219606 -0.12908131 C286.22482201 -0.12709026 287.24744797 -0.12509921 288.30106258 -0.12304783 C289.19074732 -0.12342755 290.08043205 -0.12380727 290.99707693 -0.1241985 C293 -0 293 -0 294 1 C294.096937 3.15159726 294.12186783 5.30644111 294.12025452 7.46022034 C294.12111053 8.14137405 294.12196655 8.82252777 294.12284851 9.52432251 C294.12451337 11.83077551 294.1189645 14.13715707 294.11352539 16.44360352 C294.11321929 18.11578081 294.11335214 19.78795823 294.11389065 21.46013546 C294.11411719 25.95397195 294.108305 30.44778201 294.10128021 34.94161224 C294.09560168 39.15244127 294.09531799 43.36326375 294.09460449 47.57409668 C294.08934902 59.90356798 294.07538798 72.23303432 294.0625 84.5625 C294.041875 112.096875 294.02125 139.63125 294 168 C196.98 168 99.96 168 0 168 C0 112.56 0 57.12 0 0 Z M37 2 C37 17.84 37 33.68 37 50 C50.53 50 64.06 50 78 50 C78 55.94 78 61.88 78 68 C87.9 68 97.8 68 108 68 C108 67.67 108 67.34 108 67 C103.05 66.01 98.1 65.02 93 64 C92.505 55.09 92.505 55.09 92 46 C99.1875 48.4375 99.1875 48.4375 101.42260742 49.20092773 C107.6912481 51.30796982 112.94225861 52.15462889 119.5625 52.1875 C120.86316406 52.20167969 122.16382812 52.21585938 123.50390625 52.23046875 C126.68701826 52.02063232 128.36406237 51.69692677 131 50 C130.90358163 48.05828035 130.90358163 48.05828035 130 46 C127.68173536 44.57971028 127.68173536 44.57971028 124.75 43.5625 C123.66589844 43.1396875 122.58179687 42.716875 121.46484375 42.28125 C119.18920129 41.43974974 116.91061655 40.60615569 114.62890625 39.78125 C98.68181958 33.92083652 98.68181958 33.92083652 94.71484375 28.12109375 C92.78119081 23.84361906 92.69734114 20.25869842 94.15625 15.8125 C97.21074012 9.25100271 103.80991482 6.86857606 110 4 C111.32 3.34 112.64 2.68 114 2 C88.59 2 63.18 2 37 2 Z M146 2 C149.4298202 3.7149101 152.62001507 4.94130926 156.25 6.125 C158.1475 6.74375 160.045 7.3625 162 8 C162.495 16.91 162.495 16.91 163 26 C155.75 22.5625 155.75 22.5625 153.48730469 21.48266602 C152.88821289 21.20092529 152.28912109 20.91918457 151.671875 20.62890625 C151.0644043 20.34088135 150.45693359 20.05285645 149.83105469 19.75610352 C145.52469949 17.97786591 141.58346821 17.83692675 136.9375 17.8125 C135.70902344 17.79832031 134.48054687 17.78414062 133.21484375 17.76953125 C129.84757578 17.74499425 129.84757578 17.74499425 127 20 C127.44967689 23.04351754 127.44967689 23.04351754 129.54882812 25.16235352 C130.20302734 25.46069092 130.85722656 25.75902832 131.53125 26.06640625 C132.25441406 26.39656738 132.97757813 26.72672852 133.72265625 27.06689453 C137.2659207 28.51869092 140.86202104 29.74721819 144.5 30.9375 C150.59127853 32.99367792 155.68830829 35.31433637 161 39 C161.66 39 162.32 39 163 39 C165.32940704 43.23702845 166.05869236 47.17884148 166 52 C164.38003419 56.76989933 162.19043463 59.26710785 158 62 C155.75265663 63.09351949 153.48827564 64.10370415 151.18359375 65.0703125 C149.08504498 65.96379122 147.04004141 66.9799793 145 68 C168.1 68 191.2 68 215 68 C215 67.67 215 67.34 215 67 C214.04480469 66.78085938 213.08960938 66.56171875 212.10546875 66.3359375 C201.02319634 63.67216482 190.75575716 60.69701989 184.0234375 50.83203125 C182.28783546 47.7251711 181.86464938 45.10894751 181.79467773 41.62036133 C181.7647599 40.29933159 181.7647599 40.29933159 181.73423767 38.95161438 C181.71752518 38.00465195 181.70081268 37.05768951 181.68359375 36.08203125 C181.66281265 35.10965012 181.64203156 34.13726898 181.62062073 33.13542175 C181.55521252 30.02785335 181.49628071 26.92020015 181.4375 23.8125 C181.39430649 21.70637142 181.35069193 19.60025144 181.30664062 17.49414062 C181.19874733 12.32951276 181.09960877 7.16482093 181 2 C169.45 2 157.9 2 146 2 Z M218 2 C217.90796864 7.44518867 217.82839422 12.88765991 217.78027344 18.33300781 C217.76020661 20.18368696 217.73294655 22.03430309 217.69824219 23.88476562 C217.64950567 26.55093977 217.62698213 29.21627287 217.609375 31.8828125 C217.58872986 32.70492218 217.56808472 33.52703186 217.54681396 34.37405396 C217.54473895 39.73360436 218.43696096 42.748999 222 47 C227.28901566 50.83453635 233.63778171 51.13587652 240 51 C245.59095133 50.07581269 250.53874674 48.75922324 254 44 C256.67245484 40.08361697 256.25354012 35.84963298 256.1953125 31.296875 C256.19329834 30.5538916 256.19128418 29.8109082 256.18920898 29.04541016 C256.17877533 26.28021029 256.15085273 23.5150987 256.125 20.75 C256.063125 11.46875 256.063125 11.46875 256 2 C243.46 2 230.92 2 218 2 Z M291 47 C290.29234251 48.1966397 289.60974879 49.40811576 288.9375 50.625 C283.11486739 59.95108105 274.20803095 62.93881031 264 66 C262.33919964 66.36142918 260.67418969 66.70678034 259 67 C259 67.33 259 67.66 259 68 C269.89 68 280.78 68 292 68 C292 61.07 292 54.14 292 47 C291.67 47 291.34 47 291 47 Z M104.46484375 79.96875 C96.6110867 90.85929311 95.93512364 101.98924999 97 115 C97.8308299 118.72970378 99.06029495 121.72234659 101 125 C101.50853516 125.9590625 101.50853516 125.9590625 102.02734375 126.9375 C105.92167834 133.36800267 112.89185998 137.31320685 120 139.375 C128.27844093 140.98423601 137.30495509 140.68365864 145 137 C148.29291149 132.1574831 148.62306451 126.73201907 149 121 C148.34 121 147.68 121 147 121 C146.69707031 121.60328125 146.39414063 122.2065625 146.08203125 122.828125 C143.21672779 128.29424236 140.67870816 132.16064592 135 135 C128.46547198 135.77006222 123.1462853 135.54715924 117.71875 131.62109375 C110.71600422 125.01623126 108.39162261 116.03733954 107.87109375 106.68359375 C107.64987387 97.25962674 108.73823339 86.69662336 115.41796875 79.46484375 C120.27200183 75.18480944 124.52421671 73.52988274 131.015625 73.76171875 C134.31974546 74.15847337 136.28389263 75.06854587 139 77 C141.65121488 80.4394139 143.62673575 83.88020725 145 88 C145.66 88 146.32 88 147 88 C147.02725341 86.2709226 147.04650987 84.54171824 147.0625 82.8125 C147.07410156 81.84957031 147.08570313 80.88664062 147.09765625 79.89453125 C147.00486622 77.14423487 146.62111685 74.67520409 146 72 C131.95086568 67.31695523 114.85152563 68.38848854 104.46484375 79.96875 Z M228 89 C226.89426114 90.25138725 225.81563418 91.5267892 224.75 92.8125 C222.06411771 95.95249023 219.65036367 98.00889254 216 100 C216 100.66 216 101.32 216 102 C217.32 102.33 218.64 102.66 220 103 C220.01458252 103.88260498 220.02916504 104.76520996 220.04418945 105.67456055 C220.10542067 108.96438643 220.1796033 112.2533993 220.26245117 115.54272461 C220.29560557 116.96351202 220.32366692 118.38442813 220.34643555 119.80541992 C220.38015847 121.8539082 220.43247745 123.9012272 220.48828125 125.94921875 C220.51446533 127.17987061 220.54064941 128.41052246 220.56762695 129.6784668 C221.11469041 133.88106329 222.38816324 136.73355683 225.75 139.375 C230.11714407 140.58809558 233.87266836 139.53915861 237.875 137.625 C240.2776723 136.10281879 240.2776723 136.10281879 241 133 C237.7 133 234.4 133 231 133 C230.16897 129.31803434 229.81892266 125.81284545 229.68359375 122.04296875 C229.62075195 120.37524414 229.62075195 120.37524414 229.55664062 118.67382812 C229.51732422 117.52333984 229.47800781 116.37285156 229.4375 115.1875 C229.39431641 114.01767578 229.35113281 112.84785156 229.30664062 111.64257812 C229.20081792 108.76184907 229.09992927 105.88093951 229 103 C232.63 102.67 236.26 102.34 240 102 C240 100.68 240 99.36 240 98 C236.37 98 232.74 98 229 98 C229 95.03 229 92.06 229 89 C228.67 89 228.34 89 228 89 Z M272.375 98.5 C271.55773437 98.9640625 270.74046875 99.428125 269.8984375 99.90625 C269.27195312 100.2671875 268.64546875 100.628125 268 101 C268 101.99 268 102.98 268 104 C268.66 104 269.32 104 270 104 C270 114.23 270 124.46 270 135 C268.02 135.495 268.02 135.495 266 136 C266 136.66 266 137.32 266 138 C272.6 138 279.2 138 286 138 C286 137.34 286 136.68 286 136 C284.02 135.34 282.04 134.68 280 134 C280 124.43 280 114.86 280 105 C281.98 105.66 283.96 106.32 286 107 C289.32696125 106.73981832 289.32696125 106.73981832 292 105 C292.25005386 102.04182893 292.25005386 102.04182893 292 99 C291.34 98.34 290.68 97.68 290 97 C285.49953685 97.25002573 282.58211773 99.41754304 279 102 C279 100.02 279 98.04 279 96 C276.25748805 96 274.74494155 97.14574768 272.375 98.5 Z M154.3828125 104.03125 C150.11643153 111.26240418 150.02349338 118.81377161 151 127 C152.26817816 131.71138812 154.14016342 134.2548083 157.8125 137.4375 C162.82252151 139.8933929 166.22565913 140.52006543 171.625 138.9375 C175.6454516 136.62946297 177.47481387 134.86669126 180 131 C179.96624167 128.67828408 179.96624167 128.67828408 179 127 C178.525625 127.66 178.05125 128.32 177.5625 129 C174.30297322 131.5440209 172.23684246 131.63960788 168.1875 131.453125 C164.61119911 130.71231982 163.1078689 128.87436668 161 126 C158.96542219 122.13430216 158.58355525 118.29617399 158 114 C158.63091553 114.00523682 159.26183105 114.01047363 159.91186523 114.01586914 C162.75373347 114.03657826 165.59558588 114.04964066 168.4375 114.0625 C169.43072266 114.07087891 170.42394531 114.07925781 171.44726562 114.08789062 C172.39150391 114.09111328 173.33574219 114.09433594 174.30859375 114.09765625 C175.18314209 114.10289307 176.05769043 114.10812988 176.95874023 114.11352539 C178.99440206 114.22784809 178.99440206 114.22784809 180 113 C180.4079647 107.79845013 179.96353611 104.34651963 177 100 C168.74918873 94.37444686 160.3699043 96.51123132 154.3828125 104.03125 Z M186.375 98.5 C185.55773437 98.9640625 184.74046875 99.428125 183.8984375 99.90625 C183.27195313 100.2671875 182.64546875 100.628125 182 101 C182 101.99 182 102.98 182 104 C182.66 104 183.32 104 184 104 C184 114.23 184 124.46 184 135 C181.525 135.495 181.525 135.495 179 136 C179 136.66 179 137.32 179 138 C185.27 138 191.54 138 198 138 C198 137.34 198 136.68 198 136 C196.68 135.34 195.36 134.68 194 134 C193.91309747 129.56262288 193.85964074 125.12546366 193.8125 120.6875 C193.78736328 119.42486328 193.76222656 118.16222656 193.73632812 116.86132812 C193.72666016 115.65283203 193.71699219 114.44433594 193.70703125 113.19921875 C193.6913208 112.08377686 193.67561035 110.96833496 193.65942383 109.8190918 C194 107 194 107 195.2878418 105.12426758 C198.05655555 103.30622582 200.79155152 103.81838971 204 104 C206.01689101 107.35232565 206.24620727 109.90627783 206.23046875 113.7890625 C206.22853516 114.89507812 206.22660156 116.00109375 206.22460938 117.140625 C206.20624023 118.86539063 206.20624023 118.86539063 206.1875 120.625 C206.18685547 121.78257813 206.18621094 122.94015625 206.18554688 124.1328125 C206.14040824 132.71918352 206.14040824 132.71918352 205 135 C203.515 135.495 203.515 135.495 202 136 C202 136.66 202 137.32 202 138 C208.27 138 214.54 138 221 138 C221 137.34 221 136.68 221 136 C220.0409375 135.814375 220.0409375 135.814375 219.0625 135.625 C218.381875 135.41875 217.70125 135.2125 217 135 C215.65489081 132.30978163 215.83817769 130.15385064 215.7890625 127.14453125 C215.76070312 125.96439453 215.73234375 124.78425781 215.703125 123.56835938 C215.65145091 121.08412733 215.60706154 118.59973202 215.5703125 116.11523438 C215.40359219 109.7208159 215.23280012 104.59924189 212 99 C209.74169225 97.20892833 208.15181503 97.02471407 205.3125 96.5625 C200.55576859 97.19074754 197.02955726 99.49271993 193 102 C193 100.02 193 98.04 193 96 C190.25748805 96 188.74494155 97.14574768 186.375 98.5 Z M241.3828125 104.03125 C237.17208467 111.16807683 236.92114861 118.90861455 238 127 C240.20436008 132.17224153 242.65401228 136.61632087 248.078125 138.859375 C252.21797529 140.01402712 254.60336424 140.11053784 258.8125 138.9375 C263.07141551 136.34874744 265.45111455 134.05832043 266.75 129.1875 C266.8325 128.465625 266.915 127.74375 267 127 C266.360625 127.66 265.72125 128.32 265.0625 129 C261.47163775 131.3450529 259.35748787 131.64903854 255.15234375 131.453125 C251.5991969 130.70509408 250.09430698 128.85587316 248 126 C245.96542219 122.13430216 245.58355525 118.29617399 245 114 C245.59538574 114.00523682 246.19077148 114.01047363 246.80419922 114.01586914 C249.49445547 114.03661999 252.18469489 114.04965407 254.875 114.0625 C255.81214844 114.07087891 256.74929688 114.07925781 257.71484375 114.08789062 C258.61074219 114.09111328 259.50664062 114.09433594 260.4296875 114.09765625 C261.25710449 114.10289307 262.08452148 114.10812988 262.93701172 114.11352539 C265.06411757 114.13352138 265.06411757 114.13352138 267 113 C267.45647158 107.29410528 266.69917584 104.39901992 263 100 C260.14395381 97.68428687 258.33165241 97.05006074 254.6875 96.5 C248.89363866 97.28560832 245.04532174 99.43099685 241.3828125 104.03125 Z M27.60180664 71.34350586 C23.8244625 75.20024618 22.85928225 79.39459614 21.37109375 84.50390625 C21.05471451 85.53756821 20.73833527 86.57123016 20.41236877 87.63621521 C19.4045032 90.94030613 18.42031692 94.2508814 17.4375 97.5625 C16.44623389 100.84747326 15.45012104 104.13093114 14.45191956 107.4138031 C13.83346627 109.45364945 13.21980948 111.49495884 12.61192322 113.53797913 C11.76427808 116.36650516 10.89221775 119.18522573 10 122 C9.52145065 123.51084671 9.52145065 123.51084671 9.03323364 125.05221558 C8.53737259 126.52478317 8.53737259 126.52478317 8.03149414 128.02709961 C7.73819717 128.9100621 7.44490021 129.7930246 7.14271545 130.70274353 C5.82827672 133.34522365 4.38130073 134.32918438 2 136 C2 136.66 2 137.32 2 138 C7.28 138 12.56 138 18 138 C18 137.34 18 136.68 18 136 C16.02 135.67 14.04 135.34 12 135 C13.98 128.07 15.96 121.14 18 114 C22.95 114 27.9 114 33 114 C33.84226 116.55986879 34.67398551 119.12239015 35.5 121.6875 C35.73847656 122.40873047 35.97695313 123.12996094 36.22265625 123.87304688 C37.44398994 127.69407657 38.32075577 130.93442056 38 135 C36.02 135.495 36.02 135.495 34 136 C34 136.66 34 137.32 34 138 C40.27 138 46.54 138 53 138 C53 138.99 53 139.98 53 141 C36.17 141 19.34 141 2 141 C2 149.25 2 157.5 2 166 C97.7 166 193.4 166 292 166 C292 157.75 292 149.5 292 141 C266.17458643 140.86111672 240.34926279 140.75403789 214.52355099 140.68912697 C202.53225429 140.65818681 190.54119387 140.61600284 178.55004883 140.54736328 C168.0987568 140.48756664 157.64763588 140.44885203 147.19617754 140.43546903 C141.66193591 140.4276458 136.1281838 140.40925554 130.59409904 140.36561966 C125.38443082 140.32487483 120.17545345 140.31233492 114.96564102 140.32135391 C113.05443759 140.31970413 111.1432109 140.30778041 109.23214531 140.28476715 C106.61944864 140.25484975 104.0093497 140.26211045 101.39659119 140.2784729 C100.64268237 140.26099585 99.88877355 140.2435188 99.112019 140.22551215 C93.84519394 140.31448978 91.29042687 141.85739511 87.5805245 145.57019651 C85.0704728 147.8408862 82.2836421 148.51160109 79.0625 149.375 C77.91910156 149.69210938 76.77570313 150.00921875 75.59765625 150.3359375 C74.74042969 150.55507812 73.88320312 150.77421875 73 151 C73.495 155.95 73.495 155.95 74 161 C71.36 161 68.72 161 66 161 C66.8125 158.5625 66.8125 158.5625 68 156 C68.99 155.67 69.98 155.34 71 155 C71 154.34 71 153.68 71 153 C69.35 153.33 67.7 153.66 66 154 C66 153.01 66 152.02 66 151 C66.66 150.67 67.32 150.34 68 150 C64.37 149.01 60.74 148.02 57 147 C57.763125 147.165 58.52625 147.33 59.3125 147.5 C69.07651747 148.82393457 78.27162542 148.6194743 86.5625 142.75 C89.2937698 140.14154898 89.2937698 140.14154898 89.6875 136.375 C89.34871822 132.9563451 89.34871822 132.9563451 87.05859375 131.3203125 C82.10694872 129.18282078 77.10049156 129.52864631 71.7734375 129.47265625 C70.5359375 129.43978516 70.5359375 129.43978516 69.2734375 129.40625 C68.52497559 129.39916016 67.77651367 129.39207031 67.00537109 129.38476562 C64.50495949 128.90501779 63.60653049 127.92147409 62 126 C62.65226562 126.03480469 63.30453125 126.06960937 63.9765625 126.10546875 C70.38057254 126.30382304 74.56957636 125.69533286 79.75 121.625 C83.6858592 116.50838303 83.21550104 111.1657242 83 105 C85.31 105 87.62 105 90 105 C90 103.35 90 101.7 90 100 C88.86111328 99.92652344 88.86111328 99.92652344 87.69921875 99.8515625 C86.70535156 99.77679688 85.71148437 99.70203125 84.6875 99.625 C83.70136719 99.55539063 82.71523437 99.48578125 81.69921875 99.4140625 C79 99 79 99 76 97 C70.44601777 96.31076122 65.52889855 96.2757849 60.4375 98.6875 C55.90232071 102.99010599 54.2098453 106.70464087 54 113 C54.63180122 116.17989208 55.40230385 119.16798264 57 122 C59.02120086 123.28533646 59.02120086 123.28533646 61 124 C58.87219421 126.34058637 56.88437779 127.70700306 54 129 C54.71563266 131.0162233 54.71563266 131.0162233 56 133 C58.05000871 133.80528889 58.05000871 133.80528889 60 134 C60 134.66 60 135.32 60 136 C53.71283527 135.51637194 53.71283527 135.51637194 50.94311523 133.51000977 C48.21017338 129.97974526 47.31219326 126.3609197 46.16015625 122.08984375 C45.91132187 121.20833145 45.66248749 120.32681915 45.40611267 119.41859436 C44.61244752 116.59487605 43.83740363 113.76641743 43.0625 110.9375 C42.54610452 109.09276749 42.02853687 107.24836269 41.50976562 105.40429688 C38.21323545 93.63633711 35.07683151 81.82707758 32 70 C29.83266197 69.83708443 29.83266197 69.83708443 27.60180664 71.34350586 Z M69 157 C69 157.66 69 158.32 69 159 C69.66 159 70.32 159 71 159 C71 158.34 71 157.68 71 157 C70.34 157 69.68 157 69 157 Z " fill="#FFFFFF" transform="translate(1,1)"/>
<path d="M0 0 C2.9375 0.1875 2.9375 0.1875 6 1 C8.46680835 4.40733059 8.33160703 7.90370325 8.375 12 C8.40335938 13.216875 8.43171875 14.43375 8.4609375 15.6875 C8 19 8 19 6.10546875 21.44140625 C4 23 4 23 1.9375 22.9375 C-0.26897672 21.86984997 -1.4937143 20.93665305 -3 19 C-4.65132551 13.67020456 -4.9899033 8.06588515 -2.5625 3 C-1 1 -1 1 0 0 Z " fill="#FFFFFF" transform="translate(68,101)"/>
<path d="M0 0 C0.66 0 1.32 0 2 0 C2.84145956 3.08117427 3.67173062 6.16525621 4.5 9.25 C4.73847656 10.12269531 4.97695313 10.99539062 5.22265625 11.89453125 C5.44824219 12.73886719 5.67382812 13.58320312 5.90625 14.453125 C6.11572266 15.22817383 6.32519531 16.00322266 6.54101562 16.80175781 C7 19 7 19 7 23 C2.71 23 -1.58 23 -6 23 C-5.38334864 17.60607261 -4.12077204 12.71604717 -2.4375 7.5625 C-2.20353516 6.83095703 -1.96957031 6.09941406 -1.72851562 5.34570312 C-1.15732778 3.56219821 -0.57936877 1.78086417 0 0 Z " fill="#FFFFFF" transform="translate(26,87)"/>
<path d="M0 0 C1.15822266 0.00193359 1.15822266 0.00193359 2.33984375 0.00390625 C6.21227902 0.06430819 8.21633068 0.18588712 11.5 2.375 C11.5 3.695 11.5 5.015 11.5 6.375 C5.56 6.375 -0.38 6.375 -6.5 6.375 C-6.17 7.695 -5.84 9.015 -5.5 10.375 C-10.375 7.75 -10.375 7.75 -11.5 4.375 C-9.30627413 -0.86346608 -4.94600458 -0.15688495 0 0 Z " fill="#FFFFFF" transform="translate(72.5,135.625)"/>
<path d="M0 0 C2.6875 0.875 2.6875 0.875 5 2 C5.20086443 5.71599191 5.1519437 6.77208445 3 10 C3.66 10 4.32 10 5 10 C5 9.34 5 8.68 5 8 C5.99 8 6.98 8 8 8 C7.79375 8.763125 7.5875 9.52625 7.375 10.3125 C6.66608797 13.21885944 6.66608797 13.21885944 9 16 C7.23086176 16.22226864 5.45955629 16.42733873 3.6875 16.625 C2.70136719 16.74101562 1.71523437 16.85703125 0.69921875 16.9765625 C-2 17 -2 17 -5 15 C-5.47730962 11.27698497 -5.1387261 10.20808915 -3 7 C-3.020625 6.154375 -3.04125 5.30875 -3.0625 4.4375 C-3.041875 3.633125 -3.02125 2.82875 -3 2 C-2.01 1.34 -1.02 0.68 0 0 Z M0 4 C0 4.66 0 5.32 0 6 C0.66 6 1.32 6 2 6 C2 5.34 2 4.68 2 4 C1.34 4 0.68 4 0 4 Z M-1 10 C-1.33 11.32 -1.66 12.64 -2 14 C-0.68 13.34 0.64 12.68 2 12 C1.01 11.34 0.02 10.68 -1 10 Z " fill="#FFFFFF" transform="translate(140,146)"/>
<path d="M0 0 C6.75 0 6.75 0 10 3 C9.773125 4.0725 9.54625 5.145 9.3125 6.25 C8.63121035 9.91960215 8.63121035 9.91960215 10.4375 12.3125 C10.953125 12.869375 11.46875 13.42625 12 14 C12 14.66 12 15.32 12 16 C7.75177626 15.52797514 5.80010291 13.03344482 3 10 C3 11.98 3 13.96 3 16 C2.01 16 1.02 16 0 16 C0 10.72 0 5.44 0 0 Z M3 3 C3 4.32 3 5.64 3 7 C4.32 6.67 5.64 6.34 7 6 C6.67 5.01 6.34 4.02 6 3 C5.01 3 4.02 3 3 3 Z " fill="#FFFFFF" transform="translate(6,146)"/>
<path d="M0 0 C2.91461599 1.22720673 3.96072328 2.17144656 5.375 5 C5.045 6.65 4.715 8.3 4.375 10 C-2.06 10.495 -2.06 10.495 -8.625 11 C-8.38586492 6.8549919 -8.19807276 4.63674751 -5.375 1.5 C-2.625 0 -2.625 0 0 0 Z " fill="#FFFFFF" transform="translate(255.625,101)"/>
<path d="M0 0 C1.375 1.75 1.375 1.75 2 4 C1.67 5.65 1.34 7.3 1 9 C-5.435 9.495 -5.435 9.495 -12 10 C-11.38976378 3.53149606 -11.38976378 3.53149606 -9.625 1.125 C-6.25446642 -1.20844633 -3.78171076 -1.26057025 0 0 Z " fill="#FFFFFF" transform="translate(172,102)"/>
<path d="M0 0 C1.23556641 0.01740234 1.23556641 0.01740234 2.49609375 0.03515625 C3.32238281 0.04417969 4.14867187 0.05320313 5 0.0625 C5.63808594 0.07410156 6.27617187 0.08570313 6.93359375 0.09765625 C6.93359375 1.08765625 6.93359375 2.07765625 6.93359375 3.09765625 C4.62359375 3.09765625 2.31359375 3.09765625 -0.06640625 3.09765625 C-0.06640625 4.41765625 -0.06640625 5.73765625 -0.06640625 7.09765625 C2.24359375 7.09765625 4.55359375 7.09765625 6.93359375 7.09765625 C6.60359375 8.08765625 6.27359375 9.07765625 5.93359375 10.09765625 C3.95359375 10.09765625 1.97359375 10.09765625 -0.06640625 10.09765625 C0.26359375 11.08765625 0.59359375 12.07765625 0.93359375 13.09765625 C3.90359375 13.59265625 3.90359375 13.59265625 6.93359375 14.09765625 C6.93359375 14.75765625 6.93359375 15.41765625 6.93359375 16.09765625 C3.63359375 16.09765625 0.33359375 16.09765625 -3.06640625 16.09765625 C-3.0932572 13.61841824 -3.11317172 11.13946785 -3.12890625 8.66015625 C-3.14147461 7.59958008 -3.14147461 7.59958008 -3.15429688 6.51757812 C-3.16294213 4.71072066 -3.11860636 2.90378022 -3.06640625 1.09765625 C-2.06640625 0.09765625 -2.06640625 0.09765625 0 0 Z " fill="#FFFFFF" transform="translate(168.06640625,145.90234375)"/>
<path d="M0 0 C0.99 0 1.98 0 3 0 C3.33 1.65 3.66 3.3 4 5 C4.9590625 5.2165625 4.9590625 5.2165625 5.9375 5.4375 C8 6 8 6 9 7 C9.07179964 8.51928038 9.08392007 10.04167482 9.0625 11.5625 C9.05347656 12.38878906 9.04445313 13.21507812 9.03515625 14.06640625 C9.02355469 14.70449219 9.01195313 15.34257812 9 16 C8.01 16 7.02 16 6 16 C6 13.36 6 10.72 6 8 C5.01 8 4.02 8 3 8 C3 10.64 3 13.28 3 16 C2.01 16 1.02 16 0 16 C0 10.72 0 5.44 0 0 Z " fill="#FFFFFF" transform="translate(109,146)"/>
<path d="M0 0 C0.763125 0.20625 1.52625 0.4125 2.3125 0.625 C2.6425 2.605 2.9725 4.585 3.3125 6.625 C1.3325 6.625 -0.6475 6.625 -2.6875 6.625 C-2.6875 7.285 -2.6875 7.945 -2.6875 8.625 C-0.7075 8.295 1.2725 7.965 3.3125 7.625 C3.3125 8.615 3.3125 9.605 3.3125 10.625 C0.5625 11.375 0.5625 11.375 -2.6875 11.625 C-5.125 10.0625 -5.125 10.0625 -6.6875 7.625 C-6.625 4.5 -6.625 4.5 -5.6875 1.625 C-2.6875 -0.375 -2.6875 -0.375 0 0 Z " fill="#FFFFFF" transform="translate(29.6875,151.375)"/>
<path d="M0 0 C2.4375 0.875 2.4375 0.875 4.4375 3.875 C4.4375 4.865 4.4375 5.855 4.4375 6.875 C3.4475 7.205 2.4575 7.535 1.4375 7.875 C2.4275 7.875 3.4175 7.875 4.4375 7.875 C4.1075 8.865 3.7775 9.855 3.4375 10.875 C0.45961118 11.78491047 -0.99747994 12.13460381 -3.875 10.8125 C-5.5625 8.875 -5.5625 8.875 -6 5.875 C-5.5625 2.875 -5.5625 2.875 -4.375 0.9375 C-2.5625 -0.125 -2.5625 -0.125 0 0 Z " fill="#FFFFFF" transform="translate(57.5625,151.125)"/>
<path d="M0 0 C1.875 0.8125 1.875 0.8125 3.875 2.8125 C3.875 4.1325 3.875 5.4525 3.875 6.8125 C1.895 7.1425 -0.085 7.4725 -2.125 7.8125 C-0.145 7.8125 1.835 7.8125 3.875 7.8125 C3.545 8.8025 3.215 9.7925 2.875 10.8125 C0.625 11.5625 0.625 11.5625 -2.125 11.8125 C-4.93210801 9.83993761 -5.96478403 8.63360687 -6.625 5.25 C-6.125 2.8125 -6.125 2.8125 -4.375 0.9375 C-2.125 -0.1875 -2.125 -0.1875 0 0 Z " fill="#FFFFFF" transform="translate(214.125,151.1875)"/>
<path d="M0 0 C2 2 2 2 2.375 4.9375 C2 8 2 8 0.3125 9.9375 C-2.61449654 11.28233625 -3.98584989 11.03115662 -7 10 C-9 8 -9 8 -9.375 5.0625 C-9 2 -9 2 -7.3125 0.0625 C-4.38550346 -1.28233625 -3.01415011 -1.03115662 0 0 Z M-5 2 C-5.33 3.65 -5.66 5.3 -6 7 C-4.68 7.33 -3.36 7.66 -2 8 C-1.67 6.35 -1.34 4.7 -1 3 C-2.32 2.67 -3.64 2.34 -5 2 Z " fill="#FFFFFF" transform="translate(271,152)"/>
<path d="M0 0 C3.125 0.25 3.125 0.25 5 1.25 C6.82988947 4.50313684 6.30628355 7.56390109 6.125 11.25 C5.135 11.25 4.145 11.25 3.125 11.25 C2.795 8.94 2.465 6.63 2.125 4.25 C1.465 4.25 0.805 4.25 0.125 4.25 C-0.205 6.56 -0.535 8.87 -0.875 11.25 C-1.865 11.25 -2.855 11.25 -3.875 11.25 C-3.90188151 9.60425434 -3.92134123 7.95838587 -3.9375 6.3125 C-3.94910156 5.39597656 -3.96070313 4.47945312 -3.97265625 3.53515625 C-3.82640861 0.11296148 -3.46202801 0.30104591 0 0 Z " fill="#FFFFFF" transform="translate(282.875,150.75)"/>
<path d="M0 0 C3.375 -0.125 3.375 -0.125 7 0 C9 2 9 2 9.1953125 4.1640625 C9.17210937 4.97617188 9.14890625 5.78828125 9.125 6.625 C9.10695312 7.44226563 9.08890625 8.25953125 9.0703125 9.1015625 C9.03550781 10.04128906 9.03550781 10.04128906 9 11 C8.01 11 7.02 11 6 11 C6 8.36 6 5.72 6 3 C5.01 3 4.02 3 3 3 C3 5.64 3 8.28 3 11 C2.01 11 1.02 11 0 11 C0 7.37 0 3.74 0 0 Z " fill="#FFFFFF" transform="translate(224,151)"/>
<path d="M0 0 C0.61875 0.33 1.2375 0.66 1.875 1 C3.91018344 2.14193235 3.91018344 2.14193235 6 2 C6.66 1.34 7.32 0.68 8 0 C8.99 0 9.98 0 11 0 C10.649375 0.556875 10.29875 1.11375 9.9375 1.6875 C8.76827359 4.57159181 9.14660484 6.05190765 10 9 C10.33 9.66 10.66 10.32 11 11 C9.68 11 8.36 11 7 11 C6.34 10.34 5.68 9.68 5 9 C4.34 9.66 3.68 10.32 3 11 C2.01 11 1.02 11 0 11 C0.556875 9.6696875 0.556875 9.6696875 1.125 8.3125 C2.10784228 4.59173995 1.76062164 3.32561865 0 0 Z " fill="#FFFFFF" transform="translate(180,151)"/>
<path d="M0 0 C1.67542976 0.28604898 3.34385343 0.61781233 5 1 C4.67 1.99 4.34 2.98 4 4 C4.99 5.485 4.99 5.485 6 7 C5.625 9.1875 5.625 9.1875 5 11 C1.98968256 11.93423645 1.13349732 12.04449911 -2 11 C-2 10.01 -2 9.02 -2 8 C-0.68 8 0.64 8 2 8 C0.68 7.01 -0.64 6.02 -2 5 C-1.125 1.125 -1.125 1.125 0 0 Z " fill="#FFFFFF" transform="translate(241,151)"/>
<path d="M0 0 C0 0.99 0 1.98 0 3 C-0.99 3 -1.98 3 -3 3 C-2.01 3.66 -1.02 4.32 0 5 C-0.33 6.65 -0.66 8.3 -1 10 C-4.75 11.125 -4.75 11.125 -7 10 C-7 9.01 -7 8.02 -7 7 C-6.01 7 -5.02 7 -4 7 C-4.99 6.34 -5.98 5.68 -7 5 C-7.1875 2.375 -7.1875 2.375 -7 0 C-4.3333581 -1.33332095 -2.83319697 -0.67102033 0 0 Z " fill="#FFFFFF" transform="translate(46,152)"/>
<path d="M0 0 C0.763125 0.20625 1.52625 0.4125 2.3125 0.625 C2.3125 1.615 2.3125 2.605 2.3125 3.625 C0.6625 3.625 -0.9875 3.625 -2.6875 3.625 C-2.6875 5.275 -2.6875 6.925 -2.6875 8.625 C-1.0375 8.295 0.6125 7.965 2.3125 7.625 C2.3125 8.615 2.3125 9.605 2.3125 10.625 C0.0625 11.3125 0.0625 11.3125 -2.6875 11.625 C-5 10.1875 -5 10.1875 -6.6875 8.625 C-6.375 5.25 -6.375 5.25 -5.6875 1.625 C-2.6875 -0.375 -2.6875 -0.375 0 0 Z " fill="#FFFFFF" transform="translate(100.6875,151.375)"/>
<path d="M0 0 C2.475 0.99 2.475 0.99 5 2 C5 2.66 5 3.32 5 4 C4.01 4 3.02 4 2 4 C2 5.98 2 7.96 2 10 C2.99 9.67 3.98 9.34 5 9 C5.33 9.99 5.66 10.98 6 12 C3.625 12.625 3.625 12.625 1 13 C-1 11 -1 11 -1.125 7.375 C-1.08375 6.26125 -1.0425 5.1475 -1 4 C-1.66 3.67 -2.32 3.34 -3 3 C-2.01 2.01 -1.02 1.02 0 0 Z " fill="#FFFFFF" transform="translate(198,150)"/>
<path d="M0 0 C1.4540625 0.0309375 1.4540625 0.0309375 2.9375 0.0625 C2.9375 1.3825 2.9375 2.7025 2.9375 4.0625 C1.9475 4.0625 0.9575 4.0625 -0.0625 4.0625 C-0.3925 6.3725 -0.7225 8.6825 -1.0625 11.0625 C-2.0525 11.0625 -3.0425 11.0625 -4.0625 11.0625 C-4.08938151 9.41675434 -4.10884123 7.77088587 -4.125 6.125 C-4.13660156 5.20847656 -4.14820312 4.29195312 -4.16015625 3.34765625 C-4.00919455 -0.18484756 -3.60673121 0.07360676 0 0 Z " fill="#FFFFFF" transform="translate(86.0625,150.9375)"/>
<path d="M0 0 C0.66 0.33 1.32 0.66 2 1 C2 4.3 2 7.6 2 11 C1.01 11 0.02 11 -1 11 C-1.02688151 9.35425434 -1.04634123 7.70838587 -1.0625 6.0625 C-1.07410156 5.14597656 -1.08570313 4.22945312 -1.09765625 3.28515625 C-1 1 -1 1 0 0 Z " fill="#FFFFFF" transform="translate(254,151)"/>
<path d="M0 0 C0.66 0.33 1.32 0.66 2 1 C2 1.66 2 2.32 2 3 C1.01 3 0.02 3 -1 3 C-0.67 2.01 -0.34 1.02 0 0 Z " fill="#FFFFFF" transform="translate(254,147)"/>
<path d="" fill="#FFFFFF" transform="translate(0,0)"/>
</svg>
