<?xml version="1.0" encoding="UTF-8"?>
<svg version="1.1" xmlns="http://www.w3.org/2000/svg" width="277" height="104">
<path d="M0 0 C8.0413798 -0.11639714 16.08240142 -0.20496723 24.12441826 -0.25906086 C27.85961769 -0.28503731 31.59423631 -0.32021169 35.32910156 -0.37719727 C38.94071191 -0.4319507 42.55176743 -0.46151017 46.16376114 -0.47438622 C47.53438158 -0.48354931 48.90497531 -0.50144105 50.27535629 -0.52865028 C60.2555789 -0.71873653 67.63860119 0.54075964 75.4375 7.02734375 C75.953125 7.65769531 76.46875 8.28804687 77 8.9375 C77.53625 9.56527344 78.0725 10.19304688 78.625 10.83984375 C83.10775177 17.88234866 82.70008736 25.95331694 82 34 C80.17496054 40.42216587 75.64132678 45.35867322 71 50 C71.87011719 50.47566406 71.87011719 50.47566406 72.7578125 50.9609375 C79.21028744 54.81538623 83.16708594 58.97842015 86 66 C88.15673393 75.11476838 86.81809512 83.96984146 82 92 C77.97039082 98.23939486 72.24091643 102.17362035 65 104 C56.63701928 104.99030356 48.15024049 104.56626998 39.75 104.375 C37.44404528 104.34485892 35.13805257 104.31749046 32.83203125 104.29296875 C27.22051598 104.22731381 21.61043778 104.12729565 16 104 C14.35902224 99.62054167 12.74105176 95.23476066 11.15405273 90.83544922 C9.71255611 86.86149793 8.16632451 82.94972351 6.55102539 79.04345703 C-0.3405291 61.77139276 -1.10533177 46.31534789 -0.5625 27.875 C-0.51190009 25.15116061 -0.47553288 22.42719046 -0.43945312 19.703125 C-0.34187602 13.13374936 -0.1926118 6.56724232 0 0 Z M29 24 C29 29.28 29 34.56 29 40 C32.2296738 40.08111739 35.45730014 40.14055592 38.6875 40.1875 C39.59951172 40.21263672 40.51152344 40.23777344 41.45117188 40.26367188 C48.28280907 40.41919334 48.28280907 40.41919334 54 37 C54.71243465 34.83929394 54.71243465 34.83929394 54.5 32.5 C54.4896875 31.7265625 54.479375 30.953125 54.46875 30.15625 C53.90174471 27.54802567 53.05649579 26.65326133 51 25 C48.59940183 23.79970092 47.10639351 23.88540257 44.4296875 23.90234375 C43.08583984 23.90717773 43.08583984 23.90717773 41.71484375 23.91210938 C40.77769531 23.92048828 39.84054688 23.92886719 38.875 23.9375 C37.45767578 23.94426758 37.45767578 23.94426758 36.01171875 23.95117188 C33.6744523 23.96297625 31.33721831 23.98091201 29 24 Z M29 63 C29 68.61 29 74.22 29 80 C32.9168502 80.05390161 36.83296001 80.09362783 40.75 80.125 C41.86117187 80.14175781 42.97234375 80.15851563 44.1171875 80.17578125 C45.18710938 80.18222656 46.25703125 80.18867187 47.359375 80.1953125 C48.34389648 80.20578613 49.32841797 80.21625977 50.34277344 80.22705078 C53.12361067 79.9894379 54.70892432 79.57922879 57 78 C58.47931616 74.43619289 59.21729062 72.06230969 58.4375 68.25 C56.63026721 65.4212878 54.99327608 64.49677066 52 63 C49.30135263 62.59216653 49.30135263 62.59216653 46.48046875 62.70703125 C44.9480957 62.7215332 44.9480957 62.7215332 43.38476562 62.73632812 C41.80211914 62.7740332 41.80211914 62.7740332 40.1875 62.8125 C39.11306641 62.82603516 38.03863281 62.83957031 36.93164062 62.85351562 C34.28754459 62.88877024 31.64370744 62.94257434 29 63 Z " fill="#FAFAFA" transform="translate(158,0)"/>
<path d="M0 0 C9.9 0 19.8 0 30 0 C31.27875 3.7125 32.5575 7.425 33.875 11.25 C37.64626514 22.16880354 41.50195255 33.05530014 45.39892578 43.92993164 C48.7131869 53.18175825 51.97107321 62.45217913 55.20751953 71.73144531 C56.52774804 75.5107316 57.85641416 79.28702596 59.1875 83.0625 C59.43226074 83.75762695 59.67702148 84.45275391 59.92919922 85.16894531 C61.68065805 90.13041571 63.48597723 95.07038652 65.3359375 99.99609375 C66 102 66 102 66 104 C55.77 104 45.54 104 35 104 C34.175 101.586875 33.35 99.17375 32.5 96.6875 C32.23896484 95.93170654 31.97792969 95.17591309 31.70898438 94.3972168 C30.72282302 91.47512677 30 89.10385594 30 86 C19.44 86 8.88 86 -2 86 C-2.99 89.63 -3.98 93.26 -5 97 C-5.99 99.31 -6.98 101.62 -8 104 C-17.24 104 -26.48 104 -36 104 C-25.97831422 73.75669132 -25.97831422 73.75669132 -22.25268555 63.33422852 C-20.01494258 57.07303764 -17.85266293 50.78660992 -15.6875 44.5 C-12.18185794 34.3343855 -8.58437962 24.20468191 -4.91870117 14.09570312 C-4.56525635 13.12052734 -4.21181152 12.14535156 -3.84765625 11.140625 C-3.53836182 10.29016602 -3.22906738 9.43970703 -2.91040039 8.56347656 C-1.90143945 5.72247632 -0.9533774 2.86013219 0 0 Z M14 39 C10.54649736 47.19965711 7.76585081 55.54878919 5 64 C10.94 64 16.88 64 23 64 C20.36 55.75 17.72 47.5 15 39 C14.67 39 14.34 39 14 39 Z " fill="#FAFAFA" transform="translate(104,0)"/>
<path d="M0 0 C9.57 0 19.14 0 29 0 C29 26.73 29 53.46 29 81 C41.21 81 53.42 81 66 81 C66 88.59 66 96.18 66 104 C58.13298916 104.11307676 50.26642435 104.2047586 42.39882374 104.25906086 C38.74531107 104.28512695 35.0923844 104.32046776 31.43920898 104.37719727 C27.91191052 104.43162765 24.38517473 104.46144302 20.85748863 104.47438622 C18.86043598 104.48808639 16.86360894 104.52710294 14.86689758 104.56648254 C13.64600937 104.5668602 12.42512115 104.56723785 11.16723633 104.56762695 C10.09468094 104.57873001 9.02212555 104.58983307 7.91706848 104.60127258 C3.78436211 103.74943004 2.41758448 102.44978997 0 99 C-0.691456 95.77204221 -0.63278464 92.63472662 -0.56762695 89.34448242 C-0.56835709 88.3781488 -0.56908722 87.41181519 -0.56983948 86.41619873 C-0.56636178 83.22871365 -0.52749075 80.04269789 -0.48828125 76.85546875 C-0.47895381 74.64301858 -0.47183737 72.43055807 -0.46684265 70.21809387 C-0.44776767 64.39978436 -0.39866165 58.58210064 -0.34332275 52.76403809 C-0.2921416 46.82520005 -0.26933097 40.88626072 -0.24414062 34.94726562 C-0.19054394 23.29785814 -0.10260307 11.64907905 0 0 Z " fill="#FAFAFA" transform="translate(0,0)"/>
<path d="M0 0 C9.57 0 19.14 0 29 0 C29 34.32 29 68.64 29 104 C19.43 104 9.86 104 0 104 C0 69.68 0 35.36 0 0 Z " fill="#FAFAFA" transform="translate(248,0)"/>
</svg>
