<?xml version="1.0" encoding="UTF-8"?>
<svg version="1.1" xmlns="http://www.w3.org/2000/svg" width="331" height="181">
<path d="M0 0 C2.75 1.67578125 2.75 1.67578125 5.125 3.375 C5.805625 3.84292969 6.48625 4.31085937 7.1875 4.79296875 C13.09119716 9.33525299 19.40368637 17.32331731 20.47900391 24.85424805 C21.31143059 43.75298693 19.20189639 57.22598929 6.25 71.4375 C-8.88584028 87.01045088 -26.58216447 96.02217285 -47.5625 101.125 C-48.4294751 101.33600342 -49.2964502 101.54700684 -50.18969727 101.7644043 C-58.93969053 103.78848912 -67.53277508 104.54810145 -76.5 104.4375 C-77.21800781 104.43298828 -77.93601563 104.42847656 -78.67578125 104.42382812 C-80.40889208 104.41227405 -82.1419587 104.39435158 -83.875 104.375 C-83.545 103.385 -83.215 102.395 -82.875 101.375 C-80.50390625 100.19921875 -80.50390625 100.19921875 -77.4375 99.0625 C-70.10089665 96.15751913 -63.39460218 92.64719607 -57.375 87.5 C-54.875 85.375 -54.875 85.375 -52.875 85.375 C-52.38 83.89 -52.38 83.89 -51.875 82.375 C-51.215 82.375 -50.555 82.375 -49.875 82.375 C-49.61589844 81.82199219 -49.35679687 81.26898438 -49.08984375 80.69921875 C-47.22074461 77.12328952 -44.89115358 73.85671252 -42.62890625 70.51953125 C-38.61701608 63.32672148 -37.33926469 56.61932259 -37.4375 48.4375 C-37.44434814 47.55940674 -37.45119629 46.68131348 -37.45825195 45.77661133 C-37.70241031 35.93254856 -40.69745314 28.97813459 -46.875 21.375 C-47.865 20.715 -48.855 20.055 -49.875 19.375 C-48.02195236 11.34512687 -42.39122657 4.97107784 -35.74609375 0.34765625 C-25.70113451 -4.8740449 -10.12908605 -4.91029298 0 0 Z " fill="#FAFAFA" transform="translate(310.875,2.625)"/>
<path d="M0 0 C3.96 0 7.92 0 12 0 C14.70878476 2.73837101 15.88357958 4.26279285 17.5 7.5625 C17.88929687 8.26697266 18.27859375 8.97144531 18.6796875 9.69726562 C19.44760861 11.09524281 20.19685864 12.50366146 20.92578125 13.92236328 C22.51996019 17.00565028 24.26279508 19.99542513 26 23 C28.35517941 20.81357042 29.98630719 18.59648428 31.62890625 15.83984375 C32.10650391 15.04642578 32.58410156 14.25300781 33.07617188 13.43554688 C33.56666016 12.61119141 34.05714844 11.78683594 34.5625 10.9375 C35.54036554 9.29922462 36.52072361 7.66243369 37.50390625 6.02734375 C37.93517822 5.30281006 38.3664502 4.57827637 38.81079102 3.83178711 C40 2 40 2 42 0 C45.96 0 49.92 0 54 0 C54 18.15 54 36.3 54 55 C50.04 55 46.08 55 42 55 C41.67 44.77 41.34 34.54 41 24 C39.205625 26.908125 37.41125 29.81625 35.5625 32.8125 C34.99732666 33.72491455 34.43215332 34.6373291 33.84985352 35.57739258 C33.40569092 36.30079834 32.96152832 37.0242041 32.50390625 37.76953125 C32.04830322 38.50792236 31.5927002 39.24631348 31.12329102 40.00708008 C29.86178354 42.09742155 29.86178354 42.09742155 29 45 C27.68 45 26.36 45 25 45 C23.44433594 43.1640625 23.44433594 43.1640625 21.984375 40.625 C21.50709961 39.81289062 21.02982422 39.00078125 20.53808594 38.1640625 C19.94801758 37.11992188 19.35794922 36.07578125 18.75 35 C15.90375 30.05 15.90375 30.05 13 25 C12.67 34.9 12.34 44.8 12 55 C8.04 55 4.08 55 0 55 C0 36.85 0 18.7 0 0 Z " fill="#FAFAFA" transform="translate(88,49)"/>
<path d="M0 0 C5.74079879 4.44123335 9.74562318 10.9048383 12.02734375 17.75 C12.0947524 19.31118428 12.11248831 20.8750252 12.08984375 22.4375 C12.08082031 23.24574219 12.07179688 24.05398437 12.0625 24.88671875 C12.05089844 25.50160156 12.03929687 26.11648437 12.02734375 26.75 C11.38796875 26.42 10.74859375 26.09 10.08984375 25.75 C4.56361052 23.94551568 -0.10712843 23.81723609 -5.34765625 26.4375 C-10.2830825 30.78537551 -11.70711035 34.82899505 -12.28515625 41.1875 C-12.23902902 47.29935852 -9.9222136 53.02660072 -7.97265625 58.75 C-7.64265625 59.74 -7.31265625 60.73 -6.97265625 61.75 C-17.20612634 60.31404239 -25.9160078 51.10184343 -31.91796875 43.18359375 C-37.94842296 34.31453662 -41.45821018 24.57576085 -39.97265625 13.75 C-38.13326209 6.04536785 -34.53486358 1.14616624 -27.97265625 -3.25 C-18.68882887 -7.89191369 -8.38835945 -5.31539609 0 0 Z " fill="#FAFAFA" transform="translate(255.97265625,24.25)"/>
<path d="M0 0 C3.5879611 2.76072314 6.82459041 5.77729707 10 9 C8.71884363 12.8434691 7.21897877 13.43737861 3.7734375 15.265625 C2 16 2 16 -0.1875 16 C-2.54608438 14.69871207 -4.13274636 12.92748763 -6 11 C-11.42176354 9.19274549 -16.94443734 9.35287842 -22.375 11.0625 C-25.76571462 13.56517031 -27.71842154 16.02566681 -29 20 C-29.75047898 25.20740516 -29.78666112 30.19998247 -27.4375 35 C-24.16635746 39.02602158 -21.16676411 40.55740108 -16.015625 41.27734375 C-11.00126184 41.5202877 -7.4001461 40.37607889 -3 38 C-2.34 37.01 -1.68 36.02 -1 35 C3.19360449 35.67097672 6.40334352 37.8558394 10 40 C7.05216614 46.60770489 1.10350334 50.63520648 -5.48046875 53.3046875 C-12.80469146 55.32594586 -20.14868883 54.81748854 -26.90234375 51.32421875 C-34.83464995 46.31667349 -39.05682192 40.82953424 -42 32 C-42.79001003 22.7659483 -42.30185974 14.39261564 -36.3515625 6.93359375 C-26.7203082 -3.13926828 -12.84510604 -6.14743627 0 0 Z " fill="#FAFAFA" transform="translate(190,51)"/>
<path d="M0 0 C4.12588744 3.368513 4.12588744 3.368513 5.796875 5.38671875 C5.796875 6.70671875 5.796875 8.02671875 5.796875 9.38671875 C-0.5061553 13.38671875 -0.5061553 13.38671875 -3.390625 13.38671875 C-5.74920938 12.08543082 -7.33587136 10.31420638 -9.203125 8.38671875 C-14.67772298 6.56185276 -20.2306417 6.6694521 -25.640625 8.63671875 C-29.6945284 11.40523815 -31.51794843 14.3034242 -32.578125 19.07421875 C-33.5214428 24.44082507 -32.83619264 28.60818858 -30.203125 33.38671875 C-26.06767192 37.62820909 -23.12492826 38.26069886 -17.390625 38.63671875 C-13.01395604 38.57945392 -10.04854445 37.46324525 -6.203125 35.38671875 C-5.543125 34.39671875 -4.883125 33.40671875 -4.203125 32.38671875 C-0.00952051 33.05769547 3.20021852 35.24255815 6.796875 37.38671875 C3.3908808 44.00948525 -1.88830442 47.86797962 -8.6484375 50.65625 C-16.15282306 52.80199939 -23.35410345 52.09252779 -30.2421875 48.51171875 C-30.88929687 48.14046875 -31.53640625 47.76921875 -32.203125 47.38671875 C-33.811875 46.52046875 -33.811875 46.52046875 -35.453125 45.63671875 C-41.37474908 40.79175359 -44.71097834 33.89615562 -45.5390625 26.30859375 C-45.65492451 16.90059822 -44.43697452 9.42645984 -37.765625 2.44921875 C-27.20684092 -7.06038383 -11.81959064 -8.65512577 0 0 Z " fill="#FAFAFA" transform="translate(76.203125,53.61328125)"/>
<path d="M0 0 C2.64 0 5.28 0 8 0 C8 7.59 8 15.18 8 23 C15.92 23 23.84 23 32 23 C32 15.41 32 7.82 32 0 C34.97 0 37.94 0 41 0 C41 18.15 41 36.3 41 55 C38.03 55 35.06 55 32 55 C32 47.08 32 39.16 32 31 C24.08 31 16.16 31 8 31 C8 38.92 8 46.84 8 55 C5.36 55 2.72 55 0 55 C0 36.85 0 18.7 0 0 Z " fill="#FAFAFA" transform="translate(0,126)"/>
<path d="M0 0 C1.2065625 0.9590625 1.2065625 0.9590625 2.4375 1.9375 C2.7675 0.6175 3.0975 -0.7025 3.4375 -2.0625 C6.0775 -2.0625 8.7175 -2.0625 11.4375 -2.0625 C12.68561451 1.68184353 12.58057934 5.1708017 12.5703125 9.0703125 C12.57126923 9.8627536 12.57222595 10.6551947 12.57321167 11.47164917 C12.57389159 13.14434895 12.57205042 14.81705139 12.56787109 16.48974609 C12.56250599 19.05962998 12.56782968 21.62934021 12.57421875 24.19921875 C12.57355821 25.82291705 12.57227756 27.44661525 12.5703125 29.0703125 C12.57233673 29.84319611 12.57436096 30.61607971 12.57644653 31.41238403 C12.55246066 36.82253934 12.55246066 36.82253934 11.4375 37.9375 C8.76691149 38.07865161 6.11317762 37.97997107 3.4375 37.9375 C3.1075 36.9475 2.7775 35.9575 2.4375 34.9375 C1.42623047 35.66259766 1.42623047 35.66259766 0.39453125 36.40234375 C-5.1962334 39.3048147 -11.46412071 38.72083747 -17.5625 37.9375 C-23.01014961 35.71778606 -26.63868777 31.57434731 -28.9375 26.20703125 C-30.5678851 20.28669536 -30.49598394 14.27608052 -28 8.625 C-25.03107846 3.51593714 -20.93012155 0.12131077 -15.6875 -2.5 C-10.05909893 -3.51311219 -4.85164656 -3.22296143 0 0 Z M-19.375 9.9375 C-21.75871412 13.95217641 -21.95158515 17.34629525 -21.5625 21.9375 C-19.30915796 26.27726986 -17.10883071 29.03438482 -12.5625 30.9375 C-7.52693974 31.47702431 -4.61895834 30.97984376 -0.5625 27.9375 C2.86493426 24.9996992 3.37767757 22.66733363 3.75 18.125 C3.67726647 13.72866191 2.38415267 11.27187012 -0.5625 7.9375 C-7.35223199 3.60362852 -13.70177123 3.67738549 -19.375 9.9375 Z " fill="#FAFAFA" transform="translate(122.5625,143.0625)"/>
<path d="M0 0 C4.41943972 3.714115 7.89090664 8.50225313 8.625 14.375 C8.625 16.685 8.625 18.995 8.625 21.375 C-1.935 21.375 -12.495 21.375 -23.375 21.375 C-20.32843069 26.72946316 -20.32843069 26.72946316 -15.375 29.375 C-10.58015598 29.92396246 -6.57024066 29.97292802 -2.375 27.375 C-2.045 26.715 -1.715 26.055 -1.375 25.375 C2.31254757 25.87331724 4.22990662 26.47567643 6.625 29.375 C6.13 30.365 6.13 30.365 5.625 31.375 C4.965 31.375 4.305 31.375 3.625 31.375 C3.625 32.035 3.625 32.695 3.625 33.375 C-1.12724811 37.40538764 -4.7580844 38.00400349 -10.875 37.875 C-11.97521484 37.89820313 -11.97521484 37.89820313 -13.09765625 37.921875 C-19.06986065 37.87914008 -22.64289489 36.02752923 -26.984375 31.8125 C-32.17352203 25.27275305 -33.28608521 20.69009413 -32.375 12.375 C-30.60542252 6.17618067 -26.73376251 1.83775967 -21.375 -1.625 C-14.18172636 -4.74660932 -6.49675861 -4.52474436 0 0 Z M-20.375 7.375 C-23.10725734 10.53314239 -23.10725734 10.53314239 -24.375 14.375 C-16.455 14.375 -8.535 14.375 -0.375 14.375 C-1.47239571 8.88802144 -2.01774692 8.35068503 -6.375 5.375 C-11.36199378 2.88150311 -15.95075482 4.48962271 -20.375 7.375 Z " fill="#FAFAFA" transform="translate(80.375,143.625)"/>
<path d="M0 0 C2.97 0 5.94 0 9 0 C9 5.94 9 11.88 9 18 C10.32 17.01 11.64 16.02 13 15 C18.88126783 13.32963992 23.76919483 13.72011319 29.2109375 16.40625 C33.24441532 19.99939182 34.81825075 23.05525498 35.31591797 28.38037109 C35.39374235 32.40740157 35.34959205 36.41200811 35.25 40.4375 C35.2299083 41.85088621 35.21166223 43.26429993 35.1953125 44.67773438 C35.15151817 48.11906683 35.08263903 51.55935575 35 55 C32.36 55 29.72 55 27 55 C26.98018066 54.16750732 26.96036133 53.33501465 26.93994141 52.47729492 C26.86179258 49.385235 26.77509794 46.29356617 26.68261719 43.2019043 C26.62555908 41.2070464 26.57835558 39.2119146 26.53125 37.21679688 C26.49257812 35.96318359 26.45390625 34.70957031 26.4140625 33.41796875 C26.36693115 31.68196411 26.36693115 31.68196411 26.31884766 29.91088867 C26.20528967 26.80872972 26.20528967 26.80872972 24 24 C19.71106214 23.01565361 17.25049925 22.53785897 13.125 24.0625 C9.08014947 27.75045196 8.87346301 32.39066027 8.5859375 37.6171875 C8.50673678 39.70280644 8.43666141 41.78878885 8.375 43.875 C8.31699219 45.47988281 8.31699219 45.47988281 8.2578125 47.1171875 C8.16397548 49.74462408 8.07828443 52.37206171 8 55 C5.36 55 2.72 55 0 55 C0 36.85 0 18.7 0 0 Z " fill="#FAFAFA" transform="translate(189,126)"/>
<path d="M0 0 C3.63 0 7.26 0 11 0 C11 14.19 11 28.38 11 43 C17.93 43 24.86 43 32 43 C32 46.96 32 50.92 32 55 C21.44 55 10.88 55 0 55 C0 36.85 0 18.7 0 0 Z " fill="#FAFAFA" transform="translate(0,49)"/>
<path d="M0 0 C0 3.3 0 6.6 0 10 C3.63 10 7.26 10 11 10 C11 12.64 11 15.28 11 18 C7.37 18 3.74 18 0 18 C0.33 25.59 0.66 33.18 1 41 C4.3 41.66 7.6 42.32 11 43 C11 45.31 11 47.62 11 50 C9.08364783 50.05423638 7.16685075 50.09289963 5.25 50.125 C4.18265625 50.14820313 3.1153125 50.17140625 2.015625 50.1953125 C-1.06539632 49.99576449 -2.55850953 49.85765579 -5 48 C-8.99653231 42.52160739 -8.3430148 36.60079572 -8.1875 30.125 C-8.17396484 29.05507812 -8.16042969 27.98515625 -8.14648438 26.8828125 C-8.11128624 24.25468489 -8.06204693 21.62760806 -8 19 C-10.31 18.67 -12.62 18.34 -15 18 C-15 15.36 -15 12.72 -15 10 C-12.69 10 -10.38 10 -8 10 C-8 7.36 -8 4.72 -8 2 C-2.25 0 -2.25 0 0 0 Z " fill="#FAFAFA" transform="translate(172,131)"/>
<path d="M0 0 C2.97 0 5.94 0 9 0 C9.02312916 7.28421548 9.04091801 14.5684231 9.05181217 21.85266781 C9.05703975 25.23471813 9.06413511 28.6167434 9.07543945 31.9987793 C9.08834267 35.88329777 9.09322924 39.76780597 9.09765625 43.65234375 C9.10281754 44.87211411 9.10797882 46.09188446 9.11329651 47.34861755 C9.11337204 48.46970413 9.11344757 49.59079071 9.11352539 50.74584961 C9.115746 51.73846298 9.11796661 52.73107635 9.12025452 53.75376892 C9 56 9 56 8 57 C5.36 57 2.72 57 0 57 C0 38.19 0 19.38 0 0 Z " fill="#FAFAFA" transform="translate(143,124)"/>
<path d="M0 0 C1.875 1.5625 1.875 1.5625 3 4 C2.87410213 11.55387207 0.39491327 17.31997801 -4.625 22.9375 C-7 25 -7 25 -9 26 C-12.53396153 21.39048496 -13.13432295 16.66674964 -13 11 C-12.20513262 6.37983335 -11.1598988 3.03780419 -7.625 -0.125 C-4.50518792 -1.16493736 -3.05687869 -1.20666264 0 0 Z " fill="#FAFAFA" transform="translate(262,56)"/>
<path d="M0 0 C0.99 0.33 1.98 0.66 3 1 C2.34 1.66 1.68 2.32 1 3 C0.67 2.01 0.34 1.02 0 0 Z " fill="#FAFAFA" transform="translate(256,80)"/>
<path d="M0 0 C0.66 0 1.32 0 2 0 C1.67 0.66 1.34 1.32 1 2 C0.67 1.34 0.34 0.68 0 0 Z " fill="#FAFAFA" transform="translate(86,170)"/>
<path d="M0 0 C0.66 0 1.32 0 2 0 C1.67 0.66 1.34 1.32 1 2 C0.67 1.34 0.34 0.68 0 0 Z " fill="#FAFAFA" transform="translate(82,167)"/>
<path d="M0 0 C0.99 0.495 0.99 0.495 2 1 C1.01 1.495 1.01 1.495 0 2 C0 1.34 0 0.68 0 0 Z " fill="#FAFAFA" transform="translate(107,152)"/>
<path d="" fill="#FAFAFA" transform="translate(0,0)"/>
<path d="" fill="#FAFAFA" transform="translate(0,0)"/>
</svg>
