<?xml version="1.0" encoding="UTF-8"?>
<svg version="1.1" xmlns="http://www.w3.org/2000/svg" width="236" height="265">
<path d="M0 0 C67.32 0 134.64 0 204 0 C204 77.88 204 155.76 204 236 C136.68 236 69.36 236 0 236 C0 158.12 0 80.24 0 0 Z M25 13 C25 66.46 25 119.92 25 175 C79.78 175 134.56 175 191 175 C191 173.02 191 171.04 191 169 C138.2 169 85.4 169 31 169 C31 117.52 31 66.04 31 13 C29.02 13 27.04 13 25 13 Z M35 25 C35 71.53 35 118.06 35 166 C82.19 166 129.38 166 178 166 C178 156.1 178 146.2 178 136 C169.48651435 136.71167996 169.48651435 136.71167996 161.16943359 137.99633789 C160.16005234 138.19093597 159.15067108 138.38553406 158.11070251 138.58602905 C156.52063133 138.90115952 156.52063133 138.90115952 154.8984375 139.22265625 C153.18830223 139.55470566 153.18830223 139.55470566 151.44361877 139.89346313 C147.7530517 140.61131689 144.06403555 141.3368209 140.375 142.0625 C137.8276516 142.55949427 135.28020609 143.05599111 132.73266602 143.55200195 C126.36000848 144.79393047 119.9885513 146.04190247 113.61737061 147.29138184 C108.12206207 148.3678752 102.62553709 149.43809486 97.12890625 150.5078125 C87.75159196 152.33338214 78.37534002 154.16431947 69 156 C71.72117591 154.18588273 73.82009192 153.24609516 76.87109375 152.1796875 C77.8976709 151.8175415 78.92424805 151.45539551 79.98193359 151.08227539 C81.12227051 150.68387451 82.26260742 150.28547363 83.4375 149.875 C85.98093484 148.97655002 88.52395107 148.07699287 91.06640625 147.17578125 C91.7586731 146.93071335 92.45093994 146.68564545 93.16418457 146.43315125 C102.75465314 143.03224973 112.3135041 139.5438195 121.875 136.0625 C122.81507904 135.7203949 123.75515808 135.37828979 124.72372437 135.02581787 C141.15910321 129.04434188 157.58453232 123.03590118 174 117 C174 116.67 174 116.34 174 116 C149.66823165 114.34230878 132.04866928 115.44143437 110.27734375 127.26464844 C105.20594609 129.94995048 99.96067295 132.18265867 94.6875 134.4375 C92.67630983 135.31854891 90.66591007 136.20140402 88.65625 137.0859375 C84.33389831 138.97962791 80.01003349 140.8698353 75.68547058 142.75846863 C73.47552016 143.72360581 71.2657099 144.68906338 69.0559082 145.65454102 C66.19046719 146.90642654 63.32433502 148.15671105 60.45776367 149.40600586 C59.14239744 149.98026493 57.8270483 150.55456316 56.51171875 151.12890625 C55.35115967 151.63494385 54.19060059 152.14098145 52.99487305 152.66235352 C50.62745521 153.71974997 48.30422301 154.81310444 46 156 C50.33188129 148.80053533 55.10284062 142.08082557 60.17504883 135.39404297 C63.99705106 130.35175229 67.74135847 125.26023359 71.4375 120.125 C71.9735083 119.38040527 72.5095166 118.63581055 73.06176758 117.86865234 C74.15387361 116.3503785 75.24558698 114.83182213 76.33691406 113.31298828 C79.15624076 109.39192235 81.98463264 105.47740844 84.8125 101.5625 C85.36083496 100.80283936 85.90916992 100.04317871 86.47412109 99.26049805 C89.32572913 95.31121623 92.1875139 91.36981569 95.0625 87.4375 C99.9340129 80.74949076 104.74816716 74.01036513 109.42797852 67.18652344 C111 65 111 65 112.91381836 62.74316406 C118.65967491 55.63443831 118.87276766 49.80994502 118.4375 40.875 C118.39012695 39.01101562 118.39012695 39.01101562 118.34179688 37.109375 C118.25997806 34.07039044 118.14540146 31.03649371 118 28 C113.9472246 32.95969402 110.48705239 38.19729387 107 43.5625 C106.33427979 44.584646 105.66855957 45.60679199 104.98266602 46.65991211 C100.32452298 53.85409952 95.85429676 61.1398536 91.48583984 68.51245117 C86.12736857 77.53156308 80.46726063 86.35276316 74.80419922 95.18261719 C71.75301137 99.94725965 68.72187658 104.72464163 65.6875 109.5 C60.48299441 117.68263934 55.25667129 125.85076884 50 134 C51.36049033 129.73070911 52.95336908 125.65514828 54.7578125 121.5546875 C55.30263888 120.31000665 55.84739527 119.06529517 56.39208984 117.82055664 C56.67509949 117.17635773 56.95810913 116.53215881 57.24969482 115.86843872 C61.44075408 106.32363077 65.57261926 96.77033531 69.375 87.0625 C72.08299056 80.15448984 75.02721192 73.42769151 78.26171875 66.75 C80.21473367 62.63673519 81.93064687 58.42726771 83.66870117 54.21972656 C84.99039308 51.0232342 86.33051518 47.83507178 87.67578125 44.6484375 C88.11083984 43.61332031 88.54589844 42.57820313 88.99414062 41.51171875 C89.8899329 39.3803967 90.78846959 37.25022647 91.68945312 35.12109375 C92.33237305 33.58775391 92.33237305 33.58775391 92.98828125 32.0234375 C93.37540283 31.10481934 93.76252441 30.18620117 94.16137695 29.23974609 C95.11688451 27.0864316 95.11688451 27.0864316 95 25 C75.2 25 55.4 25 35 25 Z M89 190 C88.34 192.31 87.68 194.62 87 197 C87.804375 196.360625 88.60875 195.72125 89.4375 195.0625 C93 193 93 193 102 192 C102 200.91 102 209.82 102 219 C101.34 219.33 100.68 219.66 100 220 C104.29 220.33 108.58 220.66 113 221 C110.32357511 218.81509993 110.32357511 218.81509993 108 219 C108 210.09 108 201.18 108 192 C118.125 193.125 118.125 193.125 122 196 C121.505 193.03 121.505 193.03 121 190 C110.44 190 99.88 190 89 190 Z M20 191 C21.98 191.99 21.98 191.99 24 193 C24 201.91 24 210.82 24 220 C29.6615625 220.2784375 29.6615625 220.2784375 35.4375 220.5625 C36.62915771 220.62381104 37.82081543 220.68512207 39.04858398 220.74829102 C40.44572632 220.81294556 40.44572632 220.81294556 41.87109375 220.87890625 C42.82943115 220.9260376 43.78776855 220.97316895 44.77514648 221.02172852 C46.97347702 221.25991218 46.97347702 221.25991218 48 220 C48.04063832 218.33382885 48.042721 216.66611905 48 215 C46.68 215.99 45.36 216.98 44 218 C40.04 218 36.08 218 32 218 C32 209.42 32 200.84 32 192 C33.65 192 35.3 192 37 192 C37 191.67 37 191.34 37 191 C31.39 191 25.78 191 20 191 Z M59 193 C54.54620237 196.15477332 53.00670135 199.41706371 52.08984375 204.65625 C51.93893026 208.59312353 52.96616938 211.65328618 55 215 C58.99340168 219.10133145 63.10454184 220.88002245 68.828125 221.1171875 C71.55546328 221.12418068 74.27418781 221.08730359 77 221 C77 220.67 77 220.34 77 220 C76.40832031 219.96261719 75.81664063 219.92523438 75.20703125 219.88671875 C70.43227778 219.48947172 66.88075734 219.05756639 63 216 C59.73753424 211.10630136 60.45138188 205.71828884 61 200 C62.50808737 196.35545553 63.51393799 194.73735901 67.046875 192.984375 C68.99558394 192.22424031 70.99650048 191.60104986 73 191 C67.96408131 189.30197661 63.74628505 191.03071479 59 193 Z M132 193 C127.71635369 196.27456566 125.71347538 200.73811904 125 206 C125.75987804 210.62193862 127.07525078 214.02526434 130.3125 217.4375 C136.85723184 221.24257665 142.60132969 221.23696809 150 221 C150 220.67 150 220.34 150 220 C149.40832031 219.96261719 148.81664062 219.92523438 148.20703125 219.88671875 C143.46033751 219.49180622 139.80972926 219.11705121 136 216 C132.89897703 211.12383314 133.41945544 205.5598306 134 200 C135.50840156 196.41754629 136.55566879 194.71940925 140.046875 192.98046875 C141.9963686 192.22348453 143.99689452 191.60093164 146 191 C140.97372491 189.31683629 136.7005701 190.90493229 132 193 Z M165.3125 192.5 C162.90036307 195.1077156 162.58138835 195.6477529 162.375 199 C162.59329524 202.10783489 162.81784215 202.80076486 165 205.1875 C166.68411123 206.20498387 168.38044294 207.20463751 170.11328125 208.13671875 C172.22305459 209.32463731 174.15342073 210.43130402 176 212 C176.5625 215.25 176.5625 215.25 176 218 C175 219 175 219 171.125 219.25 C167.2943362 219.20888375 167.2943362 219.20888375 165.0625 217.625 C164 216 164 216 163 214 C162.34 214.33 161.68 214.66 161 215 C161.66 216.98 162.32 218.96 163 221 C165.06183633 221.08150744 167.12461349 221.1394194 169.1875 221.1875 C170.91033203 221.23970703 170.91033203 221.23970703 172.66796875 221.29296875 C176.33289234 220.97073045 178.09664715 220.21232393 181 218 C183.32877362 215.12405164 183.32877362 215.12405164 182.9375 211.5625 C181.79112798 207.20628634 180.78942852 206.33815802 177 204 C175.58527696 203.34992011 174.16851262 202.70426872 172.75 202.0625 C169.15699893 200.33052406 169.15699893 200.33052406 167.8125 197.5 C168.04052895 194.45961399 168.95447721 193.20916462 171 191 C167.92363751 190.75631692 167.92363751 190.75631692 165.3125 192.5 Z M175 191 C175.61875 191.226875 176.2375 191.45375 176.875 191.6875 C179.61410209 193.37929835 180.05024472 194.99244161 181 198 C181.69159401 196.15274948 181.69159401 196.15274948 182 194 C181.34 193.01 180.68 192.02 180 191 C177.41619823 190.74969023 177.41619823 190.74969023 175 191 Z M78 192 C79.30406884 194.01920337 80.63823419 196.01924973 82 198 C82.33 198 82.66 198 83 198 C83 196.02 83 194.04 83 192 C81.35 192 79.7 192 78 192 Z M151 192 C152.30406884 194.01920337 153.63823419 196.01924973 155 198 C155.33 198 155.66 198 156 198 C156 196.02 156 194.04 156 192 C154.35 192 152.7 192 151 192 Z M48 213 C49 215 49 215 49 215 Z M83 213 C82.38125 213.78375 81.7625 214.5675 81.125 215.375 C79 218 79 218 77 220 C78.65 220 80.3 220 82 220 C83.12516085 218.16715557 83.12516085 218.16715557 84 216 C83.67 215.01 83.34 214.02 83 213 Z M156 213 C155.38125 213.78375 154.7625 214.5675 154.125 215.375 C152 218 152 218 150 220 C151.65 220 153.3 220 155 220 C156.12516085 218.16715557 156.12516085 218.16715557 157 216 C156.67 215.01 156.34 214.02 156 213 Z " fill="#FBFBFB" transform="translate(17,15)"/>
<path d="M0 0 C77.88 0 155.76 0 236 0 C236 87.45 236 174.9 236 265 C158.12 265 80.24 265 0 265 C0 177.55 0 90.1 0 0 Z M3 3 C3 88.47 3 173.94 3 262 C78.9 262 154.8 262 233 262 C233 176.53 233 91.06 233 3 C157.1 3 81.2 3 3 3 Z " fill="#F7F7F7" transform="translate(0,0)"/>
<path d="M0 0 C0.33 0.66 0.66 1.32 1 2 C1.99 2.33 2.98 2.66 4 3 C2.71389867 4.9829888 1.42150861 6.96133376 0.125 8.9375 C-0.59429687 10.03964844 -1.31359375 11.14179688 -2.0546875 12.27734375 C-4 15 -4 15 -6 16 C-5.23757784 12.38944909 -3.87526626 9.14165375 -2.4375 5.75 C-1.98246094 4.67234375 -1.52742188 3.5946875 -1.05859375 2.484375 C-0.70925781 1.66453125 -0.35992187 0.8446875 0 0 Z " fill="#D5D5D5" transform="translate(72,134)"/>
<path d="M0 0 C-0.33 0.99 -0.66 1.98 -1 3 C-4.16015625 3.94921875 -4.16015625 3.94921875 -8.0625 4.6875 C-9.35285156 4.93886719 -10.64320312 5.19023437 -11.97265625 5.44921875 C-12.97167969 5.63097656 -13.97070312 5.81273437 -15 6 C-14.67 5.01 -14.34 4.02 -14 3 C-11.34765625 1.796875 -11.34765625 1.796875 -8.0625 0.75 C-6.44021484 0.21632812 -6.44021484 0.21632812 -4.78515625 -0.328125 C-2 -1 -2 -1 0 0 Z " fill="#D1D1D1" transform="translate(100,166)"/>
<path d="M0 0 C0.66 0.33 1.32 0.66 2 1 C1.505 1.45375 1.01 1.9075 0.5 2.375 C-1.22609337 3.87635519 -1.22609337 3.87635519 -1 6 C-2.98 6.33 -4.96 6.66 -7 7 C-7 6.01 -7 5.02 -7 4 C-4.68806023 1.92722641 -2.97064418 0.99021473 0 0 Z " fill="#E8E8E8" transform="translate(106,162)"/>
<path d="M0 0 C0.66 1.32 1.32 2.64 2 4 C0.35 5.65 -1.3 7.3 -3 9 C-2.30058404 5.85262818 -1.23921302 2.97411124 0 0 Z " fill="#BBBBBB" transform="translate(69,141)"/>
</svg>
