<?xml version="1.0" encoding="UTF-8"?>
<svg version="1.1" xmlns="http://www.w3.org/2000/svg" width="739" height="186">
<path d="M0 0 C28.71 0 57.42 0 87 0 C87 10.56 87 21.12 87 32 C108.45 32 129.9 32 152 32 C152 60.71 152 89.42 152 119 C141.44 119 130.88 119 120 119 C120 140.45 120 161.9 120 184 C91.29 184 62.58 184 33 184 C33 173.44 33 162.88 33 152 C11.55 152 -9.9 152 -32 152 C-32 123.29 -32 94.58 -32 65 C-21.44 65 -10.88 65 0 65 C0 43.55 0 22.1 0 0 Z M34 33 C34 43.89 34 54.78 34 66 C23.11 66 12.22 66 1 66 C1 83.16 1 100.32 1 118 C11.89 118 22.78 118 34 118 C34 128.89 34 139.78 34 151 C51.16 151 68.32 151 86 151 C86 140.11 86 129.22 86 118 C96.89 118 107.78 118 119 118 C119 100.84 119 83.68 119 66 C108.11 66 97.22 66 86 66 C86 55.11 86 44.22 86 33 C68.84 33 51.68 33 34 33 Z " fill="#FFFFFF" transform="translate(32,2)"/>
<path d="M0 0 C6.93 0 13.86 0 21 0 C21 8.58 21 17.16 21 26 C28.59 26 36.18 26 44 26 C44 17.42 44 8.84 44 0 C50.93 0 57.86 0 65 0 C65 23.76 65 47.52 65 72 C58.07 72 51.14 72 44 72 C44 62.43 44 52.86 44 43 C36.41 43 28.82 43 21 43 C21 52.57 21 62.14 21 72 C14.07 72 7.14 72 0 72 C0 48.24 0 24.48 0 0 Z " fill="#FFFFFF" transform="translate(538,114)"/>
<path d="M0 0 C6.93 0 13.86 0 21 0 C21 8.58 21 17.16 21 26 C28.59 26 36.18 26 44 26 C44 17.42 44 8.84 44 0 C50.6 0 57.2 0 64 0 C64 23.76 64 47.52 64 72 C57.4 72 50.8 72 44 72 C44 62.43 44 52.86 44 43 C36.41 43 28.82 43 21 43 C21 52.57 21 62.14 21 72 C14.07 72 7.14 72 0 72 C0 48.24 0 24.48 0 0 Z " fill="#FFFFFF" transform="translate(210,114)"/>
<path d="M0 0 C17.49 0 34.98 0 53 0 C53 5.61 53 11.22 53 17 C42.11 17 31.22 17 20 17 C20 20.3 20 23.6 20 27 C27.59 27 35.18 27 43 27 C43 32.28 43 37.56 43 43 C35.41 43 27.82 43 20 43 C20 46.96 20 50.92 20 55 C31.22 55 42.44 55 54 55 C54 60.61 54 66.22 54 72 C36.18 72 18.36 72 0 72 C0 48.24 0 24.48 0 0 Z " fill="#FFFFFF" transform="translate(287,114)"/>
<path d="M0 0 C6.27 0 12.54 0 19 0 C22.4736974 8.16428053 25.647268 16.36400866 28.57421875 24.73828125 C29.1890789 26.48578926 29.1890789 26.48578926 29.81636047 28.26860046 C30.67423403 30.70916546 31.53043173 33.15032013 32.38500977 35.59204102 C33.69058971 39.3213255 35.00211255 43.04848053 36.31445312 46.77539062 C37.15139149 49.15873135 37.98799191 51.54219078 38.82421875 53.92578125 C39.21381271 55.03319168 39.60340668 56.14060211 40.00480652 57.28157043 C40.36891129 58.32343002 40.73301605 59.36528961 41.1081543 60.4387207 C41.42616501 61.34628616 41.74417572 62.25385162 42.07182312 63.18891907 C43.14189263 66.4297367 44.0624018 69.71840629 45 73 C38.07 73 31.14 73 24 73 C20 62.25 20 62.25 20 60 C12.74 60.33 5.48 60.66 -2 61 C-4.475 66.94 -4.475 66.94 -7 73 C-13.27 73 -19.54 73 -26 73 C-23.74766824 65.23407235 -21.16481546 57.63045762 -18.4375 50.01953125 C-18.00493896 48.80730392 -17.57237793 47.5950766 -17.12670898 46.34611511 C-16.21728202 43.79827453 -15.30608516 41.25107633 -14.39355469 38.7043457 C-13.23041675 35.45782185 -12.07155583 32.20979078 -10.91398621 28.96127796 C-9.79903185 25.8340721 -8.6806288 22.70810353 -7.5625 19.58203125 C-7.14991943 18.42459915 -6.73733887 17.26716705 -6.31225586 16.07466125 C-5.92175049 14.98630478 -5.53124512 13.8979483 -5.12890625 12.77661133 C-4.78931885 11.82748367 -4.44973145 10.87835602 -4.09985352 9.90046692 C-2.83337978 6.56059928 -1.40705148 3.28312012 0 0 Z M8 29 C7.16280617 31.29032311 6.3301071 33.58210957 5.5 35.875 C5.26152344 36.52597656 5.02304687 37.17695313 4.77734375 37.84765625 C3.45122467 41.33457589 3.45122467 41.33457589 3 45 C6.96 45 10.92 45 15 45 C13.35 39.72 11.7 34.44 10 29 C9.34 29 8.68 29 8 29 Z " fill="#FFFFFF" transform="translate(372,113)"/>
<path d="M0 0 C20.46 0 40.92 0 62 0 C62 5.61 62 11.22 62 17 C55.07 17 48.14 17 41 17 C41 35.15 41 53.3 41 72 C34.4 72 27.8 72 21 72 C21 53.85 21 35.7 21 17 C14.07 17 7.14 17 0 17 C0 11.39 0 5.78 0 0 Z " fill="#FFFFFF" transform="translate(469,114)"/>
<path d="M0 0 C5.94 0 11.88 0 18 0 C20.3125 8.4375 20.3125 8.4375 21.02075195 11.03686523 C22.50688799 16.42112324 24.18266013 21.71857813 26 27 C26.176521 26.21761963 26.35304199 25.43523926 26.53491211 24.62915039 C27.3320027 21.10606766 28.1346738 17.58427993 28.9375 14.0625 C29.21529297 12.83080078 29.49308594 11.59910156 29.77929688 10.33007812 C30.04677734 9.16025391 30.31425781 7.99042969 30.58984375 6.78515625 C30.83597412 5.70113525 31.08210449 4.61711426 31.33569336 3.50024414 C32 1 32 1 33 0 C38.94 0 44.88 0 51 0 C51 15.84 51 31.68 51 48 C46.71 48 42.42 48 38 48 C37.67 41.73 37.34 35.46 37 29 C35.39585895 34.87778502 35.39585895 34.87778502 33.79907227 40.75756836 C33.59854248 41.48596924 33.3980127 42.21437012 33.19140625 42.96484375 C32.98717041 43.7137085 32.78293457 44.46257324 32.57250977 45.23413086 C32 47 32 47 31 48 C26.99779347 48.14355117 23.00558317 48.04216403 19 48 C17.02 41.4 15.04 34.8 13 28 C12.67 34.6 12.34 41.2 12 48 C8.04 48 4.08 48 0 48 C0 32.16 0 16.32 0 0 Z " fill="#FFFFFF" transform="translate(462,48)"/>
<path d="M0 0 C6.93 0 13.86 0 21 0 C21 18.15 21 36.3 21 55 C30.9 55 40.8 55 51 55 C51 60.61 51 66.22 51 72 C34.17 72 17.34 72 0 72 C0 48.24 0 24.48 0 0 Z " fill="#FFFFFF" transform="translate(423,114)"/>
<path d="M0 0 C14 0 14 0 17.6328125 3.5078125 C18.51634541 5.01718122 19.34697073 6.55863644 20.125 8.125 C20.55296875 8.88554688 20.9809375 9.64609375 21.421875 10.4296875 C22.22525896 11.85902092 23.00728459 13.30077051 23.75830078 14.75830078 C25.33586511 17.60635341 27.19401738 20.29102607 29 23 C29.33 15.41 29.66 7.82 30 0 C33.96 0 37.92 0 42 0 C42 15.84 42 31.68 42 48 C29 48 29 48 26.1472168 45.98046875 C25.58687744 45.05878906 25.02653809 44.13710937 24.44921875 43.1875 C23.81435547 42.19492188 23.17949219 41.20234375 22.52539062 40.1796875 C21.91888672 39.13039062 21.31238281 38.08109375 20.6875 37 C20.03072266 35.95070312 19.37394531 34.90140625 18.69726562 33.8203125 C17.08983262 31.23903323 15.53907971 28.62260885 14 26 C13.67 33.26 13.34 40.52 13 48 C8.71 48 4.42 48 0 48 C0 32.16 0 16.32 0 0 Z " fill="#FFFFFF" transform="translate(556,48)"/>
<path d="M0 0 C5.9090625 -0.0928125 5.9090625 -0.0928125 11.9375 -0.1875 C13.77235962 -0.22846802 13.77235962 -0.22846802 15.64428711 -0.27026367 C23.31866394 -0.32819055 30.76033204 -0.15867626 36.5 5.4375 C39.23806751 10.115032 39.55369866 14.6140221 39 20 C37.3092229 25.33929611 35.40587404 27.68297535 31 31 C31.6496875 32.14339844 32.299375 33.28679687 32.96875 34.46484375 C33.81261164 35.95566598 34.65635558 37.44655484 35.5 38.9375 C35.92925781 39.69224609 36.35851562 40.44699219 36.80078125 41.22460938 C37.20683594 41.94326172 37.61289062 42.66191406 38.03125 43.40234375 C38.59682617 44.39995728 38.59682617 44.39995728 39.17382812 45.41772461 C40 47 40 47 40 48 C35.05 48 30.1 48 25 48 C23.66141476 45.71125827 22.32898986 43.41930344 21 41.125 C20.6184375 40.47402344 20.236875 39.82304688 19.84375 39.15234375 C17 34.2265625 17 34.2265625 17 32 C16.01 32 15.02 32 14 32 C14 37.28 14 42.56 14 48 C9.38 48 4.76 48 0 48 C0 32.16 0 16.32 0 0 Z M14 11 C14 14.3 14 17.6 14 21 C18.52835713 21.3380749 18.52835713 21.3380749 23 21 C25.37245277 18.90891595 25.37245277 18.90891595 26 16 C25.47924575 13.80192175 25.47924575 13.80192175 24 12 C21.58320293 11.29823412 21.58320293 11.29823412 18.875 11.25 C17.26625 11.1675 15.6575 11.085 14 11 Z " fill="#FFFFFF" transform="translate(377,48)"/>
<path d="M0 0 C5.8655728 6.13839014 8.06952929 13.12658609 7.89453125 21.57421875 C7.11687036 29.98176003 4.06282389 36.25076347 -2.3125 41.8125 C-8.4577577 45.74546493 -15.18184562 45.6847772 -22.3125 44.8125 C-29.4297083 42.79433271 -33.43466813 39.23887108 -37.25390625 32.99609375 C-40.56129792 26.17383565 -40.36727397 17.407821 -38.69921875 10.140625 C-36.40562654 4.28034534 -32.52237654 0.26612814 -27.3125 -3.1875 C-17.74961225 -7.11511461 -8.45640882 -5.58442092 0 0 Z M-24.3125 11.8125 C-25.71303506 14.61357012 -25.5200504 17.00141681 -25.5625 20.125 C-25.58828125 21.25550781 -25.6140625 22.38601562 -25.640625 23.55078125 C-25.28101267 27.12549901 -24.42219196 28.94269843 -22.3125 31.8125 C-19.65750276 33.89856926 -18.24499496 33.81129455 -14.8125 33.75 C-10.64113542 32.6326702 -9.5514588 31.4292796 -7.3125 27.8125 C-5.47437435 22.29812306 -5.58939632 16.74077647 -7.625 11.3125 C-9.23042521 8.59327469 -9.23042521 8.59327469 -12.3125 6.8125 C-18.3034354 6.03589726 -20.53993057 7.15226718 -24.3125 11.8125 Z " fill="#FFFFFF" transform="translate(694.3125,52.1875)"/>
<path d="M0 0 C28.22222222 0 28.22222222 0 36 6 C40.44767214 11.93022951 41.2244869 16.42935341 41.3125 23.6875 C41.34150391 24.46544922 41.37050781 25.24339844 41.40039062 26.04492188 C41.46328373 31.84560164 40.33303044 36.19917445 37 41 C34.78125 43.05859375 34.78125 43.05859375 32.5 44.4375 C31.7471875 44.91058594 30.994375 45.38367188 30.21875 45.87109375 C20.9326681 50.59587838 10.14438762 48 0 48 C0 32.16 0 16.32 0 0 Z M13 12 C13 20.25 13 28.5 13 37 C20.1894084 37.11853008 20.1894084 37.11853008 26 34 C28.69777197 29.83071604 28.55039883 24.80963901 28 20 C26.83152861 16.78670369 25.96350886 14.78508129 23.3125 12.625 C20.11209397 11.6521213 20.11209397 11.6521213 13 12 Z " fill="#FFFFFF" transform="translate(212,48)"/>
<path d="M0 0 C11.55 0 23.1 0 35 0 C35 3.96 35 7.92 35 12 C28.07 12 21.14 12 14 12 C14 13.98 14 15.96 14 18 C18.95 18 23.9 18 29 18 C29 21.63 29 25.26 29 29 C24.05 29 19.1 29 14 29 C14 31.64 14 34.28 14 37 C21.26 37 28.52 37 36 37 C36 40.63 36 44.26 36 48 C24.12 48 12.24 48 0 48 C0 32.16 0 16.32 0 0 Z " fill="#FFFFFF" transform="translate(517,48)"/>
<path d="M0 0 C11.22 0 22.44 0 34 0 C34 3.96 34 7.92 34 12 C27.07 12 20.14 12 13 12 C13 13.98 13 15.96 13 18 C17.95 18 22.9 18 28 18 C28 21.63 28 25.26 28 29 C23.05 29 18.1 29 13 29 C13 31.64 13 34.28 13 37 C20.26 37 27.52 37 35 37 C35 40.63 35 44.26 35 48 C23.45 48 11.9 48 0 48 C0 32.16 0 16.32 0 0 Z " fill="#FFFFFF" transform="translate(257,48)"/>
<path d="M0 0 C3.96 -0.061875 7.92 -0.12375 12 -0.1875 C13.23234375 -0.21481201 14.4646875 -0.24212402 15.734375 -0.27026367 C23.66537574 -0.32997733 29.63513215 0.20787561 35.9375 5.4375 C39.83513171 10.28001212 39.51250403 16.00180474 39 22 C37.2559241 27.2322277 34.7589164 29.32310953 30 32 C24.83608171 33.7213061 19.40708764 33.05353552 14 33 C14 37.95 14 42.9 14 48 C9.38 48 4.76 48 0 48 C0 32.16 0 16.32 0 0 Z M14 11 C14 14.96 14 18.92 14 23 C20.03069724 22.8963516 20.03069724 22.8963516 25.125 20.25 C26.27026433 17.30503457 26.22722732 15.91466488 25 13 C21.09483344 10.65690007 18.79629952 11 14 11 Z " fill="#FFFFFF" transform="translate(295,48)"/>
<path d="M0 0 C4.29 0 8.58 0 13 0 C17.3917708 10.07092524 20.89024894 20.31890435 24.3125 30.75 C24.86741413 32.42982776 25.42274981 34.10951633 25.97851562 35.7890625 C27.32386683 39.85778955 28.66353017 43.92834745 30 48 C25.38 48 20.76 48 16 48 C14.515 43.545 14.515 43.545 13 39 C8.38 39 3.76 39 -1 39 C-1.66 41.97 -2.32 44.94 -3 48 C-7.29 48 -11.58 48 -16 48 C-13.41015461 37.70606578 -9.86636322 27.80253867 -6.3125 17.8125 C-5.69950936 16.08020563 -5.08687628 14.34778468 -4.47460938 12.61523438 C-2.98719046 8.40868595 -1.49494612 4.20387895 0 0 Z M6 19 C5.01 22.3 4.02 25.6 3 29 C5.31 29 7.62 29 10 29 C9.01 25.7 8.02 22.4 7 19 C6.67 19 6.34 19 6 19 Z " fill="#FFFFFF" transform="translate(345,48)"/>
<path d="M0 0 C11.22 0 22.44 0 34 0 C34 3.96 34 7.92 34 12 C27.4 12 20.8 12 14 12 C14 14.64 14 17.28 14 20 C18.62 20 23.24 20 28 20 C28 23.63 28 27.26 28 31 C23.38 31 18.76 31 14 31 C14 36.61 14 42.22 14 48 C9.38 48 4.76 48 0 48 C0 32.16 0 16.32 0 0 Z " fill="#FFFFFF" transform="translate(705,48)"/>
<path d="M0 0 C13.2 0 26.4 0 40 0 C40 3.96 40 7.92 40 12 C35.71 12 31.42 12 27 12 C27 23.88 27 35.76 27 48 C22.38 48 17.76 48 13 48 C13 36.12 13 24.24 13 12 C8.71 12 4.42 12 0 12 C0 8.04 0 4.08 0 0 Z " fill="#FFFFFF" transform="translate(602,48)"/>
<path d="M0 0 C13.2 0 26.4 0 40 0 C40 3.96 40 7.92 40 12 C35.71 12 31.42 12 27 12 C27 23.88 27 35.76 27 48 C22.71 48 18.42 48 14 48 C14 36.12 14 24.24 14 12 C9.38 12 4.76 12 0 12 C0 8.04 0 4.08 0 0 Z " fill="#FFFFFF" transform="translate(418,48)"/>
<path d="M0 0 C7 0 7 0 8.98803711 1.65234375 C9.4960083 2.40644531 10.00397949 3.16054688 10.52734375 3.9375 C11.37329102 5.15566406 11.37329102 5.15566406 12.23632812 6.3984375 C12.79771484 7.25695312 13.35910156 8.11546875 13.9375 9 C14.52595703 9.85851563 15.11441406 10.71703125 15.72070312 11.6015625 C17.16833265 13.72004474 18.58703467 15.85824203 20 18 C20.33 12.06 20.66 6.12 21 0 C22.98 0 24.96 0 27 0 C27 10.23 27 20.46 27 31 C21 31 21 31 18.875 29.09375 C18.25625 28.2378125 17.6375 27.381875 17 26.5 C16.3296875 25.59507813 15.659375 24.69015625 14.96875 23.7578125 C14.3190625 22.84773438 13.669375 21.93765625 13 21 C11.8360474 19.4562832 10.66969862 17.91436752 9.5 16.375 C8.2625 14.704375 8.2625 14.704375 7 13 C6.67 18.94 6.34 24.88 6 31 C4.02 31 2.04 31 0 31 C0 20.77 0 10.54 0 0 Z " fill="#FFFFFF" transform="translate(477,0)"/>
<path d="M0 0 C3.97577369 2.46979881 6.25435647 5.825223 7.36328125 10.3125 C8.27274686 15.88417351 7.74196129 20.36525004 4.859375 25.2734375 C1.0297934 29.2065213 -2.99084592 31.22719278 -8.53515625 31.30859375 C-14.06342322 30.96877524 -17.90684428 30.09416644 -22.140625 26.2734375 C-25.91645063 21.11314247 -25.94456708 15.42806073 -25.140625 9.2734375 C-23.89405195 5.56722839 -22.09644523 2.99114704 -18.9296875 0.61328125 C-13.41109065 -2.03780939 -5.79186387 -1.9658516 0 0 Z M-16.140625 6.2734375 C-18.39820912 10.06035279 -19.15418733 12.48682212 -19.078125 16.8984375 C-18.00705044 20.75430591 -17.16489837 22.63689148 -14.140625 25.2734375 C-11.39232451 26.32822234 -9.06330348 26.66611983 -6.140625 26.2734375 C-2.56327087 24.38090177 -0.43837618 22.16669105 0.859375 18.2734375 C1.22882559 13.28585453 1.04164693 10.22384404 -2.140625 6.2734375 C-7.45640876 2.41949427 -10.64263465 2.72265207 -16.140625 6.2734375 Z " fill="#FFFFFF" transform="translate(271.140625,0.7265625)"/>
<path d="M0 0 C1.13050781 -0.03738281 2.26101563 -0.07476563 3.42578125 -0.11328125 C7.35251958 0.39931094 8.94410345 1.50378449 11.6875 4.3125 C12.5 7.5625 12.5 7.5625 12.6875 10.3125 C10.7075 10.3125 8.7275 10.3125 6.6875 10.3125 C6.3575 8.9925 6.0275 7.6725 5.6875 6.3125 C1.27687864 5.2867741 -1.23880576 5.27565288 -5.3125 7.3125 C-4.9825 8.3025 -4.6525 9.2925 -4.3125 10.3125 C-1.45997616 11.42457925 -1.45997616 11.42457925 1.9375 12.25 C6.75126082 13.50789451 10.12444619 14.75600798 13.6875 18.3125 C14.27071342 21.65272233 14.53571907 23.19204444 13.6875 26.3125 C10.43944321 30.3298334 7.89205405 31.56781229 2.8125 32.3125 C-2.3106517 32.58295296 -5.74661754 31.63549283 -10.3125 29.3125 C-12.80752147 26.97341737 -13.26735622 25.97460876 -13.5 22.5625 C-13.438125 21.82 -13.37625 21.0775 -13.3125 20.3125 C-10.5 20 -10.5 20 -7.3125 20.3125 C-6.838125 21.116875 -6.36375 21.92125 -5.875 22.75 C-4.48593301 25.6879037 -4.48593301 25.6879037 -0.875 26.25 C2.49552824 26.30913207 3.95825574 26.1683861 6.6875 24.3125 C6.3575 22.9925 6.0275 21.6725 5.6875 20.3125 C4.72328125 20.07015625 3.7590625 19.8278125 2.765625 19.578125 C0.87070312 19.07539062 0.87070312 19.07539062 -1.0625 18.5625 C-2.31546875 18.23765625 -3.5684375 17.9128125 -4.859375 17.578125 C-8.39455834 16.28242432 -10.05461728 15.2857515 -12.3125 12.3125 C-12.8125 8.8125 -12.8125 8.8125 -12.3125 5.3125 C-8.62083813 0.63639496 -5.79094246 0.12460692 0 0 Z " fill="#FFFFFF" transform="translate(375.3125,-0.3125)"/>
<path d="M0 0 C1.4540625 0.0309375 1.4540625 0.0309375 2.9375 0.0625 C16.9375 27.74270305 16.9375 27.74270305 16.9375 31.0625 C14.2975 31.0625 11.6575 31.0625 8.9375 31.0625 C7.9475 28.0925 6.9575 25.1225 5.9375 22.0625 C1.9775 22.0625 -1.9825 22.0625 -6.0625 22.0625 C-6.3925 23.7125 -6.7225 25.3625 -7.0625 27.0625 C-8.125 29.375 -8.125 29.375 -9.0625 31.0625 C-11.3725 31.0625 -13.6825 31.0625 -16.0625 31.0625 C-13.92406945 24.20936945 -11.29188884 17.64600975 -8.4375 11.0625 C-8.03015625 10.10988281 -7.6228125 9.15726563 -7.203125 8.17578125 C-3.71354098 0.07578655 -3.71354098 0.07578655 0 0 Z M-1.0625 10.0625 C-1.7225 12.3725 -2.3825 14.6825 -3.0625 17.0625 C-1.0825 17.0625 0.8975 17.0625 2.9375 17.0625 C2.2775 14.7525 1.6175 12.4425 0.9375 10.0625 C0.2775 10.0625 -0.3825 10.0625 -1.0625 10.0625 Z " fill="#FFFFFF" transform="translate(536.0625,-0.0625)"/>
<path d="M0 0 C2.31 0 4.62 0 7 0 C8.85873821 3.92928436 10.70992725 7.86200819 12.55419922 11.7980957 C13.18266751 13.13663258 13.81318926 14.47420731 14.44580078 15.81079102 C15.35470368 17.73204338 16.2561678 19.65663378 17.15625 21.58203125 C17.70087891 22.73936768 18.24550781 23.8967041 18.80664062 25.08911133 C20 28 20 28 20 31 C17.69 31 15.38 31 13 31 C10 25.375 10 25.375 10 22 C6.04 22 2.08 22 -2 22 C-2.99 24.97 -3.98 27.94 -5 31 C-7.31 31 -9.62 31 -12 31 C-11.34794344 26.98709471 -10.0955448 23.55627121 -8.49609375 19.82421875 C-8.00302734 18.66728516 -7.50996094 17.51035156 -7.00195312 16.31835938 C-6.48568359 15.12017578 -5.96941406 13.92199219 -5.4375 12.6875 C-4.9116721 11.45786919 -4.38627697 10.22805322 -3.86132812 8.99804688 C-2.57846336 5.99684948 -1.29121552 2.99761185 0 0 Z M3 9 C1.74335022 11.90600261 1 13.79604584 1 17 C2.98 17 4.96 17 7 17 C6.01 14.36 5.02 11.72 4 9 C3.67 9 3.34 9 3 9 Z " fill="#FFFFFF" transform="translate(441,0)"/>
<path d="M0 0 C1.98 0 3.96 0 6 0 C6.01981934 0.57967529 6.03963867 1.15935059 6.06005859 1.7565918 C6.15572601 4.40065937 6.26523453 7.0439817 6.375 9.6875 C6.4059375 10.59951172 6.436875 11.51152344 6.46875 12.45117188 C6.65972809 18.98797649 6.65972809 18.98797649 9 25 C12.20373961 26.0446977 14.11653405 26.31040695 17.3125 25.1875 C19.15097822 24.09312675 19.15097822 24.09312675 20 22 C20.15222973 20.33434251 20.24917215 18.66343504 20.31640625 16.9921875 C20.35830078 16.00605469 20.40019531 15.01992187 20.44335938 14.00390625 C20.48267578 12.97136719 20.52199219 11.93882813 20.5625 10.875 C20.60568359 9.83472656 20.64886719 8.79445313 20.69335938 7.72265625 C20.7996288 5.14857472 20.90166583 2.57439492 21 0 C22.98 0 24.96 0 27 0 C27.08732726 3.89569135 27.14050185 7.79112982 27.1875 11.6875 C27.21263672 12.79029297 27.23777344 13.89308594 27.26367188 15.02929688 C27.27333984 16.09599609 27.28300781 17.16269531 27.29296875 18.26171875 C27.3086792 19.24100342 27.32438965 20.22028809 27.34057617 21.22924805 C26.93580922 24.52222302 25.96262135 26.34441859 24 29 C18.81912017 32.23804989 14.55011721 32.39252823 8.53125 31.6484375 C4.88211412 30.713628 3.16036684 29.02451357 1 26 C-0.01973129 22.94080612 -0.11533602 20.87581975 -0.09765625 17.67578125 C-0.09443359 16.64775391 -0.09121094 15.61972656 -0.08789062 14.56054688 C-0.07951172 13.48869141 -0.07113281 12.41683594 -0.0625 11.3125 C-0.05798828 10.22904297 -0.05347656 9.14558594 -0.04882812 8.02929688 C-0.03703743 5.35280915 -0.02058063 2.67643223 0 0 Z " fill="#FFFFFF" transform="translate(295,0)"/>
<path d="M0 0 C1.98 0 3.96 0 6 0 C6 8.58 6 17.16 6 26 C11.28 26 16.56 26 22 26 C22 27.65 22 29.3 22 31 C14.74 31 7.48 31 0 31 C0 20.77 0 10.54 0 0 Z " fill="#FFFFFF" transform="translate(213,0)"/>
<path d="M0 0 C2.31 0 4.62 0 7 0 C7 10.23 7 20.46 7 31 C4.69 31 2.38 31 0 31 C0 20.77 0 10.54 0 0 Z " fill="#FFFFFF" transform="translate(339,0)"/>
<path d="M0 0 C1.98 0 3.96 0 6 0 C6 10.23 6 20.46 6 31 C4.02 31 2.04 31 0 31 C0 20.77 0 10.54 0 0 Z " fill="#FFFFFF" transform="translate(407,0)"/>
</svg>
