<?xml version="1.0" encoding="UTF-8"?>
<svg version="1.1" xmlns="http://www.w3.org/2000/svg" width="800" height="154">
<path d="M0 0 C11.579089 -0.04643196 23.15815569 -0.08192433 34.73731899 -0.10362434 C40.11454505 -0.11404159 45.4917072 -0.12816314 50.86889648 -0.15087891 C56.06251208 -0.17268075 61.25606636 -0.1845841 66.4497242 -0.18975449 C68.42675809 -0.19343708 70.40378879 -0.20062816 72.38079643 -0.21146011 C75.15945445 -0.22607264 77.93786221 -0.22797388 80.71655273 -0.22705078 C81.52576172 -0.23424133 82.3349707 -0.24143188 83.16870117 -0.24884033 C90.21778519 -0.2236596 96.70962213 0.70586655 103 4 C104.66140763 4.67966676 106.32700041 5.34938905 108 6 C108 6.66 108 7.32 108 8 C109.32 8 110.64 8 112 8 C112 8.66 112 9.32 112 10 C112.66 10.20625 113.32 10.4125 114 10.625 C122.24108401 14.4021635 127.89904873 20.60934492 133 28 C133.33 28.99 133.66 29.98 134 31 C134.98898171 32.0108982 135.99012419 33.00997432 137 34 C148.28549546 50.09686656 148.15694585 75.71332803 144.9375 94.3125 C141.47072017 110.13980789 134.43907947 125.62298418 122.34765625 136.6953125 C120.87205198 137.97960171 120.87205198 137.97960171 120 140 C113.64705882 144 113.64705882 144 110 144 C110 144.66 110 145.32 110 146 C108.95199219 146.40992188 107.90398437 146.81984375 106.82421875 147.2421875 C105.44523991 147.78627439 104.06633764 148.33055538 102.6875 148.875 C101.99720703 149.14441406 101.30691406 149.41382813 100.59570312 149.69140625 C97.48986901 150.92173667 94.79017305 152.13988463 92 154 C88.97890348 154.18491553 86.05123205 154.25206923 83.03051758 154.22705078 C82.11324387 154.22734283 81.19597015 154.22763489 80.25090027 154.22793579 C77.2153481 154.22654111 74.1800406 154.21097333 71.14453125 154.1953125 C69.04131708 154.19158286 66.93810117 154.18873566 64.83488464 154.18673706 C59.29626681 154.17909673 53.75775368 154.15944475 48.21917725 154.1373291 C42.56865862 154.11687932 36.91812309 154.1077372 31.26757812 154.09765625 C20.17833938 154.07619928 9.0891784 154.04205847 -2 154 C-0.66252905 149.83251806 0.82728069 146.35478624 3.125 142.625 C6.00842234 137.8053086 8.59357526 132.91844021 11.0625 127.875 C14.08456991 121.71231894 17.35829771 115.82672367 21 110 C14.07 110 7.14 110 0 110 C-0.649989 106.10006599 -1.12377398 103.13747825 -1.08229065 99.33023071 C-1.07525116 98.44691071 -1.06821167 97.5635907 -1.06095886 96.65350342 C-1.04801285 95.70259827 -1.03506683 94.75169312 -1.02172852 93.77197266 C-1.01212097 92.75672516 -1.00251343 91.74147766 -0.99261475 90.69546509 C-0.95972734 87.35159139 -0.919356 84.00785255 -0.87890625 80.6640625 C-0.85459511 78.340937 -0.83075205 76.01780655 -0.80735779 73.69467163 C-0.74461581 67.58891152 -0.67552119 61.48323923 -0.60510254 55.37756348 C-0.53432974 49.14367665 -0.46956634 42.9097277 -0.40429688 36.67578125 C-0.27541198 24.45045256 -0.13981568 12.22520822 0 0 Z M48 37 C47.90499452 39.46444057 47.87442015 41.90074626 47.88647461 44.36547852 C47.88632858 45.13615662 47.88618256 45.90683472 47.8860321 46.7008667 C47.8867314 49.26024139 47.89452455 51.8195442 47.90234375 54.37890625 C47.90420787 56.14867615 47.9056318 57.91844656 47.90663147 59.68821716 C47.91045712 64.35551366 47.9202878 69.02277923 47.93133545 73.69006348 C47.94154856 78.44897035 47.94612887 83.20788221 47.95117188 87.96679688 C47.96191003 97.31121153 47.97898701 106.6556032 48 116 C55.99054648 119.36871985 64.37767911 118.83113839 72.53515625 116.0546875 C76.94055456 114.16965177 81.20689419 111.94253057 85 109 C85.495 107.515 85.495 107.515 86 106 C86.66 106 87.32 106 88 106 C95.93078859 95.56475186 98.20321889 82.86404394 97 70 C95.81551152 61.99246631 93.32313553 54.26577411 88 48 C87.01 48 86.02 48 85 48 C84.8453125 47.071875 84.8453125 47.071875 84.6875 46.125 C84.12474627 43.63473516 84.12474627 43.63473516 81 42 C80.01 42 79.02 42 78 42 C78 41.34 78 40.68 78 40 C71.77428066 37.09466431 53.3070164 31.6929836 48 37 Z " fill="#FFFFFF" transform="translate(219,0)"/>
<path d="M0 0 C37.29 0 74.58 0 113 0 C110.9621303 6.79289901 108.85674096 13.10647279 106.0625 19.5625 C105.72798828 20.34818359 105.39347656 21.13386719 105.04882812 21.94335938 C102.7519937 27.3203417 100.37519558 32.65580995 98 38 C82.16 38.33 66.32 38.66 50 39 C50 44.61 50 50.22 50 56 C64.19 56 78.38 56 93 56 C95 60 95 60 94.67749023 61.94189453 C94.27832397 62.96452393 94.27832397 62.96452393 93.87109375 64.0078125 C93.57831543 64.79446289 93.28553711 65.58111328 92.98388672 66.39160156 C92.6592041 67.25237305 92.33452148 68.11314453 92 69 C91.35860844 70.93249581 90.72479888 72.86752067 90.09765625 74.8046875 C89.42003363 76.82838058 88.74163818 78.85181503 88.0625 80.875 C87.72798828 81.90625 87.39347656 82.9375 87.04882812 84 C86.71431641 84.98742187 86.37980469 85.97484375 86.03515625 86.9921875 C85.7400415 87.88276855 85.44492676 88.77334961 85.14086914 89.69091797 C83.76291752 92.47984723 82.75134633 93.54536695 80 95 C77.00732422 95.32470703 77.00732422 95.32470703 73.5546875 95.2578125 C72.31332031 95.24363281 71.07195312 95.22945313 69.79296875 95.21484375 C68.50003906 95.18519531 67.20710938 95.15554687 65.875 95.125 C63.30996246 95.08178331 60.74485438 95.04251299 58.1796875 95.0078125 C57.04257324 94.98348145 55.90545898 94.95915039 54.73388672 94.93408203 C52.0350925 94.80515209 52.0350925 94.80515209 50 96 C50 102.27 50 108.54 50 115 C88.115 115.495 88.115 115.495 127 116 C127.33 116.66 127.66 117.32 128 118 C127.23071289 119.91674805 127.23071289 119.91674805 125.97265625 122.26171875 C125.50923828 123.13505859 125.04582031 124.00839844 124.56835938 124.90820312 C124.07142578 125.82537109 123.57449219 126.74253906 123.0625 127.6875 C122.60037109 128.55439453 122.13824219 129.42128906 121.66210938 130.31445312 C120.11504296 133.21336591 118.55716714 136.10650033 117 139 C114.36 143.95 111.72 148.9 109 154 C72.37 154 35.74 154 -2 154 C0.24777222 147.25668333 0.24777222 147.25668333 1.875 144.30859375 C2.22046875 143.67373047 2.5659375 143.03886719 2.921875 142.38476562 C3.27765625 141.74216797 3.6334375 141.09957031 4 140.4375 C6.24455556 136.35907749 8.3854876 132.38104668 10 128 C10.66 128 11.32 128 12 128 C12.2475 127.13375 12.495 126.2675 12.75 125.375 C14.07232314 121.80472753 15.89515356 119.15726966 18 116 C18.66 114.02 19.32 112.04 20 110 C13.73 110 7.46 110 1 110 C-0.17417134 107.65165731 -0.12329052 106.27642522 -0.12025452 103.65939331 C-0.12163201 102.74981306 -0.12300951 101.84023281 -0.12442875 100.90308952 C-0.12083064 99.8985026 -0.11723253 98.89391567 -0.11352539 97.85888672 C-0.11370619 96.25275104 -0.11370619 96.25275104 -0.11389065 94.61416817 C-0.11314216 91.13598707 -0.10551678 87.65785905 -0.09765625 84.1796875 C-0.09618663 82.03719102 -0.09516604 79.89469418 -0.09460449 77.75219727 C-0.08935388 69.79312605 -0.07539277 61.83406251 -0.0625 53.875 C-0.041875 36.09625 -0.02125 18.3175 0 0 Z " fill="#FFFFFF" transform="translate(102,0)"/>
<path d="M0 0 C15.84 0 31.68 0 48 0 C48 38.28 48 76.56 48 116 C69.45 116 90.9 116 113 116 C111.88030619 122.71816284 111.88030619 122.71816284 109.75 125.8125 C107.92173012 128.57579933 106.21336859 131.34149725 104.625 134.25 C102.00957044 139.03107188 99.23718291 143.71395745 96.453125 148.3984375 C94.90004208 150.98897273 94.90004208 150.98897273 94 154 C62.98 154 31.96 154 0 154 C0 103.18 0 52.36 0 0 Z " fill="#FFFFFF" transform="translate(0,0)"/>
<path d="M0 0 C1.37478516 0.01740234 1.37478516 0.01740234 2.77734375 0.03515625 C3.69644531 0.04417969 4.61554687 0.05320312 5.5625 0.0625 C6.27277344 0.07410156 6.98304688 0.08570312 7.71484375 0.09765625 C10.12570775 5.29823431 11.62726223 10.31773028 12.83984375 15.91015625 C13.8631038 21.14180465 13.8631038 21.14180465 15.71484375 26.09765625 C15.88089111 25.41662842 16.04693848 24.73560059 16.21801758 24.03393555 C16.9768812 20.948206 17.75190167 17.86675943 18.52734375 14.78515625 C18.78837891 13.71330078 19.04941406 12.64144531 19.31835938 11.53710938 C19.57939453 10.50908203 19.84042969 9.48105469 20.109375 8.421875 C20.34503174 7.47401123 20.58068848 6.52614746 20.82348633 5.54956055 C21.75906561 2.97601283 22.56229206 1.75911333 24.71484375 0.09765625 C26.94140625 -0.23046875 26.94140625 -0.23046875 29.33984375 -0.15234375 C30.13648438 -0.136875 30.933125 -0.12140625 31.75390625 -0.10546875 C33.71484375 0.09765625 33.71484375 0.09765625 34.71484375 1.09765625 C34.81591249 3.97029681 34.85454047 6.81839253 34.84765625 9.69140625 C34.84861298 10.55326538 34.8495697 11.41512451 34.85055542 12.30310059 C34.85123725 14.12898837 34.84938279 15.95487856 34.84521484 17.78076172 C34.83986661 20.58566703 34.84515974 23.3904122 34.8515625 26.1953125 C34.85090172 27.96484411 34.84962056 29.73437561 34.84765625 31.50390625 C34.84968048 32.3486853 34.85170471 33.19346436 34.85379028 34.06384277 C34.82979406 39.98270594 34.82979406 39.98270594 33.71484375 41.09765625 C31.38186942 41.13858562 29.0477915 41.14007348 26.71484375 41.09765625 C25.87292593 38.17279295 25.59665062 35.59023969 25.6171875 32.55078125 C25.62041016 31.70644531 25.62363281 30.86210937 25.62695312 29.9921875 C25.63533203 29.11949219 25.64371094 28.24679688 25.65234375 27.34765625 C25.65685547 26.45949219 25.66136719 25.57132813 25.66601562 24.65625 C25.67776975 22.46998296 25.69420126 20.28385446 25.71484375 18.09765625 C25.53832275 18.75886475 25.36180176 19.42007324 25.17993164 20.10131836 C24.38257022 23.08021448 23.58002886 26.05769044 22.77734375 29.03515625 C22.49955078 30.07607422 22.22175781 31.11699219 21.93554688 32.18945312 C21.66806641 33.17880859 21.40058594 34.16816406 21.125 35.1875 C20.87886963 36.10394287 20.63273926 37.02038574 20.37915039 37.96459961 C19.71484375 40.09765625 19.71484375 40.09765625 18.71484375 41.09765625 C16.71526011 41.13846408 14.71439121 41.14019981 12.71484375 41.09765625 C10.24273851 36.55011596 8.76756047 32.20003735 7.52734375 27.22265625 C6.92921875 24.87140625 6.33109375 22.52015625 5.71484375 20.09765625 C5.38484375 27.02765625 5.05484375 33.95765625 4.71484375 41.09765625 C2.07484375 41.09765625 -0.56515625 41.09765625 -3.28515625 41.09765625 C-3.3098033 35.41935547 -3.32799087 29.74108556 -3.34008789 24.06274414 C-3.34512881 22.1294704 -3.35196144 20.19620049 -3.3605957 18.26293945 C-3.3726719 15.49038753 -3.37838682 12.71788584 -3.3828125 9.9453125 C-3.38797379 9.07552261 -3.39313507 8.20573273 -3.39845276 7.30958557 C-3.3986481 5.23859811 -3.34723793 3.16771301 -3.28515625 1.09765625 C-2.28515625 0.09765625 -2.28515625 0.09765625 0 0 Z " fill="#FFFFFF" transform="translate(659.28515625,111.90234375)"/>
<path d="M0 0 C3.96 0 7.92 0 12 0 C12.42152344 1.63710938 12.84304688 3.27421875 13.27734375 4.9609375 C13.83061141 7.09898881 14.38400325 9.23700799 14.9375 11.375 C15.21529297 12.45523438 15.49308594 13.53546875 15.77929688 14.6484375 C16.04677734 15.6796875 16.31425781 16.7109375 16.58984375 17.7734375 C16.83597412 18.72653809 17.08210449 19.67963867 17.33569336 20.66162109 C17.9206543 22.99611383 17.9206543 22.99611383 19 25 C19.176521 24.31373535 19.35304199 23.6274707 19.53491211 22.92041016 C20.33344535 19.82133442 21.13542849 16.72316179 21.9375 13.625 C22.21529297 12.54476562 22.49308594 11.46453125 22.77929688 10.3515625 C23.04677734 9.3203125 23.31425781 8.2890625 23.58984375 7.2265625 C23.83597412 6.27346191 24.08210449 5.32036133 24.33569336 4.33837891 C25 2 25 2 26 0 C29.63 0 33.26 0 37 0 C37 13.2 37 26.4 37 40 C34.36 40 31.72 40 29 40 C29 32.41 29 24.82 29 17 C28.195625 20.0525 27.39125 23.105 26.5625 26.25 C26.18460327 27.68327637 26.18460327 27.68327637 25.79907227 29.14550781 C25.59854248 29.90702148 25.3980127 30.66853516 25.19140625 31.453125 C24.88505249 32.61569824 24.88505249 32.61569824 24.57250977 33.80175781 C24.03522409 35.8647515 23.51315644 37.93088729 23 40 C20.36 40 17.72 40 15 40 C14.37222427 38.00086953 13.74792847 36.00064618 13.125 34 C12.77695312 32.88625 12.42890625 31.7725 12.0703125 30.625 C10.93538969 26.78117384 9.97205208 22.88820834 9 19 C8.67 25.93 8.34 32.86 8 40 C5.36 40 2.72 40 0 40 C0 26.8 0 13.6 0 0 Z M7 13 C8 15 8 15 8 15 Z " fill="#FFFFFF" transform="translate(607,57)"/>
<path d="M0 0 C2.61111569 3.00450845 4.42278406 6.38517976 6.3125 9.875 C7.09850586 11.26138672 7.09850586 11.26138672 7.90039062 12.67578125 C8.87231786 14.39065414 9.83414861 16.11131704 10.7824707 17.83935547 C11.77765844 19.60542955 12.87552866 21.313293 14 23 C14 15.41 14 7.82 14 0 C19.625 -1.125 19.625 -1.125 23 0 C23.02464775 5.53588533 23.04283496 11.071739 23.05493164 16.60766602 C23.05997244 18.4924373 23.06680498 20.37720465 23.07543945 22.26196289 C23.08751617 24.96501636 23.09323068 27.66801831 23.09765625 30.37109375 C23.10281754 31.21900986 23.10797882 32.06692596 23.11329651 32.9405365 C23.11349195 34.96071068 23.06206211 36.98077934 23 39 C22 40 22 40 18.828125 40.63671875 C15 40 15 40 13.34960938 38.29541016 C11.68793436 35.85985441 10.2023042 33.37836218 8.75 30.8125 C8.234375 29.94818359 7.71875 29.08386719 7.1875 28.19335938 C6.22391977 26.57290551 5.27054929 24.94630344 4.33105469 23.31176758 C2.91758633 20.85686444 1.45743509 18.42905849 0 16 C-0.33 23.92 -0.66 31.84 -1 40 C-3.31 40 -5.62 40 -8 40 C-9 39 -9 39 -9.11352539 35.30639648 C-9.11336624 33.66128708 -9.10766988 32.01617269 -9.09765625 30.37109375 C-9.0962413 29.50686295 -9.09482635 28.64263214 -9.09336853 27.75221252 C-9.08775239 24.98060708 -9.07519719 22.2090812 -9.0625 19.4375 C-9.05748708 17.5631522 -9.05292381 15.68880315 -9.04882812 13.81445312 C-9.03777772 9.20960456 -9.0205023 4.60481579 -9 0 C-5.56085854 -1.71957073 -3.63499529 -1.13758402 0 0 Z " fill="#FFFFFF" transform="translate(743,113)"/>
<path d="M0 0 C15.25815337 0.05421507 15.25815337 0.05421507 20.46484375 5.08984375 C25.92560074 11.98967082 26.33243764 18.60717887 25.5625 27.25 C24.27232098 32.2411497 22.56471937 35.39704735 18.625 38.75 C12.76676627 41.61933897 7.1420581 41.37446626 0.75 41.3125 C-0.57547852 41.30573242 -0.57547852 41.30573242 -1.92773438 41.29882812 C-4.09768559 41.28709866 -6.26760172 41.26916495 -8.4375 41.25 C-8.46214705 35.57169922 -8.48033462 29.89342931 -8.49243164 24.21508789 C-8.49747256 22.28181415 -8.50430519 20.34854424 -8.51293945 18.4152832 C-8.52501565 15.64273128 -8.53073057 12.87022959 -8.53515625 10.09765625 C-8.54031754 9.22786636 -8.54547882 8.35807648 -8.55079651 7.46192932 C-8.55099185 5.39094186 -8.49958168 3.32005676 -8.4375 1.25 C-6.45594835 -0.73155165 -2.70179254 0.00973838 0 0 Z M-0.4375 8.25 C-0.4375 16.5 -0.4375 24.75 -0.4375 33.25 C9.57131586 34.01289392 9.57131586 34.01289392 14.25 31.5625 C17.05680424 28.7230585 17.07338098 25.68045651 17.25 21.8125 C17.06764469 17.68378877 16.83571787 14.7490076 14.1875 11.5 C8.73163944 6.82354809 8.77050552 8.25 -0.4375 8.25 Z " fill="#FFFFFF" transform="translate(416.4375,111.75)"/>
<path d="M0 0 C4.36775158 3.14884416 7.96773395 6.77820184 9.6875 11.9375 C11.14453124 28.35215575 11.14453124 28.35215575 5.515625 35.23046875 C0.97145041 39.47364032 -3.22423844 41.13244024 -9.4375 41.375 C-15.61348484 41.07281114 -19.39291415 39.15541539 -23.5625 34.625 C-27.7840155 29.3204779 -28.78030171 24.28314871 -28.62890625 17.6015625 C-27.93443673 11.75430059 -25.99814355 6.66636518 -21.875 2.4375 C-14.88481753 -1.65431413 -7.76932785 -2.49204855 0 0 Z M-17.3125 9.9375 C-20.2471796 14.11340474 -20.58554136 18.15861192 -19.875 23.125 C-19.04105502 26.38039968 -18.13463207 28.72704597 -15.75 31.125 C-11.8014948 33.2069391 -9.68531546 33.40892255 -5.3671875 32.66015625 C-1.51310862 31.30463421 -0.05149284 28.41548569 1.6875 24.9375 C2.23394038 19.95683027 2.22954675 16.0416693 0 11.5 C-2.31593019 8.93369898 -4.18232285 7.38219715 -7.3125 5.9375 C-11.4021925 5.9375 -14.22911363 7.36922053 -17.3125 9.9375 Z " fill="#FFFFFF" transform="translate(508.3125,57.0625)"/>
<path d="M0 0 C5.38526652 3.07152161 8.35175217 7.07085886 10.1640625 13.04296875 C11.52642117 19.82929746 11.25355851 27.12173086 7.58203125 33.125 C2.95982057 38.26078965 -1.78497033 41.1200753 -8.73046875 41.5 C-13.69528588 41.34330311 -17.48164291 40.20128826 -21.41796875 37.125 C-26.34751759 31.76679474 -28.71215318 26.40606476 -28.41796875 19.125 C-27.98463364 12.16997145 -26.05514489 7.85970102 -21.3671875 2.71875 C-15.54443997 -2.04213375 -6.94333668 -2.51261295 0 0 Z M-16.41796875 9.125 C-19.85582898 13.78274612 -20.1490765 18.53653253 -19.41796875 24.125 C-18.13576595 27.76915533 -17.0976175 29.57393345 -14.10546875 32 C-10.25107802 33.61346589 -7.19032865 33.73266625 -3.23046875 32.375 C-0.2889006 30.34633231 1.23280202 28.62783071 2.05859375 25.07421875 C2.95817743 18.85035491 2.19542578 14.71795549 -1.16796875 9.3125 C-6.08888492 4.52827594 -10.87191461 5.88108154 -16.41796875 9.125 Z " fill="#FFFFFF" transform="translate(590.41796875,56.875)"/>
<path d="M0 0 C3.9285121 2.94424436 6.2584475 6.74018625 7.79296875 11.34375 C8.90614785 25.7055853 8.90614785 25.7055853 5.23828125 31.65625 C1.59290887 35.91246856 -2.38243184 38.82216204 -7.95703125 39.8515625 C-14.06823595 40.10619603 -19.31878293 39.15680538 -24.20703125 35.34375 C-29.98256019 29.00651126 -30.56737902 23.29748349 -30.48046875 14.8671875 C-30.05036076 9.32493886 -28.62490577 5.57649724 -24.5234375 1.7890625 C-17.16569592 -3.81231496 -8.14685147 -4.55313056 0 0 Z M-17.20703125 6.34375 C-20.66563223 10.28271222 -21.99689309 13.89621242 -22.37890625 19.02734375 C-22.08745145 22.95535962 -20.53212986 26.19580805 -18.20703125 29.34375 C-14.51491255 31.80516247 -11.4934832 32.03025207 -7.20703125 31.34375 C-3.62403014 29.1627928 -1.80195837 27.17157509 -0.20703125 23.34375 C0.76829659 17.82939645 0.37847766 13.44573284 -2.83203125 8.78125 C-5.01618725 6.23735066 -6.05212502 5.40065433 -9.26953125 4.21875 C-12.55898734 4.35872685 -14.38221479 4.63399267 -17.20703125 6.34375 Z " fill="#FFFFFF" transform="translate(464.20703125,2.65625)"/>
<path d="M0 0 C4.18165461 3.13624096 7.57124239 6.95539359 9.5 11.875 C10.32690767 19.43032479 10.82454953 27.01460841 5.99609375 33.29296875 C1.14582436 38.42184369 -2.21626969 40.65967342 -9.3125 41.125 C-14.34553644 41.02228497 -18.43115999 39.80116139 -22.19921875 36.29296875 C-27.94632851 29.90574507 -28.91486831 24.54448308 -28.7421875 16.03515625 C-28.28088336 10.01588125 -26.49988482 6.53961156 -21.9375 2.5 C-15.65049482 -2.55664503 -7.57159025 -2.43372544 0 0 Z M-19.875 12.6875 C-21.24838311 17.49434088 -20.99561307 21.5185853 -19.3125 26.125 C-17.29286821 29.18926892 -15.64435632 30.97376129 -12.5 32.875 C-8.62783925 33.34914213 -5.63965306 33.28206735 -2.5 30.875 C0.8855223 26.26692798 2.16412148 22.75318955 1.890625 17.01953125 C1.10520021 12.70754915 -1.36617284 10.00882716 -4.375 7 C-11.04075903 3.47106875 -15.74249531 7.24010746 -19.875 12.6875 Z " fill="#FFFFFF" transform="translate(605.5,113.125)"/>
<path d="M0 0 C2.4375 2 2.4375 2 4 4 C4 4.99 4 5.98 4 7 C1.75 8.8125 1.75 8.8125 -1 10 C-3.52094064 9.21220605 -5.1790056 7.86937429 -7.3125 6.3125 C-10.88150839 4.5694959 -13.19241761 5.17875674 -17 6 C-17.33 7.32 -17.66 8.64 -18 10 C-13.61022254 11.70713568 -9.2979569 13.20941668 -4.75 14.4375 C1.84029977 16.43179962 1.84029977 16.43179962 4 20 C5.19050658 24.39313695 5.30453873 27.92396316 4.0625 32.3125 C0.56196206 36.87380702 -3.19488618 38.626493 -8.875 39.3828125 C-16.37019013 39.66961824 -22.86974118 38.42802242 -28.74609375 33.55078125 C-30 32 -30 32 -30 29 C-27.60513545 27.13732757 -26.03198116 25.93745569 -22.9375 26.125 C-21 27 -21 27 -19.19921875 28.5390625 C-16.53116695 30.31144505 -15.04422793 30.34460382 -11.875 30.25 C-11.00617187 30.23453125 -10.13734375 30.2190625 -9.2421875 30.203125 C-6.96445628 30.1341831 -6.96445628 30.1341831 -5 29 C-5 27.68 -5 26.36 -5 25 C-9.22602717 22.18264855 -13.59278253 21.90120291 -18.5546875 21.07421875 C-22.58315953 19.81817588 -24.31141124 18.19951984 -27 15 C-28.5547669 11.89046621 -28.28644437 9.43733239 -28 6 C-25.90071096 1.63347879 -23.69373533 -0.85880357 -19.0546875 -2.53125 C-12.15775512 -4.10469465 -6.13869271 -3.43766792 0 0 Z " fill="#FFFFFF" transform="translate(560,3)"/>
<path d="M0 0 C8 0 8 0 9.9621582 1.66479492 C10.40390381 2.42896729 10.84564941 3.19313965 11.30078125 3.98046875 C11.80287109 4.81513672 12.30496094 5.64980469 12.82226562 6.50976562 C13.31404297 7.39341797 13.80582031 8.27707031 14.3125 9.1875 C15.07916992 10.48397461 15.07916992 10.48397461 15.86132812 11.80664062 C16.81565939 13.42614947 17.75825571 15.05267565 18.68481445 16.68823242 C20.08423912 19.14807132 21.54395003 21.57325005 23 24 C23 16.08 23 8.16 23 0 C25.64 0 28.28 0 31 0 C31 13.2 31 26.4 31 40 C24 40 24 40 22.06640625 38.26953125 C21.57011719 37.45871094 21.07382812 36.64789063 20.5625 35.8125 C19.71171875 34.46478516 19.71171875 34.46478516 18.84375 33.08984375 C18.2353125 32.07019531 17.626875 31.05054687 17 30 C16.26279718 28.81232117 15.52312699 27.62617101 14.78125 26.44140625 C12.82267268 23.31187949 10.91502138 20.15810543 9 17 C8.67 24.59 8.34 32.18 8 40 C5.36 40 2.72 40 0 40 C0 26.8 0 13.6 0 0 Z " fill="#FFFFFF" transform="translate(525,57)"/>
<path d="M0 0 C8 0 8 0 9.74682617 1.34179688 C10.09205322 1.96119141 10.43728027 2.58058594 10.79296875 3.21875 C11.19580078 3.90453125 11.59863281 4.5903125 12.01367188 5.296875 C12.40103516 6.02390625 12.78839844 6.7509375 13.1875 7.5 C13.58646484 8.19609375 13.98542969 8.8921875 14.39648438 9.609375 C15.15875669 10.93934932 15.90884471 12.27645269 16.64135742 13.62304688 C18.65448743 17.14502958 20.84993764 20.55990022 23 24 C23 16.08 23 8.16 23 0 C25.64 0 28.28 0 31 0 C31 13.2 31 26.4 31 40 C23 40 23 40 20.80664062 37.88867188 C20.26201172 36.92509766 19.71738281 35.96152344 19.15625 34.96875 C18.55039062 33.93105469 17.94453125 32.89335938 17.3203125 31.82421875 C16.41925781 30.17873047 16.41925781 30.17873047 15.5 28.5 C14.86835937 27.40300781 14.23671875 26.30601563 13.5859375 25.17578125 C12.03057494 22.46567982 10.51172045 19.7346853 9 17 C8.67 24.59 8.34 32.18 8 40 C5.36 40 2.72 40 0 40 C0 26.8 0 13.6 0 0 Z " fill="#FFFFFF" transform="translate(623,1)"/>
<path d="M0 0 C1.16781006 0.00523682 2.33562012 0.01047363 3.53881836 0.01586914 C4.79887695 0.0190918 6.05893555 0.02231445 7.35717773 0.02563477 C8.6976732 0.03399136 10.03816799 0.04245632 11.37866211 0.05102539 C12.72306153 0.05603879 14.06746271 0.06060197 15.41186523 0.06469727 C18.71334151 0.07653051 22.01473014 0.09301568 25.31616211 0.11352539 C25.31616211 2.75352539 25.31616211 5.39352539 25.31616211 8.11352539 C18.38616211 8.11352539 11.45616211 8.11352539 4.31616211 8.11352539 C4.64616211 10.75352539 4.97616211 13.39352539 5.31616211 16.11352539 C11.58616211 16.44352539 17.85616211 16.77352539 24.31616211 17.11352539 C24.31616211 19.09352539 24.31616211 21.07352539 24.31616211 23.11352539 C14.91116211 23.60852539 14.91116211 23.60852539 5.31616211 24.11352539 C4.98616211 27.08352539 4.65616211 30.05352539 4.31616211 33.11352539 C4.97737061 33.10828857 5.6385791 33.10305176 6.31982422 33.09765625 C9.29776062 33.07694883 12.27568193 33.06388527 15.25366211 33.05102539 C16.29458008 33.04264648 17.33549805 33.03426758 18.40795898 33.02563477 C19.39731445 33.02241211 20.38666992 33.01918945 21.40600586 33.01586914 C22.32244873 33.01063232 23.2388916 33.00539551 24.18310547 33 C26.31616211 33.11352539 26.31616211 33.11352539 27.31616211 34.11352539 C27.44116211 37.11352539 27.44116211 37.11352539 27.31616211 40.11352539 C25.45902154 41.97066596 22.39109162 41.2440122 19.90991211 41.24633789 C18.60924805 41.24762695 17.30858398 41.24891602 15.96850586 41.25024414 C15.28771973 41.24814941 14.60693359 41.24605469 13.90551758 41.24389648 C11.82487696 41.23854779 9.74445222 41.24384219 7.66381836 41.25024414 C5.71282227 41.24831055 5.71282227 41.24831055 3.72241211 41.24633789 C2.51907227 41.24520996 1.31573242 41.24408203 0.07592773 41.24291992 C-2.68383789 41.11352539 -2.68383789 41.11352539 -3.68383789 40.11352539 C-3.78490663 37.24088483 -3.82353461 34.39278911 -3.81665039 31.51977539 C-3.81760712 30.65791626 -3.81856384 29.79605713 -3.81954956 28.90808105 C-3.82023139 27.08219327 -3.81837694 25.25630308 -3.81420898 23.43041992 C-3.80886075 20.62551461 -3.81415388 17.82076944 -3.82055664 15.01586914 C-3.81989586 13.24633753 -3.8186147 11.47680603 -3.81665039 9.70727539 C-3.81867462 8.86249634 -3.82069885 8.01771729 -3.82278442 7.14733887 C-3.79445844 0.16050425 -3.79445844 0.16050425 0 0 Z " fill="#FFFFFF" transform="translate(519.683837890625,111.886474609375)"/>
<path d="M0 0 C9.57 0 19.14 0 29 0 C29 2.31 29 4.62 29 7 C22.07 7 15.14 7 8 7 C8 9.97 8 12.94 8 16 C14.6 16 21.2 16 28 16 C28 17.98 28 19.96 28 22 C27 23 27 23 25.14233398 23.11352539 C24.35157471 23.10828857 23.56081543 23.10305176 22.74609375 23.09765625 C21.89208984 23.09443359 21.03808594 23.09121094 20.15820312 23.08789062 C18.81145508 23.07532227 18.81145508 23.07532227 17.4375 23.0625 C16.53580078 23.05798828 15.63410156 23.05347656 14.70507812 23.04882812 C12.47002411 23.03700244 10.23500398 23.01906638 8 23 C8 25.97 8 28.94 8 32 C8.6612085 31.99476318 9.32241699 31.98952637 10.00366211 31.98413086 C12.98159851 31.96342344 15.95951982 31.95035988 18.9375 31.9375 C19.97841797 31.92912109 21.01933594 31.92074219 22.09179688 31.91210938 C23.08115234 31.90888672 24.07050781 31.90566406 25.08984375 31.90234375 C26.46450806 31.89448853 26.46450806 31.89448853 27.86694336 31.88647461 C30 32 30 32 31 33 C31.125 36 31.125 36 31 39 C30 40 30 40 27.13256836 40.11352539 C25.88096924 40.10828857 24.62937012 40.10305176 23.33984375 40.09765625 C22.12417725 40.09515869 20.90851074 40.09266113 19.65600586 40.09008789 C18.09889893 40.08098389 16.54179199 40.07187988 14.9375 40.0625 C10.008125 40.041875 5.07875 40.02125 0 40 C0 26.8 0 13.6 0 0 Z " fill="#FFFFFF" transform="translate(408,57)"/>
<path d="M0 0 C1.21042969 -0.00128906 2.42085937 -0.00257812 3.66796875 -0.00390625 C4.94285156 -0.00003906 6.21773437 0.00382812 7.53125 0.0078125 C9.44357422 0.00201172 9.44357422 0.00201172 11.39453125 -0.00390625 C13.21017578 -0.00197266 13.21017578 -0.00197266 15.0625 0 C16.18205078 0.00112793 17.30160156 0.00225586 18.45507812 0.00341797 C21.03125 0.1328125 21.03125 0.1328125 22.03125 1.1328125 C22.03125 3.4428125 22.03125 5.7528125 22.03125 8.1328125 C15.10125 8.1328125 8.17125 8.1328125 1.03125 8.1328125 C1.36125 10.7728125 1.69125 13.4128125 2.03125 16.1328125 C7.97125 16.1328125 13.91125 16.1328125 20.03125 16.1328125 C20.03125 18.7728125 20.03125 21.4128125 20.03125 24.1328125 C14.09125 24.1328125 8.15125 24.1328125 2.03125 24.1328125 C1.70125 27.1028125 1.37125 30.0728125 1.03125 33.1328125 C8.29125 33.1328125 15.55125 33.1328125 23.03125 33.1328125 C23.03125 35.7728125 23.03125 38.4128125 23.03125 41.1328125 C18.9195244 41.15746996 14.80782722 41.17565209 10.69604492 41.18774414 C9.29629772 41.1927833 7.8965558 41.19961466 6.49682617 41.20825195 C4.48879223 41.2203357 2.48072043 41.22551057 0.47265625 41.23046875 C-0.73704834 41.23570557 -1.94675293 41.24094238 -3.19311523 41.24633789 C-5.96875 41.1328125 -5.96875 41.1328125 -6.96875 40.1328125 C-7.06981874 37.26017194 -7.10844672 34.41207622 -7.1015625 31.5390625 C-7.10251923 30.67720337 -7.10347595 29.81534424 -7.10446167 28.92736816 C-7.1051435 27.10148038 -7.10328904 25.27559019 -7.09912109 23.44970703 C-7.09377286 20.64480172 -7.09906599 17.84005655 -7.10546875 15.03515625 C-7.10480797 13.26562464 -7.10352681 11.49609314 -7.1015625 9.7265625 C-7.10358673 8.88178345 -7.10561096 8.03700439 -7.10769653 7.16662598 C-7.07937972 0.18205439 -6.88372745 0.00693525 0 0 Z " fill="#FFFFFF" transform="translate(705.96875,111.8671875)"/>
<path d="M0 0 C1.21042969 -0.00128906 2.42085938 -0.00257812 3.66796875 -0.00390625 C4.94285156 -0.00003906 6.21773438 0.00382812 7.53125 0.0078125 C9.44357422 0.00201172 9.44357422 0.00201172 11.39453125 -0.00390625 C13.21017578 -0.00197266 13.21017578 -0.00197266 15.0625 0 C16.18205078 0.00112793 17.30160156 0.00225586 18.45507812 0.00341797 C21.03125 0.1328125 21.03125 0.1328125 22.03125 1.1328125 C22.03125 3.4428125 22.03125 5.7528125 22.03125 8.1328125 C15.10125 8.1328125 8.17125 8.1328125 1.03125 8.1328125 C1.03125 11.1028125 1.03125 14.0728125 1.03125 17.1328125 C7.30125 17.1328125 13.57125 17.1328125 20.03125 17.1328125 C20.03125 19.1128125 20.03125 21.0928125 20.03125 23.1328125 C13.76125 23.1328125 7.49125 23.1328125 1.03125 23.1328125 C1.03125 26.4328125 1.03125 29.7328125 1.03125 33.1328125 C8.29125 33.1328125 15.55125 33.1328125 23.03125 33.1328125 C23.03125 35.7728125 23.03125 38.4128125 23.03125 41.1328125 C13.13125 41.1328125 3.23125 41.1328125 -6.96875 41.1328125 C-6.99165685 35.45445853 -7.01158457 29.77626369 -7.02368164 24.09790039 C-7.02872256 22.16462665 -7.03555519 20.23135674 -7.04418945 18.2980957 C-7.05626565 15.52554378 -7.06198057 12.75304209 -7.06640625 9.98046875 C-7.07156754 9.11067886 -7.07672882 8.24088898 -7.08204651 7.34474182 C-7.08224185 5.27375436 -7.03083168 3.20286926 -6.96875 1.1328125 C-5.16595809 -0.66997941 -2.42827299 0.00244645 0 0 Z " fill="#FFFFFF" transform="translate(454.96875,111.8671875)"/>
<path d="M0 0 C1.65 0 3.3 0 5 0 C5 50.82 5 101.64 5 154 C3.35 154 1.7 154 0 154 C0 103.18 0 52.36 0 0 Z " fill="#FFFFFF" transform="translate(384,0)"/>
<path d="M0 0 C2.97 0 5.94 0 9 0 C9.02505615 0.86802246 9.0501123 1.73604492 9.07592773 2.63037109 C9.17099484 5.84713163 9.27023203 9.06372849 9.37231445 12.28027344 C9.41565846 13.6731259 9.45733396 15.06603131 9.49731445 16.45898438 C9.55502932 18.45976651 9.61921869 20.46035859 9.68359375 22.4609375 C9.72025146 23.66540527 9.75690918 24.86987305 9.79467773 26.11083984 C9.81052987 28.93996367 9.81052987 28.93996367 11 31 C13.01927253 31.54462142 13.01927253 31.54462142 15.375 31.75 C16.16648437 31.84796875 16.95796875 31.9459375 17.7734375 32.046875 C20.29195501 32.19324313 20.29195501 32.19324313 23 30 C24.07955212 26.76134365 24.20441741 24.20844162 24.31640625 20.80078125 C24.35830078 19.59228516 24.40019531 18.38378906 24.44335938 17.13867188 C24.48267578 15.87603516 24.52199219 14.61339844 24.5625 13.3125 C24.60568359 12.03826172 24.64886719 10.76402344 24.69335938 9.45117188 C24.7995486 6.30089148 24.90159533 3.15053161 25 0 C27.64 0 30.28 0 33 0 C33.09932276 4.44736742 33.17168003 8.89413713 33.21972656 13.34228516 C33.23976791 14.85346736 33.26700905 16.36457272 33.30175781 17.87548828 C33.35061109 20.05520643 33.37304224 22.23389431 33.390625 24.4140625 C33.41157227 25.7232666 33.43251953 27.0324707 33.45410156 28.38134766 C32.92201179 32.62147379 31.6902561 34.71871197 29 38 C22.74370939 41.83038201 16.00893479 41.94090488 8.87890625 40.6015625 C5.35413657 39.43421942 3.91233531 37.87283111 1.82421875 34.84375 C-1.19242965 28.4780679 -0.42110926 21.37342657 -0.25 14.5 C-0.22990166 13.09117126 -0.21165678 11.68231479 -0.1953125 10.2734375 C-0.14839203 6.84824336 -0.08274777 3.42448476 0 0 Z " fill="#FFFFFF" transform="translate(477,1)"/>
<path d="M0 0 C3.7947296 2.01518831 6.09008401 4.34799179 7.76171875 8.28125 C7.76171875 9.60125 7.76171875 10.92125 7.76171875 12.28125 C5.45171875 12.94125 3.14171875 13.60125 0.76171875 14.28125 C0.24609375 13.311875 -0.26953125 12.3425 -0.80078125 11.34375 C-2.98550263 7.95848038 -2.98550263 7.95848038 -6.80078125 7.40625 C-8.94560148 7.32825654 -11.09204342 7.28125 -13.23828125 7.28125 C-13.23828125 7.94125 -13.23828125 8.60125 -13.23828125 9.28125 C-13.89828125 9.28125 -14.55828125 9.28125 -15.23828125 9.28125 C-17.67424599 15.37116184 -18.34543953 21.03069403 -15.92578125 27.15625 C-14.44525924 30.48166937 -14.44525924 30.48166937 -11.23828125 32.28125 C-7.86644583 33.03227535 -7.86644583 33.03227535 -4.23828125 32.28125 C-1.86416278 30.20260042 -0.03745583 27.86468017 1.76171875 25.28125 C4.07171875 26.27125 6.38171875 27.26125 8.76171875 28.28125 C8.6797429 31.06842889 8.1993648 32.79877767 6.3125 34.87890625 C1.14108172 39.44456187 -3.00359883 41.75564076 -10.12109375 41.52734375 C-15.28981108 40.92655188 -19.59325725 39.40168004 -23.11328125 35.46875 C-27.76085223 28.49739353 -28.03660017 21.444061 -27.23828125 13.28125 C-25.55892219 7.30807516 -22.23280212 3.78804125 -17.23828125 0.28125 C-11.86125319 -1.51109269 -5.43373238 -1.74486345 0 0 Z " fill="#FFFFFF" transform="translate(468.23828125,56.71875)"/>
<path d="M0 0 C3.50565677 2.73612236 5.64519054 6.00419134 7.5625 10 C7.5625 10.66 7.5625 11.32 7.5625 12 C3.1075 12.495 3.1075 12.495 -1.4375 13 C-1.994375 11.7934375 -1.994375 11.7934375 -2.5625 10.5625 C-4.23724929 7.76442778 -4.23724929 7.76442778 -7.3125 7 C-11.07622223 7 -12.52896852 7.64173124 -15.4375 10 C-18.41771835 13.59681525 -18.84647517 16.5605565 -18.66796875 21.07421875 C-18.1947669 25.02826129 -16.6191448 27.72753279 -14.4375 31 C-12.34803064 31.61884051 -12.34803064 31.61884051 -10 31.75 C-9.21753906 31.82734375 -8.43507813 31.9046875 -7.62890625 31.984375 C-5.25696768 32.119258 -5.25696768 32.119258 -2.4375 31 C-1.73538106 29.34795544 -1.06778587 27.68076231 -0.4375 26 C0.2225 25.67 0.8825 25.34 1.5625 25 C3.59394641 25.93446535 5.59783587 26.93224776 7.5625 28 C7.07221384 32.24426822 6.00794451 34.01792037 2.75 36.75 C2.06292969 37.34296875 1.37585938 37.9359375 0.66796875 38.546875 C-3.58922861 41.48505202 -8.39132256 41.50177749 -13.4375 41 C-19.55550028 39.20679302 -22.94698003 36.16329312 -26.4375 31 C-29.09244556 25.69010887 -29.20823397 19.81196329 -28.4375 14 C-26.45456356 8.14132414 -23.85275622 3.27765508 -18.4375 0 C-12.55942555 -1.95935815 -5.91417517 -1.72048732 0 0 Z " fill="#FFFFFF" transform="translate(693.4375,57)"/>
<path d="M0 0 C3.3 0 6.6 0 10 0 C11.53697239 4.24758395 13.06660876 8.49772032 14.58984375 12.75024414 C15.10774908 14.19300343 15.6275647 15.6350786 16.14941406 17.07641602 C18.8855492 24.63747912 21.52908183 32.0694472 23 40 C20.03 40 17.06 40 14 40 C13.67 37.69 13.34 35.38 13 33 C8.05 33 3.1 33 -2 33 C-2.66 35.31 -3.32 37.62 -4 40 C-6.97 40 -9.94 40 -13 40 C-10.74739512 31.09983163 -7.84256226 22.46874663 -4.8125 13.8125 C-4.34406631 12.46561116 -3.87596523 11.11860659 -3.40820312 9.77148438 C-2.27595638 6.51298342 -1.13925314 3.25605898 0 0 Z M5 10 C2.94637945 15.08940744 1.56820748 19.54520815 1 25 C3.64 25 6.28 25 9 25 C8.44854729 19.76119922 7.57077907 15.02649303 6 10 C5.67 10 5.34 10 5 10 Z " fill="#FFFFFF" transform="translate(671,1)"/>
<path d="M0 0 C1.37478516 0.01740234 1.37478516 0.01740234 2.77734375 0.03515625 C3.69644531 0.04417969 4.61554687 0.05320313 5.5625 0.0625 C6.27277344 0.07410156 6.98304688 0.08570312 7.71484375 0.09765625 C9.40744633 5.15072391 11.09806754 10.20444849 12.78686523 15.25878906 C13.3615175 16.9777207 13.93670845 18.69647236 14.51245117 20.41503906 C15.34045208 22.88689682 16.16650644 25.35939777 16.9921875 27.83203125 C17.24951157 28.59884216 17.50683563 29.36565308 17.7719574 30.15570068 C18.8724072 33.45670401 19.87026617 36.71934593 20.71484375 40.09765625 C17.74484375 40.09765625 14.77484375 40.09765625 11.71484375 40.09765625 C10.45819397 37.19165364 9.71484375 35.30161041 9.71484375 32.09765625 C5.09484375 32.42765625 0.47484375 32.75765625 -4.28515625 33.09765625 C-5.27515625 35.40765625 -6.26515625 37.71765625 -7.28515625 40.09765625 C-9.92515625 40.09765625 -12.56515625 40.09765625 -15.28515625 40.09765625 C-13.79521771 32.40105944 -11.41823447 25.06911556 -8.91674805 17.65625 C-8.21539266 15.57611331 -7.5222829 13.4933537 -6.83007812 11.41015625 C-3.05438195 0.13052914 -3.05438195 0.13052914 0 0 Z M1.71484375 10.09765625 C0.39484375 14.71765625 -0.92515625 19.33765625 -2.28515625 24.09765625 C-1.30247766 25.30326809 -1.30247766 25.30326809 0.5625 25.1953125 C2.61328125 25.16276042 4.6640625 25.13020833 6.71484375 25.09765625 C5.64665905 19.98400611 4.48376899 15.02537656 2.71484375 10.09765625 C2.38484375 10.09765625 2.05484375 10.09765625 1.71484375 10.09765625 Z " fill="#FFFFFF" transform="translate(598.28515625,0.90234375)"/>
<path d="M0 0 C0.74765625 -0.01224609 1.4953125 -0.02449219 2.265625 -0.03710938 C8.54280601 -0.05351316 13.89232154 0.42033007 18.75 4.75 C21.56083007 8.56602758 22.15100785 12.51972014 21.875 17.1875 C21.0635219 20.88186081 19.76255167 23.49575539 16.71484375 25.87109375 C13.1401892 27.52812069 10.48484711 27.48497235 6.5625 27.375 C4.68111328 27.33439453 4.68111328 27.33439453 2.76171875 27.29296875 C1.80910156 27.25816406 0.85648438 27.22335938 -0.125 27.1875 C-0.11339844 28.11433594 -0.10179687 29.04117188 -0.08984375 29.99609375 C-0.08082031 31.19363281 -0.07179688 32.39117187 -0.0625 33.625 C-0.05089844 34.81996094 -0.03929687 36.01492187 -0.02734375 37.24609375 C-0.125 40.1875 -0.125 40.1875 -1.125 41.1875 C-4.625 41.3125 -4.625 41.3125 -8.125 41.1875 C-9.99462718 39.31787282 -9.25386303 36.64086439 -9.26394653 34.15368652 C-9.2619223 33.30890747 -9.25989807 32.46412842 -9.2578125 31.59375 C-9.25876923 30.73189087 -9.25972595 29.87003174 -9.26071167 28.98205566 C-9.2613935 27.15616788 -9.25953904 25.33027769 -9.25537109 23.50439453 C-9.25002286 20.69948922 -9.25531599 17.89474405 -9.26171875 15.08984375 C-9.26105797 13.32031214 -9.25977681 11.55078064 -9.2578125 9.78125 C-9.25983673 8.93647095 -9.26186096 8.09169189 -9.26394653 7.22131348 C-9.23118891 -0.85862058 -7.38722209 0.00617661 0 0 Z M-0.125 8.1875 C-0.125 12.1475 -0.125 16.1075 -0.125 20.1875 C3.12833168 21.81416584 6.44847559 20.96530002 9.875 20.1875 C11.98438785 19.16328739 11.98438785 19.16328739 12.875 17.1875 C13.39711432 13.09985245 13.39711432 13.09985245 11.67578125 9.51171875 C9.24682453 7.72556619 7.66777437 7.88388541 4.6875 8 C3.099375 8.061875 1.51125 8.12375 -0.125 8.1875 Z " fill="#FFFFFF" transform="translate(630.125,111.8125)"/>
<path d="M0 0 C2.64 0 5.28 0 8 0 C10.36931069 6.09048033 12.34275032 12.23240601 14.1875 18.5 C14.46013672 19.4178125 14.73277344 20.335625 15.01367188 21.28125 C15.67832828 23.52009261 16.34038246 25.7596687 17 28 C17.19110352 27.22285645 17.38220703 26.44571289 17.57910156 25.64501953 C18.45254565 22.13390042 19.35090536 18.6296342 20.25 15.125 C20.55035156 13.90167969 20.85070312 12.67835937 21.16015625 11.41796875 C21.61455078 9.66806641 21.61455078 9.66806641 22.078125 7.8828125 C22.35043945 6.80402832 22.62275391 5.72524414 22.90332031 4.61376953 C24 2 24 2 25.94824219 0.64013672 C28.38348836 -0.11964618 30.46378964 -0.14090058 33 0 C32.42555275 5.41401498 31.47555783 10.50779593 29.96875 15.74609375 C29.77277222 16.44267593 29.57679443 17.13925812 29.37487793 17.85694885 C28.96411359 19.3122367 28.55055185 20.76673769 28.13427734 22.22045898 C27.49520076 24.45427519 26.86611645 26.69073558 26.23828125 28.92773438 C25.8365166 30.34651828 25.43419334 31.76514415 25.03125 33.18359375 C24.84268433 33.85329697 24.65411865 34.52300018 24.45983887 35.21299744 C23.11582711 39.88417289 23.11582711 39.88417289 22 41 C20.14712498 41.07226502 18.29166122 41.0838122 16.4375 41.0625 C15.42558594 41.05347656 14.41367187 41.04445312 13.37109375 41.03515625 C12.19740234 41.01775391 12.19740234 41.01775391 11 41 C9.42641836 35.80596311 7.8600444 30.60982793 6.30029297 25.41162109 C5.76873876 23.64377362 5.23522416 21.87651435 4.69970703 20.10986328 C3.93004751 17.56955848 3.16747637 15.02721772 2.40625 12.484375 C2.16563843 11.69569031 1.92502686 10.90700562 1.67712402 10.09442139 C0.62428483 6.55449755 0 3.72401715 0 0 Z " fill="#FFFFFF" transform="translate(479,112)"/>
<path d="M0 0 C1.25554688 -0.00128906 2.51109375 -0.00257812 3.8046875 -0.00390625 C4.46178711 -0.00181152 5.11888672 0.0002832 5.79589844 0.00244141 C7.80411335 0.00779016 9.81210459 0.00249559 11.8203125 -0.00390625 C13.07585938 -0.00261719 14.33140625 -0.00132813 15.625 0 C16.78644531 0.00112793 17.94789063 0.00225586 19.14453125 0.00341797 C21.8125 0.1328125 21.8125 0.1328125 22.8125 1.1328125 C22.85342937 3.46578683 22.85491723 5.79986475 22.8125 8.1328125 C19.1825 8.1328125 15.5525 8.1328125 11.8125 8.1328125 C11.8125 19.0228125 11.8125 29.9128125 11.8125 41.1328125 C9.1725 41.1328125 6.5325 41.1328125 3.8125 41.1328125 C3.8125 30.2428125 3.8125 19.3528125 3.8125 8.1328125 C0.5125 8.1328125 -2.7875 8.1328125 -6.1875 8.1328125 C-7.1875 7.1328125 -7.1875 7.1328125 -7.3125 4.1328125 C-7.09215686 -1.1554229 -4.73342976 0.00459684 0 0 Z " fill="#FFFFFF" transform="translate(777.1875,111.8671875)"/>
<path d="M0 0 C2.31 0 4.62 0 7 0 C8 1 8 1 8.11352539 4.05102539 C8.11336634 5.39991271 8.10767612 6.74880614 8.09765625 8.09765625 C8.0962413 8.80651474 8.09482635 9.51537323 8.09336853 10.24571228 C8.08775443 12.51801712 8.07519963 14.79022475 8.0625 17.0625 C8.05748681 18.59960796 8.05292359 20.13671745 8.04882812 21.67382812 C8.0386297 25.44928667 8.01905732 29.22453404 8 33 C12.95 33 17.9 33 23 33 C23 35.64 23 38.28 23 41 C15.41 41 7.82 41 0 41 C0 27.47 0 13.94 0 0 Z " fill="#FFFFFF" transform="translate(552,112)"/>
<path d="M0 0 C2.97 0 5.94 0 9 0 C9 10.89 9 21.78 9 33 C13.95 33 18.9 33 24 33 C24 35.31 24 37.62 24 40 C16.08 40 8.16 40 0 40 C0 26.8 0 13.6 0 0 Z " fill="#FFFFFF" transform="translate(408,1)"/>
<path d="M0 0 C2.97 0 5.94 0 9 0 C9 13.2 9 26.4 9 40 C6.03 40 3.06 40 0 40 C0 26.8 0 13.6 0 0 Z " fill="#FFFFFF" transform="translate(570,1)"/>
<path d="M0 0 C2.64 0 5.28 0 8 0 C8 13.2 8 26.4 8 40 C5.36 40 2.72 40 0 40 C0 26.8 0 13.6 0 0 Z " fill="#FFFFFF" transform="translate(651,57)"/>
<path d="M0 0 C2.64 0 5.28 0 8 0 C8 13.2 8 26.4 8 40 C5.36 40 2.72 40 0 40 C0 26.8 0 13.6 0 0 Z " fill="#FFFFFF" transform="translate(517,1)"/>
</svg>
