<?xml version="1.0" encoding="UTF-8"?>
<svg version="1.1" xmlns="http://www.w3.org/2000/svg" width="299" height="156">
<path d="M0 0 C1.25554687 -0.00128906 2.51109375 -0.00257812 3.8046875 -0.00390625 C4.46178711 -0.00181152 5.11888672 0.0002832 5.79589844 0.00244141 C7.80411335 0.00779016 9.81210459 0.00249559 11.8203125 -0.00390625 C13.07585937 -0.00261719 14.33140625 -0.00132813 15.625 0 C16.78644531 0.00112793 17.94789062 0.00225586 19.14453125 0.00341797 C21.8125 0.1328125 21.8125 0.1328125 22.8125 1.1328125 C22.9350355 2.66663929 22.99027938 4.20591769 23.01782227 5.74438477 C23.03776749 6.72532608 23.05771271 7.7062674 23.07826233 8.7169342 C23.09497482 9.7835881 23.11168732 10.850242 23.12890625 11.94921875 C23.14968735 13.03541 23.17046844 14.12160126 23.19187927 15.2407074 C23.25749442 18.72550877 23.31631511 22.21038818 23.375 25.6953125 C23.41817385 28.05144051 23.46178776 30.40756049 23.50585938 32.76367188 C23.61401963 38.55330646 23.71300408 44.34299648 23.8125 50.1328125 C32.0625 50.1328125 40.3125 50.1328125 48.8125 50.1328125 C48.87308594 46.60722656 48.93367188 43.08164062 48.99609375 39.44921875 C49.05782793 36.05035129 49.12123847 32.65151899 49.18481445 29.25268555 C49.2282381 26.88292542 49.26990749 24.5131325 49.30981445 22.14331055 C49.36733768 18.74517917 49.43108303 15.34721407 49.49609375 11.94921875 C49.51280624 10.88256485 49.52951874 9.81591095 49.54673767 8.7169342 C49.56668289 7.73599289 49.58662811 6.75505157 49.60717773 5.74438477 C49.62272202 4.87612564 49.6382663 4.00786652 49.65428162 3.11329651 C49.8125 1.1328125 49.8125 1.1328125 50.8125 0.1328125 C52.88512076 0.04514138 54.96070294 0.02585377 57.03515625 0.03515625 C58.29521484 0.03837891 59.55527344 0.04160156 60.85351562 0.04492188 C62.19401109 0.05327847 63.53450588 0.06174343 64.875 0.0703125 C66.21939942 0.0753259 67.5638006 0.07988908 68.90820312 0.08398438 C72.20967941 0.09581762 75.51106803 0.11230279 78.8125 0.1328125 C80.03233748 2.57248747 79.93301527 4.13185774 79.92602539 6.85791016 C79.92591209 8.32920883 79.92591209 8.32920883 79.92579651 9.83023071 C79.92063522 10.89172333 79.91547394 11.95321594 79.91015625 13.046875 C79.9087413 14.13165131 79.90732635 15.21642761 79.90586853 16.33407593 C79.90025802 19.8086825 79.88770372 23.28322531 79.875 26.7578125 C79.86998635 29.10937407 79.86542321 31.46093665 79.86132812 33.8125 C79.85028518 39.58595936 79.83353679 45.35938138 79.8125 51.1328125 C80.8025 50.8028125 81.7925 50.4728125 82.8125 50.1328125 C85.16930213 50.04884093 87.52844081 50.02553063 89.88671875 50.03515625 C90.91246758 50.03727867 90.91246758 50.03727867 91.9589386 50.03944397 C94.13933722 50.04503374 96.31963251 50.05758428 98.5 50.0703125 C99.97981622 50.07532883 101.45963406 50.0798915 102.93945312 50.08398438 C106.56383557 50.09499979 110.1881577 50.11225738 113.8125 50.1328125 C114.93261719 51.83227539 114.93261719 51.83227539 115.8125 54.1328125 C115.15332031 56.43530273 115.15332031 56.43530273 113.890625 58.94140625 C113.44203125 59.85341797 112.9934375 60.76542969 112.53125 61.70507812 C112.0465625 62.65060547 111.561875 63.59613281 111.0625 64.5703125 C110.12912582 66.4434714 109.19679956 68.31715291 108.265625 70.19140625 C107.84442383 71.01954834 107.42322266 71.84769043 106.98925781 72.70092773 C105.75750223 75.15108762 105.75750223 75.15108762 104.78417969 77.87915039 C103.8125 80.1328125 103.8125 80.1328125 101.8125 81.1328125 C100.21802536 81.21681779 98.62009455 81.24008717 97.0234375 81.23046875 C96.08242187 81.22724609 95.14140625 81.22402344 94.171875 81.22070312 C93.18703125 81.21232422 92.2021875 81.20394531 91.1875 81.1953125 C90.19492188 81.19080078 89.20234375 81.18628906 88.1796875 81.18164062 C85.7238984 81.16983395 83.26822896 81.1533665 80.8125 81.1328125 C80.80219254 81.7569957 80.79188507 82.38117889 80.78126526 83.02427673 C80.67343467 89.49635802 80.55881853 95.96829343 80.44018555 102.44018555 C80.39676122 104.85844889 80.35509188 107.2767444 80.31518555 109.69506836 C80.25766397 113.16269646 80.19391813 116.63016153 80.12890625 120.09765625 C80.11219376 121.18618393 80.09548126 122.27471161 80.07826233 123.39622498 C80.05831711 124.39718704 80.03837189 125.39814911 80.01782227 126.42944336 C80.00227798 127.31546738 79.9867337 128.20149139 79.97071838 129.11436462 C79.8125 131.1328125 79.8125 131.1328125 78.8125 132.1328125 C76.7519469 132.23274782 74.6879741 132.26362156 72.625 132.265625 C71.36945313 132.26691406 70.11390625 132.26820313 68.8203125 132.26953125 C68.16321289 132.26743652 67.50611328 132.2653418 66.82910156 132.26318359 C64.82088665 132.25783484 62.81289541 132.26312941 60.8046875 132.26953125 C58.92136719 132.26759766 58.92136719 132.26759766 57 132.265625 C55.83855469 132.26449707 54.67710937 132.26336914 53.48046875 132.26220703 C50.8125 132.1328125 50.8125 132.1328125 49.8125 131.1328125 C49.68986612 129.56832867 49.63470478 127.99848478 49.60717773 126.42944336 C49.5772599 124.92800026 49.5772599 124.92800026 49.54673767 123.39622498 C49.53002518 122.3076973 49.51331268 121.21916962 49.49609375 120.09765625 C49.47531265 118.98926895 49.45453156 117.88088165 49.43312073 116.73890686 C49.36750377 113.18277442 49.30868404 109.62656547 49.25 106.0703125 C49.20682632 103.66600757 49.16321242 101.26171051 49.11914062 98.85742188 C49.01097805 92.94929615 48.9119949 87.0411161 48.8125 81.1328125 C40.5625 81.1328125 32.3125 81.1328125 23.8125 81.1328125 C23.83570312 84.56300781 23.85890625 87.99320312 23.8828125 91.52734375 C23.89840262 94.84350209 23.91055102 98.15965638 23.92236328 101.47583008 C23.93243107 103.7834658 23.94608623 106.09108875 23.96337891 108.39868164 C23.98759287 111.71243441 23.99897526 115.02601876 24.0078125 118.33984375 C24.01813507 119.3743013 24.02845764 120.40875885 24.03909302 121.4745636 C24.03924408 122.4353331 24.03939514 123.3961026 24.03955078 124.38598633 C24.043992 125.23203934 24.04843323 126.07809235 24.05300903 126.94978333 C23.8125 129.1328125 23.8125 129.1328125 21.8125 132.1328125 C19.03100586 132.48925781 19.03100586 132.48925781 15.52734375 132.4609375 C14.27501953 132.45578125 13.02269531 132.450625 11.73242188 132.4453125 C10.41822266 132.4246875 9.10402344 132.4040625 7.75 132.3828125 C6.43193359 132.37765625 5.11386719 132.3725 3.75585938 132.3671875 C-6.03382305 132.28648945 -6.03382305 132.28648945 -7.1875 131.1328125 C-7.28584335 129.45221249 -7.31382003 127.76745917 -7.31448364 126.08398438 C-7.31730347 124.99021484 -7.32012329 123.89644531 -7.32302856 122.76953125 C-7.32100433 121.55910156 -7.3189801 120.34867187 -7.31689453 119.1015625 C-7.31864685 117.83505859 -7.32039917 116.56855469 -7.32220459 115.26367188 C-7.32677845 111.78029431 -7.32498956 108.29694623 -7.3218255 104.81356812 C-7.31930166 101.17584145 -7.32163951 97.53811738 -7.32321167 93.90039062 C-7.32503329 87.79035995 -7.32262725 81.68034134 -7.31787109 75.5703125 C-7.31242849 68.49653405 -7.31419115 61.42278441 -7.3196975 54.34900665 C-7.32422884 48.28617353 -7.32487908 42.2233491 -7.32225883 36.16051483 C-7.32069617 32.53482083 -7.32050199 28.9091404 -7.32379532 25.28344727 C-7.32720819 21.24363485 -7.32248396 17.20387247 -7.31689453 13.1640625 C-7.31891876 11.95363281 -7.32094299 10.74320313 -7.32302856 9.49609375 C-7.32020874 8.40232422 -7.31738892 7.30855469 -7.31448364 6.18164062 C-7.31410662 5.22519653 -7.31372959 4.26875244 -7.31334114 3.2833252 C-7.05053866 -1.20773448 -3.79057963 0.0036812 0 0 Z " fill="#FAFAF9" transform="translate(88.1875,-0.1328125)"/>
<path d="M0 0 C2.99279395 0.44891909 3.57575391 1.11728255 5.5 3.375 C6.44799805 5.11401367 6.44799805 5.11401367 7.26171875 7.04296875 C7.57689453 7.77322266 7.89207031 8.50347656 8.21679688 9.25585938 C8.53712891 10.01705078 8.85746094 10.77824219 9.1875 11.5625 C11.99331746 18.1895164 15.09502851 24.62254125 18.33435059 31.04515076 C22.08948162 38.50780754 25.64585447 46.05927868 29.1875 53.625 C29.88426329 55.10990807 30.58112385 56.59477049 31.27807617 58.07958984 C38.80993639 74.13597934 46.32287939 90.2024022 53.6796875 106.33984375 C54.18653076 107.45085449 54.69337402 108.56186523 55.21557617 109.70654297 C56.17141599 111.80466606 57.12484485 113.90388979 58.07543945 116.00439453 C58.49784912 116.9323584 58.92025879 117.86032227 59.35546875 118.81640625 C59.72309326 119.62795166 60.09071777 120.43949707 60.46948242 121.27563477 C61.54858648 123.59012631 61.54858648 123.59012631 63.5 126.375 C63.6875 129 63.6875 129 63.5 131.375 C60.70810491 134.16689509 52.4413254 132.75890033 48.6875 132.8125 C47.39005859 132.85826172 46.09261719 132.90402344 44.75585938 132.95117188 C35.27874616 133.06393628 35.27874616 133.06393628 31.92578125 130.09765625 C31.45527344 128.86917969 30.98476563 127.64070313 30.5 126.375 C28.85 122.415 27.2 118.455 25.5 114.375 C8.67 114.375 -8.16 114.375 -25.5 114.375 C-27.81 119.325 -30.12 124.275 -32.5 129.375 C-35.5 132.375 -35.5 132.375 -38.30322266 132.73144531 C-39.96683838 132.71742676 -39.96683838 132.71742676 -41.6640625 132.703125 C-43.47003906 132.69539063 -43.47003906 132.69539063 -45.3125 132.6875 C-46.570625 132.666875 -47.82875 132.64625 -49.125 132.625 C-50.39085937 132.61984375 -51.65671875 132.6146875 -52.9609375 132.609375 C-62.34618506 132.52881494 -62.34618506 132.52881494 -63.5 131.375 C-63.0949336 126.10458551 -61.61843468 121.83167104 -59.32421875 117.1328125 C-58.84230827 116.11711685 -58.84230827 116.11711685 -58.35066223 115.0809021 C-57.30513601 112.88291176 -56.24644449 110.69155262 -55.1875 108.5 C-54.45747942 106.97111056 -53.72832058 105.44180938 -53 103.91210938 C-50.84539621 99.39390111 -48.67435789 94.88372726 -46.5 90.375 C-45.89914786 89.12732846 -45.29839268 87.87961021 -44.69775391 86.63183594 C-40.16735609 77.22182493 -40.16735609 77.22182493 -38.52929688 73.82714844 C-34.96174031 66.40909117 -31.58026583 58.92211541 -28.26953125 51.38671875 C-25.46015935 44.99573769 -22.49581561 38.68025945 -19.5 32.375 C-18.9647168 31.24336426 -18.42943359 30.11172852 -17.87792969 28.94580078 C-16.32739409 25.66983627 -14.76863942 22.39786692 -13.20562744 19.12783813 C-12.57146995 17.79874822 -11.9394093 16.46865568 -11.30950928 15.13754272 C-10.41556664 13.25016961 -9.51345581 11.36690859 -8.609375 9.484375 C-8.08311523 8.38061523 -7.55685547 7.27685547 -7.01464844 6.13964844 C-3.97786095 0.59667914 -3.97786095 0.59667914 0 0 Z M-1.5 58.375 C-1.77972656 59.06722656 -2.05945313 59.75945313 -2.34765625 60.47265625 C-5.12143364 67.2421001 -8.08698552 73.88506992 -11.26391602 80.47290039 C-12.94394748 83.77594143 -12.94394748 83.77594143 -13.5 87.375 C-4.59 87.375 4.32 87.375 13.5 87.375 C12.18634389 84.09085971 10.85541959 80.87239066 9.40625 77.65234375 C8.82037109 76.35006836 8.82037109 76.35006836 8.22265625 75.02148438 C7.61744141 73.68053711 7.61744141 73.68053711 7 72.3125 C6.59652344 71.41466797 6.19304687 70.51683594 5.77734375 69.59179688 C4.07763515 65.81934133 2.37236755 62.06556267 0.5 58.375 C-0.16 58.375 -0.82 58.375 -1.5 58.375 Z " fill="#FAFAF9" transform="translate(235.5,-0.375)"/>
<path d="M0 0 C1.15757813 -0.00257812 2.31515625 -0.00515625 3.5078125 -0.0078125 C4.72210938 -0.00007812 5.93640625 0.00765625 7.1875 0.015625 C8.40179687 0.00789062 9.61609375 0.00015625 10.8671875 -0.0078125 C12.60355469 -0.00394531 12.60355469 -0.00394531 14.375 0 C15.44105469 0.00225586 16.50710937 0.00451172 17.60546875 0.00683594 C20.1875 0.265625 20.1875 0.265625 22.1875 2.265625 C22.43359566 4.10469246 22.43359566 4.10469246 22.42800903 6.37844849 C22.43075836 7.23944153 22.43350769 8.10043457 22.43634033 8.98751831 C22.42914978 9.93410309 22.42195923 10.88068787 22.41455078 11.85595703 C22.41484283 12.85111328 22.41513489 13.84626953 22.41543579 14.87158203 C22.4140386 18.17228816 22.39845904 21.47277063 22.3828125 24.7734375 C22.37908376 27.057443 22.37623613 29.3414501 22.37423706 31.62545776 C22.3665897 37.6457763 22.34693174 43.66599879 22.3248291 49.6862793 C22.3043944 55.8259959 22.29524043 61.96572797 22.28515625 68.10546875 C22.26368689 80.15889643 22.22953767 92.21225274 22.1875 104.265625 C22.77409897 104.26340439 23.36069794 104.26118378 23.96507263 104.25889587 C30.04775384 104.2368429 36.13042377 104.22171836 42.21313477 104.21069336 C44.48592591 104.20565175 46.7587138 104.19881863 49.03149414 104.19018555 C52.29053551 104.17811239 55.54953417 104.17239513 58.80859375 104.16796875 C59.83150009 104.16280746 60.85440643 104.15764618 61.90830994 104.15232849 C62.84920975 104.15225296 63.79010956 104.15217743 64.75952148 104.15209961 C65.59225082 104.149879 66.42498016 104.14765839 67.28294373 104.14537048 C69.1875 104.265625 69.1875 104.265625 70.1875 105.265625 C70.28721786 107.18020782 70.31830589 109.09844817 70.3203125 111.015625 C70.32160156 112.1809375 70.32289062 113.34625 70.32421875 114.546875 C70.32035156 115.7740625 70.31648438 117.00125 70.3125 118.265625 C70.31636719 119.4928125 70.32023437 120.72 70.32421875 121.984375 C70.32292969 123.1496875 70.32164063 124.315 70.3203125 125.515625 C70.31918457 126.59328125 70.31805664 127.6709375 70.31689453 128.78125 C70.1875 131.265625 70.1875 131.265625 69.1875 132.265625 C66.81988425 132.36588195 64.48142927 132.40181435 62.11328125 132.39501953 C61.00356461 132.39764801 61.00356461 132.39764801 59.87142944 132.40032959 C57.41426277 132.4047481 54.95716747 132.40181013 52.5 132.3984375 C50.79988593 132.39911054 49.09977195 132.40008057 47.3996582 132.40133667 C43.83185919 132.40281364 40.26408517 132.40065911 36.69628906 132.39599609 C32.11261506 132.3902988 27.52899961 132.39357781 22.94532776 132.39956856 C19.43330439 132.40317419 15.92129502 132.40203557 12.40927124 132.39944077 C10.71869907 132.3987715 9.02812564 132.39959989 7.33755493 132.40192032 C4.97890843 132.40444689 2.62035805 132.40060621 0.26171875 132.39501953 C-0.44377106 132.39704376 -1.14926086 132.39906799 -1.87612915 132.40115356 C-6.69823729 132.37988771 -6.69823729 132.37988771 -7.8125 131.265625 C-7.91299006 129.60001323 -7.94326229 127.93012768 -7.94621277 126.26148987 C-7.95047775 125.17757965 -7.95474274 124.09366943 -7.95913696 122.97691345 C-7.95868378 121.77740555 -7.95823059 120.57789764 -7.95776367 119.34204102 C-7.96112228 118.08689697 -7.9644809 116.83175293 -7.96794128 115.53857422 C-7.97680149 112.08612507 -7.97912024 108.63370069 -7.97975707 105.18124127 C-7.98070453 102.30336682 -7.98438094 99.42549818 -7.98792917 96.54762596 C-7.99608143 89.7601819 -7.9985127 82.97275112 -7.99780273 76.18530273 C-7.99720175 69.17400599 -8.00775586 62.16278614 -8.0235464 55.15150887 C-8.03660391 49.14046317 -8.04198739 43.12944265 -8.04134732 37.11838287 C-8.04109181 33.52449243 -8.04397249 29.93067027 -8.05452538 26.3367939 C-8.06596685 22.33067661 -8.06147056 18.32473254 -8.05541992 14.31860352 C-8.06103943 13.12111984 -8.06665894 11.92363617 -8.07244873 10.68986511 C-8.06825424 9.60313507 -8.06405975 8.51640503 -8.05973816 7.39674377 C-8.06055531 5.97452184 -8.06055531 5.97452184 -8.06138897 4.52356815 C-7.51099351 -0.469669 -4.19408006 0.00887502 0 0 Z " fill="#FAFAF9" transform="translate(7.8125,-0.265625)"/>
<path d="M0 0 C1.375 2.5625 1.375 2.5625 2 5 C2.66 5 3.32 5 4 5 C4.103125 4.38125 4.20625 3.7625 4.3125 3.125 C5 1 5 1 8 -1 C11.1875 -0.625 11.1875 -0.625 14 0 C14 1.32 14 2.64 14 4 C13.21625 3.79375 12.4325 3.5875 11.625 3.375 C10.325625 3.189375 10.325625 3.189375 9 3 C6.71271266 4.83883881 6.71271266 4.83883881 6.875 7.625 C6.91625 8.40875 6.9575 9.1925 7 10 C10.465 9.505 10.465 9.505 14 9 C14 10.32 14 11.64 14 13 C7.375 13.25 7.375 13.25 4 11 C4 10.01 4 9.02 4 8 C3.34 8 2.68 8 2 8 C1.690625 8.639375 1.38125 9.27875 1.0625 9.9375 C0 12 0 12 -1 13 C-7.16698656 13.45681382 -7.16698656 13.45681382 -9.9375 11.9375 C-11.6140629 8.88023824 -11.36528977 6.4093712 -11 3 C-7.90609481 -1.21896162 -4.89003241 -1.42625945 0 0 Z M-5 2 C-5.99 2.66 -6.98 3.32 -8 4 C-8.25030977 6.58380177 -8.25030977 6.58380177 -8 9 C-6.02 9.99 -6.02 9.99 -4 11 C-2.68 10.01 -1.36 9.02 0 8 C-0.19471111 6.05000871 -0.19471111 6.05000871 -1 4 C-2.9837767 2.71563266 -2.9837767 2.71563266 -5 2 Z " fill="#FAFAF9" transform="translate(226,143)"/>
<path d="M0 0 C3 1 3 1 4.16796875 3.28515625 C4.50441406 4.20167969 4.84085938 5.11820313 5.1875 6.0625 C5.53167969 6.98160156 5.87585938 7.90070313 6.23046875 8.84765625 C6.48441406 9.55792969 6.73835937 10.26820313 7 11 C8.65 11 10.3 11 12 11 C12.33 10.34 12.66 9.68 13 9 C12.195625 8.7525 11.39125 8.505 10.5625 8.25 C8 7 8 7 7 5.0625 C7 3 7 3 8.0625 1.1875 C10 0 10 0 13.1875 0.3125 C14.115625 0.539375 15.04375 0.76625 16 1 C15.67 1.99 15.34 2.98 15 4 C13.68 3.67 12.36 3.34 11 3 C11 3.99 11 4.98 11 6 C12.65 6.66 14.3 7.32 16 8 C16.042721 9.66611905 16.04063832 11.33382885 16 13 C14.35254404 14.64745596 12.44664549 14.1709616 10.1875 14.1875 C9.31480469 14.20167969 8.44210938 14.21585938 7.54296875 14.23046875 C4.87282515 13.98847417 3.32352411 13.27516616 1 12 C0.34 12 -0.32 12 -1 12 C-1.33 12.66 -1.66 13.32 -2 14 C-2.99 14 -3.98 14 -5 14 C-4.34580901 8.93001981 -2.1453591 4.58009223 0 0 Z M1 6 C0.67 6.99 0.34 7.98 0 9 C0.66 9 1.32 9 2 9 C1.67 8.01 1.34 7.02 1 6 Z " fill="#FAFAF9" transform="translate(188,142)"/>
<path d="M0 0 C3.7952131 1.49097658 5.61042731 3.75700849 8 7 C8 5.02 8 3.04 8 1 C9.32 1 10.64 1 12 1 C12 4.96 12 8.92 12 13 C10.68 13 9.36 13 8 13 C5.75 10.5 5.75 10.5 4 8 C3.67 9.98 3.34 11.96 3 14 C2.01 14 1.02 14 0 14 C-0.19456705 12.04235617 -0.38044247 10.08384679 -0.5625 8.125 C-0.66691406 7.03445312 -0.77132812 5.94390625 -0.87890625 4.8203125 C-1 2 -1 2 0 0 Z " fill="#FAFAF9" transform="translate(68,142)"/>
<path d="M0 0 C2.46324069 3.69486103 2.38991688 5.63293092 2 10 C0.9375 11.9375 0.9375 11.9375 -1 13 C-6.98713826 13.6414791 -6.98713826 13.6414791 -9.875 11.8125 C-11.35405406 9.42957957 -11.86591307 7.81582552 -12 5 C-9.00354525 -1.27828615 -6.63757328 -1.42233713 0 0 Z M-6 2 C-7.71711243 4.44496043 -7.71711243 4.44496043 -9 7 C-7.68 8.32 -6.36 9.64 -5 11 C-3.00016466 10.20882096 -3.00016466 10.20882096 -1 9 C-0.67 8.01 -0.34 7.02 0 6 C-1.16666667 3.75 -1.16666667 3.75 -3 2 C-3.99 2 -4.98 2 -6 2 Z " fill="#FAFAF9" transform="translate(19,143)"/>
<path d="M0 0 C3.375 0.9375 3.375 0.9375 5.375 3.9375 C5.91248871 9.95737353 5.91248871 9.95737353 4.3125 12.875 C1.25523824 14.5515629 -1.2156288 14.30278977 -4.625 13.9375 C-6.5625 12.875 -6.5625 12.875 -7.625 10.9375 C-8.12391602 7.01744554 -8.17753414 4.82155462 -6.0625 1.4375 C-3.625 -0.0625 -3.625 -0.0625 0 0 Z M-1.625 2.9375 C-2.945 3.9275 -4.265 4.9175 -5.625 5.9375 C-5.43028889 7.88749129 -5.43028889 7.88749129 -4.625 9.9375 C-2.6412233 11.22186734 -2.6412233 11.22186734 -0.625 11.9375 C0.365 11.2775 1.355 10.6175 2.375 9.9375 C2.62530977 7.35369823 2.62530977 7.35369823 2.375 4.9375 C1.055 4.2775 -0.265 3.6175 -1.625 2.9375 Z " fill="#FAFAF9" transform="translate(118.625,142.0625)"/>
<path d="M0 0 C0.99 0 1.98 0 3 0 C3 1.98 3 3.96 3 6 C4.65 6 6.3 6 8 6 C8 4.02 8 2.04 8 0 C8.99 0 9.98 0 11 0 C11 4.62 11 9.24 11 14 C10.01 14 9.02 14 8 14 C8 12.35 8 10.7 8 9 C6.35 9 4.7 9 3 9 C3 10.65 3 12.3 3 14 C1.68 13.67 0.36 13.34 -1 13 C-1.02686553 11.02090602 -1.04633375 9.04171029 -1.0625 7.0625 C-1.07410156 5.96035156 -1.08570312 4.85820312 -1.09765625 3.72265625 C-1 1 -1 1 0 0 Z " fill="#FAFAF9" transform="translate(98,142)"/>
<path d="M0 0 C1.9375 1.625 1.9375 1.625 3 4 C2.67272727 10.32727273 2.67272727 10.32727273 0 13 C-6.12133891 13.55648536 -6.12133891 13.55648536 -8.875 11.8125 C-10.35405406 9.42957957 -10.86591307 7.81582552 -11 5 C-8.24463864 -0.77313809 -6.17174063 -1.63740057 0 0 Z M-5 2 C-6.66621425 3.1645201 -6.66621425 3.1645201 -8 5 C-7.76956136 7.65466049 -7.76956136 7.65466049 -7 10 C-5.15274948 10.69159401 -5.15274948 10.69159401 -3 11 C-2.01 10.34 -1.02 9.68 0 9 C0.25030977 6.41619823 0.25030977 6.41619823 0 4 C-2.475 3.01 -2.475 3.01 -5 2 Z " fill="#FAFAF9" transform="translate(283,143)"/>
<path d="M0 0 C4.00647751 1.3354925 4.75744636 3.52765887 7 7 C7.66 7.33 8.32 7.66 9 8 C8.67 5.69 8.34 3.38 8 1 C8.99 0.67 9.98 0.34 11 0 C11 4.62 11 9.24 11 14 C7.23312136 12.11656068 6.20578354 11.30867531 4 8 C3.67 9.98 3.34 11.96 3 14 C2.01 14 1.02 14 0 14 C0 9.38 0 4.76 0 0 Z " fill="#FAFAF9" transform="translate(288,142)"/>
<path d="M0 0 C0.99 0 1.98 0 3 0 C3.33 3.63 3.66 7.26 4 11 C4.66 11 5.32 11 6 11 C7.1577506 7.52674819 7.06866652 4.63932552 7 1 C7.99 0.67 8.98 0.34 10 0 C11.00685307 3.0205592 11.02876261 4.47076266 10.6875 7.5625 C10.56955078 8.74005859 10.56955078 8.74005859 10.44921875 9.94140625 C10 12 10 12 8 14 C5 14.25 5 14.25 2 14 C0 12 0 12 -0.1953125 9.1796875 C-0.17210938 8.08914062 -0.14890625 6.99859375 -0.125 5.875 C-0.10695313 4.77929688 -0.08890625 3.68359375 -0.0703125 2.5546875 C-0.04710938 1.71164063 -0.02390625 0.86859375 0 0 Z " fill="#FAFAF9" transform="translate(23,142)"/>
<path d="M0 0 C2.33285378 2.13900633 3.7868759 4.16655353 5.1875 7 C5.53167969 7.680625 5.87585938 8.36125 6.23046875 9.0625 C7 11 7 11 7 14 C6.01 14 5.02 14 4 14 C3.34 13.34 2.68 12.68 2 12 C0.05925139 12.27617533 0.05925139 12.27617533 -2 13 C-3.33188607 13.3390699 -4.66504003 13.67324202 -6 14 C-5.19074658 11.85294019 -4.37750887 9.7073817 -3.5625 7.5625 C-3.11003906 6.36753906 -2.65757813 5.17257813 -2.19140625 3.94140625 C-1 1 -1 1 0 0 Z M0 6 C0 6.99 0 7.98 0 9 C0.66 9 1.32 9 2 9 C1.67 8.01 1.34 7.02 1 6 C0.67 6 0.34 6 0 6 Z " fill="#FAFAF9" transform="translate(86,142)"/>
<path d="M0 0 C0.66 0 1.32 0 2 0 C2.83764268 1.95649397 3.66999059 3.91525556 4.5 5.875 C4.9640625 6.96554688 5.428125 8.05609375 5.90625 9.1796875 C7 12 7 12 7 14 C6.01 14 5.02 14 4 14 C3.67 13.34 3.34 12.68 3 12 C1.68 12 0.36 12 -1 12 C-1.33 12.66 -1.66 13.32 -2 14 C-2.99 14 -3.98 14 -5 14 C-4.34580901 8.93001981 -2.1453591 4.58009223 0 0 Z M0 7 C0 7.66 0 8.32 0 9 C0.66 9 1.32 9 2 9 C2 8.34 2 7.68 2 7 C1.34 7 0.68 7 0 7 Z " fill="#FAFAF9" transform="translate(60,142)"/>
<path d="M0 0 C2.40243465 2.15344283 3.60244944 3.96874765 4.6875 7 C5.06455078 8.0209375 5.06455078 8.0209375 5.44921875 9.0625 C6 11 6 11 6 14 C5.05125 13.67 4.1025 13.34 3.125 13 C0.22937548 11.89840809 0.22937548 11.89840809 -2 12 C-2.33 12.66 -2.66 13.32 -3 14 C-3.99 14 -4.98 14 -6 14 C-4.45941767 8.98491285 -2.97068161 4.3852919 0 0 Z M0 6 C-0.33 6.99 -0.66 7.98 -1 9 C-0.34 9 0.32 9 1 9 C0.67 8.01 0.34 7.02 0 6 Z " fill="#FAFAF9" transform="translate(164,142)"/>
<path d="M0 0 C0.66 0 1.32 0 2 0 C2.83764268 1.95649397 3.66999059 3.91525556 4.5 5.875 C4.9640625 6.96554688 5.428125 8.05609375 5.90625 9.1796875 C7 12 7 12 7 14 C6.01 14 5.02 14 4 14 C4 13.34 4 12.68 4 12 C1.03 11.505 1.03 11.505 -2 11 C-2.33 11.99 -2.66 12.98 -3 14 C-3.66 14 -4.32 14 -5 14 C-4.46515599 8.65155992 -2.53309233 4.64203897 0 0 Z M0 6 C-0.33 6.99 -0.66 7.98 -1 9 C-0.01 9 0.98 9 2 9 C1.67 8.01 1.34 7.02 1 6 C0.67 6 0.34 6 0 6 Z " fill="#FAFAF9" transform="translate(252,142)"/>
<path d="M0 0 C6 0 6 0 7.9375 1.125 C9.52513015 3.92670027 8.74070176 5.96985644 8 9 C6.02 9.33 4.04 9.66 2 10 C2.33 11.32 2.66 12.64 3 14 C2.01 14 1.02 14 0 14 C0 9.38 0 4.76 0 0 Z M3 3 C2.67 4.32 2.34 5.64 2 7 C3.32 6.67 4.64 6.34 6 6 C5.01 5.01 4.02 4.02 3 3 Z " fill="#FAFAF9" transform="translate(136,142)"/>
<path d="M0 0 C-0.33 0.99 -0.66 1.98 -1 3 C-3.0625 3.6875 -3.0625 3.6875 -5 4 C-4.360625 4.226875 -3.72125 4.45375 -3.0625 4.6875 C-1 6 -1 6 -0.125 8.5 C-0.08375 9.325 -0.0425 10.15 0 11 C-2 13 -2 13 -5.125 13.125 C-6.548125 13.063125 -6.548125 13.063125 -8 13 C-8.33 12.01 -8.66 11.02 -9 10 C-7.35 10 -5.7 10 -4 10 C-4.845625 9.278125 -5.69125 8.55625 -6.5625 7.8125 C-9 5 -9 5 -8.9375 2.25 C-7.06897398 -2.23446244 -4.12754453 -0.80756306 0 0 Z " fill="#FAFAF9" transform="translate(214,143)"/>
<path d="M0 0 C1.3921875 0.3403125 1.3921875 0.3403125 2.8125 0.6875 C2.4825 1.6775 2.1525 2.6675 1.8125 3.6875 C-0.25 4.375 -0.25 4.375 -2.1875 4.6875 C-1.548125 4.914375 -0.90875 5.14125 -0.25 5.375 C1.8125 6.6875 1.8125 6.6875 2.6875 9.1875 C2.72875 10.0125 2.77 10.8375 2.8125 11.6875 C0.8125 13.6875 0.8125 13.6875 -2.3125 13.8125 C-3.735625 13.750625 -3.735625 13.750625 -5.1875 13.6875 C-5.5175 12.6975 -5.8475 11.7075 -6.1875 10.6875 C-4.5375 10.6875 -2.8875 10.6875 -1.1875 10.6875 C-0.8575 10.0275 -0.5275 9.3675 -0.1875 8.6875 C-0.991875 8.44 -1.79625 8.1925 -2.625 7.9375 C-5.1875 6.6875 -5.1875 6.6875 -6.1875 4.75 C-6.1875 2.6875 -6.1875 2.6875 -5.125 0.875 C-3.1875 -0.3125 -3.1875 -0.3125 0 0 Z " fill="#FAFAF9" transform="translate(131.1875,142.3125)"/>
<path d="M0 0 C1.3921875 0.3403125 1.3921875 0.3403125 2.8125 0.6875 C2.4825 1.6775 2.1525 2.6675 1.8125 3.6875 C-0.25 4.375 -0.25 4.375 -2.1875 4.6875 C-0.5375 5.6775 1.1125 6.6675 2.8125 7.6875 C2.4825 9.6675 2.1525 11.6475 1.8125 13.6875 C-0.4975 13.6875 -2.8075 13.6875 -5.1875 13.6875 C-5.1875 12.6975 -5.1875 11.7075 -5.1875 10.6875 C-3.8675 10.6875 -2.5475 10.6875 -1.1875 10.6875 C-0.8575 10.0275 -0.5275 9.3675 -0.1875 8.6875 C-0.991875 8.44 -1.79625 8.1925 -2.625 7.9375 C-5.1875 6.6875 -5.1875 6.6875 -6.1875 4.75 C-6.1875 2.6875 -6.1875 2.6875 -5.125 0.875 C-3.1875 -0.3125 -3.1875 -0.3125 0 0 Z " fill="#FAFAF9" transform="translate(46.1875,142.3125)"/>
<path d="M0 0 C2.64 0 5.28 0 8 0 C8.33 0.99 8.66 1.98 9 3 C8.01 3 7.02 3 6 3 C6 6.63 6 10.26 6 14 C5.01 14 4.02 14 3 14 C2.67 10.7 2.34 7.4 2 4 C1.01 3.67 0.02 3.34 -1 3 C-0.67 2.01 -0.34 1.02 0 0 Z " fill="#FAFAF9" transform="translate(258,142)"/>
<path d="M0 0 C2.64 0 5.28 0 8 0 C8.33 0.99 8.66 1.98 9 3 C7.68 3 6.36 3 5 3 C5 6.63 5 10.26 5 14 C4.01 14 3.02 14 2 14 C2 10.37 2 6.74 2 3 C1.01 3 0.02 3 -1 3 C-0.67 2.01 -0.34 1.02 0 0 Z " fill="#FAFAF9" transform="translate(151,142)"/>
<path d="M0 0 C0.99 0.33 1.98 0.66 3 1 C3 4.3 3 7.6 3 11 C4.65 11.33 6.3 11.66 8 12 C8 12.66 8 13.32 8 14 C5.36 14 2.72 14 0 14 C-0.19393875 11.85473901 -0.37998676 9.70876323 -0.5625 7.5625 C-0.71912109 5.77005859 -0.71912109 5.77005859 -0.87890625 3.94140625 C-0.91886719 2.97074219 -0.95882812 2.00007812 -1 1 C-0.67 0.67 -0.34 0.34 0 0 Z " fill="#FAFAF9" transform="translate(172,142)"/>
<path d="M0 0 C0.99 0.33 1.98 0.66 3 1 C2.67 5.29 2.34 9.58 2 14 C1.34 14 0.68 14 0 14 C-0.99293628 11.02119115 -1.13406411 8.98398802 -1.125 5.875 C-1.12757813 4.98554688 -1.13015625 4.09609375 -1.1328125 3.1796875 C-1 1 -1 1 0 0 Z " fill="#FAFAF9" transform="translate(243,142)"/>
<path d="M0 0 C0.99 0.33 1.98 0.66 3 1 C3 4.3 3 7.6 3 11 C4.32 11.33 5.64 11.66 7 12 C7 12.66 7 13.32 7 14 C4.69 14 2.38 14 0 14 C0 9.38 0 4.76 0 0 Z " fill="#FAFAF9" transform="translate(0,142)"/>
<path d="M0 0 C0.99 0 1.98 0 3 0 C3 4.62 3 9.24 3 14 C2.01 14 1.02 14 0 14 C0 9.38 0 4.76 0 0 Z " fill="#FAFAF9" transform="translate(51,142)"/>
<path d="M0 0 C0.99 0 1.98 0 3 0 C3 4.62 3 9.24 3 14 C2.01 14 1.02 14 0 14 C0 9.38 0 4.76 0 0 Z " fill="#FAFAF9" transform="translate(36,142)"/>
<path d="M0 0 C0.99 0.33 1.98 0.66 3 1 C3 5.29 3 9.58 3 14 C2.01 14 1.02 14 0 14 C0 9.38 0 4.76 0 0 Z " fill="#FAFAF9" transform="translate(268,142)"/>
<path d="M0 0 C0.66 0 1.32 0 2 0 C2 4.62 2 9.24 2 14 C1.01 14 0.02 14 -1 14 C-1.02685938 11.85423363 -1.04633088 9.70837355 -1.0625 7.5625 C-1.07410156 6.36753906 -1.08570313 5.17257813 -1.09765625 3.94140625 C-1 1 -1 1 0 0 Z " fill="#FAFAF9" transform="translate(147,142)"/>
</svg>
