<?xml version="1.0" encoding="UTF-8"?>
<svg version="1.1" xmlns="http://www.w3.org/2000/svg" width="433" height="210">
<path d="M0 0 C5.37735135 4.10136968 8.3223718 10.15622847 9.3046875 16.7578125 C10.17821526 25.50988875 8.68817612 34.96729683 3.4921875 42.1953125 C-2.80335834 49.64812779 -10.09920318 54.0713258 -19.6953125 55.7578125 C-18.99664062 56.33789062 -18.29796875 56.91796875 -17.578125 57.515625 C-16.66804688 58.29679687 -15.75796875 59.07796875 -14.8203125 59.8828125 C-13.46292969 61.03136719 -13.46292969 61.03136719 -12.078125 62.203125 C-8.15961452 66.40428213 -7.20809587 70.97174485 -7.3828125 76.671875 C-8.15535252 81.82857964 -10.5414967 85.57441168 -14.1328125 89.2578125 C-20.19283825 91.80940229 -26.76017952 91.83566902 -33.10546875 90.09765625 C-40.51505754 86.79974679 -44.90995844 80.4940899 -47.94921875 73.1796875 C-49.20440281 69.10526803 -49.51813993 65.0010956 -49.6953125 60.7578125 C-46.91015625 60.4609375 -46.91015625 60.4609375 -43.6953125 60.7578125 C-41.82421875 62.8046875 -41.82421875 62.8046875 -40.2578125 65.5078125 C-37.12883843 70.35223288 -35.09862365 72.67232399 -29.6953125 74.7578125 C-26.7765501 75.20889396 -24.69216343 75.11337109 -21.6953125 74.7578125 C-19.19498397 71.0073197 -19.5048956 69.28585796 -20.078125 64.97265625 C-21.01281278 61.61842859 -23.09979619 59.97349715 -25.6953125 57.7578125 C-26.85546875 55.62109375 -26.85546875 55.62109375 -27.6953125 53.7578125 C-27.03144531 53.46648437 -26.36757812 53.17515625 -25.68359375 52.875 C-20.05763453 50.26324083 -15.85697068 48.20894729 -12.6953125 42.7578125 C-12.82081298 39.0555482 -13.52991754 36.25399737 -14.6953125 32.7578125 C-18.36608901 31.14267084 -22.7743473 31.15074138 -26.6953125 31.7578125 C-31.97185599 33.8181771 -35.00366652 36.98186907 -38.1953125 41.5703125 C-41.08263114 45.59788862 -41.08263114 45.59788862 -43.91015625 46.3359375 C-46.1328125 46.3203125 -46.1328125 46.3203125 -49.6953125 45.7578125 C-47.87770656 29.1823315 -42.27361369 13.32510058 -29.08203125 2.41796875 C-19.68653462 -4.11736033 -10.16763348 -5.54310237 0 0 Z " fill="#FAFAF9" transform="translate(123.6953125,47.2421875)"/>
<path d="M0 0 C11.03341074 7.48316104 16.80657249 20.68786923 20.27734375 33.1875 C20.92130768 36.85809442 21.0569124 40.04035237 20.90234375 43.75 C15.82830799 44.53735038 15.82830799 44.53735038 12.90234375 43.75 C11.0964901 41.66837559 9.84370569 39.46229372 8.453125 37.0859375 C5.5406887 32.69894277 1.70667553 30.31743168 -3.43359375 29.27734375 C-7.63535367 29.00513671 -9.60852331 29.42058394 -13.16015625 31.8125 C-15.61362578 35.53227638 -15.8791993 37.3733589 -15.09765625 41.75 C-11.52016796 46.59691962 -6.35884044 49.05636539 -1.09765625 51.75 C-1.09765625 52.74 -1.09765625 53.73 -1.09765625 54.75 C-3.08026051 56.43732277 -5.08089045 58.10366057 -7.09765625 59.75 C-8.10262477 62.76490557 -8.20100928 64.79181692 -8.16015625 67.9375 C-8.15113281 68.83855469 -8.14210938 69.73960938 -8.1328125 70.66796875 C-8.12121094 71.35503906 -8.10960938 72.04210937 -8.09765625 72.75 C-3.33515129 73.08883434 0.65186326 73.28942296 5.08984375 71.375 C7.78501126 68.85951032 9.36677367 66.5818307 11.33984375 63.5 C13.08984375 60.8359375 13.08984375 60.8359375 14.90234375 58.75 C18.83984375 58.125 18.83984375 58.125 21.90234375 58.75 C21.60894071 67.55209128 18.82664657 75.33515933 12.90234375 82 C6.57321759 87.75375106 1.29076428 89.22955795 -7.21875 89.0625 C-12.49894709 88.48934428 -14.95201785 85.95593516 -18.47265625 82.25 C-21.07904793 76.63623331 -21.2292622 70.59038769 -19.47265625 64.62890625 C-16.99653355 59.66560673 -12.62641596 56.75085292 -8.09765625 53.75 C-8.93167969 53.54246094 -9.76570313 53.33492187 -10.625 53.12109375 C-19.8616283 50.59239482 -26.33605785 47.30351386 -32.47265625 39.875 C-37.48507797 30.23572746 -39.33565844 19.28652019 -36.18359375 8.671875 C-33.24936014 2.34907484 -29.65185577 -1.59137356 -23.28515625 -4.5625 C-14.16990317 -6.52853498 -7.90171238 -4.70865542 0 0 Z " fill="#FAFAF9" transform="translate(37.09765625,49.25)"/>
<path d="M0 0 C1.71875 0.12890625 1.71875 0.12890625 4 1 C5.67719026 2.95770624 7.08514633 4.80471018 8.5 6.9375 C8.89509766 7.52072021 9.29019531 8.10394043 9.69726562 8.70483398 C12.87906758 13.533601 15.28660159 18.46205157 17 24 C17.18949219 24.60199219 17.37898438 25.20398438 17.57421875 25.82421875 C19.85874503 37.49835764 17.31320149 48.83914721 14 60 C13.4147514 62.00893605 12.83016119 64.01806398 12.24609375 66.02734375 C11.32744443 69.18386413 10.40456993 72.33862233 9.46264648 75.48828125 C7.73503613 81.29220532 6.23837159 87.07175581 5 93 C2.69 93 0.38 93 -2 93 C-2.27199219 92.04738281 -2.54398438 91.09476562 -2.82421875 90.11328125 C-3.6583408 87.19348791 -4.49473895 84.27435446 -5.33203125 81.35546875 C-6.89437332 75.90545054 -8.44905212 70.45327093 -10 65 C-10.2475 64.13084961 -10.495 63.26169922 -10.75 62.36621094 C-11.44126771 59.93268563 -12.12772276 57.49785861 -12.8125 55.0625 C-13.01915283 54.33635498 -13.22580566 53.61020996 -13.4387207 52.86206055 C-17.00803852 40.09863613 -17.36448156 27.98245573 -11.453125 15.81640625 C-8.16843301 9.99552509 -4.55304052 4.88618982 0 0 Z " fill="#FAFAF9" transform="translate(65,0)"/>
<path d="M0 0 C1.134375 0.020625 2.26875 0.04125 3.4375 0.0625 C3.66824219 1.1246875 3.89898437 2.186875 4.13671875 3.28125 C6.42311338 13.36092615 8.4447736 21.89605904 17.4375 28.0625 C16.13412869 35.50326532 8.67422373 40.93763953 3.4296875 45.91015625 C1.4375 47.0625 1.4375 47.0625 -0.95703125 47.0390625 C-4.38570587 45.75395207 -6.44833508 43.86552688 -9.125 41.375 C-10.05441406 40.52550781 -10.98382813 39.67601562 -11.94140625 38.80078125 C-18.5625 31.88366244 -18.5625 31.88366244 -18.5625 28.0625 C-17.675625 27.5675 -16.78875 27.0725 -15.875 26.5625 C-9.28665341 22.32047495 -7.45360148 14.21450408 -5.8125 7 C-5.47992188 5.34291016 -5.47992188 5.34291016 -5.140625 3.65234375 C-4.26120557 -0.28721761 -4.25246056 0.07460457 0 0 Z " fill="#FAFAF9" transform="translate(66.5625,107.9375)"/>
<path d="M0 0 C2.97 0 5.94 0 9 0 C9 4.62 9 9.24 9 14 C9.99 13.67 10.98 13.34 12 13 C18.06704622 12.54210972 22.09519362 13.5960223 26.8125 17.5 C29.46235443 20.84718454 29.11608861 24.34441752 29.09765625 28.41796875 C29.09443359 29.67158203 29.09121094 30.92519531 29.08789062 32.21679688 C29.07951172 33.52712891 29.07113281 34.83746094 29.0625 36.1875 C29.05748317 37.52278481 29.05292059 38.85807141 29.04882812 40.19335938 C29.03702695 43.46228473 29.02056297 46.73111991 29 50 C26.36 50 23.72 50 21 50 C20.98541748 49.25838623 20.97083496 48.51677246 20.95581055 47.75268555 C20.88140543 44.39709369 20.78471994 41.04250506 20.6875 37.6875 C20.66494141 36.52025391 20.64238281 35.35300781 20.61914062 34.15039062 C20.58369141 33.03212891 20.54824219 31.91386719 20.51171875 30.76171875 C20.48553467 29.73006592 20.45935059 28.69841309 20.43237305 27.63549805 C20.15854797 25.0393748 20.15854797 25.0393748 18.96801758 23.13989258 C16.22527925 21.33172597 16.22527925 21.33172597 9 22 C9 31.24 9 40.48 9 50 C6.03 50 3.06 50 0 50 C0 33.5 0 17 0 0 Z " fill="#FAFAF9" transform="translate(133,100)"/>
<path d="M0 0 C2.64 0 5.28 0 8 0 C8 4.62 8 9.24 8 14 C8.99 13.67 9.98 13.34 11 13 C16.24894167 12.60385346 19.55342094 13.13442683 24 16 C28.2460617 20.59033697 29.12765581 23.8305583 29.09765625 29.98046875 C29.09443359 31.14384766 29.09121094 32.30722656 29.08789062 33.50585938 C29.07951172 34.72080078 29.07113281 35.93574219 29.0625 37.1875 C29.05798828 38.41404297 29.05347656 39.64058594 29.04882812 40.90429688 C29.03703065 43.93624668 29.02056921 46.96809906 29 50 C26.03 50 23.06 50 20 50 C19.98541748 49.22285645 19.97083496 48.44571289 19.95581055 47.64501953 C19.88153022 44.13783312 19.78480411 40.6316199 19.6875 37.125 C19.66494141 35.90167969 19.64238281 34.67835938 19.61914062 33.41796875 C19.5659668 31.66806641 19.5659668 31.66806641 19.51171875 29.8828125 C19.48553467 28.80402832 19.45935059 27.72524414 19.43237305 26.61376953 C19.28968994 25.75122559 19.14700684 24.88868164 19 24 C15.49152482 21.26039974 15.49152482 21.26039974 8 22 C8 31.24 8 40.48 8 50 C5.36 50 2.72 50 0 50 C0 33.5 0 17 0 0 Z " fill="#FAFAF9" transform="translate(264,100)"/>
<path d="M0 0 C3.05210686 2.05839765 4.69282116 3.70872912 6.6875 6.8125 C6.97692494 9.60545066 7.07355897 11.86920383 6.9375 14.625 C6.855 16.996875 6.7725 19.36875 6.6875 21.8125 C0.0875 21.8125 -6.5125 21.8125 -13.3125 21.8125 C-11.98026372 26.82899769 -11.98026372 26.82899769 -9.0625 27.8125 C-6.15405523 28.03436147 -6.15405523 28.03436147 -3.375 26.1875 C-1.8590625 25.506875 -1.8590625 25.506875 -0.3125 24.8125 C3.0625 26.125 3.0625 26.125 5.6875 27.8125 C4.19271886 31.61739745 1.99307786 33.47440835 -1.3125 35.8125 C-6.03435079 37.38645026 -9.84846719 37.38663051 -14.5 35.5625 C-18.41259565 33.12799604 -20.83867368 31.23397895 -22.3125 26.8125 C-22.56154978 23.87937281 -22.5436822 20.94263393 -22.5625 18 C-22.583125 17.20529297 -22.60375 16.41058594 -22.625 15.59179688 C-22.65815367 10.58144918 -22.13047289 7.13120729 -19.3125 2.8125 C-13.12557372 -1.88956397 -7.33242075 -2.62860366 0 0 Z M-13.3125 8.8125 C-13.3125 10.4625 -13.3125 12.1125 -13.3125 13.8125 C-9.3525 13.8125 -5.3925 13.8125 -1.3125 13.8125 C-1.80402482 8.95117505 -1.80402482 8.95117505 -4.3125 6.8125 C-8.36511287 6.46759678 -9.86004176 6.51086118 -13.3125 8.8125 Z " fill="#FAFAF9" transform="translate(402.3125,114.1875)"/>
<path d="M0 0 C2.97440363 2.10384647 4.01456682 3.51978664 5.5625 6.8125 C5.7735186 9.52760593 5.84971867 11.9320076 5.75 14.625 C5.6571875 18.1828125 5.6571875 18.1828125 5.5625 21.8125 C-1.0375 21.8125 -7.6375 21.8125 -14.4375 21.8125 C-13.7775 23.4625 -13.1175 25.1125 -12.4375 26.8125 C-7.12950841 27.19465504 -7.12950841 27.19465504 -2.25 25.625 C-1.651875 25.356875 -1.05375 25.08875 -0.4375 24.8125 C2.3125 26.1875 2.3125 26.1875 4.5625 27.8125 C3.04876976 31.66563152 1.07882085 33.64285522 -2.4375 35.8125 C-7.28108813 37.26372774 -11.20313442 37.27264179 -15.8125 35.125 C-19.97887882 32.7229128 -21.9109026 30.39229219 -23.4375 25.8125 C-23.58627911 23.2145878 -23.66853235 20.66106851 -23.6875 18.0625 C-23.708125 17.3715625 -23.72875 16.680625 -23.75 15.96875 C-23.78843658 10.85668448 -22.79726347 7.3601995 -20.4375 2.8125 C-14.84128699 -2.4339497 -6.94943108 -2.40071255 0 0 Z M-14.4375 8.8125 C-14.4375 10.4625 -14.4375 12.1125 -14.4375 13.8125 C-10.4775 13.8125 -6.5175 13.8125 -2.4375 13.8125 C-2.4375 12.1625 -2.4375 10.5125 -2.4375 8.8125 C-6.86979352 5.85763765 -10.00520648 5.85763765 -14.4375 8.8125 Z " fill="#FAFAF9" transform="translate(188.4375,114.1875)"/>
<path d="M0 0 C2.5625 2.125 2.5625 2.125 4.5625 5.125 C4.80541992 8.11181641 4.80541992 8.11181641 4.79296875 11.7265625 C4.79103516 13.02078125 4.78910156 14.315 4.78710938 15.6484375 C4.77780396 16.65729004 4.77780396 16.65729004 4.76831055 17.68652344 C4.75000467 19.74947391 4.74780128 21.81197663 4.74804688 23.875 C4.70264333 33.98485667 4.70264333 33.98485667 3.5625 35.125 C0.65372692 35.27950072 -2.21490059 35.35676915 -5.125 35.375 C-5.92873047 35.395625 -6.73246094 35.41625 -7.56054688 35.4375 C-13.43723684 35.47594114 -17.72342444 34.55830912 -22.25 30.5 C-24.08508892 26.82982216 -24.56182219 23.21300625 -24.4375 19.125 C-22.88196848 15.35897633 -20.87435584 13.2730349 -17.4375 11.125 C-14.42259443 10.12003148 -12.39568308 10.02164697 -9.25 10.0625 C-8.34894531 10.07152344 -7.44789063 10.08054687 -6.51953125 10.08984375 C-5.83246094 10.10144531 -5.14539063 10.11304687 -4.4375 10.125 C-4.7675 9.135 -5.0975 8.145 -5.4375 7.125 C-8.46782442 5.60983779 -11.08864962 5.95471947 -14.4375 6.125 C-17.27128132 7.0224827 -17.27128132 7.0224827 -19.4375 8.125 C-20.7575 6.475 -22.0775 4.825 -23.4375 3.125 C-16.17132218 -3.28633337 -8.58853509 -4.6846555 0 0 Z M-15.4375 20.125 C-15.85416667 23.125 -15.85416667 23.125 -15.4375 26.125 C-13.62556994 28.36824836 -13.62556994 28.36824836 -11.0546875 28.3203125 C-10.14976562 28.29710937 -9.24484375 28.27390625 -8.3125 28.25 C-6.70375 28.20875 -5.095 28.1675 -3.4375 28.125 C-3.7675 24.825 -4.0975 21.525 -4.4375 18.125 C-6.3246875 18.063125 -6.3246875 18.063125 -8.25 18 C-8.95769531 17.97679688 -9.66539062 17.95359375 -10.39453125 17.9296875 C-12.75109719 17.99245538 -12.75109719 17.99245538 -15.4375 20.125 Z " fill="#FAFAF9" transform="translate(404.4375,55.875)"/>
<path d="M0 0 C2.5625 2.125 2.5625 2.125 4.5625 5.125 C4.80541992 8.11181641 4.80541992 8.11181641 4.79296875 11.7265625 C4.79103516 13.02078125 4.78910156 14.315 4.78710938 15.6484375 C4.77780396 16.65729004 4.77780396 16.65729004 4.76831055 17.68652344 C4.75000467 19.74947391 4.74780128 21.81197663 4.74804688 23.875 C4.70264333 33.98485667 4.70264333 33.98485667 3.5625 35.125 C0.84036399 35.27986988 -1.83890477 35.35678197 -4.5625 35.375 C-5.31015625 35.395625 -6.0578125 35.41625 -6.828125 35.4375 C-12.77592557 35.47894809 -17.67036586 34.52318292 -22.3125 30.5 C-24.06183282 26.80696406 -24.54700427 23.19855869 -24.4375 19.125 C-22.69527699 14.51323322 -19.83297878 12.2442487 -15.4375 10.125 C-11.74438281 9.80452289 -8.13377021 9.88822824 -4.4375 10.125 C-4.7675 9.135 -5.0975 8.145 -5.4375 7.125 C-8.46782442 5.60983779 -11.08864962 5.95471947 -14.4375 6.125 C-17.27128132 7.0224827 -17.27128132 7.0224827 -19.4375 8.125 C-20.7575 6.475 -22.0775 4.825 -23.4375 3.125 C-16.17132218 -3.28633337 -8.58853509 -4.6846555 0 0 Z M-15.4375 20.125 C-15.85416667 23.125 -15.85416667 23.125 -15.4375 26.125 C-13.62556994 28.36824836 -13.62556994 28.36824836 -11.0546875 28.3203125 C-10.14976562 28.29710937 -9.24484375 28.27390625 -8.3125 28.25 C-7.40242188 28.23195313 -6.49234375 28.21390625 -5.5546875 28.1953125 C-4.85601562 28.17210937 -4.15734375 28.14890625 -3.4375 28.125 C-3.41060784 26.64593108 -3.39115379 25.16672517 -3.375 23.6875 C-3.36339844 22.86378906 -3.35179687 22.04007813 -3.33984375 21.19140625 C-3.20482652 19.13336062 -3.20482652 19.13336062 -4.4375 18.125 C-10.31396031 17.66168563 -10.31396031 17.66168563 -15.4375 20.125 Z " fill="#FAFAF9" transform="translate(339.4375,55.875)"/>
<path d="M0 0 C2.94603002 2.14687705 3.70709805 3.70385126 4.69921875 7.23828125 C4.92303398 11.60528068 4.83329195 15.85855659 4.69921875 20.23828125 C-2.23078125 20.23828125 -9.16078125 20.23828125 -16.30078125 20.23828125 C-15.64078125 21.88828125 -14.98078125 23.53828125 -14.30078125 25.23828125 C-10.9461997 26.00350926 -10.9461997 26.00350926 -7.30078125 26.23828125 C-5.3364672 24.94563426 -5.3364672 24.94563426 -4.30078125 23.23828125 C0.44921875 25.11328125 0.44921875 25.11328125 2.69921875 26.23828125 C2.35954049 29.40861167 1.70052684 30.23710732 -0.73828125 32.42578125 C-5.30301283 35.65449383 -8.80819471 35.74771171 -14.30078125 35.23828125 C-19.04539177 33.53738314 -21.68479169 31.53988752 -24.30078125 27.23828125 C-24.91746145 23.5837268 -24.90462236 19.9995949 -24.86328125 16.30078125 C-24.88712891 15.32431641 -24.91097656 14.34785156 -24.93554688 13.34179688 C-24.92618045 8.73663954 -24.88807369 5.30353806 -21.91015625 1.6328125 C-15.38364813 -4.35633342 -7.47356083 -4.27270374 0 0 Z M-15.30078125 7.23828125 C-16.11662693 10.29736538 -16.11662693 10.29736538 -16.30078125 13.23828125 C-12.34078125 13.23828125 -8.38078125 13.23828125 -4.30078125 13.23828125 C-4.30078125 11.25828125 -4.30078125 9.27828125 -4.30078125 7.23828125 C-8.35598316 5.00092847 -11.38497066 4.36668682 -15.30078125 7.23828125 Z " fill="#FAFAF9" transform="translate(251.30078125,174.76171875)"/>
<path d="M0 0 C3.12996046 1.72279336 4.86625555 3.22125833 6.859375 6.2109375 C7.08642578 9.30541992 7.08642578 9.30541992 7.0546875 13.06640625 C7.0518576 13.72804276 7.04902771 14.38967926 7.04611206 15.07136536 C7.03493418 17.18057487 7.00983481 19.28935675 6.984375 21.3984375 C6.97434207 22.83007198 6.96521676 24.26171314 6.95703125 25.69335938 C6.93500295 29.19935727 6.90048985 32.70510563 6.859375 36.2109375 C3.63038074 36.2984502 0.40169384 36.35149896 -2.828125 36.3984375 C-3.74013672 36.42357422 -4.65214844 36.44871094 -5.59179688 36.47460938 C-11.74149604 36.541697 -15.33358797 35.91772321 -19.890625 31.5234375 C-22.04640417 27.53524604 -22.77474436 23.61391614 -21.62109375 19.2421875 C-19.83215073 15.38656602 -17.7951882 13.70960582 -13.828125 12.2109375 C-9.57561147 11.04924092 -6.40406 11.21311229 -2.140625 12.2109375 C-2.78042349 10.17852023 -2.78042349 10.17852023 -4.140625 8.2109375 C-8.184837 6.68069512 -10.28999069 7.63119009 -14.140625 9.2109375 C-16.328125 9.0859375 -16.328125 9.0859375 -18.140625 8.2109375 C-19.390625 6.1484375 -19.390625 6.1484375 -20.140625 4.2109375 C-14.19890977 -0.76725634 -7.59810067 -2.80075973 0 0 Z M-11.078125 20.3359375 C-13.35466347 22.04499104 -13.35466347 22.04499104 -13.703125 24.7109375 C-13.33666286 27.28876426 -13.33666286 27.28876426 -11.515625 29.0234375 C-8.53164162 30.51542919 -6.43842131 30.4977024 -3.140625 30.2109375 C-2.480625 29.8809375 -1.820625 29.5509375 -1.140625 29.2109375 C-1.140625 26.2409375 -1.140625 23.2709375 -1.140625 20.2109375 C-4.95981145 19.3871914 -7.38290458 18.9207467 -11.078125 20.3359375 Z " fill="#FAFAF9" transform="translate(348.140625,113.7890625)"/>
<path d="M0 0 C3.52028905 1.88586914 5.51171432 3.5198798 6.859375 7.24609375 C7.08642578 10.36230469 7.08642578 10.36230469 7.0546875 13.98046875 C7.04824219 15.27597656 7.04179687 16.57148438 7.03515625 17.90625 C7.01844693 19.26953394 7.00151706 20.63281519 6.984375 21.99609375 C6.9743384 23.3749936 6.96521373 24.7539004 6.95703125 26.1328125 C6.93345593 29.50408257 6.9005477 32.87500011 6.859375 36.24609375 C3.63038074 36.33360645 0.40169384 36.38665521 -2.828125 36.43359375 C-3.74013672 36.45873047 -4.65214844 36.48386719 -5.59179688 36.50976562 C-11.74149604 36.57685325 -15.33358797 35.95287946 -19.890625 31.55859375 C-21.6901439 28.22948379 -22.25591591 24.98584261 -22.140625 21.24609375 C-20.91702973 17.64328545 -19.8482216 15.81610212 -16.890625 13.43359375 C-11.90188497 11.2793651 -7.38654867 10.81538729 -2.140625 12.24609375 C-2.78042349 10.21367648 -2.78042349 10.21367648 -4.140625 8.24609375 C-8.184837 6.71585137 -10.28999069 7.66634634 -14.140625 9.24609375 C-16.265625 9.12109375 -16.265625 9.12109375 -18.140625 8.24609375 C-19.890625 6.18359375 -19.890625 6.18359375 -21.140625 4.24609375 C-14.51901089 -0.31546264 -7.98528029 -2.81233412 0 0 Z M-11.078125 20.37109375 C-13.35466347 22.08014729 -13.35466347 22.08014729 -13.703125 24.74609375 C-13.33666286 27.32392051 -13.33666286 27.32392051 -11.515625 29.05859375 C-8.53164162 30.55058544 -6.43842131 30.53285865 -3.140625 30.24609375 C-2.480625 29.91609375 -1.820625 29.58609375 -1.140625 29.24609375 C-1.140625 26.27609375 -1.140625 23.30609375 -1.140625 20.24609375 C-4.95981145 19.42234765 -7.38290458 18.95590295 -11.078125 20.37109375 Z " fill="#FAFAF9" transform="translate(218.140625,113.75390625)"/>
<path d="M0 0 C3.61717848 2.32532902 5.25464492 3.57643477 6.625 7.6875 C6.90425501 11.14101784 6.90239623 14.59892839 6.9375 18.0625 C6.96650391 19.00867188 6.99550781 19.95484375 7.02539062 20.9296875 C7.06538846 25.31098915 7.08566954 27.9268596 4.77734375 31.73828125 C0.51392228 35.59934715 -3.44588635 37.29293592 -9.28515625 37.03515625 C-13.03802981 36.41084644 -16.43730928 35.12363377 -19.375 32.6875 C-22.75484561 27.61773158 -22.8628393 23.07262205 -22.8125 17.1875 C-22.83248047 16.35863281 -22.85246094 15.52976563 -22.87304688 14.67578125 C-22.86869129 9.19646116 -22.04171519 6.00994163 -18.375 1.6875 C-12.59989016 -2.3416464 -6.42785522 -2.49972147 0 0 Z M-13.375 8.6875 C-13.48287818 11.45936988 -13.56223327 14.22705537 -13.625 17 C-13.65851563 17.78568359 -13.69203125 18.57136719 -13.7265625 19.38085938 C-13.90526511 23.98040404 -13.90526511 23.98040404 -11.55859375 27.74609375 C-8.52250938 29.05503173 -6.51565317 28.52500751 -3.375 27.6875 C-2.18158248 26.71417739 -2.18158248 26.71417739 -2.26147461 24.92163086 C-2.26671143 24.17276611 -2.27194824 23.42390137 -2.27734375 22.65234375 C-2.28056641 21.84345703 -2.28378906 21.03457031 -2.28710938 20.20117188 C-2.29548828 19.35103516 -2.30386719 18.50089844 -2.3125 17.625 C-2.31701172 16.77099609 -2.32152344 15.91699219 -2.32617188 15.03710938 C-2.33799627 12.92054337 -2.35593231 10.80401315 -2.375 8.6875 C-6.69928521 6.30168747 -9.05071479 6.30168747 -13.375 8.6875 Z " fill="#FAFAF9" transform="translate(151.375,173.3125)"/>
<path d="M0 0 C4.02463786 2.09315204 6.14428402 4.18774941 7.97265625 8.2734375 C8.42885664 11.59352125 8.43697155 14.86390056 8.41015625 18.2109375 C8.44012695 19.53254883 8.44012695 19.53254883 8.47070312 20.88085938 C8.46648828 26.50768012 7.77841106 29.84959477 3.97265625 34.2734375 C-0.11882652 37.12796036 -3.81751632 37.86091051 -8.7109375 37.6953125 C-12.73648244 36.96216098 -16.01905533 35.01480344 -19.02734375 32.2734375 C-21.71242225 27.78152619 -21.39498427 23.49855784 -21.40234375 18.3984375 C-21.42683594 17.51285156 -21.45132812 16.62726563 -21.4765625 15.71484375 C-21.50185011 10.05884905 -20.86565072 6.72000076 -17.02734375 2.2734375 C-11.87167586 -1.3235401 -5.94317668 -2.12992459 0 0 Z M-12.02734375 9.2734375 C-12.02734375 15.2134375 -12.02734375 21.1534375 -12.02734375 27.2734375 C-7.67508926 29.44956475 -6.55685905 29.38065235 -2.02734375 28.2734375 C-0.83392623 27.30011489 -0.83392623 27.30011489 -0.91381836 25.50756836 C-0.91905518 24.75870361 -0.92429199 24.00983887 -0.9296875 23.23828125 C-0.93291016 22.42939453 -0.93613281 21.62050781 -0.93945312 20.78710938 C-0.94783203 19.93697266 -0.95621094 19.08683594 -0.96484375 18.2109375 C-0.96935547 17.35693359 -0.97386719 16.50292969 -0.97851562 15.62304688 C-0.99034002 13.50648087 -1.00827606 11.38995065 -1.02734375 9.2734375 C-5.54888294 6.77879519 -7.22630917 6.87292021 -12.02734375 9.2734375 Z " fill="#FAFAF9" transform="translate(339.02734375,172.7265625)"/>
<path d="M0 0 C3.86474354 2.45938225 6.28441109 4.35323328 7.75 8.75 C7.92529842 11.68121943 8.02713801 14.56731227 8.0625 17.5 C8.09150391 18.28632812 8.12050781 19.07265625 8.15039062 19.8828125 C8.21302291 25.68352607 7.10689193 28.99542034 3.75 33.75 C-0.96228571 37.14722923 -5.63008224 37.48654218 -11.25 36.75 C-15.99461052 35.04910189 -18.63401044 33.05160627 -21.25 28.75 C-21.8666802 25.09544555 -21.85384111 21.51131365 -21.8125 17.8125 C-21.83634766 16.83603516 -21.86019531 15.85957031 -21.88476562 14.85351562 C-21.8753992 10.24835829 -21.83729244 6.81525681 -18.859375 3.14453125 C-13.30276674 -1.95457184 -6.95675472 -2.67567489 0 0 Z M-11.25 7.75 C-13.67936835 11.39405252 -13.57947342 13.348817 -13.625 17.6875 C-13.65335938 18.91339844 -13.68171875 20.13929687 -13.7109375 21.40234375 C-13.524798 24.80765401 -13.524798 24.80765401 -11.38671875 27.1640625 C-9.33926554 28.93358606 -9.33926554 28.93358606 -6.6875 29.1875 C-4.28359973 28.91246391 -4.28359973 28.91246391 -2.6171875 27.7265625 C-0.46774908 24.61908867 -0.85708653 21.32540544 -0.9375 17.6875 C-0.93427734 16.95466797 -0.93105469 16.22183594 -0.92773438 15.46679688 C-0.83541396 11.14212339 -0.83541396 11.14212339 -3.25 7.75 C-5.15821061 7.39486621 -5.15821061 7.39486621 -7.25 7.4375 C-8.301875 7.41236328 -8.301875 7.41236328 -9.375 7.38671875 C-9.99375 7.50660156 -10.6125 7.62648438 -11.25 7.75 Z " fill="#FAFAF9" transform="translate(219.25,54.25)"/>
<path d="M0 0 C2.85791972 2.34495977 3.82725165 3.48175495 5 7 C5.09476385 9.05297843 5.1307224 11.10889918 5.1328125 13.1640625 C5.13410156 14.36804688 5.13539063 15.57203125 5.13671875 16.8125 C5.13285156 18.070625 5.12898438 19.32875 5.125 20.625 C5.13080078 22.52378906 5.13080078 22.52378906 5.13671875 24.4609375 C5.13542969 25.66234375 5.13414062 26.86375 5.1328125 28.1015625 C5.13168457 29.20838379 5.13055664 30.31520508 5.12939453 31.45556641 C5 34 5 34 4 35 C-1.52941176 35.23529412 -1.52941176 35.23529412 -4 34 C-4.02505615 33.21761963 -4.0501123 32.43523926 -4.07592773 31.62915039 C-4.19149788 28.10675051 -4.31439949 24.5846444 -4.4375 21.0625 C-4.47681641 19.83080078 -4.51613281 18.59910156 -4.55664062 17.33007812 C-4.59853516 16.16025391 -4.64042969 14.99042969 -4.68359375 13.78515625 C-4.72025146 12.70113525 -4.75690918 11.61711426 -4.79467773 10.50024414 C-4.72364265 8.060737 -4.72364265 8.060737 -6 7 C-8.97 6.67 -11.94 6.34 -15 6 C-15 15.24 -15 24.48 -15 34 C-17.73247348 35.36623674 -19.98198902 35.128426 -23 35 C-24 34 -24 34 -24.11352539 30.76538086 C-24.11336631 29.33185874 -24.10767407 27.89833088 -24.09765625 26.46484375 C-24.0962413 25.71159317 -24.09482635 24.95834259 -24.09336853 24.18226624 C-24.08775376 21.7673044 -24.07519883 19.35243399 -24.0625 16.9375 C-24.0574869 15.30403779 -24.05292366 13.67057414 -24.04882812 12.03710938 C-24.03777954 8.02470415 -24.02050506 4.01236759 -24 0 C-22.57581752 -0.49679468 -21.14964092 -0.987875 -19.72265625 -1.4765625 C-18.53168335 -1.88769287 -18.53168335 -1.88769287 -17.31665039 -2.30712891 C-11.10163788 -4.16593442 -5.62052175 -2.88357203 0 0 Z " fill="#FAFAF9" transform="translate(372,56)"/>
<path d="M0 0 C2.97 0 5.94 0 9 0 C9.33 8.58 9.66 17.16 10 26 C14.17155008 28.33084658 14.17155008 28.33084658 20 29 C20 19.43 20 9.86 20 0 C22.97 0 25.94 0 29 0 C29 11.88 29 23.76 29 36 C25.82375 36.0825 22.6475 36.165 19.375 36.25 C18.3854834 36.28641602 17.3959668 36.32283203 16.37646484 36.36035156 C10.75488143 36.43080601 7.34467642 35.93026114 3 32 C0.1482805 28.09909899 -0.36115831 25.40146764 -0.29296875 20.60546875 C-0.28330078 19.40341797 -0.27363281 18.20136719 -0.26367188 16.96289062 C-0.23853516 15.71701172 -0.21339844 14.47113281 -0.1875 13.1875 C-0.17396484 11.92228516 -0.16042969 10.65707031 -0.14648438 9.35351562 C-0.11118318 6.23524357 -0.06186819 3.11783958 0 0 Z " fill="#FAFAF9" transform="translate(230,54)"/>
<path d="M0 0 C2.70319812 1.66394338 4.09501723 3.50431522 5.859375 6.14453125 C6.31347656 9.37426758 6.31347656 9.37426758 6.25 12.9765625 C6.23066406 14.91499023 6.23066406 14.91499023 6.2109375 16.89257812 C6.17752134 18.24740671 6.14366162 19.60222442 6.109375 20.95703125 C6.08929534 22.33135442 6.07104713 23.70570564 6.0546875 25.08007812 C6.00759232 28.43560981 5.94182635 31.78971252 5.859375 35.14453125 C3.219375 35.14453125 0.579375 35.14453125 -2.140625 35.14453125 C-2.16568115 34.39768066 -2.1907373 33.65083008 -2.21655273 32.88134766 C-2.33230713 29.51055858 -2.45512628 26.14006342 -2.578125 22.76953125 C-2.61744141 21.59390625 -2.65675781 20.41828125 -2.69726562 19.20703125 C-2.73916016 18.08554688 -2.78105469 16.9640625 -2.82421875 15.80859375 C-2.86087646 14.7717041 -2.89753418 13.73481445 -2.93530273 12.66650391 C-2.98226723 10.15027959 -2.98226723 10.15027959 -4.140625 8.14453125 C-7.50590573 7.61035971 -10.73690016 7.14453125 -14.140625 7.14453125 C-14.140625 16.38453125 -14.140625 25.62453125 -14.140625 35.14453125 C-17.110625 35.14453125 -20.080625 35.14453125 -23.140625 35.14453125 C-23.140625 23.92453125 -23.140625 12.70453125 -23.140625 1.14453125 C-14.13868006 -1.85611706 -8.72333019 -3.08200302 0 0 Z " fill="#FAFAF9" transform="translate(373.140625,173.85546875)"/>
<path d="M0 0 C3.78987027 1.75611205 6.74256929 3.44488227 8.7578125 7.23828125 C9.81657756 10.56174248 9.87320197 13.62194505 9.85546875 17.09765625 C9.85224609 18.21269531 9.84902344 19.32773438 9.84570312 20.4765625 C9.83732422 21.63542969 9.82894531 22.79429687 9.8203125 23.98828125 C9.81580078 25.16261719 9.81128906 26.33695313 9.80664062 27.546875 C9.79486344 30.44406197 9.77841576 33.34114579 9.7578125 36.23828125 C6.7878125 36.23828125 3.8178125 36.23828125 0.7578125 36.23828125 C0.73275635 35.49143066 0.7077002 34.74458008 0.68188477 33.97509766 C0.56613037 30.60430858 0.44331122 27.23381342 0.3203125 23.86328125 C0.28099609 22.68765625 0.24167969 21.51203125 0.20117188 20.30078125 C0.15927734 19.17929688 0.11738281 18.0578125 0.07421875 16.90234375 C0.03756104 15.8654541 0.00090332 14.82856445 -0.03686523 13.76025391 C-0.08382973 11.24402959 -0.08382973 11.24402959 -1.2421875 9.23828125 C-4.60746823 8.70410971 -7.83846266 8.23828125 -11.2421875 8.23828125 C-11.2421875 17.47828125 -11.2421875 26.71828125 -11.2421875 36.23828125 C-13.8821875 36.23828125 -16.5221875 36.23828125 -19.2421875 36.23828125 C-19.2421875 25.01828125 -19.2421875 13.79828125 -19.2421875 2.23828125 C-6.96430816 -2.3659235 -6.96430816 -2.3659235 0 0 Z " fill="#FAFAF9" transform="translate(181.2421875,172.76171875)"/>
<path d="M0 0 C3.94086077 1.82607651 6.4767012 3.45077569 8.7578125 7.23828125 C9.09838867 10.35449219 9.09838867 10.35449219 9.05078125 13.97265625 C9.04111328 15.26816406 9.03144531 16.56367188 9.02148438 17.8984375 C8.99642033 19.26172479 8.97102552 20.62500604 8.9453125 21.98828125 C8.93025768 23.36717309 8.91657067 24.7460806 8.90429688 26.125 C8.86893159 29.4964904 8.81957154 32.86718779 8.7578125 36.23828125 C6.1178125 36.23828125 3.4778125 36.23828125 0.7578125 36.23828125 C0.2628125 23.36828125 0.2628125 23.36828125 -0.2421875 10.23828125 C-4.5403299 7.71653206 -4.5403299 7.71653206 -11.2421875 8.23828125 C-11.2421875 17.47828125 -11.2421875 26.71828125 -11.2421875 36.23828125 C-13.8821875 36.23828125 -16.5221875 36.23828125 -19.2421875 36.23828125 C-19.2421875 25.01828125 -19.2421875 13.79828125 -19.2421875 2.23828125 C-6.96430816 -2.3659235 -6.96430816 -2.3659235 0 0 Z " fill="#FAFAF9" transform="translate(214.2421875,172.76171875)"/>
<path d="M0 0 C-0.9331374 2.3328435 -1.72579298 3.77657205 -3.6875 5.375 C-7.11604788 6.30163456 -9.66676158 5.03027369 -13 4 C-13.99 4.33 -14.98 4.66 -16 5 C-16 5.99 -16 6.98 -16 8 C-15.19175781 8.23074219 -14.38351562 8.46148437 -13.55078125 8.69921875 C-1.96482578 12.23510142 -1.96482578 12.23510142 1 17 C1.91361138 21.60158391 1.66232072 24.88824736 -0.75 28.9375 C-4.91959507 32.75962881 -8.23012701 33.38995993 -13.75390625 33.25390625 C-18.93366366 32.66836846 -22.76933289 29.97620568 -26 26 C-26 25.01 -26 24.02 -26 23 C-24.02 22.01 -22.04 21.02 -20 20 C-18.948125 20.99 -18.948125 20.99 -17.875 22 C-14.56539771 24.30233203 -12.93774177 24.36630156 -9 24 C-8.67 23.01 -8.34 22.02 -8 21 C-10.69596697 19.20268868 -12.34350099 18.53073266 -15.375 17.6875 C-19.67349228 16.28733965 -22.24011473 14.70859583 -25 11 C-26.27497059 7.2547739 -26.19474412 5.55177501 -24.875 1.8125 C-22.46751015 -1.79873477 -20.1210035 -3.12234338 -16.1875 -4.75 C-9.4808375 -5.51647571 -5.17603446 -4.0114267 0 0 Z " fill="#FAFAF9" transform="translate(300,58)"/>
<path d="M0 0 C1.6484375 1.09765625 1.6484375 1.09765625 4.0859375 3.03515625 C3.10451811 5.48870473 2.36348158 6.83162393 0.2109375 8.41015625 C-2.60131227 9.23728854 -3.35017896 8.31709802 -5.9140625 7.03515625 C-9.09928454 7.3431908 -9.09928454 7.3431908 -11.9140625 8.03515625 C-11.9140625 9.02515625 -11.9140625 10.01515625 -11.9140625 11.03515625 C-11.10582031 11.26589844 -10.29757812 11.49664062 -9.46484375 11.734375 C2.03748894 15.24473709 2.03748894 15.24473709 5.0859375 20.03515625 C5.79121297 24.97208457 5.63055344 26.98482551 3.3359375 31.41015625 C0.75361806 34.42286227 -1.11740167 35.78362373 -5.0625 36.3359375 C-11.36580007 36.36911276 -15.36303502 35.18338991 -20.2890625 31.03515625 C-21.9140625 29.03515625 -21.9140625 29.03515625 -21.9140625 26.03515625 C-19.9340625 25.04515625 -17.9540625 24.05515625 -15.9140625 23.03515625 C-15.5840625 23.50953125 -15.2540625 23.98390625 -14.9140625 24.47265625 C-11.81592983 26.8930724 -8.79379458 26.71714542 -4.9140625 27.03515625 C-4.5840625 25.38515625 -4.2540625 23.73515625 -3.9140625 22.03515625 C-4.89246094 21.88820312 -4.89246094 21.88820312 -5.890625 21.73828125 C-11.39402101 20.79669727 -15.59546197 19.81393172 -19.9140625 16.03515625 C-21.6775242 13.12161083 -21.92243766 11.43716391 -21.8515625 8.03515625 C-20.41649332 3.44293488 -17.70321751 1.12852875 -13.6640625 -1.33984375 C-9.02146971 -2.39497848 -4.30250609 -2.1688143 0 0 Z " fill="#FAFAF9" transform="translate(403.9140625,173.96484375)"/>
<path d="M0 0 C2.44912441 2.01692598 3.73969474 3.90647868 5.125 6.75 C5.125 7.41 5.125 8.07 5.125 8.75 C-0.22341789 10.41590065 -0.22341789 10.41590065 -2.875 10.75 C-4.4375 9.375 -4.4375 9.375 -5.875 7.75 C-9.45875742 7.41645597 -9.45875742 7.41645597 -12.875 7.75 C-14.69616003 9.57116003 -14.0073508 12.05671764 -14.01171875 14.4765625 C-14.00785156 15.22679687 -14.00398438 15.97703125 -14 16.75 C-14.00386719 17.50023437 -14.00773437 18.25046875 -14.01171875 19.0234375 C-14.35175541 22.68606117 -14.35175541 22.68606117 -12.875 25.75 C-11.35571962 25.82179964 -9.83332518 25.83392007 -8.3125 25.8125 C-7.48621094 25.80347656 -6.65992187 25.79445312 -5.80859375 25.78515625 C-5.17050781 25.77355469 -4.53242187 25.76195312 -3.875 25.75 C-3.545 24.76 -3.215 23.77 -2.875 22.75 C-0.235 23.41 2.405 24.07 5.125 24.75 C3.970289 29.36884399 2.67211344 30.68658385 -0.875 33.75 C-4.89582978 35.97203751 -8.32585634 36.21262478 -12.875 35.75 C-16.83129237 34.40209192 -19.86047696 32.95256964 -22.58203125 29.7265625 C-24.45420996 25.41659218 -24.34975071 21.46206617 -24.3125 16.8125 C-24.33248047 15.93142578 -24.35246094 15.05035156 -24.37304688 14.14257812 C-24.36884855 8.53780954 -23.73252477 5.11365391 -19.875 0.75 C-13.85692206 -3.46394322 -6.45852207 -2.80805307 0 0 Z " fill="#FAFAF9" transform="translate(122.875,174.25)"/>
<path d="M0 0 C2.77395088 1.64326438 5.03566693 3.43495346 7 6 C7.33 7.32 7.66 8.64 8 10 C5.36 10.66 2.72 11.32 0 12 C-0.33 11.01 -0.66 10.02 -1 9 C-2.47906892 8.97310784 -3.95827483 8.95365379 -5.4375 8.9375 C-6.26121094 8.92589844 -7.08492188 8.91429687 -7.93359375 8.90234375 C-9.99163938 8.76732652 -9.99163938 8.76732652 -11 10 C-11.09981214 12.6773138 -11.13879875 15.32304175 -11.125 18 C-11.12886719 18.75023437 -11.13273437 19.50046875 -11.13671875 20.2734375 C-11.47675541 23.93606117 -11.47675541 23.93606117 -10 27 C-8.48071962 27.07179964 -6.95832518 27.08392007 -5.4375 27.0625 C-4.61121094 27.05347656 -3.78492188 27.04445312 -2.93359375 27.03515625 C-2.29550781 27.02355469 -1.65742188 27.01195312 -1 27 C-0.67 26.01 -0.34 25.02 0 24 C2.64 24.66 5.28 25.32 8 26 C7.07862913 30.05403182 6.38548724 31.69653132 3.0625 34.3125 C-1.53697533 36.84690477 -4.76832008 37.42882622 -10 37 C-13.95606462 35.66437451 -16.98712877 34.19555805 -19.7109375 30.98046875 C-21.58386688 26.65002901 -21.43587318 22.66694361 -21.375 18 C-21.38660156 17.11054688 -21.39820313 16.22109375 -21.41015625 15.3046875 C-21.38829918 10.42327495 -21.27028223 6.89426711 -18 3 C-12.66068923 -1.41448788 -6.49848118 -2.01495114 0 0 Z " fill="#FAFAF9" transform="translate(279,173)"/>
<path d="M0 0 C3.37309578 1.86216093 5.16151574 3.68828737 6.6875 7.3125 C6.6875 7.9725 6.6875 8.6325 6.6875 9.3125 C4.0475 9.9725 1.4075 10.6325 -1.3125 11.3125 C-1.9725 10.3225 -2.6325 9.3325 -3.3125 8.3125 C-5.74943311 7.94833953 -5.74943311 7.94833953 -8.4375 8.125 C-9.80261719 8.16560547 -9.80261719 8.16560547 -11.1953125 8.20703125 C-11.89398438 8.24183594 -12.59265625 8.27664062 -13.3125 8.3125 C-13.36647335 10.7502963 -13.40615616 13.18689685 -13.4375 15.625 C-13.45425781 16.31529297 -13.47101563 17.00558594 -13.48828125 17.71679688 C-13.52467794 21.48385396 -13.45628864 23.09681704 -11.3125 26.3125 C-7.85463985 26.81257794 -7.85463985 26.81257794 -4.3125 26.3125 C-3.796875 25.796875 -3.28125 25.28125 -2.75 24.75 C-2.275625 24.275625 -1.80125 23.80125 -1.3125 23.3125 C1.68525644 23.55721481 3.99427828 23.96588914 6.6875 25.3125 C5.36479516 29.28061453 4.10543905 31.83449419 0.6875 34.3125 C-5.29996295 36.35011828 -10.40840832 36.97512958 -16.3125 34.3125 C-22.15669174 29.23059414 -22.15669174 29.23059414 -22.47363281 25.32885742 C-22.51908886 22.71909908 -22.54778473 20.11012145 -22.5625 17.5 C-22.583125 16.59701172 -22.60375 15.69402344 -22.625 14.76367188 C-22.65410412 9.81233319 -22.63489396 6.27470533 -19.3125 2.3125 C-12.94555491 -2.30665624 -7.25290726 -3.25450967 0 0 Z " fill="#FAFAF9" transform="translate(319.3125,114.6875)"/>
<path d="M0 0 C2.97 0 5.94 0 9 0 C9 4.29 9 8.58 9 13 C11.31 13 13.62 13 16 13 C16 15.97 16 18.94 16 22 C13.69 22 11.38 22 9 22 C9.33 28.6 9.66 35.2 10 42 C12.31 42.33 14.62 42.66 17 43 C17 45.31 17 47.62 17 50 C12.19923176 51.60754654 8.45330092 50.06186987 4 48 C1.01235132 45.10571535 0.12656028 42.10442394 -0.12025452 38.00042725 C-0.11803391 37.29871399 -0.11581329 36.59700073 -0.11352539 35.87402344 C-0.11344986 35.07349548 -0.11337433 34.27296753 -0.11329651 33.44818115 C-0.10813522 32.59387512 -0.10297394 31.73956909 -0.09765625 30.859375 C-0.0962413 29.97719299 -0.09482635 29.09501099 -0.09336853 28.18609619 C-0.08778001 25.37402935 -0.07522961 22.5620427 -0.0625 19.75 C-0.05748352 17.84114698 -0.05292087 15.93229272 -0.04882812 14.0234375 C-0.03781434 9.34892753 -0.02055758 4.67447735 0 0 Z " fill="#FAFAF9" transform="translate(245,100)"/>
<path d="M0 0 C2.97 0 5.94 0 9 0 C9 4.29 9 8.58 9 13 C11.31 13 13.62 13 16 13 C16 15.64 16 18.28 16 21 C13.69 21 11.38 21 9 21 C9.33 27.27 9.66 33.54 10 40 C12.31 40.66 14.62 41.32 17 42 C17 44.64 17 47.28 17 50 C12.3926927 50.31774533 9.8746984 50.42909733 5.6875 48.375 C2.2909905 45.37343346 0.31319333 42.52802626 -0.25765991 37.92022705 C-0.34609642 35.495628 -0.33747269 33.08985303 -0.29296875 30.6640625 C-0.28872391 29.78471039 -0.28447906 28.90535828 -0.28010559 27.99935913 C-0.26339461 25.20758658 -0.22575692 22.41655212 -0.1875 19.625 C-0.17244334 17.72527089 -0.15875666 15.82553039 -0.14648438 13.92578125 C-0.11351598 9.28357242 -0.06178653 4.64191109 0 0 Z " fill="#FAFAF9" transform="translate(288,160)"/>
<path d="M0 0 C6.15234375 -0.09765625 6.15234375 -0.09765625 8 0 C10.13086442 2.13086442 9.25960872 6.89166935 9.31640625 9.84765625 C9.33718735 10.7340831 9.35796844 11.62050995 9.37937927 12.53379822 C9.444974 15.376617 9.50380552 18.21953117 9.5625 21.0625 C9.6056758 22.98503606 9.64928978 24.90756234 9.69335938 26.83007812 C9.80066543 31.55328668 9.90190451 36.27659153 10 41 C11.65 41.33 13.3 41.66 15 42 C15 44.97 15 47.94 15 51 C13.22694336 50.74412595 11.45655392 50.46972261 9.6875 50.1875 C8.70136719 50.03667969 7.71523437 49.88585937 6.69921875 49.73046875 C3.82369368 48.95228758 2.76196331 48.35498656 1 46 C0.07312675 43.21938025 -0.12193396 41.57948141 -0.11352539 38.7121582 C-0.11344986 37.85149246 -0.11337433 36.99082672 -0.11329651 36.1040802 C-0.10813522 35.17899155 -0.10297394 34.25390289 -0.09765625 33.30078125 C-0.0962413 32.35059616 -0.09482635 31.40041107 -0.09336853 30.4214325 C-0.08776875 27.38508971 -0.07521632 24.34882052 -0.0625 21.3125 C-0.05748497 19.25455836 -0.05292207 17.19661556 -0.04882812 15.13867188 C-0.0377994 10.09241954 -0.02053493 5.04622225 0 0 Z " fill="#FAFAF9" transform="translate(229,100)"/>
<path d="M0 0 C2.64 0 5.28 0 8 0 C8.33 13.2 8.66 26.4 9 40 C10.98 40.66 12.96 41.32 15 42 C15 44.64 15 47.28 15 50 C8.90932974 50.42004622 5.89183119 50.0566405 1 46 C-0.1650499 43.6699002 -0.1209358 42.32752923 -0.11352539 39.73388672 C-0.11344986 38.85312469 -0.11337433 37.97236267 -0.11329651 37.06491089 C-0.10813522 36.11278717 -0.10297394 35.16066345 -0.09765625 34.1796875 C-0.0962413 33.20589142 -0.09482635 32.23209534 -0.09336853 31.22879028 C-0.08775973 28.11082927 -0.07520573 24.9929394 -0.0625 21.875 C-0.05748613 19.76432395 -0.05292303 17.65364678 -0.04882812 15.54296875 C-0.03778745 10.36195479 -0.02104073 5.18098248 0 0 Z " fill="#FAFAF9" transform="translate(182,40)"/>
<path d="M0 0 C1 1 1 1 1.0625 4.5625 C1.041875 5.696875 1.02125 6.83125 1 8 C-3.455 8.495 -3.455 8.495 -8 9 C-8.33 18.24 -8.66 27.48 -9 37 C-11.97 37 -14.94 37 -18 37 C-18.11673963 32.64606096 -18.18743418 28.29252789 -18.25 23.9375 C-18.28351563 22.70837891 -18.31703125 21.47925781 -18.3515625 20.21289062 C-18.42630225 13.28077835 -18.39988428 8.52142342 -14 3 C-9.26410806 0.22995 -5.44807713 -0.43584617 0 0 Z " fill="#FAFAF9" transform="translate(378,113)"/>
<path d="M0 0 C2.97 0 5.94 0 9 0 C9 11.88 9 23.76 9 36 C6.26752652 37.36623674 4.01801098 37.128426 1 37 C0 36 0 36 -0.11352539 32.58178711 C-0.11336628 31.06363012 -0.10767226 29.54546771 -0.09765625 28.02734375 C-0.0962413 27.22970108 -0.09482635 26.43205841 -0.09336853 25.61024475 C-0.08775316 23.05262565 -0.07519812 20.49509282 -0.0625 17.9375 C-0.05748698 16.20768355 -0.05292373 14.47786574 -0.04882812 12.74804688 C-0.03777875 8.49866447 -0.02050386 4.24934688 0 0 Z " fill="#FAFAF9" transform="translate(263,54)"/>
<path d="M0 0 C5.39346988 -0.02464849 10.78690725 -0.04283531 16.18041992 -0.05493164 C18.01668875 -0.05997231 19.85295354 -0.06680477 21.68920898 -0.07543945 C24.32276401 -0.08751672 26.95626616 -0.09323081 29.58984375 -0.09765625 C30.41588608 -0.10281754 31.24192841 -0.10797882 32.09300232 -0.11329651 C34.06236368 -0.11349205 36.03161614 -0.06204152 38 0 C39 1 39 1 39.0625 4.0625 C39.041875 5.031875 39.02125 6.00125 39 7 C35.90924455 8.54537772 32.64598985 8.16290768 29.25390625 8.16796875 C28.10353127 8.17296135 28.10353127 8.17296135 26.92991638 8.17805481 C25.30671794 8.18312063 23.68350907 8.18546324 22.06030273 8.18530273 C19.57583467 8.18748827 17.09181128 8.20564457 14.60742188 8.22460938 C13.03125152 8.22754355 11.45507905 8.22952818 9.87890625 8.23046875 C9.13508194 8.23765427 8.39125763 8.24483978 7.62489319 8.25224304 C3.86690616 8.23558426 2.20791073 8.13860716 -1 6 C-0.67 4.02 -0.34 2.04 0 0 Z " fill="#FAFAF9" transform="translate(47,97)"/>
<path d="M0 0 C2.64 0 5.28 0 8 0 C8.0246501 5.10863896 8.04283607 10.21724359 8.05493164 15.32592773 C8.05997204 17.06519168 8.0668043 18.80445136 8.07543945 20.54370117 C8.08751792 23.03825937 8.09323108 25.53276173 8.09765625 28.02734375 C8.10281754 28.80963852 8.10797882 29.59193329 8.11329651 30.39793396 C8.11349226 32.26567114 8.06199694 34.13329204 8 36 C7 37 7 37 4 37.125 C1 37 1 37 0 36 C-0.08855161 33.3337397 -0.11524673 30.69352886 -0.09765625 28.02734375 C-0.0962413 27.22970108 -0.09482635 26.43205841 -0.09336853 25.61024475 C-0.08775316 23.05262565 -0.07519812 20.49509282 -0.0625 17.9375 C-0.05748698 16.20768355 -0.05292373 14.47786574 -0.04882812 12.74804688 C-0.03777875 8.49866447 -0.02050386 4.24934688 0 0 Z " fill="#FAFAF9" transform="translate(304,54)"/>
<path d="M0 0 C2.64 0 5.28 0 8 0 C8 11.88 8 23.76 8 36 C5.36 36 2.72 36 0 36 C0 24.12 0 12.24 0 0 Z " fill="#FAFAF9" transform="translate(307,173)"/>
<path d="M0 0 C1.6026782 -0.10824843 3.20745748 -0.18570645 4.8125 -0.25 C5.70582031 -0.29640625 6.59914063 -0.3428125 7.51953125 -0.390625 C10 0 10 0 11.82421875 2.015625 C12.40623047 2.99789062 12.40623047 2.99789062 13 4 C14.32 2.68 15.64 1.36 17 0 C17 3.3 17 6.6 17 10 C15.02 9.34 13.04 8.68 11 8 C10.67 8.66 10.34 9.32 10 10 C9.34 10 8.68 10 8 10 C8 7.69 8 5.38 8 3 C7.01 3 6.02 3 5 3 C5 5.31 5 7.62 5 10 C4.34 10 3.68 10 3 10 C3 7.69 3 5.38 3 3 C2.01 3 1.02 3 0 3 C0 2.01 0 1.02 0 0 Z " fill="#FAFAF9" transform="translate(416,199)"/>
<path d="M0 0 C3 0.25 3 0.25 5 2.25 C5.25 5.25 5.25 5.25 5 8.25 C3 10.25 3 10.25 0 10.5 C-3 10.25 -3 10.25 -5 8.25 C-5.25 5.25 -5.25 5.25 -5 2.25 C-3 0.25 -3 0.25 0 0 Z " fill="#FAFAF9" transform="translate(311,159.75)"/>
<path d="M0 0 C3 0.25 3 0.25 5 2.25 C5.25 5.25 5.25 5.25 5 8.25 C3 10.25 3 10.25 0 10.5 C-3 10.25 -3 10.25 -5 8.25 C-5.25 5.25 -5.25 5.25 -5 2.25 C-3 0.25 -3 0.25 0 0 Z " fill="#FAFAF9" transform="translate(308,40.75)"/>
<path d="M0 0 C1.9375 1.6875 1.9375 1.6875 3 4 C2.33228817 6.39263407 1.77902615 8.22097385 0 10 C-2.9375 10.25 -2.9375 10.25 -6 10 C-8 7 -8 7 -7.75 3.875 C-7.37875 2.451875 -7.37875 2.451875 -7 1 C-4.4254716 -0.2872642 -2.85291355 -0.34791629 0 0 Z " fill="#FAFAF9" transform="translate(270,41)"/>
</svg>
