<?xml version="1.0" encoding="UTF-8"?>
<svg version="1.1" xmlns="http://www.w3.org/2000/svg" width="534" height="262">
<path d="M0 0 C1.00804687 -0.02900391 2.01609375 -0.05800781 3.0546875 -0.08789062 C14.04072839 -0.18038967 22.30519725 3.9747442 30.375 11.375 C38.08657528 19.32595899 42.13289934 29.55503783 42.25 40.5625 C42.06490757 52.29273267 37.89279709 62.03791379 29.76953125 70.5078125 C19.98599116 79.63462615 10.0503424 82.83622335 -3.3359375 82.625 C-14.52665219 81.70205446 -23.88381537 76.03471544 -31.4375 67.9375 C-40.08844256 57.687079 -42.21852624 46.57150561 -41.125 33.3125 C-38.52776735 21.59543907 -31.63577221 12.41344817 -22.125 5.3125 C-14.64753521 0.82082844 -8.51862644 0.07986212 0 0 Z M-23.125 29.3125 C-23.125 30.3025 -23.125 31.2925 -23.125 32.3125 C-21.475 32.3125 -19.825 32.3125 -18.125 32.3125 C-18.125 38.5825 -18.125 44.8525 -18.125 51.3125 C-17.135 51.3125 -16.145 51.3125 -15.125 51.3125 C-15.125 45.0425 -15.125 38.7725 -15.125 32.3125 C-13.475 32.3125 -11.825 32.3125 -10.125 32.3125 C-10.125 31.3225 -10.125 30.3325 -10.125 29.3125 C-14.415 29.3125 -18.705 29.3125 -23.125 29.3125 Z M-3.125 29.3125 C-3.125 36.5725 -3.125 43.8325 -3.125 51.3125 C-2.465 51.3125 -1.805 51.3125 -1.125 51.3125 C-1.125 48.0125 -1.125 44.7125 -1.125 41.3125 C1.515 41.3125 4.155 41.3125 6.875 41.3125 C6.875 40.3225 6.875 39.3325 6.875 38.3125 C4.235 38.3125 1.595 38.3125 -1.125 38.3125 C-1.125 36.3325 -1.125 34.3525 -1.125 32.3125 C1.515 32.3125 4.155 32.3125 6.875 32.3125 C6.875 31.3225 6.875 30.3325 6.875 29.3125 C3.575 29.3125 0.275 29.3125 -3.125 29.3125 Z M13.875 29.3125 C13.875 36.5725 13.875 43.8325 13.875 51.3125 C17.175 51.3125 20.475 51.3125 23.875 51.3125 C23.875 50.6525 23.875 49.9925 23.875 49.3125 C21.565 49.3125 19.255 49.3125 16.875 49.3125 C16.875 42.7125 16.875 36.1125 16.875 29.3125 C15.885 29.3125 14.895 29.3125 13.875 29.3125 Z " fill="#FFFFFF" transform="translate(447.125,0.6875)"/>
<path d="M0 0 C18.61547873 0.48074407 34.91251443 9.81901891 48.30859375 22.02880859 C50.67649241 24.14838541 53.15153572 26.13059954 55.625 28.125 C58.79233044 30.69273465 61.86582417 33.31211329 64.875 36.0625 C69.17946244 39.83436161 73.72204191 42.76585826 78.8125 45.375 C80.01326172 45.99955078 80.01326172 45.99955078 81.23828125 46.63671875 C97.06573974 53.31942344 118.2209153 50.70324131 133.8125 44.375 C139.31278515 42.00988986 144.58566534 39.28859175 149.8125 36.375 C150.67746094 35.90449219 151.54242188 35.43398437 152.43359375 34.94921875 C159.47506214 30.9238262 165.98938832 26.06368588 172.59375 21.37109375 C173.99987639 20.37222181 175.40612077 19.37351593 176.8125 18.375 C177.74835938 17.71008545 177.74835938 17.71008545 178.703125 17.03173828 C180.35678763 15.86420491 182.02176624 14.71274576 183.6875 13.5625 C184.61304688 12.91667969 185.53859375 12.27085938 186.4921875 11.60546875 C187.25789062 11.19941406 188.02359375 10.79335938 188.8125 10.375 C189.8025 10.705 190.7925 11.035 191.8125 11.375 C190.54019531 12.24898437 190.54019531 12.24898437 189.2421875 13.140625 C182.84331266 17.59237678 176.68811613 22.18520528 170.8125 27.3125 C146.29686966 48.67597404 119.82360199 68.57062364 85.8125 67.375 C67.01068344 65.84833947 49.76357817 57.3566359 37.28222656 43.18896484 C33.75830934 38.8396783 30.75137912 34.10431015 27.65771484 29.44555664 C20.25738534 18.38907267 11.38099209 6.14724934 -2.25 3 C-3.549375 2.79375 -4.84875 2.5875 -6.1875 2.375 C-3.80996585 -0.00253415 -3.2537369 0.05450146 0 0 Z " fill="#FFFFFF" transform="translate(338.1875,44.625)"/>
<path d="M0 0 C7.59330506 1.12493408 12.29695574 9.80574269 16.83203125 15.44921875 C20.17914643 19.46472867 23.71780973 23.28027647 27.30151367 27.08447266 C29.85590701 29.80537397 32.12748205 32.5033094 34.375 35.5 C34.705 24.61 35.035 13.72 35.375 2.5 C39.005 2.5 42.635 2.5 46.375 2.5 C46.375 20.32 46.375 38.14 46.375 56.5 C38.375 56.5 38.375 56.5 35.72265625 54.48046875 C34.96855469 53.55878906 34.21445312 52.63710938 33.4375 51.6875 C32.591875 50.67945313 31.74625 49.67140625 30.875 48.6328125 C30.03976906 47.59005879 29.20638164 46.54582531 28.375 45.5 C21.9145181 37.58142322 15.30817769 30.06346657 8.375 22.5 C8.045 33.39 7.715 44.28 7.375 55.5 C3.745 55.5 0.115 55.5 -3.625 55.5 C-3.64963993 47.82788327 -3.66783123 40.15578935 -3.67993164 32.48364258 C-3.68497377 29.87133381 -3.69180725 27.25902789 -3.70043945 24.64672852 C-3.71251036 20.90119732 -3.71822935 17.15570328 -3.72265625 13.41015625 C-3.72781754 12.23413345 -3.73297882 11.05811066 -3.73829651 9.84645081 C-3.73840981 8.22488319 -3.73840981 8.22488319 -3.73852539 6.57055664 C-3.740746 5.61347305 -3.74296661 4.65638947 -3.74525452 3.67030334 C-3.5683717 0.47799605 -3.17052588 0.60390969 0 0 Z " fill="#FFFFFF" transform="translate(331.625,203.5)"/>
<path d="M0 0 C3 3.55704698 3 3.55704698 3 6 C-3.625 10 -3.625 10 -7 10 C-7.53625 9.21625 -8.0725 8.4325 -8.625 7.625 C-11.49924492 4.44820299 -13.41982129 3.80577638 -17.55859375 3.08984375 C-23.20343435 2.88211362 -27.52665463 4.87148015 -31.9375 8.25 C-35.92337834 13.56450445 -36.38361576 18.53664696 -35.4921875 24.91796875 C-34.84567368 27.65282482 -33.59721932 29.7083375 -32 32 C-32 32.66 -32 33.32 -32 34 C-25.77578649 36.5233298 -20.74462677 37.78651398 -14 37 C-10.27420976 34.82662236 -8.79421442 32.81270564 -7 29 C-7.78246094 28.93941406 -8.56492187 28.87882812 -9.37109375 28.81640625 C-10.38300781 28.73261719 -11.39492188 28.64882812 -12.4375 28.5625 C-13.44683594 28.48128906 -14.45617187 28.40007812 -15.49609375 28.31640625 C-18 28 -18 28 -19 27 C-19.1328125 25.1875 -19.1328125 25.1875 -19.125 23 C-19.12886719 21.9171875 -19.12886719 21.9171875 -19.1328125 20.8125 C-19 19 -19 19 -18 18 C-16.21928754 17.91273777 -14.4351686 17.89300959 -12.65234375 17.90234375 C-11.57275391 17.90556641 -10.49316406 17.90878906 -9.38085938 17.91210938 C-7.67639648 17.92467773 -7.67639648 17.92467773 -5.9375 17.9375 C-4.22723633 17.94426758 -4.22723633 17.94426758 -2.48242188 17.95117188 C0.34510351 17.96300253 3.1725264 17.9794859 6 18 C6.23774155 26.54955199 4.65156977 33.95204116 -0.625 40.9375 C-5.88648293 46.40944224 -12.58432892 48.20451696 -20 48.5 C-27.2869802 48.22802777 -33.29124641 46.29655195 -38.875 41.5625 C-39.57625 40.716875 -40.2775 39.87125 -41 39 C-41.70125 38.236875 -42.4025 37.47375 -43.125 36.6875 C-47.82762123 29.94707623 -49.0191853 23.14215811 -48 15 C-45.85151076 6.9720429 -42.18473465 1.0204647 -35.3125 -3.75 C-23.69471785 -10.46008352 -10.00657943 -8.88057367 0 0 Z " fill="#FFFFFF" transform="translate(461,212)"/>
<path d="M0 0 C6.01369343 5.57401301 9.01311696 11.68767734 9.5 19.875 C9.21669312 27.5596991 5.75611135 33.695682 0.25 38.9375 C-5.37623791 43.39423902 -10.86971174 45.3670846 -18.0625 44.9375 C-25.5529064 43.85581088 -31.06350277 40.75924677 -36 35 C-40.99401207 28.20259468 -41.9525626 22.35153723 -41 14 C-38.68922489 6.54936997 -34.33783412 1.42354953 -28 -3 C-25.375 -4.375 -25.375 -4.375 -23 -5 C-22.113125 -5.2475 -21.22625 -5.495 -20.3125 -5.75 C-12.79180742 -6.31759944 -6.10117037 -4.34121738 0 0 Z M-28.31640625 9.765625 C-31.05384251 14.61098256 -31.69854595 18.49895065 -31 24 C-29.07625272 29.30651637 -26.0900994 32.4549503 -21 35 C-16.65465279 36.28324918 -13.67127275 36.20479508 -9.3125 34.875 C-4.78476543 32.31213137 -0.60847831 29.11788554 1 24 C1.62413721 17.75862793 0.80479273 13.10316413 -3 8 C-6.54449569 4.65294306 -10.20024904 3.73342254 -15 3.5 C-20.66386034 3.7754461 -24.85010754 5.11646472 -28.31640625 9.765625 Z " fill="#FFFFFF" transform="translate(79,132)"/>
<path d="M0 0 C5.21423764 4.74327424 8.10605953 10.72339879 9.22265625 17.6640625 C9.58058686 25.25517415 6.38905142 31.89663027 1.72265625 37.6953125 C-3.56062797 42.94501653 -9.39656151 44.8258397 -16.74609375 45.08984375 C-25.39355081 44.70415905 -30.82231293 41.67342455 -36.64453125 35.359375 C-41.30998268 29.57075934 -41.73238485 24.09222555 -41.5234375 16.8125 C-40.61295954 9.37840329 -37.46497793 4.27841676 -31.74609375 -0.47265625 C-21.691573 -7.5474432 -10.03494849 -6.96717418 0 0 Z M-26.62890625 7.9609375 C-30.62966493 12.54466387 -31.49019055 16.29664077 -31.39453125 22.1796875 C-30.95126204 25.98547031 -29.63071203 28.65282548 -27.12109375 31.52734375 C-22.32819028 35.26580846 -18.54524513 36.18077757 -12.484375 35.9140625 C-7.81640372 35.15021265 -5.17282824 32.49380247 -1.80859375 29.40234375 C0.65687127 25.20192186 1.18096685 21.36768066 0.87890625 16.52734375 C-0.36115898 12.02151667 -2.36230968 9.21554326 -5.80859375 6.08984375 C-12.96354604 2.71486625 -20.45802317 2.09380255 -26.62890625 7.9609375 Z " fill="#FFFFFF" transform="translate(310.12109375,131.47265625)"/>
<path d="M0 0 C7.73904989 0.07628855 14.17611486 0.42611486 19.9375 6.1875 C20.90597302 9.09291905 21.13332812 11.15387454 21.1875 14.1875 C21.21328125 15.05375 21.2390625 15.92 21.265625 16.8125 C20.87822585 19.61653194 20.10891522 20.45036782 17.9375 22.1875 C18.88625 22.909375 19.835 23.63125 20.8125 24.375 C23.64747876 26.7810458 25.17052455 28.43784224 25.9375 32.1875 C25.99422864 36.6285421 25.50858366 40.13670606 23.375 44.0625 C17.16801859 49.47371457 10.26533914 49.59686463 2.4375 49.375 C1.5196875 49.36146484 0.601875 49.34792969 -0.34375 49.33398438 C-2.58396803 49.29898097 -4.82290594 49.24988869 -7.0625 49.1875 C-7.0877689 42.36988106 -7.10533244 35.55227411 -7.11743164 28.73461914 C-7.12247333 26.41332549 -7.12930651 24.09203503 -7.13793945 21.77075195 C-7.15001225 18.44221205 -7.15572979 15.11371398 -7.16015625 11.78515625 C-7.16531754 10.74037613 -7.17047882 9.69559601 -7.17579651 8.61915588 C-7.17587204 7.65823532 -7.17594757 6.69731476 -7.17602539 5.70727539 C-7.178246 4.85678116 -7.18046661 4.00628693 -7.18275452 3.13002014 C-6.91996934 -1.11485575 -3.51691005 0.02018892 0 0 Z M2.9375 9.1875 C2.9375 12.8175 2.9375 16.4475 2.9375 20.1875 C7.7272321 20.42178313 7.7272321 20.42178313 11.9375 18.1875 C12.4375 14.6875 12.4375 14.6875 11.9375 11.1875 C8.5022952 8.89736347 6.952169 9.00907027 2.9375 9.1875 Z M2.9375 28.1875 C2.9375 32.1475 2.9375 36.1075 2.9375 40.1875 C4.525625 40.27 6.11375 40.3525 7.75 40.4375 C9.08998047 40.50710937 9.08998047 40.50710937 10.45703125 40.578125 C13.06567725 40.41590632 13.06567725 40.41590632 14.765625 38.3671875 C16.19242959 36.14104515 16.19242959 36.14104515 15.875 33.0625 C15.20831496 30.19065487 15.20831496 30.19065487 13.375 28.8125 C9.83399716 27.90455055 6.58983264 28.06575558 2.9375 28.1875 Z " fill="#FFFFFF" transform="translate(104.0625,126.8125)"/>
<path d="M0 0 C22.475 0 22.475 0 28.9375 5.5 C31.66279288 9.14280814 31.75580495 12.87075516 31.5625 17.3046875 C30.39191714 22.91373039 26.58671249 25.94219167 22 29 C22.39380859 29.54003662 22.78761719 30.08007324 23.19335938 30.63647461 C24.96468533 33.06837937 26.73238579 35.50289623 28.5 37.9375 C29.12003906 38.78763672 29.74007813 39.63777344 30.37890625 40.51367188 C30.96542969 41.32255859 31.55195313 42.13144531 32.15625 42.96484375 C32.70087891 43.7137085 33.24550781 44.46257324 33.80664062 45.23413086 C35 47 35 47 35 48 C30.59660576 49.26480473 27.3646958 49.50405058 23 48 C17.9335418 42.87403641 14.49335563 36.2434441 11 30 C10.67 35.94 10.34 41.88 10 48 C6.7 48 3.4 48 0 48 C0 32.16 0 16.32 0 0 Z M10 8 C10 12.62 10 17.24 10 22 C12.165625 21.8453125 12.165625 21.8453125 14.375 21.6875 C15.18710937 21.62949219 15.99921875 21.57148438 16.8359375 21.51171875 C19.37921338 21.17009472 19.37921338 21.17009472 21 18 C21.31547795 14.97141171 21.49058721 12.88918932 20 10.1875 C16.81931546 8.29896856 13.66530121 8.30043453 10 8 Z " fill="#FFFFFF" transform="translate(377,127)"/>
<path d="M0 0 C3.63 0 7.26 0 11 0 C14.57578619 6.81738675 17.42933318 13.84173798 20.25 21 C20.70890625 22.15628906 21.1678125 23.31257813 21.640625 24.50390625 C22.76358474 27.33470061 23.88328609 30.16673727 25 33 C25.58285767 31.55379272 25.58285767 31.55379272 26.17749023 30.07836914 C27.61551488 26.51222465 29.05687679 22.94743715 30.49926758 19.38305664 C31.12388226 17.83817959 31.74758296 16.29293268 32.37036133 14.74731445 C33.26405448 12.52978945 34.16099224 10.31360161 35.05859375 8.09765625 C35.3377916 7.4028566 35.61698944 6.70805695 35.90464783 5.99220276 C37.88612829 1.11387171 37.88612829 1.11387171 39 0 C40.85287502 -0.07226502 42.70833878 -0.0838122 44.5625 -0.0625 C45.57441406 -0.05347656 46.58632812 -0.04445312 47.62890625 -0.03515625 C48.41136719 -0.02355469 49.19382813 -0.01195312 50 0 C49.40190039 3.42590529 48.53110459 6.43590976 47.17407227 9.63500977 C46.80020889 10.52265518 46.42634552 11.4103006 46.04115295 12.32484436 C45.63698654 13.27080978 45.23282013 14.21677521 44.81640625 15.19140625 C44.40083969 16.17366684 43.98527313 17.15592743 43.55711365 18.16795349 C42.67918809 20.24074891 41.79901373 22.31259311 40.91674805 24.38354492 C39.56673997 27.55254711 38.22318766 30.72422257 36.88085938 33.89648438 C36.02641603 35.91161711 35.17161051 37.92659632 34.31640625 39.94140625 C33.91426407 40.8893959 33.51212189 41.83738556 33.09779358 42.81410217 C32.72077805 43.69859543 32.34376251 44.58308868 31.95532227 45.49438477 C31.62524673 46.26984146 31.2951712 47.04529816 30.95509338 47.84425354 C30.03058194 49.93097333 29.03811195 51.96775334 28 54 C26.02 54 24.04 54 22 54 C17.28095889 45.24569135 13.59723954 36.05187929 9.84179688 26.85766602 C8.74448126 24.17400302 7.6382318 21.49414118 6.53125 18.81445312 C5.82758767 17.09917867 5.12444402 15.38369131 4.421875 13.66796875 C4.09274109 12.87206833 3.76360718 12.07616791 3.42449951 11.25614929 C3.12038147 10.50799454 2.81626343 9.75983978 2.50292969 8.98901367 C2.23599304 8.33744797 1.9690564 7.68588226 1.69403076 7.01457214 C1 5 1 5 0 0 Z " fill="#FFFFFF" transform="translate(158,206)"/>
<path d="M0 0 C2.8125 -0.3125 2.8125 -0.3125 6 0 C9.01665211 4.07828064 10.77906115 8.9320795 12.72265625 13.58984375 C13.24187904 14.82306114 13.24187904 14.82306114 13.77159119 16.08119202 C14.50034044 17.8143521 15.22723819 19.54829173 15.95239258 21.28295898 C17.05807521 23.92691924 18.17015865 26.56811609 19.28320312 29.20898438 C19.99256865 30.8982775 20.70156534 32.58772556 21.41015625 34.27734375 C21.74040298 35.06189438 22.07064972 35.84644501 22.41090393 36.6547699 C24.10961498 40.72621634 25.66948645 44.78901047 27 49 C26 50 26 50 23.93359375 50.09765625 C23.10988281 50.08605469 22.28617188 50.07445312 21.4375 50.0625 C20.61121094 50.05347656 19.78492188 50.04445312 18.93359375 50.03515625 C18.29550781 50.02355469 17.65742188 50.01195312 17 50 C16.32845067 48.71086513 15.66291141 47.41859796 15 46.125 C14.62875 45.40570313 14.2575 44.68640625 13.875 43.9453125 C13 42 13 42 13 40 C6.4 40 -0.2 40 -7 40 C-7.99 42.97 -8.98 45.94 -10 49 C-11 50 -11 50 -13.06640625 50.09765625 C-13.89011719 50.08605469 -14.71382812 50.07445312 -15.5625 50.0625 C-16.38878906 50.05347656 -17.21507812 50.04445312 -18.06640625 50.03515625 C-18.70449219 50.02355469 -19.34257812 50.01195312 -20 50 C-20.33 49.34 -20.66 48.68 -21 48 C-20.00383531 45.22309086 -18.937164 42.55035405 -17.7734375 39.84375 C-17.4287442 39.02684692 -17.0840509 38.20994385 -16.72891235 37.36828613 C-15.99433435 35.63166128 -15.2559657 33.89663583 -14.51416016 32.16308594 C-13.39292513 29.5419047 -12.28331729 26.9160568 -11.17578125 24.2890625 C-7.69447134 16.06768391 -4.19809659 7.88842096 0 0 Z M2 17 C1.16235732 18.95649397 0.33000941 20.91525556 -0.5 22.875 C-0.9640625 23.96554688 -1.428125 25.05609375 -1.90625 26.1796875 C-3.12052456 28.80661929 -3.12052456 28.80661929 -3 31 C0.96 31 4.92 31 9 31 C6.68635915 23.93199136 6.68635915 23.93199136 4 17 C3.34 17 2.68 17 2 17 Z " fill="#FFFFFF" transform="translate(155,126)"/>
<path d="M0 0 C157.74 0 315.48 0 478 0 C478 0.66 478 1.32 478 2 C320.26 2 162.52 2 0 2 C0 1.34 0 0.68 0 0 Z " fill="#FFFFFF" transform="translate(4,189)"/>
<path d="M0 0 C1.084021 0.00523682 2.16804199 0.01047363 3.28491211 0.01586914 C5.03964844 0.02070312 5.03964844 0.02070312 6.82983398 0.02563477 C8.67738281 0.03820312 8.67738281 0.03820312 10.56225586 0.05102539 C12.41560547 0.05779297 12.41560547 0.05779297 14.30639648 0.06469727 C17.37089703 0.07652931 20.43530307 0.09301366 23.49975586 0.11352539 C23.49975586 3.08352539 23.49975586 6.05352539 23.49975586 9.11352539 C17.88975586 9.11352539 12.27975586 9.11352539 6.49975586 9.11352539 C6.49975586 12.41352539 6.49975586 15.71352539 6.49975586 19.11352539 C12.10975586 19.11352539 17.71975586 19.11352539 23.49975586 19.11352539 C23.49975586 21.75352539 23.49975586 24.39352539 23.49975586 27.11352539 C17.88975586 27.11352539 12.27975586 27.11352539 6.49975586 27.11352539 C6.49975586 31.07352539 6.49975586 35.03352539 6.49975586 39.11352539 C12.10975586 39.11352539 17.71975586 39.11352539 23.49975586 39.11352539 C23.49975586 42.08352539 23.49975586 45.05352539 23.49975586 48.11352539 C14.91975586 48.11352539 6.33975586 48.11352539 -2.50024414 48.11352539 C-3.1941978 44.64375707 -3.62593087 42.11775772 -3.62963867 38.70629883 C-3.63279083 37.86903259 -3.63594299 37.03176636 -3.63919067 36.16912842 C-3.63716644 35.27937317 -3.63514221 34.38961792 -3.63305664 33.47290039 C-3.63401337 32.55011292 -3.63497009 31.62732544 -3.63595581 30.67657471 C-3.63663452 28.73335705 -3.63480181 26.79013709 -3.63061523 24.84692383 C-3.62523819 21.8602191 -3.63058315 18.8736631 -3.63696289 15.88696289 C-3.63630253 13.99894172 -3.63502225 12.11092065 -3.63305664 10.22290039 C-3.63508087 9.32504822 -3.6371051 8.42719604 -3.63919067 7.50213623 C-3.61114135 0.16396648 -3.61114135 0.16396648 0 0 Z " fill="#FFFFFF" transform="translate(456.500244140625,126.886474609375)"/>
<path d="M0 0 C8.91 0 17.82 0 27 0 C27 2.97 27 5.94 27 9 C21.39 9 15.78 9 10 9 C10 12.3 10 15.6 10 19 C15.28 19 20.56 19 26 19 C26 21.64 26 24.28 26 27 C20.72 27 15.44 27 10 27 C10 30.96 10 34.92 10 39 C11.14339844 38.98839844 12.28679687 38.97679687 13.46484375 38.96484375 C14.95572754 38.95546712 16.44661309 38.94636679 17.9375 38.9375 C18.69224609 38.92912109 19.44699219 38.92074219 20.22460938 38.91210938 C22.14994313 38.90347559 24.07535581 38.94775667 26 39 C27 40 27 40 27 48 C18.09 48 9.18 48 0 48 C0 32.16 0 16.32 0 0 Z " fill="#FFFFFF" transform="translate(418,127)"/>
<path d="M0 0 C0 3.63 0 7.26 0 11 C-1.32 10.34 -2.64 9.68 -4 9 C-10.07375782 6.37724094 -14.67639404 7.13297236 -20.875 8.75 C-23.6754141 10.39730241 -24.0838734 11.94624465 -25 15 C-25.33 15.66 -25.66 16.32 -26 17 C-26.52657873 22.28305214 -26.64191122 26.66862857 -24.3125 31.5 C-21.12920439 34.94140066 -19.1609222 36.76847262 -14.375 37.28125 C-9.05360688 37.4510817 -6.18751561 37.46363436 -2 34 C-1.34 34 -0.68 34 0 34 C0 37.63 0 41.26 0 45 C-7.74082754 48.09633102 -14.14377938 48.89439707 -22 46 C-28.60236691 42.71497242 -32.8193118 38.65956591 -36 32 C-38.1201833 25.6394501 -38.21737604 17.62600875 -35.3125 11.5 C-31.26331815 4.77017511 -24.98198849 -0.16453056 -17.625 -2.875 C-11.26451121 -3.17788042 -5.92098755 -2.36839502 0 0 Z " fill="#FFFFFF" transform="translate(263,129)"/>
<path d="M0 0 C0 3.63 0 7.26 0 11 C-1.32 10.34 -2.64 9.68 -4 9 C-9.75704891 7.08453086 -14.30486162 6.37147459 -20 9 C-23.12190229 11.91161872 -25.8055835 15.04946066 -26.23828125 19.390625 C-26.395433 25.4451031 -26.31134189 29.33908985 -22 34 C-17.99867996 37.63756367 -13.77312569 37.35556345 -8.62109375 37.3984375 C-5.60708237 36.94027184 -4.31418404 35.9141391 -2 34 C-1.34 34 -0.68 34 0 34 C0 37.63 0 41.26 0 45 C-8.69342675 48.4773707 -15.30456767 48.70601345 -24 45 C-30.17507187 41.82253584 -34.47673767 36.73368232 -36.6171875 30.08203125 C-38.22607584 21.33164873 -37.00779298 13.79018882 -32.3125 6.3125 C-22.97971783 -3.02028217 -12.09453127 -4.83781251 0 0 Z " fill="#FFFFFF" transform="translate(220,129)"/>
<path d="M0 0 C6.1565625 -0.0309375 6.1565625 -0.0309375 12.4375 -0.0625 C14.38160767 -0.07615601 14.38160767 -0.07615601 16.36499023 -0.09008789 C17.88394897 -0.09383423 17.88394897 -0.09383423 19.43359375 -0.09765625 C20.47572021 -0.10289307 21.51784668 -0.10812988 22.59155273 -0.11352539 C25 0 25 0 26 1 C26.125 4.5 26.125 4.5 26 8 C25 9 25 9 21.62109375 9.09765625 C20.22652923 9.09098369 18.83198257 9.07902532 17.4375 9.0625 C16.72658203 9.05798828 16.01566406 9.05347656 15.28320312 9.04882812 C13.52209987 9.03700864 11.76103964 9.01907263 10 9 C10 12.3 10 15.6 10 19 C14.95 19 19.9 19 25 19 C25.09765625 25.15234375 25.09765625 25.15234375 25 27 C24 28 24 28 20.83984375 28.09765625 C17.2265625 28.06510417 13.61328125 28.03255208 10 28 C10 34.6 10 41.2 10 48 C6.7 48 3.4 48 0 48 C0 32.16 0 16.32 0 0 Z " fill="#FFFFFF" transform="translate(344,127)"/>
<path d="M0 0 C3.63 0 7.26 0 11 0 C11 14.19 11 28.38 11 43 C15.95 43 20.9 43 26 43 C27 44 27 44 27 53 C18.09 53 9.18 53 0 53 C0 35.51 0 18.02 0 0 Z " fill="#FFFFFF" transform="translate(16,206)"/>
<path d="M0 0 C10.23 0 20.46 0 31 0 C31 2.64 31 5.28 31 8 C27.37 8 23.74 8 20 8 C20 21.2 20 34.4 20 48 C16.7 48 13.4 48 10 48 C10 34.8 10 21.6 10 8 C6.7 8 3.4 8 0 8 C0 5.36 0 2.72 0 0 Z " fill="#FFFFFF" transform="translate(4,128)"/>
<path d="M0 0 C3.63 0 7.26 0 11 0 C11 17.49 11 34.98 11 53 C7.37 53 3.74 53 0 53 C0 35.51 0 18.02 0 0 Z " fill="#FFFFFF" transform="translate(260,206)"/>
<path d="M0 0 C3.63 0 7.26 0 11 0 C11 17.49 11 34.98 11 53 C7.37 53 3.74 53 0 53 C0 35.51 0 18.02 0 0 Z " fill="#FFFFFF" transform="translate(95,206)"/>
<path d="M0 0 C1.65 0 3.3 0 5 0 C5.99 2.64 6.98 5.28 8 8 C9.32 5.36 10.64 2.72 12 0 C13.65 0 15.3 0 17 0 C17 5.28 17 10.56 17 16 C15.68 16 14.36 16 13 16 C12.67 14.35 12.34 12.7 12 11 C11.34 12.65 10.68 14.3 10 16 C8.0625 15.6875 8.0625 15.6875 6 15 C5.67 14.01 5.34 13.02 5 12 C4.34 13.32 3.68 14.64 3 16 C2.01 16 1.02 16 0 16 C0 10.72 0 5.44 0 0 Z " fill="#FFFFFF" transform="translate(223,97)"/>
<path d="M0 0 C5 1 5 1 7.3125 4.0625 C7.869375 5.031875 8.42625 6.00125 9 7 C9.33 4.69 9.66 2.38 10 0 C11.32 0 12.64 0 14 0 C14 5.28 14 10.56 14 16 C9 15 9 15 6.6875 11.9375 C6.130625 10.968125 5.57375 9.99875 5 9 C4.67 11.31 4.34 13.62 4 16 C2.68 16 1.36 16 0 16 C0 10.72 0 5.44 0 0 Z " fill="#FFFFFF" transform="translate(150,97)"/>
<path d="M0 0 C8.30078125 -0.390625 8.30078125 -0.390625 11 0 C12.87890625 1.87109375 12.87890625 1.87109375 14 4 C13.72793135 5.6777567 13.38499891 7.34450469 13 9 C13.26871451 11.34165499 13.59038404 13.67884289 14 16 C12.68 16 11.36 16 10 16 C9.67 14.02 9.34 12.04 9 10 C7.35 10 5.7 10 4 10 C4 11.98 4 13.96 4 16 C2.68 16 1.36 16 0 16 C0 10.72 0 5.44 0 0 Z M4 3 C4 4.32 4 5.64 4 7 C5.65 7 7.3 7 9 7 C9 6.01 9 5.02 9 4 C7.35 3.67 5.7 3.34 4 3 Z " fill="#FFFFFF" transform="translate(353,97)"/>
<path d="M0 0 C3.26473709 2.14785335 3.9058033 3.69524596 5.0625 7.4375 C5 11 5 11 3 13.9375 C-0.71933162 16.49454049 -2.57136786 16.72468526 -7 16 C-10.26473709 13.85214665 -10.9058033 12.30475404 -12.0625 8.5625 C-12 5 -12 5 -10 2.0625 C-6.28066838 -0.49454049 -4.42863214 -0.72468526 0 0 Z M-6.8125 4.0625 C-8.31589654 6.07818026 -8.31589654 6.07818026 -7.6875 9.1875 C-7.460625 10.115625 -7.23375 11.04375 -7 12 C-4.60280568 12.67958603 -4.60280568 12.67958603 -2 13 C-1.34 12.34 -0.68 11.68 0 11 C-0.32326553 7.40320934 -0.32326553 7.40320934 -1 4 C-3.47999295 3.05931302 -4.46697084 2.68753463 -6.8125 4.0625 Z " fill="#FFFFFF" transform="translate(81,97)"/>
<path d="M0 0 C4.18728708 0.66115059 5.85899843 1.2855284 8.5625 4.5625 C9.21729266 7.36547211 9.17251518 9.75412824 8.5625 12.5625 C7 15.0625 7 15.0625 4.5625 16.5625 C1.125 17.125 1.125 17.125 -2.4375 16.5625 C-5.82427089 14.11249553 -7.22448584 12.69857554 -8 8.5625 C-7.02626244 3.369233 -5.32588677 0.87150874 0 0 Z M-1.4375 3.5625 C-3.75313087 5.44750271 -3.75313087 5.44750271 -3.6875 8.5625 C-3.75313087 11.67749729 -3.75313087 11.67749729 -1.4375 13.5625 C1.16530568 13.24208603 1.16530568 13.24208603 3.5625 12.5625 C3.72927282 9.14593976 3.72927282 9.14593976 3.5625 5.5625 C2.9025 4.9025 2.2425 4.2425 1.5625 3.5625 C0.5725 3.5625 -0.4175 3.5625 -1.4375 3.5625 Z " fill="#FFFFFF" transform="translate(342.4375,96.4375)"/>
<path d="M0 0 C1.32 0 2.64 0 4 0 C5.32 2.31 6.64 4.62 8 7 C8.66 4.69 9.32 2.38 10 0 C10.99 0 11.98 0 13 0 C13 5.28 13 10.56 13 16 C8 15 8 15 6.63671875 13.37109375 C5.31835938 10.68554688 5.31835938 10.68554688 4 8 C3.67 10.64 3.34 13.28 3 16 C2.01 16 1.02 16 0 16 C0 10.72 0 5.44 0 0 Z " fill="#FFFFFF" transform="translate(298,97)"/>
<path d="M0 0 C1.32 0 2.64 0 4 0 C4 1.98 4 3.96 4 6 C5.98 6 7.96 6 10 6 C10 4.02 10 2.04 10 0 C11.32 0.33 12.64 0.66 14 1 C14 5.62 14 10.24 14 15 C12.68 15.33 11.36 15.66 10 16 C10 14.02 10 12.04 10 10 C8.02 10 6.04 10 4 10 C4 11.98 4 13.96 4 16 C2.68 16 1.36 16 0 16 C0 10.72 0 5.44 0 0 Z " fill="#FFFFFF" transform="translate(17,97)"/>
<path d="M0 0 C2.875 0.5 2.875 0.5 4.75 1.8125 C5.875 3.5 5.875 3.5 5.875 6.5 C3.8035876 5.9821469 1.74079924 5.46165693 -0.3125 4.875 C-0.910625 4.75125 -1.50875 4.6275 -2.125 4.5 C-3.54077477 5.68424326 -3.54077477 5.68424326 -3.1875 9.0625 C-3.166875 10.196875 -3.14625 11.33125 -3.125 12.5 C-1.475 12.17 0.175 11.84 1.875 11.5 C0.885 11.17 -0.105 10.84 -1.125 10.5 C-0.795 9.51 -0.465 8.52 -0.125 7.5 C1.87454746 7.45745644 3.87541636 7.45919217 5.875 7.5 C6.875 8.5 6.875 8.5 6.9375 12.0625 C6.916875 13.196875 6.89625 14.33125 6.875 15.5 C3.1302458 16.38111863 -0.28366338 16.90865283 -4.125 16.5 C-6.5 14.9375 -6.5 14.9375 -8.125 12.5 C-8.6875 9.0625 -8.6875 9.0625 -8.125 5.5 C-5.62044069 2.03781507 -4.25144029 0.68023045 0 0 Z " fill="#FFFFFF" transform="translate(288.125,96.5)"/>
<path d="M0 0 C3.96 0 7.92 0 12 0 C11.67 1.32 11.34 2.64 11 4 C8.69 4 6.38 4 4 4 C4 4.66 4 5.32 4 6 C6.31 6 8.62 6 11 6 C11 7.32 11 8.64 11 10 C8.69 10 6.38 10 4 10 C4 10.99 4 11.98 4 13 C6.64 13 9.28 13 12 13 C12 13.99 12 14.98 12 16 C8.04 16 4.08 16 0 16 C0 10.72 0 5.44 0 0 Z " fill="#FFFFFF" transform="translate(34,97)"/>
<path d="M0 0 C3.5625 0.3125 3.5625 0.3125 5.5 1.6875 C6.5625 3.3125 6.5625 3.3125 6.5625 5.3125 C5.2425 5.3125 3.9225 5.3125 2.5625 5.3125 C2.5625 4.6525 2.5625 3.9925 2.5625 3.3125 C1.2425 3.3125 -0.0775 3.3125 -1.4375 3.3125 C-1.4375 4.3025 -1.4375 5.2925 -1.4375 6.3125 C-0.509375 6.415625 0.41875 6.51875 1.375 6.625 C4.59504358 7.3195192 5.58829865 7.78990939 7.5625 10.3125 C5.6875 15.1875 5.6875 15.1875 4.5625 16.3125 C-2.80383663 16.78774752 -2.80383663 16.78774752 -5.4375 14.8125 C-5.7675 14.3175 -6.0975 13.8225 -6.4375 13.3125 C-6.1075 12.3225 -5.7775 11.3325 -5.4375 10.3125 C-4.86 10.663125 -4.2825 11.01375 -3.6875 11.375 C-1.07948224 12.46167407 -0.04332371 12.24315133 2.5625 11.3125 C1.428125 10.838125 0.29375 10.36375 -0.875 9.875 C-4.4375 8.3125 -4.4375 8.3125 -5.4375 7.3125 C-5.625 4.875 -5.625 4.875 -5.4375 2.3125 C-3.4375 0.3125 -3.4375 0.3125 0 0 Z " fill="#FFFFFF" transform="translate(117.4375,96.6875)"/>
<path d="M0 0 C1.32 0.33 2.64 0.66 4 1 C4 4.96 4 8.92 4 13 C5.32 12.67 6.64 12.34 8 12 C8.33 8.04 8.66 4.08 9 0 C10.32 0 11.64 0 13 0 C13.0810206 2.10353495 13.13919907 4.20795952 13.1875 6.3125 C13.22230469 7.48425781 13.25710937 8.65601562 13.29296875 9.86328125 C13 13 13 13 11.7421875 14.8984375 C8.53219921 16.92807135 5.71841315 16.29511215 2 16 C0 14 0 14 -0.1953125 10.7421875 C-0.17210938 9.46601562 -0.14890625 8.18984375 -0.125 6.875 C-0.10695313 5.59367187 -0.08890625 4.31234375 -0.0703125 2.9921875 C-0.04710938 2.00476563 -0.02390625 1.01734375 0 0 Z " fill="#FFFFFF" transform="translate(88,97)"/>
<path d="M0 0 C1.588125 -0.061875 3.17625 -0.12375 4.8125 -0.1875 C6.15248047 -0.23970703 6.15248047 -0.23970703 7.51953125 -0.29296875 C10 0 10 0 11.79296875 1.35546875 C13 3 13 3 13.5 5.5 C13 8 13 8 10.75 9.8125 C8 11 8 11 4 11 C4 12.65 4 14.3 4 16 C2.68 16 1.36 16 0 16 C0 10.72 0 5.44 0 0 Z M4 3 C4 4.32 4 5.64 4 7 C5.65 7 7.3 7 9 7 C8.67 5.68 8.34 4.36 8 3 C6.68 3 5.36 3 4 3 Z " fill="#FFFFFF" transform="translate(243,97)"/>
<path d="M0 0 C2.32421875 0.09765625 2.32421875 0.09765625 5 1 C6.58203125 3.87109375 6.58203125 3.87109375 7.8125 7.4375 C8.23144531 8.61183594 8.65039062 9.78617188 9.08203125 10.99609375 C10 14 10 14 10 16 C8.68 16 7.36 16 6 16 C5.67 15.34 5.34 14.68 5 14 C1.97065509 13.34227572 1.97065509 13.34227572 -1 13 C-1 13.99 -1 14.98 -1 16 C-2.32 16 -3.64 16 -5 16 C-4.34309381 12.21760329 -3.279869 8.78158474 -1.9375 5.1875 C-1.57527344 4.21167969 -1.21304688 3.23585938 -0.83984375 2.23046875 C-0.42412109 1.12638672 -0.42412109 1.12638672 0 0 Z M2 5 C1.67 6.32 1.34 7.64 1 9 C1.99 8.67 2.98 8.34 4 8 C3.34 7.01 2.68 6.02 2 5 Z " fill="#FFFFFF" transform="translate(171,97)"/>
<path d="M0 0 C1.32 0 2.64 0 4 0 C4.8394882 2.10171867 5.67139656 4.20646625 6.5 6.3125 C6.9640625 7.48425781 7.428125 8.65601562 7.90625 9.86328125 C9 13 9 13 9 16 C7.68 16 6.36 16 5 16 C5 15.01 5 14.02 5 13 C2.02934491 13.34227572 2.02934491 13.34227572 -1 14 C-1.33 14.66 -1.66 15.32 -2 16 C-3.32 16 -4.64 16 -6 16 C-4.43551329 10.3856009 -2.83604813 5.13189662 0 0 Z M1 6 C0.67 6.99 0.34 7.98 0 9 C0.99 8.67 1.98 8.34 3 8 C2.34 7.34 1.68 6.68 1 6 Z " fill="#FFFFFF" transform="translate(139,97)"/>
<path d="M0 0 C2.32421875 0.09765625 2.32421875 0.09765625 5 1 C6.58203125 3.87109375 6.58203125 3.87109375 7.8125 7.4375 C8.23144531 8.61183594 8.65039062 9.78617188 9.08203125 10.99609375 C10 14 10 14 10 16 C8.68 16 7.36 16 6 16 C5.67 15.34 5.34 14.68 5 14 C1.97065509 13.34227572 1.97065509 13.34227572 -1 13 C-1 13.99 -1 14.98 -1 16 C-2.32 16 -3.64 16 -5 16 C-4.34309381 12.21760329 -3.279869 8.78158474 -1.9375 5.1875 C-1.57527344 4.21167969 -1.21304687 3.23585938 -0.83984375 2.23046875 C-0.42412109 1.12638672 -0.42412109 1.12638672 0 0 Z M2 6 C1.67 6.99 1.34 7.98 1 9 C1.66 9 2.32 9 3 9 C2.67 8.01 2.34 7.02 2 6 Z " fill="#FFFFFF" transform="translate(261,97)"/>
<path d="M0 0 C1.65 0.33 3.3 0.66 5 1 C6.65 5.95 8.3 10.9 10 16 C8.35 15.67 6.7 15.34 5 15 C5 14.34 5 13.68 5 13 C3.02 13 1.04 13 -1 13 C-1.33 13.99 -1.66 14.98 -2 16 C-2.99 16 -3.98 16 -5 16 C-4.39363767 10.23955788 -2.24341721 5.27985631 0 0 Z M2 6 C1.67 6.99 1.34 7.98 1 9 C1.66 9 2.32 9 3 9 C2.67 8.01 2.34 7.02 2 6 Z " fill="#FFFFFF" transform="translate(211,97)"/>
<path d="M0 0 C0.66 1.65 1.32 3.3 2 5 C0.68 5 -0.64 5 -2 5 C-2.33 4.34 -2.66 3.68 -3 3 C-4.65 3 -6.3 3 -8 3 C-8.20970559 7.14093698 -8.20970559 7.14093698 -7 11 C-5.68 11 -4.36 11 -3 11 C-2.34 10.01 -1.68 9.02 -1 8 C-0.01 8 0.98 8 2 8 C1.25 12.75 1.25 12.75 -1 15 C-4.90413297 15.43379255 -7.11901478 15.62596319 -10.375 13.3125 C-12.21921807 10.68803583 -12.92169023 9.21070053 -13 6 C-9.91899201 -0.62416717 -6.92320406 -1.30626492 0 0 Z " fill="#FFFFFF" transform="translate(202,98)"/>
<path d="M0 0 C3.63 0 7.26 0 11 0 C10.67 1.32 10.34 2.64 10 4 C8.02 4 6.04 4 4 4 C4 4.66 4 5.32 4 6 C5.65 6 7.3 6 9 6 C9.33 7.32 9.66 8.64 10 10 C8.02 10 6.04 10 4 10 C4 11.65 4 13.3 4 15 C2.68 15.33 1.36 15.66 0 16 C0 10.72 0 5.44 0 0 Z " fill="#FFFFFF" transform="translate(322,97)"/>
<path d="M0 0 C4.95 0 9.9 0 15 0 C15 2.31 15 4.62 15 7 C10.05 7 5.1 7 0 7 C0 4.69 0 2.38 0 0 Z " fill="#FFFFFF" transform="translate(325,147)"/>
<path d="M0 0 C4.29 0 8.58 0 13 0 C12.67 1.32 12.34 2.64 12 4 C10.68 4 9.36 4 8 4 C8 7.96 8 11.92 8 16 C6.68 16 5.36 16 4 16 C4 12.04 4 8.08 4 4 C2.68 4 1.36 4 0 4 C0 2.68 0 1.36 0 0 Z " fill="#FFFFFF" transform="translate(2,97)"/>
<path d="M0 0 C1.32 0 2.64 0 4 0 C4 4.29 4 8.58 4 13 C6.64 13 9.28 13 12 13 C11.67 13.99 11.34 14.98 11 16 C7.37 16 3.74 16 0 16 C0 10.72 0 5.44 0 0 Z " fill="#FFFFFF" transform="translate(56,97)"/>
<path d="M0 0 C1.32 0 2.64 0 4 0 C4 5.28 4 10.56 4 16 C2.68 16 1.36 16 0 16 C0 10.72 0 5.44 0 0 Z " fill="#FFFFFF" transform="translate(273,97)"/>
<path d="M0 0 C1.32 0 2.64 0 4 0 C4 5.28 4 10.56 4 16 C2.68 16 1.36 16 0 16 C0 10.72 0 5.44 0 0 Z " fill="#FFFFFF" transform="translate(127,97)"/>
<path d="M0 0 C1.32 0 2.64 0 4 0 C4 5.28 4 10.56 4 16 C2.68 16 1.36 16 0 16 C0 10.72 0 5.44 0 0 Z " fill="#FFFFFF" transform="translate(105,97)"/>
<path d="M0 0 C0.33 0.66 0.66 1.32 1 2 C0.34 1.67 -0.32 1.34 -1 1 C-0.67 0.67 -0.34 0.34 0 0 Z " fill="#FFFFFF" transform="translate(531,53)"/>
</svg>
