<?xml version="1.0" encoding="UTF-8"?>
<svg version="1.1" xmlns="http://www.w3.org/2000/svg" width="167" height="233">
<path d="M0 0 C1.96875 1.16796875 1.96875 1.16796875 2.96875 4.16796875 C3.62875 4.16796875 4.28875 4.16796875 4.96875 4.16796875 C4.95714844 5.14378906 4.94554688 6.11960937 4.93359375 7.125 C4.92457031 8.39730469 4.91554688 9.66960938 4.90625 10.98046875 C4.89464844 12.24503906 4.88304688 13.50960937 4.87109375 14.8125 C4.80715884 18.16402112 4.80715884 18.16402112 5.96875 21.16796875 C5.63875 21.82796875 5.30875 22.48796875 4.96875 23.16796875 C5.62875 23.16796875 6.28875 23.16796875 6.96875 23.16796875 C6.63875 24.48796875 6.30875 25.80796875 5.96875 27.16796875 C6.62875 27.16796875 7.28875 27.16796875 7.96875 27.16796875 C8.01773438 27.74804688 8.06671875 28.328125 8.1171875 28.92578125 C8.56836817 33.6398414 9.40720314 37.67852153 10.96875 42.16796875 C11.33635731 44.49614839 11.67116581 46.82980725 11.96875 49.16796875 C12.28841139 50.83731158 12.61606066 52.50529045 12.96875 54.16796875 C15.46024762 50.52394724 16.34159777 48.07956192 16.375 43.67578125 C16.40787109 42.12310547 16.40787109 42.12310547 16.44140625 40.5390625 C16.45042969 39.46785156 16.45945312 38.39664063 16.46875 37.29296875 C16.57992813 24.18983207 16.57992813 24.18983207 19.96875 18.16796875 C24.17387821 14.16796875 24.17387821 14.16796875 26.96875 14.16796875 C26.96875 13.50796875 26.96875 12.84796875 26.96875 12.16796875 C32.84677973 11.41437519 37.36760159 13.67109596 41.96875 17.16796875 C42.64718951 18.4953504 43.31540482 19.82805745 43.96875 21.16796875 C45.45375 21.66296875 45.45375 21.66296875 46.96875 22.16796875 C46.96875 23.15796875 46.96875 24.14796875 46.96875 25.16796875 C47.62875 25.16796875 48.28875 25.16796875 48.96875 25.16796875 C49.78549796 26.91599021 50.59698451 28.66647064 51.40625 30.41796875 C51.85871094 31.3925 52.31117188 32.36703125 52.77734375 33.37109375 C54.3815793 37.13710245 55.12613117 40.85171838 55.90625 44.85546875 C56.55792031 48.19221674 57.28680589 51.49079319 58.09375 54.79296875 C59.05531017 59.01190717 59.04072811 62.84928231 58.96875 67.16796875 C59.12988281 67.88082031 59.29101562 68.59367187 59.45703125 69.328125 C60.18065267 73.3439477 60.11602063 77.28352301 60.09375 81.35546875 C60.09181641 82.20681396 60.08988281 83.05815918 60.08789062 83.93530273 C60.05305408 88.99482633 59.82242496 93.94951768 59.18359375 98.97265625 C58.94077606 101.45381154 58.97546752 103.86385131 59.03125 106.35546875 C59.09284601 110.68772159 58.38873664 114.08550715 56.96875 118.16796875 C55.09375 117.85546875 55.09375 117.85546875 52.96875 117.16796875 C50.96875 114.16796875 50.96875 114.16796875 50.96875 111.16796875 C49.31875 110.83796875 47.66875 110.50796875 45.96875 110.16796875 C46.071875 109.28109375 46.175 108.39421875 46.28125 107.48046875 C45.86913028 103.11199975 44.08178506 102.13276405 40.96875 99.16796875 C40.27914038 97.17576318 39.60795943 95.17691269 38.96875 93.16796875 C37.48375 92.67296875 37.48375 92.67296875 35.96875 92.16796875 C35.30875 91.50796875 34.64875 90.84796875 33.96875 90.16796875 C33.30875 90.02359375 32.64875 89.87921875 31.96875 89.73046875 C29.96875 89.16796875 29.96875 89.16796875 27.96875 86.16796875 C26.97875 86.16796875 25.98875 86.16796875 24.96875 86.16796875 C24.96875 85.50796875 24.96875 84.84796875 24.96875 84.16796875 C22.65875 83.50796875 20.34875 82.84796875 17.96875 82.16796875 C17.63875 80.84796875 17.30875 79.52796875 16.96875 78.16796875 C15.97875 78.66296875 15.97875 78.66296875 14.96875 79.16796875 C14.47375 80.65296875 14.47375 80.65296875 13.96875 82.16796875 C14.855625 82.33296875 15.7425 82.49796875 16.65625 82.66796875 C20.7387017 84.51662612 21.73625823 86.4481216 23.79296875 90.29296875 C24.98109171 92.47246814 24.98109171 92.47246814 27.96875 94.16796875 C27.5874408 99.79227948 27.19190022 103.07279278 22.96875 107.16796875 C22.30875 107.16796875 21.64875 107.16796875 20.96875 107.16796875 C20.96875 107.82796875 20.96875 108.48796875 20.96875 109.16796875 C21.62875 109.16796875 22.28875 109.16796875 22.96875 109.16796875 C23.95875 110.65296875 23.95875 110.65296875 24.96875 112.16796875 C25.2471875 111.20890625 25.2471875 111.20890625 25.53125 110.23046875 C26.96875 108.16796875 26.96875 108.16796875 30.28125 107.16796875 C33.96875 107.16796875 33.96875 107.16796875 36.65625 108.60546875 C41.91672178 114.43464018 43.43926157 119.43869438 43.109375 127.26171875 C43.06296875 127.89078125 43.0165625 128.51984375 42.96875 129.16796875 C39.50375 130.15796875 39.50375 130.15796875 35.96875 131.16796875 C35.96875 131.82796875 35.96875 132.48796875 35.96875 133.16796875 C35.30875 133.16796875 34.64875 133.16796875 33.96875 133.16796875 C33.824375 133.93109375 33.68 134.69421875 33.53125 135.48046875 C32.43060567 140.73910277 32.43060567 140.73910277 30.21875 142.79296875 C27.72178016 144.31889476 25.87105087 144.87029687 22.96875 145.16796875 C21.97875 144.83796875 20.98875 144.50796875 19.96875 144.16796875 C17.94780918 144.82007877 17.94780918 144.82007877 15.84375 145.91796875 C7.57387773 149.76658886 -0.73714712 152.76507592 -10.03125 152.16796875 C-12.890625 150.92578125 -12.890625 150.92578125 -15.03125 149.16796875 C-15.03125 147.84796875 -15.03125 146.52796875 -15.03125 145.16796875 C-15.36125 144.50796875 -15.69125 143.84796875 -16.03125 143.16796875 C-17.02125 143.49796875 -18.01125 143.82796875 -19.03125 144.16796875 C-19.69125 143.83796875 -20.35125 143.50796875 -21.03125 143.16796875 C-21.03125 143.82796875 -21.03125 144.48796875 -21.03125 145.16796875 C-23.13534639 145.19498283 -25.23954178 145.21437098 -27.34375 145.23046875 C-28.51550781 145.24207031 -29.68726563 145.25367188 -30.89453125 145.265625 C-34.03125 145.16796875 -34.03125 145.16796875 -37.03125 144.16796875 C-37.03125 143.50796875 -37.03125 142.84796875 -37.03125 142.16796875 C-37.629375 141.89984375 -38.2275 141.63171875 -38.84375 141.35546875 C-41.09729393 140.13211633 -42.45983036 139.18836543 -44.03125 137.16796875 C-44.71875 134.48046875 -44.71875 134.48046875 -45.03125 132.16796875 C-45.65773438 132.33554688 -46.28421875 132.503125 -46.9296875 132.67578125 C-48.15558594 132.98128906 -48.15558594 132.98128906 -49.40625 133.29296875 C-50.62441406 133.60621094 -50.62441406 133.60621094 -51.8671875 133.92578125 C-52.93839844 134.04566406 -52.93839844 134.04566406 -54.03125 134.16796875 C-54.69125 133.50796875 -55.35125 132.84796875 -56.03125 132.16796875 C-56.03125 130.84796875 -56.03125 129.52796875 -56.03125 128.16796875 C-56.69125 128.16796875 -57.35125 128.16796875 -58.03125 128.16796875 C-58.69125 126.84796875 -59.35125 125.52796875 -60.03125 124.16796875 C-59.37125 124.16796875 -58.71125 124.16796875 -58.03125 124.16796875 C-57.70125 122.51796875 -57.37125 120.86796875 -57.03125 119.16796875 C-56.37125 119.16796875 -55.71125 119.16796875 -55.03125 119.16796875 C-54.78375 118.40484375 -54.53625 117.64171875 -54.28125 116.85546875 C-52.88163832 113.84630364 -51.92915845 112.74111905 -49.03125 111.16796875 C-46.28125 110.98046875 -46.28125 110.98046875 -44.03125 111.16796875 C-44.03125 111.82796875 -44.03125 112.48796875 -44.03125 113.16796875 C-40.60546051 109.99257319 -40.60546051 109.99257319 -38.03125 106.16796875 C-37.37125 106.16796875 -36.71125 106.16796875 -36.03125 106.16796875 C-36.03125 105.50796875 -36.03125 104.84796875 -36.03125 104.16796875 C-36.69125 104.16796875 -37.35125 104.16796875 -38.03125 104.16796875 C-38.69125 102.18796875 -39.35125 100.20796875 -40.03125 98.16796875 C-36.28281552 93.85158965 -33.47529732 92.6336738 -28.03125 91.16796875 C-27.53625 89.68296875 -27.53625 89.68296875 -27.03125 88.16796875 C-29.24901622 86.86282139 -29.24901622 86.86282139 -32.03125 86.16796875 C-34.63900041 87.43258683 -34.63900041 87.43258683 -37.03125 89.16796875 C-39.34375 89.85546875 -39.34375 89.85546875 -41.03125 90.16796875 C-41.03125 91.48796875 -41.03125 92.80796875 -41.03125 94.16796875 C-43.50625 94.66296875 -43.50625 94.66296875 -46.03125 95.16796875 C-45.78375 95.74546875 -45.53625 96.32296875 -45.28125 96.91796875 C-45.19875 97.66046875 -45.11625 98.40296875 -45.03125 99.16796875 C-46.90625 101.23046875 -46.90625 101.23046875 -49.03125 103.16796875 C-49.36125 104.15796875 -49.69125 105.14796875 -50.03125 106.16796875 C-53.47569444 109.16796875 -53.47569444 109.16796875 -56.03125 109.16796875 C-56.03125 110.15796875 -56.03125 111.14796875 -56.03125 112.16796875 C-58.01125 112.66296875 -58.01125 112.66296875 -60.03125 113.16796875 C-60.36125 114.48796875 -60.69125 115.80796875 -61.03125 117.16796875 C-61.670625 117.27109375 -62.31 117.37421875 -62.96875 117.48046875 C-63.649375 117.70734375 -64.33 117.93421875 -65.03125 118.16796875 C-65.36125 119.15796875 -65.69125 120.14796875 -66.03125 121.16796875 C-67.02125 121.16796875 -68.01125 121.16796875 -69.03125 121.16796875 C-69.03125 121.82796875 -69.03125 122.48796875 -69.03125 123.16796875 C-70.02125 123.16796875 -71.01125 123.16796875 -72.03125 123.16796875 C-72.8751021 118.82344897 -73.11209261 114.77654893 -73.03125 110.35546875 C-72.99396796 108.29330574 -72.98405206 106.22992864 -73.03125 104.16796875 C-73.36125 103.83796875 -73.69125 103.50796875 -74.03125 103.16796875 C-74.03125 100.83463542 -74.03125 98.50130208 -74.03125 96.16796875 C-74.33533839 92.37656878 -74.70511061 88.61387932 -75.54272461 84.90039062 C-76.06876642 81.9581318 -76.1607534 79.22639863 -76.1640625 76.23828125 C-76.16535156 75.11292969 -76.16664062 73.98757812 -76.16796875 72.828125 C-76.16410156 71.66152344 -76.16023438 70.49492188 -76.15625 69.29296875 C-76.16011719 68.13410156 -76.16398437 66.97523437 -76.16796875 65.78125 C-76.15914736 58.06253713 -76.05567254 51.35097227 -73.03125 44.16796875 C-72.9075 43.42546875 -72.78375 42.68296875 -72.65625 41.91796875 C-70.75961211 33.57276203 -66.33180104 24.09942854 -59.15625 19.16796875 C-55.36669093 17.03320769 -52.39940538 16.65406812 -48.03125 17.16796875 C-47.04125 17.49796875 -46.05125 17.82796875 -45.03125 18.16796875 C-45.03125 18.82796875 -45.03125 19.48796875 -45.03125 20.16796875 C-44.37125 20.16796875 -43.71125 20.16796875 -43.03125 20.16796875 C-43.03125 20.82796875 -43.03125 21.48796875 -43.03125 22.16796875 C-42.37125 22.16796875 -41.71125 22.16796875 -41.03125 22.16796875 C-39.60505339 24.83020242 -38.70236108 27.23185776 -38.03125 30.16796875 C-37.53625 31.77671875 -37.53625 31.77671875 -37.03125 33.41796875 C-35.82074989 37.95734415 -35.17234324 42.48719722 -34.92578125 47.171875 C-34.50419953 52.9942604 -32.20980966 57.98940909 -28.03125 62.16796875 C-25.03125 62.33463542 -25.03125 62.33463542 -22.03125 62.16796875 C-19.99104621 60.12776496 -20.21783787 56.72087099 -19.95703125 53.9765625 C-20.05949155 50.09924907 -21.43244015 47.31901214 -23.0390625 43.83984375 C-24.7955144 39.10987092 -24.85929248 34.17193259 -25.03125 29.16796875 C-25.69125 29.16796875 -26.35125 29.16796875 -27.03125 29.16796875 C-28.16297416 21.67029622 -29.20397706 13.54834322 -27.03125 6.16796875 C-26.37125 6.16796875 -25.71125 6.16796875 -25.03125 6.16796875 C-24.94875 5.59046875 -24.86625 5.01296875 -24.78125 4.41796875 C-23.8078689 1.49782545 -22.35511725 0.15009082 -20.03125 -1.83203125 C-12.87448271 -4.21762035 -6.84232778 -2.75593758 0 0 Z M-14.03125 17.16796875 C-13.03125 20.16796875 -13.03125 20.16796875 -13.03125 20.16796875 Z M-14.03125 24.16796875 C-14.03125 26.14796875 -14.03125 28.12796875 -14.03125 30.16796875 C-13.37125 29.83796875 -12.71125 29.50796875 -12.03125 29.16796875 C-12.03125 27.51796875 -12.03125 25.86796875 -12.03125 24.16796875 C-12.69125 24.16796875 -13.35125 24.16796875 -14.03125 24.16796875 Z M30.96875 28.16796875 C30.96875 29.15796875 30.96875 30.14796875 30.96875 31.16796875 C32.28875 30.17796875 33.60875 29.18796875 34.96875 28.16796875 C33.64875 28.16796875 32.32875 28.16796875 30.96875 28.16796875 Z M-0.03125 31.16796875 C0.96875 33.16796875 0.96875 33.16796875 0.96875 33.16796875 Z M-58.03125 32.16796875 C-58.03125 33.15796875 -58.03125 34.14796875 -58.03125 35.16796875 C-57.37125 34.83796875 -56.71125 34.50796875 -56.03125 34.16796875 C-56.69125 33.50796875 -57.35125 32.84796875 -58.03125 32.16796875 Z M-13.03125 34.16796875 C-12.03125 36.16796875 -12.03125 36.16796875 -12.03125 36.16796875 Z M25.96875 34.16796875 C24.97875 34.82796875 23.98875 35.48796875 22.96875 36.16796875 C24.03520115 37.46430496 24.03520115 37.46430496 26.53125 37.23046875 C27.335625 37.20984375 28.14 37.18921875 28.96875 37.16796875 C28.30875 36.83796875 27.64875 36.50796875 26.96875 36.16796875 C26.63875 35.50796875 26.30875 34.84796875 25.96875 34.16796875 Z M-11.03125 37.16796875 C-11.36125 38.48796875 -11.69125 39.80796875 -12.03125 41.16796875 C-11.37125 41.16796875 -10.71125 41.16796875 -10.03125 41.16796875 C-10.36125 39.84796875 -10.69125 38.52796875 -11.03125 37.16796875 Z M0.96875 37.16796875 C0.96875 37.82796875 0.96875 38.48796875 0.96875 39.16796875 C1.62875 38.83796875 2.28875 38.50796875 2.96875 38.16796875 C2.30875 37.83796875 1.64875 37.50796875 0.96875 37.16796875 Z M43.96875 38.16796875 C44.29875 38.82796875 44.62875 39.48796875 44.96875 40.16796875 C45.29875 39.50796875 45.62875 38.84796875 45.96875 38.16796875 C45.30875 38.16796875 44.64875 38.16796875 43.96875 38.16796875 Z M1.96875 42.16796875 C2.29875 44.14796875 2.62875 46.12796875 2.96875 48.16796875 C3.62875 47.17796875 4.28875 46.18796875 4.96875 45.16796875 C4.63875 44.17796875 4.30875 43.18796875 3.96875 42.16796875 C3.30875 42.16796875 2.64875 42.16796875 1.96875 42.16796875 Z M-9.03125 45.16796875 C-8.03125 47.16796875 -8.03125 47.16796875 -8.03125 47.16796875 Z M-44.03125 47.16796875 C-43.03125 49.16796875 -43.03125 49.16796875 -43.03125 49.16796875 Z M-8.03125 47.16796875 C-7.03125 50.16796875 -7.03125 50.16796875 -7.03125 50.16796875 Z M48.96875 47.16796875 C49.29875 48.15796875 49.62875 49.14796875 49.96875 50.16796875 C50.29875 49.17796875 50.62875 48.18796875 50.96875 47.16796875 C50.30875 47.16796875 49.64875 47.16796875 48.96875 47.16796875 Z M4.96875 49.16796875 C4.63875 49.82796875 4.30875 50.48796875 3.96875 51.16796875 C4.62875 51.16796875 5.28875 51.16796875 5.96875 51.16796875 C5.63875 50.50796875 5.30875 49.84796875 4.96875 49.16796875 Z M41.96875 51.16796875 C40.43429906 54.23687062 41.41890711 56.86891141 41.96875 60.16796875 C42.62875 60.16796875 43.28875 60.16796875 43.96875 60.16796875 C43.96875 57.19796875 43.96875 54.22796875 43.96875 51.16796875 C43.30875 51.16796875 42.64875 51.16796875 41.96875 51.16796875 Z M46.96875 52.16796875 C47.96875 54.16796875 47.96875 54.16796875 47.96875 54.16796875 Z M4.96875 53.16796875 C5.62875 53.82796875 6.28875 54.48796875 6.96875 55.16796875 C6.96875 54.50796875 6.96875 53.84796875 6.96875 53.16796875 C6.30875 53.16796875 5.64875 53.16796875 4.96875 53.16796875 Z M31.96875 53.16796875 C32.29875 54.15796875 32.62875 55.14796875 32.96875 56.16796875 C32.96875 55.17796875 32.96875 54.18796875 32.96875 53.16796875 C32.63875 53.16796875 32.30875 53.16796875 31.96875 53.16796875 Z M36.96875 54.16796875 C36.96875 57.16796875 36.96875 57.16796875 36.96875 57.16796875 Z M5.96875 56.16796875 C6.96875 58.16796875 6.96875 58.16796875 6.96875 58.16796875 Z M-61.03125 58.16796875 C-61.36125 59.15796875 -61.69125 60.14796875 -62.03125 61.16796875 C-63.02125 60.83796875 -64.01125 60.50796875 -65.03125 60.16796875 C-67.17380793 60.55729731 -67.17380793 60.55729731 -69.03125 61.16796875 C-69.03125 62.15796875 -69.03125 63.14796875 -69.03125 64.16796875 C-68.04125 64.16796875 -67.05125 64.16796875 -66.03125 64.16796875 C-66.03125 64.82796875 -66.03125 65.48796875 -66.03125 66.16796875 C-65.37125 65.83796875 -64.71125 65.50796875 -64.03125 65.16796875 C-64.03125 64.17796875 -64.03125 63.18796875 -64.03125 62.16796875 C-61.06125 62.66296875 -61.06125 62.66296875 -58.03125 63.16796875 C-58.36125 61.51796875 -58.69125 59.86796875 -59.03125 58.16796875 C-59.69125 58.16796875 -60.35125 58.16796875 -61.03125 58.16796875 Z M30.96875 59.16796875 C31.62875 60.48796875 32.28875 61.80796875 32.96875 63.16796875 C32.96875 61.84796875 32.96875 60.52796875 32.96875 59.16796875 C32.30875 59.16796875 31.64875 59.16796875 30.96875 59.16796875 Z M6.96875 60.16796875 C6.63875 61.15796875 6.30875 62.14796875 5.96875 63.16796875 C6.62875 63.82796875 7.28875 64.48796875 7.96875 65.16796875 C7.96875 63.51796875 7.96875 61.86796875 7.96875 60.16796875 C7.63875 60.16796875 7.30875 60.16796875 6.96875 60.16796875 Z M21.96875 60.16796875 C22.96875 62.16796875 22.96875 62.16796875 22.96875 62.16796875 Z M-52.03125 61.16796875 C-53.02125 61.49796875 -54.01125 61.82796875 -55.03125 62.16796875 C-54.70125 63.15796875 -54.37125 64.14796875 -54.03125 65.16796875 C-53.04125 64.50796875 -52.05125 63.84796875 -51.03125 63.16796875 C-51.36125 62.50796875 -51.69125 61.84796875 -52.03125 61.16796875 Z M-49.03125 64.16796875 C-48.03125 66.16796875 -48.03125 66.16796875 -48.03125 66.16796875 Z M11.96875 65.16796875 C12.96875 67.16796875 12.96875 67.16796875 12.96875 67.16796875 Z M5.96875 70.16796875 C7.45375 71.15796875 7.45375 71.15796875 8.96875 72.16796875 C9.29875 71.50796875 9.62875 70.84796875 9.96875 70.16796875 C8.64875 70.16796875 7.32875 70.16796875 5.96875 70.16796875 Z M31.96875 70.16796875 C32.96875 72.16796875 32.96875 72.16796875 32.96875 72.16796875 Z M-39.03125 71.16796875 C-38.70125 72.15796875 -38.37125 73.14796875 -38.03125 74.16796875 C-37.04125 74.16796875 -36.05125 74.16796875 -35.03125 74.16796875 C-35.36125 73.17796875 -35.69125 72.18796875 -36.03125 71.16796875 C-37.02125 71.16796875 -38.01125 71.16796875 -39.03125 71.16796875 Z M22.96875 72.16796875 C22.63875 72.82796875 22.30875 73.48796875 21.96875 74.16796875 C22.62875 74.16796875 23.28875 74.16796875 23.96875 74.16796875 C23.63875 73.50796875 23.30875 72.84796875 22.96875 72.16796875 Z M27.96875 73.16796875 C28.29875 74.48796875 28.62875 75.80796875 28.96875 77.16796875 C30.28875 76.83796875 31.60875 76.50796875 32.96875 76.16796875 C32.96875 77.81796875 32.96875 79.46796875 32.96875 81.16796875 C33.62875 80.50796875 34.28875 79.84796875 34.96875 79.16796875 C34.64676034 76.06870056 34.64676034 76.06870056 33.96875 73.16796875 C33.63875 73.82796875 33.30875 74.48796875 32.96875 75.16796875 C30.49375 74.17796875 30.49375 74.17796875 27.96875 73.16796875 Z M23.96875 74.16796875 C24.29875 74.82796875 24.62875 75.48796875 24.96875 76.16796875 C25.29875 75.50796875 25.62875 74.84796875 25.96875 74.16796875 C25.30875 74.16796875 24.64875 74.16796875 23.96875 74.16796875 Z M38.96875 78.16796875 C39.29875 78.82796875 39.62875 79.48796875 39.96875 80.16796875 C40.29875 79.50796875 40.62875 78.84796875 40.96875 78.16796875 C40.30875 78.16796875 39.64875 78.16796875 38.96875 78.16796875 Z M47.96875 78.16796875 C47.30875 78.82796875 46.64875 79.48796875 45.96875 80.16796875 C46.95875 80.16796875 47.94875 80.16796875 48.96875 80.16796875 C48.63875 79.50796875 48.30875 78.84796875 47.96875 78.16796875 Z M-51.03125 80.16796875 C-50.70125 81.48796875 -50.37125 82.80796875 -50.03125 84.16796875 C-49.70125 83.50796875 -49.37125 82.84796875 -49.03125 82.16796875 C-49.69125 81.50796875 -50.35125 80.84796875 -51.03125 80.16796875 Z M-55.03125 83.16796875 C-55.03125 84.15796875 -55.03125 85.14796875 -55.03125 86.16796875 C-53.71125 86.16796875 -52.39125 86.16796875 -51.03125 86.16796875 C-51.03125 85.50796875 -51.03125 84.84796875 -51.03125 84.16796875 C-52.35125 83.83796875 -53.67125 83.50796875 -55.03125 83.16796875 Z M-64.03125 86.16796875 C-63.03125 88.16796875 -63.03125 88.16796875 -63.03125 88.16796875 Z M6.96875 86.16796875 C5.81063612 89.11526412 5.81063612 89.11526412 5.96875 92.16796875 C6.95875 92.16796875 7.94875 92.16796875 8.96875 92.16796875 C8.63875 93.15796875 8.30875 94.14796875 7.96875 95.16796875 C8.62875 95.16796875 9.28875 95.16796875 9.96875 95.16796875 C10.29875 93.84796875 10.62875 92.52796875 10.96875 91.16796875 C10.30875 91.16796875 9.64875 91.16796875 8.96875 91.16796875 C8.63875 89.51796875 8.30875 87.86796875 7.96875 86.16796875 C7.63875 86.16796875 7.30875 86.16796875 6.96875 86.16796875 Z M-0.03125 87.16796875 C-0.36125 88.15796875 -0.69125 89.14796875 -1.03125 90.16796875 C-0.04125 90.16796875 0.94875 90.16796875 1.96875 90.16796875 C1.63875 89.17796875 1.30875 88.18796875 0.96875 87.16796875 C0.63875 87.16796875 0.30875 87.16796875 -0.03125 87.16796875 Z M-69.03125 91.16796875 C-68.70125 91.82796875 -68.37125 92.48796875 -68.03125 93.16796875 C-67.70125 92.50796875 -67.37125 91.84796875 -67.03125 91.16796875 C-67.69125 91.16796875 -68.35125 91.16796875 -69.03125 91.16796875 Z M0.96875 93.16796875 C0.96875 93.82796875 0.96875 94.48796875 0.96875 95.16796875 C1.62875 95.16796875 2.28875 95.16796875 2.96875 95.16796875 C2.96875 96.15796875 2.96875 97.14796875 2.96875 98.16796875 C4.61875 97.50796875 6.26875 96.84796875 7.96875 96.16796875 C5.60921906 93.80843781 4.18979383 93.67655462 0.96875 93.16796875 Z M-25.03125 96.16796875 C-26.80534808 98.08819578 -26.80534808 98.08819578 -28.03125 100.16796875 C-26.71125 100.49796875 -25.39125 100.82796875 -24.03125 101.16796875 C-24.03125 100.17796875 -24.03125 99.18796875 -24.03125 98.16796875 C-22.71125 98.82796875 -21.39125 99.48796875 -20.03125 100.16796875 C-19.70125 99.50796875 -19.37125 98.84796875 -19.03125 98.16796875 C-19.69125 97.50796875 -20.35125 96.84796875 -21.03125 96.16796875 C-22.35125 96.16796875 -23.67125 96.16796875 -25.03125 96.16796875 Z M-9.03125 96.16796875 C-8.70125 97.15796875 -8.37125 98.14796875 -8.03125 99.16796875 C-7.70125 98.17796875 -7.37125 97.18796875 -7.03125 96.16796875 C-7.69125 96.16796875 -8.35125 96.16796875 -9.03125 96.16796875 Z M-14.03125 98.16796875 C-14.03125 98.82796875 -14.03125 99.48796875 -14.03125 100.16796875 C-15.35125 100.49796875 -16.67125 100.82796875 -18.03125 101.16796875 C-17.391875 101.29171875 -16.7525 101.41546875 -16.09375 101.54296875 C-15.413125 101.74921875 -14.7325 101.95546875 -14.03125 102.16796875 C-13.70125 102.82796875 -13.37125 103.48796875 -13.03125 104.16796875 C-11.09326737 101.39536576 -11.09326737 101.39536576 -10.03125 99.16796875 C-11.35125 98.83796875 -12.67125 98.50796875 -14.03125 98.16796875 Z M14.96875 98.16796875 C15.62875 98.82796875 16.28875 99.48796875 16.96875 100.16796875 C16.96875 99.50796875 16.96875 98.84796875 16.96875 98.16796875 C16.30875 98.16796875 15.64875 98.16796875 14.96875 98.16796875 Z M-29.03125 100.16796875 C-30.65074011 102.74010009 -31.07533751 103.84466034 -30.65625 106.91796875 C-30.45 107.66046875 -30.24375 108.40296875 -30.03125 109.16796875 C-29.04125 109.49796875 -28.05125 109.82796875 -27.03125 110.16796875 C-26.37125 109.50796875 -25.71125 108.84796875 -25.03125 108.16796875 C-25.7428125 106.74484375 -25.7428125 106.74484375 -26.46875 105.29296875 C-27.32291667 103.58463542 -28.17708333 101.87630208 -29.03125 100.16796875 Z M-1.03125 100.16796875 C-0.70125 101.15796875 -0.37125 102.14796875 -0.03125 103.16796875 C0.29875 102.17796875 0.62875 101.18796875 0.96875 100.16796875 C0.30875 100.16796875 -0.35125 100.16796875 -1.03125 100.16796875 Z M12.96875 100.16796875 C13.29875 101.48796875 13.62875 102.80796875 13.96875 104.16796875 C14.29875 103.50796875 14.62875 102.84796875 14.96875 102.16796875 C14.30875 101.50796875 13.64875 100.84796875 12.96875 100.16796875 Z M-24.03125 101.16796875 C-24.03125 103.47796875 -24.03125 105.78796875 -24.03125 108.16796875 C-23.04125 107.50796875 -22.05125 106.84796875 -21.03125 106.16796875 C-21.36125 104.51796875 -21.69125 102.86796875 -22.03125 101.16796875 C-22.69125 101.16796875 -23.35125 101.16796875 -24.03125 101.16796875 Z M11.96875 105.16796875 C11.30875 105.82796875 10.64875 106.48796875 9.96875 107.16796875 C10.95875 107.66296875 10.95875 107.66296875 11.96875 108.16796875 C12.59375 110.23046875 12.59375 110.23046875 12.96875 112.16796875 C12.30875 112.16796875 11.64875 112.16796875 10.96875 112.16796875 C11.29875 112.82796875 11.62875 113.48796875 11.96875 114.16796875 C12.95875 113.50796875 13.94875 112.84796875 14.96875 112.16796875 C15.2189657 109.08431004 15.2189657 109.08431004 14.96875 106.16796875 C13.97875 105.83796875 12.98875 105.50796875 11.96875 105.16796875 Z M-21.03125 107.16796875 C-20.70125 108.48796875 -20.37125 109.80796875 -20.03125 111.16796875 C-21.02125 111.66296875 -21.02125 111.66296875 -22.03125 112.16796875 C-22.36125 112.82796875 -22.69125 113.48796875 -23.03125 114.16796875 C-22.37125 114.16796875 -21.71125 114.16796875 -21.03125 114.16796875 C-20.845625 115.12703125 -20.845625 115.12703125 -20.65625 116.10546875 C-20.45 116.78609375 -20.24375 117.46671875 -20.03125 118.16796875 C-19.37125 118.49796875 -18.71125 118.82796875 -18.03125 119.16796875 C-17.28198929 115.50491641 -16.7932486 112.74441723 -18.03125 109.16796875 C-15.55625 110.15796875 -15.55625 110.15796875 -13.03125 111.16796875 C-13.36125 110.17796875 -13.69125 109.18796875 -14.03125 108.16796875 C-16.34125 107.83796875 -18.65125 107.50796875 -21.03125 107.16796875 Z M5.96875 109.16796875 C5.96875 110.15796875 5.96875 111.14796875 5.96875 112.16796875 C6.62875 112.16796875 7.28875 112.16796875 7.96875 112.16796875 C7.96875 111.17796875 7.96875 110.18796875 7.96875 109.16796875 C7.30875 109.16796875 6.64875 109.16796875 5.96875 109.16796875 Z M-13.03125 111.16796875 C-12.03125 113.16796875 -12.03125 113.16796875 -12.03125 113.16796875 Z M-32.03125 112.16796875 C-32.69125 113.48796875 -33.35125 114.80796875 -34.03125 116.16796875 C-33.04125 116.16796875 -32.05125 116.16796875 -31.03125 116.16796875 C-29.32592677 114.22787353 -29.32592677 114.22787353 -28.03125 112.16796875 C-29.35125 112.16796875 -30.67125 112.16796875 -32.03125 112.16796875 Z M-27.03125 112.16796875 C-27.36125 113.48796875 -27.69125 114.80796875 -28.03125 116.16796875 C-26.71125 115.50796875 -25.39125 114.84796875 -24.03125 114.16796875 C-25.02125 113.50796875 -26.01125 112.84796875 -27.03125 112.16796875 Z M-1.03125 113.16796875 C-0.03125 115.16796875 -0.03125 115.16796875 -0.03125 115.16796875 Z M7.96875 115.16796875 C7.96875 115.82796875 7.96875 116.48796875 7.96875 117.16796875 C8.95875 116.83796875 9.94875 116.50796875 10.96875 116.16796875 C9.97875 115.83796875 8.98875 115.50796875 7.96875 115.16796875 Z M-3.03125 116.16796875 C-3.69125 116.82796875 -4.35125 117.48796875 -5.03125 118.16796875 C-3.71125 118.16796875 -2.39125 118.16796875 -1.03125 118.16796875 C-1.03125 117.50796875 -1.03125 116.84796875 -1.03125 116.16796875 C-1.69125 116.16796875 -2.35125 116.16796875 -3.03125 116.16796875 Z M-30.03125 117.16796875 C-29.845625 118.05484375 -29.66 118.94171875 -29.46875 119.85546875 C-29.05082516 123.01975686 -29.22347258 125.11636517 -30.03125 128.16796875 C-26.76879498 126.46537828 -26.76879498 126.46537828 -26.21875 123.23046875 C-25.71086905 119.99365421 -25.71086905 119.99365421 -28.03125 117.16796875 C-28.69125 117.16796875 -29.35125 117.16796875 -30.03125 117.16796875 Z M2.96875 118.16796875 C2.96875 118.82796875 2.96875 119.48796875 2.96875 120.16796875 C1.97875 120.66296875 1.97875 120.66296875 0.96875 121.16796875 C1.62875 121.16796875 2.28875 121.16796875 2.96875 121.16796875 C2.7625 121.74546875 2.55625 122.32296875 2.34375 122.91796875 C1.88213739 125.68764442 2.53930055 126.81358142 3.96875 129.16796875 C4.29875 127.51796875 4.62875 125.86796875 4.96875 124.16796875 C5.95875 124.16796875 6.94875 124.16796875 7.96875 124.16796875 C7.96875 121.85796875 7.96875 119.54796875 7.96875 117.16796875 C5.0432856 116.94436195 5.0432856 116.94436195 2.96875 118.16796875 Z M7.96875 127.16796875 C7.30875 127.82796875 6.64875 128.48796875 5.96875 129.16796875 C5.30875 129.82796875 4.64875 130.48796875 3.96875 131.16796875 C4.29875 132.15796875 4.62875 133.14796875 4.96875 134.16796875 C5.62875 134.16796875 6.28875 134.16796875 6.96875 134.16796875 C6.96875 134.82796875 6.96875 135.48796875 6.96875 136.16796875 C7.62875 136.16796875 8.28875 136.16796875 8.96875 136.16796875 C10.58824011 133.59583741 11.01283751 132.49127716 10.59375 129.41796875 C10.3875 128.67546875 10.18125 127.93296875 9.96875 127.16796875 C9.30875 127.16796875 8.64875 127.16796875 7.96875 127.16796875 Z M-45.03125 129.16796875 C-45.03125 130.15796875 -45.03125 131.14796875 -45.03125 132.16796875 C-44.04125 131.83796875 -43.05125 131.50796875 -42.03125 131.16796875 C-43.02125 130.50796875 -44.01125 129.84796875 -45.03125 129.16796875 Z M3.96875 138.16796875 C3.63875 138.82796875 3.30875 139.48796875 2.96875 140.16796875 C3.62875 140.16796875 4.28875 140.16796875 4.96875 140.16796875 C4.63875 139.50796875 4.30875 138.84796875 3.96875 138.16796875 Z M9.96875 138.16796875 C10.96875 141.16796875 10.96875 141.16796875 10.96875 141.16796875 Z M-10.03125 144.16796875 C-10.03125 145.15796875 -10.03125 146.14796875 -10.03125 147.16796875 C-9.37125 147.16796875 -8.71125 147.16796875 -8.03125 147.16796875 C-8.36125 146.17796875 -8.69125 145.18796875 -9.03125 144.16796875 C-9.36125 144.16796875 -9.69125 144.16796875 -10.03125 144.16796875 Z " fill="#FAFAF9" transform="translate(91.03125,32.83203125)"/>
<path d="M0 0 C1.49943149 0.15156708 2.99949252 0.29698425 4.5 0.4375 C8.24799102 0.84285677 11.44738464 1.69495762 15 3 C16.60397572 3.43819955 18.20816258 3.87562658 19.8125 4.3125 C25.01183165 5.86918612 29.39900917 8.15293298 34 11 C34.70640625 11.41894531 35.4128125 11.83789062 36.140625 12.26953125 C46.4248717 18.68793701 61.54379004 30.51305146 64.73828125 42.8515625 C64.82464844 43.56054688 64.91101563 44.26953125 65 45 C65.66 45 66.32 45 67 45 C69 50.625 69 50.625 69 54 C69.66 54 70.32 54 71 54 C71.67289801 56.9986426 72.33764303 59.9990134 73 63 C73.185625 63.825 73.37125 64.65 73.5625 65.5 C75.11747475 74.38557001 75.13701391 83.16325257 75.11352539 92.15844727 C75.1132186 93.70143856 75.11335332 95.24442999 75.11389065 96.78742123 C75.11411523 100.89748514 75.10834417 105.0075196 75.10128021 109.1175766 C75.0955604 112.98264147 75.09531574 116.84769938 75.09460449 120.71276855 C75.08936943 131.99601623 75.07540819 143.27925849 75.0625 154.5625 C75.041875 179.786875 75.02125 205.01125 75 231 C19.89 231 -35.22 231 -92 231 C-92.08060607 188.10861536 -92.08060607 188.10861536 -92.09765625 170.15234375 C-92.10952927 157.74786732 -92.12349656 145.34341803 -92.15087891 132.93896484 C-92.1708107 123.90537611 -92.18371595 114.87180937 -92.18817699 105.83819926 C-92.19078472 101.05479817 -92.19691547 96.27146 -92.21146011 91.48807907 C-92.22504066 86.98526074 -92.22922167 82.48253123 -92.22621536 77.97969437 C-92.22676531 76.3277259 -92.23073994 74.67575445 -92.23841095 73.02380371 C-92.24837964 70.76619781 -92.24596195 68.50892609 -92.24050903 66.25131226 C-92.24235262 64.98845587 -92.24419621 63.72559948 -92.24609566 62.42447472 C-91.99753506 58.96569977 -91.24631969 56.22255915 -90 53 C-89.34 53 -88.68 53 -88 53 C-87.9175 52.14921875 -87.835 51.2984375 -87.75 50.421875 C-86.88304464 46.46639117 -85.2144418 43.56819178 -83 40.25 C-82.60353271 39.64526855 -82.20706543 39.04053711 -81.79858398 38.41748047 C-78.06549222 32.8564306 -73.9492515 27.54117368 -69 23 C-68.34 23 -67.68 23 -67 23 C-67 22.34 -67 21.68 -67 21 C-66.34 21 -65.68 21 -65 21 C-65 20.34 -65 19.68 -65 19 C-62.69921875 17.0546875 -62.69921875 17.0546875 -59.6875 14.875 C-58.70136719 14.15054687 -57.71523438 13.42609375 -56.69921875 12.6796875 C-54 11 -54 11 -51 11 C-51 10.34 -51 9.68 -51 9 C-43.27472496 4.84023652 -34.74630588 1.99201957 -26 1 C-25.01 1.495 -25.01 1.495 -24 2 C-24 1.34 -24 0.68 -24 0 C-22.9275 0.020625 -21.855 0.04125 -20.75 0.0625 C-17.26287885 0.14588008 -17.26287885 0.14588008 -15 -0.5 C-9.99400748 -1.75149813 -4.99177915 -0.89852025 0 0 Z M-17 8 C-17 8.66 -17 9.32 -17 10 C-17.99 9.79375 -18.98 9.5875 -20 9.375 C-24.37837888 8.72137698 -27.79347412 9.74542211 -32 11 C-32 11.66 -32 12.32 -32 13 C-32.99 12.67 -33.98 12.34 -35 12 C-39.84519227 13.45047169 -39.84519227 13.45047169 -43 17 C-45.5625 17.625 -45.5625 17.625 -48 18 C-48 18.66 -48 19.32 -48 20 C-48.7321875 20.26039062 -49.464375 20.52078125 -50.21875 20.7890625 C-53.06068812 22.0264232 -55.09420236 23.43511388 -57.5 25.375 C-58.2321875 25.96023437 -58.964375 26.54546875 -59.71875 27.1484375 C-60.4715625 27.75945313 -61.224375 28.37046875 -62 29 C-62.82113281 29.59296875 -63.64226563 30.1859375 -64.48828125 30.796875 C-67.57227651 33.50196571 -69.53169487 36.41542857 -71.6875 39.875 C-72.07744141 40.47441406 -72.46738281 41.07382812 -72.86914062 41.69140625 C-75.20280751 45.36942483 -76.64052879 48.84088716 -78 53 C-78.99 53.495 -78.99 53.495 -80 54 C-80.82804069 56.48412207 -81 58.35220307 -81 61 C-81.66 61 -82.32 61 -83 61 C-83.144375 62.11375 -83.28875 63.2275 -83.4375 64.375 C-84 68 -84 68 -85 70 C-84.60061233 72.09821215 -84.60061233 72.09821215 -84 74 C-84.66 74 -85.32 74 -86 74 C-86 123.83 -86 173.66 -86 225 C-35.51 225 14.98 225 67 225 C67.20625 200.311875 67.4125 175.62375 67.625 150.1875 C67.69541504 142.38375732 67.76583008 134.58001465 67.83837891 126.53979492 C67.89164964 119.56236491 67.89164964 119.56236491 67.94223022 112.58491516 C67.96488317 109.46998471 67.99323761 106.35516137 68.0249939 103.24031067 C68.06527604 99.27106527 68.09593291 95.30185667 68.11952281 91.33247817 C68.12985184 89.87327113 68.14360589 88.41408352 68.16111493 86.95494497 C68.18422694 84.98849851 68.19376523 83.0219063 68.20254517 81.05534363 C68.2117631 79.95195743 68.22098103 78.84857122 68.23047829 77.71174908 C68.20071451 74.7786413 68.20071451 74.7786413 66 72 C65.875 69.3125 65.875 69.3125 66 67 C65.34 67 64.68 67 64 67 C64.33 66.01 64.66 65.02 65 64 C64.24016669 61.6794645 64.24016669 61.6794645 63 59 C62.45069303 57.56540219 61.90936151 56.12773151 61.375 54.6875 C60.92125 53.470625 60.4675 52.25375 60 51 C59.34 51 58.68 51 58 51 C57.71125 50.113125 57.4225 49.22625 57.125 48.3125 C56.75375 47.219375 56.3825 46.12625 56 45 C55.5978125 43.7315625 55.5978125 43.7315625 55.1875 42.4375 C53.65382242 39.28942496 51.50673404 37.44218295 49 35 C48.19820312 34.175 47.39640625 33.35 46.5703125 32.5 C41.98182996 27.80889964 37.57721161 23.48575726 32 20 C31.34 20 30.68 20 30 20 C29.505 19.01 29.505 19.01 29 18 C27.02583732 16.94991347 25.02417134 15.95012124 23 15 C22.01 14.505 22.01 14.505 21 14 C20.34 14.33 19.68 14.66 19 15 C18.505 14.01 18.505 14.01 18 13 C17.01 12.505 17.01 12.505 16 12 C15.34 12.33 14.68 12.66 14 13 C14 12.34 14 11.68 14 11 C13.25234375 10.86722656 12.5046875 10.73445312 11.734375 10.59765625 C10.74953125 10.42105469 9.7646875 10.24445312 8.75 10.0625 C7.28820312 9.80146484 7.28820312 9.80146484 5.796875 9.53515625 C2.82995959 8.96746433 -0.05904352 8.26563781 -2.96484375 7.4453125 C-5.21677364 6.95256776 -7.2588898 6.86720436 -9.5625 6.875 C-10.70912109 6.87113281 -10.70912109 6.87113281 -11.87890625 6.8671875 C-14.18998495 6.92092616 -14.18998495 6.92092616 -17 8 Z " fill="#FAFAF9" transform="translate(92,2)"/>
<path d="M0 0 C1.65 0 3.3 0 5 0 C5 0.66 5 1.32 5 2 C5.99 2 6.98 2 8 2 C9.6875 4.5 9.6875 4.5 11 7 C11.309375 6.21625 11.61875 5.4325 11.9375 4.625 C13 2 13 2 14 0 C15.32 0 16.64 0 18 0 C18.33 0.66 18.66 1.32 19 2 C19.66 2 20.32 2 21 2 C21.33 1.34 21.66 0.68 22 0 C24.4178712 -0.10826289 26.83087556 -0.18739789 29.25 -0.25 C30.27287109 -0.30027344 30.27287109 -0.30027344 31.31640625 -0.3515625 C34.92181813 -0.4215705 36.64068812 -0.29151719 39.484375 2.015625 C39.98453125 2.67046875 40.4846875 3.3253125 41 4 C41.33 3.01 41.66 2.02 42 1 C44.95040867 -0.15908912 47.86010303 -0.24153054 51 0 C51.99 0.66 52.98 1.32 54 2 C54.1875 5.125 54.1875 5.125 54 8 C51.69 8 49.38 8 47 8 C49.475 8.99 49.475 8.99 52 10 C52 10.66 52 11.32 52 12 C52.66 12 53.32 12 54 12 C55.20224719 18.25168539 55.20224719 18.25168539 54.375 21.3125 C52.4129577 23.72046101 51.03288545 24.27474478 48 25 C45.2666123 24.86307705 42.70842848 24.45905568 40 24 C38.9375 21.625 38.9375 21.625 38 19 C38.33 18.34 38.66 17.68 39 17 C41.31 17 43.62 17 46 17 C45.01 16.67 44.02 16.34 43 16 C43 15.34 43 14.68 43 14 C42.01 13.67 41.02 13.34 40 13 C40 12.34 40 11.68 40 11 C39.34 11 38.68 11 38 11 C37.505 9.515 37.505 9.515 37 8 C35.68 8 34.36 8 33 8 C33.01160156 9.07121094 33.02320313 10.14242187 33.03515625 11.24609375 C33.04453299 12.64322743 33.05363331 14.04036299 33.0625 15.4375 C33.07087891 16.14455078 33.07925781 16.85160156 33.08789062 17.58007812 C33.09653588 19.38693559 33.05220011 21.19387603 33 23 C32 24 32 24 29.5625 24.1875 C27 24 27 24 25 22 C24.8046875 18.7421875 24.8046875 18.7421875 24.875 14.875 C24.89304687 13.59367188 24.91109375 12.31234375 24.9296875 10.9921875 C24.95289062 10.00476563 24.97609375 9.01734375 25 8 C23.68 7.67 22.36 7.34 21 7 C20.67 12.28 20.34 17.56 20 23 C17.69 23.33 15.38 23.66 13 24 C9.71143007 21.44222339 7.57294136 18.86085606 6 15 C5.67 17.64 5.34 20.28 5 23 C3.34385343 23.38218767 1.67542976 23.71395102 0 24 C-1.61686074 22.38313926 -1.12989349 20.6092385 -1.1328125 18.37890625 C-1.13410156 17.44369141 -1.13539062 16.50847656 -1.13671875 15.54492188 C-1.13285156 14.56072266 -1.12898438 13.57652344 -1.125 12.5625 C-1.12886719 11.58216797 -1.13273437 10.60183594 -1.13671875 9.59179688 C-1.13542969 8.65529297 -1.13414063 7.71878906 -1.1328125 6.75390625 C-1.13168457 5.89095947 -1.13055664 5.0280127 -1.12939453 4.13891602 C-1 2 -1 2 0 0 Z " fill="#FAFAF9" transform="translate(95,193)"/>
<path d="M0 0 C3.0625 2.5 3.0625 2.5 5 5 C4.01 6.485 4.01 6.485 3 8 C0.72265625 8.1171875 0.72265625 8.1171875 -1.9375 7.875 C-4.58922876 7.71542384 -4.58922876 7.71542384 -7 8 C-9.23025247 10.3202093 -9.23025247 10.3202093 -10 13 C-8.71034824 14.37562854 -7.37310707 15.70766393 -6 17 C-5.34 17 -4.68 17 -4 17 C-3.67 16.34 -3.34 15.68 -3 15 C-3.99 15 -4.98 15 -6 15 C-6.042721 13.33388095 -6.04063832 11.66617115 -6 10 C-5 9 -5 9 -3.1875 8.8671875 C-2.465625 8.86976563 -1.74375 8.87234375 -1 8.875 C-0.278125 8.87242187 0.44375 8.86984375 1.1875 8.8671875 C3 9 3 9 4 10 C4.12514928 11.97619447 4.1757276 13.95738173 4.1875 15.9375 C4.20167969 17.01902344 4.21585938 18.10054687 4.23046875 19.21484375 C4 22 4 22 2 24 C-4.40520967 25.55739102 -9.31223491 25.31786297 -15 22 C-17.40336003 18.39495995 -18.04701414 15.26261493 -18 11 C-16.79547215 6.74872523 -15.61180056 4.56810052 -12.375 1.5625 C-8.11592181 -0.40929546 -4.61618923 -1.02676268 0 0 Z " fill="#FAFAF9" transform="translate(69,193)"/>
<path d="M0 0 C2.1640625 -0.29296875 2.1640625 -0.29296875 4.625 -0.1875 C5.44226563 -0.16042969 6.25953125 -0.13335937 7.1015625 -0.10546875 C8.04128906 -0.05326172 8.04128906 -0.05326172 9 0 C9 0.66 9 1.32 9 2 C9.99 1.67 10.98 1.34 12 1 C15.18923033 5.18586481 16.50423019 7.70558305 16 13 C15.34 13 14.68 13 14 13 C14 14.65 14 16.3 14 18 C14.66 18 15.32 18 16 18 C16.042721 19.66611905 16.04063832 21.33382885 16 23 C15 24 15 24 12.6875 24.1875 C9.9220797 23.9945637 8.35954949 23.39825155 6 22 C5.34 22.66 4.68 23.32 4 24 C-0.55555556 23.44444444 -0.55555556 23.44444444 -2 22 C-2.25017242 18.88272557 -2.18522148 15.7511343 -2.1875 12.625 C-2.19974609 11.7484375 -2.21199219 10.871875 -2.22460938 9.96875 C-2.22654297 9.12570313 -2.22847656 8.28265625 -2.23046875 7.4140625 C-2.23457764 6.6401416 -2.23868652 5.8662207 -2.24291992 5.06884766 C-2 3 -2 3 0 0 Z M6 7 C6 7.66 6 8.32 6 9 C6.66 8.67 7.32 8.34 8 8 C7.34 7.67 6.68 7.34 6 7 Z " fill="#FAFAF9" transform="translate(18,193)"/>
<path d="M0 0 C3.96 0 7.92 0 12 0 C12 0.66 12 1.32 12 2 C12.99 2.33 13.98 2.66 15 3 C14.67 4.32 14.34 5.64 14 7 C11.36 7.66 8.72 8.32 6 9 C8.31 9.33 10.62 9.66 13 10 C13 11.65 13 13.3 13 15 C10.69 15.33 8.38 15.66 6 16 C7.134375 16.144375 8.26875 16.28875 9.4375 16.4375 C13 17 13 17 14 18 C14.125 20.5 14.125 20.5 14 23 C13 24 13 24 9.875 24.1328125 C8.59625 24.13023437 7.3175 24.12765625 6 24.125 C4.72125 24.12757813 3.4425 24.13015625 2.125 24.1328125 C-1 24 -1 24 -2 23 C-2.08685603 21.43827255 -2.10702219 19.87270656 -2.09765625 18.30859375 C-2.09443359 17.36435547 -2.09121094 16.42011719 -2.08789062 15.44726562 C-2.07951172 14.45404297 -2.07113281 13.46082031 -2.0625 12.4375 C-2.05798828 11.44041016 -2.05347656 10.44332031 -2.04882812 9.41601562 C-2.03700007 6.94395151 -2.02051849 4.47200482 -2 2 C-1.34 2 -0.68 2 0 2 C0 1.34 0 0.68 0 0 Z " fill="#FAFAF9" transform="translate(37,193)"/>
<path d="M0 0 C3.96 0 7.92 0 12 0 C12 0.66 12 1.32 12 2 C12.66 2 13.32 2 14 2 C14 3.65 14 5.3 14 7 C11.29120665 8.35439668 8.99066732 8.06501451 6 8 C6 8.66 6 9.32 6 10 C8.64 10 11.28 10 14 10 C13.67 11.65 13.34 13.3 13 15 C10.69 15.33 8.38 15.66 6 16 C7.11375 16.12375 8.2275 16.2475 9.375 16.375 C13 17 13 17 15 19 C14.67 20.65 14.34 22.3 14 24 C9.05 24 4.1 24 -1 24 C-1.02687433 20.37495101 -1.04677776 16.75009954 -1.0625 13.125 C-1.07087891 12.09246094 -1.07925781 11.05992187 -1.08789062 9.99609375 C-1.09111328 9.00996094 -1.09433594 8.02382812 -1.09765625 7.0078125 C-1.10289307 6.09660645 -1.10812988 5.18540039 -1.11352539 4.24658203 C-1 2 -1 2 0 0 Z " fill="#FAFAF9" transform="translate(77,193)"/>
<path d="M0 0 C3 1 3 1 3 1 Z " fill="#FAFAF9" transform="translate(98,1)"/>
<path d="M0 0 C3 1 3 1 3 1 Z " fill="#FAFAF9" transform="translate(64,1)"/>
<path d="M0 0 C2 1 2 1 2 1 Z " fill="#FAFAF9" transform="translate(71,0)"/>
<path d="" fill="#FAFAF9" transform="translate(0,0)"/>
<path d="" fill="#FAFAF9" transform="translate(0,0)"/>
<path d="" fill="#FAFAF9" transform="translate(0,0)"/>
<path d="" fill="#FAFAF9" transform="translate(0,0)"/>
<path d="" fill="#FAFAF9" transform="translate(0,0)"/>
<path d="" fill="#FAFAF9" transform="translate(0,0)"/>
<path d="" fill="#FAFAF9" transform="translate(0,0)"/>
</svg>
