<?xml version="1.0" encoding="UTF-8"?>
<svg version="1.1" xmlns="http://www.w3.org/2000/svg" width="384" height="165">
<path d="M0 0 C0.91721832 0.34988228 0.91721832 0.34988228 1.85296631 0.70683289 C3.79465763 1.44905786 5.73323473 2.19906608 7.671875 2.94921875 C8.95684043 3.44125383 10.24199536 3.93279432 11.52734375 4.42382812 C18.51761817 7.10130072 25.47093929 9.85634446 32.421875 12.63671875 C32.421875 25.17671875 32.421875 37.71671875 32.421875 50.63671875 C25.94547104 49.91711831 21.72613528 49.29582343 15.859375 47.19921875 C10.01704733 45.14504618 10.01704733 45.14504618 4.046875 43.51171875 C0.50377214 42.65648702 -2.73855727 41.49277412 -6.109375 40.125 C-13.80432539 38.6030557 -21.49166948 42.08551889 -28.640625 44.57421875 C-46.30755255 50.63671875 -46.30755255 50.63671875 -51.578125 50.63671875 C-51.578125 38.09671875 -51.578125 25.55671875 -51.578125 12.63671875 C-44.71 9.79046875 -44.71 9.79046875 -37.703125 6.88671875 C-35.5686792 6.00161621 -35.5686792 6.00161621 -33.39111328 5.09863281 C-31.59516547 4.35494521 -29.79905232 3.61163352 -28.00027466 2.87481689 C-25.18798101 1.72260376 -22.38960404 0.55291786 -19.61230469 -0.68164062 C-18.32308105 -1.24334961 -18.32308105 -1.24334961 -17.0078125 -1.81640625 C-16.28577637 -2.14286133 -15.56374023 -2.46931641 -14.81982422 -2.80566406 C-9.6648923 -4.08794074 -4.7817872 -1.8366879 0 0 Z " fill="#FAFAF9" transform="translate(61.578125,113.36328125)"/>
<path d="M0 0 C3.09832071 0.50314252 5.40241859 1.6764535 8.0625 3.30078125 C8.85035889 3.77797607 9.63821777 4.2551709 10.44995117 4.74682617 C11.29146729 5.26349854 12.1329834 5.7801709 13 6.3125 C14.78763342 7.39864654 16.57539792 8.48457738 18.36328125 9.5703125 C19.2857666 10.13266602 20.20825195 10.69501953 21.15869141 11.27441406 C24.00867748 13.00527002 26.86757445 14.72027756 29.73046875 16.4296875 C30.64505859 16.97584717 31.55964844 17.52200684 32.50195312 18.0847168 C34.27247269 19.14139506 36.04329907 20.19755942 37.81445312 21.25317383 C38.61173828 21.73036865 39.40902344 22.20756348 40.23046875 22.69921875 C40.93582764 23.12033936 41.64118652 23.54145996 42.36791992 23.9753418 C44 25 44 25 45 26 C45.0883967 28.3756852 45.11530305 30.72208674 45.09765625 33.09765625 C45.0962413 33.80651474 45.09482635 34.51537323 45.09336853 35.24571228 C45.08775443 37.51801712 45.07519963 39.79022475 45.0625 42.0625 C45.05748681 43.59960796 45.05292359 45.13671745 45.04882812 46.67382812 C45.03778042 50.44925642 45.02050641 54.22461171 45 58 C40.40304303 56.51570852 36.16716052 54.70084249 31.875 52.5 C31.19848389 52.15976807 30.52196777 51.81953613 29.82495117 51.46899414 C25.7580603 49.42110108 21.71600586 47.32976558 17.68359375 45.21484375 C16.7910791 44.75335938 15.89856445 44.291875 14.97900391 43.81640625 C13.22648319 42.91014027 11.47980496 41.99246883 9.73974609 41.0625 C8.9348877 40.64871094 8.1300293 40.23492187 7.30078125 39.80859375 C6.59091064 39.43532959 5.88104004 39.06206543 5.1496582 38.67749023 C1.42299855 37.50298932 -1.23480149 38.65709434 -4.70385742 40.21166992 C-6.14015503 40.96347534 -6.14015503 40.96347534 -7.60546875 41.73046875 C-8.67216797 42.28669922 -9.73886719 42.84292969 -10.83789062 43.41601562 C-11.94326172 44.00060547 -13.04863281 44.58519531 -14.1875 45.1875 C-15.27353516 45.75275391 -16.35957031 46.31800781 -17.47851562 46.90039062 C-23.47658143 50.04532243 -29.33060396 53.32621045 -35.06762695 56.92700195 C-37 58 -37 58 -39 58 C-39.24865482 53.5712664 -39.42926743 49.14629534 -39.54931641 44.71264648 C-39.59937919 43.20769468 -39.66746223 41.70322393 -39.75439453 40.19995117 C-40.45516854 27.76327366 -40.45516854 27.76327366 -37.00634766 23.58422852 C-34.42071675 21.75836465 -31.85302173 20.36398313 -29 19 C-27.63749388 18.15409647 -26.28472491 17.29217104 -24.9453125 16.41015625 C-23.67329046 15.62530546 -22.39984581 14.84275571 -21.125 14.0625 C-9.977045 7.76080633 -9.977045 7.76080633 0 0 Z " fill="#FAFAF9" transform="translate(49,4)"/>
<path d="M0 0 C2.97 0 5.94 0 9 0 C11.00571345 11.01250217 12.52129747 21.80826494 13 33 C13.66 33 14.32 33 15 33 C15.03738281 32.37738281 15.07476562 31.75476563 15.11328125 31.11328125 C15.85622992 20.66829704 17.45888396 10.35164739 19 0 C22.96 0 26.92 0 31 0 C32.49731088 8.23520987 33.52691736 16.43407712 34.30224609 24.76293945 C34.32720979 28.70579898 34.32720979 28.70579898 36 32 C36.11593506 31.24380371 36.23187012 30.48760742 36.35131836 29.70849609 C36.87964618 26.263936 37.40856746 22.81946728 37.9375 19.375 C38.11990234 18.18519531 38.30230469 16.99539062 38.49023438 15.76953125 C38.66748047 14.61582031 38.84472656 13.46210937 39.02734375 12.2734375 C39.18968506 11.21560059 39.35202637 10.15776367 39.51928711 9.06787109 C39.99345243 6.04178604 40.49131249 3.02045582 41 0 C43.64 0 46.28 0 49 0 C50.2548513 2.5097026 49.88509399 3.29512553 49.28125 6.00390625 C48.40755434 10.07993104 47.57169745 14.15848217 46.78271484 18.2515564 C46.18503699 21.35018197 45.57641117 24.44662818 44.96826172 27.54321289 C44.65372615 29.15147688 44.3415862 30.76021108 44.03173828 32.36938477 C43.57955656 34.71498847 43.11876784 37.05875928 42.65625 39.40234375 C42.45147034 40.48043556 42.45147034 40.48043556 42.24255371 41.58030701 C41.56852625 44.95311298 40.93594044 47.09608933 39 50 C36.8359375 50.29296875 36.8359375 50.29296875 34.375 50.1875 C33.55773437 50.16042969 32.74046875 50.13335937 31.8984375 50.10546875 C31.27195313 50.07066406 30.64546875 50.03585938 30 50 C27.668027 43.17644421 27.1093017 36.20695579 26.375 29.0625 C26.2409375 27.80630859 26.106875 26.55011719 25.96875 25.25585938 C25.64033567 22.17111053 25.31759376 19.08587847 25 16 C24.88027832 16.72993164 24.76055664 17.45986328 24.63720703 18.21191406 C23.44924817 25.4040677 22.19013169 32.58009688 20.875 39.75 C20.69324219 40.74515625 20.51148438 41.7403125 20.32421875 42.765625 C19.88363634 45.17723399 19.44193976 47.58863938 19 50 C15.7 50 12.4 50 9 50 C7.15879163 44.9943722 6.17236244 40.03879035 5.2734375 34.8046875 C5.12089508 33.93482208 4.96835266 33.06495667 4.81118774 32.16873169 C4.49136608 30.33862397 4.17381039 28.50811896 3.85839844 26.67724609 C3.37520448 23.87618539 2.88344949 21.07672429 2.390625 18.27734375 C2.0802197 16.49488031 1.77030687 14.71233103 1.4609375 12.9296875 C1.31409515 12.0942038 1.16725281 11.25872009 1.01596069 10.3979187 C0.88227081 9.6167569 0.74858093 8.83559509 0.61083984 8.03076172 C0.49251801 7.34714569 0.37419617 6.66352966 0.25228882 5.959198 C0 4 0 4 0 0 Z " fill="#FAFAF9" transform="translate(110,69)"/>
<path d="M0 0 C3.22886009 -0.11667875 6.45717445 -0.18740546 9.6875 -0.25 C11.05551758 -0.30027344 11.05551758 -0.30027344 12.45117188 -0.3515625 C16.78891355 -0.41465692 19.29870105 -0.41687497 23.09594727 1.84033203 C26.64398208 5.86468335 26.13104856 10.85461974 26 16 C25.11935085 20.10969604 23.70537214 22.80274201 21 26 C21.99 26.33 22.98 26.66 24 27 C25.83399567 30.66799134 25.43488177 35.01689592 25.625 39.0625 C25.70234375 40.46725586 25.70234375 40.46725586 25.78125 41.90039062 C25.82507813 42.79048828 25.86890625 43.68058594 25.9140625 44.59765625 C25.9548291 45.41758057 25.9955957 46.23750488 26.03759766 47.08227539 C26 49 26 49 25 50 C22.32941149 50.14115161 19.67567762 50.04247107 17 50 C15.88176185 47.76352369 15.80603939 46.35108471 15.68359375 43.8671875 C15.62075195 42.65869141 15.62075195 42.65869141 15.55664062 41.42578125 C15.51732422 40.58402344 15.47800781 39.74226563 15.4375 38.875 C15.37272461 37.60076172 15.37272461 37.60076172 15.30664062 36.30078125 C15.20045764 34.20071777 15.09971503 32.10038052 15 30 C13.02 29.34 11.04 28.68 9 28 C9 35.26 9 42.52 9 50 C6.36 50 3.72 50 1 50 C0 49 0 49 -0.12025452 47.01951599 C-0.11803391 46.15125687 -0.11581329 45.28299774 -0.11352539 44.38842773 C-0.11344986 43.40748642 -0.11337433 42.4265451 -0.11329651 41.4158783 C-0.10813522 40.3492244 -0.10297394 39.2825705 -0.09765625 38.18359375 C-0.0962413 37.0974025 -0.09482635 36.01121124 -0.09336853 34.8921051 C-0.08775048 31.40720925 -0.07519492 27.92237658 -0.0625 24.4375 C-0.05748733 22.08138113 -0.05292402 19.72526126 -0.04882812 17.36914062 C-0.03777519 11.57940536 -0.02101951 5.78970719 0 0 Z M9 7 C9 11.95 9 16.9 9 22 C14.51563484 21.67811123 14.51563484 21.67811123 16 20 C16.09873816 18.00200428 16.12971799 16.00042842 16.125 14 C16.12886719 12.3603125 16.12886719 12.3603125 16.1328125 10.6875 C16.30547755 8.08169646 16.30547755 8.08169646 15 7 C13.02 7 11.04 7 9 7 Z " fill="#FAFAF9" transform="translate(306,69)"/>
<path d="M0 0 C0.86818359 -0.01224609 1.73636719 -0.02449219 2.63085938 -0.03710938 C3.47068359 -0.03904297 4.31050781 -0.04097656 5.17578125 -0.04296875 C5.94446533 -0.04707764 6.71314941 -0.05118652 7.50512695 -0.05541992 C9.99143288 0.22133077 11.57377073 0.86171197 13.6875 2.1875 C15.70995747 5.86760457 15.95850515 9.09623242 15.9375 13.25 C15.94265625 14.27222656 15.9478125 15.29445313 15.953125 16.34765625 C15.57982754 20.33864531 14.49861772 22.37638228 11.6875 25.1875 C12.161875 25.579375 12.63625 25.97125 13.125 26.375 C16.64814593 30.46184928 15.84017777 36.30788681 15.8125 41.4375 C15.81830078 42.53578125 15.81830078 42.53578125 15.82421875 43.65625 C15.81421034 49.06078966 15.81421034 49.06078966 14.6875 50.1875 C11.25 50.4375 11.25 50.4375 7.6875 50.1875 C5.7118438 47.22401571 5.42373141 46.50729627 5.2734375 43.17578125 C5.23476562 42.41845703 5.19609375 41.66113281 5.15625 40.88085938 C5.1253125 40.09517578 5.094375 39.30949219 5.0625 38.5 C5.02382812 37.70271484 4.98515625 36.90542969 4.9453125 36.08398438 C4.85117506 34.11886525 4.76825368 32.1532146 4.6875 30.1875 C3.0375 29.8575 1.3875 29.5275 -0.3125 29.1875 C-0.30726318 29.78812256 -0.30202637 30.38874512 -0.29663086 31.00756836 C-0.27591986 33.71336838 -0.26285875 36.41915177 -0.25 39.125 C-0.24162109 40.07052734 -0.23324219 41.01605469 -0.22460938 41.99023438 C-0.22138672 42.88935547 -0.21816406 43.78847656 -0.21484375 44.71484375 C-0.20960693 45.54749756 -0.20437012 46.38015137 -0.19897461 47.23803711 C-0.3125 49.1875 -0.3125 49.1875 -1.3125 50.1875 C-3.125 50.3203125 -3.125 50.3203125 -5.3125 50.3125 C-6.034375 50.31507812 -6.75625 50.31765625 -7.5 50.3203125 C-9.3125 50.1875 -9.3125 50.1875 -10.3125 49.1875 C-10.41081146 47.68879952 -10.44048456 46.18551461 -10.44189453 44.68359375 C-10.44504669 43.72590088 -10.44819885 42.76820801 -10.45144653 41.78149414 C-10.4494223 40.73985107 -10.44739807 39.69820801 -10.4453125 38.625 C-10.44626923 37.56337646 -10.44722595 36.50175293 -10.44821167 35.40795898 C-10.44889364 33.15836528 -10.44703819 30.90876963 -10.44287109 28.65917969 C-10.4375231 25.20242929 -10.44281554 21.74580883 -10.44921875 18.2890625 C-10.44855797 16.10937471 -10.44727682 13.929687 -10.4453125 11.75 C-10.44733673 10.70835693 -10.44936096 9.66671387 -10.45144653 8.59350586 C-10.44829437 7.63581299 -10.44514221 6.67812012 -10.44189453 5.69140625 C-10.44109894 4.84392822 -10.44030334 3.9964502 -10.43948364 3.12329102 C-10.1209363 -1.73277605 -3.70709513 0.00271582 0 0 Z M-0.3125 7.1875 C-0.3125 12.1375 -0.3125 17.0875 -0.3125 22.1875 C1.3375 21.8575 2.9875 21.5275 4.6875 21.1875 C6.89558081 15.99201575 6.62152724 12.60485797 5.6875 7.1875 C3.7075 7.1875 1.7275 7.1875 -0.3125 7.1875 Z " fill="#FAFAF9" transform="translate(201.3125,68.8125)"/>
<path d="M0 0 C4.27178135 3.85502219 4.87456853 7.55997774 5.16113281 13.13452148 C5.20651152 16.90227348 5.23521628 20.66949828 5.25 24.4375 C5.270625 25.74783203 5.29125 27.05816406 5.3125 28.40820312 C5.31765625 29.67470703 5.3228125 30.94121094 5.328125 32.24609375 C5.34214355 33.97363892 5.34214355 33.97363892 5.35644531 35.73608398 C4.87623222 40.13332288 3.31259738 43.41394483 0.5 46.8125 C-3.75674333 50.18242181 -9.8830077 49.42704035 -15 49 C-18.74030185 47.39701349 -19.73158465 46.40262302 -22 43 C-22.20808108 40.2289149 -22.30402764 37.56083141 -22.30078125 34.7890625 C-22.30506638 33.98391205 -22.3093515 33.1787616 -22.31376648 32.34921265 C-22.31950761 30.64622945 -22.32001163 28.94322173 -22.31567383 27.24023438 C-22.31252002 24.6414982 -22.33595315 22.04390741 -22.36132812 19.4453125 C-22.36360184 17.78906393 -22.36430428 16.13281231 -22.36328125 14.4765625 C-22.372491 13.70245026 -22.38170074 12.92833801 -22.39118958 12.13076782 C-22.352351 7.57456653 -21.82617847 4.62174339 -19 1 C-13.06632686 -2.77376758 -6.37612766 -2.53439607 0 0 Z M-12.72729492 6.58789062 C-14.39001651 9.73918341 -14.37235533 12.03671068 -14.36328125 15.59375 C-14.36263672 16.87121094 -14.36199219 18.14867187 -14.36132812 19.46484375 C-14.35302979 20.12726074 -14.34473145 20.78967773 -14.33618164 21.47216797 C-14.3125751 23.4935696 -14.31562726 25.51365159 -14.32226562 27.53515625 C-14.56013779 35.09271739 -14.56013779 35.09271739 -12 42 C-10.02 42 -8.04 42 -6 42 C-4.50455458 39.00910916 -4.83720702 35.93632814 -4.83203125 32.65625 C-4.82870285 31.93135376 -4.82537445 31.20645752 -4.82194519 30.45959473 C-4.81688075 28.92635737 -4.81453672 27.39310899 -4.81469727 25.85986328 C-4.81250862 23.50925657 -4.79434249 21.15911751 -4.77539062 18.80859375 C-4.77245708 17.32031411 -4.77047202 15.83203223 -4.76953125 14.34375 C-4.76234573 13.63851196 -4.75516022 12.93327393 -4.74775696 12.20666504 C-4.64962056 8.15392138 -4.64962056 8.15392138 -7 5 C-10.90025017 4.54881686 -10.90025017 4.54881686 -12.72729492 6.58789062 Z " fill="#FAFAF9" transform="translate(183,70)"/>
<path d="M0 0 C2.21260887 4.23532409 2.30666622 8.29328675 2.30078125 12.96875 C2.30506638 13.72667847 2.3093515 14.48460693 2.31376648 15.26550293 C2.31949015 16.86237594 2.32002455 18.45927501 2.31567383 20.05615234 C2.31250998 22.4923155 2.33600932 24.92726766 2.36132812 27.36328125 C2.36360103 28.91926931 2.36430466 30.47526062 2.36328125 32.03125 C2.372491 32.75534058 2.38170074 33.47943115 2.39118958 34.22546387 C2.35070635 38.67240042 1.69325884 41.44455363 -1 45 C-4.99953017 48.62457422 -9.25496841 48.43543154 -14.40234375 48.296875 C-18.73597883 47.80160242 -21.00630015 45.99369985 -24 43 C-25.22529216 38.79516176 -25.10904672 34.58905806 -25.01953125 30.25 C-25.00540695 29.51426758 -24.99128265 28.77853516 -24.97673035 28.02050781 C-24.94373914 26.47062986 -24.90740442 24.92081988 -24.86791992 23.37109375 C-24.81268169 21.00777365 -24.78412832 18.64502579 -24.75585938 16.28125 C-24.72040298 14.77079363 -24.68334705 13.26037378 -24.64453125 11.75 C-24.64016556 11.0477832 -24.63579987 10.34556641 -24.63130188 9.62207031 C-24.46624582 4.84446332 -23.38612701 2.3600434 -20 -1 C-13.96914751 -3.74231 -5.48804164 -4.06521603 0 0 Z M-14.72729492 5.04858398 C-16.68678631 8.05303721 -16.37135181 10.67008337 -16.36328125 14.22265625 C-16.36377975 14.9239415 -16.36427826 15.62522675 -16.36479187 16.34776306 C-16.3624542 17.82798094 -16.35274363 19.30820301 -16.33618164 20.78833008 C-16.31254879 23.05781435 -16.31562728 25.32612676 -16.32226562 27.59570312 C-16.8994793 34.91263112 -16.8994793 34.91263112 -14 41 C-11.5 41.33333333 -11.5 41.33333333 -9 41 C-6.10118122 38.10118122 -6.74134399 35.96038544 -6.734375 31.91015625 C-6.73246155 31.20982773 -6.7305481 30.50949921 -6.72857666 29.78794861 C-6.72721507 28.30597576 -6.7309097 26.82399098 -6.73925781 25.34204102 C-6.74994223 23.07475915 -6.73937047 20.80827251 -6.7265625 18.54101562 C-6.72788441 17.10156075 -6.73044747 15.66210637 -6.734375 14.22265625 C-6.73663086 12.91047119 -6.73888672 11.59828613 -6.74121094 10.24633789 C-6.74667645 6.85258936 -6.74667645 6.85258936 -9 4 C-12.76689956 3.65404611 -12.76689956 3.65404611 -14.72729492 5.04858398 Z " fill="#FAFAF9" transform="translate(300,71)"/>
<path d="M0 0 C2.97 0 5.94 0 9 0 C9 5.94 9 11.88 9 18 C11.71967771 14.37376306 13.71967437 10.79246435 15.6875 6.75 C16.16799805 5.77546875 16.16799805 5.77546875 16.65820312 4.78125 C17.44247141 3.18930243 18.22174255 1.59489471 19 0 C21.97 0 24.94 0 28 0 C26.29186112 6.02095361 23.24542369 10.95674914 20.01367188 16.25390625 C19.61341797 16.93582031 19.21316406 17.61773437 18.80078125 18.3203125 C18.43122314 18.93148926 18.06166504 19.54266602 17.6809082 20.17236328 C16.78573985 22.57509914 17.11400226 23.60949373 18 26 C18.7926601 27.6471687 19.63217761 29.27218165 20.50390625 30.87890625 C20.99697266 31.79994141 21.49003906 32.72097656 21.99804688 33.66992188 C23.0435345 35.60296455 24.09041671 37.53525359 25.13867188 39.46679688 C25.63044922 40.38654297 26.12222656 41.30628906 26.62890625 42.25390625 C27.3106189 43.51182983 27.3106189 43.51182983 28.00610352 44.79516602 C29 47 29 47 29 50 C26.03 50 23.06 50 20 50 C19.37351563 48.80761719 18.74703125 47.61523438 18.1015625 46.38671875 C17.2761271 44.82026748 16.45060156 43.2538637 15.625 41.6875 C15.00625 40.50897461 15.00625 40.50897461 14.375 39.30664062 C13.97539062 38.54931641 13.57578125 37.79199219 13.1640625 37.01171875 C12.61419678 35.96697388 12.61419678 35.96697388 12.05322266 34.90112305 C11.12046611 33.21744775 10.06767862 31.60151793 9 30 C9.00523682 30.57032959 9.01047363 31.14065918 9.01586914 31.72827148 C9.03658221 34.29800323 9.0496419 36.86771747 9.0625 39.4375 C9.07087891 40.33533203 9.07925781 41.23316406 9.08789062 42.15820312 C9.09111328 43.01220703 9.09433594 43.86621094 9.09765625 44.74609375 C9.10289307 45.53685303 9.10812988 46.3276123 9.11352539 47.14233398 C9 49 9 49 8 50 C5.36 50 2.72 50 0 50 C0 33.5 0 17 0 0 Z " fill="#FAFAF9" transform="translate(221,69)"/>
<path d="M0 0 C7.26 0 14.52 0 22 0 C22 2.31 22 4.62 22 7 C17.71 7 13.42 7 9 7 C9 11.62 9 16.24 9 21 C12.96 21 16.92 21 21 21 C21.38133299 22.9914056 21.71325582 24.99279077 22 27 C21 28 21 28 18.27734375 28.09765625 C15.18489583 28.06510417 12.09244792 28.03255208 9 28 C9 32.95 9 37.9 9 43 C13.29 43 17.58 43 22 43 C22 45.31 22 47.62 22 50 C18.52085059 50.02887814 15.04173169 50.04675687 11.5625 50.0625 C10.07266602 50.07506836 10.07266602 50.07506836 8.55273438 50.08789062 C7.60849609 50.09111328 6.66425781 50.09433594 5.69140625 50.09765625 C4.81685791 50.10289307 3.94230957 50.10812988 3.04125977 50.11352539 C1 50 1 50 0 49 C-0.09319449 47.4651703 -0.117458 45.92607918 -0.11352539 44.38842773 C-0.11344986 43.40748642 -0.11337433 42.4265451 -0.11329651 41.4158783 C-0.10813522 40.3492244 -0.10297394 39.2825705 -0.09765625 38.18359375 C-0.0962413 37.0974025 -0.09482635 36.01121124 -0.09336853 34.8921051 C-0.08775048 31.40720925 -0.07519492 27.92237658 -0.0625 24.4375 C-0.05748733 22.08138113 -0.05292402 19.72526126 -0.04882812 17.36914062 C-0.03862411 11.57938289 -0.01905224 5.78976255 0 0 Z " fill="#FAFAF9" transform="translate(362,69)"/>
<path d="M0 0 C2.99452434 2.24589325 3.81623122 3.44869367 5 7 C5.03954234 9.33299825 5.04401732 11.66708189 5 14 C-1.15234375 14.87890625 -1.15234375 14.87890625 -3 15 C-4.96822886 13.03177114 -4.66248381 9.65191291 -5 7 C-6.65 7 -8.3 7 -10 7 C-11.07779838 10.50578806 -11.12917302 13.75430005 -11.1328125 17.41015625 C-11.13410156 18.64701172 -11.13539063 19.88386719 -11.13671875 21.15820312 C-11.13285156 22.44662109 -11.12898438 23.73503906 -11.125 25.0625 C-11.12886719 26.35478516 -11.13273437 27.64707031 -11.13671875 28.97851562 C-11.13542969 30.21408203 -11.13414062 31.44964844 -11.1328125 32.72265625 C-11.13168457 33.85453369 -11.13055664 34.98641113 -11.12939453 36.15258789 C-11.12630087 39.07582292 -11.12630087 39.07582292 -10 42 C-8.35 42 -6.7 42 -5 42 C-4.855625 40.865625 -4.71125 39.73125 -4.5625 38.5625 C-4 35 -4 35 -3 34 C0.5 33.875 0.5 33.875 4 34 C5 35 5 35 5.25 38.75 C5.20156017 42.61134614 4.44921932 44.91579789 2 48 C-2.47444286 50.98296191 -6.75420434 50.4796156 -12 50 C-15.57705028 48.80764991 -17.35378524 48.21490602 -19.13354492 44.86889648 C-20.20725358 41.31376815 -20.30557716 37.96377989 -20.30078125 34.28515625 C-20.30506638 33.5517955 -20.3093515 32.81843475 -20.31376648 32.06285095 C-20.31948966 30.5172529 -20.32002491 28.97162792 -20.31567383 27.42602539 C-20.31251445 25.07325888 -20.3359942 22.72175189 -20.36132812 20.36914062 C-20.36360155 18.86198074 -20.36430441 17.3548175 -20.36328125 15.84765625 C-20.372491 15.15060074 -20.38170074 14.45354523 -20.39118958 13.73536682 C-20.34771573 9.10018316 -19.41631307 5.94692998 -17 2 C-12.09948035 -1.62549757 -5.67071254 -1.66326017 0 0 Z " fill="#FAFAF9" transform="translate(355,69)"/>
<path d="M0 0 C0.87454834 0.00523682 1.74909668 0.01047363 2.65014648 0.01586914 C3.59438477 0.0190918 4.53862305 0.02231445 5.51147461 0.02563477 C6.50469727 0.03401367 7.49791992 0.04239258 8.52124023 0.05102539 C9.51833008 0.05553711 10.51541992 0.06004883 11.54272461 0.06469727 C14.01478872 0.07652532 16.48673541 0.0930069 18.95874023 0.11352539 C19.95874023 2.11352539 19.95874023 2.11352539 18.95874023 7.11352539 C13.01874023 7.60852539 13.01874023 7.60852539 6.95874023 8.11352539 C6.95874023 12.40352539 6.95874023 16.69352539 6.95874023 21.11352539 C10.91874023 21.11352539 14.87874023 21.11352539 18.95874023 21.11352539 C18.95874023 23.09352539 18.95874023 25.07352539 18.95874023 27.11352539 C17.95874023 28.11352539 17.95874023 28.11352539 15.23608398 28.21118164 C14.13393555 28.19958008 13.03178711 28.18797852 11.89624023 28.17602539 C10.23915039 28.16249023 10.23915039 28.16249023 8.54858398 28.14868164 C7.69393555 28.13708008 6.83928711 28.12547852 5.95874023 28.11352539 C6.28874023 28.77352539 6.61874023 29.43352539 6.95874023 30.11352539 C7.05379092 31.54986682 7.0894689 32.99045014 7.09155273 34.42993164 C7.09348633 35.69933594 7.09348633 35.69933594 7.09545898 36.99438477 C7.0915918 37.87932617 7.08772461 38.76426758 7.08374023 39.67602539 C7.08760742 40.56483398 7.09147461 41.45364258 7.09545898 42.36938477 C7.09416992 43.21436523 7.09288086 44.0593457 7.09155273 44.92993164 C7.0904248 45.70796143 7.08929688 46.48599121 7.08813477 47.28759766 C6.95874023 49.11352539 6.95874023 49.11352539 5.95874023 50.11352539 C3.28815172 50.254677 0.63441786 50.15599646 -2.04125977 50.11352539 C-2.20908185 43.15363606 -2.36904602 36.19359858 -2.5234375 29.23339844 C-2.5769462 26.86356475 -2.63228208 24.4937716 -2.68945312 22.12402344 C-2.77111734 18.72608182 -2.84629969 15.32805057 -2.92016602 11.92993164 C-2.94720108 10.86327774 -2.97423615 9.79662384 -3.00209045 8.69764709 C-3.02218674 7.71670578 -3.04228302 6.73576447 -3.06298828 5.72509766 C-3.08297379 4.85683853 -3.10295929 3.98857941 -3.12355042 3.0940094 C-3.00997424 0.36057866 -2.72729981 0.15167975 0 0 Z " fill="#FAFAF9" transform="translate(254.041259765625,68.886474609375)"/>
<path d="M0 0 C2.31 0 4.62 0 7 0 C9.31 6.6 11.62 13.2 14 20 C15.93122343 14.16680776 15.93122343 14.16680776 17.85913086 8.33251953 C18.22083374 7.24366455 18.22083374 7.24366455 18.58984375 6.1328125 C18.83597412 5.38918457 19.08210449 4.64555664 19.33569336 3.87939453 C20 2 20 2 21 0 C23.33294775 -0.04241723 25.66702567 -0.04092937 28 0 C29 1 29 1 29.11352539 3.59204102 C29.10828857 4.71795654 29.10305176 5.84387207 29.09765625 7.00390625 C29.09443359 8.21884766 29.09121094 9.43378906 29.08789062 10.68554688 C29.07951172 11.96494141 29.07113281 13.24433594 29.0625 14.5625 C29.05798828 15.84576172 29.05347656 17.12902344 29.04882812 18.45117188 C29.03699545 21.63416022 29.02051068 24.81705762 29 28 C27.02 28 25.04 28 23 28 C22.97302863 25.39576408 22.95317511 22.79180756 22.9375 20.1875 C22.92912109 19.44951172 22.92074219 18.71152344 22.91210938 17.95117188 C22.89740172 14.70077932 22.96468298 12.10595105 24 9 C23.34 9 22.68 9 22 9 C21.87625 9.85980469 21.7525 10.71960938 21.625 11.60546875 C21.00363808 14.98024065 20.10004853 18.06493026 19 21.3125 C18.4740625 22.88451172 18.4740625 22.88451172 17.9375 24.48828125 C17 27 17 27 16 28 C14.35 28 12.7 28 11 28 C9.02 22.06 7.04 16.12 5 10 C5.03957481 15.54973121 5.03957481 15.54973121 5.09008789 21.09936523 C5.09723091 23.06645974 5.05031893 25.03353621 5 27 C4 28 4 28 1.4375 28.0625 C0.633125 28.041875 -0.17125 28.02125 -1 28 C-1.02886338 23.52084672 -1.04675187 19.04171709 -1.0625 14.5625 C-1.07087891 13.28310547 -1.07925781 12.00371094 -1.08789062 10.68554688 C-1.09111328 9.47060547 -1.09433594 8.25566406 -1.09765625 7.00390625 C-1.10289307 5.87799072 -1.10812988 4.7520752 -1.11352539 3.59204102 C-1 1 -1 1 0 0 Z " fill="#FAFAF9" transform="translate(169,131)"/>
<path d="M0 0 C2.64 0 5.28 0 8 0 C10.31 6.6 12.62 13.2 15 20 C16.93122343 14.16680776 16.93122343 14.16680776 18.85913086 8.33251953 C19.22083374 7.24366455 19.22083374 7.24366455 19.58984375 6.1328125 C19.83597412 5.38918457 20.08210449 4.64555664 20.33569336 3.87939453 C21 2 21 2 22 0 C24.31 0 26.62 0 29 0 C30.03254884 3.09764653 30.12908904 5.26148787 30.1328125 8.5078125 C30.13474609 10.11076172 30.13474609 10.11076172 30.13671875 11.74609375 C30.13285156 12.86113281 30.12898438 13.97617188 30.125 15.125 C30.13080078 16.80916016 30.13080078 16.80916016 30.13671875 18.52734375 C30.13542969 19.59339844 30.13414062 20.65945312 30.1328125 21.7578125 C30.13168457 22.7389502 30.13055664 23.72008789 30.12939453 24.73095703 C30 27 30 27 29 28 C27.33382885 28.04063832 25.66611905 28.042721 24 28 C23.90054585 21.88909517 23.9287172 16.02596573 25 10 C24.34 10 23.68 10 23 10 C22.81824219 10.71285156 22.63648438 11.42570313 22.44921875 12.16015625 C21.00217222 17.67377458 19.41108634 22.83338642 17 28 C15.35 28 13.7 28 12 28 C11.15875684 25.75267898 10.32685168 23.50261215 9.5 21.25 C9.26152344 20.61578125 9.02304688 19.9815625 8.77734375 19.328125 C7.55198242 15.96713393 7 13.63128413 7 10 C6.34 10 5.68 10 5 10 C5 15.94 5 21.88 5 28 C3.35 28 1.7 28 0 28 C0 18.76 0 9.52 0 0 Z " fill="#FAFAF9" transform="translate(207,131)"/>
<path d="M0 0 C1.98 0 3.96 0 6 0 C9.3 6.27 12.6 12.54 16 19 C16.33 12.73 16.66 6.46 17 0 C18.32 0 19.64 0 21 0 C21 9.24 21 18.48 21 28 C19.02 28 17.04 28 15 28 C11.7 21.73 8.4 15.46 5 9 C5 14.94 5 20.88 5 27 C3.35 27.33 1.7 27.66 0 28 C0 18.76 0 9.52 0 0 Z " fill="#FAFAF9" transform="translate(363,131)"/>
<path d="M0 0 C2.5703125 0.43359375 2.5703125 0.43359375 5.1953125 2.30859375 C7.78189215 6.30603502 7.78712953 9.58803452 7.8203125 14.24609375 C7.8409375 14.95830078 7.8615625 15.67050781 7.8828125 16.40429688 C7.91640602 20.94362078 7.47622147 23.8928353 4.5703125 27.43359375 C1.66741799 29.44420511 -0.45812697 29.67714983 -3.9296875 29.30859375 C-5.05890625 29.21191406 -5.05890625 29.21191406 -6.2109375 29.11328125 C-9.38784173 28.14007467 -10.526682 27.19040306 -12.4296875 24.43359375 C-13.01676732 21.27613854 -12.98796951 18.19917587 -12.9296875 14.99609375 C-12.94515625 14.14982422 -12.960625 13.30355469 -12.9765625 12.43164062 C-12.9512947 8.39826775 -12.71678049 5.95461436 -10.7421875 2.37109375 C-7.19075734 -0.60442882 -4.45853837 -0.19617569 0 0 Z M-5.4296875 4.43359375 C-7.97169045 6.9755967 -7.71685663 8.67583758 -7.75195312 12.15039062 C-7.74873047 12.88322266 -7.74550781 13.61605469 -7.7421875 14.37109375 C-7.75830078 15.10005859 -7.77441406 15.82902344 -7.79101562 16.58007812 C-7.80328729 20.75397032 -7.80328729 20.75397032 -6.07421875 24.453125 C-4.36987269 25.68890245 -4.36987269 25.68890245 -1.8046875 25.18359375 C0.5015532 24.6561373 0.5015532 24.6561373 1.5703125 23.43359375 C1.65663124 22.09091962 1.67737723 20.74385053 1.66796875 19.3984375 C1.66474609 18.58955078 1.66152344 17.78066406 1.65820312 16.94726562 C1.64982422 16.09712891 1.64144531 15.24699219 1.6328125 14.37109375 C1.62830078 13.51708984 1.62378906 12.66308594 1.61914062 11.78320312 C1.60731623 9.66663712 1.58938019 7.5501069 1.5703125 5.43359375 C-1.83289684 4.75685928 -1.83289684 4.75685928 -5.4296875 4.43359375 Z " fill="#FAFAF9" transform="translate(345.4296875,130.56640625)"/>
<path d="M0 0 C3.16620095 2.18618637 3.7896387 3.36891611 5 7 C5.0143086 9.835964 4.95258948 12.60959197 4.8125 15.4375 C4.79380859 16.20126953 4.77511719 16.96503906 4.75585938 17.75195312 C4.56929753 21.51264726 4.4404521 23.43447022 2.07421875 26.47265625 C-1.80015901 29.32554082 -4.15033176 29.09505433 -8.8046875 28.50390625 C-11.9191274 27.78902592 -13.23968425 26.64047363 -15 24 C-15.89332489 20.47466419 -16.16200851 17.1299879 -16.1875 13.5 C-16.20167969 12.5821875 -16.21585938 11.664375 -16.23046875 10.71875 C-15.91364597 6.98131512 -14.90447175 4.2563635 -12.71484375 1.21484375 C-9.09343718 -1.35066296 -4.21459219 -0.58132306 0 0 Z M-10 5 C-10.12667764 7.99018161 -10.18520838 10.94694108 -10.1875 13.9375 C-10.19974609 14.77474609 -10.21199219 15.61199219 -10.22460938 16.47460938 C-10.22654297 17.27576172 -10.22847656 18.07691406 -10.23046875 18.90234375 C-10.23457764 19.63960693 -10.23868652 20.37687012 -10.24291992 21.13647461 C-10.16054222 23.24597306 -10.16054222 23.24597306 -8 25 C-5.54290625 25.58350505 -5.54290625 25.58350505 -3 25 C-0.17362921 21.29880016 0.38815075 18.54055693 0.3125 13.9375 C0.30863281 12.91527344 0.30476563 11.89304688 0.30078125 10.83984375 C0.0062144 8.05867366 -0.57113264 6.37385534 -2 4 C-6.32320086 3.49633499 -6.32320086 3.49633499 -10 5 Z " fill="#FAFAF9" transform="translate(154,131)"/>
<path d="M0 0 C2.6875 1.6875 2.6875 1.6875 4 4 C3.75 6.75 3.75 6.75 3 9 C0.525 8.505 0.525 8.505 -2 8 C-2.33 7.01 -2.66 6.02 -3 5 C-4.65 5 -6.3 5 -8 5 C-8.33 6.65 -8.66 8.3 -9 10 C-8.13375 10.2475 -7.2675 10.495 -6.375 10.75 C-2.32030457 12.25173905 1.9892331 13.9784662 4 18 C4.37411763 21.4418822 4.41025325 23.34002738 2.5625 26.3125 C-1.12707011 28.7422169 -4.61339833 29.22675838 -9 29 C-11.49058663 27.85848113 -13.0896056 26.9103944 -15 25 C-15.04080783 23.00041636 -15.04254356 20.99954746 -15 19 C-12.625 19.25 -12.625 19.25 -10 20 C-8.6875 22.0625 -8.6875 22.0625 -8 24 C-6.02 24 -4.04 24 -2 24 C-1.86521065 21.12133744 -1.86521065 21.12133744 -3 18 C-4.91886473 16.74856648 -6.88690675 15.9049805 -8.984375 14.98828125 C-11.96315677 13.52775453 -13.41683668 11.89099389 -15 9 C-15 5.875 -15 5.875 -14 3 C-9.81219599 -0.95410959 -5.47913387 -0.81778117 0 0 Z " fill="#FAFAF9" transform="translate(304,131)"/>
<path d="M0 0 C2.31985359 2.35950921 2.96074133 3.42420617 3.1875 6.75 C3.0946875 7.86375 3.0946875 7.86375 3 9 C0.525 8.505 0.525 8.505 -2 8 C-2.33 7.01 -2.66 6.02 -3 5 C-4.98 5 -6.96 5 -9 5 C-9 6.32 -9 7.64 -9 9 C-6.89052941 10.66908736 -6.89052941 10.66908736 -4.1875 12 C-0.57344483 13.91915195 1.89346204 15.42865088 4 19 C4.0625 22 4.0625 22 3 25 C-0.20521328 27.89995487 -2.26566636 28.90981868 -6.5625 29.4375 C-10.31215088 28.96027171 -12.20184052 28.55126305 -15 26 C-15.8125 22.3125 -15.8125 22.3125 -16 19 C-14.35 19 -12.7 19 -11 19 C-10.67 20.65 -10.34 22.3 -10 24 C-7.36 24 -4.72 24 -2 24 C-2.1199192 21.59981797 -2.1199192 21.59981797 -3 19 C-5.20737722 17.17369652 -5.20737722 17.17369652 -7.9375 15.8125 C-12.88607595 13.11392405 -12.88607595 13.11392405 -15 11 C-15.41275616 7.28519457 -15.47674327 4.88538036 -13.6875 1.5625 C-9.46387776 -0.89309433 -4.75514188 -0.98732717 0 0 Z " fill="#FAFAF9" transform="translate(277,131)"/>
<path d="M0 0 C2.3125 1.25 2.3125 1.25 3.3125 2.25 C3.77944021 6.0046064 3.92263056 9.78569513 4.125 13.5625 C4.20169922 14.62146484 4.27839844 15.68042969 4.35742188 16.77148438 C4.41091797 17.79177734 4.46441406 18.81207031 4.51953125 19.86328125 C4.5760083 20.79954346 4.63248535 21.73580566 4.69067383 22.70043945 C4.1921617 26.061293 2.96664853 27.2073509 0.3125 29.25 C-3.07904295 29.08849795 -4.27046757 28.66703243 -6.6875 26.25 C-7.17031258 22.29053109 -7.05788975 18.29805689 -7.0625 14.3125 C-7.08699219 13.20197266 -7.11148438 12.09144531 -7.13671875 10.94726562 C-7.14058594 9.88314453 -7.14445312 8.81902344 -7.1484375 7.72265625 C-7.15665527 6.74562744 -7.16487305 5.76859863 -7.17333984 4.76196289 C-6.6875 2.25 -6.6875 2.25 -4.82666016 0.36108398 C-2.6875 -0.75 -2.6875 -0.75 0 0 Z " fill="#FAFAF9" transform="translate(53.6875,71.75)"/>
<path d="M0 0 C2.578125 0.4921875 2.578125 0.4921875 5.328125 2.7421875 C6.578125 5.4921875 6.578125 5.4921875 6.328125 7.8046875 C6.080625 8.3615625 5.833125 8.9184375 5.578125 9.4921875 C4.258125 9.4921875 2.938125 9.4921875 1.578125 9.4921875 C0.918125 8.1721875 0.258125 6.8521875 -0.421875 5.4921875 C-2.08799405 5.4494665 -3.75570385 5.45154918 -5.421875 5.4921875 C-6.61529252 6.46551011 -6.61529252 6.46551011 -6.53540039 8.25805664 C-6.53016357 9.00692139 -6.52492676 9.75578613 -6.51953125 10.52734375 C-6.51630859 11.33623047 -6.51308594 12.14511719 -6.50976562 12.97851562 C-6.50138672 13.82865234 -6.49300781 14.67878906 -6.484375 15.5546875 C-6.47986328 16.40869141 -6.47535156 17.26269531 -6.47070312 18.14257812 C-6.45887873 20.25914413 -6.44094269 22.37567435 -6.421875 24.4921875 C-4.441875 24.4921875 -2.461875 24.4921875 -0.421875 24.4921875 C0.238125 22.8421875 0.898125 21.1921875 1.578125 19.4921875 C3.228125 19.4921875 4.878125 19.4921875 6.578125 19.4921875 C6.218125 25.8521875 6.218125 25.8521875 3.578125 28.4921875 C-0.51246565 29.85571772 -4.34063523 30.01078834 -8.421875 28.4921875 C-11.60503609 25.65779014 -12.66692382 23.39323854 -12.953125 19.2421875 C-12.96368055 17.65885509 -12.95271397 16.07525475 -12.921875 14.4921875 C-12.93734375 13.698125 -12.9528125 12.9040625 -12.96875 12.0859375 C-12.94276244 8.18780292 -12.66507817 5.92792651 -10.734375 2.46875 C-7.1963861 -0.5552743 -4.48220427 -0.20373656 0 0 Z " fill="#FAFAF9" transform="translate(123.421875,130.5078125)"/>
<path d="M0 0 C2.5625 0.375 2.5625 0.375 4.1953125 1.8046875 C6.28728875 5.73760285 6.03638652 9.48877069 6 13.875 C6.01998047 14.72964844 6.03996094 15.58429688 6.06054688 16.46484375 C6.055695 22.68494144 6.055695 22.68494144 3.703125 25.9765625 C1.5625 27.375 1.5625 27.375 -1.125 27.25 C-3.4375 26.375 -3.4375 26.375 -4.4375 24.375 C-4.67764407 20.71350926 -4.62268986 17.0434958 -4.625 13.375 C-4.63724609 12.35148437 -4.64949219 11.32796875 -4.66210938 10.2734375 C-4.66500977 8.80777344 -4.66500977 8.80777344 -4.66796875 7.3125 C-4.67207764 6.41402344 -4.67618652 5.51554687 -4.68041992 4.58984375 C-4.31920491 1.29643407 -3.21461648 0.49455638 0 0 Z " fill="#FAFAF9" transform="translate(72.4375,77.625)"/>
<path d="M0 0 C2.4375 0.875 2.4375 0.875 4.4375 3.875 C4.86303704 7.00657434 4.76179029 10.15505966 4.75 13.3125 C4.76611328 14.17166016 4.78222656 15.03082031 4.79882812 15.91601562 C4.80374115 22.24890652 4.80374115 22.24890652 2.91796875 25.47265625 C2.42941406 25.93542969 1.94085938 26.39820312 1.4375 26.875 C-3.3125 26.125 -3.3125 26.125 -5.5625 23.875 C-6.01341675 20.41556667 -5.88656422 16.92295566 -5.875 13.4375 C-5.89111328 12.47005859 -5.90722656 11.50261719 -5.92382812 10.50585938 C-5.92447266 9.57708984 -5.92511719 8.64832031 -5.92578125 7.69140625 C-5.92876221 6.84006104 -5.93174316 5.98871582 -5.93481445 5.11157227 C-5.31356458 1.37959189 -3.79297405 -0.18502312 0 0 Z " fill="#FAFAF9" transform="translate(32.5625,78.125)"/>
<path d="M0 0 C0.99 0.33 1.98 0.66 3 1 C3 8.26 3 15.52 3 23 C1.35 23 -0.3 23 -2 23 C-4.31 18.38 -6.62 13.76 -9 9 C-9.33 13.62 -9.66 18.24 -10 23 C-11.32 23 -12.64 23 -14 23 C-14 15.74 -14 8.48 -14 1 C-12.02 1 -10.04 1 -8 1 C-5.69 5.62 -3.38 10.24 -1 15 C-1.020625 12.710625 -1.04125 10.42125 -1.0625 8.0625 C-1.08370868 5.70833668 -1.07271741 3.35313555 -1 1 C-0.67 0.67 -0.34 0.34 0 0 Z " fill="#FAFAF9" transform="translate(276,34)"/>
<path d="M0 0 C2.65234375 1.56640625 2.65234375 1.56640625 5 4 C5.62890625 7.53125 5.62890625 7.53125 5.5625 11.5 C5.56378906 12.8096875 5.56507813 14.119375 5.56640625 15.46875 C5 19 5 19 3.21484375 21.43359375 C0.8902641 23.07760863 -0.19062162 23.56798707 -3 23.5625 C-3.66 23.58441406 -4.32 23.60632813 -5 23.62890625 C-8.19722018 22.62353037 -9.26202312 20.79521446 -11 18 C-12.05175927 12.13916214 -12.12606794 6.75534119 -8.875 1.6875 C-5.46356032 -0.31486677 -3.88600392 -0.72862574 0 0 Z M-6 5 C-6.07271741 7.35313555 -6.08370868 9.70833668 -6.0625 12.0625 C-6.05347656 13.35285156 -6.04445312 14.64320312 -6.03515625 15.97265625 C-6.02355469 16.97167969 -6.01195312 17.97070312 -6 19 C-4.15274948 19.69159401 -4.15274948 19.69159401 -2 20 C-1.01 19.34 -0.02 18.68 1 18 C1.40341158 15.17344418 1.40341158 15.17344418 1.25 12 C1.23453125 10.9275 1.2190625 9.855 1.203125 8.75 C1.17807872 6.03939707 1.17807872 6.03939707 0 4 C-3.28930404 3.63314303 -3.28930404 3.63314303 -6 5 Z " fill="#FAFAF9" transform="translate(142,34)"/>
<path d="M0 0 C2.375 1.5 2.375 1.5 4 3 C3.67 4.65 3.34 6.3 3 8 C1.68 7.34 0.36 6.68 -1 6 C-1 5.34 -1 4.68 -1 4 C-2.65 4 -4.3 4 -6 4 C-5.63507846 6.67419068 -5.334081 7.7328792 -3.1875 9.44921875 C-2.465625 9.85785156 -1.74375 10.26648437 -1 10.6875 C2.98734177 12.98734177 2.98734177 12.98734177 4 14 C4.46676514 19.36779911 4.46676514 19.36779911 2.765625 21.671875 C0.53977898 23.34618396 -0.73749252 23.40262507 -3.5 23.375 C-4.2734375 23.38273437 -5.046875 23.39046875 -5.84375 23.3984375 C-8.49133388 22.90921004 -9.3603862 22.09647213 -11 20 C-11.6875 17.8125 -11.6875 17.8125 -12 16 C-10.25 15.25 -10.25 15.25 -8 15 C-5.75 16.9375 -5.75 16.9375 -4 19 C-3.01 18.67 -2.02 18.34 -1 18 C-2.18932304 14.43203087 -2.80629925 14.34708379 -6 12.6875 C-9.87360838 10.41867223 -9.87360838 10.41867223 -11 6.6875 C-11 5.800625 -11 4.91375 -11 4 C-7.3055927 0.52291078 -5.10370591 -0.76012641 0 0 Z " fill="#FAFAF9" transform="translate(208,34)"/>
<path d="M0 0 C1.98 0 3.96 0 6 0 C7.17780436 2.91229133 8.34025075 5.83047678 9.5 8.75 C9.83386719 9.575 10.16773438 10.4 10.51171875 11.25 C10.82753906 12.04921875 11.14335937 12.8484375 11.46875 13.671875 C11.90864258 14.77160645 11.90864258 14.77160645 12.35742188 15.89355469 C13 18 13 18 13 22 C11.35 21.67 9.7 21.34 8 21 C7.67 20.01 7.34 19.02 7 18 C4.36 18 1.72 18 -1 18 C-1.66 19.32 -2.32 20.64 -3 22 C-4.32 21.67 -5.64 21.34 -7 21 C-4.66666667 14 -2.33333333 7 0 0 Z M2 5 C1.34 7.64 0.68 10.28 0 13 C1.98 13 3.96 13 6 13 C5.34 10.36 4.68 7.72 4 5 C3.34 5 2.68 5 2 5 Z " fill="#FAFAF9" transform="translate(294,35)"/>
<path d="M0 0 C1.98 0 3.96 0 6 0 C7.17461555 3.10121711 8.33830456 6.20642241 9.5 9.3125 C9.83386719 10.19357422 10.16773438 11.07464844 10.51171875 11.98242188 C10.82753906 12.82998047 11.14335937 13.67753906 11.46875 14.55078125 C11.90864258 15.72120972 11.90864258 15.72120972 12.35742188 16.9152832 C13 19 13 19 13 22 C11.35 21.67 9.7 21.34 8 21 C7.67 20.01 7.34 19.02 7 18 C4.36 18 1.72 18 -1 18 C-1.66 19.32 -2.32 20.64 -3 22 C-4.32 21.67 -5.64 21.34 -7 21 C-4.96192707 13.8821847 -2.59655258 6.93292719 0 0 Z M2 5 C1.34 7.97 0.68 10.94 0 14 C1.98 13.67 3.96 13.34 6 13 C5.34 10.36 4.68 7.72 4 5 C3.34 5 2.68 5 2 5 Z " fill="#FAFAF9" transform="translate(241,35)"/>
<path d="M0 0 C4.875 1.875 4.875 1.875 6 3 C6.15387638 5.95028374 6.23171021 8.86098588 6.25 11.8125 C6.270625 12.63298828 6.29125 13.45347656 6.3125 14.29882812 C6.35209869 20.4019767 6.35209869 20.4019767 4.484375 23.57421875 C3.74960938 24.27998047 3.74960938 24.27998047 3 25 C0.5625 24.625 0.5625 24.625 -2 24 C-3.76279117 20.47441767 -3.22713881 16.44604409 -3.25 12.5625 C-3.270625 11.69044922 -3.29125 10.81839844 -3.3125 9.91992188 C-3.31765625 9.08138672 -3.3228125 8.24285156 -3.328125 7.37890625 C-3.3374707 6.6113501 -3.34681641 5.84379395 -3.35644531 5.05297852 C-2.91341409 2.50130072 -1.96034922 1.62489012 0 0 Z " fill="#FAFAF9" transform="translate(89,86)"/>
<path d="M0 0 C0.99 0.33 1.98 0.66 3 1 C3.33 6.94 3.66 12.88 4 19 C5.98 19 7.96 19 10 19 C10.495 10.09 10.495 10.09 11 1 C12.32 1 13.64 1 15 1 C15.10806144 3.91765891 15.18732877 6.83131125 15.25 9.75 C15.30027344 10.9875 15.30027344 10.9875 15.3515625 12.25 C15.44996469 18.35093589 15.44996469 18.35093589 13.234375 21.546875 C10.89625679 23.06746936 9.75652713 23.54307074 7 23.5 C6.34 23.5103125 5.68 23.520625 5 23.53125 C1.89712173 22.70704796 0.84052155 21.64498792 -1 19 C-1.50879988 15.92239954 -1.42243464 12.92242894 -1.3125 9.8125 C-1.30283203 8.98041016 -1.29316406 8.14832031 -1.28320312 7.29101562 C-1.16843594 1.16843594 -1.16843594 1.16843594 0 0 Z " fill="#FAFAF9" transform="translate(158,34)"/>
<path d="M0 0 C3.125 0.375 3.125 0.375 6 1 C7.27887477 4.95007287 7.22041893 8.95442874 7.25 13.0625 C7.270625 13.78244141 7.29125 14.50238281 7.3125 15.24414062 C7.35136995 20.47700716 7.35136995 20.47700716 5.6484375 23.01171875 C4 24 4 24 1.375 23.75 C-1 23 -1 23 -2 22 C-2.25035974 18.69483066 -2.18521952 15.37603959 -2.1875 12.0625 C-2.19974609 11.12986328 -2.21199219 10.19722656 -2.22460938 9.23632812 C-2.22654297 8.34494141 -2.22847656 7.45355469 -2.23046875 6.53515625 C-2.23663208 5.30357788 -2.23663208 5.30357788 -2.24291992 4.04711914 C-2 2 -2 2 0 0 Z " fill="#FAFAF9" transform="translate(12,87)"/>
<path d="M0 0 C1.65 0.33 3.3 0.66 5 1 C5 9.91 5 18.82 5 28 C3.02 28 1.04 28 -1 28 C-1.02886338 23.52084672 -1.04675187 19.04171709 -1.0625 14.5625 C-1.07087891 13.28310547 -1.07925781 12.00371094 -1.08789062 10.68554688 C-1.09111328 9.47060547 -1.09433594 8.25566406 -1.09765625 7.00390625 C-1.10289307 5.87799072 -1.10812988 4.7520752 -1.11352539 3.59204102 C-1 1 -1 1 0 0 Z " fill="#FAFAF9" transform="translate(318,131)"/>
<path d="M0 0 C1.65 0 3.3 0 5 0 C5 9.24 5 18.48 5 28 C3.35 28 1.7 28 0 28 C-1.03254884 24.90235347 -1.12908904 22.73851213 -1.1328125 19.4921875 C-1.13410156 18.42355469 -1.13539063 17.35492188 -1.13671875 16.25390625 C-1.13285156 15.13886719 -1.12898437 14.02382812 -1.125 12.875 C-1.12886719 11.75222656 -1.13273438 10.62945312 -1.13671875 9.47265625 C-1.13542969 8.40660156 -1.13414062 7.34054688 -1.1328125 6.2421875 C-1.13168457 5.2610498 -1.13055664 4.27991211 -1.12939453 3.26904297 C-1 1 -1 1 0 0 Z " fill="#FAFAF9" transform="translate(247,131)"/>
<path d="M0 0 C1.9375 1.1875 1.9375 1.1875 3 3 C2.875 6.0625 2.875 6.0625 2 9 C-1.46923881 11.31282587 -2.92205575 11.42478586 -7 11 C-8.875 9.875 -8.875 9.875 -10 8 C-10.4375 5 -10.4375 5 -10 2 C-6.95385927 -1.63193703 -4.33992064 -1.29274232 0 0 Z " fill="#FAFAF9" transform="translate(56,56)"/>
<path d="M0 0 C0.99 0.33 1.98 0.66 3 1 C3 6.94 3 12.88 3 19 C5.97 19 8.94 19 12 19 C11.67 20.32 11.34 21.64 11 23 C9.18757948 23.02687279 7.37504767 23.04633715 5.5625 23.0625 C4.55316406 23.07410156 3.54382813 23.08570312 2.50390625 23.09765625 C0 23 0 23 -1 22 C-1.09899523 20.45044441 -1.13079524 18.89646327 -1.1328125 17.34375 C-1.13410156 16.40402344 -1.13539062 15.46429688 -1.13671875 14.49609375 C-1.13285156 13.50738281 -1.12898438 12.51867187 -1.125 11.5 C-1.12886719 10.51128906 -1.13273437 9.52257812 -1.13671875 8.50390625 C-1.13542969 7.56417969 -1.13414063 6.62445313 -1.1328125 5.65625 C-1.13168457 4.78806641 -1.13055664 3.91988281 -1.12939453 3.02539062 C-1 1 -1 1 0 0 Z " fill="#FAFAF9" transform="translate(112,34)"/>
<path d="M0 0 C0.99 0.33 1.98 0.66 3 1 C3 7.93 3 14.86 3 22 C1.35 22.33 -0.3 22.66 -2 23 C-2 15.74 -2 8.48 -2 1 C-1.34 0.67 -0.68 0.34 0 0 Z " fill="#FAFAF9" transform="translate(185,34)"/>
<path d="M0 0 C3.625 0.3125 3.625 0.3125 5.6875 2 C6.625 4.3125 6.625 4.3125 5.875 7 C4.625 9.3125 4.625 9.3125 3.625 10.3125 C-2.6633549 10.89475508 -2.6633549 10.89475508 -5.4375 8.625 C-6.375 6.3125 -6.375 6.3125 -5.625 3.625 C-3.85866702 0.35728398 -3.85866702 0.35728398 0 0 Z " fill="#FAFAF9" transform="translate(72.375,63.6875)"/>
<path d="M0 0 C1.9375 1.1875 1.9375 1.1875 3 3 C2.75546876 6.34192692 2.39456443 7.60543557 0 10 C-3.1304173 10.33302312 -5.17898298 10.47671956 -7.9375 8.875 C-9 7 -9 7 -8.8125 3.875 C-8.544375 2.92625 -8.27625 1.9775 -8 1 C-5.20129973 -0.39935013 -3.09501208 -0.25265405 0 0 Z " fill="#FAFAF9" transform="translate(35,64)"/>
<path d="M0 0 C0.99 0.33 1.98 0.66 3 1 C3 8.26 3 15.52 3 23 C1.35 22.67 -0.3 22.34 -2 22 C-2.05790353 18.70840684 -2.09356261 15.41694397 -2.125 12.125 C-2.14175781 11.18785156 -2.15851563 10.25070313 -2.17578125 9.28515625 C-2.18544922 7.94130859 -2.18544922 7.94130859 -2.1953125 6.5703125 C-2.20578613 5.74289551 -2.21625977 4.91547852 -2.22705078 4.06298828 C-2 2 -2 2 0 0 Z " fill="#FAFAF9" transform="translate(223,34)"/>
<path d="M0 0 C2.4375 0.8125 2.4375 0.8125 4.4375 3.8125 C4.0625 6.5 4.0625 6.5 3.4375 8.8125 C-2.97444487 10.14328101 -2.97444487 10.14328101 -5.5625 8.6875 C-6.5625 6.8125 -6.5625 6.8125 -6.4375 4.25 C-5.19220451 0.78096256 -3.69062634 -0.27004583 0 0 Z " fill="#FAFAF9" transform="translate(91.5625,73.1875)"/>
<path d="M0 0 C2.875 0.6875 2.875 0.6875 3.875 1.6875 C4.1875 4.0625 4.1875 4.0625 3.875 6.6875 C2.1875 8.625 2.1875 8.625 -0.125 9.6875 C-2.51763407 9.01978817 -4.34597385 8.46652615 -6.125 6.6875 C-6.375 4.25 -6.375 4.25 -6.125 1.6875 C-3.125 -0.3125 -3.125 -0.3125 0 0 Z " fill="#FAFAF9" transform="translate(15.125,74.3125)"/>
<path d="M0 0 C0.66 0 1.32 0 2 0 C2 1.65 2 3.3 2 5 C1.01 5.495 1.01 5.495 0 6 C0 4.02 0 2.04 0 0 Z " fill="#FAFAF9" transform="translate(4,123)"/>
<path d="M0 0 C0.99 0.33 1.98 0.66 3 1 C3 2.32 3 3.64 3 5 C2.34 5 1.68 5 1 5 C0.67 3.35 0.34 1.7 0 0 Z " fill="#FAFAF9" transform="translate(33,0)"/>
<path d="M0 0 C0.99 0 1.98 0 3 0 C3 0.66 3 1.32 3 2 C2.01 2.33 1.02 2.66 0 3 C0 2.01 0 1.02 0 0 Z " fill="#FAFAF9" transform="translate(4,25)"/>
<path d="M0 0 C1.32 0 2.64 0 4 0 C4 0.66 4 1.32 4 2 C2.68 1.34 1.36 0.68 0 0 Z " fill="#FAFAF9" transform="translate(55,159)"/>
<path d="M0 0 C0.66 0 1.32 0 2 0 C1.67 0.99 1.34 1.98 1 3 C0.67 2.01 0.34 1.02 0 0 Z " fill="#FAFAF9" transform="translate(0,82)"/>
<path d="M0 0 C1 4 1 4 1 4 Z " fill="#FAFAF9" transform="translate(2,107)"/>
<path d="M0 0 C0.33 0.66 0.66 1.32 1 2 C0.34 1.67 -0.32 1.34 -1 1 C-0.67 0.67 -0.34 0.34 0 0 Z " fill="#FAFAF9" transform="translate(2,66)"/>
<path d="" fill="#FAFAF9" transform="translate(0,0)"/>
<path d="" fill="#FAFAF9" transform="translate(0,0)"/>
<path d="M0 0 C2 1 2 1 2 1 Z " fill="#FAFAF9" transform="translate(0,74)"/>
<path d="" fill="#FAFAF9" transform="translate(0,0)"/>
<path d="M0 0 C2 1 2 1 2 1 Z " fill="#FAFAF9" transform="translate(37,3)"/>
<path d="" fill="#FAFAF9" transform="translate(0,0)"/>
<path d="" fill="#FAFAF9" transform="translate(0,0)"/>
<path d="" fill="#FAFAF9" transform="translate(0,0)"/>
</svg>
