<?xml version="1.0" encoding="UTF-8"?>
<svg version="1.1" xmlns="http://www.w3.org/2000/svg" width="512" height="159">
<path d="M0 0 C30.36 0 60.72 0 92 0 C96.31403746 12.94211237 93.48530795 28.94421478 88 41 C87.05852121 43.42802424 86.14183454 45.86580525 85.25 48.3125 C84.84265625 49.38113281 84.4353125 50.44976562 84.015625 51.55078125 C82.63988066 55.85216592 82.63988066 55.85216592 82 64 C98.17 64 114.34 64 131 64 C131.76653657 68.59921945 132.13501827 72.45910681 132.125 77.0625 C132.12757813 78.24972656 132.13015625 79.43695313 132.1328125 80.66015625 C132.01646683 83.58590774 131.63562795 86.15434257 131 89 C130.5801848 94.56255135 131.35244271 99.10368066 134 104 C136.04946399 105.85315257 136.04946399 105.85315257 138 107 C138 107.66 138 108.32 138 109 C115.32149306 113.15710766 95.268491 109.37312591 73.5234375 102.62109375 C49.97738111 95.44711382 26.39311701 97.51415598 3 104 C3 103.34 3 102.68 3 102 C3.44214844 101.566875 3.88429687 101.13375 4.33984375 100.6875 C11.22261503 93.69136542 12.90573351 81.96897507 13.3125 72.5625 C13.04327208 65.26770544 11.76052699 58.39734128 7.57421875 52.30859375 C-4.33731641 33.99481904 0 25.76058447 0 0 Z " fill="#FAFAF9" transform="translate(0,0)"/>
<path d="M0 0 C1.01562012 0.34260864 1.01562012 0.34260864 2.05175781 0.69213867 C5.30190406 1.91620333 6.77380344 2.63899611 8.4375 5.75390625 C8.623125 6.51574219 8.80875 7.27757813 9 8.0625 C8.015625 9.546875 8.015625 9.546875 6 11.0625 C3.16685383 11.30937166 0.57441462 11.38974895 -2.25 11.3125 C-2.98863281 11.30734375 -3.72726563 11.3021875 -4.48828125 11.296875 C-9.07324837 11.23218411 -13.45890684 10.72952309 -18 10.0625 C-19.97828849 9.99997508 -21.95837451 9.97556635 -23.9375 10 C-24.89527344 10.00902344 -25.85304687 10.01804687 -26.83984375 10.02734375 C-27.55269531 10.03894531 -28.26554687 10.05054687 -29 10.0625 C-21.264211 13.20178143 -14.3632491 13.56758687 -6.0625 13.5 C-4.13567383 13.48972778 -4.13567383 13.48972778 -2.16992188 13.47924805 C11.98415135 13.24174569 24.34103576 10.63998514 37.30078125 5.015625 C40.10564086 4.025197 42.05290506 3.71757323 45 4.0625 C45.99 5.0525 45.99 5.0525 47 6.0625 C46.71355789 9.91701453 45.76195109 11.85672881 42.875 14.375 C25.50444532 28.54247367 3.02539431 34.47612905 -19 33.0625 C-33.98340134 31.50209023 -47.22186265 23.37258745 -59.88671875 15.7421875 C-68.34649602 10.66825039 -76.53742259 7.61862481 -86 5.0625 C-86 4.4025 -86 3.7425 -86 3.0625 C-56.93567473 -9.64226494 -29.96841908 -10.52972004 0 0 Z " fill="#FAFAF9" transform="translate(88,113.9375)"/>
<path d="M0 0 C52.80941704 0 52.80941704 0 63 9 C69.92292022 16.59288024 71.85702851 23.82302916 72 34 C71.49646534 41.06067493 68.66622123 46.71692223 64 52 C52.70850137 61.58003303 40.76226896 62.16242987 26.5625 62.0625 C20.3440625 62.0315625 20.3440625 62.0315625 14 62 C14 70.58 14 79.16 14 88 C9.38 88 4.76 88 0 88 C0 58.96 0 29.92 0 0 Z M14 12 C14 24.54 14 37.08 14 50 C17.898125 50.061875 21.79625 50.12375 25.8125 50.1875 C27.01753174 50.21481201 28.22256348 50.24212402 29.46411133 50.27026367 C37.76658661 50.33324843 46.22474674 49.91009105 53 44.6875 C57.58451028 38.52706431 59.04572235 33.61379871 58 26 C56.6403438 21.51390269 54.79999857 18.69090786 51.25 15.625 C43.14969811 11.57484906 35.37940549 11.74913788 26.5 11.875 C20.3125 11.936875 20.3125 11.936875 14 12 Z " fill="#FAFAF9" transform="translate(244,16)"/>
<path d="M0 0 C4.29 0 8.58 0 13 0 C18.43738929 10.70572667 23.60690104 21.50115003 28.5625 32.4375 C29.24660355 33.9422399 29.93093446 35.44687646 30.61547852 36.95141602 C32.029192 40.05944285 33.4412505 43.16821519 34.85253906 46.27734375 C36.64847085 50.23089229 38.45380665 54.18006024 40.26301575 58.12754822 C41.65690535 61.16912774 43.04810108 64.21193522 44.43893433 67.25491333 C45.10088579 68.70175502 45.76389881 70.14811154 46.42800903 71.59396362 C47.34973301 73.6015638 48.26716124 75.61107379 49.18359375 77.62109375 C49.96561157 79.32930298 49.96561157 79.32930298 50.76342773 81.07202148 C52 84 52 84 53 88 C48.38 88 43.76 88 39 88 C30 70.2 30 70.2 30 66 C14.82 66.33 -0.36 66.66 -16 67 C-18.97 73.93 -21.94 80.86 -25 88 C-29.62 88 -34.24 88 -39 88 C-38.05972582 83.29862908 -36.55365596 79.52332363 -34.52734375 75.24609375 C-34.17234299 74.48454987 -33.81734222 73.72300598 -33.45158386 72.93838501 C-32.68472341 71.29399753 -31.91556226 69.65068142 -31.14434814 68.0083313 C-29.09066386 63.63356728 -27.05466257 59.25060656 -25.01953125 54.8671875 C-24.60237854 53.9692598 -24.18522583 53.07133209 -23.75543213 52.14619446 C-18.74474397 41.33329095 -13.92902733 30.4346135 -9.12866211 19.52709961 C-6.22681596 12.94265757 -3.31575746 6.3899145 0 0 Z M6 15 C3.57661933 20.53487709 1.15560448 26.07078038 -1.26318359 31.60766602 C-2.08707091 33.49271891 -2.91161424 35.37748522 -3.73681641 37.26196289 C-4.92000464 39.96426254 -6.10086159 42.66757016 -7.28125 45.37109375 C-7.65310425 46.21900986 -8.0249585 47.06692596 -8.40808105 47.9405365 C-8.74843384 48.72127029 -9.08878662 49.50200409 -9.43945312 50.30639648 C-9.7414563 50.99700668 -10.04345947 51.68761688 -10.35461426 52.39915466 C-11.06231839 53.86690345 -11.06231839 53.86690345 -11 55 C0.55 55 12.1 55 24 55 C22.11914877 49.35744631 20.33151483 44.21350525 17.93359375 38.84765625 C17.65403336 38.22144882 17.37447296 37.59524139 17.08644104 36.95005798 C16.5028632 35.64601141 15.91715443 34.34291643 15.3293457 33.04077148 C14.42965104 31.04508961 13.53967431 29.04526123 12.65039062 27.04492188 C12.07869726 25.77057645 11.5064519 24.49647849 10.93359375 23.22265625 C10.41853271 22.07547119 9.90347168 20.92828613 9.37280273 19.74633789 C8.15106896 16.94018298 8.15106896 16.94018298 6 15 Z " fill="#FAFAF9" transform="translate(454,16)"/>
<path d="M0 0 C0.804375 0.721875 1.60875 1.44375 2.4375 2.1875 C0.8779735 6.01542868 -1.39881836 8.55109864 -4.5625 11.1875 C-7.8221474 10.8331905 -8.88147204 9.93498047 -11.5625 7.8125 C-18.87595862 2.44825743 -27.88228551 1.53667953 -36.67578125 2.6171875 C-44.43296524 4.14972994 -51.32167267 7.11987549 -56.5625 13.1875 C-62.73251074 22.4024511 -63.56210592 31.31712606 -62.5625 42.1875 C-60.83857914 49.82200668 -56.87909796 56.07225848 -50.52734375 60.65625 C-41.42140967 66.18083788 -31.94974357 67.12458056 -21.5625 65.1875 C-15.48765406 63.2820359 -10.5825988 60.03268206 -5.5625 56.1875 C-2.9225 58.8275 -0.2825 61.4675 2.4375 64.1875 C-1.23458241 71.53166483 -8.70344164 74.51652681 -16.10546875 77.42578125 C-29.13004688 81.46360754 -43.20172952 79.59501373 -55.25 73.5625 C-66.38953006 67.01361201 -73.11929719 57.60974628 -76.9375 45.3125 C-79.414188 32.85166348 -77.55231734 20.09043444 -70.75 9.3125 C-69.71721034 7.91504633 -68.65546254 6.53841234 -67.5625 5.1875 C-67.08425781 4.57390625 -66.60601562 3.9603125 -66.11328125 3.328125 C-49.58605821 -15.4887637 -18.50301343 -15.22509031 0 0 Z " fill="#FAFAF9" transform="translate(405.5625,25.8125)"/>
<path d="M0 0 C4.62 0 9.24 0 14 0 C14 25.08 14 50.16 14 76 C29.51 76 45.02 76 61 76 C61 79.96 61 83.92 61 88 C40.87 88 20.74 88 0 88 C0 58.96 0 29.92 0 0 Z " fill="#FAFAF9" transform="translate(170,16)"/>
<path d="M0 0 C0 0.66 0 1.32 0 2 C-2.31 2 -4.62 2 -7 2 C-7 3.32 -7 4.64 -7 6 C-5.576875 5.9690625 -5.576875 5.9690625 -4.125 5.9375 C-1 6 -1 6 1 7 C1.309375 6.05125 1.61875 5.1025 1.9375 4.125 C3 1 3 1 4 -1 C5.32 -1 6.64 -1 8 -1 C8.67408308 0.26691507 9.33900497 1.53870749 10 2.8125 C10.556875 3.87404297 10.556875 3.87404297 11.125 4.95703125 C12 7 12 7 12 10 C10.68 9.67 9.36 9.34 8 9 C8 8.34 8 7.68 8 7 C6.68 7 5.36 7 4 7 C4 7.66 4 8.32 4 9 C-0.55012351 10.25520649 -4.39635946 10.07744779 -9 9 C-11 6 -11 6 -10.875 2.9375 C-10 0 -10 0 -8.3125 -1.5 C-5.08978889 -2.1968024 -2.99847042 -1.22664699 0 0 Z M5 3 C5 3.66 5 4.32 5 5 C5.66 4.67 6.32 4.34 7 4 C6.34 3.67 5.68 3.34 5 3 Z " fill="#FAFAF9" transform="translate(357,124)"/>
<path d="M0 0 C1.32 0 2.64 0 4 0 C5.75 2 5.75 2 7 4 C7.66 2.68 8.32 1.36 9 0 C10.32 0 11.64 0 13 0 C13 3.3 13 6.6 13 10 C11.68 10.33 10.36 10.66 9 11 C8.67 10.34 8.34 9.68 8 9 C7.01 9 6.02 9 5 9 C4.67 9.66 4.34 10.32 4 11 C2.68 10.67 1.36 10.34 0 10 C0 6.7 0 3.4 0 0 Z " fill="#FAFAF9" transform="translate(294,123)"/>
<path d="M0 0 C2.10388569 -0.05402274 4.20816714 -0.09280256 6.3125 -0.125 C8.07013672 -0.15980469 8.07013672 -0.15980469 9.86328125 -0.1953125 C13 0 13 0 16 2 C16.40843923 4.71203652 16.13336867 7.2437142 16 10 C15.01 10 14.02 10 13 10 C13 7.69 13 5.38 13 3 C12.01 3.66 11.02 4.32 10 5 C9.74969023 7.58380177 9.74969023 7.58380177 10 10 C9.01 10 8.02 10 7 10 C7 7.69 7 5.38 7 3 C6.01 3.33 5.02 3.66 4 4 C3.67 5.98 3.34 7.96 3 10 C2.01 10 1.02 10 0 10 C0 6.7 0 3.4 0 0 Z " fill="#FAFAF9" transform="translate(295,146)"/>
<path d="M0 0 C2.475 0.495 2.475 0.495 5 1 C5.33 1.66 5.66 2.32 6 3 C6.33 2.01 6.66 1.02 7 0 C8.32 0 9.64 0 11 0 C11 3.3 11 6.6 11 10 C9.68 10 8.36 10 7 10 C6.34 9.34 5.68 8.68 5 8 C4.67 8.99 4.34 9.98 4 11 C2.68 11 1.36 11 0 11 C0 7.37 0 3.74 0 0 Z " fill="#FAFAF9" transform="translate(497,123)"/>
<path d="M0 0 C2.10353495 -0.0810206 4.20795952 -0.13919907 6.3125 -0.1875 C7.48425781 -0.22230469 8.65601563 -0.25710937 9.86328125 -0.29296875 C13 0 13 0 14.90625 1.28125 C16.67636968 4.06286664 16.18099954 6.80234145 16 10 C15.01 10 14.02 10 13 10 C13 7.69 13 5.38 13 3 C12.01 3.33 11.02 3.66 10 4 C9.67 5.98 9.34 7.96 9 10 C8.34 10 7.68 10 7 10 C6.67 8.02 6.34 6.04 6 4 C5.01 3.67 4.02 3.34 3 3 C3 5.31 3 7.62 3 10 C2.01 10 1.02 10 0 10 C0 6.7 0 3.4 0 0 Z " fill="#FAFAF9" transform="translate(313,146)"/>
<path d="M0 0 C7.75 -0.125 7.75 -0.125 10 1 C10 4.33333333 10 7.66666667 10 11 C8.68 10.67 7.36 10.34 6 10 C6 9.34 6 8.68 6 8 C5.34 8 4.68 8 4 8 C4 8.99 4 9.98 4 11 C2.68 10.67 1.36 10.34 0 10 C0 6.7 0 3.4 0 0 Z M4 3 C4 3.66 4 4.32 4 5 C4.99 4.67 5.98 4.34 7 4 C6.01 3.67 5.02 3.34 4 3 Z " fill="#FAFAF9" transform="translate(277,123)"/>
<path d="M0 0 C1.875 1.1875 1.875 1.1875 3 3 C2.9375 6.0625 2.9375 6.0625 2 9 C-0.37673528 10.95231826 -1.56996525 11.04095569 -4.625 10.75 C-7 10 -7 10 -9 8 C-9.375 5.0625 -9.375 5.0625 -9 2 C-6.13326387 -1.29143778 -4.01983549 -1.44301787 0 0 Z M-5 3 C-5 4.32 -5 5.64 -5 7 C-4.34 7.33 -3.68 7.66 -3 8 C-2.34 7.67 -1.68 7.34 -1 7 C-1 5.68 -1 4.36 -1 3 C-2.32 3 -3.64 3 -5 3 Z " fill="#FAFAF9" transform="translate(493,123)"/>
<path d="M0 0 C4 1 4 1 5 2 C5.33 1.34 5.66 0.68 6 0 C7.32 0 8.64 0 10 0 C10 3.63 10 7.26 10 11 C6 10 6 10 4 7 C3.67 8.32 3.34 9.64 3 11 C2.01 11 1.02 11 0 11 C0 7.37 0 3.74 0 0 Z M6 3 C7 5 7 5 7 5 Z " fill="#FAFAF9" transform="translate(238,123)"/>
<path d="M0 0 C2.96951961 1.14212293 3.98720274 2.11747756 5.4375 4.9375 C5.35167696 7.76966045 4.65463343 8.7126118 2.6875 10.75 C0.4375 11.9375 0.4375 11.9375 -2.1875 11.75 C-4.5625 10.9375 -4.5625 10.9375 -6.5625 8.9375 C-6.9375 6 -6.9375 6 -6.5625 2.9375 C-4.38841328 0.44132636 -3.31453648 -0.08084235 0 0 Z M-2.5625 3.9375 C-2.5625 5.2575 -2.5625 6.5775 -2.5625 7.9375 C-1.9025 8.2675 -1.2425 8.5975 -0.5625 8.9375 C0.0975 8.6075 0.7575 8.2775 1.4375 7.9375 C1.4375 6.6175 1.4375 5.2975 1.4375 3.9375 C0.1175 3.9375 -1.2025 3.9375 -2.5625 3.9375 Z " fill="#FAFAF9" transform="translate(185.5625,122.0625)"/>
<path d="M0 0 C2.96951961 1.14212293 3.98720274 2.11747756 5.4375 4.9375 C5.35167696 7.76966045 4.65463343 8.7126118 2.6875 10.75 C0.4375 11.9375 0.4375 11.9375 -2.1875 11.75 C-4.5625 10.9375 -4.5625 10.9375 -6.5625 8.9375 C-6.9375 6 -6.9375 6 -6.5625 2.9375 C-4.38841328 0.44132636 -3.31453648 -0.08084235 0 0 Z M-2.5625 3.9375 C-2.8925 5.2575 -3.2225 6.5775 -3.5625 7.9375 C-2.5725 8.2675 -1.5825 8.5975 -0.5625 8.9375 C0.0975 8.6075 0.7575 8.2775 1.4375 7.9375 C1.4375 6.6175 1.4375 5.2975 1.4375 3.9375 C0.1175 3.9375 -1.2025 3.9375 -2.5625 3.9375 Z " fill="#FAFAF9" transform="translate(434.5625,122.0625)"/>
<path d="M0 0 C6.0546875 -0.1953125 6.0546875 -0.1953125 8 0 C8.66 0.66 9.32 1.32 10 2 C9.70131344 4.00546689 9.36628677 6.00577205 9 8 C9.33 8.99 9.66 9.98 10 11 C7.03824877 10.38722388 5.61941217 9.74627478 3 8 C3 8.99 3 9.98 3 11 C2.01 11 1.02 11 0 11 C0 7.37 0 3.74 0 0 Z M3 3 C3 3.66 3 4.32 3 5 C3.99 5 4.98 5 6 5 C6 4.34 6 3.68 6 3 C5.01 3 4.02 3 3 3 Z " fill="#FAFAF9" transform="translate(370,123)"/>
<path d="M0 0 C2.64 0 5.28 0 8 0 C9.72983356 3.89212552 10 6.73674337 10 11 C7.03824877 10.38722388 5.61941217 9.74627478 3 8 C3 8.99 3 9.98 3 11 C2.01 11 1.02 11 0 11 C0 7.37 0 3.74 0 0 Z M3 3 C3 3.66 3 4.32 3 5 C3.99 5 4.98 5 6 5 C6 4.34 6 3.68 6 3 C5.01 3 4.02 3 3 3 Z " fill="#FAFAF9" transform="translate(321,123)"/>
<path d="M0 0 C6.0546875 -0.1953125 6.0546875 -0.1953125 8 0 C8.66 0.66 9.32 1.32 10 2 C9.625 4.625 9.625 4.625 9 7 C7.35 7.33 5.7 7.66 4 8 C4 8.99 4 9.98 4 11 C2.68 11 1.36 11 0 11 C0 7.37 0 3.74 0 0 Z M4 3 C4 3.66 4 4.32 4 5 C4.99 4.67 5.98 4.34 7 4 C6.01 3.67 5.02 3.34 4 3 Z " fill="#FAFAF9" transform="translate(266,123)"/>
<path d="M0 0 C2.97 0 5.94 0 9 0 C8.67 0.99 8.34 1.98 8 3 C6.68 2.67 5.36 2.34 4 2 C4 2.66 4 3.32 4 4 C5.32 4 6.64 4 8 4 C8 4.66 8 5.32 8 6 C6.68 6 5.36 6 4 6 C4 6.66 4 7.32 4 8 C5.65 7.67 7.3 7.34 9 7 C9 8.32 9 9.64 9 11 C2.84765625 11.09765625 2.84765625 11.09765625 1 11 C0 10 0 10 -0.09765625 7.71484375 C-0.08605469 6.79832031 -0.07445312 5.88179687 -0.0625 4.9375 C-0.05347656 4.01839844 -0.04445313 3.09929687 -0.03515625 2.15234375 C-0.02355469 1.44207031 -0.01195312 0.73179688 0 0 Z " fill="#FAFAF9" transform="translate(381,123)"/>
<path d="M0 0 C1.11375 0.3403125 1.11375 0.3403125 2.25 0.6875 C2.25 1.6775 2.25 2.6675 2.25 3.6875 C0.93 3.6875 -0.39 3.6875 -1.75 3.6875 C-0.1 4.6775 1.55 5.6675 3.25 6.6875 C2.92 8.0075 2.59 9.3275 2.25 10.6875 C-3.375 11.8125 -3.375 11.8125 -6.75 10.6875 C-6.37875 10.11 -6.0075 9.5325 -5.625 8.9375 C-4.45833333 6.6875 -4.45833333 6.6875 -5.625 4.4375 C-5.99625 3.86 -6.3675 3.2825 -6.75 2.6875 C-4.29511132 0.41445492 -3.41240272 -0.38777304 0 0 Z " fill="#FAFAF9" transform="translate(215.75,122.3125)"/>
<path d="M0 0 C1.32 0 2.64 0 4 0 C4.33 2.31 4.66 4.62 5 7 C5.33 7 5.66 7 6 7 C6.33 4.69 6.66 2.38 7 0 C7.99 0 8.98 0 10 0 C10.08096803 1.45742463 10.13917774 2.91612807 10.1875 4.375 C10.22230469 5.18710938 10.25710937 5.99921875 10.29296875 6.8359375 C10.19628906 7.55007812 10.09960938 8.26421875 10 9 C7 11 7 11 4.4375 10.75 C2 10 2 10 0 8 C-0.26991906 5.31160615 -0.08737357 2.70858064 0 0 Z " fill="#FAFAF9" transform="translate(192,123)"/>
<path d="M0 0 C0.66 0 1.32 0 2 0 C2.33 1.32 2.66 2.64 3 4 C4.32 4 5.64 4 7 4 C7.33 2.68 7.66 1.36 8 0 C8.99 0 9.98 0 11 0 C11 3.96 11 7.92 11 12 C10.01 12 9.02 12 8 12 C8 10.35 8 8.7 8 7 C6.02 7 4.04 7 2 7 C2 8.65 2 10.3 2 12 C1.34 12 0.68 12 0 12 C0 8.04 0 4.08 0 0 Z " fill="#FAFAF9" transform="translate(382,144)"/>
<path d="M0 0 C0 0.99 0 1.98 0 3 C-1.32 3 -2.64 3 -4 3 C-1.525 3.99 -1.525 3.99 1 5 C0.67 6.65 0.34 8.3 0 10 C-5.75 11.125 -5.75 11.125 -8 10 C-8 9.01 -8 8.02 -8 7 C-6.68 7 -5.36 7 -4 7 C-5.32 6.34 -6.64 5.68 -8 5 C-7.625 2.5625 -7.625 2.5625 -7 0 C-4.3333581 -1.33332095 -2.83319697 -0.67102033 0 0 Z " fill="#FAFAF9" transform="translate(426,123)"/>
<path d="M0 0 C0 0.99 0 1.98 0 3 C-1.32 3 -2.64 3 -4 3 C-1.525 3.99 -1.525 3.99 1 5 C0.67 6.65 0.34 8.3 0 10 C-5.75 11.125 -5.75 11.125 -8 10 C-8 9.01 -8 8.02 -8 7 C-6.68 7 -5.36 7 -4 7 C-5.32 6.34 -6.64 5.68 -8 5 C-7.625 2.5625 -7.625 2.5625 -7 0 C-4.3333581 -1.33332095 -2.83319697 -0.67102033 0 0 Z " fill="#FAFAF9" transform="translate(416,123)"/>
<path d="M0 0 C1.32 0 2.64 0 4 0 C4.67408308 1.26691507 5.33900497 2.53870749 6 3.8125 C6.556875 4.87404297 6.556875 4.87404297 7.125 5.95703125 C8 8 8 8 8 11 C6.68 10.67 5.36 10.34 4 10 C4 9.34 4 8.68 4 8 C2.68 8 1.36 8 0 8 C0 8.66 0 9.32 0 10 C-1.32 10.33 -2.64 10.66 -4 11 C-3.39301257 6.87248551 -1.96189209 3.6678852 0 0 Z M1 4 C1 4.66 1 5.32 1 6 C1.66 5.67 2.32 5.34 3 5 C2.34 4.67 1.68 4.34 1 4 Z " fill="#FAFAF9" transform="translate(461,123)"/>
<path d="M0 0 C1.32 0 2.64 0 4 0 C4.67408308 1.26691507 5.33900497 2.53870749 6 3.8125 C6.556875 4.87404297 6.556875 4.87404297 7.125 5.95703125 C8 8 8 8 8 11 C6.68 10.67 5.36 10.34 4 10 C4 9.34 4 8.68 4 8 C2.68 8 1.36 8 0 8 C0 8.66 0 9.32 0 10 C-1.32 10.33 -2.64 10.66 -4 11 C-3.39301257 6.87248551 -1.96189209 3.6678852 0 0 Z M1 4 C1 4.66 1 5.32 1 6 C1.66 5.67 2.32 5.34 3 5 C2.34 4.67 1.68 4.34 1 4 Z " fill="#FAFAF9" transform="translate(399,123)"/>
<path d="M0 0 C1.32 0 2.64 0 4 0 C4.67408308 1.26691507 5.33900497 2.53870749 6 3.8125 C6.556875 4.87404297 6.556875 4.87404297 7.125 5.95703125 C8 8 8 8 8 11 C6.68 10.67 5.36 10.34 4 10 C4 9.34 4 8.68 4 8 C2.68 8 1.36 8 0 8 C0 8.66 0 9.32 0 10 C-1.32 10.33 -2.64 10.66 -4 11 C-3.39301257 6.87248551 -1.96189209 3.6678852 0 0 Z M1 4 C1 4.66 1 5.32 1 6 C1.66 5.67 2.32 5.34 3 5 C2.34 4.67 1.68 4.34 1 4 Z " fill="#FAFAF9" transform="translate(253,123)"/>
<path d="M0 0 C1.32 0 2.64 0 4 0 C4.67119549 1.4562545 5.33681807 2.91507867 6 4.375 C6.556875 5.59316406 6.556875 5.59316406 7.125 6.8359375 C8 9 8 9 8 11 C5.9692584 10.4923146 3.98106451 9.99349093 2 9.3125 C-0.58916878 8.90794238 -1.80260379 9.66586659 -4 11 C-3.39301257 6.87248551 -1.96189209 3.6678852 0 0 Z M1 4 C2 6 2 6 2 6 Z " fill="#FAFAF9" transform="translate(229,123)"/>
<path d="M0 0 C1.32 0 2.64 0 4 0 C4.67119549 1.4562545 5.33681807 2.91507867 6 4.375 C6.556875 5.59316406 6.556875 5.59316406 7.125 6.8359375 C8 9 8 9 8 11 C6.68 10.67 5.36 10.34 4 10 C4 9.34 4 8.68 4 8 C3.236875 8.309375 2.47375 8.61875 1.6875 8.9375 C-0.18789677 9.67893593 -2.08684652 10.36228217 -4 11 C-3.39301257 6.87248551 -1.96189209 3.6678852 0 0 Z M1 4 C2 6 2 6 2 6 Z " fill="#FAFAF9" transform="translate(312,123)"/>
<path d="M0 0 C0 0.66 0 1.32 0 2 C-2.31 2 -4.62 2 -7 2 C-7.33 3.65 -7.66 5.3 -8 7 C-5.10765685 7.82638376 -3.11257569 8 0 8 C0 8.66 0 9.32 0 10 C-3.0832635 11.54163175 -5.60878099 11.29747535 -9 11 C-11 9.375 -11 9.375 -12 7 C-12 3.9375 -12 3.9375 -11 1 C-7.05144485 -2.61010757 -4.71315755 -2.08255799 0 0 Z " fill="#FAFAF9" transform="translate(283,145)"/>
<path d="M0 0 C0.99 0 1.98 0 3 0 C3.33 0.99 3.66 1.98 4 3 C6.50447516 4.21869929 6.50447516 4.21869929 9 5 C9 7.64 9 10.28 9 13 C8.01 13 7.02 13 6 13 C6 10.69 6 8.38 6 6 C5.01 6.66 4.02 7.32 3 8 C2.74969023 10.58380177 2.74969023 10.58380177 3 13 C2.01 13 1.02 13 0 13 C0 8.71 0 4.42 0 0 Z " fill="#FAFAF9" transform="translate(429,143)"/>
<path d="M0 0 C0 0.66 0 1.32 0 2 C-2.31 2 -4.62 2 -7 2 C-7.33 3.65 -7.66 5.3 -8 7 C-5.10765685 7.82638376 -3.11257569 8 0 8 C0 8.66 0 9.32 0 10 C-2.84083641 11.42041821 -4.85477278 11.31452272 -8 11 C-10.4375 9.375 -10.4375 9.375 -12 7 C-12.0625 3.9375 -12.0625 3.9375 -11 1 C-7.05144485 -2.61010757 -4.71315755 -2.08255799 0 0 Z " fill="#FAFAF9" transform="translate(456,145)"/>
<path d="M0 0 C0.33 0.99 0.66 1.98 1 3 C-1.31 3 -3.62 3 -6 3 C-6 4.32 -6 5.64 -6 7 C-3.69 7 -1.38 7 1 7 C0.67 7.99 0.34 8.98 0 10 C-2.97788882 10.90991047 -4.43497994 11.25960381 -7.3125 9.9375 C-9 8 -9 8 -9.5 5 C-9 2 -9 2 -7.3125 0.0625 C-4.43497994 -1.25960381 -2.97788882 -0.90991047 0 0 Z " fill="#FAFAF9" transform="translate(450,123)"/>
<path d="M0 0 C6.625 -0.25 6.625 -0.25 10 2 C10.40843923 4.71203652 10.13336867 7.2437142 10 10 C9.01 10 8.02 10 7 10 C7 7.69 7 5.38 7 3 C6.01 3.33 5.02 3.66 4 4 C3.67 5.98 3.34 7.96 3 10 C2.01 10 1.02 10 0 10 C0 6.7 0 3.4 0 0 Z " fill="#FAFAF9" transform="translate(342,146)"/>
<path d="M0 0 C1 1 1 1 1.09765625 2.84765625 C1.04882812 5.92382812 1.04882812 5.92382812 1 9 C-1.64 9 -4.28 9 -7 9 C-8.10348268 5.68955197 -7.99444068 3.34493684 -7 0 C-4.31633121 -1.3418344 -2.84719317 -0.73004953 0 0 Z M-6 2 C-2 3 -2 3 -2 3 Z M-4 5 C-4.33 5.66 -4.66 6.32 -5 7 C-4.01 7 -3.02 7 -2 7 C-2 6.34 -2 5.68 -2 5 C-2.66 5 -3.32 5 -4 5 Z " fill="#FAFAF9" transform="translate(413,147)"/>
<path d="M0 0 C2.4375 0.8125 2.4375 0.8125 4.4375 2.8125 C4.4375 3.8025 4.4375 4.7925 4.4375 5.8125 C3.4475 6.1425 2.4575 6.4725 1.4375 6.8125 C2.0975 6.8125 2.7575 6.8125 3.4375 6.8125 C3.1075 7.8025 2.7775 8.7925 2.4375 9.8125 C-0.4375 9.9375 -0.4375 9.9375 -3.5625 9.8125 C-5.5625 7.8125 -5.5625 7.8125 -5.875 5.375 C-5.5625 2.8125 -5.5625 2.8125 -4.375 0.9375 C-2.5625 -0.1875 -2.5625 -0.1875 0 0 Z M-2.5625 2.8125 C1.4375 3.8125 1.4375 3.8125 1.4375 3.8125 Z " fill="#FAFAF9" transform="translate(491.5625,146.1875)"/>
<path d="M0 0 C0.763125 0.20625 1.52625 0.4125 2.3125 0.625 C2.6425 2.275 2.9725 3.925 3.3125 5.625 C2.3225 5.955 1.3325 6.285 0.3125 6.625 C1.3025 6.625 2.2925 6.625 3.3125 6.625 C2.9825 7.615 2.6525 8.605 2.3125 9.625 C-0.5625 9.75 -0.5625 9.75 -3.6875 9.625 C-5.6875 7.625 -5.6875 7.625 -6 4.625 C-5.896875 3.635 -5.79375 2.645 -5.6875 1.625 C-2.6875 -0.375 -2.6875 -0.375 0 0 Z " fill="#FAFAF9" transform="translate(462.6875,146.375)"/>
<path d="M0 0 C0.33 1.65 0.66 3.3 1 5 C0.01 5.33 -0.98 5.66 -2 6 C-1.01 6.33 -0.02 6.66 1 7 C0.67 7.66 0.34 8.32 0 9 C-2.8125 9.25 -2.8125 9.25 -6 9 C-8 7.3125 -8 7.3125 -9 5 C-8.3125 2.3125 -8.3125 2.3125 -7 0 C-4.3333581 -1.33332095 -2.83319697 -0.67102033 0 0 Z " fill="#FAFAF9" transform="translate(403,147)"/>
<path d="M0 0 C0.99 0 1.98 0 3 0 C3 2.64 3 5.28 3 8 C3.66 7.67 4.32 7.34 5 7 C5.40729228 4.67843403 5.74438677 2.3431213 6 0 C6.99 0 7.98 0 9 0 C9 3.3 9 6.6 9 10 C2.84765625 10.09765625 2.84765625 10.09765625 1 10 C0 9 0 9 -0.09765625 6.93359375 C-0.08605469 6.10988281 -0.07445312 5.28617188 -0.0625 4.4375 C-0.05347656 3.61121094 -0.04445313 2.78492188 -0.03515625 1.93359375 C-0.02355469 1.29550781 -0.01195312 0.65742188 0 0 Z " fill="#FAFAF9" transform="translate(331,146)"/>
<path d="M0 0 C6.34507042 -0.35915493 6.34507042 -0.35915493 8.9375 1.0625 C10.55479605 4.01168691 10.18630138 6.70867559 10 10 C9.01 10 8.02 10 7 10 C7 7.69 7 5.38 7 3 C6.01 3.33 5.02 3.66 4 4 C3.67 5.98 3.34 7.96 3 10 C2.01 10 1.02 10 0 10 C0 6.7 0 3.4 0 0 Z " fill="#FAFAF9" transform="translate(232,146)"/>
<path d="M0 0 C1 1 1 1 1.09765625 2.84765625 C1.04882812 5.92382812 1.04882812 5.92382812 1 9 C-1.31 9 -3.62 9 -6 9 C-7.57035335 6.50590939 -8.0274945 5.29556584 -7.75 2.3125 C-7.5025 1.549375 -7.255 0.78625 -7 0 C-4.31633121 -1.3418344 -2.84719317 -0.73004953 0 0 Z M-6 2 C-2 3 -2 3 -2 3 Z M-4 5 C-4.33 5.66 -4.66 6.32 -5 7 C-3.68 6.67 -2.36 6.34 -1 6 C-1.99 5.67 -2.98 5.34 -4 5 Z " fill="#FAFAF9" transform="translate(229,147)"/>
<path d="M0 0 C1 1 1 1 1.09765625 2.84765625 C1.04882812 5.92382812 1.04882812 5.92382812 1 9 C-1.31 9 -3.62 9 -6 9 C-7.57035335 6.50590939 -8.0274945 5.29556584 -7.75 2.3125 C-7.5025 1.549375 -7.255 0.78625 -7 0 C-4.31633121 -1.3418344 -2.84719317 -0.73004953 0 0 Z M-6 2 C-2 3 -2 3 -2 3 Z M-4 5 C-4.33 5.66 -4.66 6.32 -5 7 C-3.68 6.67 -2.36 6.34 -1 6 C-1.99 5.67 -2.98 5.34 -4 5 Z " fill="#FAFAF9" transform="translate(251,147)"/>
<path d="M0 0 C1.98 0.99 1.98 0.99 4 2 C4 2.66 4 3.32 4 4 C4.66 4 5.32 4 6 4 C6.33 3.01 6.66 2.02 7 1 C9.0625 0.3125 9.0625 0.3125 11 0 C10.566875 1.0209375 10.566875 1.0209375 10.125 2.0625 C8.87402645 5.32893093 7.92552045 8.62846123 7 12 C5.68 12 4.36 12 3 12 C1.82923301 8.01939223 0.74250597 4.08378283 0 0 Z " fill="#FAFAF9" transform="translate(331,122)"/>
<path d="M0 0 C3 1 3 1 4.1875 3.0625 C4.455625 3.701875 4.72375 4.34125 5 5 C5.45375 4.175 5.9075 3.35 6.375 2.5 C6.91125 1.675 7.4475 0.85 8 0 C8.66 0 9.32 0 10 0 C6.84033613 10.48739496 6.84033613 10.48739496 4 13 C1.3125 13.25 1.3125 13.25 -1 13 C-1 12.34 -1 11.68 -1 11 C0.32 11 1.64 11 3 11 C2.7834375 10.45730469 2.566875 9.91460937 2.34375 9.35546875 C1.92609375 8.28232422 1.92609375 8.28232422 1.5 7.1875 C1.2215625 6.47980469 0.943125 5.77210938 0.65625 5.04296875 C0 3 0 3 0 0 Z " fill="#FAFAF9" transform="translate(366,146)"/>
<path d="M0 0 C3.3 0 6.6 0 10 0 C10 0.99 10 1.98 10 3 C9.01 3 8.02 3 7 3 C7 5.31 7 7.62 7 10 C5.68 10.33 4.36 10.66 3 11 C3 8.36 3 5.72 3 3 C2.01 3 1.02 3 0 3 C0 2.01 0 1.02 0 0 Z " fill="#FAFAF9" transform="translate(468,123)"/>
<path d="M0 0 C2.4375 0.8125 2.4375 0.8125 4.4375 3.8125 C4.0625 6.5 4.0625 6.5 3.4375 8.8125 C0.0625 9.4375 0.0625 9.4375 -3.5625 9.8125 C-5.5625 7.8125 -5.5625 7.8125 -5.875 4.8125 C-5.771875 3.8225 -5.66875 2.8325 -5.5625 1.8125 C-2.5625 -0.1875 -2.5625 -0.1875 0 0 Z M-2.5625 2.8125 C-2.8925 4.1325 -3.2225 5.4525 -3.5625 6.8125 C-2.2425 7.1425 -0.9225 7.4725 0.4375 7.8125 C0.7675 6.4925 1.0975 5.1725 1.4375 3.8125 C0.1175 3.4825 -1.2025 3.1525 -2.5625 2.8125 Z " fill="#FAFAF9" transform="translate(289.5625,146.1875)"/>
<path d="M0 0 C2.4375 0.9375 2.4375 0.9375 3.9375 3.25 C4.4375 5.9375 4.4375 5.9375 3.375 8.25 C1.4375 9.9375 1.4375 9.9375 -1.0625 10.375 C-3.5625 9.9375 -3.5625 9.9375 -5.4375 8.75 C-6.5625 6.9375 -6.5625 6.9375 -6.4375 4.375 C-5.19672674 0.9185602 -3.66654959 -0.08942804 0 0 Z M-2.5625 2.9375 C-2.8925 4.2575 -3.2225 5.5775 -3.5625 6.9375 C-2.2425 7.2675 -0.9225 7.5975 0.4375 7.9375 C0.7675 6.6175 1.0975 5.2975 1.4375 3.9375 C0.1175 3.6075 -1.2025 3.2775 -2.5625 2.9375 Z " fill="#FAFAF9" transform="translate(185.5625,146.0625)"/>
<path d="M0 0 C2.00720923 0.28674418 4.0085944 0.61866701 6 1 C6 1.66 6 2.32 6 3 C5.01 3.495 5.01 3.495 4 4 C4.66 4.33 5.32 4.66 6 5 C5.67 6.65 5.34 8.3 5 10 C2.69 10 0.38 10 -2 10 C-2 9.01 -2 8.02 -2 7 C-1.01 7 -0.02 7 1 7 C0.01 6.34 -0.98 5.68 -2 5 C-1.125 1.125 -1.125 1.125 0 0 Z " fill="#FAFAF9" transform="translate(260,146)"/>
<path d="M0 0 C0.763125 0.20625 1.52625 0.4125 2.3125 0.625 C2.3125 1.285 2.3125 1.945 2.3125 2.625 C1.3225 3.12 1.3225 3.12 0.3125 3.625 C0.9725 3.955 1.6325 4.285 2.3125 4.625 C1.9825 6.275 1.6525 7.925 1.3125 9.625 C-0.9975 9.625 -3.3075 9.625 -5.6875 9.625 C-5.501875 9.0475 -5.31625 8.47 -5.125 7.875 C-4.64726454 5.41807475 -4.93020636 3.98102466 -5.6875 1.625 C-2.6875 -0.375 -2.6875 -0.375 0 0 Z " fill="#FAFAF9" transform="translate(212.6875,146.375)"/>
<path d="M0 0 C0 0.66 0 1.32 0 2 C-0.99 2.495 -0.99 2.495 -2 3 C-1.34 3.33 -0.68 3.66 0 4 C-0.33 5.65 -0.66 7.3 -1 9 C-3.31 9 -5.62 9 -8 9 C-8 8.01 -8 7.02 -8 6 C-7.01 6 -6.02 6 -5 6 C-5.99 5.34 -6.98 4.68 -8 4 C-7.625 2.0625 -7.625 2.0625 -7 0 C-4.3333581 -1.33332095 -2.83319697 -0.67102033 0 0 Z " fill="#FAFAF9" transform="translate(512,147)"/>
<path d="M0 0 C3.375 -0.125 3.375 -0.125 7 0 C9 2 9 2 9.1953125 3.9453125 C9.13020833 5.96354167 9.06510417 7.98177083 9 10 C8.34 10 7.68 10 7 10 C6.67 8.02 6.34 6.04 6 4 C5.01 3.67 4.02 3.34 3 3 C3 5.31 3 7.62 3 10 C2.01 10 1.02 10 0 10 C0 6.7 0 3.4 0 0 Z " fill="#FAFAF9" transform="translate(468,146)"/>
<path d="M0 0 C0.99 0 1.98 0 3 0 C3.33 2.31 3.66 4.62 4 7 C4.66 7 5.32 7 6 7 C6.33 4.69 6.66 2.38 7 0 C7.66 0 8.32 0 9 0 C9 3.3 9 6.6 9 10 C5.625 10.125 5.625 10.125 2 10 C0 8 0 8 -0.1953125 6.0546875 C-0.13020833 4.03645833 -0.06510417 2.01822917 0 0 Z " fill="#FAFAF9" transform="translate(191,146)"/>
<path d="M0 0 C0.99 0 1.98 0 3 0 C3 2.31 3 4.62 3 7 C4.65 7 6.3 7 8 7 C8 8.32 8 9.64 8 11 C5.36 11 2.72 11 0 11 C0 7.37 0 3.74 0 0 Z " fill="#FAFAF9" transform="translate(170,123)"/>
<path d="M0 0 C3 1 3 1 5 2 C5 2.99 5 3.98 5 5 C4.01 5.495 4.01 5.495 3 6 C3 7.32 3 8.64 3 10 C3.99 10 4.98 10 6 10 C6 10.66 6 11.32 6 12 C4.33388095 12.042721 2.66617115 12.04063832 1 12 C0 11 0 11 -0.0625 7.9375 C-0.041875 6.968125 -0.02125 5.99875 0 5 C-0.66 5 -1.32 5 -2 5 C-2 4.01 -2 3.02 -2 2 C-1.34 2 -0.68 2 0 2 C0 1.34 0 0.68 0 0 Z " fill="#FAFAF9" transform="translate(480,144)"/>
<path d="M0 0 C0.99 0 1.98 0 3 0 C3 3.3 3 6.6 3 10 C4.98 10 6.96 10 9 10 C9 10.66 9 11.32 9 12 C6.03 12 3.06 12 0 12 C0 8.04 0 4.08 0 0 Z " fill="#FAFAF9" transform="translate(170,144)"/>
<path d="M0 0 C0.66 0 1.32 0 2 0 C2 0.66 2 1.32 2 2 C2.99 2 3.98 2 5 2 C5 2.99 5 3.98 5 5 C4.01 5 3.02 5 2 5 C2 6.65 2 8.3 2 10 C2.99 10 3.98 10 5 10 C5 10.66 5 11.32 5 12 C3.35 11.67 1.7 11.34 0 11 C0 9.02 0 7.04 0 5 C-0.66 5 -1.32 5 -2 5 C-2 4.01 -2 3.02 -2 2 C-1.34 2 -0.68 2 0 2 C0 1.34 0 0.68 0 0 Z " fill="#FAFAF9" transform="translate(422,144)"/>
<path d="M0 0 C0.66 0 1.32 0 2 0 C2 0.66 2 1.32 2 2 C2.99 2 3.98 2 5 2 C5 2.99 5 3.98 5 5 C4.01 5 3.02 5 2 5 C2 6.65 2 8.3 2 10 C2.99 10 3.98 10 5 10 C5 10.66 5 11.32 5 12 C3.35 11.67 1.7 11.34 0 11 C0 9.02 0 7.04 0 5 C-0.66 5 -1.32 5 -2 5 C-2 4.01 -2 3.02 -2 2 C-1.34 2 -0.68 2 0 2 C0 1.34 0 0.68 0 0 Z " fill="#FAFAF9" transform="translate(360,144)"/>
<path d="M0 0 C1.32 0 2.64 0 4 0 C4 3.63 4 7.26 4 11 C2.68 11 1.36 11 0 11 C0 7.37 0 3.74 0 0 Z " fill="#FAFAF9" transform="translate(204,123)"/>
<path d="M0 0 C1.32 0 2.64 0 4 0 C4 3.63 4 7.26 4 11 C2.68 10.67 1.36 10.34 0 10 C0 6.7 0 3.4 0 0 Z " fill="#FAFAF9" transform="translate(452,123)"/>
<path d="M0 0 C1.32 0 2.64 0 4 0 C4 3.3 4 6.6 4 10 C2.68 10.33 1.36 10.66 0 11 C0 7.37 0 3.74 0 0 Z " fill="#FAFAF9" transform="translate(220,123)"/>
<path d="M0 0 C0.99 0 1.98 0 3 0 C3 4.29 3 8.58 3 13 C2.01 13 1.02 13 0 13 C0 8.71 0 4.42 0 0 Z " fill="#FAFAF9" transform="translate(416,143)"/>
<path d="M0 0 C1.98 0 3.96 0 6 0 C6 0.99 6 1.98 6 3 C5.01 3.495 5.01 3.495 4 4 C3.34227572 7.02934491 3.34227572 7.02934491 3 10 C2.01 10 1.02 10 0 10 C0 6.7 0 3.4 0 0 Z " fill="#FAFAF9" transform="translate(497,146)"/>
<path d="M0 0 C0.99 0 1.98 0 3 0 C3 3.63 3 7.26 3 11 C2.01 11 1.02 11 0 11 C0 7.37 0 3.74 0 0 Z " fill="#FAFAF9" transform="translate(479,123)"/>
<path d="M0 0 C0.99 0 1.98 0 3 0 C3 3.63 3 7.26 3 11 C2.01 11 1.02 11 0 11 C0 7.37 0 3.74 0 0 Z " fill="#FAFAF9" transform="translate(289,123)"/>
<path d="M0 0 C0.99 0 1.98 0 3 0 C3 2.97 3 5.94 3 9 C2.01 9 1.02 9 0 9 C0 6.03 0 3.06 0 0 Z " fill="#FAFAF9" transform="translate(354,147)"/>
<path d="M0 0 C0.99 0 1.98 0 3 0 C3 2.97 3 5.94 3 9 C2.01 9 1.02 9 0 9 C0 6.03 0 3.06 0 0 Z " fill="#FAFAF9" transform="translate(217,147)"/>
<path d="M0 0 C0.99 0 1.98 0 3 0 C3 2.97 3 5.94 3 9 C2.01 9 1.02 9 0 9 C0 6.03 0 3.06 0 0 Z " fill="#FAFAF9" transform="translate(203,147)"/>
<path d="M0 0 C0.66 0 1.32 0 2 0 C2 1.65 2 3.3 2 5 C1.34 5 0.68 5 0 5 C0 3.35 0 1.7 0 0 Z " fill="#FAFAF9" transform="translate(254,144)"/>
<path d="M0 0 C1.32 0 2.64 0 4 0 C3.67 0.99 3.34 1.98 3 3 C2.01 2.67 1.02 2.34 0 2 C0 1.34 0 0.68 0 0 Z " fill="#FAFAF9" transform="translate(202,143)"/>
<path d="M0 0 C0.99 0 1.98 0 3 0 C3 0.99 3 1.98 3 3 C2.01 3 1.02 3 0 3 C0 2.01 0 1.02 0 0 Z " fill="#FAFAF9" transform="translate(354,143)"/>
<path d="M0 0 C0.99 0 1.98 0 3 0 C2.67 0.99 2.34 1.98 2 3 C1.34 3 0.68 3 0 3 C0 2.01 0 1.02 0 0 Z " fill="#FAFAF9" transform="translate(217,143)"/>
</svg>
