<?xml version="1.0" encoding="UTF-8"?>
<svg version="1.1" xmlns="http://www.w3.org/2000/svg" width="313" height="222">
<path d="M0 0 C0.00238835 0.64899324 0.00477671 1.29798649 0.00723743 1.96664619 C0.06640256 17.76633259 0.14196221 33.56584296 0.23571491 49.36535835 C0.28065891 57.00592799 0.32007675 64.64645116 0.34643555 72.28710938 C0.36942699 78.94758882 0.40283771 85.60792106 0.44870156 92.26828372 C0.4726185 95.79412378 0.49135722 99.31981817 0.49761391 102.84573746 C0.50479804 106.78420225 0.53524645 110.72230235 0.56762695 114.66064453 C0.56547432 116.40960274 0.56547432 116.40960274 0.5632782 118.19389343 C0.57234079 126.07017832 0.57234079 126.07017832 4 133 C11.21728521 136.15483605 11.21728521 136.15483605 29 137 C29 108.62 29 80.24 29 51 C47.68290084 46.32927479 47.68290084 46.32927479 56.5625 45.6875 C57.54065674 45.61120361 58.51881348 45.53490723 59.52661133 45.45629883 C78.27985831 44.15173855 95.89262518 46.33602812 111.01953125 58.41015625 C122.52879422 69.10070284 128.39307314 82.90541187 129.3125 98.4765625 C129.95259433 115.94275777 126.27292934 132.71819485 114.75 146.375 C105.91557783 155.60963928 94.42548257 160.67994382 81.65673828 161.11352539 C80.47321777 161.10828857 79.28969727 161.10305176 78.0703125 161.09765625 C76.90773926 161.09515869 75.74516602 161.09266113 74.54736328 161.09008789 C73.0879834 161.08098389 71.62860352 161.07187988 70.125 161.0625 C65.46375 161.041875 60.8025 161.02125 56 161 C56 172.55 56 184.1 56 196 C47.09 196 38.18 196 29 196 C29 183.46 29 170.92 29 158 C24.2975 158.061875 24.2975 158.061875 19.5 158.125 C-9.19090938 158.22782679 -9.19090938 158.22782679 -17.921875 150.2421875 C-25.79343674 141.94777327 -26.43833703 133.89432755 -26.34057617 122.8828125 C-26.34101425 121.5844194 -26.34145233 120.28602631 -26.34190369 118.94828796 C-26.34276002 115.4094917 -26.32519355 111.87100411 -26.30418181 108.33227921 C-26.28535416 104.62607665 -26.2836598 100.91986605 -26.28010559 97.21362305 C-26.27080292 90.20500173 -26.24621342 83.19652177 -26.21605712 76.18796253 C-26.18245752 68.20487755 -26.16601317 60.22178561 -26.15097082 52.23864746 C-26.11966213 35.82568239 -26.06693651 19.41285927 -26 3 C-23.35576067 2.4899745 -20.71012824 1.99186064 -18.0625 1.5 C-16.95938477 1.28537109 -16.95938477 1.28537109 -15.83398438 1.06640625 C-10.47810125 0.08410454 -5.4451278 -0.12977464 0 0 Z M56 71 C56 92.45 56 113.9 56 136 C77.31123551 137.8442494 77.31123551 137.8442494 96.5 129.6875 C101.28968835 121.10597504 102.19850316 113.92309732 102.25 104.3125 C102.270625 103.36955078 102.29125 102.42660156 102.3125 101.45507812 C102.36159852 92.52528541 100.85889253 84.03067103 95 77 C86.14526152 69.05343983 72.88183897 69.60644526 61.67578125 69.796875 C58.17667885 69.74616839 58.17667885 69.74616839 56 71 Z " fill="#FFFFFF" transform="translate(26,0)"/>
<path d="M0 0 C0 16.83 0 33.66 0 51 C3.63 50.01 7.26 49.02 11 48 C14.39955201 47.73057164 17.55479695 47.56678137 20.9375 47.625 C21.80358887 47.63515137 22.66967773 47.64530273 23.56201172 47.65576172 C35.35369394 47.93992518 45.90918432 50.48989767 54.8125 58.6640625 C65.63216738 70.51159828 66.45244672 85.65313129 66.29296875 100.921875 C66.28735946 102.51897784 66.28309568 104.11608591 66.28010559 105.7131958 C66.26876151 109.87576051 66.23938702 114.03800105 66.20599365 118.20043945 C66.17506497 122.46431089 66.16155201 126.72823574 66.14648438 130.9921875 C66.11450491 139.32828887 66.06182516 147.66406651 66 156 C57.42 156 48.84 156 40 156 C39.98541748 154.1648584 39.97083496 152.3297168 39.95581055 150.43896484 C39.90379682 144.32009287 39.83841809 138.20147287 39.76428509 132.08283043 C39.71988989 128.37946191 39.68056975 124.67619564 39.65356445 120.97265625 C39.62721857 117.38680277 39.58660665 113.80134958 39.53681374 110.21574783 C39.51243884 108.20775774 39.50218211 106.19961178 39.49235535 104.1914978 C39.40236595 87.87592368 39.40236595 87.87592368 32 74 C22.17878137 68.72564185 10.66041943 70.93395806 0 72 C0 99.72 0 127.44 0 156 C-8.58 156 -17.16 156 -26 156 C-24.92570016 151.70280062 -24.65556923 151.41375979 -21.375 148.9375 C-9.46202359 138.90327256 -5.50613801 123.94981428 -4 109 C-2.64900737 92.59847538 -7.11243057 76.85545646 -16.70703125 63.640625 C-18.74157589 61.06096621 -18.74157589 61.06096621 -20.73114014 59.85012817 C-23.8274494 57.75062447 -25.71550758 56.17375384 -26.616745 52.45544434 C-26.80999861 49.29484199 -26.78693535 46.20395115 -26.68359375 43.0390625 C-26.67368912 41.89335785 -26.66378448 40.7476532 -26.65357971 39.56723022 C-26.61448675 35.91850187 -26.52666452 32.27281444 -26.4375 28.625 C-26.40238 26.14717895 -26.37044222 23.66931061 -26.34179688 21.19140625 C-26.26474125 15.12657183 -26.1477001 9.06350316 -26 3 C-23.35576067 2.4899745 -20.71012824 1.99186064 -18.0625 1.5 C-16.95938477 1.28537109 -16.95938477 1.28537109 -15.83398438 1.06640625 C-15.09599609 0.93105469 -14.35800781 0.79570312 -13.59765625 0.65625 C-12.60004272 0.46772461 -12.60004272 0.46772461 -11.58227539 0.27539062 C-7.74220151 -0.1341398 -3.86184963 0 0 0 Z " fill="#FFFFFF" transform="translate(162,0)"/>
<path d="M0 0 C0 34.98 0 69.96 0 106 C-8.91 106 -17.82 106 -27 106 C-27 72.34 -27 38.68 -27 4 C-4 0 -4 0 0 0 Z " fill="#FFFFFF" transform="translate(269,50)"/>
<path d="M0 0 C4.61586002 3.95645145 8.80181 7.69941512 13 12 C13.33 8.37 13.66 4.74 14 1 C14.99 1 15.98 1 17 1 C17 7.27 17 13.54 17 20 C12.93729679 17.9686484 11.18814351 16.24522343 8.25 12.875 C7.45078125 11.96492187 6.6515625 11.05484375 5.828125 10.1171875 C4.92320312 9.06917969 4.92320312 9.06917969 4 8 C3.67 11.96 3.34 15.92 3 20 C2.01 20 1.02 20 0 20 C0 13.4 0 6.8 0 0 Z " fill="#FFFFFF" transform="translate(205,202)"/>
<path d="M0 0 C3.4696382 3.10052776 4.83387437 4.94787101 5.5625 9.5625 C4.91429589 13.52374737 3.81200626 15.18799374 1 18 C-2.55129622 19.77564811 -6.50780047 19.45594986 -10.25 18.3125 C-12.76935187 16.42298609 -13.79014576 14.9291208 -15 12 C-15.19833481 9.1496455 -14.94386032 6.70158822 -14 4 C-9.35260538 -0.64739462 -6.40592797 -1.62862575 0 0 Z M-11 5 C-12.25329784 7.85289698 -12.25329784 7.85289698 -12 11 C-10.59121904 13.9901643 -10.59121904 13.9901643 -8 16 C-4.32209009 16.68960811 -2.71491389 16.45827813 0.4375 14.4375 C2.32042676 11.98268571 2.32042676 11.98268571 2 8.4375 C1.28941318 4.9972852 1.28941318 4.9972852 -0.875 3.0625 C-5.01158607 0.99420696 -7.56783749 2.29039802 -11 5 Z " fill="#FFFFFF" transform="translate(132,174)"/>
<path d="M0 0 C8 0 8 0 10.0625 1.75 C11.17436163 4.41846792 10.78276741 5.30380114 10 8 C10.99 9.485 10.99 9.485 12 11 C12.375 13.5 12.375 13.5 12 16 C10.5 17.8125 10.5 17.8125 8 19 C5.36 19 2.72 19 0 19 C0 12.73 0 6.46 0 0 Z M3 3 C3 4.65 3 6.3 3 8 C4.32 7.67 5.64 7.34 7 7 C7 5.68 7 4.36 7 3 C5.68 3 4.36 3 3 3 Z M3 11 C3 12.65 3 14.3 3 16 C4.98 15.67 6.96 15.34 9 15 C9 13.68 9 12.36 9 11 C7.02 11 5.04 11 3 11 Z " fill="#FFFFFF" transform="translate(270,174)"/>
<path d="M0 0 C3.40414403 1.13471468 4.24276648 2.17225987 6.5 4.875 C8.60160024 7.37295467 10.68432467 9.68432467 13 12 C13.33 8.37 13.66 4.74 14 1 C14.99 1 15.98 1 17 1 C17.33 7.6 17.66 14.2 18 21 C13.03658951 16.74564815 8.53838303 12.63100309 4 8 C3.67 11.96 3.34 15.92 3 20 C2.01 20 1.02 20 0 20 C0 13.4 0 6.8 0 0 Z " fill="#FFFFFF" transform="translate(197,173)"/>
<path d="M0 0 C1.32 0 2.64 0 4 0 C3.98839844 0.83144531 3.97679687 1.66289062 3.96484375 2.51953125 C3.95582031 3.60621094 3.94679688 4.69289062 3.9375 5.8125 C3.92589844 6.89144531 3.91429687 7.97039062 3.90234375 9.08203125 C3.86375234 12.06512169 3.86375234 12.06512169 5 15 C6.65 15 8.3 15 10 15 C10.33 10.05 10.66 5.1 11 0 C12.32 0 13.64 0 15 0 C15.08150744 2.06183633 15.1394194 4.12461349 15.1875 6.1875 C15.22230469 7.33605469 15.25710938 8.48460937 15.29296875 9.66796875 C14.9490805 13.57912447 13.7940149 16.2059851 11 19 C7.6875 19.375 7.6875 19.375 4 19 C0.97895649 16.18142501 0.06467266 14.58787447 -0.390625 10.44921875 C-0.34421875 9.20785156 -0.2978125 7.96648437 -0.25 6.6875 C-0.21390625 5.43324219 -0.1778125 4.17898437 -0.140625 2.88671875 C-0.07101562 1.45779297 -0.07101562 1.45779297 0 0 Z " fill="#FFFFFF" transform="translate(266,203)"/>
<path d="M0 0 C1.32 0 2.64 0 4 0 C3.98839844 0.83144531 3.97679687 1.66289062 3.96484375 2.51953125 C3.95582031 3.60621094 3.94679688 4.69289062 3.9375 5.8125 C3.92589844 6.89144531 3.91429687 7.97039062 3.90234375 9.08203125 C3.86375234 12.06512169 3.86375234 12.06512169 5 15 C6.65 15 8.3 15 10 15 C10.33 10.05 10.66 5.1 11 0 C12.32 0 13.64 0 15 0 C15.08150744 2.06183633 15.1394194 4.12461349 15.1875 6.1875 C15.22230469 7.33605469 15.25710938 8.48460937 15.29296875 9.66796875 C14.97323533 13.3044035 14.18158273 15.1105914 12 18 C9.12529507 19.43735246 7.18105412 19.38172649 4 19 C1.01214374 16.16742659 0.06357508 14.57789749 -0.390625 10.44921875 C-0.34421875 9.20785156 -0.2978125 7.96648437 -0.25 6.6875 C-0.21390625 5.43324219 -0.1778125 4.17898437 -0.140625 2.88671875 C-0.07101563 1.45779297 -0.07101563 1.45779297 0 0 Z " fill="#FFFFFF" transform="translate(253,174)"/>
<path d="M0 0 C3.4375 1.0625 3.4375 1.0625 5.4375 3.25 C6.67490475 6.73020085 6.57967883 8.55981826 5.4375 12.0625 C3.8125 14 3.8125 14 1.4375 15.0625 C-2.125 15.0625 -2.125 15.0625 -5.5625 14.0625 C-7.89329067 11.4403605 -8.58559671 10.00946529 -8.5 6.5 C-6.70879001 1.84285402 -5.10328909 0.08953139 0 0 Z M0.4375 3.0625 C1.0975 3.7225 1.7575 4.3825 2.4375 5.0625 C2.4375 4.4025 2.4375 3.7425 2.4375 3.0625 C1.7775 3.0625 1.1175 3.0625 0.4375 3.0625 Z M-5.5625 5.0625 C-5.5625 6.7125 -5.5625 8.3625 -5.5625 10.0625 C-5.2325 10.0625 -4.9025 10.0625 -4.5625 10.0625 C-4.5625 8.4125 -4.5625 6.7625 -4.5625 5.0625 C-4.8925 5.0625 -5.2225 5.0625 -5.5625 5.0625 Z M-1.5625 5.0625 C-0.5625 7.0625 -0.5625 7.0625 -0.5625 7.0625 Z M2.4375 5.0625 C2.1075 6.3825 1.7775 7.7025 1.4375 9.0625 C2.4275 9.5575 2.4275 9.5575 3.4375 10.0625 C3.4375 8.4125 3.4375 6.7625 3.4375 5.0625 C3.1075 5.0625 2.7775 5.0625 2.4375 5.0625 Z M-1.5625 9.0625 C-1.8925 10.0525 -2.2225 11.0425 -2.5625 12.0625 C-1.5725 11.7325 -0.5825 11.4025 0.4375 11.0625 C-0.2225 10.4025 -0.8825 9.7425 -1.5625 9.0625 Z " fill="#FFFFFF" transform="translate(288.5625,48.9375)"/>
<path d="M0 0 C0.99 0 1.98 0 3 0 C3 2.31 3 4.62 3 7 C5.97 7 8.94 7 12 7 C12 4.69 12 2.38 12 0 C12.99 0 13.98 0 15 0 C15 6.27 15 12.54 15 19 C14.01 19 13.02 19 12 19 C12 16.03 12 13.06 12 10 C9.03 10 6.06 10 3 10 C3 12.97 3 15.94 3 19 C2.01 19 1.02 19 0 19 C0 12.73 0 6.46 0 0 Z " fill="#FFFFFF" transform="translate(109,203)"/>
<path d="M0 0 C0.99 0 1.98 0 3 0 C3 2.31 3 4.62 3 7 C5.64 7 8.28 7 11 7 C11 4.69 11 2.38 11 0 C11.99 0 12.98 0 14 0 C14 6.27 14 12.54 14 19 C13.01 19 12.02 19 11 19 C11 16.03 11 13.06 11 10 C8.36 10 5.72 10 3 10 C3 12.97 3 15.94 3 19 C2.01 19 1.02 19 0 19 C0 12.73 0 6.46 0 0 Z " fill="#FFFFFF" transform="translate(175,203)"/>
<path d="M0 0 C3 1 3 1 3.9831543 2.64233398 C4.3994812 3.68369507 4.3994812 3.68369507 4.82421875 4.74609375 C5.13037109 5.50083984 5.43652344 6.25558594 5.75195312 7.03320312 C6.06068359 7.82662109 6.36941406 8.62003906 6.6875 9.4375 C7.00783203 10.22705078 7.32816406 11.01660156 7.65820312 11.83007812 C10 17.6870669 10 17.6870669 10 20 C8.0625 19.6875 8.0625 19.6875 6 19 C5.67 18.01 5.34 17.02 5 16 C2.36 15.67 -0.28 15.34 -3 15 C-3.33 16.65 -3.66 18.3 -4 20 C-4.99 20 -5.98 20 -7 20 C-6.29937517 15.43263559 -4.68729793 11.4300495 -2.9375 7.1875 C-2.51500977 6.14819336 -2.51500977 6.14819336 -2.08398438 5.08789062 C-1.39325027 3.39032376 -0.69716272 1.69493688 0 0 Z M1 6 C0.34 7.98 -0.32 9.96 -1 12 C0.65 12 2.3 12 4 12 C3.34 10.02 2.68 8.04 2 6 C1.67 6 1.34 6 1 6 Z " fill="#FFFFFF" transform="translate(223,173)"/>
<path d="M0 0 C0.66 0 1.32 0 2 0 C3.17314026 2.76825188 4.33870215 5.53928486 5.5 8.3125 C5.83386719 9.09818359 6.16773438 9.88386719 6.51171875 10.69335938 C6.98544922 11.8293457 6.98544922 11.8293457 7.46875 12.98828125 C7.90864258 14.03302612 7.90864258 14.03302612 8.35742188 15.09887695 C9 17 9 17 9 20 C8.01 20 7.02 20 6 20 C5.67 18.35 5.34 16.7 5 15 C0.94914321 15.24631557 0.94914321 15.24631557 -3 16 C-4.5899433 17.92064793 -4.5899433 17.92064793 -5 20 C-5.99 20 -6.98 20 -8 20 C-5.83836487 13.06001352 -3.1063786 6.56882431 0 0 Z M0 6 C-0.66 7.98 -1.32 9.96 -2 12 C-0.35 12 1.3 12 3 12 C2.34 10.02 1.68 8.04 1 6 C0.67 6 0.34 6 0 6 Z " fill="#FFFFFF" transform="translate(187,173)"/>
<path d="M0 0 C0.66 0 1.32 0 2 0 C3.33934716 2.95564708 4.67044247 5.9149378 6 8.875 C6.3815625 9.71675781 6.763125 10.55851563 7.15625 11.42578125 C7.5171875 12.23144531 7.878125 13.03710938 8.25 13.8671875 C8.58515625 14.61081543 8.9203125 15.35444336 9.265625 16.12060547 C10 18 10 18 10 20 C8.0625 19.6875 8.0625 19.6875 6 19 C5.67 18.01 5.34 17.02 5 16 C2.36 15.67 -0.28 15.34 -3 15 C-3.33 16.65 -3.66 18.3 -4 20 C-4.99 20 -5.98 20 -7 20 C-6.29937517 15.43263559 -4.68729793 11.4300495 -2.9375 7.1875 C-2.51500977 6.14819336 -2.51500977 6.14819336 -2.08398438 5.08789062 C-1.39325027 3.39032376 -0.69716272 1.69493688 0 0 Z M1 6 C0.34 7.98 -0.32 9.96 -1 12 C0.65 12 2.3 12 4 12 C3.34 10.02 2.68 8.04 2 6 C1.67 6 1.34 6 1 6 Z " fill="#FFFFFF" transform="translate(145,202)"/>
<path d="M0 0 C0.99 0 1.98 0 3 0 C3.33 4.95 3.66 9.9 4 15 C5.65 15 7.3 15 9 15 C10.94090826 13.05909174 10.39919435 9.52706098 10.5625 6.9375 C10.64628906 5.64714844 10.73007813 4.35679687 10.81640625 3.02734375 C10.87699219 2.02832031 10.93757812 1.02929688 11 0 C11.99 0 12.98 0 14 0 C14.10853983 2.22808159 14.18583307 4.45769932 14.25 6.6875 C14.29640625 7.92886719 14.3428125 9.17023438 14.390625 10.44921875 C13.93646536 14.57752991 12.97558599 16.15820834 10 19 C6.71728602 19.547119 4.83684432 19.39283519 1.828125 17.98046875 C-0.53484878 15.42058049 -0.41297463 13.44184811 -0.3515625 10.04882812 C-0.31804687 9.31083984 -0.28453125 8.57285156 -0.25 7.8125 C-0.23195312 7.06291016 -0.21390625 6.31332031 -0.1953125 5.54101562 C-0.14824109 3.6934629 -0.07649766 1.84656841 0 0 Z " fill="#FFFFFF" transform="translate(139,174)"/>
<path d="M0 0 C0 0.99 0 1.98 0 3 C-2.97 2.505 -2.97 2.505 -6 2 C-6 2.99 -6 3.98 -6 5 C-4.5459375 5.928125 -4.5459375 5.928125 -3.0625 6.875 C0 9 0 9 1.125 11.5 C1 14 1 14 -0.5 16.375 C-3 18 -3 18 -6.75 17.75 C-7.8225 17.5025 -8.895 17.255 -10 17 C-10.66 15.35 -11.32 13.7 -12 12 C-8.85262818 12.69941596 -5.97411124 13.76078698 -3 15 C-3 13.68 -3 12.36 -3 11 C-4.134375 10.443125 -5.26875 9.88625 -6.4375 9.3125 C-9.84852846 7.36531371 -9.84852846 7.36531371 -11.0625 4.4375 C-11 2 -11 2 -9 -1 C-5.23375329 -2.25541557 -3.62811066 -1.37061958 0 0 Z " fill="#FFFFFF" transform="translate(172,175)"/>
<path d="M0 0 C3.3 0 6.6 0 10 0 C10 0.99 10 1.98 10 3 C7.69 3 5.38 3 3 3 C3 4.32 3 5.64 3 7 C5.31 7 7.62 7 10 7 C10 7.99 10 8.98 10 10 C7.69 10 5.38 10 3 10 C3 11.98 3 13.96 3 16 C5.31 16 7.62 16 10 16 C10 16.99 10 17.98 10 19 C6.7 19 3.4 19 0 19 C0 12.73 0 6.46 0 0 Z " fill="#FFFFFF" transform="translate(295,203)"/>
<path d="M0 0 C3.3 0 6.6 0 10 0 C10 0.99 10 1.98 10 3 C7.69 3 5.38 3 3 3 C3 4.32 3 5.64 3 7 C5.31 7 7.62 7 10 7 C10 7.99 10 8.98 10 10 C7.69 10 5.38 10 3 10 C3 11.98 3 13.96 3 16 C5.31 16 7.62 16 10 16 C10 16.99 10 17.98 10 19 C6.7 19 3.4 19 0 19 C0 12.73 0 6.46 0 0 Z " fill="#FFFFFF" transform="translate(127,203)"/>
<path d="M0 0 C2.375 0.9375 2.375 0.9375 3.6875 3 C4.0278125 3.9590625 4.0278125 3.9590625 4.375 4.9375 C1.735 4.6075 -0.905 4.2775 -3.625 3.9375 C-3.625 4.9275 -3.625 5.9175 -3.625 6.9375 C-2.201875 7.370625 -2.201875 7.370625 -0.75 7.8125 C2.375 8.9375 2.375 8.9375 4.375 10.9375 C4.70515665 14.04097254 4.88031294 16.09531176 3.25 18.8125 C0.49409116 20.46604531 -1.47575452 20.33115568 -4.625 19.9375 C-6.5 18.625 -6.5 18.625 -7.625 16.9375 C-7.625 15.9475 -7.625 14.9575 -7.625 13.9375 C-6.635 13.9375 -5.645 13.9375 -4.625 13.9375 C-4.295 14.5975 -3.965 15.2575 -3.625 15.9375 C-2.305 15.9375 -0.985 15.9375 0.375 15.9375 C0.705 14.6175 1.035 13.2975 1.375 11.9375 C0.42625 11.64875 -0.5225 11.36 -1.5 11.0625 C-4.625 9.9375 -4.625 9.9375 -6.625 7.9375 C-7 5.5 -7 5.5 -6.625 2.9375 C-4.41046264 0.47690293 -3.32389364 -0.07914032 0 0 Z " fill="#FFFFFF" transform="translate(231.625,202.0625)"/>
<path d="M0 0 C0.33 1.32 0.66 2.64 1 4 C-0.60875 3.7215625 -0.60875 3.7215625 -2.25 3.4375 C-5.40391546 3.0695432 -7.09818492 2.95534657 -10 4 C-10.89186894 7.48639678 -11.1999374 9.45899292 -9.9375 12.875 C-8.13608024 15.31290593 -8.13608024 15.31290593 -5 15.375 C-1.95505672 15.09397231 -1.95505672 15.09397231 1 14 C1 15.32 1 16.64 1 18 C-2.14911479 19.57455739 -4.52008816 19.34799118 -8 19 C-11.67203986 16.6879749 -13.57659494 15.17059045 -15.0625 11.0625 C-14.98327608 7.18052776 -14.20307512 5.19801227 -12 2 C-7.68913062 -0.96971002 -5.03274905 -1.31810094 0 0 Z " fill="#FFFFFF" transform="translate(312,174)"/>
<path d="M0 0 C7 0 7 0 8.9375 1.1875 C10.40319823 3.68780874 10.49852135 5.15130656 10 8 C8.1875 9.8125 8.1875 9.8125 6 11 C5.01 11 4.02 11 3 11 C3 13.64 3 16.28 3 19 C2.01 19 1.02 19 0 19 C0 12.73 0 6.46 0 0 Z M3 3 C3 4.65 3 6.3 3 8 C4.32 7.67 5.64 7.34 7 7 C7 5.68 7 4.36 7 3 C5.68 3 4.36 3 3 3 Z " fill="#FFFFFF" transform="translate(242,174)"/>
<path d="M0 0 C3.96 0 7.92 0 12 0 C12 0.99 12 1.98 12 3 C10.35 3 8.7 3 7 3 C7 8.28 7 13.56 7 19 C6.01 19 5.02 19 4 19 C4 13.72 4 8.44 4 3 C2.68 3 1.36 3 0 3 C0 2.01 0 1.02 0 0 Z " fill="#FFFFFF" transform="translate(282,203)"/>
<path d="M0 0 C3.96 0 7.92 0 12 0 C12 0.99 12 1.98 12 3 C10.35 3 8.7 3 7 3 C7 8.28 7 13.56 7 19 C6.01 19 5.02 19 4 19 C4 13.72 4 8.44 4 3 C2.68 3 1.36 3 0 3 C0 2.01 0 1.02 0 0 Z " fill="#FFFFFF" transform="translate(237,203)"/>
<path d="M0 0 C3.63 0 7.26 0 11 0 C11 0.99 11 1.98 11 3 C9.68 3 8.36 3 7 3 C7 8.28 7 13.56 7 19 C6.01 19 5.02 19 4 19 C4 13.72 4 8.44 4 3 C2.68 3 1.36 3 0 3 C0 2.01 0 1.02 0 0 Z " fill="#FFFFFF" transform="translate(254,203)"/>
<path d="M0 0 C3.63 0 7.26 0 11 0 C11 0.99 11 1.98 11 3 C9.68 3 8.36 3 7 3 C7 8.28 7 13.56 7 19 C6.01 19 5.02 19 4 19 C4 13.72 4 8.44 4 3 C2.68 3 1.36 3 0 3 C0 2.01 0 1.02 0 0 Z " fill="#FFFFFF" transform="translate(162,203)"/>
<path d="M0 0 C0.99 0 1.98 0 3 0 C3 5.28 3 10.56 3 16 C4.65 16 6.3 16 8 16 C8 16.99 8 17.98 8 19 C5.36 19 2.72 19 0 19 C0 12.73 0 6.46 0 0 Z " fill="#FFFFFF" transform="translate(156,203)"/>
<path d="M0 0 C0.99 0 1.98 0 3 0 C3 5.28 3 10.56 3 16 C4.65 16 6.3 16 8 16 C8 16.99 8 17.98 8 19 C5.36 19 2.72 19 0 19 C0 12.73 0 6.46 0 0 Z " fill="#FFFFFF" transform="translate(284,174)"/>
<path d="M0 0 C0.99 0 1.98 0 3 0 C3 5.28 3 10.56 3 16 C4.65 16 6.3 16 8 16 C8 16.99 8 17.98 8 19 C5.36 19 2.72 19 0 19 C0 12.73 0 6.46 0 0 Z " fill="#FFFFFF" transform="translate(109,174)"/>
<path d="M0 0 C0.99 0 1.98 0 3 0 C3 6.27 3 12.54 3 19 C2.01 19 1.02 19 0 19 C0 12.73 0 6.46 0 0 Z " fill="#FFFFFF" transform="translate(250,203)"/>
<path d="M0 0 C0.99 0 1.98 0 3 0 C3 6.27 3 12.54 3 19 C2.01 19 1.02 19 0 19 C0 12.73 0 6.46 0 0 Z " fill="#FFFFFF" transform="translate(199,203)"/>
<path d="M0 0 C0.99 0 1.98 0 3 0 C3 6.27 3 12.54 3 19 C2.01 19 1.02 19 0 19 C0 12.73 0 6.46 0 0 Z " fill="#FFFFFF" transform="translate(293,174)"/>
<path d="M0 0 C0.99 0 1.98 0 3 0 C3 6.27 3 12.54 3 19 C2.01 19 1.02 19 0 19 C0 12.73 0 6.46 0 0 Z " fill="#FFFFFF" transform="translate(175,174)"/>
<path d="M0 0 C0.99 0 1.98 0 3 0 C3 6.27 3 12.54 3 19 C2.01 19 1.02 19 0 19 C0 12.73 0 6.46 0 0 Z " fill="#FFFFFF" transform="translate(156,174)"/>
</svg>
