<?xml version="1.0" encoding="UTF-8"?>
<svg version="1.1" xmlns="http://www.w3.org/2000/svg" width="651" height="74">
<path d="M0 0 C0.79575439 0.00499512 1.59150879 0.00999023 2.41137695 0.01513672 C8.74222887 0.20334247 13.14892237 1.4442292 18.125 5.5 C18.75535156 5.95761719 19.38570312 6.41523438 20.03515625 6.88671875 C26.03519853 11.53643304 30.54373061 18.02490836 32.125 25.5 C33.0826359 35.63620767 31.42928136 43.72479774 25 51.75 C19.2480435 57.87465346 12.21894354 62.13443464 3.8046875 62.73828125 C-7.22941168 62.95352548 -14.60334616 61.51175181 -23.25 54.3125 C-29.65668703 48.0770609 -31.96548377 43.07943319 -32.2878418 34.21020508 C-32.38558077 25.20176858 -31.71089043 17.91128915 -25.38671875 10.94140625 C-17.82783109 3.73409476 -10.47179921 -0.08611495 0 0 Z M-14.1875 19.9375 C-17.5085199 24.98053022 -17.50224301 30.61628386 -16.875 36.5 C-15.55306834 40.9265826 -13.62882789 43.80001696 -10.25 46.9375 C-4.41795322 49.63752166 0.73742879 50.1653887 6.9375 48.4375 C11.55591189 45.63023003 14.17591929 42.48444149 16.5 37.625 C17.76033633 31.32331837 16.47163083 25.81437174 13.40234375 20.265625 C11.17991354 17.19364196 8.68925376 15.54175799 5.125 14.5 C-2.57230887 13.52664844 -8.64472091 14.09511123 -14.1875 19.9375 Z " fill="#FAFAF9" transform="translate(80.875,11.5)"/>
<path d="M0 0 C4.29 0 8.58 0 13 0 C13 7.92 13 15.84 13 24 C25.87 24.495 25.87 24.495 39 25 C38.96041007 17.14657221 38.96041007 17.14657221 38.90991211 9.29321289 C38.90741455 8.3211792 38.90491699 7.34914551 38.90234375 6.34765625 C38.89710693 5.34742432 38.89187012 4.34719238 38.88647461 3.31665039 C39 1 39 1 40 0 C41.83115883 -0.09851171 43.66619933 -0.12972629 45.5 -0.125 C46.5003125 -0.12757812 47.500625 -0.13015625 48.53125 -0.1328125 C51 0 51 0 52 1 C52.09386381 2.8718094 52.11743804 4.7471806 52.11352539 6.62133789 C52.11344986 7.82250748 52.11337433 9.02367706 52.11329651 10.26124573 C52.10813522 11.5685112 52.10297394 12.87577667 52.09765625 14.22265625 C52.09579198 15.56644132 52.09436812 16.91022707 52.09336853 18.25401306 C52.08954402 21.79682277 52.07971432 25.3395917 52.06866455 28.88238525 C52.05844899 32.49515227 52.0538706 36.10792584 52.04882812 39.72070312 C52.03809198 46.81382039 52.02049572 53.90690325 52 61 C47.71 61 43.42 61 39 61 C39 52.75 39 44.5 39 36 C30.42 36.33 21.84 36.66 13 37 C13 44.92 13 52.84 13 61 C8.71 61 4.42 61 0 61 C0 40.87 0 20.74 0 0 Z " fill="#FAFAF9" transform="translate(385,12)"/>
<path d="M0 0 C1.1859375 0.00257812 2.371875 0.00515625 3.59375 0.0078125 C4.7796875 0.00523438 5.965625 0.00265625 7.1875 0 C10.09375 0.1328125 10.09375 0.1328125 11.09375 1.1328125 C11.24995555 2.54609197 11.34431173 3.9663584 11.41015625 5.38671875 C11.47299805 6.66772461 11.47299805 6.66772461 11.53710938 7.97460938 C11.57642578 8.87244141 11.61574219 9.77027344 11.65625 10.6953125 C11.69943359 11.59701172 11.74261719 12.49871094 11.78710938 13.42773438 C11.89353142 15.66259735 11.99554988 17.89757558 12.09375 20.1328125 C12.76470703 19.42705078 12.76470703 19.42705078 13.44921875 18.70703125 C16.25256869 16.0235395 19.11250462 15.26364522 22.90625 14.7578125 C27.91891113 15.34753734 31.8140679 17.0450637 35.56103516 20.4765625 C41.06863443 27.72036891 39.6277949 37.01847781 39.40625 45.6328125 C39.38113817 47.33069637 39.35833008 49.02861596 39.33789062 50.7265625 C39.28311688 54.86286918 39.19700713 58.99744367 39.09375 63.1328125 C36.78131208 63.15966662 34.4687873 63.17914091 32.15625 63.1953125 C30.86847656 63.20691406 29.58070313 63.21851563 28.25390625 63.23046875 C25.09375 63.1328125 25.09375 63.1328125 24.09375 62.1328125 C23.93403023 59.75942611 23.8345067 57.41162978 23.77734375 55.03515625 C23.75656265 54.32629776 23.73578156 53.61743927 23.71437073 52.88710022 C23.64880402 50.61493945 23.5899577 48.34265986 23.53125 46.0703125 C23.48807151 44.53319067 23.44445745 42.996081 23.40039062 41.45898438 C23.29311551 37.6837166 23.19186863 33.9083289 23.09375 30.1328125 C21.835625 30.0915625 20.5775 30.0503125 19.28125 30.0078125 C18.57355469 29.98460938 17.86585938 29.96140625 17.13671875 29.9375 C14.78015281 30.00026788 14.78015281 30.00026788 12.09375 32.1328125 C11.58120872 35.3329231 11.58120872 35.3329231 11.58203125 39.109375 C11.56408005 39.7946225 11.54612885 40.47987 11.52763367 41.18588257 C11.47341292 43.37646309 11.43959947 45.5668244 11.40625 47.7578125 C11.37308706 49.24221809 11.33859835 50.72659471 11.30273438 52.2109375 C11.21517939 55.85159601 11.15521999 59.49124554 11.09375 63.1328125 C6.14375 63.1328125 1.19375 63.1328125 -3.90625 63.1328125 C-3.92880449 55.0662866 -3.94716709 46.99978504 -3.95806217 38.93323612 C-3.96329014 35.18798213 -3.97038622 31.44275074 -3.98168945 27.69750977 C-3.99252141 24.08599563 -3.99852749 20.47450329 -4.00112724 16.86297417 C-4.00298094 15.48220921 -4.00660049 14.1014455 -4.01198006 12.72068977 C-4.01919447 10.79305298 -4.01965809 8.86539443 -4.01977539 6.93774414 C-4.021996 5.83854141 -4.02421661 4.73933868 -4.02650452 3.60682678 C-3.85229293 0.0227455 -3.63136824 0.16594962 0 0 Z " fill="#FAFAF9" transform="translate(164.90625,9.8671875)"/>
<path d="M0 0 C0.89589844 -0.01417969 1.79179688 -0.02835938 2.71484375 -0.04296875 C5.0625 0.1875 5.0625 0.1875 7.0625 2.1875 C7.28955078 4.25048828 7.28955078 4.25048828 7.2578125 6.7578125 C7.24814453 8.10166016 7.24814453 8.10166016 7.23828125 9.47265625 C7.22152344 10.40980469 7.20476563 11.34695312 7.1875 12.3125 C7.17847656 13.25738281 7.16945313 14.20226563 7.16015625 15.17578125 C7.13654522 17.51327292 7.10361516 19.85026123 7.0625 22.1875 C7.64 21.56875 8.2175 20.95 8.8125 20.3125 C12.82195932 16.52578842 16.19119589 15.61671776 21.61328125 15.7421875 C26.14535448 16.56620081 29.79719836 19.00088033 33.0625 22.1875 C36.14336137 27.1641678 36.47131476 30.98859699 36.35546875 36.6484375 C36.35122391 37.43900543 36.34697906 38.22957336 36.34260559 39.0440979 C36.32591301 41.5505894 36.28827983 44.05625461 36.25 46.5625 C36.23494092 48.26951958 36.22125466 49.97655185 36.20898438 51.68359375 C36.17604056 55.85187725 36.12432493 60.01954889 36.0625 64.1875 C34.25007948 64.21437279 32.43754767 64.23383715 30.625 64.25 C29.61566406 64.26160156 28.60632813 64.27320312 27.56640625 64.28515625 C25.0625 64.1875 25.0625 64.1875 24.0625 63.1875 C23.90269563 60.74141002 23.80320553 58.32018942 23.74609375 55.87109375 C23.72531265 55.14003922 23.70453156 54.40898468 23.68312073 53.65577698 C23.61754976 51.31228344 23.55870568 48.96867461 23.5 46.625 C23.45682192 45.03970145 23.41320787 43.45441471 23.36914062 41.86914062 C23.2618608 37.97537963 23.1606151 34.08150228 23.0625 30.1875 C19.27340261 29.16544083 16.00490326 28.83549971 12.0625 29.1875 C9.01057231 31.40655625 8.15620889 32.62313163 7.5324707 36.37963867 C7.51788818 37.6091626 7.50330566 38.83868652 7.48828125 40.10546875 C7.47411667 40.76331863 7.45995209 41.42116852 7.44535828 42.09895325 C7.40356089 44.19113709 7.38823328 46.28245792 7.375 48.375 C7.34596367 50.4778541 7.3114805 52.58048912 7.27250671 54.68318176 C7.23974375 56.58315619 7.22170063 58.48336729 7.2043457 60.38354492 C7.0625 63.1875 7.0625 63.1875 6.0625 64.1875 C4.04285801 64.25994053 2.02082876 64.27127188 0 64.25 C-1.10472656 64.24097656 -2.20945312 64.23195313 -3.34765625 64.22265625 C-4.20230469 64.21105469 -5.05695312 64.19945313 -5.9375 64.1875 C-5.9606271 55.99059439 -5.97841696 47.79370232 -5.98931217 39.59677219 C-5.9945402 35.79098423 -6.00163638 31.98521852 -6.01293945 28.17944336 C-6.0237712 24.50957456 -6.02977744 20.83972722 -6.03237724 17.16984367 C-6.03423097 15.76675008 -6.0378506 14.36365771 -6.04323006 12.9605732 C-6.05044419 11.0018032 -6.05090809 9.0430118 -6.05102539 7.08422852 C-6.053246 5.96726089 -6.05546661 4.85029327 -6.05775452 3.69947815 C-5.84740251 -0.69453255 -3.91822892 0.02810781 0 0 Z " fill="#FAFAF9" transform="translate(614.9375,8.8125)"/>
<path d="M0 0 C5.31054439 2.12421776 8.23663441 4.89840199 11 10 C12.27861341 13.72849985 12.12943568 17.40754353 12.1328125 21.3203125 C12.13376923 22.0201828 12.13472595 22.7200531 12.13571167 23.44113159 C12.13639028 24.91534516 12.13455827 26.38956176 12.13037109 27.86376953 C12.12500216 30.12409119 12.13033506 32.38421561 12.13671875 34.64453125 C12.13605823 36.07812544 12.1347776 37.51171951 12.1328125 38.9453125 C12.13168457 40.25000488 12.13055664 41.55469727 12.12939453 42.89892578 C12 46 12 46 11 48 C9.04174127 48.02694851 7.08337774 48.04637218 5.125 48.0625 C3.48917969 48.07990234 3.48917969 48.07990234 1.8203125 48.09765625 C-1 48 -1 48 -3 47 C-3.01458252 46.0713916 -3.02916504 45.1427832 -3.04418945 44.18603516 C-3.10519172 40.74533504 -3.1793305 37.30544348 -3.26245117 33.86523438 C-3.29573463 32.37543428 -3.32375597 30.88550705 -3.34643555 29.39550781 C-3.37992071 27.25530748 -3.43222789 25.11627581 -3.48828125 22.9765625 C-3.51446533 21.68830566 -3.54064941 20.40004883 -3.56762695 19.07275391 C-3.71031006 18.05874512 -3.85299316 17.04473633 -4 16 C-7.46923881 13.68717413 -8.92205575 13.57521414 -13 14 C-14.79568885 15.06262522 -14.79568885 15.06262522 -16 17 C-16.39881563 19.97088924 -16.39881563 19.97088924 -16.2578125 23.34765625 C-16.24363281 24.59224609 -16.22945313 25.83683594 -16.21484375 27.11914062 C-16.18519531 28.42044922 -16.15554688 29.72175781 -16.125 31.0625 C-16.08177967 33.6366523 -16.04250991 36.21087496 -16.0078125 38.78515625 C-15.98348145 39.92863525 -15.95915039 41.07211426 -15.93408203 42.25024414 C-16 45 -16 45 -17 47 C-19.31243792 47.02685412 -21.6249627 47.04632841 -23.9375 47.0625 C-25.22527344 47.07410156 -26.51304687 47.08570313 -27.83984375 47.09765625 C-31 47 -31 47 -32 46 C-32.10312037 44.62940407 -32.13848953 43.25360341 -32.14526367 41.87915039 C-32.15164352 41.00476822 -32.15802338 40.13038605 -32.16459656 39.22950745 C-32.16570938 38.27849655 -32.1668222 37.32748566 -32.16796875 36.34765625 C-32.17129715 35.37718857 -32.17462555 34.40672089 -32.17805481 33.40684509 C-32.1831283 31.3497668 -32.18546301 29.29268025 -32.18530273 27.2355957 C-32.18748826 24.07945256 -32.20563691 20.92365929 -32.22460938 17.76757812 C-32.22754333 15.7734387 -32.22952811 13.77929761 -32.23046875 11.78515625 C-32.23765427 10.83616959 -32.24483978 9.88718292 -32.25224304 8.90943909 C-32.24916641 8.03190475 -32.24608978 7.15437042 -32.24291992 6.25024414 C-32.24434494 5.4760463 -32.24576996 4.70184845 -32.24723816 3.90419006 C-32 2 -32 2 -30 0 C-27.1796875 -0.1953125 -27.1796875 -0.1953125 -23.875 -0.125 C-22.77929688 -0.10695313 -21.68359375 -0.08890625 -20.5546875 -0.0703125 C-19.71164062 -0.04710938 -18.86859375 -0.02390625 -18 0 C-17.34 1.32 -16.68 2.64 -16 4 C-14.88625 3.360625 -13.7725 2.72125 -12.625 2.0625 C-7.79288382 -0.71149262 -5.70114389 -1.21499788 0 0 Z " fill="#FAFAF9" transform="translate(279,26)"/>
<path d="M0 0 C5.92803868 3.32596229 9.46979276 8.89806504 11.3671875 15.328125 C11.3671875 19.288125 11.3671875 23.248125 11.3671875 27.328125 C1.1371875 27.328125 -9.0928125 27.328125 -19.6328125 27.328125 C-17.33021648 31.93331704 -16.38098105 32.6574731 -11.6328125 34.328125 C-6.81377377 34.4856705 -3.31896982 33.46818494 0.3671875 30.328125 C1.3571875 30.328125 2.3471875 30.328125 3.3671875 30.328125 C4.38747615 31.64599785 5.38690134 32.98023153 6.3671875 34.328125 C7.3571875 34.658125 8.3471875 34.988125 9.3671875 35.328125 C8.9885055 37.97316142 8.58354833 39.12098133 6.625 40.99609375 C5.92117188 41.49753906 5.21734375 41.99898437 4.4921875 42.515625 C3.44417969 43.27939453 3.44417969 43.27939453 2.375 44.05859375 C-3.26563039 47.62514021 -10.22254054 46.8129954 -16.6328125 46.328125 C-23.71763128 44.63417802 -28.5087098 39.0689534 -32.6328125 33.328125 C-35.50721018 27.45800766 -35.64256736 21.14947275 -33.98046875 14.859375 C-31.05194016 7.51920033 -26.23054574 2.34880508 -19.1328125 -1.109375 C-12.16304335 -3.82441155 -6.73850957 -2.90841446 0 0 Z M-17.6328125 12.328125 C-18.6228125 13.813125 -18.6228125 13.813125 -19.6328125 15.328125 C-19.3028125 16.318125 -18.9728125 17.308125 -18.6328125 18.328125 C-13.3528125 18.328125 -8.0728125 18.328125 -2.6328125 18.328125 C-3.05998051 13.372189 -3.05998051 13.372189 -5.9453125 11.515625 C-10.33382543 9.57651464 -13.48910435 10.25627093 -17.6328125 12.328125 Z " fill="#FAFAF9" transform="translate(327.6328125,27.671875)"/>
<path d="M0 0 C5.03840979 3.72311966 9.29505941 9.92579458 10.3046875 16.1328125 C10.38332031 17.09832031 10.46195312 18.06382813 10.54296875 19.05859375 C10.62933594 20.03183594 10.71570313 21.00507812 10.8046875 22.0078125 C10.82144531 22.78769531 10.83820313 23.56757812 10.85546875 24.37109375 C9.85546875 25.37109375 9.85546875 25.37109375 6.71264648 25.48461914 C5.32144178 25.48446008 3.93023114 25.47876881 2.5390625 25.46875 C1.80800797 25.46733505 1.07695343 25.4659201 0.32374573 25.46446228 C-2.01988757 25.45884783 -4.36342664 25.44629297 -6.70703125 25.43359375 C-8.29231633 25.42858061 -9.87760291 25.42401738 -11.46289062 25.41992188 C-15.35680735 25.40887372 -19.2506533 25.39159947 -23.14453125 25.37109375 C-23.14453125 26.03109375 -23.14453125 26.69109375 -23.14453125 27.37109375 C-22.48453125 27.37109375 -21.82453125 27.37109375 -21.14453125 27.37109375 C-21.02078125 28.15484375 -20.89703125 28.93859375 -20.76953125 29.74609375 C-19.42234503 32.50220773 -19.42234503 32.50220773 -17.03125 33.21875 C-11.49329692 34.48768917 -7.52972867 34.48293588 -2.14453125 32.37109375 C-1.17515625 31.99984375 -0.20578125 31.62859375 0.79296875 31.24609375 C1.47359375 30.95734375 2.15421875 30.66859375 2.85546875 30.37109375 C5.33046875 32.35109375 5.33046875 32.35109375 7.85546875 34.37109375 C7.47479078 36.99038547 7.06842557 38.16301008 5.1484375 40.0390625 C4.45363281 40.54050781 3.75882812 41.04195312 3.04296875 41.55859375 C2.35589844 42.06777344 1.66882813 42.57695313 0.9609375 43.1015625 C-4.23646823 46.23543423 -10.25876931 45.81546039 -16.14453125 45.37109375 C-23.0340115 43.38598927 -28.64639343 38.82559524 -32.828125 33.04296875 C-35.72331442 27.16667925 -35.42057657 20.08553939 -34.76953125 13.68359375 C-31.12783853 6.26014321 -25.27671161 -0.24964094 -17.3984375 -3.140625 C-11.23674634 -4.4754801 -5.4644197 -2.97761792 0 0 Z M-21.14453125 11.37109375 C-21.80453125 13.35109375 -22.46453125 15.33109375 -23.14453125 17.37109375 C-15.88453125 17.37109375 -8.62453125 17.37109375 -1.14453125 17.37109375 C-2.6457853 11.84878332 -2.6457853 11.84878332 -6.14453125 8.37109375 C-12.0860956 6.48111042 -16.51643166 6.96875511 -21.14453125 11.37109375 Z " fill="#FAFAF9" transform="translate(481.14453125,28.62890625)"/>
<path d="M0 0 C4.07750011 5.27676484 4.37245868 10.94139491 4.3203125 17.43359375 C4.3174826 18.13396255 4.31465271 18.83433136 4.31173706 19.55592346 C4.30064885 21.7666317 4.27556703 23.97691671 4.25 26.1875 C4.23995546 27.69725972 4.2308322 29.20702588 4.22265625 30.71679688 C4.20074714 34.39466597 4.16629758 38.0722916 4.125 41.75 C0.495 41.75 -3.135 41.75 -6.875 41.75 C-7.205 40.76 -7.535 39.77 -7.875 38.75 C-8.4525 39.03875 -9.03 39.3275 -9.625 39.625 C-10.3675 39.99625 -11.11 40.3675 -11.875 40.75 C-12.49246094 41.09675781 -13.10992188 41.44351563 -13.74609375 41.80078125 C-18.60846818 43.96877572 -23.69545975 43.12352108 -28.625 41.5625 C-32.72426807 39.27636973 -36.07485519 37.37763603 -37.5078125 32.671875 C-38.39133817 27.14513995 -37.59326401 23.60404288 -34.875 18.75 C-31.21015281 14.56013257 -26.51835198 12.96072876 -21.08203125 12.52734375 C-16.52239825 12.48427029 -12.33353157 12.75385961 -7.875 13.75 C-8.06328772 11.30519921 -8.06328772 11.30519921 -8.875 8.75 C-12.03828472 6.59984103 -14.74163782 6.50678304 -18.5 6.5625 C-19.46164062 6.56894531 -20.42328125 6.57539062 -21.4140625 6.58203125 C-23.87910451 6.5915235 -23.87910451 6.5915235 -25.875 7.75 C-27.87460012 7.789992 -29.87547242 7.79346799 -31.875 7.75 C-32.535 4.78 -33.195 1.81 -33.875 -1.25 C-23.28121304 -7.05135953 -9.77928862 -7.65335631 0 0 Z M-25.875 23.75 C-26.12515873 27.16642759 -26.12515873 27.16642759 -25.875 30.75 C-21.60325478 33.59783015 -17.88309416 33.23723085 -12.875 32.75 C-9.74492583 31.9915942 -9.74492583 31.9915942 -7.875 29.75 C-7.16316547 27.01590828 -7.0152699 24.60215457 -6.875 21.75 C-13.74751157 19.82196508 -19.68424644 19.9403055 -25.875 23.75 Z " fill="#FAFAF9" transform="translate(534.875,31.25)"/>
<path d="M0 0 C-0.81825274 3.65433265 -2.26434698 6.6796203 -4 10 C-4.763125 9.855625 -5.52625 9.71125 -6.3125 9.5625 C-11.19099604 8.81832264 -16.08378535 8.41114251 -21 8 C-21 8.66 -21 9.32 -21 10 C-19.98679688 10.37511719 -18.97359375 10.75023438 -17.9296875 11.13671875 C-16.57788977 11.65303038 -15.2263403 12.16999234 -13.875 12.6875 C-12.87726563 13.05391602 -12.87726563 13.05391602 -11.859375 13.42773438 C-7.09553822 15.27255352 -3.68862237 17.44031124 0 21 C1.75179535 26.25538604 1.64761951 30.48888781 -0.5 35.5 C-0.995 36.325 -1.49 37.15 -2 38 C-2.66 38 -3.32 38 -4 38 C-4 38.66 -4 39.32 -4 40 C-10.92567114 43.7776388 -18.19189141 44.35852376 -25.8203125 42.203125 C-30.11659989 40.535909 -34.15748054 38.56167964 -38 36 C-35.03 31.545 -35.03 31.545 -32 27 C-29.1355811 27.71610472 -26.85358393 28.43850942 -24.1875 29.5625 C-20.26203628 31.07965859 -17.18000894 31.26125056 -13 31 C-13 30.01 -13 29.02 -13 28 C-14.423125 27.38125 -14.423125 27.38125 -15.875 26.75 C-16.50792969 26.47414062 -17.14085937 26.19828125 -17.79296875 25.9140625 C-19.36265242 25.26396342 -20.95139032 24.65907299 -22.55078125 24.0859375 C-28.59300126 21.88388398 -32.03058991 19.93882017 -35 14 C-35.50921186 7.88945765 -35.08852244 4.86202669 -31 0 C-21.61337536 -9.13293209 -10.24285577 -5.79784289 0 0 Z " fill="#FAFAF9" transform="translate(243,31)"/>
<path d="M0 0 C0.804375 0.680625 1.60875 1.36125 2.4375 2.0625 C2.4375 3.3825 2.4375 4.7025 2.4375 6.0625 C1.7775 6.0625 1.1175 6.0625 0.4375 6.0625 C0.1075 7.0525 -0.2225 8.0425 -0.5625 9.0625 C-2.4375 11.25 -2.4375 11.25 -4.5625 13.0625 C-5.5525 13.0625 -6.5425 13.0625 -7.5625 13.0625 C-8.01753906 12.57652344 -8.47257812 12.09054688 -8.94140625 11.58984375 C-11.13645117 9.52174119 -12.5252627 9.62947329 -15.5 9.625 C-18.79843825 9.74039726 -20.2686496 9.88332293 -23.125 11.625 C-25.74848016 16.07350984 -25.77401792 19.7933925 -24.9375 24.8125 C-23.81535888 28.13448133 -23.81535888 28.13448133 -21.3125 30 C-18.03423849 31.26660104 -16.05179378 31.56097054 -12.5625 31.0625 C-9.23441761 29.17836085 -9.23441761 29.17836085 -6.5625 27.0625 C-3.11511628 28.59467054 -0.30940118 30.46820444 2.4375 33.0625 C2.4375 34.3825 2.4375 35.7025 2.4375 37.0625 C0.57421875 38.73046875 0.57421875 38.73046875 -1.875 40.25 C-2.67550781 40.75917969 -3.47601563 41.26835938 -4.30078125 41.79296875 C-10.01650741 45.00127791 -16.18580817 44.60583942 -22.5625 44.0625 C-28.07926282 42.44869339 -31.7438212 39.31759924 -35.5625 35.0625 C-36.3978125 34.2890625 -36.3978125 34.2890625 -37.25 33.5 C-40.92700866 29.47280004 -40.8693987 25.29718077 -40.8125 20.0625 C-40.82023437 19.3509375 -40.82796875 18.639375 -40.8359375 17.90625 C-40.82187762 14.13820168 -40.65928961 11.25760797 -38.5625 8.0625 C-37.9025 8.0625 -37.2425 8.0625 -36.5625 8.0625 C-36.29695313 7.46566406 -36.03140625 6.86882813 -35.7578125 6.25390625 C-32.77285332 0.7814811 -27.34594696 -2.59250175 -21.52734375 -4.46875 C-13.92068837 -6.28345904 -6.5655723 -3.91766461 0 0 Z " fill="#FAFAF9" transform="translate(155.5625,29.9375)"/>
<path d="M0 0 C9.27734375 -0.09765625 9.27734375 -0.09765625 12 0 C13 1 13 1 13.09765625 3.50390625 C13.08605469 4.51324219 13.07445312 5.52257812 13.0625 6.5625 C13.05347656 7.57441406 13.04445313 8.58632813 13.03515625 9.62890625 C13.02355469 10.41136719 13.01195312 11.19382812 13 12 C13.69867187 11.98839844 14.39734375 11.97679687 15.1171875 11.96484375 C16.02726563 11.95582031 16.93734375 11.94679688 17.875 11.9375 C19.23238281 11.92009766 19.23238281 11.92009766 20.6171875 11.90234375 C23 12 23 12 25 13 C25 16.3 25 19.6 25 23 C20.94863773 23.63550781 17.09744212 24.05661405 13 24 C12.97112764 27.81248426 12.95324508 31.6249407 12.9375 35.4375 C12.92912109 36.52611328 12.92074219 37.61472656 12.91210938 38.73632812 C12.90888672 39.77080078 12.90566406 40.80527344 12.90234375 41.87109375 C12.89710693 42.82943115 12.89187012 43.78776855 12.88647461 44.77514648 C12.7494687 46.97285339 12.7494687 46.97285339 14 48 C15.85287502 48.07226502 17.70833878 48.0838122 19.5625 48.0625 C20.57441406 48.05347656 21.58632813 48.04445312 22.62890625 48.03515625 C23.41136719 48.02355469 24.19382812 48.01195312 25 48 C25 50.97 25 53.94 25 57 C18.60611654 60.19694173 13.79046802 61.23919147 6.75 58.9375 C3.23546453 56.46135001 1.37974069 54.020923 0 50 C-0.47960808 45.34215482 -0.37750554 40.73852059 -0.25 36.0625 C-0.23195313 34.80630859 -0.21390625 33.55011719 -0.1953125 32.25585938 C-0.14837594 29.16978084 -0.08272414 26.08529219 0 23 C-1.65 23 -3.3 23 -5 23 C-5 19.7 -5 16.4 -5 13 C-4.01 12.67 -3.02 12.34 -2 12 C-1.34 12.33 -0.68 12.66 0 13 C0 8.71 0 4.42 0 0 Z " fill="#FAFAF9" transform="translate(576,14)"/>
<path d="M0 0 C0 4.95 0 9.9 0 15 C-1.423125 15.2475 -2.84625 15.495 -4.3125 15.75 C-8.02389594 16.57383224 -8.02389594 16.57383224 -11 18.875 C-12.76041083 22.61587301 -13.14205021 26.05824311 -13.28125 30.16796875 C-13.31863281 31.14314453 -13.35601562 32.11832031 -13.39453125 33.12304688 C-13.4652466 35.17772055 -13.53555454 37.23240828 -13.60546875 39.28710938 C-13.64285156 40.25841797 -13.68023437 41.22972656 -13.71875 42.23046875 C-13.76418945 43.56694458 -13.76418945 43.56694458 -13.81054688 44.93041992 C-14 47 -14 47 -15 48 C-17.16480797 48.0989294 -19.33293785 48.129711 -21.5 48.125 C-22.6859375 48.12757812 -23.871875 48.13015625 -25.09375 48.1328125 C-28 48 -28 48 -29 47 C-29.09813987 45.56259647 -29.1279828 44.12043673 -29.12939453 42.6796875 C-29.13254669 41.76203613 -29.13569885 40.84438477 -29.13894653 39.89892578 C-29.1369223 38.90103027 -29.13489807 37.90313477 -29.1328125 36.875 C-29.13376923 35.85776855 -29.13472595 34.84053711 -29.13571167 33.79248047 C-29.13639361 31.63704364 -29.13453835 29.48160478 -29.13037109 27.32617188 C-29.12502305 24.01427629 -29.13031563 20.70251633 -29.13671875 17.390625 C-29.13605797 15.30208303 -29.13477681 13.21354115 -29.1328125 11.125 C-29.13483673 10.12710449 -29.13686096 9.12920898 -29.13894653 8.10107422 C-29.13579437 7.18342285 -29.13264221 6.26577148 -29.12939453 5.3203125 C-29.12859894 4.50836426 -29.12780334 3.69641602 -29.12698364 2.85986328 C-29 1 -29 1 -28 0 C-26.02287193 -0.09900199 -24.04209962 -0.12970773 -22.0625 -0.125 C-20.44021484 -0.12886719 -20.44021484 -0.12886719 -18.78515625 -0.1328125 C-16 0 -16 0 -14 1 C-13.375 3.0625 -13.375 3.0625 -13 5 C-12.443125 4.38125 -11.88625 3.7625 -11.3125 3.125 C-7.39148946 -0.47809077 -5.2122575 -1.30306438 0 0 Z " fill="#FAFAF9" transform="translate(372,26)"/>
<path d="M0 0 C1.34771484 -0.00386719 1.34771484 -0.00386719 2.72265625 -0.0078125 C4.9375 0.125 4.9375 0.125 5.9375 1.125 C6.0315067 3.08869153 6.05493381 5.05579199 6.05102539 7.02172852 C6.05094986 8.28296036 6.05087433 9.5441922 6.05079651 10.84364319 C6.0456891 12.23039794 6.04047309 13.61715229 6.03515625 15.00390625 C6.03329201 16.41495209 6.03186814 17.82599857 6.03086853 19.23704529 C6.02704379 22.95740535 6.0172139 26.6777266 6.00616455 30.39807129 C5.99594948 34.19180781 5.99137071 37.98555058 5.98632812 41.77929688 C5.97559158 49.22788436 5.95799515 56.6764318 5.9375 64.125 C1.6475 64.125 -2.6425 64.125 -7.0625 64.125 C-7.0625 43.335 -7.0625 22.545 -7.0625 1.125 C-4.56110398 -0.12569801 -2.78857309 -0.00802467 0 0 Z " fill="#FAFAF9" transform="translate(557.0625,8.875)"/>
<path d="M0 0 C0.99 0.33 1.98 0.66 3 1 C3.20625 1.969375 3.4125 2.93875 3.625 3.9375 C5.04439445 9.83344617 9.9406274 13.75165661 14 18 C19 23.58486239 19 23.58486239 19 26 C19.66 26 20.32 26 21 26 C27.43787811 36.44312289 28.42327485 47.93666671 28 60 C26.515 59.505 26.515 59.505 25 59 C24.40234375 57.05859375 24.40234375 57.05859375 23.9375 54.4375 C21.20719685 43.35738088 13.5408981 33.69323255 6.46875 24.953125 C0.50671119 17.0248819 -0.16860328 9.64785421 0 0 Z " fill="#FAFAF9" transform="translate(0,12)"/>
<path d="M0 0 C0.99 0.33 1.98 0.66 3 1 C2.09165599 14.91200569 0.60002805 27.20290244 -9 38 C-9.70253906 38.51046875 -10.40507812 39.0209375 -11.12890625 39.546875 C-13.29139726 40.94868898 -13.29139726 40.94868898 -14 44 C-14.99 44 -15.98 44 -17 44 C-17.44681407 35.7753114 -16.66645331 29.89843783 -11.0625 23.5 C-10.28519531 22.63375 -10.28519531 22.63375 -9.4921875 21.75 C-5.34036373 16.88084542 -3.80714681 12.34186778 -3 6 C-1.4375 2.5625 -1.4375 2.5625 0 0 Z " fill="#FAFAF9" transform="translate(41,0)"/>
<path d="M0 0 C2.99225629 0.66358045 4.21065307 1.91817279 5.90234375 4.421875 C6.96524121 7.38280364 7.00627717 8.98535463 6.27734375 12.046875 C4.52242246 15.07810268 3.14019282 16.09730038 -0.09765625 17.421875 C-3.65800665 17.34921479 -5.53487563 16.80693543 -8.47265625 14.796875 C-10.75986561 11.45403055 -10.6551696 9.39415762 -10.09765625 5.421875 C-7.62715158 0.58380336 -5.16691574 -0.34638541 0 0 Z " fill="#FAFAF9" transform="translate(21.09765625,11.578125)"/>
</svg>
