<?xml version="1.0" encoding="UTF-8"?>
<svg version="1.1" xmlns="http://www.w3.org/2000/svg" width="434" height="267">
<path d="M0 0 C0.75942902 0.00299103 1.51885803 0.00598206 2.30130005 0.00906372 C14.53301702 0.06549035 26.74018156 0.53620313 38.58325195 3.91601562 C41.00270923 4.44375431 43.19603369 4.48775284 45.671875 4.47265625 C46.60644531 4.46943359 47.54101562 4.46621094 48.50390625 4.46289062 C49.95603516 4.45032227 49.95603516 4.45032227 51.4375 4.4375 C52.91283203 4.43073242 52.91283203 4.43073242 54.41796875 4.42382812 C56.84120791 4.41206483 59.26432273 4.39562684 61.6875 4.375 C59.00692436 15.27600759 55.2505232 25.68593041 51.6875 36.375 C68.5175 36.705 85.3475 37.035 102.6875 37.375 C102.6875 38.035 102.6875 38.695 102.6875 39.375 C101.87925781 39.76171875 101.07101562 40.1484375 100.23828125 40.546875 C98.63533203 41.32804687 98.63533203 41.32804687 97 42.125 C95.94425781 42.63546875 94.88851562 43.1459375 93.80078125 43.671875 C84.17839524 48.93581515 80.53491709 56.72608483 77.34765625 66.84375 C76.75345615 68.64980571 76.15904879 70.45579324 75.56445312 72.26171875 C74.65367465 75.07087273 73.74790595 77.88153635 72.84692383 80.69384766 C71.96419553 83.43569517 71.06304432 86.17098651 70.16015625 88.90625 C69.90057632 89.73668823 69.6409964 90.56712646 69.37355042 91.42272949 C65.45185602 103.23731218 58.14993838 109.02527879 47.31640625 114.59375 C22.96464343 125.43500697 -8.91099219 123.59866363 -33.3125 114.375 C-39.09990486 111.61787349 -43.38437149 108.23125701 -46.3125 102.375 C-46.38200541 100.83476004 -46.39702357 99.29165012 -46.375 97.75 C-46.36597656 96.93273437 -46.35695312 96.11546875 -46.34765625 95.2734375 C-46.33605469 94.64695312 -46.32445312 94.02046875 -46.3125 93.375 C-46.88355469 93.33761719 -47.45460937 93.30023438 -48.04296875 93.26171875 C-53.01298407 92.85874454 -57.56509974 92.07666015 -62.375 90.75 C-67.88701011 89.38836227 -72.6549141 89.34918912 -78.24609375 89.7890625 C-79.02561401 89.84296143 -79.80513428 89.89686035 -80.60827637 89.95239258 C-82.51027319 90.08507308 -84.41148833 90.22888135 -86.3125 90.375 C-84.64045422 85.21539183 -82.96808098 80.05588995 -81.29541016 74.89648438 C-80.7269617 73.14293252 -80.15860123 71.38935214 -79.59033203 69.63574219 C-78.77139289 67.10864803 -77.95213274 64.58165812 -77.1328125 62.0546875 C-76.88064972 61.27632538 -76.62848694 60.49796326 -76.36868286 59.6960144 C-75.03469904 55.58282767 -73.68675801 51.47496476 -72.3125 47.375 C-71.384375 47.705 -70.45625 48.035 -69.5 48.375 C-66.39220709 49.52467004 -66.39220709 49.52467004 -63.3125 49.375 C-64.116875 48.611875 -64.92125 47.84875 -65.75 47.0625 C-69.4234917 43.20981359 -69.66011737 40.06586809 -69.59375 34.98046875 C-68.67600655 26.47859536 -65.01740791 19.50268541 -58.625 13.89453125 C-53.76204392 10.19982439 -48.47503929 8.14092869 -42.75 6.1875 C-42.06139893 5.94966797 -41.37279785 5.71183594 -40.66333008 5.46679688 C-27.24278735 1.14900145 -14.00826763 -0.14443095 0 0 Z M-53.3125 23.375 C-55.96798085 27.88786637 -58.29422915 33.08686231 -57.3125 38.375 C-53.1726 42.74094758 -49.08388018 44.51549547 -43.375 46.125 C-42.69759766 46.33253906 -42.02019531 46.54007813 -41.32226562 46.75390625 C-34.70400807 48.72098184 -28.12640776 49.46092431 -21.234375 49.8046875 C-19.89450195 49.87837534 -18.55465897 49.95261167 -17.21484375 50.02734375 C-15.14424744 50.14012558 -13.07371318 50.24946047 -11.00244141 50.34912109 C10.72490744 51.41240744 10.72490744 51.41240744 14.6875 55.375 C14.56307896 60.00729117 14.30723678 65.50234563 11.6875 69.375 C10.39156494 69.840639 9.07534156 70.25118571 7.75 70.625 C4.88865114 71.5026188 3.95354703 71.8873925 2.49609375 74.55859375 C1.76540927 76.82124473 1.15646176 79.04484625 0.6875 81.375 C11.23921668 80.54741438 21.96908206 77.99369678 29.6875 70.375 C33.20464213 65.88761176 36.02944741 59.3841372 35.375 53.625 C29.03940029 45.17753372 18.19313443 44.40122575 8.44506836 42.86352539 C4.64986962 42.37010764 0.92478093 42.13799663 -2.8984375 41.98046875 C-4.33858395 41.91168696 -5.77868727 41.84199718 -7.21875 41.77148438 C-9.45195992 41.6644764 -11.6848323 41.56260303 -13.91894531 41.47631836 C-28.99069916 40.87963115 -28.99069916 40.87963115 -35.73291016 37.20825195 C-37.30967852 36.21947518 -37.30967852 36.21947518 -39.3125 36.375 C-38.9515625 35.53195313 -38.590625 34.68890625 -38.21875 33.8203125 C-37.52265625 32.17675781 -37.52265625 32.17675781 -36.8125 30.5 C-36.3484375 29.40945312 -35.884375 28.31890625 -35.40625 27.1953125 C-34.19197544 24.56838071 -34.19197544 24.56838071 -34.3125 22.375 C-8.86733366 16.1218602 19.52904409 15.47992645 42.6875 29.375 C44.0075 24.755 45.3275 20.135 46.6875 15.375 C42.27204422 14.55541883 37.85531655 13.74417375 33.4375 12.9375 C31.58511719 12.59235352 31.58511719 12.59235352 29.6953125 12.24023438 C6.25305076 7.98361316 -34.6745127 4.06838535 -53.3125 23.375 Z M51.6875 47.375 C51.6875 49.685 51.6875 51.995 51.6875 54.375 C51.22088623 56.71514893 51.22088623 56.71514893 50.55761719 58.79394531 C50.31025818 59.5845636 50.06289917 60.37518188 49.80804443 61.1897583 C49.53623352 62.01916931 49.26442261 62.84858032 48.984375 63.703125 C48.70531311 64.57394714 48.42625122 65.44476929 48.13873291 66.34197998 C47.54866987 68.17237041 46.95333643 70.00106931 46.35302734 71.828125 C45.43756723 74.62479462 44.54804933 77.42884882 43.66015625 80.234375 C43.08227844 82.01612822 42.50290259 83.79739643 41.921875 85.578125 C41.65816101 86.41563293 41.39444702 87.25314087 41.1227417 88.11602783 C38.72847683 95.28138533 38.72847683 95.28138533 34.6875 97.375 C22.19897847 102.48394062 4.54283201 101.7365369 -8.3125 98.375 C-11.9375 96.75 -11.9375 96.75 -14.3125 95.375 C-14.9725 95.375 -15.6325 95.375 -16.3125 95.375 C-16.00957031 94.4463916 -15.70664063 93.5177832 -15.39453125 92.56103516 C-14.27341523 89.12172415 -13.15614288 85.68117484 -12.04003906 82.24023438 C-11.55606483 80.74998352 -11.07104313 79.26007243 -10.58496094 77.77050781 C-9.88722733 75.63174071 -9.19324636 73.49178763 -8.5 71.3515625 C-8.28126221 70.68379791 -8.06252441 70.01603333 -7.8371582 69.32803345 C-6.69390529 65.9208841 -6.69390529 65.9208841 -6.3125 62.375 C-11.9225 62.045 -17.5325 61.715 -23.3125 61.375 C-24.9117251 65.94238689 -26.50092084 70.51109168 -28.06713867 75.08959961 C-28.60205001 76.64422104 -29.14234626 78.19700094 -29.68823242 79.74780273 C-30.47456583 81.98472379 -31.24092636 84.2276784 -32.00390625 86.47265625 C-32.24967911 87.15836197 -32.49545197 87.84406769 -32.74867249 88.55055237 C-34.29532021 93.18519288 -34.45426806 96.62745233 -33.3125 101.375 C-24.38912295 110.21399523 -4.89856221 110.7601242 6.75 110.8125 C22.76312591 110.65197691 39.57544595 108.90675366 52.93359375 99.328125 C57.59913948 94.13263978 59.69172182 86.94372697 61.8515625 80.421875 C62.12970795 79.59923157 62.40785339 78.77658813 62.69442749 77.92901611 C63.57259769 75.32948415 64.4430781 72.72746956 65.3125 70.125 C66.19008754 67.50861389 67.06937045 64.89282826 67.95199585 62.27813721 C68.49831501 60.65871887 69.041608 59.03827558 69.58145142 57.41668701 C69.82865936 56.68202209 70.07586731 55.94735718 70.33056641 55.19042969 C70.54500397 54.54837585 70.75944153 53.90632202 70.9803772 53.24481201 C71.7425436 51.22945077 72.7239048 49.3021904 73.6875 47.375 C66.4275 47.375 59.1675 47.375 51.6875 47.375 Z M-65.3125 64.375 C-66.6325 68.665 -67.9525 72.955 -69.3125 77.375 C-60.29110877 80.02472557 -51.77269282 82.02266507 -42.3125 82.375 C-41.6525 79.405 -40.9925 76.435 -40.3125 73.375 C-41.55 72.983125 -42.7875 72.59125 -44.0625 72.1875 C-49.03002186 70.54215599 -53.81045384 68.5327454 -58.61328125 66.4609375 C-61.47959013 65.23612265 -61.47959013 65.23612265 -65.3125 64.375 Z " fill="#FAFAF9" transform="translate(200.3125,-0.375)"/>
<path d="M0 0 C3.59961787 2.30949497 6.82255711 4.57699866 9.8046875 7.64453125 C10.47113281 8.32193359 11.13757813 8.99933594 11.82421875 9.69726562 C12.50097656 10.39529297 13.17773438 11.09332031 13.875 11.8125 C18.44561744 16.50200633 23.04844034 21.03313025 28.04736328 25.26831055 C30.4608372 27.40869195 32.71898171 29.71898171 35 32 C35 23.09 35 14.18 35 5 C33.68 4.34 32.36 3.68 31 3 C31 2.34 31 1.68 31 1 C38.26 1 45.52 1 53 1 C53 1.66 53 2.32 53 3 C51.35 3.33 49.7 3.66 48 4 C48 20.17 48 36.34 48 53 C44.38993539 51.19496769 42.68875483 49.91642958 39.953125 47.11328125 C39.19 46.33919922 38.426875 45.56511719 37.640625 44.76757812 C36.85171875 43.95740234 36.0628125 43.14722656 35.25 42.3125 C30.2898533 37.24075 25.33582449 32.2723901 19.91308594 27.69213867 C17.51077166 25.56727391 15.26783643 23.26783643 13 21 C13 29.91 13 38.82 13 48 C14.65 48.66 16.3 49.32 18 50 C18 50.66 18 51.32 18 52 C13.44681299 52.07468636 8.89399002 52.12885256 4.34033203 52.16479492 C2.79437032 52.1797933 1.24845052 52.20019887 -0.29736328 52.22631836 C-16.80809658 52.49812191 -16.80809658 52.49812191 -23 49 C-27.20070947 44.87247362 -29.53854252 39.38163169 -32.17578125 34.17578125 C-33.8930661 30.44767667 -33.8930661 30.44767667 -37 28 C-37 27.34 -37 26.68 -37 26 C-35.906875 25.7525 -34.81375 25.505 -33.6875 25.25 C-30.11225819 24.27419011 -30.11225819 24.27419011 -28.0625 22.4375 C-26.08745344 17.90651083 -26.21129277 13.10321929 -27.9375 8.5 C-30.34853971 6.74651658 -31.69565625 6.67886662 -34.62890625 6.40625 C-35.85395874 6.28733398 -35.85395874 6.28733398 -37.10375977 6.16601562 C-37.72951904 6.11123047 -38.35527832 6.05644531 -39 6 C-38.88194465 11.80255353 -38.75771038 17.60492888 -38.62768555 23.40722656 C-38.58430797 25.38212462 -38.542635 27.35706087 -38.50268555 29.33203125 C-38.44505127 32.1667839 -38.3813373 35.00134378 -38.31640625 37.8359375 C-38.29969376 38.72243988 -38.28298126 39.60894226 -38.26576233 40.52230835 C-38.28914789 44.89925155 -38.28914789 44.89925155 -37 49 C-34.97536745 49.65213292 -34.97536745 49.65213292 -33 50 C-33 50.66 -33 51.32 -33 52 C-40.59 52 -48.18 52 -56 52 C-56 51.34 -56 50.68 -56 50 C-54.35 49.34 -52.7 48.68 -51 48 C-51 33.48 -51 18.96 -51 4 C-52.65 3.67 -54.3 3.34 -56 3 C-56 2.34 -56 1.68 -56 1 C-51.52095901 0.912158 -47.04214276 0.85932553 -42.5625 0.8125 C-41.30244141 0.78736328 -40.04238281 0.76222656 -38.74414062 0.73632812 C-30.11052258 0.66870187 -22.80626416 0.89284559 -15.9375 6.5 C-13.34309134 10.13761494 -13.24701042 13.9394259 -13.4375 18.296875 C-14.3178983 22.52767795 -16.4873303 25.49583401 -20 28 C-20.99 28 -21.98 28 -23 28 C-22.41992188 28.7734375 -21.83984375 29.546875 -21.2421875 30.34375 C-20.07042969 31.90609375 -20.07042969 31.90609375 -18.875 33.5 C-18.46266113 34.04374268 -18.05032227 34.58748535 -17.62548828 35.14770508 C-15.78931218 37.57502807 -13.99566385 40.00653434 -12.3125 42.54296875 C-9.27486567 47.08316996 -9.27486567 47.08316996 -4.1875 49.0625 C-1.14006572 49.37110196 -1.14006572 49.37110196 0 48 C0.09311889 46.49581261 0.11746028 44.98728644 0.11352539 43.48022461 C0.11344986 42.51930405 0.11337433 41.55838348 0.11329651 40.56834412 C0.10813522 39.523564 0.10297394 38.47878387 0.09765625 37.40234375 C0.09553383 35.80635094 0.09553383 35.80635094 0.09336853 34.17811584 C0.08775064 30.76454917 0.07519511 27.351047 0.0625 23.9375 C0.05748731 21.62955824 0.052924 19.32161545 0.04882812 17.01367188 C0.0377754 11.34242574 0.02101987 5.67121747 0 0 Z " fill="#FAFAF9" transform="translate(368,143)"/>
<path d="M0 0 C7.59 0 15.18 0 23 0 C23 0.66 23 1.32 23 2 C21.35 2.33 19.7 2.66 18 3 C17.67 9.93 17.34 16.86 17 24 C24.26 24 31.52 24 39 24 C38.67 17.4 38.34 10.8 38 4 C36.68 3.34 35.36 2.68 34 2 C34 1.34 34 0.68 34 0 C41.26 0 48.52 0 56 0 C56 0.66 56 1.32 56 2 C54.02 2.99 54.02 2.99 52 4 C52 18.19 52 32.38 52 47 C53.32 47.66 54.64 48.32 56 49 C56 49.66 56 50.32 56 51 C48.74 51 41.48 51 34 51 C34 50.34 34 49.68 34 49 C35.32 48.34 36.64 47.68 38 47 C38.33 40.73 38.66 34.46 39 28 C31.74 28 24.48 28 17 28 C17.144375 30.92875 17.28875 33.8575 17.4375 36.875 C17.50215454 38.25727783 17.50215454 38.25727783 17.56811523 39.66748047 C17.6252771 40.75633545 17.6252771 40.75633545 17.68359375 41.8671875 C17.72025146 42.61081543 17.75690918 43.35444336 17.79467773 44.12060547 C17.89955865 46.08864312 17.89955865 46.08864312 19 48 C21.02463255 48.65213292 21.02463255 48.65213292 23 49 C23 49.66 23 50.32 23 51 C15.41 51 7.82 51 0 51 C0 50.34 0 49.68 0 49 C1.65 48.34 3.3 47.68 5 47 C5 32.48 5 17.96 5 3 C3.35 2.67 1.7 2.34 0 2 C0 1.34 0 0.68 0 0 Z " fill="#FAFAF9" transform="translate(207,144)"/>
<path d="M0 0 C5.03004672 5.31429998 7.22410795 11.67729805 7.52734375 18.9296875 C7.1832821 26.84310547 4.6098577 32.92388177 -0.8125 38.703125 C-8.26506089 45.02564307 -17.44184071 46.08008964 -26.84765625 45.4296875 C-34.88865293 44.23311061 -40.64681893 40.66857381 -45.84765625 34.4296875 C-50.14529078 27.32874419 -50.91268787 20.14472326 -49.41015625 12.08203125 C-47.54502471 5.28595819 -43.69247917 -0.21994372 -37.63671875 -3.921875 C-25.35240742 -9.74958584 -10.55549912 -8.97105845 0 0 Z M-33.84765625 3.4296875 C-37.97571369 10.79804809 -37.88277363 19.97325482 -36.34375 28.0859375 C-34.62913406 33.96462074 -31.87962812 37.62689342 -26.53515625 40.8046875 C-21.91248869 41.87972647 -18.01100483 41.63393721 -13.8828125 39.3359375 C-8.96276676 35.5912938 -6.87405354 31.46786253 -5.84765625 25.4296875 C-5.05778972 17.18615087 -5.31154777 8.46687907 -10.21875 1.4765625 C-13.57356164 -1.96674538 -16.56987271 -3.01841958 -21.34765625 -3.3203125 C-27.07476408 -2.96630171 -30.46742779 -1.2121077 -33.84765625 3.4296875 Z " fill="#FAFAF9" transform="translate(91.84765625,150.5703125)"/>
<path d="M0 0 C136.62 0 273.24 0 414 0 C414.33 0.99 414.66 1.98 415 3 C277.72 3 140.44 3 -1 3 C-0.67 2.01 -0.34 1.02 0 0 Z " fill="#FAFAF9" transform="translate(2,241)"/>
<path d="M0 0 C7.26 0 14.52 0 22 0 C22 0.66 22 1.32 22 2 C20.35 2.33 18.7 2.66 17 3 C17.0690999 7.87516992 17.15717301 12.74950032 17.26245117 17.62402344 C17.29560018 19.28050384 17.32366309 20.93709446 17.34643555 22.59375 C17.38016732 24.98224634 17.43248959 27.36974171 17.48828125 29.7578125 C17.49467117 30.49242706 17.5010611 31.22704163 17.50764465 31.98391724 C17.64081147 36.69506162 18.45434598 40.02104101 21 44 C25.45951245 46.71068404 29.07431318 47.52720607 34.13671875 46.65234375 C37.90127544 45.3343543 40.25827981 42.48344038 42 39 C42.08675538 36.30106819 42.11557897 33.62830769 42.09765625 30.9296875 C42.0962413 30.13345978 42.09482635 29.33723206 42.09336853 28.51687622 C42.08776345 25.9695462 42.07521014 23.42230353 42.0625 20.875 C42.05748565 19.14974085 42.05292263 17.42448033 42.04882812 15.69921875 C42.03779237 11.46611209 42.02052436 7.23307086 42 3 C41.01 2.67 40.02 2.34 39 2 C39 1.34 39 0.68 39 0 C43.95 0 48.9 0 54 0 C54 0.66 54 1.32 54 2 C52.02 2.99 52.02 2.99 50 4 C50.01571045 5.24704712 50.01571045 5.24704712 50.03173828 6.51928711 C50.0661057 9.64476471 50.09103659 12.77014502 50.10986328 15.89575195 C50.12470245 17.89736377 50.15013361 19.89888812 50.17578125 21.90039062 C50.26406872 39.42545383 50.26406872 39.42545383 45.75 45.375 C39.89176758 50.96694913 33.64850647 52.38187731 25.796875 52.27734375 C19.60650157 51.66349387 13.15478974 49.86276803 8.9375 45.0625 C5.51291873 39.64945219 4.7132896 35.430653 4.8046875 29.07421875 C4.80893234 27.95283257 4.80893234 27.95283257 4.81326294 26.80879211 C4.82440531 24.4348612 4.84949838 22.06131575 4.875 19.6875 C4.88503751 18.0722711 4.89416201 16.45703624 4.90234375 14.84179688 C4.92432511 10.89438406 4.95881343 6.94725726 5 3 C3.35 2.67 1.7 2.34 0 2 C0 1.34 0 0.68 0 0 Z " fill="#FAFAF9" transform="translate(102,144)"/>
<path d="M0 0 C0 4.29 0 8.58 0 13 C-0.66 13.33 -1.32 13.66 -2 14 C-2.99 11.69 -3.98 9.38 -5 7 C-9.95 6.67 -14.9 6.34 -20 6 C-20 12.27 -20 18.54 -20 25 C-13.565 24.505 -13.565 24.505 -7 24 C-6.67 22.02 -6.34 20.04 -6 18 C-5.34 18 -4.68 18 -4 18 C-4 23.94 -4 29.88 -4 36 C-4.66 36 -5.32 36 -6 36 C-6.12375 35.195625 -6.2475 34.39125 -6.375 33.5625 C-6.58125 32.716875 -6.7875 31.87125 -7 31 C-9.56893838 29.71553081 -11.76576337 29.67022856 -14.625 29.4375 C-16.39875 29.293125 -18.1725 29.14875 -20 29 C-20 35.27 -20 41.54 -20 48 C-18.123125 47.896875 -16.24625 47.79375 -14.3125 47.6875 C-13.25675781 47.62949219 -12.20101563 47.57148438 -11.11328125 47.51171875 C-6.54285216 46.76049389 -2.91621787 44.61055545 0 41 C1.19027984 38.40084462 1.19027984 38.40084462 2 36 C2.66 36 3.32 36 4 36 C3.68806536 37.72926874 3.37542638 39.45841044 3.0625 41.1875 C2.88847656 42.15042969 2.71445312 43.11335938 2.53515625 44.10546875 C2.04777524 46.74159525 1.52574867 49.37125667 1 52 C-11.54 52 -24.08 52 -37 52 C-37 51.34 -37 50.68 -37 50 C-34.525 49.505 -34.525 49.505 -32 49 C-32.33 34.48 -32.66 19.96 -33 5 C-34.32 4.34 -35.64 3.68 -37 3 C-37 2.34 -37 1.68 -37 1 C-32.05209374 0.85722082 -27.10417697 0.71481353 -22.15625 0.57275391 C-20.47232777 0.52435414 -18.78840848 0.47585197 -17.10449219 0.42724609 C-14.68685658 0.35747922 -12.26921072 0.28807821 -9.8515625 0.21875 C-9.0963028 0.19687622 -8.34104309 0.17500244 -7.56289673 0.15246582 C-2.22774341 0 -2.22774341 0 0 0 Z " fill="#FAFAF9" transform="translate(305,143)"/>
<path d="M0 0 C8.58 0 17.16 0 26 0 C26 0.66 26 1.32 26 2 C25.34 2 24.68 2 24 2 C25.98 6.95 27.96 11.9 30 17 C31.98 12.05 33.96 7.1 36 2 C35.34 1.67 34.68 1.34 34 1 C35 0 35 0 37.77563477 -0.11352539 C38.98533936 -0.10828857 40.19504395 -0.10305176 41.44140625 -0.09765625 C42.74658203 -0.09443359 44.05175781 -0.09121094 45.39648438 -0.08789062 C46.7851569 -0.07953401 48.17382877 -0.07106905 49.5625 -0.0625 C50.95507656 -0.05748666 52.34765481 -0.05292347 53.74023438 -0.04882812 C57.1601987 -0.03699434 60.58007844 -0.0205088 64 0 C64 2.64 64 5.28 64 8 C63.484375 7.360625 62.96875 6.72125 62.4375 6.0625 C59.34064377 3.44208319 56.97932377 3.30610183 53 3 C53 6.3 53 9.6 53 13 C55.31 13 57.62 13 60 13 C60 12.01 60 11.02 60 10 C60.66 10 61.32 10 62 10 C62 13.3 62 16.6 62 20 C61.34 20 60.68 20 60 20 C59.505 18.515 59.505 18.515 59 17 C57.02 16.67 55.04 16.34 53 16 C53 19.3 53 22.6 53 26 C54.44375 25.7525 55.8875 25.505 57.375 25.25 C58.18710938 25.11078125 58.99921875 24.9715625 59.8359375 24.828125 C62.17709092 24.18250739 62.17709092 24.18250739 63.2890625 21.921875 C63.52367187 21.28765625 63.75828125 20.6534375 64 20 C64.66 20 65.32 20 66 20 C65.69181644 21.31352023 65.37832335 22.62579572 65.0625 23.9375 C64.80146484 25.03384766 64.80146484 25.03384766 64.53515625 26.15234375 C64 28 64 28 63 29 C61.5112814 29.08669432 60.018555 29.10703494 58.52734375 29.09765625 C57.62822266 29.09443359 56.72910156 29.09121094 55.80273438 29.08789062 C54.85720703 29.07951172 53.91167969 29.07113281 52.9375 29.0625 C51.98810547 29.05798828 51.03871094 29.05347656 50.06054688 29.04882812 C47.70696935 29.0370011 45.35351523 29.02052025 43 29 C43 28.34 43 27.68 43 27 C43.66 26.67 44.32 26.34 45 26 C45 18.41 45 10.82 45 3 C43.68 3 42.36 3 41 3 C37.04 11.58 33.08 20.16 29 29 C28.34 29 27.68 29 27 29 C23.04 20.42 19.08 11.84 15 3 C13.68 3 12.36 3 11 3 C11 10.59 11 18.18 11 26 C11.66 26.33 12.32 26.66 13 27 C13 27.66 13 28.32 13 29 C8.71 29 4.42 29 0 29 C0 28.34 0 27.68 0 27 C0.99 27 1.98 27 3 27 C3 18.75 3 10.5 3 2 C2.01 2 1.02 2 0 2 C0 1.34 0 0.68 0 0 Z " fill="#FAFAF9" transform="translate(63,205)"/>
<path d="M0 0 C0.77923828 0.05671875 1.55847656 0.1134375 2.36132812 0.171875 C4.26256639 0.31184346 6.16268686 0.46686032 8.0625 0.625 C7.7325 4.585 7.4025 8.545 7.0625 12.625 C6.4025 12.625 5.7425 12.625 5.0625 12.625 C4.77375 11.84125 4.485 11.0575 4.1875 10.25 C3.21337746 7.52828368 3.21337746 7.52828368 1.0625 5.625 C-3.16667458 4.56770635 -5.30931731 4.36230542 -9.375 6.0625 C-10.220625 6.578125 -11.06625 7.09375 -11.9375 7.625 C-11.9375 9.935 -11.9375 12.245 -11.9375 14.625 C-11.42058594 14.86734375 -10.90367188 15.1096875 -10.37109375 15.359375 C-7.14458569 17.03736635 -4.07439814 18.93770802 -1 20.875 C-0.39220703 21.24496094 0.21558594 21.61492187 0.84179688 21.99609375 C6.12320615 25.33471924 10.259534 28.86480439 12.0625 35.0625 C12.0625 40.24167794 10.45846409 43.76371455 7.375 47.875 C1.59975835 52.24545314 -4.80442862 53.55278124 -11.9375 52.625 C-15.76061865 51.63935222 -19.4046505 50.39142475 -22.9375 48.625 C-22.96458567 47.02092672 -22.98393483 45.4167215 -23 43.8125 C-23.01160156 42.91917969 -23.02320312 42.02585938 -23.03515625 41.10546875 C-22.9375 38.625 -22.9375 38.625 -21.9375 35.625 C-20.4525 35.13 -20.4525 35.13 -18.9375 34.625 C-18.875625 35.676875 -18.81375 36.72875 -18.75 37.8125 C-17.76345358 42.44167934 -16.78701733 43.89825856 -12.9375 46.625 C-8.62625519 47.89025663 -5.15192305 48.0215463 -0.875 46.625 C1.32612676 44.66600592 1.32612676 44.66600592 2 41.375 C0.5139914 35.4309656 -3.92969736 33.72917435 -8.9375 30.625 C-10.9515659 29.24954036 -12.95198012 27.853855 -14.9375 26.4375 C-15.845 25.80457031 -16.7525 25.17164063 -17.6875 24.51953125 C-20.67911753 22.00054774 -21.67863117 20.11100666 -22.34375 16.29296875 C-22.56141905 10.53380834 -21.77457343 7.33021016 -17.93359375 3 C-12.34915566 -0.8468145 -6.42625207 -0.55066427 0 0 Z " fill="#FAFAF9" transform="translate(24.9375,143.375)"/>
<path d="M0 0 C15.51 0 31.02 0 47 0 C47 4.29 47 8.58 47 13 C46.34 13 45.68 13 45 13 C44.6596875 11.576875 44.6596875 11.576875 44.3125 10.125 C42.31665943 6.72926007 42.31665943 6.72926007 38.93041992 6.25732422 C37.75068604 6.1079541 36.57095215 5.95858398 35.35546875 5.8046875 C34.16977295 5.64726074 32.98407715 5.48983398 31.76245117 5.32763672 C30.85084229 5.2195166 29.9392334 5.11139648 29 5 C29.11804905 10.94496559 29.24228286 16.88975706 29.37231445 22.83447266 C29.41569395 24.85787416 29.45736678 26.88131299 29.49731445 28.90478516 C29.55494408 31.80903384 29.6186594 34.71309411 29.68359375 37.6171875 C29.70030624 38.52556366 29.71701874 39.43393982 29.73423767 40.36984253 C29.75418289 41.21056305 29.77412811 42.05128357 29.79467773 42.91748047 C29.81799416 44.03000687 29.81799416 44.03000687 29.84178162 45.16500854 C29.89473496 47.09674104 29.89473496 47.09674104 31 49 C33.02463255 49.65213292 33.02463255 49.65213292 35 50 C35 50.66 35 51.32 35 52 C27.41 52 19.82 52 12 52 C12 51.34 12 50.68 12 50 C12.639375 49.87625 13.27875 49.7525 13.9375 49.625 C14.618125 49.41875 15.29875 49.2125 16 49 C17.13019427 46.73961146 17.15268957 45.42881174 17.20532227 42.91748047 C17.22526749 42.07675995 17.24521271 41.23603943 17.26576233 40.36984253 C17.29083107 39.00727829 17.29083107 39.00727829 17.31640625 37.6171875 C17.33718735 36.68778351 17.35796844 35.75837952 17.37937927 34.80081177 C17.44487646 31.8256179 17.50376052 28.85033423 17.5625 25.875 C17.60568506 23.86066772 17.64929934 21.84634459 17.69335938 19.83203125 C17.80055803 14.88811337 17.90182501 9.94410497 18 5 C16.22065952 5.11752133 14.44213822 5.24749602 12.6640625 5.3828125 C11.6735791 5.45387207 10.6830957 5.52493164 9.66259766 5.59814453 C6.83357252 5.81938096 6.83357252 5.81938096 4.375 7.875 C2.84707986 10.04229706 2.84707986 10.04229706 2 13 C1.34 13 0.68 13 0 13 C0 8.71 0 4.42 0 0 Z " fill="#FAFAF9" transform="translate(158,143)"/>
<path d="M0 0 C5.64134373 0.04021324 9.56078433 0.2958222 14.375 3.25 C16.375 6.25 16.375 6.25 16.25 9.8125 C15.96125 10.946875 15.6725 12.08125 15.375 13.25 C13.3203125 14.46484375 13.3203125 14.46484375 11.375 15.25 C12.66155265 17.06613362 13.95439995 18.87780954 15.25 20.6875 C15.96929687 21.69683594 16.68859375 22.70617187 17.4296875 23.74609375 C19.1309726 26.30796247 19.1309726 26.30796247 21.375 27.25 C21.354375 26.30125 21.33375 25.3525 21.3125 24.375 C21.375 21.25 21.375 21.25 22.375 19.25 C23.035 19.25 23.695 19.25 24.375 19.25 C25.035 21.23 25.695 23.21 26.375 25.25 C28.685 25.25 30.995 25.25 33.375 25.25 C33.705 23.93 34.035 22.61 34.375 21.25 C33.60414063 20.74210937 32.83328125 20.23421875 32.0390625 19.7109375 C31.03617188 19.02257812 30.03328125 18.33421875 29 17.625 C27.50339844 16.61566406 27.50339844 16.61566406 25.9765625 15.5859375 C22.99603443 12.90972761 22.14733308 11.14844315 21.375 7.25 C22.91420175 3.68553279 24.11771659 2.42152227 27.375 0.25 C30.07421875 0.0546875 30.07421875 0.0546875 33.0625 0.125 C34.55330078 0.15207031 34.55330078 0.15207031 36.07421875 0.1796875 C36.83347656 0.20289063 37.59273437 0.22609375 38.375 0.25 C38.375 2.56 38.375 4.87 38.375 7.25 C37.715 7.25 37.055 7.25 36.375 7.25 C35.88 5.765 35.88 5.765 35.375 4.25 C33.065 4.25 30.755 4.25 28.375 4.25 C28.69453637 7.2722815 29.23086897 8.13139217 31.625 10.1015625 C32.5325 10.68679687 33.44 11.27203125 34.375 11.875 C39.28447368 15.06894737 39.28447368 15.06894737 40.375 17.25 C40.9551105 23.51519337 40.9551105 23.51519337 38.5 26.625 C35.40512706 28.99166754 33.77074892 29.369149 29.9375 29.3125 C28.76380859 29.29896484 28.76380859 29.29896484 27.56640625 29.28515625 C26.84324219 29.27355469 26.12007812 29.26195312 25.375 29.25 C24.385 29.25 23.395 29.25 22.375 29.25 C13.50418073 29.08461184 13.50418073 29.08461184 9.5 26.125 C3.375 17.83823529 3.375 17.83823529 3.375 14.25 C4.695 13.59 6.015 12.93 7.375 12.25 C7.375 9.94 7.375 7.63 7.375 5.25 C4.9 4.26 4.9 4.26 2.375 3.25 C2.705 10.84 3.035 18.43 3.375 26.25 C4.035 26.58 4.695 26.91 5.375 27.25 C5.375 27.91 5.375 28.57 5.375 29.25 C1.085 29.25 -3.205 29.25 -7.625 29.25 C-7.625 28.59 -7.625 27.93 -7.625 27.25 C-6.635 27.25 -5.645 27.25 -4.625 27.25 C-4.73450024 23.2910768 -4.86521668 19.33313674 -5 15.375 C-5.04640625 13.68310547 -5.04640625 13.68310547 -5.09375 11.95703125 C-5.13242188 10.88066406 -5.17109375 9.80429688 -5.2109375 8.6953125 C-5.2423584 7.70031738 -5.2737793 6.70532227 -5.30615234 5.68017578 C-5.39747083 3.07145483 -5.39747083 3.07145483 -7.625 1.25 C-5.72450779 -0.65049221 -2.53174128 0.03197989 0 0 Z " fill="#FAFAF9" transform="translate(137.625,204.75)"/>
<path d="M0 0 C12.87 0 25.74 0 39 0 C39 0.66 39 1.32 39 2 C38.34 2 37.68 2 37 2 C39.475 6.455 39.475 6.455 42 11 C44.92835144 7.1910589 44.92835144 7.1910589 47 3 C46.505 1.515 46.505 1.515 46 0 C49.3 0 52.6 0 56 0 C56 0.66 56 1.32 56 2 C55.24332031 2.4434375 54.48664063 2.886875 53.70703125 3.34375 C49.18392767 6.11113228 46.97140302 10.15446395 45 15 C44.54381779 18.73411001 44.61635479 22.26301144 45 26 C45.66 26.33 46.32 26.66 47 27 C47 27.66 47 28.32 47 29 C42.71 29 38.42 29 34 29 C34 28.34 34 27.68 34 27 C34.66 26.67 35.32 26.34 36 26 C36.80149006 18.19289316 35.79323683 13.47864125 31.3125 6.99609375 C30 5 30 5 30 3 C28.68 2.67 27.36 2.34 26 2 C26 3.65 26 5.3 26 7 C25.34 7 24.68 7 24 7 C23.67 6.01 23.34 5.02 23 4 C21.02 4 19.04 4 17 4 C17 11.59 17 19.18 17 27 C17.66 27 18.32 27 19 27 C19 27.66 19 28.32 19 29 C15.04 29 11.08 29 7 29 C7 28.34 7 27.68 7 27 C7.66 26.67 8.32 26.34 9 26 C9.33 18.41 9.66 10.82 10 3 C7.36 3.33 4.72 3.66 2 4 C2 4.99 2 5.98 2 7 C1.34 7 0.68 7 0 7 C0 4.69 0 2.38 0 0 Z " fill="#FAFAF9" transform="translate(194,205)"/>
<path d="M0 0 C3.41255379 1.13751793 3.69510839 1.65297099 5.48046875 4.59765625 C5.92197266 5.31630859 6.36347656 6.03496094 6.81835938 6.77539062 C7.27017578 7.53013672 7.72199219 8.28488281 8.1875 9.0625 C8.65091797 9.82111328 9.11433594 10.57972656 9.59179688 11.36132812 C10.73566706 13.23633183 11.87128255 15.11584922 13 17 C16.16034591 14.02856642 18.10048025 10.57517395 20.1875 6.8125 C20.73954102 5.83120117 20.73954102 5.83120117 21.30273438 4.83007812 C22.2062466 3.22253039 23.1037241 1.61159349 24 0 C24.66 0 25.32 0 26 0 C26.10546143 0.77714355 26.21092285 1.55428711 26.31958008 2.35498047 C26.80353253 5.86370137 27.30774033 9.36921463 27.8125 12.875 C27.97814453 14.09832031 28.14378906 15.32164062 28.31445312 16.58203125 C28.48525391 17.74863281 28.65605469 18.91523438 28.83203125 20.1171875 C28.98389893 21.19597168 29.1357666 22.27475586 29.29223633 23.38623047 C29.78154569 26.32969085 29.78154569 26.32969085 33 28 C32 29 32 29 29.27734375 29.09765625 C28.17519531 29.08605469 27.07304687 29.07445312 25.9375 29.0625 C24.83277344 29.05347656 23.72804688 29.04445312 22.58984375 29.03515625 C21.73519531 29.02355469 20.88054687 29.01195312 20 29 C20 28.34 20 27.68 20 27 C20.66 27 21.32 27 22 27 C21.34 23.37 20.68 19.74 20 16 C19.01719585 17.60194071 18.03888283 19.20663742 17.0625 20.8125 C16.51722656 21.70582031 15.97195313 22.59914062 15.41015625 23.51953125 C13.88990422 26.00703562 13.88990422 26.00703562 13 29 C12.34 29 11.68 29 11 29 C9.53417645 26.85718967 8.18876486 24.73293604 6.875 22.5 C6.50246094 21.87996094 6.12992187 21.25992188 5.74609375 20.62109375 C4.82421047 19.08462162 3.91126525 17.54279325 3 16 C2.34 19.63 1.68 23.26 1 27 C1.66 27 2.32 27 3 27 C3 27.66 3 28.32 3 29 C0.03 29 -2.94 29 -6 29 C-6 28.34 -6 27.68 -6 27 C-5.01 27 -4.02 27 -3 27 C-2.01 18.09 -1.02 9.18 0 0 Z " fill="#FAFAF9" transform="translate(384,205)"/>
<path d="M0 0 C0.66 0 1.32 0 2 0 C2 0.66 2 1.32 2 2 C2.53109375 2.20367187 3.0621875 2.40734375 3.609375 2.6171875 C7.02874104 4.59505609 9.51337921 7.30326899 12.25 10.125 C13.08144531 10.96998047 13.08144531 10.96998047 13.9296875 11.83203125 C15.29104485 13.21686028 16.64614859 14.60783204 18 16 C18.33 11.71 18.66 7.42 19 3 C18.34 2.67 17.68 2.34 17 2 C17 1.34 17 0.68 17 0 C20.96 0 24.92 0 29 0 C29 0.66 29 1.32 29 2 C28.01 2.495 28.01 2.495 27 3 C27 11.58 27 20.16 27 29 C23.60854693 27.30427347 22.2059289 26.41745372 19.75 23.8125 C16.02402963 19.96529415 12.06078221 16.49084786 8 13 C7.67 17.62 7.34 22.24 7 27 C7.99 27 8.98 27 10 27 C10 27.66 10 28.32 10 29 C5.71 29 1.42 29 -3 29 C-3 28.34 -3 27.68 -3 27 C-2.01 27 -1.02 27 0 27 C0 18.09 0 9.18 0 0 Z " fill="#FAFAF9" transform="translate(33,205)"/>
<path d="M0 0 C3.63 0 7.26 0 11 0 C11 0.66 11 1.32 11 2 C10.34 2 9.68 2 9 2 C9.10986968 5.27152618 9.2404997 8.54190114 9.375 11.8125 C9.4059375 12.74126953 9.436875 13.67003906 9.46875 14.62695312 C9.50742188 15.51962891 9.54609375 16.41230469 9.5859375 17.33203125 C9.6173584 18.15421143 9.6487793 18.9763916 9.68115234 19.82348633 C9.88373622 22.28952937 9.88373622 22.28952937 12 25 C16.60985391 25.59158999 16.60985391 25.59158999 20.69067383 23.76831055 C22.35911218 21.51500103 22.42295225 20.11929942 22.51171875 17.33203125 C22.54716797 16.43935547 22.58261719 15.54667969 22.61914062 14.62695312 C22.64169922 13.69818359 22.66425781 12.76941406 22.6875 11.8125 C22.72166016 10.87212891 22.75582031 9.93175781 22.79101562 8.96289062 C22.87348218 6.64204607 22.94263403 4.32157852 23 2 C22.01 2 21.02 2 20 2 C20 1.34 20 0.68 20 0 C22.97 0 25.94 0 29 0 C29 0.66 29 1.32 29 2 C28.34 2 27.68 2 27 2 C27.05220703 3.97033203 27.05220703 3.97033203 27.10546875 5.98046875 C27.13361466 7.71613301 27.16091396 9.45181115 27.1875 11.1875 C27.21263672 12.05181641 27.23777344 12.91613281 27.26367188 13.80664062 C27.32008172 18.7142969 27.22228129 22.02455898 24 26 C20.30546111 29.15122435 16.91554963 29.51593499 12.21875 29.359375 C8.77011984 28.80079406 6.61924197 27.23593827 4 25 C1.86395692 21.79593538 1.75791092 21.00399253 1.8046875 17.33203125 C1.81113281 16.43935547 1.81757813 15.54667969 1.82421875 14.62695312 C1.84935547 13.23379883 1.84935547 13.23379883 1.875 11.8125 C1.88402344 10.87212891 1.89304688 9.93175781 1.90234375 8.96289062 C1.92590944 6.64167032 1.95880884 4.32096356 2 2 C1.34 2 0.68 2 0 2 C0 1.34 0 0.68 0 0 Z " fill="#FAFAF9" transform="translate(0,205)"/>
<path d="M0 0 C6.6 0 13.2 0 20 0 C20 2.64 20 5.28 20 8 C18 7 18 7 17 4 C14.69 4 12.38 4 10 4 C10 6.97 10 9.94 10 13 C12.97065509 12.65772428 12.97065509 12.65772428 16 12 C16.33 11.34 16.66 10.68 17 10 C17.66 10 18.32 10 19 10 C19 12.97 19 15.94 19 19 C18.34 19.33 17.68 19.66 17 20 C16.67 18.68 16.34 17.36 16 16 C14.02 16.33 12.04 16.66 10 17 C10 19.64 10 22.28 10 25 C12.78938212 25.41890218 12.78938212 25.41890218 16 25 C18.75041666 22.58333229 18.75041666 22.58333229 21 20 C21.66 20 22.32 20 23 20 C22.01 22.97 21.02 25.94 20 29 C13.4 29 6.8 29 0 29 C0 28.34 0 27.68 0 27 C0.66 26.67 1.32 26.34 2 26 C2 18.41 2 10.82 2 3 C1.34 2.67 0.68 2.34 0 2 C0 1.34 0 0.68 0 0 Z " fill="#FAFAF9" transform="translate(356,205)"/>
<path d="M0 0 C4.62 0 9.24 0 14 0 C14 0.66 14 1.32 14 2 C13.34 2 12.68 2 12 2 C12.28875 2.55429688 12.5775 3.10859375 12.875 3.6796875 C13.431875 4.76636719 13.431875 4.76636719 14 5.875 C14.37125 6.59429687 14.7425 7.31359375 15.125 8.0546875 C16 10 16 10 16 12 C16.66 12 17.32 12 18 12 C19.80317221 8.03302114 20.49202991 4.3177458 21 0 C23.97 0 26.94 0 30 0 C30 0.66 30 1.32 30 2 C29.38125 2.061875 28.7625 2.12375 28.125 2.1875 C25.7958413 2.79670948 25.7958413 2.79670948 25 5.125 C24.67 6.07375 24.34 7.0225 24 8 C23.319375 9.010625 22.63875 10.02125 21.9375 11.0625 C19.02390299 15.93654705 19.18199765 21.45817156 19 27 C19.99 27 20.98 27 22 27 C22 27.66 22 28.32 22 29 C17.71 29 13.42 29 9 29 C9 28.34 9 27.68 9 27 C9.66 26.67 10.32 26.34 11 26 C11.99315464 17.84982622 10.47943282 13.00248862 5.921875 6.21484375 C4.03001285 4.03458798 2.65931988 3.04137084 0 2 C0 1.34 0 0.68 0 0 Z " fill="#FAFAF9" transform="translate(278,205)"/>
<path d="M0 0 C-0.33 2.31 -0.66 4.62 -1 7 C-1.66 7 -2.32 7 -3 7 C-3.33 6.01 -3.66 5.02 -4 4 C-5.98 4 -7.96 4 -10 4 C-10 5.32 -10 6.64 -10 8 C-7.86274187 9.92192644 -7.86274187 9.92192644 -5.125 11.5625 C-1.89710597 13.6270647 -0.15073127 14.7739031 2 18 C1.67425569 24.08056042 1.67425569 24.08056042 -0.375 26.875 C-4.18282292 29.5111851 -8.54175186 29.52041807 -13 29 C-16 27.5 -16 27.5 -18 26 C-17.67 23.69 -17.34 21.38 -17 19 C-16.34 19 -15.68 19 -15 19 C-14.67 20.98 -14.34 22.96 -14 25 C-11.03 25 -8.06 25 -5 25 C-5.28115454 21.59685854 -5.62092837 20.32839712 -8.25 18.05078125 C-9.1575 17.47714844 -10.065 16.90351563 -11 16.3125 C-15.91954023 13.16091954 -15.91954023 13.16091954 -17 11 C-17.50902925 7.18228061 -17.27015195 5.44382106 -15.25 2.125 C-10.36267442 -1.07055903 -5.68050025 -0.40769141 0 0 Z " fill="#FAFAF9" transform="translate(326,205)"/>
<path d="M0 0 C1.33332095 2.6666419 0.67102033 4.16680303 0 7 C-0.66 7 -1.32 7 -2 7 C-2.33 6.01 -2.66 5.02 -3 4 C-4.98 4 -6.96 4 -9 4 C-9 5.32 -9 6.64 -9 8 C-6.30508947 10.19322208 -3.44097903 11.9516684 -0.50390625 13.8046875 C2 16 2 16 2.921875 19.0859375 C3.01911228 22.712888 2.26048463 24.19388116 0 27 C-2.90456654 28.78361442 -5.10945776 29.27322289 -8.5 29.25 C-9.2528125 29.25515625 -10.005625 29.2603125 -10.78125 29.265625 C-13.2296721 28.97250404 -14.87304054 28.21816769 -17 27 C-17.125 21.25 -17.125 21.25 -16 19 C-15.34 19 -14.68 19 -14 19 C-13.814375 20.2065625 -13.814375 20.2065625 -13.625 21.4375 C-13.41875 22.283125 -13.2125 23.12875 -13 24 C-10.04335481 25.4783226 -7.25770263 25.06032783 -4 25 C-4.28115454 21.59685854 -4.62092837 20.32839712 -7.25 18.05078125 C-8.1575 17.47714844 -9.065 16.90351563 -10 16.3125 C-14.91954023 13.16091954 -14.91954023 13.16091954 -16 11 C-16.44520706 6.99313644 -16.63426635 4.85297888 -14.1875 1.5625 C-9.50676177 -0.73197952 -5.12149648 -0.32289645 0 0 Z " fill="#FAFAF9" transform="translate(276,205)"/>
<path d="M0 0 C8.58 0 17.16 0 26 0 C26 2.31 26 4.62 26 7 C25.34 7 24.68 7 24 7 C24 6.01 24 5.02 24 4 C21.36 3.67 18.72 3.34 16 3 C16.33 10.59 16.66 18.18 17 26 C17.66 26.33 18.32 26.66 19 27 C19 27.66 19 28.32 19 29 C15.04 29 11.08 29 7 29 C7 27 7 27 9 25 C9.27741245 22.76964703 9.27741245 22.76964703 9.1953125 20.2109375 C9.18886719 19.26992187 9.18242187 18.32890625 9.17578125 17.359375 C9.15064453 15.88210937 9.15064453 15.88210937 9.125 14.375 C9.11597656 13.38242188 9.10695313 12.38984375 9.09765625 11.3671875 C9.07404116 8.91121866 9.04110799 6.45572832 9 4 C7.02 4 5.04 4 3 4 C2.67 4.99 2.34 5.98 2 7 C1.34 7 0.68 7 0 7 C0 4.69 0 2.38 0 0 Z " fill="#FAFAF9" transform="translate(329,205)"/>
<path d="M0 0 C9.08203125 -0.48828125 9.08203125 -0.48828125 12 0 C13.88671875 2.51953125 13.88671875 2.51953125 15 5 C15.66 3.35 16.32 1.7 17 0 C20 1 20 1 21.1875 3.0625 C21.455625 3.701875 21.72375 4.34125 22 5 C22.6496875 3.7625 22.6496875 3.7625 23.3125 2.5 C23.869375 1.675 24.42625 0.85 25 0 C25.99 0 26.98 0 28 0 C26.45730076 4.72065967 24.92205381 9.41664092 23 14 C20 13 20 13 18.8125 10.9375 C18.544375 10.298125 18.27625 9.65875 18 9 C17.34 10.65 16.68 12.3 16 14 C13 13 13 13 11.61328125 10.71484375 C11.18402344 9.79832031 10.75476563 8.88179688 10.3125 7.9375 C9.87550781 7.01839844 9.43851563 6.09929687 8.98828125 5.15234375 C8.66214844 4.44207031 8.33601562 3.73179687 8 3 C6.35 3 4.7 3 3 3 C3 3.66 3 4.32 3 5 C4.65 5 6.3 5 8 5 C8 5.99 8 6.98 8 8 C6.35 8 4.7 8 3 8 C3 8.99 3 9.98 3 11 C4.98 11 6.96 11 9 11 C8.67 11.99 8.34 12.98 8 14 C5.36 14 2.72 14 0 14 C0 9.38 0 4.76 0 0 Z " fill="#FAFAF9" transform="translate(169,253)"/>
<path d="M0 0 C3.96 0 7.92 0 12 0 C12 0.66 12 1.32 12 2 C11.01 2.495 11.01 2.495 10 3 C10 10.59 10 18.18 10 26 C10.66 26.33 11.32 26.66 12 27 C12 27.66 12 28.32 12 29 C8.04 29 4.08 29 0 29 C0 27 0 27 2 25 C2.27765416 22.67182795 2.27765416 22.67182795 2.1953125 19.9921875 C2.18886719 19.00605469 2.18242187 18.01992187 2.17578125 17.00390625 C2.15064453 15.45509766 2.15064453 15.45509766 2.125 13.875 C2.11597656 12.83472656 2.10695312 11.79445312 2.09765625 10.72265625 C2.07403747 8.14820908 2.04110149 5.57421788 2 3 C1.34 2.67 0.68 2.34 0 2 C0 1.34 0 0.68 0 0 Z " fill="#FAFAF9" transform="translate(181,205)"/>
<path d="M0 0 C2.31 0 4.62 0 7 0 C7.33 0.99 7.66 1.98 8 3 C8.495 2.505 8.99 2.01 9.5 1.5 C13.00808774 -0.60485265 16.00336634 -0.7192306 20 0 C22.5625 1.5625 22.5625 1.5625 24 4 C24 7.77684879 23.78395245 10.03513544 21.375 13 C17.91616747 14.45635054 15.58701629 13.91305869 12 13 C9.41544715 11.10466125 9.03724494 10.11173483 8 7 C6.35 7.66 4.7 8.32 3 9 C3 10.65 3 12.3 3 14 C2.01 14 1.02 14 0 14 C0 9.38 0 4.76 0 0 Z M3 3 C3 3.66 3 4.32 3 5 C3.66 5 4.32 5 5 5 C5 4.34 5 3.68 5 3 C4.34 3 3.68 3 3 3 Z M12 5 C12.32041397 7.60280568 12.32041397 7.60280568 13 10 C14.65 10.33 16.3 10.66 18 11 C18.99 9.35 19.98 7.7 21 6 C20.34 5.01 19.68 4.02 19 3 C15.54204217 2.56775527 14.52024391 2.47975609 12 5 Z " fill="#FAFAF9" transform="translate(374,253)"/>
<path d="M0 0 C3 1 3 1 4.38671875 3.3984375 C4.81597656 4.38070313 5.24523437 5.36296875 5.6875 6.375 C6.34298828 7.84066406 6.34298828 7.84066406 7.01171875 9.3359375 C8 12 8 12 8 15 C7.01 15 6.02 15 5 15 C4.67 14.34 4.34 13.68 4 13 C0.97065509 12.34227572 0.97065509 12.34227572 -2 12 C-2.33 12.99 -2.66 13.98 -3 15 C-6.63 15 -10.26 15 -14 15 C-14 10.38 -14 5.76 -14 1 C-11.36 1 -8.72 1 -6 1 C-6 1.99 -6 2.98 -6 4 C-7.65 4 -9.3 4 -11 4 C-11 4.66 -11 5.32 -11 6 C-9.35 6 -7.7 6 -6 6 C-6 6.99 -6 7.98 -6 9 C-7.65 9 -9.3 9 -11 9 C-11 9.99 -11 10.98 -11 12 C-9.35 12 -7.7 12 -6 12 C-4.02 8.04 -2.04 4.08 0 0 Z " fill="#FAFAF9" transform="translate(251,252)"/>
<path d="M0 0 C3.96 0 7.92 0 12 0 C12.99 1.98 13.98 3.96 15 6 C15.99 4.02 16.98 2.04 18 0 C18.99 0 19.98 0 21 0 C20.46515599 5.34844008 18.53309233 9.35796103 16 14 C15.34 14 14.68 14 14 14 C13.32880451 12.5437455 12.66318193 11.08492133 12 9.625 C11.62875 8.81289063 11.2575 8.00078125 10.875 7.1640625 C10 5 10 5 10 3 C8.02 3.33 6.04 3.66 4 4 C5.65 4.33 7.3 4.66 9 5 C9 5.99 9 6.98 9 8 C7.35 8.33 5.7 8.66 4 9 C4 9.33 4 9.66 4 10 C5.65 10.33 7.3 10.66 9 11 C9 11.99 9 12.98 9 14 C6.03 14 3.06 14 0 14 C0 9.38 0 4.76 0 0 Z " fill="#FAFAF9" transform="translate(342,253)"/>
<path d="M0 0 C6 0 12 0 18 0 C18 0.99 18 1.98 18 3 C17.01 3 16.02 3 15 3 C15 6.63 15 10.26 15 14 C14.01 14 13.02 14 12 14 C12 10.37 12 6.74 12 3 C11.01 3 10.02 3 9 3 C7.79101367 7.38257546 7.7815736 9.97910216 10 14 C8.68 14 7.36 14 6 14 C5.34 13.01 4.68 12.02 4 11 C3.67 11.99 3.34 12.98 3 14 C2.01 14 1.02 14 0 14 C0 9.38 0 4.76 0 0 Z M3 3 C3.33 3.99 3.66 4.98 4 6 C4.33 5.01 4.66 4.02 5 3 C4.34 3 3.68 3 3 3 Z " fill="#FAFAF9" transform="translate(399,253)"/>
<path d="M0 0 C3.90432869 1.95216435 6.03839944 3.87386607 9 7 C9.33 5.02 9.66 3.04 10 1 C10.99 1 11.98 1 13 1 C13.33 5.62 13.66 10.24 14 15 C13.01 15 12.02 15 11 15 C9.62131719 13.37064759 8.28725907 11.70250393 7 10 C6.34 9.67 5.68 9.34 5 9 C4.67 10.98 4.34 12.96 4 15 C2.68 14.67 1.36 14.34 0 14 C0 9.38 0 4.76 0 0 Z " fill="#FAFAF9" transform="translate(46,252)"/>
<path d="M0 0 C3.90432869 1.95216435 6.03839944 3.87386607 9 7 C9.33 5.02 9.66 3.04 10 1 C10.99 1 11.98 1 13 1 C13 5.62 13 10.24 13 15 C9.09567131 13.04783565 6.96160056 11.12613393 4 8 C3.67 10.31 3.34 12.62 3 15 C2.01 15 1.02 15 0 15 C0 10.05 0 5.1 0 0 Z " fill="#FAFAF9" transform="translate(154,252)"/>
<path d="M0 0 C3.90432869 1.95216435 6.03839944 3.87386607 9 7 C9.33 5.02 9.66 3.04 10 1 C11.32 1 12.64 1 14 1 C14 5.62 14 10.24 14 15 C10.09567131 13.04783565 7.96160056 11.12613393 5 8 C4.67 10.31 4.34 12.62 4 15 C3.01 15 2.02 15 1 15 C0.67 10.05 0.34 5.1 0 0 Z " fill="#FAFAF9" transform="translate(259,252)"/>
<path d="M0 0 C2 1.0625 2 1.0625 3 3 C3.5 6.4375 3.5 6.4375 3 10 C0.9375 12.5 0.9375 12.5 -2 14 C-5.84949295 14 -8.04133185 13.86589381 -10.9375 11.25 C-12.23370853 8.50508782 -12.52487013 6.99925788 -12 4 C-8.80294102 -0.92879926 -5.39655285 -0.59961698 0 0 Z M-8 4 C-8.2500773 6.45809998 -8.2500773 6.45809998 -8 9 C-7.34 9.66 -6.68 10.32 -6 11 C-3.39719432 10.67958603 -3.39719432 10.67958603 -1 10 C-0.32041397 7.60280568 -0.32041397 7.60280568 0 5 C-1.83265325 2.73160017 -1.83265325 2.73160017 -4.5625 2.8125 C-6.94689723 2.72996677 -6.94689723 2.72996677 -8 4 Z " fill="#FAFAF9" transform="translate(214,253)"/>
<path d="M0 0 C2 1.0625 2 1.0625 3 3 C3.5 6.4375 3.5 6.4375 3 10 C0.9375 12.5 0.9375 12.5 -2 14 C-5.84949295 14 -8.04133185 13.86589381 -10.9375 11.25 C-12.23370853 8.50508782 -12.52487013 6.99925788 -12 4 C-8.80294102 -0.92879926 -5.39655285 -0.59961698 0 0 Z M-8 4 C-8.2500773 6.45809998 -8.2500773 6.45809998 -8 9 C-7.34 9.66 -6.68 10.32 -6 11 C-3.39719432 10.67958603 -3.39719432 10.67958603 -1 10 C-0.32041397 7.60280568 -0.32041397 7.60280568 0 5 C-1.83265325 2.73160017 -1.83265325 2.73160017 -4.5625 2.8125 C-6.94689723 2.72996677 -6.94689723 2.72996677 -8 4 Z " fill="#FAFAF9" transform="translate(88,253)"/>
<path d="M0 0 C2 1.0625 2 1.0625 3 3 C3.5 6.4375 3.5 6.4375 3 10 C0.9375 12.5 0.9375 12.5 -2 14 C-5.84949295 14 -8.04133185 13.86589381 -10.9375 11.25 C-12.23370853 8.50508782 -12.52487013 6.99925788 -12 4 C-8.80294102 -0.92879926 -5.39655285 -0.59961698 0 0 Z M-7 3 C-7.66 4.32 -8.32 5.64 -9 7 C-8.01 8.32 -7.02 9.64 -6 11 C-4.35 10.67 -2.7 10.34 -1 10 C-0.32041397 7.60280568 -0.32041397 7.60280568 0 5 C-1.83883881 2.71271266 -1.83883881 2.71271266 -4.625 2.875 C-5.40875 2.91625 -6.1925 2.9575 -7 3 Z " fill="#FAFAF9" transform="translate(42,253)"/>
<path d="M0 0 C0.66 0.33 1.32 0.66 2 1 C2 1.99 2 2.98 2 4 C-0.64 4 -3.28 4 -6 4 C-6.33 5.65 -6.66 7.3 -7 9 C-6.01 9 -5.02 9 -4 9 C-4 8.01 -4 7.02 -4 6 C-1.69 6 0.62 6 3 6 C2.6875 8.875 2.6875 8.875 2 12 C-1 14 -1 14 -4.5 13.8125 C-8 13 -8 13 -9.9375 11.8125 C-11.56034621 9.04411529 -11.44922076 7.14454533 -11 4 C-8.02883571 -0.51616972 -5.15517336 -0.47733087 0 0 Z " fill="#FAFAF9" transform="translate(116,253)"/>
<path d="M0 0 C6 0 6 0 8 1 C9.17860621 3.93461042 9.81243218 6.84444726 10 10 C8.5 12.5625 8.5 12.5625 6 14 C4.02 14 2.04 14 0 14 C0 9.38 0 4.76 0 0 Z M4 3 C5 5 5 5 5 5 Z M4 8 C4.33 8.99 4.66 9.98 5 11 C5.33 10.01 5.66 9.02 6 8 C5.34 8 4.68 8 4 8 Z " fill="#FAFAF9" transform="translate(0,253)"/>
<path d="M0 0 C2.97 0 5.94 0 9 0 C9 0.99 9 1.98 9 3 C7.35 3 5.7 3 4 3 C4 3.66 4 4.32 4 5 C5.65 5 7.3 5 9 5 C9 5.99 9 6.98 9 8 C7.35 8 5.7 8 4 8 C4 8.99 4 9.98 4 11 C5.65 11 7.3 11 9 11 C9 11.99 9 12.98 9 14 C6.03 14 3.06 14 0 14 C0 9.38 0 4.76 0 0 Z " fill="#FAFAF9" transform="translate(120,253)"/>
<path d="M0 0 C0.99 0 1.98 0 3 0 C3.33 3.3 3.66 6.6 4 10 C4.66 10 5.32 10 6 10 C6.33 6.7 6.66 3.4 7 0 C8.32 0 9.64 0 11 0 C11.61692592 8.97969945 11.61692592 8.97969945 9.375 12.6875 C7 14 7 14 3.8125 13.8125 C1 13 1 13 0 12 C-0.07244053 9.98035801 -0.08377188 7.95832876 -0.0625 5.9375 C-0.05347656 4.83277344 -0.04445313 3.72804688 -0.03515625 2.58984375 C-0.02355469 1.73519531 -0.01195313 0.88054687 0 0 Z " fill="#FAFAF9" transform="translate(93,253)"/>
<path d="M0 0 C0.99 0 1.98 0 3 0 C3 1.65 3 3.3 3 5 C4.65 5 6.3 5 8 5 C8 3.35 8 1.7 8 0 C8.99 0 9.98 0 11 0 C11 4.62 11 9.24 11 14 C10.01 14 9.02 14 8 14 C8 12.02 8 10.04 8 8 C6.35 8 4.7 8 3 8 C3 9.98 3 11.96 3 14 C2.01 14 1.02 14 0 14 C0 9.38 0 4.76 0 0 Z " fill="#FAFAF9" transform="translate(319,253)"/>
<path d="M0 0 C0.66 0 1.32 0 2 0 C3.00732399 1.93370231 4.00563288 3.87210306 5 5.8125 C5.8353125 7.43091797 5.8353125 7.43091797 6.6875 9.08203125 C8 12 8 12 8 15 C6.68 14.67 5.36 14.34 4 14 C4 13.34 4 12.68 4 12 C2.02 12 0.04 12 -2 12 C-2.33 12.99 -2.66 13.98 -3 15 C-3.99 15 -4.98 15 -6 15 C-4.40109514 9.80355921 -2.25861997 4.93387858 0 0 Z " fill="#FAFAF9" transform="translate(15,252)"/>
<path d="M0 0 C6 0 6 0 8 1 C8 4 8 7 8 10 C8.3062434 11.33981486 8.63451555 12.67511887 9 14 C5.125 13.125 5.125 13.125 4 12 C3.67 12.66 3.34 13.32 3 14 C2.01 14 1.02 14 0 14 C0 9.38 0 4.76 0 0 Z M3 3 C3.33 3.99 3.66 4.98 4 6 C4.33 5.01 4.66 4.02 5 3 C4.34 3 3.68 3 3 3 Z " fill="#FAFAF9" transform="translate(67,253)"/>
<path d="M0 0 C6 0 6 0 8 1 C8 4 8 7 8 10 C8.3062434 11.33981486 8.63451555 12.67511887 9 14 C7.0625 13.625 7.0625 13.625 5 13 C4.67 12.34 4.34 11.68 4 11 C3.67 11.99 3.34 12.98 3 14 C2.01 14 1.02 14 0 14 C0 9.38 0 4.76 0 0 Z M3 3 C3.33 3.99 3.66 4.98 4 6 C4.33 5.01 4.66 4.02 5 3 C4.34 3 3.68 3 3 3 Z " fill="#FAFAF9" transform="translate(332,253)"/>
<path d="M0 0 C1.98 0 3.96 0 6 0 C8 2 8 2 8.125 4.4375 C8.08375 5.283125 8.0425 6.12875 8 7 C8 9.62113708 8.31292445 11.50935112 9 14 C5.125 13.125 5.125 13.125 4 12 C3.67 12.66 3.34 13.32 3 14 C2.01 14 1.02 14 0 14 C0 9.38 0 4.76 0 0 Z M3 3 C3 3.66 3 4.32 3 5 C3.66 5 4.32 5 5 5 C5 4.34 5 3.68 5 3 C4.34 3 3.68 3 3 3 Z " fill="#FAFAF9" transform="translate(219,253)"/>
<path d="M0 0 C2.97 0 5.94 0 9 0 C9 0.99 9 1.98 9 3 C7.02 3 5.04 3 3 3 C3 3.66 3 4.32 3 5 C4.65 5 6.3 5 8 5 C8 5.99 8 6.98 8 8 C6.35 8 4.7 8 3 8 C3 8.99 3 9.98 3 11 C4.98 11 6.96 11 9 11 C9 11.99 9 12.98 9 14 C6.03 14 3.06 14 0 14 C0 9.38 0 4.76 0 0 Z " fill="#FAFAF9" transform="translate(364,253)"/>
<path d="M0 0 C0.94875 0.04125 1.8975 0.0825 2.875 0.125 C2.875 1.445 2.875 2.765 2.875 4.125 C1.885 4.125 0.895 4.125 -0.125 4.125 C0.514375 4.351875 1.15375 4.57875 1.8125 4.8125 C3.875 6.125 3.875 6.125 4.8125 8.5625 C4.875 11.125 4.875 11.125 3.8125 13 C0.96778149 14.65177204 -1.02692587 13.88230701 -4.125 13.125 C-4.455 11.805 -4.785 10.485 -5.125 9.125 C-2.95625748 9.63103992 -1.12532373 10.12483813 0.875 11.125 C0.875 10.135 0.875 9.145 0.875 8.125 C0.070625 7.8775 -0.73375 7.63 -1.5625 7.375 C-4.125 6.125 -4.125 6.125 -5.0625 4.125 C-5.083125 3.465 -5.10375 2.805 -5.125 2.125 C-3.125 0.125 -3.125 0.125 0 0 Z " fill="#FAFAF9" transform="translate(279.125,252.875)"/>
<path d="M0 0 C1.4540625 0.0309375 1.4540625 0.0309375 2.9375 0.0625 C2.9375 1.3825 2.9375 2.7025 2.9375 4.0625 C1.9475 4.0625 0.9575 4.0625 -0.0625 4.0625 C1.5875 5.0525 3.2375 6.0425 4.9375 7.0625 C4.6075 9.0425 4.2775 11.0225 3.9375 13.0625 C1.125 13.75 1.125 13.75 -2.0625 14.0625 C-3.9375 12.75 -3.9375 12.75 -5.0625 11.0625 C-5.0625 10.4025 -5.0625 9.7425 -5.0625 9.0625 C-2.0925 9.5575 -2.0925 9.5575 0.9375 10.0625 C0.1125 9.505625 -0.7125 8.94875 -1.5625 8.375 C-4.0625 6.0625 -4.0625 6.0625 -4.4375 3.375 C-3.86843225 -0.13425111 -3.67270031 0.07495307 0 0 Z " fill="#FAFAF9" transform="translate(313.0625,252.9375)"/>
<path d="M0 0 C3.3 0 6.6 0 10 0 C10 0.99 10 1.98 10 3 C9.01 3 8.02 3 7 3 C7 6.63 7 10.26 7 14 C5.68 13.67 4.36 13.34 3 13 C3 9.7 3 6.4 3 3 C2.01 3 1.02 3 0 3 C0 2.01 0 1.02 0 0 Z " fill="#FAFAF9" transform="translate(21,253)"/>
<path d="M0 0 C2.5 0.25 2.5 0.25 4.5 2.25 C4.75 5.25 4.75 5.25 4.5 8.25 C2.5 10.25 2.5 10.25 0 10.5 C-2.5 10.25 -2.5 10.25 -4.5 8.25 C-4.75 5.25 -4.75 5.25 -4.5 2.25 C-2.5 0.25 -2.5 0.25 0 0 Z M2.5 4.25 C3.5 6.25 3.5 6.25 3.5 6.25 Z M-0.5 6.25 C-0.5 6.91 -0.5 7.57 -0.5 8.25 C0.16 7.92 0.82 7.59 1.5 7.25 C0.84 6.92 0.18 6.59 -0.5 6.25 Z " fill="#FAFAF9" transform="translate(429.5,139.75)"/>
<path d="M0 0 C0.99 0 1.98 0 3 0 C3 3.63 3 7.26 3 11 C4.32 11 5.64 11 7 11 C7 11.99 7 12.98 7 14 C4.69 14 2.38 14 0 14 C0 9.38 0 4.76 0 0 Z " fill="#FAFAF9" transform="translate(229,253)"/>
<path d="M0 0 C2.125 0.9375 2.125 0.9375 4 2 C4 3.32 4 4.64 4 6 C1.625 6.625 1.625 6.625 -1 7 C-1.66 6.34 -2.32 5.68 -3 5 C-2.75 2.9375 -2.75 2.9375 -2 1 C-1.34 0.67 -0.68 0.34 0 0 Z " fill="#FAFAF9" transform="translate(295,256)"/>
<path d="M0 0 C2.475 0.99 2.475 0.99 5 2 C4.67 3.32 4.34 4.64 4 6 C0.25 7.125 0.25 7.125 -2 6 C-1.125 1.125 -1.125 1.125 0 0 Z " fill="#FAFAF9" transform="translate(140,256)"/>
</svg>
