<?xml version="1.0" encoding="UTF-8"?>
<svg version="1.1" xmlns="http://www.w3.org/2000/svg" width="392" height="157">
<path d="M0 0 C2.70444269 1.35189298 3.17210644 3.12932066 4.14105225 5.89472961 C4.36101868 6.57698105 4.58098511 7.25923248 4.80761719 7.9621582 C5.04611389 8.66153 5.2846106 9.36090179 5.53033447 10.08146667 C6.03197545 11.56263602 6.5257373 13.04649363 7.01220703 14.53271484 C7.75620713 16.80378365 8.52370995 19.06577223 9.29589844 21.32739258 C9.78037641 22.76767592 10.26349452 24.20841755 10.74511719 25.6496582 C11.08721222 26.66392632 11.08721222 26.66392632 11.43621826 27.69868469 C12.51710373 31.02049365 13.01074219 33.46313734 13.01074219 37.00512695 C13.67074219 37.00512695 14.33074219 37.00512695 15.01074219 37.00512695 C15.28337891 38.05700195 15.28337891 38.05700195 15.56152344 39.13012695 C16.75151994 43.62160092 17.95035147 48.04626512 19.63574219 52.38012695 C20.74652584 55.30855658 21.52968395 57.92635425 22.01074219 61.00512695 C23.99074219 61.33512695 25.97074219 61.66512695 28.01074219 62.00512695 C28.39292986 63.66127353 28.7246932 65.3296972 29.01074219 67.00512695 C27.36184453 68.65402461 25.43728835 68.13511076 23.17089844 68.13793945 C22.19056641 68.13922852 21.21023438 68.14051758 20.20019531 68.1418457 C18.65235352 68.13604492 18.65235352 68.13604492 17.07324219 68.13012695 C15.53120117 68.13592773 15.53120117 68.13592773 13.95800781 68.1418457 C12.97638672 68.14055664 11.99476563 68.13926758 10.98339844 68.13793945 C10.07855713 68.13681152 9.17371582 68.13568359 8.24145508 68.13452148 C6.01074219 68.00512695 6.01074219 68.00512695 4.01074219 67.00512695 C4.01074219 65.68512695 4.01074219 64.36512695 4.01074219 63.00512695 C6.51074219 61.25512695 6.51074219 61.25512695 9.01074219 60.00512695 C8.57761719 58.77536133 8.57761719 58.77536133 8.13574219 57.52075195 C7.76449219 56.4430957 7.39324219 55.36543945 7.01074219 54.25512695 C6.63949219 53.1877832 6.26824219 52.12043945 5.88574219 51.02075195 C5.01074219 48.00512695 5.01074219 48.00512695 5.01074219 44.00512695 C-1.25925781 44.00512695 -7.52925781 44.00512695 -13.98925781 44.00512695 C-14.31925781 45.65512695 -14.64925781 47.30512695 -14.98925781 49.00512695 C-15.64410995 50.95390379 -16.3324405 52.89171286 -17.05175781 54.81762695 C-17.41398438 55.79344727 -17.77621094 56.76926758 -18.14941406 57.7746582 C-18.4265625 58.51071289 -18.70371094 59.24676758 -18.98925781 60.00512695 C-16.12081652 62.10745039 -16.12081652 62.10745039 -12.98925781 63.00512695 C-12.98925781 64.32512695 -12.98925781 65.64512695 -12.98925781 67.00512695 C-15.77872557 67.93494954 -17.48535788 68.13370315 -20.36816406 68.13793945 C-21.20669922 68.13922852 -22.04523438 68.14051758 -22.90917969 68.1418457 C-24.21725586 68.13604492 -24.21725586 68.13604492 -25.55175781 68.13012695 C-26.42767578 68.13399414 -27.30359375 68.13786133 -28.20605469 68.1418457 C-29.04330078 68.14055664 -29.88054687 68.13926758 -30.74316406 68.13793945 C-31.50959229 68.13681152 -32.27602051 68.13568359 -33.06567383 68.13452148 C-34.98925781 68.00512695 -34.98925781 68.00512695 -36.98925781 67.00512695 C-37.61767578 65.94551758 -37.61767578 65.94551758 -38.25878906 64.86450195 C-40.39959171 61.32710345 -42.96274773 58.36206025 -45.67675781 55.25512695 C-46.21131592 54.63750488 -46.74587402 54.01988281 -47.29663086 53.38354492 C-50.89095876 49.23911447 -54.51696926 45.12314084 -58.17675781 41.03637695 C-60.62640885 38.29107837 -63.0372673 35.51265044 -65.44628906 32.73168945 C-66.90880786 31.09514943 -68.43141546 29.55023343 -69.98925781 28.00512695 C-70.01399231 32.08023133 -70.03213419 36.15530659 -70.04418945 40.23046875 C-70.04921558 41.6165442 -70.05603747 43.00261436 -70.06469727 44.38867188 C-70.076838 46.3818941 -70.08196803 48.37515514 -70.08691406 50.3684082 C-70.09215088 51.56763916 -70.0973877 52.76687012 -70.1027832 54.00244141 C-70.12771399 57.05669147 -70.12771399 57.05669147 -68.98925781 60.00512695 C-67.33925781 60.33512695 -65.68925781 60.66512695 -63.98925781 61.00512695 C-63.65925781 62.32512695 -63.32925781 63.64512695 -62.98925781 65.00512695 C-66.72569325 67.49608391 -68.71470516 67.26304357 -73.17675781 67.27075195 C-74.22512817 67.27362213 -74.22512817 67.27362213 -75.29467773 67.27655029 C-76.77067424 67.27790979 -78.2466828 67.27422977 -79.72265625 67.26586914 C-81.98106765 67.25516577 -84.23868363 67.26577185 -86.49707031 67.27856445 C-87.9319679 67.27724282 -89.36686499 67.27468033 -90.80175781 67.27075195 C-92.10757813 67.26849609 -93.41339844 67.26624023 -94.75878906 67.26391602 C-97.98925781 67.00512695 -97.98925781 67.00512695 -100.98925781 65.00512695 C-100.65925781 63.68512695 -100.32925781 62.36512695 -99.98925781 61.00512695 C-98.66925781 60.67512695 -97.34925781 60.34512695 -95.98925781 60.00512695 C-97.63925781 55.71512695 -99.28925781 51.42512695 -100.98925781 47.00512695 C-105.60925781 47.00512695 -110.22925781 47.00512695 -114.98925781 47.00512695 C-116.30925781 51.29512695 -117.62925781 55.58512695 -118.98925781 60.00512695 C-117.66925781 60.66512695 -116.34925781 61.32512695 -114.98925781 62.00512695 C-114.98925781 63.32512695 -114.98925781 64.64512695 -114.98925781 66.00512695 C-118.4305715 67.15223152 -121.11085771 67.13459046 -124.73925781 67.13793945 C-125.72104004 67.13937454 -125.72104004 67.13937454 -126.72265625 67.14083862 C-128.10449317 67.14151817 -129.48633331 67.13967956 -130.86816406 67.13549805 C-132.98151835 67.13014655 -135.09466012 67.13545056 -137.20800781 67.1418457 C-138.55175828 67.14118488 -139.89550862 67.13990364 -141.23925781 67.13793945 C-142.46128906 67.13681152 -143.68332031 67.13568359 -144.94238281 67.13452148 C-147.98925781 67.00512695 -147.98925781 67.00512695 -150.98925781 66.00512695 C-150.65925781 64.35512695 -150.32925781 62.70512695 -149.98925781 61.00512695 C-148.33925781 61.00512695 -146.68925781 61.00512695 -144.98925781 61.00512695 C-144.98925781 46.15512695 -144.98925781 31.30512695 -144.98925781 16.00512695 C-146.63925781 16.00512695 -148.28925781 16.00512695 -149.98925781 16.00512695 C-149.96863281 16.97450195 -149.94800781 17.94387695 -149.92675781 18.94262695 C-149.98925781 22.00512695 -149.98925781 22.00512695 -150.98925781 23.00512695 C-152.65542896 23.04576527 -154.32313876 23.04784795 -155.98925781 23.00512695 C-156.42238281 22.03575195 -156.85550781 21.06637695 -157.30175781 20.06762695 C-158.69074391 16.72780931 -158.69074391 16.72780931 -161.98925781 16.00512695 C-167.32221214 15.66163595 -167.32221214 15.66163595 -171.98925781 18.00512695 C-172.25954155 21.72152834 -172.17019081 24.46232795 -170.98925781 28.00512695 C-169.20777376 29.06100744 -169.20777376 29.06100744 -166.98925781 30.00512695 C-159.54713806 34.30846893 -153.4114359 37.94057277 -149.61425781 45.88012695 C-148.5286519 51.30815649 -149.12516979 55.34095743 -151.67675781 60.25512695 C-155.91072364 65.29011334 -159.36018168 67.1674637 -165.86425781 67.88012695 C-171.04277917 68.16960951 -175.06066537 67.52851007 -179.98925781 66.00512695 C-182.91472221 65.78152016 -182.91472221 65.78152016 -184.98925781 67.00512695 C-188.12953961 67.24227223 -191.27849582 67.19031035 -194.42675781 67.19262695 C-195.73483398 67.21099609 -195.73483398 67.21099609 -197.06933594 67.22973633 C-198.32713867 67.23263672 -198.32713867 67.23263672 -199.61035156 67.2355957 C-200.76168579 67.24175903 -200.76168579 67.24175903 -201.9362793 67.24804688 C-203.98925781 67.00512695 -203.98925781 67.00512695 -206.98925781 65.00512695 C-206.65925781 63.68512695 -206.32925781 62.36512695 -205.98925781 61.00512695 C-203.51425781 60.51012695 -203.51425781 60.51012695 -200.98925781 60.00512695 C-200.20264661 56.53021144 -199.86095641 53.31925291 -199.85644531 49.7590332 C-199.85451172 48.76258789 -199.85257813 47.76614258 -199.85058594 46.73950195 C-199.85509766 45.6927832 -199.85960937 44.64606445 -199.86425781 43.56762695 C-199.86619141 42.49899414 -199.868125 41.43036133 -199.87011719 40.3293457 C-199.91268645 32.51552192 -200.22223862 24.78489305 -200.98925781 17.00512695 C-203.29925781 17.00512695 -205.60925781 17.00512695 -207.98925781 17.00512695 C-208.00384033 17.86154785 -208.01842285 18.71796875 -208.03344727 19.6003418 C-208.09506591 22.82497834 -208.16931777 26.04902574 -208.25170898 29.27319336 C-208.284647 30.6598035 -208.31277221 32.04653772 -208.33569336 33.43334961 C-208.52279949 44.4606686 -208.71279955 54.92114447 -216.98925781 63.00512695 C-223.11427815 67.82695148 -229.3033061 68.77512212 -236.98925781 68.00512695 C-243.11133804 66.68508589 -247.7026044 64.5979699 -251.98925781 60.00512695 C-258.74027323 47.89985792 -256.12219713 29.46153985 -255.98925781 16.00512695 C-258.95925781 15.51012695 -258.95925781 15.51012695 -261.98925781 15.00512695 C-262.31925781 14.01512695 -262.64925781 13.02512695 -262.98925781 12.00512695 C-261.32838201 9.97509319 -260.4601996 9.08281904 -257.82861328 8.64868164 C-257.01279785 8.65802734 -256.19698242 8.66737305 -255.35644531 8.67700195 C-254.02419922 8.68473633 -254.02419922 8.68473633 -252.66503906 8.69262695 C-251.74078125 8.71325195 -250.81652344 8.73387695 -249.86425781 8.75512695 C-248.93226563 8.7602832 -248.00027344 8.76543945 -247.04003906 8.77075195 C-240.14332169 8.85106307 -240.14332169 8.85106307 -238.98925781 10.00512695 C-238.94861949 11.6712981 -238.94653681 13.3390079 -238.98925781 15.00512695 C-240.63925781 15.33512695 -242.28925781 15.66512695 -243.98925781 16.00512695 C-244.04793123 20.46340385 -244.08307916 24.92157968 -244.11425781 29.38012695 C-244.13101563 30.63180664 -244.14777344 31.88348633 -244.16503906 33.1730957 C-244.43215676 45.7095604 -244.43215676 45.7095604 -239.92675781 57.06762695 C-235.0001284 60.31710593 -230.41287792 60.32522772 -224.67675781 59.56762695 C-220.67660417 57.24195623 -219.27625487 54.30639681 -217.98925781 50.00512695 C-217.36181473 44.17357531 -217.29117447 38.36567279 -217.23925781 32.50512695 C-217.21106301 30.90353263 -217.18113073 29.3019679 -217.14941406 27.70043945 C-217.07596266 23.80205535 -217.02613581 19.90402156 -216.98925781 16.00512695 C-218.96925781 15.67512695 -220.94925781 15.34512695 -222.98925781 15.00512695 C-223.61425781 13.13012695 -223.61425781 13.13012695 -223.98925781 11.00512695 C-221.98925781 9.00512695 -221.98925781 9.00512695 -218.27392578 8.77807617 C-216.67639729 8.77839344 -215.07884754 8.78972714 -213.48144531 8.80981445 C-212.22051559 8.8140593 -212.22051559 8.8140593 -210.93411255 8.81838989 C-208.24401735 8.82960266 -205.55425271 8.85470892 -202.86425781 8.88012695 C-201.04264803 8.89015535 -199.22103304 8.89928144 -197.39941406 8.9074707 C-192.92923423 8.92954554 -188.4593021 8.96408261 -183.98925781 9.00512695 C-182.99925781 10.98512695 -182.99925781 10.98512695 -181.98925781 13.00512695 C-184.39265553 15.76903433 -185.15189459 16.04578615 -188.98925781 17.00512695 C-188.98925781 31.19512695 -188.98925781 45.38512695 -188.98925781 60.00512695 C-187.33925781 60.33512695 -185.68925781 60.66512695 -183.98925781 61.00512695 C-184.36050781 59.93262695 -184.73175781 58.86012695 -185.11425781 57.75512695 C-185.98925781 54.00512695 -185.98925781 54.00512695 -185.11425781 51.56762695 C-184.55738281 50.79418945 -184.55738281 50.79418945 -183.98925781 50.00512695 C-182.66925781 50.00512695 -181.34925781 50.00512695 -179.98925781 50.00512695 C-179.48265625 50.96225586 -179.48265625 50.96225586 -178.96582031 51.9387207 C-178.51980469 52.76500977 -178.07378906 53.59129883 -177.61425781 54.44262695 C-176.95296875 55.67819336 -176.95296875 55.67819336 -176.27832031 56.9387207 C-175.15507222 59.13979273 -175.15507222 59.13979273 -172.98925781 60.00512695 C-171.32481321 60.10072006 -169.65643819 60.13497341 -167.98925781 60.13012695 C-166.65894531 60.13399414 -166.65894531 60.13399414 -165.30175781 60.13793945 C-162.96248815 60.15640597 -162.96248815 60.15640597 -160.98925781 59.00512695 C-160.05965632 52.66133815 -160.05965632 52.66133815 -162.48925781 46.9934082 C-164.57643266 45.17935975 -166.71331591 43.57541055 -168.98925781 42.00512695 C-181.49549298 32.92838955 -181.49549298 32.92838955 -182.43066406 27.3918457 C-182.68326843 21.3700836 -182.10655182 17.48571161 -177.98925781 13.00512695 C-177.32925781 13.00512695 -176.66925781 13.00512695 -175.98925781 13.00512695 C-175.98925781 12.34512695 -175.98925781 11.68512695 -175.98925781 11.00512695 C-167.47143209 6.56104397 -160.00661816 7.54584686 -150.98925781 10.00512695 C-150.65925781 9.67512695 -150.32925781 9.34512695 -149.98925781 9.00512695 C-148.43970222 8.90613172 -146.88572109 8.87433171 -145.33300781 8.87231445 C-144.39328125 8.87102539 -143.45355469 8.86973633 -142.48535156 8.8684082 C-141.49664062 8.87227539 -140.50792969 8.87614258 -139.48925781 8.88012695 C-138.00619141 8.87432617 -138.00619141 8.87432617 -136.49316406 8.8684082 C-135.08357422 8.8703418 -135.08357422 8.8703418 -133.64550781 8.87231445 C-132.77732422 8.87344238 -131.90914062 8.87457031 -131.01464844 8.87573242 C-128.98925781 9.00512695 -128.98925781 9.00512695 -127.98925781 10.00512695 C-127.86425781 12.50512695 -127.86425781 12.50512695 -127.98925781 15.00512695 C-128.31925781 15.33512695 -128.64925781 15.66512695 -128.98925781 16.00512695 C-130.63925781 16.00512695 -132.28925781 16.00512695 -133.98925781 16.00512695 C-133.65925781 30.52512695 -133.32925781 45.04512695 -132.98925781 60.00512695 C-130.51425781 59.51012695 -130.51425781 59.51012695 -127.98925781 59.00512695 C-126.28439212 56.02940497 -126.28439212 56.02940497 -125.17675781 52.44262695 C-124.7578125 51.24508789 -124.33886719 50.04754883 -123.90722656 48.8137207 C-123.60429687 47.88688477 -123.30136719 46.96004883 -122.98925781 46.00512695 C-122.32925781 46.00512695 -121.66925781 46.00512695 -120.98925781 46.00512695 C-120.91449219 45.46887695 -120.83972656 44.93262695 -120.76269531 44.38012695 C-119.44507787 36.52609354 -116.67114166 29.36517441 -113.75732422 21.99438477 C-113.22317503 20.61096214 -112.71138386 19.21878408 -112.21728516 17.82055664 C-110.56542814 13.16407422 -109.31003516 10.59759336 -104.98925781 8.00512695 C-103.99925781 8.00512695 -103.00925781 8.00512695 -101.98925781 8.00512695 C-101.5909375 9.21168945 -101.19261719 10.41825195 -100.78222656 11.66137695 C-100.24715217 13.27598741 -99.71199129 14.89056922 -99.17675781 16.50512695 C-98.91572266 17.29661133 -98.6546875 18.0880957 -98.38574219 18.90356445 C-96.6988294 23.98512889 -94.89447741 29.00130844 -92.98925781 34.00512695 C-90.83186225 39.81286862 -88.7430323 45.64249347 -86.73925781 51.50512695 C-86.40410156 52.48481445 -86.06894531 53.46450195 -85.72363281 54.47387695 C-84.98925781 57.00512695 -84.98925781 57.00512695 -84.98925781 60.00512695 C-83.00925781 60.00512695 -81.02925781 60.00512695 -78.98925781 60.00512695 C-78.99449463 58.77358887 -78.99973145 57.54205078 -79.00512695 56.27319336 C-79.02319334 51.71476973 -79.03469585 47.15634928 -79.04418945 42.59790039 C-79.04922591 40.62296009 -79.05605533 38.64802352 -79.06469727 36.6730957 C-79.07679289 33.83845091 -79.08249291 31.0038553 -79.08691406 28.16918945 C-79.09465599 26.83943588 -79.09465599 26.83943588 -79.10255432 25.4828186 C-79.10312952 19.23287037 -79.10312952 19.23287037 -77.98925781 17.00512695 C-79.12363281 16.86075195 -80.25800781 16.71637695 -81.42675781 16.56762695 C-84.98925781 16.00512695 -84.98925781 16.00512695 -85.98925781 15.00512695 C-86.11425781 12.50512695 -86.11425781 12.50512695 -85.98925781 10.00512695 C-84.05062881 8.06649795 -81.08906558 8.40094488 -78.48925781 8.19262695 C-74.01909727 8.22426611 -71.83111638 8.25896352 -68.44628906 11.2590332 C-66.5689349 13.88185769 -64.83222673 16.55112783 -63.13720703 19.29418945 C-61.17687156 22.21593147 -58.78167249 24.70966171 -56.36425781 27.25512695 C-55.43161539 28.25219481 -54.49931432 29.24958209 -53.56738281 30.24731445 C-52.71660156 31.15739258 -51.86582031 32.0674707 -50.98925781 33.00512695 C-46.88304363 37.5898849 -42.9306005 42.27551572 -38.98925781 47.00512695 C-38.98925781 37.10512695 -38.98925781 27.20512695 -38.98925781 17.00512695 C-41.29925781 16.34512695 -43.60925781 15.68512695 -45.98925781 15.00512695 C-46.03197881 13.3390079 -46.02989613 11.6712981 -45.98925781 10.00512695 C-44.43852634 8.45439548 -42.95863528 8.87543567 -40.80566406 8.87231445 C-39.96068359 8.87102539 -39.11570312 8.86973633 -38.24511719 8.8684082 C-37.35630859 8.87227539 -36.4675 8.87614258 -35.55175781 8.88012695 C-34.66681641 8.87625977 -33.781875 8.87239258 -32.87011719 8.8684082 C-32.02384766 8.86969727 -31.17757812 8.87098633 -30.30566406 8.87231445 C-29.52650635 8.87344238 -28.74734863 8.87457031 -27.94458008 8.87573242 C-25.98925781 9.00512695 -25.98925781 9.00512695 -23.98925781 10.00512695 C-23.98925781 11.65512695 -23.98925781 13.30512695 -23.98925781 15.00512695 C-25.96925781 15.33512695 -27.94925781 15.66512695 -29.98925781 16.00512695 C-29.65925781 30.52512695 -29.32925781 45.04512695 -28.98925781 60.00512695 C-23.92407954 47.99609784 -23.92407954 47.99609784 -19.65332031 35.94262695 C-18.94960524 33.88943475 -18.09324623 31.97222405 -17.17675781 30.00512695 C-14.47805753 24.12842054 -12.4679583 18.0007938 -10.35644531 11.89575195 C-7.33898717 3.28122908 -7.33898717 3.28122908 -4.61425781 1.13012695 C-1.98925781 0.00512695 -1.98925781 0.00512695 0 0 Z M-4.98925781 17.00512695 C-6.01930074 19.79370695 -7.03856778 22.58542983 -8.05175781 25.38012695 C-8.34630859 26.17418945 -8.64085937 26.96825195 -8.94433594 27.78637695 C-9.35522461 28.92719727 -9.35522461 28.92719727 -9.77441406 30.09106445 C-10.03101807 30.79279785 -10.28762207 31.49453125 -10.55200195 32.2175293 C-11.21497404 34.09279707 -11.21497404 34.09279707 -9.98925781 36.00512695 C-6.02925781 35.67512695 -2.06925781 35.34512695 2.01074219 35.00512695 C1.02074219 31.70512695 0.03074219 28.40512695 -0.98925781 25.00512695 C-1.64925781 25.00512695 -2.30925781 25.00512695 -2.98925781 25.00512695 C-3.31925781 22.36512695 -3.64925781 19.72512695 -3.98925781 17.00512695 C-4.31925781 17.00512695 -4.64925781 17.00512695 -4.98925781 17.00512695 Z M-107.98925781 26.00512695 C-110.00981624 30.39764528 -111.39821016 34.15853618 -111.98925781 39.00512695 C-108.68925781 39.00512695 -105.38925781 39.00512695 -101.98925781 39.00512695 C-103.30925781 34.71512695 -104.62925781 30.42512695 -105.98925781 26.00512695 C-106.64925781 26.00512695 -107.30925781 26.00512695 -107.98925781 26.00512695 Z " fill="#FFFFFF" transform="translate(362.9892578125,33.994873046875)"/>
<path d="M0 0 C1.09366821 -0.00260775 2.18733643 -0.00521549 3.3141461 -0.00790226 C4.52550512 -0.00567154 5.73686413 -0.00344082 6.98493099 -0.0011425 C8.90366375 -0.00348249 8.90366375 -0.00348249 10.86115879 -0.00586975 C14.42341091 -0.01006221 17.9856364 -0.00797275 21.54788864 -0.00488353 C25.38499281 -0.00262934 29.22209227 -0.00610912 33.05919552 -0.00886345 C40.58043074 -0.0133198 48.101656 -0.01234531 55.62289161 -0.00945081 C61.73267683 -0.00719642 67.84245925 -0.00688441 73.95224476 -0.00797462 C74.82037312 -0.00812786 75.68850149 -0.00828109 76.58293677 -0.00843897 C78.34626898 -0.00875868 80.10960118 -0.00908289 81.87293338 -0.00941156 C98.42354637 -0.01226591 114.97415382 -0.00897994 131.5247659 -0.00361119 C145.74146575 0.00085759 159.95815744 0.00008021 174.17485714 -0.00452995 C190.66603875 -0.00987514 207.15721551 -0.01199206 223.64839786 -0.00891769 C225.40509601 -0.00859912 227.16179417 -0.00828475 228.91849232 -0.00797462 C229.78292814 -0.00782035 230.64736397 -0.00766607 231.53799482 -0.00750712 C237.64451015 -0.00664186 243.75102241 -0.00810503 249.85753727 -0.01045418 C257.29340555 -0.01325173 264.72926326 -0.01251484 272.16513032 -0.00717343 C275.96264871 -0.00453593 279.76014945 -0.00353219 283.55766773 -0.00682259 C287.66478533 -0.01032756 291.77185795 -0.00615744 295.87897396 -0.0011425 C297.69935856 -0.00448858 297.69935856 -0.00448858 299.55651861 -0.00790226 C300.64757908 -0.00529452 301.73863955 -0.00268677 302.86276245 0 C304.28679621 0.00024353 304.28679621 0.00024353 305.73959833 0.00049198 C307.86846066 0.12584114 307.86846066 0.12584114 308.86846066 1.12584114 C308.90909898 2.79201229 308.91118166 4.45972209 308.86846066 6.12584114 C305.06969795 7.39209538 301.44424139 7.35882661 297.48174191 7.44224739 C296.66473309 7.46302849 295.84772427 7.48380959 295.0059576 7.50522041 C292.39771032 7.57057193 289.7893629 7.62953388 287.18096066 7.68834114 C285.41207012 7.73154006 283.64318968 7.77515479 281.87432003 7.81920052 C277.53913603 7.92623857 273.20385136 8.02754658 268.86846066 8.12584114 C269.21779659 8.68013802 269.56713253 9.23443489 269.92705441 9.80552864 C270.38209347 10.52998177 270.83713253 11.25443489 271.30596066 12.00084114 C271.75842159 12.72013802 272.21088253 13.43943489 272.67705441 14.18052864 C273.86846066 16.12584114 273.86846066 16.12584114 274.86846066 18.12584114 C275.21779659 17.4877552 275.56713253 16.84966927 275.92705441 16.19224739 C276.38209347 15.36595833 276.83713253 14.53966927 277.30596066 13.68834114 C277.98465206 12.45277473 277.98465206 12.45277473 278.67705441 11.19224739 C279.86846066 9.12584114 279.86846066 9.12584114 280.86846066 8.12584114 C283.83846066 8.12584114 286.80846066 8.12584114 289.86846066 8.12584114 C289.53846066 15.38584114 289.20846066 22.64584114 288.86846066 30.12584114 C285.56846066 30.12584114 282.26846066 30.12584114 278.86846066 30.12584114 C278.86846066 28.47584114 278.86846066 26.82584114 278.86846066 25.12584114 C277.87846066 26.77584114 276.88846066 28.42584114 275.86846066 30.12584114 C271.11846066 29.37584114 271.11846066 29.37584114 268.86846066 27.12584114 C268.53846066 28.11584114 268.20846066 29.10584114 267.86846066 30.12584114 C265.55846066 30.12584114 263.24846066 30.12584114 260.86846066 30.12584114 C259.08802963 23.00411703 259.86846066 15.46674632 259.86846066 8.12584114 C233.46846066 8.12584114 207.06846066 8.12584114 179.86846066 8.12584114 C179.86846066 10.43584114 179.86846066 12.74584114 179.86846066 15.12584114 C178.05596066 15.81334114 178.05596066 15.81334114 175.86846066 16.12584114 C174.87846066 15.13584114 173.88846066 14.14584114 172.86846066 13.12584114 C172.86846066 18.73584114 172.86846066 24.34584114 172.86846066 30.12584114 C169.89846066 30.12584114 166.92846066 30.12584114 163.86846066 30.12584114 C162.90954108 26.29016285 162.76668877 23.30302973 162.80596066 19.37584114 C162.81498409 18.20537239 162.82400753 17.03490364 162.83330441 15.82896614 C162.85070675 14.49091927 162.85070675 14.49091927 162.86846066 13.12584114 C162.20846066 13.12584114 161.54846066 13.12584114 160.86846066 13.12584114 C160.53846066 14.11584114 160.20846066 15.10584114 159.86846066 16.12584114 C157.88846066 15.63084114 157.88846066 15.63084114 155.86846066 15.12584114 C155.82591709 13.12629368 155.82765283 11.12542478 155.86846066 9.12584114 C156.19846066 8.79584114 156.52846066 8.46584114 156.86846066 8.12584114 C146.30846066 8.12584114 135.74846066 8.12584114 124.86846066 8.12584114 C125.19846066 10.43584114 125.52846066 12.74584114 125.86846066 15.12584114 C124.87846066 15.45584114 123.88846066 15.78584114 122.86846066 16.12584114 C123.54908566 16.80646614 124.22971066 17.48709114 124.93096066 18.18834114 C126.86846066 21.12584114 126.86846066 21.12584114 126.80596066 24.81334114 C125.86846066 28.12584114 125.86846066 28.12584114 122.86846066 30.12584114 C120.27471066 30.42662239 120.27471066 30.42662239 117.36846066 30.43834114 C116.40939816 30.45509895 115.45033566 30.47185677 114.46221066 30.48912239 C111.86846066 30.12584114 111.86846066 30.12584114 110.00517941 28.74302864 C108.86846066 27.12584114 108.86846066 27.12584114 109.18096066 24.93834114 C109.40783566 24.34021614 109.63471066 23.74209114 109.86846066 23.12584114 C111.18846066 23.12584114 112.50846066 23.12584114 113.86846066 23.12584114 C113.86846066 23.78584114 113.86846066 24.44584114 113.86846066 25.12584114 C115.51846066 25.12584114 117.16846066 25.12584114 118.86846066 25.12584114 C117.11886934 23.19208232 115.57762145 21.9555938 113.30596066 20.62584114 C110.86846066 19.12584114 110.86846066 19.12584114 108.86846066 16.12584114 C109.05596066 13.06334114 109.05596066 13.06334114 109.86846066 10.12584114 C110.85846066 9.46584114 111.84846066 8.80584114 112.86846066 8.12584114 C101.97846066 8.12584114 91.08846066 8.12584114 79.86846066 8.12584114 C79.53846066 9.77584114 79.20846066 11.42584114 78.86846066 13.12584114 C78.22426913 14.39870151 77.53646631 15.65047681 76.80596066 16.87584114 C74.40331319 21.42092153 74.55123701 25.05026285 74.86846066 30.12584114 C71.56846066 30.12584114 68.26846066 30.12584114 64.86846066 30.12584114 C64.84267941 29.41298958 64.81689816 28.70013802 64.79033566 27.96568489 C64.41149707 21.56847873 63.64639849 17.34828461 59.86846066 12.12584114 C58.87846066 11.46584114 57.88846066 10.80584114 56.86846066 10.12584114 C56.86846066 9.46584114 56.86846066 8.80584114 56.86846066 8.12584114 C47.29846066 8.12584114 37.72846066 8.12584114 27.86846066 8.12584114 C28.36346066 11.59084114 28.36346066 11.59084114 28.86846066 15.12584114 C27.87846066 15.45584114 26.88846066 15.78584114 25.86846066 16.12584114 C25.86846066 16.78584114 25.86846066 17.44584114 25.86846066 18.12584114 C26.85846066 18.45584114 27.84846066 18.78584114 28.86846066 19.12584114 C29.61846066 22.37584114 29.61846066 22.37584114 29.86846066 26.12584114 C28.30596066 28.34459114 28.30596066 28.34459114 25.86846066 30.12584114 C22.63408566 30.51646614 22.63408566 30.51646614 19.11846066 30.37584114 C17.94799191 30.33974739 16.77752316 30.30365364 15.57158566 30.26646614 C14.67955441 30.22005989 13.78752316 30.17365364 12.86846066 30.12584114 C12.53846066 27.81584114 12.20846066 25.50584114 11.86846066 23.12584114 C13.51846066 23.12584114 15.16846066 23.12584114 16.86846066 23.12584114 C17.19846066 23.78584114 17.52846066 24.44584114 17.86846066 25.12584114 C19.18846066 24.79584114 20.50846066 24.46584114 21.86846066 24.12584114 C21.31416378 23.83451302 20.75986691 23.54318489 20.18877316 23.24302864 C14.24563187 19.88018357 14.24563187 19.88018357 12.30596066 16.00084114 C11.86846066 13.12584114 11.86846066 13.12584114 12.86846066 10.12584114 C13.85846066 9.46584114 14.84846066 8.80584114 15.86846066 8.12584114 C15.27831173 8.1060218 14.6881628 8.08620247 14.08013058 8.06578255 C11.40495969 7.97049456 8.73056568 7.86083175 6.05596066 7.75084114 C5.12719112 7.71990364 4.19842159 7.68896614 3.24150753 7.65709114 C1.90249386 7.59908333 1.90249386 7.59908333 0.53642941 7.53990364 C-0.69684086 7.49277229 -0.69684086 7.49277229 -1.95502567 7.4446888 C-4.13153934 7.12584114 -4.13153934 7.12584114 -7.13153934 5.12584114 C-7.13153934 3.80584114 -7.13153934 2.48584114 -7.13153934 1.12584114 C-4.59441213 -0.14272247 -2.84136439 0.00048583 0 0 Z M17.86846066 6.12584114 C17.86846066 6.45584114 17.86846066 6.78584114 17.86846066 7.12584114 C20.17846066 7.12584114 22.48846066 7.12584114 24.86846066 7.12584114 C24.86846066 6.79584114 24.86846066 6.46584114 24.86846066 6.12584114 C22.55846066 6.12584114 20.24846066 6.12584114 17.86846066 6.12584114 Z M115.86846066 6.12584114 C115.86846066 6.45584114 115.86846066 6.78584114 115.86846066 7.12584114 C118.17846066 7.12584114 120.48846066 7.12584114 122.86846066 7.12584114 C122.86846066 6.79584114 122.86846066 6.46584114 122.86846066 6.12584114 C120.55846066 6.12584114 118.24846066 6.12584114 115.86846066 6.12584114 Z M66.86846066 7.12584114 C68.35346066 8.11584114 68.35346066 8.11584114 69.86846066 9.12584114 C70.55596066 12.25084114 70.55596066 12.25084114 70.86846066 15.12584114 C72.44119634 12.28335574 72.44119634 12.28335574 72.86846066 9.12584114 C73.52846066 8.46584114 74.18846066 7.80584114 74.86846066 7.12584114 C72.22846066 7.12584114 69.58846066 7.12584114 66.86846066 7.12584114 Z M19.86846066 12.12584114 C19.86846066 12.78584114 19.86846066 13.44584114 19.86846066 14.12584114 C21.18846066 14.45584114 22.50846066 14.78584114 23.86846066 15.12584114 C23.53846066 14.13584114 23.20846066 13.14584114 22.86846066 12.12584114 C21.87846066 12.12584114 20.88846066 12.12584114 19.86846066 12.12584114 Z M117.86846066 12.12584114 C117.86846066 12.78584114 117.86846066 13.44584114 117.86846066 14.12584114 C118.85846066 14.45584114 119.84846066 14.78584114 120.86846066 15.12584114 C120.86846066 14.13584114 120.86846066 13.14584114 120.86846066 12.12584114 C119.87846066 12.12584114 118.88846066 12.12584114 117.86846066 12.12584114 Z M266.86846066 21.12584114 C267.86846066 23.12584114 267.86846066 23.12584114 267.86846066 23.12584114 Z " fill="#FFFFFF" transform="translate(49.1315393447876,119.87415885925293)"/>
<path d="M0 0 C4.92959122 -0.04942899 9.85903825 -0.08573318 14.78881836 -0.10986328 C16.46592725 -0.11992237 18.14301861 -0.13357122 19.82006836 -0.15087891 C22.23035002 -0.17513152 24.64039986 -0.1864839 27.05078125 -0.1953125 C28.17592888 -0.21079636 28.17592888 -0.21079636 29.32380676 -0.22659302 C33.10300779 -0.227408 34.77414399 -0.15057067 38 2 C37.67 3.65 37.34 5.3 37 7 C34.03 7.99 31.06 8.98 28 10 C27.18691669 18.26789238 26.85190856 26.44069792 26.8671875 34.74609375 C26.86623077 35.91906509 26.86527405 37.09203644 26.86428833 38.30055237 C26.86361248 40.76360122 26.86542493 43.22665191 26.86962891 45.68969727 C26.8749807 49.42403229 26.86966598 53.1582468 26.86328125 56.89257812 C26.86394223 59.30208359 26.86522381 61.71158899 26.8671875 64.12109375 C26.86516327 65.21941025 26.86313904 66.31772675 26.86105347 67.44932556 C26.87763666 73.03338517 27.01555283 78.6038236 27.32080078 84.17993164 C27.37761017 85.24707901 27.43441956 86.31422638 27.49295044 87.41371155 C27.74393997 88.69392433 27.74393997 88.69392433 28 90 C32.74875258 93.16583506 37.79076608 92.36871145 43.375 92.375 C45.08042969 92.41173828 45.08042969 92.41173828 46.8203125 92.44921875 C53.38943224 92.54342457 53.38943224 92.54342457 59.2890625 89.9765625 C59.85367188 89.32429688 60.41828125 88.67203125 61 88 C60.41992188 87.6596875 59.83984375 87.319375 59.2421875 86.96875 C51.27707698 82.02670123 46.09919499 76.41342666 43.46875 67.28515625 C41.7056534 58.69006035 43.57904409 51.40959827 47.75 43.8125 C52.84994567 37.43756792 59.76338204 31.25887174 68 30 C77.85506724 29.2931538 85.38181945 30.47297007 93.33203125 36.4765625 C100.57021537 43.08755033 103.72662782 50.25918418 104.1875 59.9375 C103.99330321 68.51452483 100.3579016 75.43607627 95 82 C87.82866854 87.96427567 80.16091839 90 71 90 C69.68 93.96 68.36 97.92 67 102 C62.95450205 102.80909959 59.80341961 103.12179923 55.7409668 103.11352539 C54.50005783 103.11344986 53.25914886 103.11337433 51.9806366 103.11329651 C50.63683023 103.10819072 49.29302429 103.10297474 47.94921875 103.09765625 C46.56631013 103.09578965 45.18340085 103.09436689 43.80049133 103.09336853 C40.17225294 103.08956237 36.544055 103.07974843 32.91583252 103.06866455 C29.20886787 103.05840945 25.50189664 103.05386215 21.79492188 103.04882812 C14.52992954 103.03812435 7.26497045 103.0210709 0 103 C0 100.36 0 97.72 0 95 C4.95 94.01 4.95 94.01 10 93 C10.0694077 82.34311115 10.12276419 71.68627578 10.15543652 61.02920723 C10.17111495 56.08107667 10.19239277 51.13310036 10.22631836 46.18505859 C10.2588344 41.41291659 10.2768366 36.64092325 10.28463173 31.86867905 C10.29018923 30.04493747 10.30104119 28.22120433 10.31719017 26.39752579 C10.33886167 23.8496343 10.34197129 21.30236285 10.34057617 18.75439453 C10.351362 17.99482452 10.36214783 17.23525452 10.3732605 16.45266724 C10.39483776 14.1392596 10.39483776 14.1392596 10 11 C6.55549263 8.70366176 4.06187717 8.45983515 0 8 C0 5.36 0 2.72 0 0 Z M58.6875 42.875 C54.53588056 50.56318415 54.00202508 57.30213235 55 66 C57.07857485 72.12099803 59.47436256 77.39632341 65 81 C65.33 79.68 65.66 78.36 66 77 C67.65 77.33 69.3 77.66 71 78 C71.33 79.65 71.66 81.3 72 83 C73.41623216 83.05447047 74.83308191 83.09300508 76.25 83.125 C77.03890625 83.14820313 77.8278125 83.17140625 78.640625 83.1953125 C82.23979349 82.89736809 84.22204323 81.84172372 86.66796875 79.1953125 C87.16941406 78.51210937 87.67085937 77.82890625 88.1875 77.125 C88.95126953 76.10792969 88.95126953 76.10792969 89.73046875 75.0703125 C93.33211011 69.19686659 92.53478263 61.62417421 92 55 C90.69002874 50.17607741 88.7654473 46.14817095 86 42 C85.34 42 84.68 42 84 42 C83.67 41.01 83.34 40.02 83 39 C74.88956218 35.14754204 64.55760627 35.57703004 58.6875 42.875 Z " fill="#FFFFFF" transform="translate(0,12)"/>
<path d="M0 0 C5.28 0 10.56 0 16 0 C16 1.32 16 2.64 16 4 C15.01 4.33 14.02 4.66 13 5 C12.76572918 13.18646368 12.91699104 21.03287083 15 29 C15.98267859 30.20561184 15.98267859 30.20561184 17.84765625 30.09765625 C19.8984375 30.06510417 21.94921875 30.03255208 24 30 C25.25838557 27.48322887 25.20818973 25.58706712 25.31640625 22.7734375 C25.35830078 21.7421875 25.40019531 20.7109375 25.44335938 19.6484375 C25.48267578 18.56820313 25.52199219 17.48796875 25.5625 16.375 C25.60568359 15.28703125 25.64886719 14.1990625 25.69335938 13.078125 C25.7996453 10.3855483 25.90168057 7.69287747 26 5 C25.34 4.67 24.68 4.34 24 4 C24 2.68 24 1.36 24 0 C28.29 0 32.58 0 37 0 C37 1.32 37 2.64 37 4 C36.01 4 35.02 4 34 4 C34 4.99 34 5.98 34 7 C35.2375 6.9175 36.475 6.835 37.75 6.75 C41.02245691 6.73839554 41.76991555 6.82743667 44.5 8.875 C46 11 46 11 46 13 C46.66 13 47.32 13 48 13 C49.7265625 14.96875 49.7265625 14.96875 51.625 17.5 C52.25664063 18.3353125 52.88828125 19.170625 53.5390625 20.03125 C54.02117187 20.6809375 54.50328125 21.330625 55 22 C55 18.37 55 14.74 55 11 C54.01 11 53.02 11 52 11 C52.33 9.68 52.66 8.36 53 7 C56.3 7 59.6 7 63 7 C63.495 8.98 63.495 8.98 64 11 C63.34 11.33 62.68 11.66 62 12 C61.67 20.25 61.34 28.5 61 37 C55.38879914 35.87775983 55.38879914 35.87775983 53.125 32.9375 C52.62871094 32.31488281 52.13242188 31.69226563 51.62109375 31.05078125 C51.08613281 30.37402344 50.55117187 29.69726562 50 29 C48.73708149 27.53480707 47.46627704 26.07637271 46.1875 24.625 C45.60355469 23.95726563 45.01960938 23.28953125 44.41796875 22.6015625 C43.63317045 21.7151512 42.83714795 20.83714795 42 20 C41.97291433 21.60407328 41.95356517 23.2082785 41.9375 24.8125 C41.92589844 25.70582031 41.91429687 26.59914063 41.90234375 27.51953125 C41.88990033 30.13413791 41.88990033 30.13413791 43 33 C43.99 33 44.98 33 46 33 C46 34.32 46 35.64 46 37 C37.42857143 37.14285714 37.42857143 37.14285714 34 36 C34.16298584 35.43829102 34.32597168 34.87658203 34.49389648 34.29785156 C35.02985098 31.86446819 35.11361396 29.72377772 35.09765625 27.234375 C35.09443359 26.34492188 35.09121094 25.45546875 35.08789062 24.5390625 C35.07951172 23.61867188 35.07113281 22.69828125 35.0625 21.75 C35.05798828 20.81414063 35.05347656 19.87828125 35.04882812 18.9140625 C35.03706918 16.60930959 35.02063426 14.30468773 35 12 C34.96261719 12.845625 34.92523438 13.69125 34.88671875 14.5625 C33.98696215 30.0877119 33.98696215 30.0877119 28.5 35.4375 C23.76531746 38.39667658 19.42576708 38.49570962 14 38 C10.29549424 37.0987122 7.65087957 35.7593595 5.125 32.8125 C2.55702908 26.39257269 2.86534963 19.31543465 2.9375 12.5 C2.94201172 11.67757813 2.94652344 10.85515625 2.95117188 10.0078125 C2.96281511 8.00517604 2.98074444 6.00257773 3 4 C2.01 4 1.02 4 0 4 C0 2.68 0 1.36 0 0 Z " fill="#FFFFFF" transform="translate(43,0)"/>
<path d="M0 0 C103.95 0 207.9 0 315 0 C315 0.99 315 1.98 315 3 C211.05 3 107.1 3 0 3 C0 2.01 0 1.02 0 0 Z " fill="#FFFFFF" transform="translate(43,154)"/>
<path d="M0 0 C3.50436082 1.32924031 5.3834084 2.3834084 8 5 C8.56949153 11.26440678 8.56949153 11.26440678 6.5 13.9375 C6.005 14.288125 5.51 14.63875 5 15 C6.2491742 18.45925163 7.67527795 21.14693203 10 24 C10.33 22.35 10.66 20.7 11 19 C12.32 19 13.64 19 15 19 C15.66 20.65 16.32 22.3 17 24 C18.98 24 20.96 24 23 24 C22.33655833 21.09744268 21.54558192 19.39926161 19.12109375 17.625 C17.68757084 16.76334759 16.23966733 15.92509561 14.77734375 15.11328125 C13 14 13 14 12 12 C11.31428571 4.91428571 11.31428571 4.91428571 13.875 1.5 C18.17322383 -0.56314744 22.30510613 -0.88327664 27 0 C28.82421875 1.265625 28.82421875 1.265625 30 3 C30.10118893 5.78535848 29.49854208 8.23535757 29 11 C28.01 11 27.02 11 26 11 C25.01 9.02 24.02 7.04 23 5 C22.01 5 21.02 5 20 5 C20.37249443 7.65903716 20.72785789 8.76075419 22.77734375 10.5625 C23.84662109 11.2740625 23.84662109 11.2740625 24.9375 12 C27.98975929 14.03853252 29.69921611 15.51989232 31 19 C31 23.13795336 30.35736901 24.61914194 27.50390625 27.66015625 C23.54777138 30.8010983 19.81976617 30.67622618 14.9375 30.5 C13.75317383 30.50386719 13.75317383 30.50386719 12.54492188 30.5078125 C7.9173765 30.4302342 4.70740599 30.03022298 1 27 C-0.58203125 24.95703125 -0.58203125 24.95703125 -1.8125 22.8125 C-2.23144531 22.09707031 -2.65039062 21.38164062 -3.08203125 20.64453125 C-3.38496094 20.10183594 -3.68789062 19.55914063 -4 19 C-4.09978121 22.49234244 -3.77842938 25.59437148 -3 29 C-4.258125 29.185625 -5.51625 29.37125 -6.8125 29.5625 C-7.52019531 29.66691406 -8.22789062 29.77132812 -8.95703125 29.87890625 C-11 30 -11 30 -14 29 C-14 19.76 -14 10.52 -14 1 C-9.84350816 -1.07824592 -4.53799977 -0.34360834 0 0 Z M-5 5 C-5 7.64 -5 10.28 -5 13 C-3.68 12.67 -2.36 12.34 -1 12 C-1 10.02 -1 8.04 -1 6 C-2.32 5.67 -3.64 5.34 -5 5 Z " fill="#FFFFFF" transform="translate(187,7)"/>
<path d="M0 0 C3.3 0 6.6 0 10 0 C10.268125 0.825 10.53625 1.65 10.8125 2.5 C12.12524922 6.36915561 13.55101284 10.17994294 15 14 C17.1446143 11.8553857 17.44564603 10.98260002 18.125 8.125 C18.29257813 7.44695313 18.46015625 6.76890625 18.6328125 6.0703125 C19.11642208 3.69401467 19.11642208 3.69401467 19 0 C28.9 0 38.8 0 49 0 C49 2.64 49 5.28 49 8 C48.34 8.66 47.68 9.32 47 10 C46.75746187 12.21072977 46.75746187 12.21072977 46.875 14.625 C46.89304688 15.44226562 46.91109375 16.25953125 46.9296875 17.1015625 C46.95289063 17.72804688 46.97609375 18.35453125 47 19 C45.125 19.625 45.125 19.625 43 20 C42.34 19.34 41.68 18.68 41 18 C40.01 18 39.02 18 38 18 C38 19.98 38 21.96 38 24 C41.43230448 23.73606499 41.43230448 23.73606499 45 23 C45.66 22.01 46.32 21.02 47 20 C48.65 20.33 50.3 20.66 52 21 C51.33333333 23.66666667 50.66666667 26.33333333 50 29 C42.41 29.33 34.82 29.66 27 30 C27 28.68 27 27.36 27 26 C27.66 25.67 28.32 25.34 29 25 C29.33 18.07 29.66 11.14 30 4 C26.95864753 4.67338041 26.95864753 4.67338041 25.82421875 6.7578125 C22.17336445 14.36062248 19.04924802 22.14111334 16 30 C14.68 30 13.36 30 12 30 C8.30956397 23.18447134 5.56133163 16.24242703 3.11328125 8.90625 C2.19814483 5.92656263 2.19814483 5.92656263 0 4 C0 2.68 0 1.36 0 0 Z M37 5 C37 6.98 37 8.96 37 11 C37.99 11.33 38.98 11.66 40 12 C40.66 11.67 41.32 11.34 42 11 C42 10.34 42 9.68 42 9 C43.32 8.67 44.64 8.34 46 8 C45.34 7.01 44.68 6.02 44 5 C40.41642759 4.74984127 40.41642759 4.74984127 37 5 Z " fill="#FFFFFF" transform="translate(121,7)"/>
<path d="M0 0 C4.47915271 -0.0292814 8.95828042 -0.04689296 13.4375 -0.0625 C15.32758789 -0.07506836 15.32758789 -0.07506836 17.25585938 -0.08789062 C23.9289203 -0.10531376 30.38768168 0.08621934 37 1 C37.99 3.97 38.98 6.94 40 10 C42.18044585 6.72933122 42.09857402 5.74581273 42 2 C43 1 43 1 45.9375 0.875 C49 1 49 1 51 2 C51 6 51 6 49.75 7.3125 C48.88375 8.1478125 48.88375 8.1478125 48 9 C43.85123138 14.80827606 43.57713026 18.98741007 44 26 C44 27.32 44 28.64 44 30 C40.37 30 36.74 30 33 30 C32.505 28.515 32.505 28.515 32 27 C32.33 26.34 32.66 25.68 33 25 C33.58791503 18.29776866 32.05989637 13.92317289 29 8 C28.67 7.34 28.34 6.68 28 6 C27.67 6.99 27.34 7.98 27 9 C25.68 9 24.36 9 23 9 C22.67 8.34 22.34 7.68 22 7 C19.525 6.505 19.525 6.505 17 6 C17.33 12.6 17.66 19.2 18 26 C18.66 26.33 19.32 26.66 20 27 C20 28.32 20 29.64 20 31 C18.58344207 31.0272415 17.16672955 31.04650467 15.75 31.0625 C14.56664062 31.07990234 14.56664062 31.07990234 13.359375 31.09765625 C11.09308998 31.00385306 9.1711105 30.63241063 7 30 C7.144375 28.92621094 7.28875 27.85242188 7.4375 26.74609375 C7.62523429 25.30992644 7.81272109 23.87372676 8 22.4375 C8.09539062 21.73302734 8.19078125 21.02855469 8.2890625 20.30273438 C8.86666417 15.82632145 9.09489383 11.51338762 9 7 C7.35 6.67 5.7 6.34 4 6 C3.67 6.99 3.34 7.98 3 9 C1.68 9 0.36 9 -1 9 C-1.125 2.25 -1.125 2.25 0 0 Z " fill="#FFFFFF" transform="translate(233,6)"/>
<path d="M0 0 C3.27899402 2.95109461 5.25418613 4.79226659 6.00390625 9.23828125 C6.18163797 19.32159433 6.18163797 19.32159433 2.8125 23.4375 C-1.09481891 27.11711967 -4.06635897 28.13621897 -9.4375 28.5625 C-15.1095488 28.37094863 -18.89435425 26.13094345 -22.875 22.1875 C-25.81002445 18.50707252 -26.381133 15.40742963 -26.08984375 10.75390625 C-25.07336979 6.43894061 -22.8015798 3.17200555 -19.5 0.25 C-13.28475435 -2.88839137 -6.21046079 -3.1052304 0 0 Z M-15.5 5.25 C-16.99546613 9.99790068 -16.90593151 14.19826836 -15.125 18.8125 C-13.71450202 21.10087002 -13.71450202 21.10087002 -12.5 22.25 C-10.16702567 22.29092937 -7.83294775 22.29241723 -5.5 22.25 C-5.5 21.59 -5.5 20.93 -5.5 20.25 C-4.84 20.25 -4.18 20.25 -3.5 20.25 C-1.25039329 15.75078658 -2.14016925 10.36947344 -3.625 5.75 C-5.32259569 3.01065424 -5.32259569 3.01065424 -8.4375 2.1875 C-12.02529185 2.26072024 -12.9559784 2.80177838 -15.5 5.25 Z " fill="#FFFFFF" transform="translate(323.5,8.75)"/>
<path d="M0 0 C3.31248187 -0.02888146 6.62493167 -0.04675799 9.9375 -0.0625 C10.88302734 -0.07087891 11.82855469 -0.07925781 12.80273438 -0.08789062 C14.15141602 -0.09272461 14.15141602 -0.09272461 15.52734375 -0.09765625 C16.77632446 -0.10551147 16.77632446 -0.10551147 18.05053711 -0.11352539 C20 0 20 0 21 1 C21.23529412 6.52941176 21.23529412 6.52941176 20 9 C19.77532169 10.53668865 19.59203195 12.07968054 19.4375 13.625 C19.35371094 14.44226562 19.26992188 15.25953125 19.18359375 16.1015625 C19.09271484 17.04128906 19.09271484 17.04128906 19 18 C15.72724974 18 13.153368 17.70074844 10 17 C10.55312735 21.02992782 11.1558062 25.02022924 12 29 C9.00519083 29.8723412 6.36424089 30.10829766 3.25 30.0625 C2.45078125 30.05347656 1.6515625 30.04445313 0.828125 30.03515625 C0.22484375 30.02355469 -0.3784375 30.01195313 -1 30 C-1 28.68 -1 27.36 -1 26 C-0.34 26 0.32 26 1 26 C1.93931158 23.18206525 2.07972565 21.81658876 1.9140625 18.9453125 C1.87023437 18.16542969 1.82640625 17.38554687 1.78125 16.58203125 C1.7296875 15.77121094 1.678125 14.96039063 1.625 14.125 C1.58117187 13.32191406 1.53734375 12.51882812 1.4921875 11.69140625 C1.25618064 7.7120683 0.9293553 3.89069082 0 0 Z M10 5 C10 7.31 10 9.62 10 12 C13.37462715 11.45276317 15.08235 10.9451 18 9 C17.34 9 16.68 9 16 9 C16 7.68 16 6.36 16 5 C14.02 5 12.04 5 10 5 Z " fill="#FFFFFF" transform="translate(331,7)"/>
<path d="M0 0 C2.97922593 -0.02683987 5.95821295 -0.04676037 8.9375 -0.0625 C9.78763672 -0.07087891 10.63777344 -0.07925781 11.51367188 -0.08789062 C12.32255859 -0.09111328 13.13144531 -0.09433594 13.96484375 -0.09765625 C14.7137085 -0.10289307 15.46257324 -0.10812988 16.23413086 -0.11352539 C18 0 18 0 19 1 C19.04080783 2.99958364 19.04254356 5.00045254 19 7 C18.01 7 17.02 7 16 7 C16 9.64 16 12.28 16 15 C17.32 15 18.64 15 20 15 C20.125 17.375 20.125 17.375 20 20 C18 22 18 22 14.0859375 22.1953125 C12.51550649 22.18200376 10.94513779 22.15813602 9.375 22.125 C8.57320313 22.11597656 7.77140625 22.10695312 6.9453125 22.09765625 C4.96341477 22.07406223 2.98167019 22.03819065 1 22 C1 18.2158381 1.22055268 14.52253876 1.5 10.75 C1.5928125 9.48671875 1.685625 8.2234375 1.78125 6.921875 C1.88953125 5.47554687 1.88953125 5.47554687 2 4 C1.01 3.67 0.02 3.34 -1 3 C-0.67 2.01 -0.34 1.02 0 0 Z M9 5 C9 5.99 9 6.98 9 8 C9.99 8 10.98 8 12 8 C12 7.34 12 6.68 12 6 C12.99 5.67 13.98 5.34 15 5 C13.02 5 11.04 5 9 5 Z M9 14 C9 14.99 9 15.98 9 17 C11.475 17.495 11.475 17.495 14 18 C14.66 17.01 15.32 16.02 16 15 C13.69 14.67 11.38 14.34 9 14 Z " fill="#FFFFFF" transform="translate(259,128)"/>
<path d="M0 0 C3.96 0 7.92 0 12 0 C11.67 8.58 11.34 17.16 11 26 C11.99 26 12.98 26 14 26 C14 27.32 14 28.64 14 30 C9.05 30 4.1 30 -1 30 C-0.67 28.68 -0.34 27.36 0 26 C0.66 26 1.32 26 2 26 C2 18.74 2 11.48 2 4 C1.34 4 0.68 4 0 4 C0 2.68 0 1.36 0 0 Z " fill="#FFFFFF" transform="translate(108,7)"/>
<path d="M0 0 C3.96 0 7.92 0 12 0 C12 1.32 12 2.64 12 4 C11.34 4 10.68 4 10 4 C10.08081582 7.43846747 10.19366152 10.87515312 10.3125 14.3125 C10.33505859 15.28896484 10.35761719 16.26542969 10.38085938 17.27148438 C10.41630859 18.20927734 10.45175781 19.14707031 10.48828125 20.11328125 C10.51446533 20.97735596 10.54064941 21.84143066 10.56762695 22.73168945 C11.0817672 25.42896616 12.00172653 26.20378046 14 28 C14 28.66 14 29.32 14 30 C8.72 30 3.44 30 -2 30 C-1.67 28.68 -1.34 27.36 -1 26 C-0.34 26 0.32 26 1 26 C1.33 18.74 1.66 11.48 2 4 C1.01 4 0.02 4 -1 4 C-0.67 2.68 -0.34 1.36 0 0 Z " fill="#FFFFFF" transform="translate(219,7)"/>
</svg>
