<?xml version="1.0" encoding="UTF-8"?>
<svg version="1.1" xmlns="http://www.w3.org/2000/svg" width="636" height="126">
<path d="M0 0 C-0.06132377 9.26694309 -0.13851065 18.53358097 -0.23571491 27.80021763 C-0.28036191 32.10352757 -0.31963036 36.40674408 -0.34643555 40.71020508 C-0.37252536 44.86658319 -0.41296742 49.02260067 -0.46318626 53.17875481 C-0.47981672 54.76105181 -0.49135474 56.34341114 -0.49761391 57.92578316 C-0.50729703 60.14955194 -0.53540426 62.37240604 -0.56762695 64.59594727 C-0.57873001 65.85947525 -0.58983307 67.12300323 -0.60127258 68.42481995 C-1.34548813 75.09781121 -3.88637185 79.5419652 -9 84 C-12.94872424 85.97436212 -17.69616767 85.43829693 -22 85 C-26.4655964 82.80779813 -29.22069127 80.09466569 -32 76 C-32.48101807 73.00700378 -32.48101807 73.00700378 -32.45410156 69.64916992 C-32.45379944 68.3882402 -32.45349731 67.12731049 -32.45318604 65.82817078 C-32.43276265 64.4622636 -32.41189872 63.09636295 -32.390625 61.73046875 C-32.38315885 60.32514757 -32.37746768 58.91981593 -32.37347412 57.51448059 C-32.35824686 53.82678164 -32.31899146 50.13971909 -32.2746582 46.45227051 C-32.2336419 42.68506478 -32.21544962 38.91775558 -32.1953125 35.15039062 C-32.15249324 27.76663786 -32.08427861 20.38340831 -32 13 C-23.58800111 8.7536798 -23.58800111 8.7536798 -19.859375 7.1484375 C-19.18132813 6.85453125 -18.50328125 6.560625 -17.8046875 6.2578125 C-16.78761719 5.82082031 -16.78761719 5.82082031 -15.75 5.375 C-10.6874136 3.23041621 -10.6874136 3.23041621 -5.765625 0.7890625 C-4 0 -4 0 0 0 Z " fill="#FAFAF9" transform="translate(32,18)"/>
<path d="M0 0 C0.04647693 11.67493148 0.08194698 23.34984069 0.10362434 35.02484608 C0.11403187 40.44685462 0.12813539 45.86879954 0.15087891 51.29077148 C0.17271577 56.5297832 0.18459139 61.76873397 0.18975449 67.0077877 C0.19343085 68.99991501 0.20060955 70.99203924 0.21146011 72.9841404 C0.30104844 90.12406769 0.10795594 105.10227124 -12.25 118.3125 C-19.71654799 125.51238556 -27.71361516 126.39729875 -37.65625 126.26953125 C-42.65446098 125.86663808 -47.26171729 124.5952535 -52 123 C-52.33 121.68 -52.66 120.36 -53 119 C-52.09121094 119.23396484 -52.09121094 119.23396484 -51.1640625 119.47265625 C-39.68936687 122.13831631 -30.44982094 120.23285281 -20.25 114.4375 C-11.97706803 105.47515704 -9.6758874 94.6693538 -9.76049805 82.85595703 C-9.75848389 81.99139389 -9.75646973 81.12683075 -9.75439453 80.23606873 C-9.75087403 78.37661177 -9.75158494 76.51714278 -9.75617027 74.65768814 C-9.76179957 71.71557155 -9.75254896 68.7738438 -9.7389679 65.83175659 C-9.70196867 57.47343001 -9.68335579 49.11524231 -9.69458008 40.75683594 C-9.70041874 35.63046211 -9.68224376 30.50464409 -9.64869118 25.37838364 C-9.64072636 23.4271182 -9.64202877 21.47579237 -9.65271568 19.52453995 C-9.66698477 16.80496404 -9.65083836 14.08715319 -9.62768555 11.36767578 C-9.63945328 10.56038528 -9.65122101 9.75309479 -9.66334534 8.92134094 C-9.6257782 6.6789856 -9.6257782 6.6789856 -9 3 C-5.78009376 0.15458731 -4.35029725 0 0 0 Z " fill="#FAFAF9" transform="translate(73,0)"/>
<path d="M0 0 C6.6 0 13.2 0 20 0 C20.33 1.32 20.66 2.64 21 4 C19.02 4.66 17.04 5.32 15 6 C15.01160156 7.05960938 15.02320313 8.11921875 15.03515625 9.2109375 C15.04453476 10.59895658 15.05363489 11.98697755 15.0625 13.375 C15.07087891 14.07367188 15.07925781 14.77234375 15.08789062 15.4921875 C15.11328125 20.7734375 15.11328125 20.7734375 14 23 C14.66 22.67 15.32 22.34 16 22 C18.55387492 21.92826194 21.07276761 21.90712268 23.625 21.9375 C26.05875 21.958125 28.4925 21.97875 31 22 C31.33 16.39 31.66 10.78 32 5 C30.02 4.34 28.04 3.68 26 3 C26.33 2.01 26.66 1.02 27 0 C33.6 0 40.2 0 47 0 C47 1.32 47 2.64 47 4 C45.35 4.66 43.7 5.32 42 6 C42 19.2 42 32.4 42 46 C43.65 46.66 45.3 47.32 47 48 C46.67 49.32 46.34 50.64 46 52 C43.04160645 52.02689449 40.08345573 52.04678741 37.125 52.0625 C36.28324219 52.07087891 35.44148438 52.07925781 34.57421875 52.08789062 C33.76855469 52.09111328 32.96289062 52.09433594 32.1328125 52.09765625 C31.01737061 52.10551147 31.01737061 52.10551147 29.87939453 52.11352539 C28 52 28 52 26 51 C26 50.01 26 49.02 26 48 C27.65 47.34 29.3 46.68 31 46 C31 40.06 31 34.12 31 28 C25.72 28.33 20.44 28.66 15 29 C15 34.94 15 40.88 15 47 C16.98 47.33 18.96 47.66 21 48 C21 48.99 21 49.98 21 51 C18.703463 52.1482685 17.41686833 52.11561175 14.8671875 52.09765625 C14.06152344 52.09443359 13.25585938 52.09121094 12.42578125 52.08789062 C11.16314453 52.07532227 11.16314453 52.07532227 9.875 52.0625 C9.02550781 52.05798828 8.17601562 52.05347656 7.30078125 52.04882812 C5.20049091 52.03702874 3.1002367 52.01909306 1 52 C0.67 50.68 0.34 49.36 0 48 C1.65 47.34 3.3 46.68 5 46 C5 32.8 5 19.6 5 6 C2.525 5.01 2.525 5.01 0 4 C0 2.68 0 1.36 0 0 Z " fill="#FAFAF9" transform="translate(309,12)"/>
<path d="M0 0 C0.33 1.32 0.66 2.64 1 4 C1.66 3.34 2.32 2.68 3 2 C6.84067474 -0.56044983 9.51038309 -0.74524005 14 0 C17.1993483 1.32146995 18.57039314 2.13026877 20.10693359 5.2409668 C21.0840927 8.25979541 21.3165829 10.78894412 21.4140625 13.95703125 C21.47207031 15.62475586 21.47207031 15.62475586 21.53125 17.32617188 C21.5621875 18.47666016 21.593125 19.62714844 21.625 20.8125 C21.68300781 22.56723633 21.68300781 22.56723633 21.7421875 24.35742188 C21.8362513 27.23812564 21.92189877 30.11882654 22 33 C25.28696233 33.79953138 26.71023192 34.09658936 30 33 C30.33 23.76 30.66 14.52 31 5 C29.02 4.67 27.04 4.34 25 4 C25 3.01 25 2.02 25 1 C29.95 0.67 34.9 0.34 40 0 C39.91298828 3.41279297 39.91298828 3.41279297 39.82421875 6.89453125 C39.78522274 9.09867873 39.75486462 11.30278778 39.7253418 13.50708008 C39.70019922 15.03883061 39.66607953 16.57046117 39.62280273 18.10180664 C39.56213058 20.30384884 39.53379109 22.50430574 39.51171875 24.70703125 C39.48591232 25.39150833 39.4601059 26.07598541 39.43351746 26.78120422 C39.37685863 28.95768953 39.37685863 28.95768953 40 32 C42.4289703 33.87498229 42.4289703 33.87498229 45 35 C45 35.66 45 36.32 45 37 C41.95303929 38.52348035 38.77919939 38.14211557 35.4375 38.1328125 C34.69040771 38.13376923 33.94331543 38.13472595 33.17358398 38.13571167 C31.59326086 38.13639249 30.01293494 38.13454503 28.43261719 38.13037109 C26.0097019 38.12502142 23.586972 38.13031935 21.1640625 38.13671875 C19.63020792 38.13605795 18.09635346 38.13477675 16.5625 38.1328125 C15.83538818 38.13483673 15.10827637 38.13686096 14.35913086 38.13894653 C9.22992361 38.1149618 9.22992361 38.1149618 7 37 C8 34 8 34 10.0625 32.8125 C10.701875 32.544375 11.34125 32.27625 12 32 C12.086985 28.22931168 12.14038579 24.45888068 12.1875 20.6875 C12.21263672 19.61564453 12.23777344 18.54378906 12.26367188 17.43945312 C12.27333984 16.41142578 12.28300781 15.38339844 12.29296875 14.32421875 C12.3086792 13.37635498 12.32438965 12.42849121 12.34057617 11.4519043 C11.94475643 8.60228592 11.22175281 7.75023895 9 6 C6.01779872 6.54839062 6.01779872 6.54839062 3 8 C0.51570925 13.16470972 0.76548709 18.28141753 0.875 23.875 C0.88853516 25.19371094 0.88853516 25.19371094 0.90234375 26.5390625 C0.92575423 28.6928271 0.9616199 30.84645014 1 33 C2.32 33.33 3.64 33.66 5 34 C4.67 35.32 4.34 36.64 4 38 C1.37493198 38.02690844 -1.24986173 38.04679404 -3.875 38.0625 C-4.62136719 38.07087891 -5.36773437 38.07925781 -6.13671875 38.08789062 C-11.7734375 38.11328125 -11.7734375 38.11328125 -14 37 C-13.67 36.01 -13.34 35.02 -13 34 C-11.515 33.505 -11.515 33.505 -10 33 C-8.64299353 30.28598706 -8.8876139 28.15153684 -8.90234375 25.1171875 C-8.90556641 23.95058594 -8.90878906 22.78398438 -8.91210938 21.58203125 C-8.92048828 20.35871094 -8.92886719 19.13539062 -8.9375 17.875 C-8.94201172 16.64394531 -8.94652344 15.41289063 -8.95117188 14.14453125 C-8.9629867 11.09630608 -8.97945972 8.04817686 -9 5 C-10.32 4.67 -11.64 4.34 -13 4 C-13 3.01 -13 2.02 -13 1 C-8.60563789 0.14256349 -4.47427924 -0.08948558 0 0 Z " fill="#FAFAF9" transform="translate(168,26)"/>
<path d="M0 0 C0.66 0.33 1.32 0.66 2 1 C2.06987835 11.44963876 2.1230018 21.89922083 2.15543652 32.34904671 C2.17101292 37.20267181 2.19210237 42.05613564 2.22631836 46.90966797 C2.25920083 51.60405918 2.27691316 56.29829644 2.28463173 60.99279404 C2.29012389 62.77312514 2.30084674 64.55344897 2.31719017 66.33371353 C2.55253768 93.06184198 2.55253768 93.06184198 -5 104 C-5.66 104 -6.32 104 -7 104 C-7.23976562 104.60457031 -7.47953125 105.20914063 -7.7265625 105.83203125 C-9.2789006 108.47481545 -10.68190437 109.26937489 -13.375 110.6875 C-14.14585938 111.10386719 -14.91671875 111.52023438 -15.7109375 111.94921875 C-23.47854813 115.51489667 -32.17221776 114.75869324 -40.02734375 111.8515625 C-42.06020549 110.9740103 -44.03144049 110.01290534 -46 109 C-45.67 108.01 -45.34 107.02 -45 106 C-44.071875 106.33 -43.14375 106.66 -42.1875 107 C-34.34063299 109.20792412 -26.2356378 108.83257527 -19 105 C-12.59639578 100.92497913 -10.16889672 95.34809243 -8.42781639 88.22098541 C-7.74564101 84.67950922 -7.74880796 81.22379893 -7.79223633 77.62792969 C-7.79343475 76.83339386 -7.79463318 76.03885803 -7.79586792 75.22024536 C-7.79899747 73.51026982 -7.80626132 71.80029769 -7.8173008 70.09035492 C-7.83224439 67.38326366 -7.83052867 64.67666266 -7.82365417 61.96954346 C-7.80488348 54.27836327 -7.79857971 46.58757474 -7.84545898 38.89648438 C-7.87301347 34.17959902 -7.86677165 29.46379204 -7.83844566 24.74692535 C-7.83418332 22.95275607 -7.84267694 21.15850934 -7.8641758 19.36446381 C-7.89297937 16.85991418 -7.878789 14.35901269 -7.85473633 11.85449219 C-7.87369461 11.11468109 -7.89265289 10.37487 -7.91218567 9.61264038 C-7.86628723 7.54022217 -7.86628723 7.54022217 -7 4 C-4.74090297 1.94204828 -2.90644873 1.17719698 0 0 Z " fill="#FAFAF9" transform="translate(57,5)"/>
<path d="M0 0 C6.6 0 13.2 0 20 0 C20 1.32 20 2.64 20 4 C18.35 4.66 16.7 5.32 15 6 C14.95041052 10.46572364 14.914191 14.93129961 14.89013672 19.3972168 C14.88010455 20.91514886 14.86647562 22.43306173 14.84912109 23.95092773 C14.82474965 26.1379064 14.81348905 28.32462864 14.8046875 30.51171875 C14.79421387 31.82615967 14.78374023 33.14060059 14.77294922 34.49487305 C14.98964004 37.84006668 15.47728859 40.03955143 17 43 C18.98576059 44.68025896 20.35099329 45.00131112 22.93359375 44.99609375 C26.11006439 44.72215958 28.34504615 44.4859335 30.9375 42.5625 C33.37705919 38.97491295 33.12811528 35.78488578 33.09765625 31.5859375 C33.0962413 30.85629791 33.09482635 30.12665833 33.09336853 29.37490845 C33.08776531 27.04156415 33.07521235 24.70831536 33.0625 22.375 C33.05748541 20.79427222 33.05292243 19.21354293 33.04882812 17.6328125 C33.03779484 13.75517146 33.02052811 9.87760193 33 6 C31.35 5.34 29.7 4.68 28 4 C28 2.68 28 1.36 28 0 C33.94 0 39.88 0 46 0 C46 1.32 46 2.64 46 4 C44.35 4.66 42.7 5.32 41 6 C40.98541748 6.96301025 40.97083496 7.92602051 40.95581055 8.91821289 C40.89750077 12.51737168 40.82027261 16.11592605 40.73754883 19.71459961 C40.70445223 21.26723362 40.67637349 22.81998353 40.65356445 24.37280273 C40.61973476 26.6149194 40.56741013 28.85598847 40.51171875 31.09765625 C40.50213387 32.12621483 40.50213387 32.12621483 40.49235535 33.17555237 C40.32845331 38.64185837 39.1444232 43.43958214 35.5703125 47.70703125 C30.53807088 51.55601606 26.59257139 53.55408034 20.12109375 53.3828125 C14.94250383 52.4481867 11.0983243 49.15464863 7.5625 45.4375 C4.64021679 40.8787382 4.864584 36.46177706 4.90234375 31.171875 C4.9037587 30.42286926 4.90517365 29.67386353 4.90663147 28.90216064 C4.91221341 26.51806588 4.92476255 24.13406622 4.9375 21.75 C4.94251734 20.13020969 4.94707984 18.51041791 4.95117188 16.890625 C4.96217692 12.92704688 4.97942909 8.96353955 5 5 C3.02 4.34 1.04 3.68 -1 3 C-0.67 2.01 -0.34 1.02 0 0 Z " fill="#FAFAF9" transform="translate(110,12)"/>
<path d="M0 0 C0.33 15.84 0.66 31.68 1 48 C2.32 48.33 3.64 48.66 5 49 C4.67 50.32 4.34 51.64 4 53 C2.22950311 53.05410687 0.45853151 53.09284119 -1.3125 53.125 C-2.79169922 53.15980469 -2.79169922 53.15980469 -4.30078125 53.1953125 C-7 53 -7 53 -10 51 C-10.845625 51.515625 -11.69125 52.03125 -12.5625 52.5625 C-16.78184365 54.3269528 -18.62853685 54.30376971 -23 53 C-27.30859407 50.34377396 -30.83325861 46.98758043 -32.5625 42.11328125 C-34.05033633 34.92650039 -33.91200633 28.02447011 -30.14453125 21.62109375 C-27.74950934 18.22882722 -25.96208971 16.32069657 -22 15 C-19.87890625 14.796875 -19.87890625 14.796875 -17.5625 14.75 C-16.80066406 14.72421875 -16.03882813 14.6984375 -15.25390625 14.671875 C-13 15 -13 15 -9 18 C-9 13.71 -9 9.42 -9 5 C-10.65 5 -12.3 5 -14 5 C-13.67 3.68 -13.34 2.36 -13 1 C-11.20843648 0.83222817 -9.4167455 0.66581706 -7.625 0.5 C-6.62726563 0.4071875 -5.62953125 0.314375 -4.6015625 0.21875 C-2 0 -2 0 0 0 Z M-21.375 21.75 C-25.23169601 27.09004063 -24.44164118 33.69305397 -24 40 C-22.48205663 44.26469804 -21.75096319 45.49935788 -18 48 C-15.15288555 47.78646642 -13.50536051 47.39706897 -11.25 45.625 C-8.44509641 41.97862534 -8.80206576 38.04191192 -8.75 33.625 C-8.72421875 32.31789063 -8.6984375 31.01078125 -8.671875 29.6640625 C-9.01515323 25.83078888 -9.58879444 23.96550569 -12 21 C-16.00471181 19.76217999 -17.91849027 19.20309809 -21.375 21.75 Z M-9 48 C-8 50 -8 50 -8 50 Z " fill="#FAFAF9" transform="translate(303,11)"/>
<path d="M0 0 C0.33 6.27 0.66 12.54 1 19 C1.99 18.01 2.98 17.02 4 16 C7.74393425 14.12803287 12.36823735 14.51488137 16.3125 15.6875 C19.47882549 18.15019761 20.85701512 21.02300392 21.43237305 24.9543457 C21.45855713 26.01741943 21.48474121 27.08049316 21.51171875 28.17578125 C21.54716797 29.33271484 21.58261719 30.48964844 21.61914062 31.68164062 C21.65297852 33.47891602 21.65297852 33.47891602 21.6875 35.3125 C21.72166016 36.53001953 21.75582031 37.74753906 21.79101562 39.00195312 C21.87334817 42.00121014 21.94254921 45.00018014 22 48 C23.32 48.33 24.64 48.66 26 49 C25.67 50.32 25.34 51.64 25 53 C22.37493198 53.02690844 19.75013827 53.04679404 17.125 53.0625 C16.37863281 53.07087891 15.63226563 53.07925781 14.86328125 53.08789062 C9.2265625 53.11328125 9.2265625 53.11328125 7 52 C7 51.01 7 50.02 7 49 C7.9590625 48.814375 7.9590625 48.814375 8.9375 48.625 C9.618125 48.41875 10.29875 48.2125 11 48 C12.17986385 45.64027231 12.1291146 44.19952268 12.1328125 41.5703125 C12.13410156 40.69246094 12.13539063 39.81460938 12.13671875 38.91015625 C12.13091797 37.53150391 12.13091797 37.53150391 12.125 36.125 C12.12886719 35.21363281 12.13273437 34.30226562 12.13671875 33.36328125 C12.13542969 32.48285156 12.13414062 31.60242188 12.1328125 30.6953125 C12.13168457 29.89109863 12.13055664 29.08688477 12.12939453 28.25830078 C12.0027734 26.04840365 11.61146326 24.12220865 11 22 C7.98968256 21.06576355 7.13349732 20.95550089 4 22 C0.35067516 27.25706934 0.64189767 32.24206507 0.8125 38.375 C0.82603516 39.30183594 0.83957031 40.22867188 0.85351562 41.18359375 C0.88866119 43.45633998 0.93785868 45.72785847 1 48 C2.32 48.33 3.64 48.66 5 49 C4.67 50.32 4.34 51.64 4 53 C-1.61 53 -7.22 53 -13 53 C-13.33 51.68 -13.66 50.36 -14 49 C-12.35 48.34 -10.7 47.68 -9 47 C-8.67 33.47 -8.34 19.94 -8 6 C-9.98 5.34 -11.96 4.68 -14 4 C-13.67 3.01 -13.34 2.02 -13 1 C-11.39602723 0.83147753 -9.7918131 0.66525114 -8.1875 0.5 C-7.29417969 0.4071875 -6.40085937 0.314375 -5.48046875 0.21875 C-3 0 -3 0 0 0 Z " fill="#FAFAF9" transform="translate(477,11)"/>
<path d="M0 0 C0.069843 9.5715 0.12298406 19.14291081 0.15543652 28.71461105 C0.17102054 33.16025616 0.19212424 37.60572553 0.22631836 42.05126953 C0.25917329 46.35013785 0.27690747 50.64883828 0.28463173 54.94782257 C0.29012875 56.57909026 0.30086155 58.21034988 0.31719017 59.8415451 C0.54742689 83.81889721 0.54742689 83.81889721 -6.54296875 92.6015625 C-11.91171582 97.75440821 -18.23740149 99.36121361 -25.4765625 99.2890625 C-29.91824546 98.7802629 -34.15525058 97.28091285 -38 95 C-38.33 94.01 -38.66 93.02 -39 92 C-38.21625 92.165 -37.4325 92.33 -36.625 92.5 C-29.03673865 93.54665674 -22.81702272 93.75631864 -16 90 C-13.65700438 87.97362541 -12.44485042 86.21050142 -11.375 83.3125 C-11.01535156 82.37857422 -11.01535156 82.37857422 -10.6484375 81.42578125 C-8.37511864 72.92137757 -8.87056771 64.06952684 -8.90234375 55.34375 C-8.9042117 53.83060757 -8.90563382 52.31746454 -8.90663147 50.80432129 C-8.91042694 46.84568577 -8.92023146 42.88708766 -8.93133545 38.9284668 C-8.94161382 34.87939968 -8.94614279 30.83032644 -8.95117188 26.78125 C-8.96185674 18.85414961 -8.97889698 10.92707947 -9 3 C-3.375 0 -3.375 0 0 0 Z " fill="#FAFAF9" transform="translate(45,12)"/>
<path d="M0 0 C3.10907463 2.81759888 4.80076107 5.49342802 5.43237305 9.67504883 C5.45855713 10.69622803 5.48474121 11.71740723 5.51171875 12.76953125 C5.56489258 14.43725586 5.56489258 14.43725586 5.61914062 16.13867188 C5.64169922 17.28916016 5.66425781 18.43964844 5.6875 19.625 C5.73874023 21.37973633 5.73874023 21.37973633 5.79101562 23.16992188 C5.87332316 26.05068554 5.94253178 28.93115138 6 31.8125 C7.485 32.3075 7.485 32.3075 9 32.8125 C8.67 34.1325 8.34 35.4525 8 36.8125 C5.9375 37.5625 5.9375 37.5625 3 37.8125 C1.906875 37.090625 0.81375 36.36875 -0.3125 35.625 C-2.0555554 34.40131402 -2.0555554 34.40131402 -4 33.8125 C-6.21450833 34.58561238 -8.00985945 35.69344242 -10.015625 36.90234375 C-12 37.8125 -12 37.8125 -15.75 37.25 C-21.17142857 34.85206044 -21.17142857 34.85206044 -23 32.8125 C-24.03862741 29.07344131 -24.48050576 26.85574572 -22.8359375 23.28515625 C-20.70629922 20.41694129 -18.84887545 19.2559724 -15.6875 17.625 C-14.71554687 17.12355469 -13.74359375 16.62210938 -12.7421875 16.10546875 C-9.88256679 14.75712907 -7.05456811 13.63805895 -4 12.8125 C-4.18464366 8.47065798 -4.18464366 8.47065798 -6 4.8125 C-8.67058851 4.67134839 -11.32432238 4.77002893 -14 4.8125 C-14 5.4725 -14 6.1325 -14 6.8125 C-14 8.47916667 -14 10.14583333 -14 11.8125 C-15.65 12.4725 -17.3 13.1325 -19 13.8125 C-21.0625 12.125 -21.0625 12.125 -23 9.8125 C-23.09471972 6.11843088 -22.04944399 4.86975094 -19.625 2.0625 C-14.33525191 -2.47156979 -6.34432887 -2.51129685 0 0 Z M-8.9375 19.6875 C-9.64777344 20.03554688 -10.35804688 20.38359375 -11.08984375 20.7421875 C-13.15320129 21.78488765 -13.15320129 21.78488765 -15 23.8125 C-15.16681109 26.89597826 -15.16681109 26.89597826 -15 29.8125 C-12.78223378 31.11764736 -12.78223378 31.11764736 -10 31.8125 C-7.10118744 30.49485793 -5.43937332 29.69124663 -4 26.8125 C-3.93049459 25.27226004 -3.91547643 23.72915012 -3.9375 22.1875 C-3.94652344 21.37023437 -3.95554687 20.55296875 -3.96484375 19.7109375 C-3.97644531 19.08445312 -3.98804688 18.45796875 -4 17.8125 C-5.80773957 17.8125 -7.34554009 18.89871697 -8.9375 19.6875 Z " fill="#FAFAF9" transform="translate(412,27.1875)"/>
<path d="M0 0 C4.15595606 2.04152227 6.32108248 3.72246727 8 8 C8.31884766 10.74902344 8.31884766 10.74902344 8.4140625 13.859375 C8.45273437 14.97441406 8.49140625 16.08945312 8.53125 17.23828125 C8.5621875 18.39714844 8.593125 19.55601563 8.625 20.75 C8.66367187 21.92433594 8.70234375 23.09867188 8.7421875 24.30859375 C8.8363982 27.20557268 8.92201602 30.10254626 9 33 C10.485 33.495 10.485 33.495 12 34 C12 35.32 12 36.64 12 38 C8.53896434 39.11974683 7.19556417 39.07897784 3.75 37.6875 C1 36 1 36 0 34 C-0.70125 34.639375 -1.4025 35.27875 -2.125 35.9375 C-5.36426722 38.26132213 -7.03135708 38.92062714 -11 39 C-15.34986291 37.5500457 -17.4325645 36.85115325 -20 33 C-20.77370176 26.14721296 -20.77370176 26.14721296 -18.1875 22.3125 C-12.9613485 18.52097832 -7.11115418 16.03705139 -1 14 C-1.18464366 9.65815798 -1.18464366 9.65815798 -3 6 C-5.67058851 5.85884839 -8.32432238 5.95752893 -11 6 C-10.95875 7.11375 -10.9175 8.2275 -10.875 9.375 C-11 13 -11 13 -13 15 C-15.93453261 14.63318342 -16.86437246 14.13562754 -19 12 C-18.92009815 7.68529989 -18.70111497 5.68313766 -15.5625 2.625 C-10.44761642 -0.61858471 -5.98517614 -0.61624522 0 0 Z M-6 20.875 C-6.70125 21.22304688 -7.4025 21.57109375 -8.125 21.9296875 C-10.15496046 22.9792602 -10.15496046 22.9792602 -12 25 C-12.41666667 28 -12.41666667 28 -12 31 C-9.25305475 33.26142258 -9.25305475 33.26142258 -6.5 32.875 C-3.29215373 31.75225381 -2.52480523 31.04961046 -1 28 C-0.46882101 25.00889499 -0.1877942 22.03060985 0 19 C-2.47378124 19 -3.79656288 19.76518057 -6 20.875 Z " fill="#FAFAF9" transform="translate(555,26)"/>
<path d="M0 0 C3.46263269 3.38018905 5.38810012 6.8841081 6.625 11.5625 C6.625 13.8725 6.625 16.1825 6.625 18.5625 C-0.965 18.5625 -8.555 18.5625 -16.375 18.5625 C-14.50055779 27.25552969 -14.50055779 27.25552969 -10.375 29.5625 C-6.95961856 30.14619443 -6.95961856 30.14619443 -3.375 29.5625 C-0.68732422 27.12499975 -0.68732422 27.12499975 1.625 24.5625 C2.945 24.5625 4.265 24.5625 5.625 24.5625 C5.1188686 28.99114971 3.77610054 31.41139946 0.625 34.5625 C-3.43582717 37.03084593 -6.31159759 37.88021002 -10.9375 37.0625 C-16.32029851 35.52455757 -19.80910997 33.19129721 -22.6640625 28.3984375 C-25.6080466 22.08990015 -26.28556464 16.29975426 -24.375 9.5625 C-19.18629744 -0.32540487 -10.63572296 -4.53003015 0 0 Z M-13.625 5.75 C-15.71569782 8.74269712 -15.71569782 8.74269712 -16.375 13.5625 C-11.755 13.5625 -7.135 13.5625 -2.375 13.5625 C-2.74169722 8.85527442 -2.74169722 8.85527442 -4.625 4.625 C-8.32263992 2.38000434 -10.56833235 2.77823978 -13.625 5.75 Z " fill="#FAFAF9" transform="translate(261.375,27.4375)"/>
<path d="M0 0 C5.31140494 2.45898377 7.72072411 5.65246812 10 11 C10 13.97 10 16.94 10 20 C2.74 20.33 -4.52 20.66 -12 21 C-10.57222367 26.02234339 -10.57222367 26.02234339 -9 31 C-5.61884349 31.29036649 -2.37080851 31.44908891 1 31 C3.67818983 28.70142894 3.67818983 28.70142894 5 26 C6.65 26.33 8.3 26.66 10 27 C4.69565217 36.15217391 4.69565217 36.15217391 1 38 C-4.64519085 39.49118249 -7.92115306 38.82158164 -13 36 C-17.38731404 32.21095605 -20.63019536 28.5793874 -21.46875 22.73046875 C-21.53521459 15.19504573 -21.33482334 9.63198857 -16 4 C-11.13603085 -0.52462246 -6.36679582 -1.00582931 0 0 Z M-9.1875 6.625 C-11.53318176 9.31475744 -11.53318176 9.31475744 -12 15 C-7.71 15 -3.42 15 1 15 C0.64235143 10.27101363 0.64235143 10.27101363 -1.3125 6.0625 C-4.33062831 4.16219699 -6.44100268 4.58474485 -9.1875 6.625 Z " fill="#FAFAF9" transform="translate(618,26)"/>
<path d="M0 0 C3.26252005 3.10716195 5.41276173 6.13594221 6.625 10.5 C6.625 13.14 6.625 15.78 6.625 18.5 C-0.635 18.5 -7.895 18.5 -15.375 18.5 C-13.95604208 25.67316419 -13.95604208 25.67316419 -12.25 28.5 C-9.0728502 30.19447989 -5.81680306 30.28191063 -2.375 29.5 C-0.10622465 27.08119071 -0.10622465 27.08119071 1.625 24.5 C2.945 24.5 4.265 24.5 5.625 24.5 C5.55165178 27.58062525 5.21921981 29.76774613 3.24609375 32.19921875 C-0.70074005 35.84584595 -3.83573561 37.59891544 -9.375 37.5 C-15.57051362 35.57725439 -19.24010766 32.48157714 -22.98046875 27.2578125 C-25.65110989 21.97637653 -25.16443042 16.24883606 -24.375 10.5 C-22.46553622 5.92365181 -19.74851311 2.75905369 -16.125 -0.5625 C-10.55502281 -2.46135586 -5.37526695 -2.38900753 0 0 Z M-12.5625 5.125 C-14.90818176 7.81475744 -14.90818176 7.81475744 -15.375 13.5 C-11.085 13.5 -6.795 13.5 -2.375 13.5 C-2.73264857 8.77101363 -2.73264857 8.77101363 -4.6875 4.5625 C-7.70562831 2.66219699 -9.81600268 3.08474485 -12.5625 5.125 Z " fill="#FAFAF9" transform="translate(380.375,27.5)"/>
<path d="M0 0 C0.66 0.33 1.32 0.66 2 1 C2 1.66 2 2.32 2 3 C3.051875 2.319375 4.10375 1.63875 5.1875 0.9375 C7.65545157 -0.45786095 8.73869143 -1 11.625 -1 C14.88599589 0.3730509 16.59246687 1.31879341 19 4 C19.63526171 7.76234899 19.46930129 11.44817182 19.3125 15.25 C19.28994141 16.28125 19.26738281 17.3125 19.24414062 18.375 C19.18527163 20.91814065 19.10310065 23.45833113 19 26 C16.69 26 14.38 26 12 26 C12 19.4 12 12.8 12 6 C9.69 6 7.38 6 5 6 C4.67 12.6 4.34 19.2 4 26 C2.02 26 0.04 26 -2 26 C-3 25 -3 25 -3.11352539 23.14233398 C-3.10828857 22.35157471 -3.10305176 21.56081543 -3.09765625 20.74609375 C-3.09443359 19.89208984 -3.09121094 19.03808594 -3.08789062 18.15820312 C-3.07951172 17.26037109 -3.07113281 16.36253906 -3.0625 15.4375 C-3.05798828 14.53580078 -3.05347656 13.63410156 -3.04882812 12.70507812 C-3.03700225 10.46998686 -3.0205222 8.23502563 -3 6 C-5.97065509 6.34227572 -5.97065509 6.34227572 -9 7 C-10.6498007 10.29960141 -10.38258361 13.99127884 -10.5625 17.625 C-10.62727539 18.82769531 -10.62727539 18.82769531 -10.69335938 20.0546875 C-10.79951457 22.0362511 -10.90026855 24.01810271 -11 26 C-12.99954746 26.04254356 -15.00041636 26.04080783 -17 26 C-18.71567792 24.28432208 -18.13015825 22.02627265 -18.1328125 19.6875 C-18.13410156 18.61242187 -18.13539063 17.53734375 -18.13671875 16.4296875 C-18.13091797 14.73199219 -18.13091797 14.73199219 -18.125 13 C-18.12886719 11.86820313 -18.13273438 10.73640625 -18.13671875 9.5703125 C-18.13542969 8.49523437 -18.13414062 7.42015625 -18.1328125 6.3125 C-18.13168457 5.31863281 -18.13055664 4.32476562 -18.12939453 3.30078125 C-18 1 -18 1 -17 0 C-15.00047242 -0.04346799 -12.99960012 -0.039992 -11 0 C0 0 0 0 0 0 Z " fill="#FAFAF9" transform="translate(191,88)"/>
<path d="M0 0 C0.99 0.66 1.98 1.32 3 2 C3.886875 1.484375 4.77375 0.96875 5.6875 0.4375 C9.27817446 -1.12071722 10.38862287 -1.23547112 14 0 C17.78947368 1.57894737 17.78947368 1.57894737 19 4 C19.08426094 5.6674606 19.10725143 7.33825187 19.09765625 9.0078125 C19.09443359 9.99394531 19.09121094 10.98007813 19.08789062 11.99609375 C19.07532227 13.54490234 19.07532227 13.54490234 19.0625 15.125 C19.05798828 16.16527344 19.05347656 17.20554687 19.04882812 18.27734375 C19.03701952 20.85161962 19.02055075 23.42578146 19 26 C17.02 26 15.04 26 13 26 C12.505 16.1 12.505 16.1 12 6 C9.69 6 7.38 6 5 6 C4.67 12.6 4.34 19.2 4 26 C2.02 26 0.04 26 -2 26 C-3.26582219 22.13276369 -3.1118765 18.26848738 -3.0625 14.25 C-3.05798828 13.55261719 -3.05347656 12.85523437 -3.04882812 12.13671875 C-3.0371002 10.42444197 -3.01916653 8.71220967 -3 7 C-4.83700789 6.22757731 -4.83700789 6.22757731 -7 6 C-8.96557771 7.50625512 -9.87811182 8.46406367 -10.43237305 10.90112305 C-10.45855713 11.59761963 -10.48474121 12.29411621 -10.51171875 13.01171875 C-10.54716797 13.76904297 -10.58261719 14.52636719 -10.61914062 15.30664062 C-10.64169922 16.09232422 -10.66425781 16.87800781 -10.6875 17.6875 C-10.72166016 18.48478516 -10.75582031 19.28207031 -10.79101562 20.10351562 C-10.87338104 22.06851904 -10.93837067 24.03423696 -11 26 C-12.99954746 26.04254356 -15.00041636 26.04080783 -17 26 C-18.71567792 24.28432208 -18.13015825 22.02627265 -18.1328125 19.6875 C-18.13410156 18.61242187 -18.13539063 17.53734375 -18.13671875 16.4296875 C-18.13091797 14.73199219 -18.13091797 14.73199219 -18.125 13 C-18.12886719 11.86820313 -18.13273438 10.73640625 -18.13671875 9.5703125 C-18.13542969 8.49523437 -18.13414062 7.42015625 -18.1328125 6.3125 C-18.13168457 5.31863281 -18.13055664 4.32476562 -18.12939453 3.30078125 C-18 1 -18 1 -17 0 C-15.00047242 -0.04346799 -12.99960012 -0.039992 -11 0 C0 0 0 0 0 0 Z " fill="#FAFAF9" transform="translate(231,88)"/>
<path d="M0 0 C0.94746094 -0.01417969 1.89492188 -0.02835938 2.87109375 -0.04296875 C6.55634432 0.27260423 8.67060772 1.32746102 11.3125 3.875 C13.02530514 7.04368951 12.76680093 9.64628392 12.5625 13.1875 C10.3125 14.375 10.3125 14.375 7.5625 15.1875 C5.25 14.0625 5.25 14.0625 3.5625 12.1875 C3.5625 10.8675 3.5625 9.5475 3.5625 8.1875 C4.2225 8.1875 4.8825 8.1875 5.5625 8.1875 C5.5625 7.5275 5.5625 6.8675 5.5625 6.1875 C-0.33336147 5.76933884 -0.33336147 5.76933884 -5.4375 8.1875 C-7.95156774 13.21563548 -8.04430319 18.68165339 -7.4375 24.1875 C-5.92750834 28.00787202 -5.92750834 28.00787202 -3.4375 31.1875 C1.8551271 31.7503208 1.8551271 31.7503208 6.5 29.8125 C7.62173484 28.16500576 7.62173484 28.16500576 8.5625 26.1875 C9.8825 26.5175 11.2025 26.8475 12.5625 27.1875 C12.2624825 30.68770422 11.60516259 32.13654191 9.3125 34.875 C6.00631171 37.65520379 3.92969519 39.32595859 -0.5078125 39.06640625 C-6.41798956 38.09473307 -10.63233523 35.84856904 -14.4375 31.1875 C-17.74057063 25.49822533 -18.41012356 19.48325407 -16.96875 13.1171875 C-15.27856618 7.82530244 -12.64058156 4.77763217 -8.4375 1.1875 C-5.3864365 0.17047883 -3.19550939 0.02167917 0 0 Z " fill="#FAFAF9" transform="translate(520.4375,25.8125)"/>
<path d="M0 0 C1.32 0.33 2.64 0.66 4 1 C4 4.63 4 8.26 4 12 C7.3 12 10.6 12 14 12 C14 13.65 14 15.3 14 17 C10.7 17 7.4 17 4 17 C4.33 25.25 4.66 33.5 5 42 C6.98 42 8.96 42 11 42 C11.33 40.68 11.66 39.36 12 38 C13.485 38.495 13.485 38.495 15 39 C14.69918829 42.50946994 14.0180963 43.97788231 11.75 46.75 C8.8845009 49.09449927 7.66989652 50 4 50 C-0.76833143 48.28340069 -2.79664341 46.51240035 -5 42 C-5.34057617 39.22924805 -5.34057617 39.22924805 -5.29296875 36.26171875 C-5.28330078 35.19501953 -5.27363281 34.12832031 -5.26367188 33.02929688 C-5.23853516 31.92650391 -5.21339844 30.82371094 -5.1875 29.6875 C-5.17396484 28.56537109 -5.16042969 27.44324219 -5.14648438 26.28710938 C-5.1112138 23.52424771 -5.06192235 20.76237171 -5 18 C-6.98 17.67 -8.96 17.34 -11 17 C-11 15.68 -11 14.36 -11 13 C-9.39125 12.2884375 -9.39125 12.2884375 -7.75 11.5625 C-3.03843394 8.93434449 -1.69220719 4.91896252 0 0 Z " fill="#FAFAF9" transform="translate(222,15)"/>
<path d="M0 0 C3.2795442 2.54852106 4.71682727 4.10089066 5.84765625 8.171875 C5.86828125 9.038125 5.88890625 9.904375 5.91015625 10.796875 C2.59765625 11.109375 2.59765625 11.109375 -1.08984375 10.796875 C-1.50234375 9.971875 -1.91484375 9.146875 -2.33984375 8.296875 C-2.91734375 7.471875 -3.49484375 6.646875 -4.08984375 5.796875 C-7.78517298 5.32876325 -11.38317817 5.51368323 -15.08984375 5.796875 C-17.52028148 11.16328151 -17.76981795 15.98222381 -17.08984375 21.796875 C-15.84605694 25.10541194 -15.84605694 25.10541194 -13.08984375 26.796875 C-9.52528506 27.52126218 -6.30746523 27.58243725 -3.15234375 25.546875 C-1.99194756 23.63563422 -1.4686411 21.99389965 -1.08984375 19.796875 C0.89015625 19.466875 2.87015625 19.136875 4.91015625 18.796875 C5.86616276 21.83871391 6.11293833 23.3197407 4.84765625 26.296875 C-0.6659273 33.41117636 -0.6659273 33.41117636 -5.9375 34.25 C-10.66298144 34.41395722 -14.21878296 34.17018677 -18.58984375 32.296875 C-23.65145537 27.23526338 -25.3236151 22.78555567 -25.46484375 15.609375 C-25.41134032 11.52706345 -24.78872474 8.5140266 -23.08984375 4.796875 C-22.42984375 4.796875 -21.76984375 4.796875 -21.08984375 4.796875 C-20.84234375 3.8996875 -20.84234375 3.8996875 -20.58984375 2.984375 C-16.18563056 -3.4384359 -6.27641414 -3.61333748 0 0 Z " fill="#FAFAF9" transform="translate(139.08984375,80.203125)"/>
<path d="M0 0 C3.01125 -0.061875 6.0225 -0.12375 9.125 -0.1875 C10.06230957 -0.21481201 10.99961914 -0.24212402 11.96533203 -0.27026367 C17.05682897 -0.32069064 20.63185792 0.08110132 25 3 C27.8226812 7.2340218 27.785025 11.02817503 27 16 C24.34630903 19.61196826 22.3526983 21.2382778 18 22 C16.08438746 22.06688591 14.16664408 22.08531719 12.25 22.0625 C11.26515625 22.05347656 10.2803125 22.04445313 9.265625 22.03515625 C8.51796875 22.02355469 7.7703125 22.01195313 7 22 C7.01160156 22.85464844 7.02320313 23.70929688 7.03515625 24.58984375 C7.04417969 25.69457031 7.05320312 26.79929687 7.0625 27.9375 C7.07410156 29.03964844 7.08570313 30.14179687 7.09765625 31.27734375 C7 34 7 34 6 35 C4.02 35 2.04 35 0 35 C0 23.45 0 11.9 0 0 Z M7 6 C7 9.3 7 12.6 7 16 C8.588125 16.061875 10.17625 16.12375 11.8125 16.1875 C12.70582031 16.22230469 13.59914063 16.25710937 14.51953125 16.29296875 C17.035613 16.19840941 17.035613 16.19840941 18.8359375 14.68359375 C20.31716933 12.91135223 20.31716933 12.91135223 19.8125 9.875 C19.4103125 8.451875 19.4103125 8.451875 19 7 C16.47524538 5.73762269 14.68799534 5.90143596 11.875 5.9375 C10.26625 5.958125 8.6575 5.97875 7 6 Z " fill="#FAFAF9" transform="translate(371,79)"/>
<path d="M0 0 C1.9375 0.375 1.9375 0.375 4 1 C5.73360665 4.46721329 4.48361845 8.23852315 4 12 C7.3 12 10.6 12 14 12 C14 13.65 14 15.3 14 17 C10.7 17 7.4 17 4 17 C4.33 25.25 4.66 33.5 5 42 C6.65 42 8.3 42 10 42 C10.66 40.68 11.32 39.36 12 38 C13.32 38.33 14.64 38.66 16 39 C15.41971011 42.91695679 13.77966299 45.22033701 11 48 C7.76336458 49.52671482 5.52649214 50.51991415 2.02734375 49.328125 C-1.25308898 47.57676461 -2.8045895 46.58623151 -4 43 C-4.08291953 41.0079697 -4.10738177 39.01326287 -4.09765625 37.01953125 C-4.09443359 35.85615234 -4.09121094 34.69277344 -4.08789062 33.49414062 C-4.07951172 32.27919922 -4.07113281 31.06425781 -4.0625 29.8125 C-4.05798828 28.58595703 -4.05347656 27.35941406 -4.04882812 26.09570312 C-4.03703065 23.06375332 -4.02056921 20.03190094 -4 17 C-5.98 17 -7.96 17 -10 17 C-10.33 15.68 -10.66 14.36 -11 13 C-10.113125 12.71125 -9.22625 12.4225 -8.3125 12.125 C-3.59824287 9.10075958 -2.13942055 5.04562458 0 0 Z " fill="#FAFAF9" transform="translate(449,15)"/>
<path d="M0 0 C0.33 0.99 0.66 1.98 1 3 C1.515625 2.505 2.03125 2.01 2.5625 1.5 C5.96381375 -0.59311615 8.07072743 -0.55147685 12 0 C15 2.125 15 2.125 17 5 C16.8 10.2 16.8 10.2 15 12 C12.5625 12.25 12.5625 12.25 10 12 C8 9 8 9 8.375 6.8125 C8.684375 5.9153125 8.684375 5.9153125 9 5 C5.34683329 6.24976756 4.21934164 6.67098753 2 10 C0.68019572 14.54045876 0.88645849 19.12846021 0.9375 23.8125 C0.94201172 24.60076172 0.94652344 25.38902344 0.95117188 26.20117188 C0.96288688 28.13414761 0.98082002 30.06708393 1 32 C2.32 32.66 3.64 33.32 5 34 C4.67 35.32 4.34 36.64 4 38 C-1.28 38 -6.56 38 -12 38 C-12.33 36.68 -12.66 35.36 -13 34 C-11.68 34 -10.36 34 -9 34 C-9 24.76 -9 15.52 -9 6 C-10.32 5.34 -11.64 4.68 -13 4 C-13 3.01 -13 2.02 -13 1 C-8.60563789 0.14256349 -4.47427924 -0.08948558 0 0 Z " fill="#FAFAF9" transform="translate(581,26)"/>
<path d="M0 0 C0.33 16.17 0.66 32.34 1 49 C2.32 49 3.64 49 5 49 C4.67 50.32 4.34 51.64 4 53 C-1.28 53 -6.56 53 -12 53 C-12.33 51.68 -12.66 50.36 -13 49 C-11.68 48.34 -10.36 47.68 -9 47 C-8.87648902 41.35839864 -8.7857037 35.71758224 -8.7253418 30.07495117 C-8.7001825 28.1552154 -8.66605115 26.23557556 -8.62280273 24.31616211 C-8.56221147 21.55819054 -8.53380548 18.80148391 -8.51171875 16.04296875 C-8.48591232 15.18350143 -8.4601059 14.32403412 -8.43351746 13.43852234 C-8.43245183 11.17947429 -8.46142062 9.19429266 -9 7 C-11.36234746 4.84928646 -11.36234746 4.84928646 -14 4 C-13.67 3.01 -13.34 2.02 -13 1 C-11.39602723 0.83147753 -9.7918131 0.66525114 -8.1875 0.5 C-7.29417969 0.4071875 -6.40085937 0.314375 -5.48046875 0.21875 C-3 0 -3 0 0 0 Z " fill="#FAFAF9" transform="translate(435,11)"/>
<path d="M0 0 C2.85253107 3.13238351 2.79659381 4.78659714 2.70898438 8.88671875 C2.66708984 9.66402344 2.62519531 10.44132812 2.58203125 11.2421875 C2.55947266 12.03496094 2.53691406 12.82773438 2.51367188 13.64453125 C2.45493596 15.5945637 2.36525779 17.54362062 2.26953125 19.4921875 C3.25953125 19.4921875 4.24953125 19.4921875 5.26953125 19.4921875 C5.26953125 21.1421875 5.26953125 22.7921875 5.26953125 24.4921875 C-1.35546875 24.6171875 -1.35546875 24.6171875 -4.73046875 23.4921875 C-5.39046875 23.8221875 -6.05046875 24.1521875 -6.73046875 24.4921875 C-11.5286027 25.15204875 -14.74767551 25.14083104 -18.85546875 22.4296875 C-20.73046875 19.4921875 -20.73046875 19.4921875 -20.79296875 15.8671875 C-19.60163443 12.08294906 -19.03658475 11.45783398 -15.73046875 9.4921875 C-12.93359375 8.76171875 -12.93359375 8.76171875 -9.98046875 8.3046875 C-8.995625 8.14613281 -8.01078125 7.98757812 -6.99609375 7.82421875 C-6.2484375 7.71464844 -5.50078125 7.60507813 -4.73046875 7.4921875 C-4.40046875 6.5021875 -4.07046875 5.5121875 -3.73046875 4.4921875 C-6.70046875 4.4921875 -9.67046875 4.4921875 -12.73046875 4.4921875 C-13.06046875 5.4821875 -13.39046875 6.4721875 -13.73046875 7.4921875 C-15.71046875 7.4921875 -17.69046875 7.4921875 -19.73046875 7.4921875 C-19.37472917 4.85971461 -19.07823581 2.96167304 -17.48046875 0.8046875 C-11.81358684 -3.44547393 -6.06518002 -3.34929826 0 0 Z M-9.85546875 13.4921875 C-10.57992188 13.6778125 -11.304375 13.8634375 -12.05078125 14.0546875 C-12.60507812 14.1990625 -13.159375 14.3434375 -13.73046875 14.4921875 C-13.73046875 15.8121875 -13.73046875 17.1321875 -13.73046875 18.4921875 C-9.10023257 19.68064047 -9.10023257 19.68064047 -4.79296875 18.3046875 C-3.39332242 16.26721669 -3.39332242 16.26721669 -3.73046875 12.4921875 C-5.94076408 12.4921875 -7.71714468 12.94036193 -9.85546875 13.4921875 Z " fill="#FAFAF9" transform="translate(429.73046875,89.5078125)"/>
<path d="M0 0 C3.53245935 2.81154928 4.70345978 4.21811102 5.4375 8.62890625 C5.64034594 13.28802382 5.32531035 16.33776108 3.25 20.5625 C0.54980505 23.4877112 -1.42605824 24.75325995 -5.3671875 25.37109375 C-9.7346323 25.4867426 -12.98636013 25.56264275 -16.5 22.75 C-19.81208181 19.10671001 -20.85794803 17.53416132 -21.3125 12.625 C-20.91297071 7.99046026 -19.45789991 4.94386654 -16.6875 1.25 C-11.29028062 -2.74794028 -5.97410306 -2.44894298 0 0 Z M-13 6 C-13.65666517 8.05265612 -13.65666517 8.05265612 -13.8125 10.375 C-13.90144531 11.14585938 -13.99039063 11.91671875 -14.08203125 12.7109375 C-13.98709829 15.36001926 -13.47413715 16.8057106 -12 19 C-9.1403994 20.17110449 -9.1403994 20.17110449 -6 20 C-3.44014926 18.69138543 -3.44014926 18.69138543 -2 16 C-1.44261012 13.21873826 -1.43032996 10.77998981 -2 8 C-3.58526981 5.41290128 -3.58526981 5.41290128 -6 4 C-10.04622502 3.63019987 -10.04622502 3.63019987 -13 6 Z " fill="#FAFAF9" transform="translate(167,89)"/>
<path d="M0 0 C2.8125 -0.3125 2.8125 -0.3125 6 0 C9.09436088 3.66739067 10.36342789 8.53662153 12 13 C12.33 13.33 12.66 13.66 13 14 C14.65 9.38 16.3 4.76 18 0 C20.31 0 22.62 0 25 0 C17.26450867 27.29433526 17.26450867 27.29433526 11.1875 34 C8.08358804 35.41893118 5.3628181 35.19400874 2 35 C2 33.02 2 31.04 2 29 C3.65 28.67 5.3 28.34 7 28 C8.32220045 23.59803996 7.61994082 21.26251273 5.75 17.125 C5.28722656 16.07570313 4.82445312 15.02640625 4.34765625 13.9453125 C3.68056641 12.48738281 3.68056641 12.48738281 3 11 C1.22116636 7.1100992 0 4.3984589 0 0 Z " fill="#FAFAF9" transform="translate(332,88)"/>
<path d="M0 0 C1.98 0 3.96 0 6 0 C6.33 6.27 6.66 12.54 7 19 C9.31 19.33 11.62 19.66 14 20 C14.33 13.4 14.66 6.8 15 0 C17.31 0 19.62 0 22 0 C22 8.58 22 17.16 22 26 C20.02 26 18.04 26 16 26 C15.67 25.34 15.34 24.68 15 24 C14.34 24.66 13.68 25.32 13 26 C8.70387512 26.71325625 5.11096525 26.77767567 1.5 24.25 C-0.73157236 20.90264146 -1.12627425 17.89589785 -1.1328125 13.92578125 C-1.13410156 13.17619141 -1.13539063 12.42660156 -1.13671875 11.65429688 C-1.13285156 10.88150391 -1.12898437 10.10871094 -1.125 9.3125 C-1.12886719 8.52810547 -1.13273438 7.74371094 -1.13671875 6.93554688 C-1.12667749 1.12667749 -1.12667749 1.12667749 0 0 Z " fill="#FAFAF9" transform="translate(254,88)"/>
<path d="M0 0 C2.8125 1.6875 2.8125 1.6875 5 4 C6.0892655 8.60062448 6.13424987 13.09969094 6.125 17.8125 C6.13080078 18.8324707 6.13080078 18.8324707 6.13671875 19.87304688 C6.12674825 24.87325175 6.12674825 24.87325175 5 26 C3.02 26 1.04 26 -1 26 C-1.495 16.595 -1.495 16.595 -2 7 C-6.60532389 5.54685336 -6.60532389 5.54685336 -9 7 C-10.14441765 10.91963044 -10.07344 14.69244002 -10 18.75 C-9.9626368 20.83299826 -9.95293104 22.91719845 -10 25 C-11 26 -11 26 -14.0625 26.0625 C-15.031875 26.041875 -16.00125 26.02125 -17 26 C-17.99259618 23.02221146 -18.12891582 21.03757049 -18.1328125 17.9296875 C-18.13410156 16.95128906 -18.13539063 15.97289063 -18.13671875 14.96484375 C-18.13285156 13.94519531 -18.12898438 12.92554687 -18.125 11.875 C-18.12886719 10.84761719 -18.13273437 9.82023437 -18.13671875 8.76171875 C-18.13542969 7.78589844 -18.13414062 6.81007813 -18.1328125 5.8046875 C-18.13168457 4.90733887 -18.13055664 4.00999023 -18.12939453 3.08544922 C-18 1 -18 1 -17 0 C-15.00047242 -0.04346799 -12.99960012 -0.039992 -11 0 C0 0 0 0 0 0 Z " fill="#FAFAF9" transform="translate(297,88)"/>
<path d="M0 0 C2.6796875 1.87890625 2.6796875 1.87890625 5 5 C5.60990472 8.62444902 5.47236547 12.15035106 5.3125 15.8125 C5.28994141 16.79154297 5.26738281 17.77058594 5.24414062 18.77929688 C5.18539727 21.18777455 5.10332129 23.59309078 5 26 C2.69 26 0.38 26 -2 26 C-2 19.4 -2 12.8 -2 6 C-8.4 6.2 -8.4 6.2 -10 8 C-10.15582303 9.34015221 -10.25044142 10.68758903 -10.31640625 12.03515625 C-10.35830078 12.84404297 -10.40019531 13.65292969 -10.44335938 14.48632812 C-10.48267578 15.33646484 -10.52199219 16.18660156 -10.5625 17.0625 C-10.60568359 17.91650391 -10.64886719 18.77050781 -10.69335938 19.65039062 C-10.79976702 21.76672037 -10.90041731 23.88333813 -11 26 C-12.98 26 -14.96 26 -17 26 C-17.99259618 23.02221146 -18.12891582 21.03757049 -18.1328125 17.9296875 C-18.13410156 16.95128906 -18.13539063 15.97289063 -18.13671875 14.96484375 C-18.13285156 13.94519531 -18.12898438 12.92554687 -18.125 11.875 C-18.12886719 10.84761719 -18.13273437 9.82023437 -18.13671875 8.76171875 C-18.13542969 7.78589844 -18.13414062 6.81007813 -18.1328125 5.8046875 C-18.13168457 4.90733887 -18.13055664 4.00999023 -18.12939453 3.08544922 C-18 1 -18 1 -17 0 C-15.00047242 -0.04346799 -12.99960012 -0.039992 -11 0 C0 0 0 0 0 0 Z " fill="#FAFAF9" transform="translate(454,88)"/>
<path d="M0 0 C1.134375 0.020625 2.26875 0.04125 3.4375 0.0625 C3.4375 2.0425 3.4375 4.0225 3.4375 6.0625 C5.9125 7.0525 5.9125 7.0525 8.4375 8.0625 C8.1075 9.7125 7.7775 11.3625 7.4375 13.0625 C6.1175 13.3925 4.7975 13.7225 3.4375 14.0625 C3.4375 18.3525 3.4375 22.6425 3.4375 27.0625 C5.0875 27.3925 6.7375 27.7225 8.4375 28.0625 C8.1075 29.7125 7.7775 31.3625 7.4375 33.0625 C1.27844755 33.41782995 1.27844755 33.41782995 -1.78125 32.125 C-4.67549198 28.77377244 -3.98396832 25.13862565 -3.8125 20.875 C-3.79445313 20.03001953 -3.77640625 19.18503906 -3.7578125 18.31445312 C-3.71070586 16.22998427 -3.63896233 14.14609856 -3.5625 12.0625 C-4.5525 12.3925 -5.5425 12.7225 -6.5625 13.0625 C-7.5625 12.0625 -7.5625 12.0625 -7.625 9.5 C-7.604375 8.695625 -7.58375 7.89125 -7.5625 7.0625 C-6.2425 7.0625 -4.9225 7.0625 -3.5625 7.0625 C-3.748125 6.093125 -3.93375 5.12375 -4.125 4.125 C-4.269375 3.114375 -4.41375 2.10375 -4.5625 1.0625 C-3.5625 0.0625 -3.5625 0.0625 0 0 Z " fill="#FAFAF9" transform="translate(322.5625,80.9375)"/>
<path d="M0 0 C2.31 0 4.62 0 7 0 C7.0246519 4.82380802 7.04283693 9.64757967 7.05493164 14.47143555 C7.05997174 16.11369464 7.06680378 17.75594923 7.07543945 19.39819336 C7.08751926 21.75375479 7.09323139 24.10925709 7.09765625 26.46484375 C7.10281754 27.20339096 7.10797882 27.94193817 7.11329651 28.7028656 C7.1134925 30.46898088 7.06194719 32.23497146 7 34 C6.505 34.495 6.505 34.495 6 35 C4.02 35 2.04 35 0 35 C0 23.45 0 11.9 0 0 Z " fill="#FAFAF9" transform="translate(401,79)"/>
<path d="M0 0 C2.31 0 4.62 0 7 0 C7.02886751 4.14581887 7.04675327 8.29161216 7.0625 12.4375 C7.07087891 13.62150391 7.07925781 14.80550781 7.08789062 16.02539062 C7.09111328 17.15009766 7.09433594 18.27480469 7.09765625 19.43359375 C7.10289307 20.47572021 7.10812988 21.51784668 7.11352539 22.59155273 C7 25 7 25 6 26 C4.02 26 2.04 26 0 26 C0 17.42 0 8.84 0 0 Z " fill="#FAFAF9" transform="translate(306,88)"/>
<path d="M0 0 C1.9375 1.6875 1.9375 1.6875 3 4 C2.5 6.625 2.5 6.625 1 9 C-1.375 10.5 -1.375 10.5 -4 11 C-6.3125 10 -6.3125 10 -8 8 C-8.4375 4.9375 -8.4375 4.9375 -8 2 C-4.77856724 -0.14762184 -3.7404533 -0.561068 0 0 Z " fill="#FAFAF9" transform="translate(206,11)"/>
<path d="M0 0 C0.721875 0.391875 1.44375 0.78375 2.1875 1.1875 C2.54825949 6.59889241 2.54825949 6.59889241 1 9.125 C-0.8125 10.1875 -0.8125 10.1875 -3.5 9.875 C-4.263125 9.648125 -5.02625 9.42125 -5.8125 9.1875 C-5.8125 8.5275 -5.8125 7.8675 -5.8125 7.1875 C-6.4725 7.1875 -7.1325 7.1875 -7.8125 7.1875 C-8.125 4.875 -8.125 4.875 -7.8125 2.1875 C-4.92923603 -0.36624809 -3.76371099 -1.08729429 0 0 Z " fill="#FAFAF9" transform="translate(633.8125,25.8125)"/>
<path d="M0 0 C2.5 0.125 2.5 0.125 3.5 1.125 C3.625 3.625 3.625 3.625 3.5 6.125 C2.5 7.125 2.5 7.125 0.0625 7.3125 C-2.5 7.125 -2.5 7.125 -4.5 5.125 C-3.7519084 0.18759542 -3.7519084 0.18759542 0 0 Z " fill="#FAFAF9" transform="translate(309.5,78.875)"/>
</svg>
