<?xml version="1.0" encoding="UTF-8"?>
<svg version="1.1" xmlns="http://www.w3.org/2000/svg" width="1200" height="701">
<path d="M0 0 C12.21 0 24.42 0 37 0 C46.41972954 10.74546925 46.41972954 10.74546925 48.2890625 15.6953125 C50.95752072 22.14458402 54.45684356 27.70307304 58.3125 33.5 C59.47142168 35.31256955 60.62649384 37.12760727 61.77734375 38.9453125 C65.83166846 45.30970133 69.90957449 51.65875834 74 58 C77.98524629 54.47707927 80.38797719 50.33887413 83.0625 45.8125 C87.18357216 38.95190266 91.30606839 32.09063502 95.86010742 25.50537109 C98.97899187 20.92829996 101.12051683 16.53562588 102.86889648 11.27099609 C104.375 8.4375 104.375 8.4375 112 0 C124.21 0 136.42 0 149 0 C149 47.85 149 95.7 149 145 C137.78 145 126.56 145 115 145 C114.67 115.3 114.34 85.6 114 55 C109.400625 61.80625 104.80125 68.6125 100.0625 75.625 C97.91439819 78.80116943 97.91439819 78.80116943 95.72290039 82.04150391 C89.02779137 91.95288462 82.39303743 101.89043344 76 112 C73.53996155 111.62407778 72.29264284 111.31289887 70.56797791 109.46885681 C70.13038651 108.808741 69.6927951 108.14862518 69.24194336 107.46850586 C68.73718979 106.71939438 68.23243622 105.9702829 67.71238708 105.19847107 C67.17694778 104.37887405 66.64150848 103.55927704 66.08984375 102.71484375 C65.23852623 101.44212364 65.23852623 101.44212364 64.37001038 100.14369202 C62.54831927 97.41534332 60.74260826 94.67684153 58.9375 91.9375 C57.15388125 89.2541733 55.36703656 86.57301527 53.57997131 83.89198303 C52.47059841 82.22508801 51.36374949 80.5565085 50.26023865 78.88572693 C44.94302985 70.84768151 39.46379031 62.94733136 34 55 C33.67 84.7 33.34 114.4 33 145 C22.11 145 11.22 145 0 145 C0 97.15 0 49.3 0 0 Z " fill="#FFFFFF" transform="translate(238,481)"/>
<path d="M0 0 C100.56707317 0 100.56707317 0 124 21 C125.23169922 22.07507813 125.23169922 22.07507813 126.48828125 23.171875 C138.73019091 34.54068944 146.48838294 50.37745461 147.23828125 67.1796875 C147.71596548 87.27669856 142.9131123 103.87403725 129.4921875 119.44140625 C113.87855455 135.47107644 93.61877887 141.91160302 72 145 C48.24 145 24.48 145 0 145 C0 97.15 0 49.3 0 0 Z M36 30 C36 58.05 36 86.1 36 115 C67.71017725 117.02618755 67.71017725 117.02618755 95 105 C95.62519531 104.49855469 96.25039063 103.99710937 96.89453125 103.48046875 C104.10405372 97.02488327 108.54140482 87.57875537 109.87890625 78.05078125 C110.39164393 65.13309979 107.57402914 54.31404459 99.3125 44.25 C91.51198018 35.95095072 81.95329363 32.19065873 71 30 C59.45 30 47.9 30 36 30 Z " fill="#FFFFFF" transform="translate(573,292)"/>
<path d="M0 0 C10.89 0 21.78 0 33 0 C41.73230097 8.87201779 41.73230097 8.87201779 43.51953125 12.93359375 C45.87354825 17.87899972 48.75515137 22.10383716 52 26.5 C52.99391699 27.9067171 53.98479444 29.31558659 54.97265625 30.7265625 C58.08696529 35.13909149 61.26185398 39.50652718 64.4375 43.875 C69.47185852 50.808647 74.36279465 57.82936994 79.15991211 64.92919922 C83.9840591 72.0509768 88.99295798 78.99014117 94 86 C94.33 57.62 94.66 29.24 95 0 C105.89 0 116.78 0 128 0 C128 47.85 128 95.7 128 145 C95 145 95 145 87.546875 138.63671875 C85.96884155 136.40400696 85.96884155 136.40400696 85.03662109 134.38012695 C84.66430359 133.61721344 84.29198608 132.85429993 83.90838623 132.06826782 C83.52611877 131.28261444 83.14385132 130.49696106 82.75 129.6875 C81.84640666 128.07719426 80.92881742 126.47467485 79.99853516 124.87963867 C78.00943774 121.4535931 76.07792307 118.00257951 74.17089844 114.53027344 C69.13016556 105.54039815 63.16610232 97.13548498 57.32629395 88.65371704 C54.21807423 84.1279372 51.15343954 79.57295886 48.0859375 75.01953125 C47.04477881 73.47890921 46.00360134 71.93829987 44.96240234 70.39770508 C41.96056091 65.94145243 38.98040987 61.4706148 36 57 C35.67 86.04 35.34 115.08 35 145 C23.45 145 11.9 145 0 145 C0 97.15 0 49.3 0 0 Z " fill="#FFFFFF" transform="translate(830,292)"/>
<path d="M0 0 C19.5834375 -0.12375 19.5834375 -0.12375 39.5625 -0.25 C43.65470947 -0.28641602 47.74691895 -0.32283203 51.96313477 -0.36035156 C57.0369873 -0.37841797 57.0369873 -0.37841797 59.42710876 -0.3817749 C61.0639941 -0.38783802 62.70086384 -0.40173753 64.33763123 -0.42230225 C81.91614421 -0.63173957 98.4550564 1.73501971 111.875 14.25 C121.4960686 24.45624988 124.31896818 37.20625158 124.1484375 50.8828125 C123.62620634 61.84966679 120.53393949 72.02830968 112.9921875 80.2734375 C106.34930345 86.03060367 98.36483767 90.3757372 90 93 C90.32871094 93.43828125 90.65742187 93.8765625 90.99609375 94.328125 C91.47175781 94.96234375 91.94742188 95.5965625 92.4375 96.25 C93.26314453 97.35021484 93.26314453 97.35021484 94.10546875 98.47265625 C95.42222274 100.22923323 96.73719856 101.98714398 98.05078125 103.74609375 C103.21158958 110.6485603 108.4370769 117.4970406 113.703125 124.31933594 C115.95047609 127.23175404 118.19398321 130.14712792 120.4375 133.0625 C121.64212891 134.62677734 121.64212891 134.62677734 122.87109375 136.22265625 C123.57363281 137.13917969 124.27617188 138.05570313 125 139 C125.58910156 139.74121094 126.17820312 140.48242188 126.78515625 141.24609375 C128 143 128 143 128 145 C117.11620531 145.82753053 106.23761085 146.35511636 95.3203125 146.12109375 C94.40711243 146.12863678 93.49391235 146.13617981 92.55303955 146.14395142 C86.12433716 145.91227377 83.05600834 144.02035591 78.69197083 139.3400116 C76.48747195 136.31174246 75.32384418 133.14341636 74.07861328 129.63574219 C72.1409383 124.90076275 69.04327193 120.93912605 66.0625 116.8125 C65.00807399 115.27984487 63.95711172 113.74479918 62.91015625 112.20703125 C61.02573795 109.46009313 59.09333331 106.7585982 57.12109375 104.07421875 C55 101 55 101 55 99 C47.74 99 40.48 99 33 99 C33 114.18 33 129.36 33 145 C22.11 145 11.22 145 0 145 C0 97.15 0 49.3 0 0 Z M33 29 C33 42.53 33 56.06 33 70 C38.053125 70.061875 43.10625 70.12375 48.3125 70.1875 C49.88298096 70.21481201 51.45346191 70.24212402 53.0715332 70.27026367 C62.19947959 70.3240357 70.83765765 69.96560092 78.9375 65.3125 C84.27206957 59.33131594 85.67933756 53.84145454 85.38671875 45.83984375 C84.65876887 40.49419162 82.49091613 37.41445889 78.5625 33.6875 C71.91497027 29.30985847 65.23296415 28.87106814 57.4140625 28.90234375 C56.12967285 28.90484131 54.8452832 28.90733887 53.52197266 28.90991211 C51.09797119 28.92356812 51.09797119 28.92356812 48.625 28.9375 C40.890625 28.9684375 40.890625 28.9684375 33 29 Z " fill="#FFFFFF" transform="translate(589,481)"/>
<path d="M0 0 C39.93 0 79.86 0 121 0 C121 9.57 121 19.14 121 29 C92.95 29 64.9 29 36 29 C36 38.57 36 48.14 36 58 C60.75 58 85.5 58 111 58 C111 67.57 111 77.14 111 87 C86.25 87 61.5 87 36 87 C36 96.57 36 106.14 36 116 C64.38 116 92.76 116 122 116 C122 125.57 122 135.14 122 145 C81.74 145 41.48 145 0 145 C0 97.15 0 49.3 0 0 Z " fill="#FFFFFF" transform="translate(250,292)"/>
<path d="M0 0 C1.22525391 -0.01611328 2.45050781 -0.03222656 3.71289062 -0.04882812 C24.12237266 -0.05958695 42.69204422 6.50686646 57.8125 20.3125 C53.67776703 26.01172653 49.2642433 31.40084746 44.68432617 36.74291992 C42.2951554 39.53429096 39.97104647 42.33818178 37.8125 45.3125 C34.04219101 43.94762112 30.99192238 42.19634396 27.6875 39.9375 C20.33175948 35.17906948 12.6187575 31.96481537 3.8125 31.3125 C2.80316406 31.23515625 2.80316406 31.23515625 1.7734375 31.15625 C-10.25167491 30.64635124 -20.94759982 35.43889093 -29.875 43.3125 C-38.65544766 52.69634335 -42.75528277 65.96155465 -42.4375 78.61328125 C-41.20870412 91.88043679 -36.60638266 104.22561095 -26.26171875 112.93359375 C-14.90242946 121.26097036 -1.56649838 122.90926898 12.11328125 120.8046875 C15.09770659 120.14485267 17.91750379 119.28713496 20.8125 118.3125 C22.15248047 118.01085937 22.15248047 118.01085937 23.51953125 117.703125 C26.66507983 116.6529576 27.87839765 116.0532422 29.8125 113.3125 C31.23526204 106.71712897 30.85584002 100.03020351 30.8125 93.3125 C19.9225 93.3125 9.0325 93.3125 -2.1875 93.3125 C-2.1875 83.7425 -2.1875 74.1725 -2.1875 64.3125 C19.2625 64.3125 40.7125 64.3125 62.8125 64.3125 C63.0290625 80.214375 63.0290625 80.214375 63.25 96.4375 C63.31372803 99.77633301 63.37745605 103.11516602 63.44311523 106.55517578 C63.46356233 109.20603465 63.4813992 111.8569155 63.49609375 114.5078125 C63.51438736 115.19124725 63.53268097 115.87468201 63.55152893 116.5788269 C63.83708514 127.81541037 63.83708514 127.81541037 61.32565308 131.48503113 C59.55307501 133.03850955 57.87612762 134.18473403 55.8125 135.3125 C54.70390625 136.02535156 53.5953125 136.73820313 52.453125 137.47265625 C48.92309521 139.45321444 45.3864955 141.41256931 41.8125 143.3125 C40.90371094 143.80105469 39.99492188 144.28960937 39.05859375 144.79296875 C19.6128206 154.44163482 -5.73949474 155.83766701 -26.45703125 149.640625 C-36.37168282 146.1108014 -45.30103386 141.36881181 -53.1875 134.3125 C-54.30898438 133.33023438 -54.30898438 133.33023438 -55.453125 132.328125 C-69.13745307 119.5747036 -76.78526496 101.21994102 -77.5234375 82.61328125 C-77.85495812 60.83381794 -73.17142957 40.86490326 -58.1875 24.3125 C-57.61902344 23.6525 -57.05054688 22.9925 -56.46484375 22.3125 C-41.63479305 6.19151071 -21.30907004 -0.05517626 0 0 Z " fill="#FFFFFF" transform="translate(1068.1875,286.6875)"/>
<path d="M0 0 C39.6 0 79.2 0 120 0 C120 9.57 120 19.14 120 29 C91.95 29 63.9 29 35 29 C35 38.57 35 48.14 35 58 C59.75 58 84.5 58 110 58 C110 67.57 110 77.14 110 87 C85.25 87 60.5 87 35 87 C35 96.57 35 106.14 35 116 C63.38 116 91.76 116 121 116 C121 125.57 121 135.14 121 145 C81.07 145 41.14 145 0 145 C0 97.15 0 49.3 0 0 Z " fill="#FFFFFF" transform="translate(414,292)"/>
<path d="M0 0 C11.55 0 23.1 0 35 0 C35 110.22 35 220.44 35 334 C23.12 334 11.24 334 -1 334 C-1.03109671 313.58333613 -1.05156948 293.16668379 -1.0625 272.75 C-1.0629343 271.96316236 -1.06336861 271.17632471 -1.06381607 270.3656435 C-1.09697762 208.53417267 -0.84865358 146.70540981 -0.5 84.875 C-0.49402628 83.81387938 -0.48805257 82.75275875 -0.48189783 81.65948296 C-0.32851645 54.43961031 -0.16723817 27.21979096 0 0 Z " fill="#FFFFFF" transform="translate(752,292)"/>
<path d="M0 0 C36.63 0 73.26 0 111 0 C111 9.57 111 19.14 111 29 C85.26 29 59.52 29 33 29 C33 38.24 33 47.48 33 57 C55.77 57 78.54 57 102 57 C102 66.57 102 76.14 102 86 C79.23 86 56.46 86 33 86 C33 95.9 33 105.8 33 116 C59.4 116 85.8 116 113 116 C113 125.57 113 135.14 113 145 C75.71 145 38.42 145 0 145 C0 97.15 0 49.3 0 0 Z " fill="#FFFFFF" transform="translate(433,481)"/>
<path d="M0 0 C12.21 0 24.42 0 37 0 C43.90629115 14.20057619 50.69784828 28.41903752 57.1875 42.8125 C62.65660976 54.94107735 68.27743432 66.98898925 74 79 C81.65336991 95.06694472 89.08429761 111.22533291 96.38867188 127.45361328 C97.49643801 129.89170585 98.61411144 132.32173108 99.75195312 134.74560547 C100.30302734 135.9213916 100.85410156 137.09717773 101.421875 138.30859375 C101.9178418 139.35716553 102.41380859 140.4057373 102.92480469 141.48608398 C104 144 104 144 104 146 C92.12 146 80.24 146 68 146 C63.4375 137.3125 63.4375 137.3125 62.04858398 134.6652832 C58.41269608 127.75008524 54.70469567 120.88014911 51 114 C18.33 113.505 18.33 113.505 -15 113 C-15.99 115.97 -16.98 118.94 -18 122 C-18.8012625 124.05312831 -19.62571018 126.09746705 -20.48046875 128.12890625 C-20.87903076 129.08095947 -21.27759277 130.0330127 -21.68823242 131.01391602 C-22.18299072 132.18494873 -22.67774902 133.35598145 -23.1875 134.5625 C-24.775625 138.336875 -26.36375 142.11125 -28 146 C-39.22 146 -50.44 146 -62 146 C-61.22857387 141.37144319 -60.59743284 138.64472463 -58.734375 134.5625 C-58.26330322 133.51860107 -57.79223145 132.47470215 -57.30688477 131.39916992 C-56.79311279 130.27744385 -56.27934082 129.15571777 -55.75 128 C-54.64843367 125.55917052 -53.5481761 123.11778323 -52.44921875 120.67578125 C-52.16477402 120.04553543 -51.88032928 119.41528961 -51.58726501 118.76594543 C-48.50910124 111.93665046 -45.53142522 105.0648198 -42.5625 98.1875 C-42.01283884 96.91598876 -41.4631151 95.64450457 -40.91333008 94.37304688 C-39.81177731 91.82494854 -38.71084018 89.27658544 -37.61035156 86.72802734 C-35.05744399 80.81664591 -32.49754389 74.90829365 -29.9375 69 C-29.42662842 67.82066895 -28.91575684 66.64133789 -28.3894043 65.42626953 C-22.17895412 51.09364636 -15.94608028 36.7707544 -9.71459961 22.44726562 C-9.29283951 21.47764389 -8.87107941 20.50802216 -8.4365387 19.50901794 C-7.64360009 17.6860815 -6.85050928 15.86321124 -6.05723572 14.04042053 C-5.51916039 12.80333595 -5.51916039 12.80333595 -4.97021484 11.54125977 C-4.66078949 10.83010513 -4.35136414 10.1189505 -4.03256226 9.38624573 C-2.68022842 6.26100963 -1.3414041 3.12994289 0 0 Z M18 35 C17.47212891 36.22178955 17.47212891 36.22178955 16.93359375 37.46826172 C15.58948494 40.57804872 14.24469319 43.68753814 12.89926147 46.79675293 C12.30147269 48.17827858 11.70383589 49.55987002 11.10635376 50.94152832 C7.19980767 59.97294132 3.27214375 68.99294656 -0.81445312 77.94482422 C-2.45018242 81.33636212 -2.45018242 81.33636212 -3 85 C11.19 85 25.38 85 40 85 C37.70885657 77.98290735 37.70885657 77.98290735 35.00708008 71.21459961 C34.64693314 70.39442856 34.28678619 69.57425751 33.91572571 68.72923279 C33.53748154 67.87885941 33.15923737 67.02848602 32.76953125 66.15234375 C32.37424728 65.25504044 31.97896332 64.35773712 31.57170105 63.4332428 C30.32240657 60.59964533 29.06755603 57.76854955 27.8125 54.9375 C26.95861416 53.00341861 26.105095 51.0691753 25.25195312 49.13476562 C23.17220111 44.42129534 21.08746645 39.71005855 19 35 C18.67 35 18.34 35 18 35 Z " fill="#FFFFFF" transform="translate(1049,480)"/>
<path d="M0 0 C1.29349365 0.00523682 2.5869873 0.01047363 3.91967773 0.01586914 C4.9496714 0.01799156 4.9496714 0.01799156 6.00047302 0.02015686 C8.20144949 0.0257706 10.40232557 0.03832532 12.60327148 0.05102539 C14.09220231 0.05603863 15.58113473 0.06060184 17.07006836 0.06469727 C20.72700223 0.07574446 24.38387707 0.09301826 28.04077148 0.11352539 C32.91585114 9.41319382 37.064727 18.95981958 41.15606689 28.6222229 C43.13209419 33.28721403 45.12152641 37.94647952 47.11108398 42.60571289 C47.51974701 43.56312881 47.92841003 44.52054474 48.34945679 45.50697327 C52.55445399 55.3429179 56.85239872 65.13723234 61.16577148 74.92602539 C67.10324411 88.40818892 73.00633711 101.90432502 78.85327148 115.42602539 C79.34987274 116.57332626 79.34987274 116.57332626 79.85650635 117.74380493 C81.92744006 122.52966081 83.98924173 127.31932052 86.04077148 132.11352539 C86.55430176 133.31154785 87.06783203 134.50957031 87.59692383 135.74389648 C88.2864917 137.37125732 88.2864917 137.37125732 88.98999023 139.03149414 C89.38919678 139.9714624 89.78840332 140.91143066 90.19970703 141.87988281 C91.04077148 144.11352539 91.04077148 144.11352539 91.04077148 146.11352539 C79.49077148 146.11352539 67.94077148 146.11352539 56.04077148 146.11352539 C53.89577148 141.03977539 51.75077148 135.96602539 49.54077148 130.73852539 C48.52273437 128.33821045 48.52273437 128.33821045 47.48413086 125.8894043 C46.95064462 124.62308473 46.41742323 123.35665354 45.88452148 122.09008789 C45.60382813 121.43097412 45.32313477 120.77186035 45.03393555 120.09277344 C43.04077148 115.34166899 43.04077148 115.34166899 43.04077148 113.11352539 C22.91077148 113.44352539 2.78077148 113.77352539 -17.95922852 114.11352539 C-22.19519971 124.26950739 -22.19519971 124.26950739 -26.42578125 134.42773438 C-26.95626559 135.69677791 -27.48693326 136.96574484 -28.01782227 138.23461914 C-28.29339966 138.89884888 -28.56897705 139.56307861 -28.85290527 140.24743652 C-30.84515672 144.99945359 -30.84515672 144.99945359 -31.95922852 146.11352539 C-34.48016928 146.20200282 -36.97353745 146.22879841 -39.49438477 146.21118164 C-40.62426064 146.20905922 -40.62426064 146.20905922 -41.77696228 146.20689392 C-44.19192411 146.20127915 -46.60679452 146.18872422 -49.02172852 146.17602539 C-50.65519072 146.17101229 -52.28865438 146.16644905 -53.92211914 146.16235352 C-57.93452436 146.15130493 -61.94686092 146.13403045 -65.95922852 146.11352539 C-64.058217 140.09907416 -61.86345253 134.32380371 -59.29125977 128.56665039 C-58.93949677 127.7700148 -58.58773376 126.97337921 -58.22531128 126.15260315 C-57.47032307 124.44371491 -56.71356166 122.73560915 -55.95516968 121.02822876 C-53.91945436 116.44449646 -51.89738839 111.85474046 -49.87329102 107.26586914 C-49.46046371 106.3309111 -49.04763641 105.39595306 -48.62229919 104.43266296 C-44.58523115 95.28324624 -40.60796551 86.10847759 -36.64672852 76.92602539 C-35.98405855 75.39062109 -35.32137955 73.85522068 -34.65869141 72.31982422 C-33.68796125 70.070464 -32.71733366 67.82105981 -31.74702454 65.57151794 C-29.66807633 60.75249983 -27.58360488 55.93591124 -25.49438477 51.12133789 C-25.08004433 50.16639938 -25.08004433 50.16639938 -24.65733337 49.19216919 C-23.31735959 46.10416803 -21.97710564 43.01628867 -20.63671875 39.9284668 C-17.9138923 33.64871012 -15.20668199 27.36266995 -12.52172852 21.06665039 C-12.24165955 20.41048233 -11.96159058 19.75431427 -11.67303467 19.07826233 C-10.32938318 15.9298058 -8.98835351 12.78030738 -7.65161133 9.62890625 C-7.18078125 8.52426025 -6.70995117 7.41961426 -6.22485352 6.28149414 C-5.81009766 5.30462646 -5.3953418 4.32775879 -4.96801758 3.32128906 C-3.51198998 0.13473107 -3.51198998 0.13473107 0 0 Z M11.04077148 41.11352539 C8.61227391 46.89452781 6.19204831 52.67894128 3.77758789 58.46582031 C2.95495382 60.43471847 2.13041766 62.40282301 1.30395508 64.37011719 C0.11748281 67.19528855 -1.06215691 70.02322783 -2.24047852 72.85180664 C-2.61233276 73.73314774 -2.98418701 74.61448883 -3.36730957 75.52253723 C-3.70766235 76.34316147 -4.04801514 77.16378571 -4.39868164 78.00927734 C-4.70068481 78.7309761 -5.00268799 79.45267487 -5.31384277 80.19624329 C-6.11874126 82.25023326 -6.11874126 82.25023326 -5.95922852 85.11352539 C6.25077148 85.11352539 18.46077148 85.11352539 31.04077148 85.11352539 C27.11466364 74.64390447 23.11462133 64.35137243 18.66577148 54.11352539 C18.11464121 52.83763443 17.56385913 51.56159301 17.01342773 50.28540039 C15.69259296 47.22662512 14.36836421 44.16937202 13.04077148 41.11352539 C12.38077148 41.11352539 11.72077148 41.11352539 11.04077148 41.11352539 Z " fill="#FFFFFF" transform="translate(121.959228515625,479.886474609375)"/>
<path d="M0 0 C5.70826755 4.80691513 5.70826755 4.80691513 7.90234375 7.5703125 C7.88914934 10.51266577 7.426918 11.91771716 5.58984375 14.203125 C5.03296875 14.69554687 4.47609375 15.18796875 3.90234375 15.6953125 C-0.16836392 19.50583061 -3.54214098 23.73949735 -6.984375 28.1171875 C-8.89087947 30.33028327 -10.69029106 31.94004262 -13.09765625 33.5703125 C-13.87109375 32.90644531 -14.64453125 32.24257813 -15.44140625 31.55859375 C-28.48298862 20.4571856 -39.83746275 13.52881561 -57.73046875 14.75 C-67.33088804 16.26260625 -77.93270868 21.22774982 -83.9765625 28.98046875 C-91.41255321 40.69517337 -95.57757017 51.61533646 -93.03515625 65.5078125 C-90.71152666 75.18084068 -86.39298926 84.65869588 -78.09765625 90.5703125 C-66.87813241 97.22612172 -55.25972363 102.70230402 -41.98828125 99.91796875 C-30.5242762 96.78285939 -22.93591319 90.9792797 -15.10546875 82.1953125 C-13.09765625 80.5703125 -13.09765625 80.5703125 -11.25634766 80.70288086 C-8.34843236 81.87137476 -6.74196979 83.58861422 -4.55078125 85.82421875 C-3.70644531 86.67822266 -2.86210938 87.53222656 -1.9921875 88.41210938 C-1.11949219 89.30994141 -0.24679687 90.20777344 0.65234375 91.1328125 C1.54050781 92.03451172 2.42867187 92.93621094 3.34375 93.86523438 C5.5368269 96.09368348 7.72260419 98.32882843 9.90234375 100.5703125 C-3.5478625 116.40512823 -18.77877335 130.5109337 -40.09765625 133.5703125 C-63.35573404 135.35395563 -85.85724102 131.81457282 -104.15625 116.328125 C-104.79691406 115.74804688 -105.43757812 115.16796875 -106.09765625 114.5703125 C-106.76925781 113.99023438 -107.44085937 113.41015625 -108.1328125 112.8125 C-120.04149538 101.84458012 -128.05067619 84.91988607 -129.31884766 68.75 C-130.18452146 46.11723462 -126.665576 25.96975222 -111.09765625 8.5703125 C-110.4428125 7.82265625 -109.78796875 7.075 -109.11328125 6.3046875 C-81.82014842 -22.9806448 -30.83571364 -24.18639834 0 0 Z " fill="#FFFFFF" transform="translate(955.09765625,494.4296875)"/>
<path d="M0 0 C40.26 0 80.52 0 122 0 C122 9.9 122 19.8 122 30 C93.62 30 65.24 30 36 30 C36 39.9 36 49.8 36 60 C61.08 60 86.16 60 112 60 C112 69.57 112 79.14 112 89 C86.92 89 61.84 89 36 89 C36 107.48 36 125.96 36 145 C24.12 145 12.24 145 0 145 C0 97.15 0 49.3 0 0 Z " fill="#FFFFFF" transform="translate(90,292)"/>
<path d="M0 0 C28.40837837 1.88079185 28.40837837 1.88079185 37.6640625 12.15234375 C39.69681363 14.96372178 40.86437317 17.72672267 42 21 C42.268125 20.34773438 42.53625 19.69546875 42.8125 19.0234375 C46.38347909 11.05921441 50.72096426 6.49562599 58.875 3.25 C66.32041038 1.02690043 75.23401997 0 83 0 C83.59721667 13.07240934 82.9659376 24.58220857 74.03125 35.03125 C66.4915348 42.33897397 56.56601626 45.81571273 46.11328125 46.0703125 C45.41589844 46.04710937 44.71851563 46.02390625 44 46 C43.34 43.36 42.68 40.72 42 38 C41.34 40.64 40.68 43.28 40 46 C27.97857379 45.76553956 17.72608438 42.78507845 8.90625 34.30078125 C0.71652672 24.41605377 -0.37468932 12.30229925 0 0 Z " fill="#FFFFFF" transform="translate(726,147)"/>
<path d="M0 0 C9.68633947 9.33523548 15.09785117 21.67779542 16.375 34.875 C16.17393659 42.04147423 13.14965151 50.00180883 8 55 C3.0862186 58.97284453 3.0862186 58.97284453 -0.5 59.0625 C-8.55862337 55.63758507 -13.42782591 47.95577965 -16.875 40.1875 C-19.93806807 30.94327062 -18.26844856 21.53689711 -14 13 C-12.20797655 10.12294318 -10.23436537 7.54533375 -8 5 C-7.54109375 4.47148438 -7.0821875 3.94296875 -6.609375 3.3984375 C-3.4577514 0 -3.4577514 0 0 0 Z " fill="#FFFFFF" transform="translate(769,54)"/>
<path d="M0 0 C12.11443063 0.35841511 24.58474198 1.67429823 33.6171875 10.59765625 C39.49244554 16.99297302 40.37752325 22.98816348 40.26953125 31.51953125 C39.85538173 36.86746207 38.55005129 41.87929484 37 47 C25.16280416 46.54991651 16.85009307 43.79573306 8.19921875 35.484375 C0.55837922 26.85280494 -1.27118229 16.10463335 -1.16796875 4.875 C-1 3 -1 3 0 0 Z " fill="#FFFFFF" transform="translate(727,102)"/>
<path d="M0 0 C-0.4129888 12.80265284 -2.38910302 24.79031694 -12 34 C-19.3232921 39.3967208 -26.26512501 42.1093467 -35.375 42.625 C-36.62023437 42.69976562 -37.86546875 42.77453125 -39.1484375 42.8515625 C-40.08945312 42.90054688 -41.03046875 42.94953125 -42 43 C-44.70136109 32.70106085 -45.3327379 22.96354302 -41 13 C-36.81892737 6.4824456 -30.44139818 2.76054998 -23.0625 0.6875 C-15.5552256 -0.75206696 -7.60672486 -0.1477034 0 0 Z " fill="#FFFFFF" transform="translate(815,236)"/>
<path d="M0 0 C1.02577148 0.00676758 1.02577148 0.00676758 2.07226562 0.01367188 C3.73571604 0.0253044 5.3991205 0.04323306 7.0625 0.0625 C7.72451227 11.31670851 5.02395418 22.09627331 -1.9375 31.0625 C-8.12028365 37.97658064 -15.82265092 41.61368911 -24.9375 43.0625 C-26.70727761 43.12709042 -28.47920152 43.14861065 -30.25 43.125 C-31.13300781 43.11597656 -32.01601563 43.10695312 -32.92578125 43.09765625 C-33.58964844 43.08605469 -34.25351562 43.07445312 -34.9375 43.0625 C-37.3276577 32.64824145 -38.42873034 22.65704621 -33.25 12.875 C-24.28137243 1.96720971 -13.83942897 -0.12247282 0 0 Z " fill="#FFFFFF" transform="translate(805.9375,193.9375)"/>
<path d="M0 0 C12.96678554 -0.31120285 26.13205202 -0.48896086 36.6328125 8.37890625 C42.41779594 14.73545991 43.46823061 22.06635212 43.25 30.25 C43.24484375 31.03890625 43.2396875 31.8278125 43.234375 32.640625 C43.18524835 36.27599694 42.9812373 39.48209713 42 43 C30.60090233 43.66762611 20.03691933 41.27888383 11 34 C3.44011694 26.00564091 -0.20786298 15.61503459 -0.25 4.6875 C-0.18755026 3.12402607 -0.11259303 1.56066444 0 0 Z " fill="#FFFFFF" transform="translate(723,194)"/>
<path d="M0 0 C0.42769127 13.65443968 0.27356321 25.04415775 -9 36 C-16.82135511 43.55223322 -26.31927168 46.54550092 -37 47 C-40.68304979 37.88006718 -41.73716571 27.52905758 -39.19140625 17.9609375 C-35.79458676 10.17998768 -29.70079833 6.3888149 -22.0625 3.25 C-14.69985574 0.77626863 -7.72852348 -0.10643094 0 0 Z " fill="#FFFFFF" transform="translate(809,102)"/>
<path d="M0 0 C25.86788502 -0.82752713 25.86788502 -0.82752713 35 7 C40.33154404 12.28003154 43.03852675 16.91920117 43.23046875 24.6015625 C43.22651937 26.27609826 43.21197144 27.9506384 43.1875 29.625 C43.18685547 30.470625 43.18621094 31.31625 43.18554688 32.1875 C43.15863257 35.97942615 43.03831268 39.33250353 42 43 C29.60966783 42.63823848 19.23536902 41.26999605 10.0078125 32.40625 C2.08640017 22.91288425 -0.44485231 12.06044036 0 0 Z " fill="#FFFFFF" transform="translate(721,236)"/>
</svg>
