<?xml version="1.0" encoding="UTF-8"?>
<svg version="1.1" xmlns="http://www.w3.org/2000/svg" width="244" height="244">
<path d="M0 0 C0.73347656 0.64839844 1.46695313 1.29679687 2.22265625 1.96484375 C2.88394531 2.52042969 3.54523438 3.07601562 4.2265625 3.6484375 C15.71493342 14.06920223 22.77656285 28.61861529 27.2109375 43.21875 C28.36421334 46.34907014 29.51089277 47.15700143 32.22265625 48.96484375 C32.22265625 49.62484375 32.22265625 50.28484375 32.22265625 50.96484375 C32.88265625 50.96484375 33.54265625 50.96484375 34.22265625 50.96484375 C34.22265625 51.62484375 34.22265625 52.28484375 34.22265625 52.96484375 C37.92473065 52.35337006 41.02591379 51.33272668 44.41015625 49.71484375 C45.69986328 49.11929688 45.69986328 49.11929688 47.015625 48.51171875 C49.70076314 46.62974582 50.29376363 45.05769291 51.22265625 41.96484375 C50.56265625 41.30484375 49.90265625 40.64484375 49.22265625 39.96484375 C49.22265625 38.97484375 49.22265625 37.98484375 49.22265625 36.96484375 C48.2584375 37.24199219 47.29421875 37.51914063 46.30078125 37.8046875 C44.40585937 38.34802734 44.40585937 38.34802734 42.47265625 38.90234375 C41.2196875 39.26199219 39.96671875 39.62164062 38.67578125 39.9921875 C36.19703906 40.69038524 33.72605463 41.36428101 31.22265625 41.96484375 C30.23265625 38.99484375 30.23265625 38.99484375 29.22265625 35.96484375 C33.69019144 34.06532605 38.17846448 32.94710787 42.89453125 31.84375 C43.6628125 31.55371094 44.43109375 31.26367188 45.22265625 30.96484375 C45.55265625 29.97484375 45.88265625 28.98484375 46.22265625 27.96484375 C45.23265625 27.96484375 44.24265625 27.96484375 43.22265625 27.96484375 C43.22265625 26.97484375 43.22265625 25.98484375 43.22265625 24.96484375 C45.20265625 24.30484375 47.18265625 23.64484375 49.22265625 22.96484375 C51.75988507 28.15462997 52.90673712 33.00094341 53.79296875 38.70703125 C53.99586068 40.92552868 53.99586068 40.92552868 55.22265625 41.96484375 C55.26580769 44.6402329 55.26946066 47.29179196 55.22265625 49.96484375 C54.94530615 53.14974382 54.94530615 53.14974382 57.22265625 55.96484375 C57.77737323 62.17767394 57.77737323 62.17767394 55.9921875 64.7109375 C54.22265625 65.96484375 54.22265625 65.96484375 52.05859375 66.03125 C42.63400828 64.10145393 36.42489623 59.02501424 29.22265625 52.96484375 C29.24884033 53.58190186 29.27502441 54.19895996 29.30200195 54.8347168 C30.25037029 80.81520727 25.89527205 103.1067019 8.22265625 122.96484375 C7.23845703 124.12306641 7.23845703 124.12306641 6.234375 125.3046875 C-9.18920561 142.16673677 -30.47530494 150.75701461 -53.0234375 152.16796875 C-66.84063047 152.37091406 -79.86481194 149.86613232 -92.77734375 144.96484375 C-93.04417969 145.83882812 -93.31101563 146.7128125 -93.5859375 147.61328125 C-94.73869659 150.85612487 -96.13146193 153.60961994 -97.83984375 156.58984375 C-99.62748946 159.71057489 -101.10277226 162.41709737 -101.77734375 165.96484375 C-99.79734375 165.96484375 -97.81734375 165.96484375 -95.77734375 165.96484375 C-96.10734375 167.28484375 -96.43734375 168.60484375 -96.77734375 169.96484375 C-99.50754161 171.03013123 -100.57033187 171.04482561 -103.35546875 169.96875 C-104.2371875 169.49308594 -105.11890625 169.01742187 -106.02734375 168.52734375 C-107.36539063 167.81771484 -107.36539063 167.81771484 -108.73046875 167.09375 C-109.4059375 166.72121094 -110.08140625 166.34867188 -110.77734375 165.96484375 C-110.77734375 162.96484375 -110.77734375 162.96484375 -109.5078125 161.67578125 C-108.65123047 160.82886719 -108.65123047 160.82886719 -107.77734375 159.96484375 C-106.48966647 157.87478085 -105.26589035 155.74469643 -104.08984375 153.58984375 C-103.15591797 151.90761719 -103.15591797 151.90761719 -102.203125 150.19140625 C-100.8148331 147.04968266 -100.55157258 145.32090165 -100.77734375 141.96484375 C-100.44734375 141.63484375 -100.11734375 141.30484375 -99.77734375 140.96484375 C-100.67195313 140.35898438 -101.5665625 139.753125 -102.48828125 139.12890625 C-113.88926463 131.2825239 -123.37582567 122.81456481 -130.77734375 110.96484375 C-131.56238281 109.73894531 -131.56238281 109.73894531 -132.36328125 108.48828125 C-143.05606088 90.52224035 -146.08334557 66.4115899 -141.59936523 46.10375977 C-140.79067169 43.00654485 -139.82648344 39.98842994 -138.77734375 36.96484375 C-138.41511719 35.90394531 -138.05289063 34.84304687 -137.6796875 33.75 C-129.64526388 12.58814525 -112.72062751 -3.62868084 -92.73046875 -13.546875 C-61.83390041 -27.15607772 -25.6956398 -21.76817616 0 0 Z M-85.77734375 -5.03515625 C-84.78734375 -2.06515625 -83.79734375 0.90484375 -82.77734375 3.96484375 C-77.82734375 2.64484375 -72.87734375 1.32484375 -67.77734375 -0.03515625 C-68.76734375 -0.36515625 -69.75734375 -0.69515625 -70.77734375 -1.03515625 C-70.77734375 -3.34515625 -70.77734375 -5.65515625 -70.77734375 -8.03515625 C-68.79734375 -8.03515625 -66.81734375 -8.03515625 -64.77734375 -8.03515625 C-64.11734375 -6.05515625 -63.45734375 -4.07515625 -62.77734375 -2.03515625 C-63.76734375 -1.54015625 -63.76734375 -1.54015625 -64.77734375 -1.03515625 C-63.45734375 -1.03515625 -62.13734375 -1.03515625 -60.77734375 -1.03515625 C-60.77734375 -4.00515625 -60.77734375 -6.97515625 -60.77734375 -10.03515625 C-58.13734375 -10.03515625 -55.49734375 -10.03515625 -52.77734375 -10.03515625 C-52.77734375 -9.04515625 -52.77734375 -8.05515625 -52.77734375 -7.03515625 C-53.43734375 -7.03515625 -54.09734375 -7.03515625 -54.77734375 -7.03515625 C-55.10734375 -6.04515625 -55.43734375 -5.05515625 -55.77734375 -4.03515625 C-54.78734375 -4.03515625 -53.79734375 -4.03515625 -52.77734375 -4.03515625 C-52.77734375 -3.04515625 -52.77734375 -2.05515625 -52.77734375 -1.03515625 C-51.78734375 -1.36515625 -50.79734375 -1.69515625 -49.77734375 -2.03515625 C-49.96296875 -2.83953125 -50.14859375 -3.64390625 -50.33984375 -4.47265625 C-50.48421875 -5.31828125 -50.62859375 -6.16390625 -50.77734375 -7.03515625 C-49.77734375 -8.03515625 -49.77734375 -8.03515625 -47.40234375 -8.16015625 C-44.77734375 -8.03515625 -44.77734375 -8.03515625 -41.77734375 -7.03515625 C-42.10734375 -5.05515625 -42.43734375 -3.07515625 -42.77734375 -1.03515625 C-44.09734375 -0.70515625 -45.41734375 -0.37515625 -46.77734375 -0.03515625 C-44.86222103 0.47072522 -42.94517453 0.96932766 -41.02734375 1.46484375 C-39.96 1.74328125 -38.89265625 2.02171875 -37.79296875 2.30859375 C-34.64029073 3.10660364 -34.64029073 3.10660364 -30.77734375 2.96484375 C-30.11734375 -0.00515625 -29.45734375 -2.97515625 -28.77734375 -6.03515625 C-30.8174413 -6.68592921 -32.85950044 -7.33055449 -34.90234375 -7.97265625 C-36.60777344 -8.51212891 -36.60777344 -8.51212891 -38.34765625 -9.0625 C-52.23307742 -13.00039279 -73.27376553 -13.37087507 -85.77734375 -5.03515625 Z M-68.77734375 -6.03515625 C-67.78734375 -4.55015625 -67.78734375 -4.55015625 -66.77734375 -3.03515625 C-66.44734375 -4.02515625 -66.11734375 -5.01515625 -65.77734375 -6.03515625 C-66.76734375 -6.03515625 -67.75734375 -6.03515625 -68.77734375 -6.03515625 Z M-48.77734375 -6.03515625 C-48.44734375 -5.04515625 -48.11734375 -4.05515625 -47.77734375 -3.03515625 C-46.78734375 -3.36515625 -45.79734375 -3.69515625 -44.77734375 -4.03515625 C-45.10734375 -4.69515625 -45.43734375 -5.35515625 -45.77734375 -6.03515625 C-46.76734375 -6.03515625 -47.75734375 -6.03515625 -48.77734375 -6.03515625 Z M-88.77734375 1.96484375 C-89.10734375 2.62484375 -89.43734375 3.28484375 -89.77734375 3.96484375 C-88.45734375 3.63484375 -87.13734375 3.30484375 -85.77734375 2.96484375 C-86.76734375 2.63484375 -87.75734375 2.30484375 -88.77734375 1.96484375 Z M-113.77734375 9.96484375 C-113.78416836 12.9362019 -113.78908933 15.90754394 -113.79296875 18.87890625 C-113.79506348 19.70656494 -113.7971582 20.53422363 -113.79931641 21.38696289 C-113.81329748 35.73853183 -112.8267475 49.7340044 -110.90234375 63.96484375 C-110.74088867 65.16931152 -110.57943359 66.3737793 -110.41308594 67.61474609 C-108.8830798 78.37677957 -106.88173931 88.70881851 -102.08984375 98.52734375 C-101.56656494 99.61329834 -101.56656494 99.61329834 -101.03271484 100.72119141 C-94.55784431 113.77850779 -84.84470518 125.61349927 -73.08984375 134.26171875 C-69.54439694 136.87289242 -66.1615977 139.68320512 -62.74609375 142.4609375 C-61.0578053 144.06601714 -61.0578053 144.06601714 -59.77734375 143.96484375 C-59.75401525 126.64107023 -59.73636482 109.31730159 -59.72553158 91.99351597 C-59.72036852 83.95034321 -59.71332563 75.90718018 -59.7019043 67.86401367 C-59.69195777 60.85611415 -59.6854904 53.84822167 -59.68325526 46.84031528 C-59.68194809 43.12741183 -59.67886191 39.41452855 -59.67161369 35.70163155 C-59.66360043 31.56352964 -59.66335259 27.42546314 -59.66381836 23.28735352 C-59.65842545 21.42727409 -59.65842545 21.42727409 -59.65292358 19.52961731 C-59.65429825 18.40916016 -59.65567291 17.288703 -59.65708923 16.1342926 C-59.65570654 14.66449369 -59.65570654 14.66449369 -59.65429592 13.16500187 C-59.53080895 10.98920555 -59.53080895 10.98920555 -60.77734375 9.96484375 C-62.43472818 9.8713746 -64.09609019 9.84739398 -65.75610352 9.85131836 C-67.34764 9.85143166 -67.34764 9.85143166 -68.97132874 9.85154724 C-70.12547775 9.85670853 -71.27962677 9.86186981 -72.46875 9.8671875 C-74.23121315 9.86930992 -74.23121315 9.86930992 -76.02928162 9.87147522 C-79.79949439 9.87709383 -83.56964879 9.88964949 -87.33984375 9.90234375 C-89.88867102 9.90735635 -92.43749922 9.91191967 -94.98632812 9.91601562 C-101.25002008 9.92706931 -107.51367774 9.94382554 -113.77734375 9.96484375 Z M-54.77734375 9.96484375 C-54.77734375 53.85484375 -54.77734375 97.74484375 -54.77734375 142.96484375 C-50.06310119 141.09289872 -50.06310119 141.09289872 -46.32421875 138.2421875 C-45.70957764 137.70859619 -45.09493652 137.17500488 -44.46166992 136.62524414 C-43.82334229 136.05668701 -43.18501465 135.48812988 -42.52734375 134.90234375 C-41.86130127 134.31380615 -41.19525879 133.72526855 -40.5090332 133.11889648 C-38.5889398 131.41113569 -36.68101035 129.69087672 -34.77734375 127.96484375 C-33.47603516 126.79308594 -33.47603516 126.79308594 -32.1484375 125.59765625 C-12.38021217 106.85497391 -3.50892023 80.6679216 -2.6796875 53.80078125 C-2.69128906 52.98867187 -2.70289063 52.1765625 -2.71484375 51.33984375 C-2.72386719 50.50195312 -2.73289063 49.6640625 -2.7421875 48.80078125 C-2.75378906 48.19492188 -2.76539063 47.5890625 -2.77734375 46.96484375 C-3.76734375 47.29484375 -4.75734375 47.62484375 -5.77734375 47.96484375 C-5.95910156 49.03025391 -5.95910156 49.03025391 -6.14453125 50.1171875 C-6.31210938 51.03628906 -6.4796875 51.95539063 -6.65234375 52.90234375 C-6.89597656 54.27712891 -6.89597656 54.27712891 -7.14453125 55.6796875 C-7.35335937 56.43378906 -7.5621875 57.18789062 -7.77734375 57.96484375 C-8.76734375 58.45984375 -8.76734375 58.45984375 -9.77734375 58.96484375 C-9.77734375 56.65484375 -9.77734375 54.34484375 -9.77734375 51.96484375 C-10.10734375 51.96484375 -10.43734375 51.96484375 -10.77734375 51.96484375 C-10.88691406 53.18300781 -10.99648437 54.40117188 -11.109375 55.65625 C-11.2689349 57.28000663 -11.42912468 58.90370145 -11.58984375 60.52734375 C-11.66009766 61.32720703 -11.73035156 62.12707031 -11.80273438 62.95117188 C-12.45771534 69.36998531 -14.06324106 74.17149123 -17.46484375 79.71484375 C-19.02927926 81.96259433 -19.02927926 81.96259433 -18.77734375 84.96484375 C-17.12734375 85.29484375 -15.47734375 85.62484375 -13.77734375 85.96484375 C-14.02986174 91.14146251 -15.77031991 93.55547456 -19.20703125 97.15625 C-20.90954066 98.97563781 -20.90954066 98.97563781 -22.1171875 101.53515625 C-24.23125592 104.62915756 -25.93402487 105.15578952 -29.46484375 106.27734375 C-30.45871094 106.60347656 -31.45257813 106.92960937 -32.4765625 107.265625 C-33.61544922 107.61173828 -33.61544922 107.61173828 -34.77734375 107.96484375 C-34.44734375 106.31484375 -34.11734375 104.66484375 -33.77734375 102.96484375 C-35.09734375 102.96484375 -36.41734375 102.96484375 -37.77734375 102.96484375 C-37.77734375 101.97484375 -37.77734375 100.98484375 -37.77734375 99.96484375 C-36.78734375 99.46984375 -36.78734375 99.46984375 -35.77734375 98.96484375 C-36.43734375 98.96484375 -37.09734375 98.96484375 -37.77734375 98.96484375 C-37.77734375 97.97484375 -37.77734375 96.98484375 -37.77734375 95.96484375 C-34.05304018 95.27195006 -30.56650629 94.85339779 -26.77734375 94.96484375 C-26.11734375 93.64484375 -25.45734375 92.32484375 -24.77734375 90.96484375 C-29.70239036 88.52613595 -34.12239782 88.83739109 -39.51367188 89.04296875 C-41.26792228 89.0848613 -43.02385012 89.03124824 -44.77734375 88.96484375 C-45.43734375 88.30484375 -46.09734375 87.64484375 -46.77734375 86.96484375 C-48.09734375 86.96484375 -49.41734375 86.96484375 -50.77734375 86.96484375 C-50.77734375 86.30484375 -50.77734375 85.64484375 -50.77734375 84.96484375 C-52.23567733 83.33969907 -52.23567733 83.33969907 -53.77734375 81.96484375 C-53.11734375 81.96484375 -52.45734375 81.96484375 -51.77734375 81.96484375 C-51.44734375 80.97484375 -51.11734375 79.98484375 -50.77734375 78.96484375 C-47.76942464 76.92375578 -45.35539031 76.76606339 -41.77734375 76.96484375 C-41.77734375 77.95484375 -41.77734375 78.94484375 -41.77734375 79.96484375 C-40.33984184 81.65283202 -40.33984184 81.65283202 -38.77734375 82.96484375 C-37.78734375 82.46984375 -37.78734375 82.46984375 -36.77734375 81.96484375 C-37.43734375 80.93359375 -38.09734375 79.90234375 -38.77734375 78.83984375 C-40.75017101 75.42907549 -41.1656204 72.94467945 -40.77734375 68.96484375 C-38.13734375 68.30484375 -35.49734375 67.64484375 -32.77734375 66.96484375 C-35.33598224 63.80208229 -37.88761297 63.14914183 -41.77734375 62.21484375 C-42.82921875 61.951875 -43.88109375 61.68890625 -44.96484375 61.41796875 C-47.8472504 60.73086852 -47.8472504 60.73086852 -50.77734375 61.96484375 C-51.27234375 60.47984375 -51.27234375 60.47984375 -51.77734375 58.96484375 C-52.43734375 58.96484375 -53.09734375 58.96484375 -53.77734375 58.96484375 C-52.77734375 56.96484375 -52.77734375 56.96484375 -49.77734375 54.96484375 C-50.43734375 54.63484375 -51.09734375 54.30484375 -51.77734375 53.96484375 C-51.77734375 53.30484375 -51.77734375 52.64484375 -51.77734375 51.96484375 C-48.64236083 50.1070761 -46.40262943 49.76343899 -42.77734375 49.96484375 C-42.48859375 50.58359375 -42.19984375 51.20234375 -41.90234375 51.83984375 C-40.84014333 54.0981014 -40.84014333 54.0981014 -38.77734375 55.96484375 C-39.39011987 53.00309252 -40.03106897 51.58425592 -41.77734375 48.96484375 C-39.79734375 49.29484375 -37.81734375 49.62484375 -35.77734375 49.96484375 C-36.51984375 49.49046875 -37.26234375 49.01609375 -38.02734375 48.52734375 C-41.19742899 45.57340068 -42.20121241 43.02054971 -43.81640625 39.0859375 C-45.56538005 35.22539777 -47.7290147 33.44135696 -51.52734375 31.71484375 C-52.26984375 31.46734375 -53.01234375 31.21984375 -53.77734375 30.96484375 C-53.77734375 29.97484375 -53.77734375 28.98484375 -53.77734375 27.96484375 C-52.45734375 27.63484375 -51.13734375 27.30484375 -49.77734375 26.96484375 C-50.10734375 26.30484375 -50.43734375 25.64484375 -50.77734375 24.96484375 C-49.78734375 24.63484375 -48.79734375 24.30484375 -47.77734375 23.96484375 C-47.77734375 23.30484375 -47.77734375 22.64484375 -47.77734375 21.96484375 C-45.30234375 22.95484375 -45.30234375 22.95484375 -42.77734375 23.96484375 C-42.77734375 24.95484375 -42.77734375 25.94484375 -42.77734375 26.96484375 C-41.12734375 27.29484375 -39.47734375 27.62484375 -37.77734375 27.96484375 C-37.84244792 29.98307292 -37.90755208 32.00130208 -37.97265625 34.01953125 C-37.96066064 36.2034802 -37.96066064 36.2034802 -35.77734375 37.96484375 C-33.79734375 37.30484375 -31.81734375 36.64484375 -29.77734375 35.96484375 C-30.10734375 33.98484375 -30.43734375 32.00484375 -30.77734375 29.96484375 C-30.11734375 29.63484375 -29.45734375 29.30484375 -28.77734375 28.96484375 C-30.09734375 28.63484375 -31.41734375 28.30484375 -32.77734375 27.96484375 C-32.77734375 25.65484375 -32.77734375 23.34484375 -32.77734375 20.96484375 C-31.12734375 20.30484375 -29.47734375 19.64484375 -27.77734375 18.96484375 C-28.10734375 21.27484375 -28.43734375 23.58484375 -28.77734375 25.96484375 C-27.76414062 26.03832031 -27.76414062 26.03832031 -26.73046875 26.11328125 C-25.8384375 26.18804687 -24.94640625 26.2628125 -24.02734375 26.33984375 C-23.145625 26.40945312 -22.26390625 26.4790625 -21.35546875 26.55078125 C-18.77734375 26.96484375 -18.77734375 26.96484375 -16.63671875 28.06640625 C-14.62930652 29.30298202 -14.62930652 29.30298202 -11.77734375 27.96484375 C-11.28234375 28.95484375 -11.28234375 28.95484375 -10.77734375 29.96484375 C-9.45734375 29.63484375 -8.13734375 29.30484375 -6.77734375 28.96484375 C-4.74514887 32.36835713 -4.40843336 35.28813645 -4.15234375 39.21484375 C-4.07757813 40.2925 -4.0028125 41.37015625 -3.92578125 42.48046875 C-3.87679687 43.3003125 -3.8278125 44.12015625 -3.77734375 44.96484375 C-1.40696763 41.40927957 -1.43245071 38.78549577 -1.36328125 34.671875 C-1.3276709 33.37999268 -1.29206055 32.08811035 -1.25537109 30.75708008 C-1.22137207 29.11376709 -1.18737305 27.4704541 -1.15234375 25.77734375 C-1.02859375 20.55921875 -0.90484375 15.34109375 -0.77734375 9.96484375 C-18.59734375 9.96484375 -36.41734375 9.96484375 -54.77734375 9.96484375 Z M-25.77734375 28.96484375 C-25.11734375 29.62484375 -24.45734375 30.28484375 -23.77734375 30.96484375 C-23.77734375 30.30484375 -23.77734375 29.64484375 -23.77734375 28.96484375 C-24.43734375 28.96484375 -25.09734375 28.96484375 -25.77734375 28.96484375 Z M-12.77734375 29.96484375 C-13.99424908 31.7301397 -13.99424908 31.7301397 -14.77734375 33.96484375 C-13.99424908 36.1995478 -13.99424908 36.1995478 -12.77734375 37.96484375 C-12.44734375 35.32484375 -12.11734375 32.68484375 -11.77734375 29.96484375 C-12.10734375 29.96484375 -12.43734375 29.96484375 -12.77734375 29.96484375 Z M-43.77734375 29.96484375 C-44.10734375 31.61484375 -44.43734375 33.26484375 -44.77734375 34.96484375 C-44.11734375 35.29484375 -43.45734375 35.62484375 -42.77734375 35.96484375 C-41.7603065 38.48301022 -40.92009762 41.03814533 -40.0703125 43.6171875 C-38.94004158 46.19555519 -38.94004158 46.19555519 -36.140625 47.28125 C-35.36074219 47.50683594 -34.58085937 47.73242188 -33.77734375 47.96484375 C-33.44734375 50.27484375 -33.11734375 52.58484375 -32.77734375 54.96484375 C-33.43734375 55.29484375 -34.09734375 55.62484375 -34.77734375 55.96484375 C-34.11734375 55.96484375 -33.45734375 55.96484375 -32.77734375 55.96484375 C-32.77734375 56.95484375 -32.77734375 57.94484375 -32.77734375 58.96484375 C-35.41734375 58.63484375 -38.05734375 58.30484375 -40.77734375 57.96484375 C-41.10734375 56.97484375 -41.43734375 55.98484375 -41.77734375 54.96484375 C-42.76734375 55.29484375 -43.75734375 55.62484375 -44.77734375 55.96484375 C-45.10734375 56.95484375 -45.43734375 57.94484375 -45.77734375 58.96484375 C-44.94589844 59.23039062 -44.11445313 59.4959375 -43.2578125 59.76953125 C-41.62779297 60.29933594 -41.62779297 60.29933594 -39.96484375 60.83984375 C-38.88589844 61.18789062 -37.80695313 61.5359375 -36.6953125 61.89453125 C-33.77734375 62.96484375 -33.77734375 62.96484375 -30.77734375 64.96484375 C-30.08984375 67.08984375 -30.08984375 67.08984375 -29.77734375 68.96484375 C-32.41734375 69.29484375 -35.05734375 69.62484375 -37.77734375 69.96484375 C-38.57091176 71.71155963 -38.57091176 71.71155963 -38.77734375 73.96484375 C-38.30296875 74.74859375 -37.82859375 75.53234375 -37.33984375 76.33984375 C-35.48547348 79.4551858 -35.5287821 81.40212679 -35.77734375 84.96484375 C-38.44401042 84.29817708 -41.11067708 83.63151042 -43.77734375 82.96484375 C-43.77734375 84.28484375 -43.77734375 85.60484375 -43.77734375 86.96484375 C-39.48734375 86.96484375 -35.19734375 86.96484375 -30.77734375 86.96484375 C-31.43734375 85.31484375 -32.09734375 83.66484375 -32.77734375 81.96484375 C-33.15327441 79.97241125 -33.4971392 77.97297635 -33.77734375 75.96484375 C-31.46734375 76.62484375 -29.15734375 77.28484375 -26.77734375 77.96484375 C-26.77734375 80.93484375 -26.77734375 83.90484375 -26.77734375 86.96484375 C-23.14114719 88.04568896 -23.14114719 88.04568896 -20.77734375 87.96484375 C-22.08348317 91.88326202 -23.60864223 94.29125184 -26.77734375 96.96484375 C-27.43734375 96.96484375 -28.09734375 96.96484375 -28.77734375 96.96484375 C-28.77734375 98.28484375 -28.77734375 99.60484375 -28.77734375 100.96484375 C-27.45734375 101.29484375 -26.13734375 101.62484375 -24.77734375 101.96484375 C-24.22046875 101.09859375 -23.66359375 100.23234375 -23.08984375 99.33984375 C-21.53633083 96.99008586 -19.86916027 94.845264 -18.02734375 92.71484375 C-15.56626449 90.29905258 -15.56626449 90.29905258 -15.77734375 87.96484375 C-17.42734375 87.30484375 -19.07734375 86.64484375 -20.77734375 85.96484375 C-21.18519695 82.39612826 -20.97312625 81.22792649 -18.77734375 78.27734375 C-18.11734375 77.51421875 -17.45734375 76.75109375 -16.77734375 75.96484375 C-16.77734375 75.30484375 -16.77734375 74.64484375 -16.77734375 73.96484375 C-17.43734375 73.96484375 -18.09734375 73.96484375 -18.77734375 73.96484375 C-19.02484375 73.16046875 -19.27234375 72.35609375 -19.52734375 71.52734375 C-20.52273486 68.69047907 -21.62491357 66.11122052 -22.90234375 63.40234375 C-25.05795835 58.59242759 -25.28112321 55.83602462 -23.90234375 50.71484375 C-22.77734375 47.96484375 -22.77734375 47.96484375 -20.77734375 46.96484375 C-20.0926171 45.07719472 -20.0926171 45.07719472 -19.65234375 42.90234375 C-19.48476562 42.16886719 -19.3171875 41.43539062 -19.14453125 40.6796875 C-19.02335937 40.11378906 -18.9021875 39.54789063 -18.77734375 38.96484375 C-18.11734375 38.96484375 -17.45734375 38.96484375 -16.77734375 38.96484375 C-15.52192818 35.19859704 -16.40672417 33.59295441 -17.77734375 29.96484375 C-18.10734375 30.62484375 -18.43734375 31.28484375 -18.77734375 31.96484375 C-21.25234375 31.46984375 -21.25234375 31.46984375 -23.77734375 30.96484375 C-24.10734375 31.95484375 -24.43734375 32.94484375 -24.77734375 33.96484375 C-27.33745726 36.18810022 -29.95553488 38.08363784 -32.77734375 39.96484375 C-35.33984375 39.77734375 -35.33984375 39.77734375 -37.77734375 38.96484375 C-40.06748028 35.52963895 -39.95577348 33.97951275 -39.77734375 29.96484375 C-41.09734375 29.96484375 -42.41734375 29.96484375 -43.77734375 29.96484375 Z M-118.77734375 32.96484375 C-120.13562346 34.6112434 -121.46988626 36.27780182 -122.77734375 37.96484375 C-120.30234375 38.95484375 -120.30234375 38.95484375 -117.77734375 39.96484375 C-117.77734375 37.65484375 -117.77734375 35.34484375 -117.77734375 32.96484375 C-118.10734375 32.96484375 -118.43734375 32.96484375 -118.77734375 32.96484375 Z M-8.77734375 32.96484375 C-7.77734375 36.96484375 -7.77734375 36.96484375 -7.77734375 36.96484375 Z M2.22265625 32.96484375 C1.56265625 40.88484375 0.90265625 48.80484375 0.22265625 56.96484375 C1.87265625 56.30484375 3.52265625 55.64484375 5.22265625 54.96484375 C6.46187848 51.24717707 5.79284567 49.52594838 4.78515625 45.77734375 C4.35396484 44.14732422 4.35396484 44.14732422 3.9140625 42.484375 C3.68589844 41.65292969 3.45773438 40.82148437 3.22265625 39.96484375 C4.87265625 39.63484375 6.52265625 39.30484375 8.22265625 38.96484375 C6.58096097 36.94429571 4.91353847 34.94441317 3.22265625 32.96484375 C2.89265625 32.96484375 2.56265625 32.96484375 2.22265625 32.96484375 Z M-128.77734375 38.96484375 C-129.10734375 40.61484375 -129.43734375 42.26484375 -129.77734375 43.96484375 C-127.13734375 45.61484375 -124.49734375 47.26484375 -121.77734375 48.96484375 C-121.11734375 46.65484375 -120.45734375 44.34484375 -119.77734375 41.96484375 C-122.74734375 40.97484375 -125.71734375 39.98484375 -128.77734375 38.96484375 Z M13.22265625 38.96484375 C12.56265625 39.62484375 11.90265625 40.28484375 11.22265625 40.96484375 C12.21265625 40.96484375 13.20265625 40.96484375 14.22265625 40.96484375 C14.22265625 42.94484375 14.22265625 44.92484375 14.22265625 46.96484375 C14.88265625 46.96484375 15.54265625 46.96484375 16.22265625 46.96484375 C15.89265625 48.28484375 15.56265625 49.60484375 15.22265625 50.96484375 C15.88265625 50.96484375 16.54265625 50.96484375 17.22265625 50.96484375 C17.29693463 54.30737099 17.28812578 56.76843515 16.22265625 59.96484375 C16.88265625 59.96484375 17.54265625 59.96484375 18.22265625 59.96484375 C18.15755208 61.98307292 18.09244792 64.00130208 18.02734375 66.01953125 C18.03933936 68.2034802 18.03933936 68.2034802 20.22265625 69.96484375 C20.53917243 64.05654181 19.93977445 58.58418361 18.84765625 52.77734375 C18.72156982 52.10058594 18.5954834 51.42382812 18.46557617 50.7265625 C17.67144926 46.6840949 16.60970086 42.84253803 15.22265625 38.96484375 C14.56265625 38.96484375 13.90265625 38.96484375 13.22265625 38.96484375 Z M-17.77734375 41.96484375 C-17.77734375 44.93484375 -17.77734375 47.90484375 -17.77734375 50.96484375 C-17.11734375 50.96484375 -16.45734375 50.96484375 -15.77734375 50.96484375 C-15.44734375 48.65484375 -15.11734375 46.34484375 -14.77734375 43.96484375 C-15.76734375 43.30484375 -16.75734375 42.64484375 -17.77734375 41.96484375 Z M-130.77734375 43.96484375 C-134.06702895 56.02702281 -134.37407709 67.59016038 -132.77734375 79.96484375 C-132.52210938 79.330625 -132.266875 78.69640625 -132.00390625 78.04296875 C-130.77734375 75.96484375 -130.77734375 75.96484375 -127.15234375 74.71484375 C-126.03859375 74.46734375 -124.92484375 74.21984375 -123.77734375 73.96484375 C-123.77734375 73.30484375 -123.77734375 72.64484375 -123.77734375 71.96484375 C-126.41734375 71.30484375 -129.05734375 70.64484375 -131.77734375 69.96484375 C-131.90234375 67.58984375 -131.90234375 67.58984375 -131.77734375 64.96484375 C-131.11734375 64.30484375 -130.45734375 63.64484375 -129.77734375 62.96484375 C-130.43734375 62.96484375 -131.09734375 62.96484375 -131.77734375 62.96484375 C-131.77734375 59.99484375 -131.77734375 57.02484375 -131.77734375 53.96484375 C-131.11734375 54.29484375 -130.45734375 54.62484375 -129.77734375 54.96484375 C-127.44435715 55.00506766 -125.11027709 55.00804622 -122.77734375 54.96484375 C-122.77734375 53.97484375 -122.77734375 52.98484375 -122.77734375 51.96484375 C-125.41734375 52.29484375 -128.05734375 52.62484375 -130.77734375 52.96484375 C-130.77734375 51.97484375 -130.77734375 50.98484375 -130.77734375 49.96484375 C-129.78734375 49.63484375 -128.79734375 49.30484375 -127.77734375 48.96484375 C-128.43734375 47.31484375 -129.09734375 45.66484375 -129.77734375 43.96484375 C-130.10734375 43.96484375 -130.43734375 43.96484375 -130.77734375 43.96484375 Z M-117.77734375 43.96484375 C-118.10734375 45.20234375 -118.43734375 46.43984375 -118.77734375 47.71484375 C-118.96296875 48.4109375 -119.14859375 49.10703125 -119.33984375 49.82421875 C-119.91083724 52.25386236 -119.91083724 52.25386236 -119.77734375 55.96484375 C-118.45734375 56.29484375 -117.13734375 56.62484375 -115.77734375 56.96484375 C-116.10734375 52.67484375 -116.43734375 48.38484375 -116.77734375 43.96484375 C-117.10734375 43.96484375 -117.43734375 43.96484375 -117.77734375 43.96484375 Z M7.22265625 45.96484375 C7.22265625 46.62484375 7.22265625 47.28484375 7.22265625 47.96484375 C7.88265625 47.96484375 8.54265625 47.96484375 9.22265625 47.96484375 C9.22265625 47.30484375 9.22265625 46.64484375 9.22265625 45.96484375 C8.56265625 45.96484375 7.90265625 45.96484375 7.22265625 45.96484375 Z M-20.77734375 50.96484375 C-20.44734375 53.27484375 -20.11734375 55.58484375 -19.77734375 57.96484375 C-20.76734375 57.63484375 -21.75734375 57.30484375 -22.77734375 56.96484375 C-21.28564109 61.93718595 -19.17276958 66.38330114 -16.77734375 70.96484375 C-15.76161086 67.91764508 -15.76763135 66.97651371 -16.3359375 63.953125 C-16.54379883 62.81713867 -16.54379883 62.81713867 -16.75585938 61.65820312 C-16.90732422 60.87251953 -17.05878906 60.08683594 -17.21484375 59.27734375 C-17.36244141 58.48005859 -17.51003906 57.68277344 -17.66210938 56.86132812 C-18.02719339 54.89458523 -18.40139664 52.92953908 -18.77734375 50.96484375 C-19.43734375 50.96484375 -20.09734375 50.96484375 -20.77734375 50.96484375 Z M43.22265625 56.96484375 C43.22265625 57.62484375 43.22265625 58.28484375 43.22265625 58.96484375 C46.08043658 59.64977748 46.08043658 59.64977748 49.22265625 59.96484375 C50.21265625 59.30484375 51.20265625 58.64484375 52.22265625 57.96484375 C51.89265625 56.31484375 51.56265625 54.66484375 51.22265625 52.96484375 C47.88510533 52.96484375 45.82668094 55.04012985 43.22265625 56.96484375 Z M9.22265625 53.96484375 C9.22265625 54.62484375 9.22265625 55.28484375 9.22265625 55.96484375 C11.20265625 55.96484375 13.18265625 55.96484375 15.22265625 55.96484375 C14.89265625 54.97484375 14.56265625 53.98484375 14.22265625 52.96484375 C12.50182701 52.96484375 10.88037039 53.53704655 9.22265625 53.96484375 Z M-128.77734375 57.96484375 C-128.77734375 58.95484375 -128.77734375 59.94484375 -128.77734375 60.96484375 C-128.11734375 60.96484375 -127.45734375 60.96484375 -126.77734375 60.96484375 C-126.44734375 59.97484375 -126.11734375 58.98484375 -125.77734375 57.96484375 C-126.76734375 57.96484375 -127.75734375 57.96484375 -128.77734375 57.96484375 Z M10.22265625 59.96484375 C11.22265625 61.96484375 11.22265625 61.96484375 11.22265625 61.96484375 Z M14.22265625 61.96484375 C13.89265625 62.62484375 13.56265625 63.28484375 13.22265625 63.96484375 C14.21265625 63.63484375 15.20265625 63.30484375 16.22265625 62.96484375 C15.56265625 62.63484375 14.90265625 62.30484375 14.22265625 61.96484375 Z M-129.77734375 64.96484375 C-129.77734375 65.95484375 -129.77734375 66.94484375 -129.77734375 67.96484375 C-127.79734375 67.96484375 -125.81734375 67.96484375 -123.77734375 67.96484375 C-123.77734375 66.31484375 -123.77734375 64.66484375 -123.77734375 62.96484375 C-126.24013176 62.96484375 -127.62958494 63.81937238 -129.77734375 64.96484375 Z M10.22265625 66.96484375 C11.22265625 68.96484375 11.22265625 68.96484375 11.22265625 68.96484375 Z M10.22265625 70.96484375 C10.55265625 71.95484375 10.88265625 72.94484375 11.22265625 73.96484375 C11.88265625 72.97484375 12.54265625 71.98484375 13.22265625 70.96484375 C12.23265625 70.96484375 11.24265625 70.96484375 10.22265625 70.96484375 Z M18.22265625 70.96484375 C17.56265625 72.28484375 16.90265625 73.60484375 16.22265625 74.96484375 C16.88265625 74.96484375 17.54265625 74.96484375 18.22265625 74.96484375 C18.55265625 75.95484375 18.88265625 76.94484375 19.22265625 77.96484375 C19.22265625 75.65484375 19.22265625 73.34484375 19.22265625 70.96484375 C18.89265625 70.96484375 18.56265625 70.96484375 18.22265625 70.96484375 Z M9.22265625 74.96484375 C10.22265625 78.96484375 10.22265625 78.96484375 10.22265625 78.96484375 Z M12.22265625 76.96484375 C12.22265625 77.62484375 12.22265625 78.28484375 12.22265625 78.96484375 C12.88265625 78.96484375 13.54265625 78.96484375 14.22265625 78.96484375 C14.55265625 79.62484375 14.88265625 80.28484375 15.22265625 80.96484375 C15.55265625 79.97484375 15.88265625 78.98484375 16.22265625 77.96484375 C14.90265625 77.63484375 13.58265625 77.30484375 12.22265625 76.96484375 Z M-123.77734375 75.96484375 C-123.77734375 76.62484375 -123.77734375 77.28484375 -123.77734375 77.96484375 C-125.42734375 77.96484375 -127.07734375 77.96484375 -128.77734375 77.96484375 C-128.77734375 78.62484375 -128.77734375 79.28484375 -128.77734375 79.96484375 C-126.79734375 79.63484375 -124.81734375 79.30484375 -122.77734375 78.96484375 C-123.10734375 77.97484375 -123.43734375 76.98484375 -123.77734375 75.96484375 Z M-30.77734375 78.96484375 C-30.44734375 80.61484375 -30.11734375 82.26484375 -29.77734375 83.96484375 C-29.44734375 83.96484375 -29.11734375 83.96484375 -28.77734375 83.96484375 C-28.77734375 82.31484375 -28.77734375 80.66484375 -28.77734375 78.96484375 C-29.43734375 78.96484375 -30.09734375 78.96484375 -30.77734375 78.96484375 Z M-131.77734375 79.96484375 C-131.21638318 88.1922654 -128.00039648 96.56584055 -122.77734375 102.96484375 C-122.44734375 101.64484375 -122.11734375 100.32484375 -121.77734375 98.96484375 C-122.43734375 98.63484375 -123.09734375 98.30484375 -123.77734375 97.96484375 C-123.77734375 97.30484375 -123.77734375 96.64484375 -123.77734375 95.96484375 C-121.46734375 95.96484375 -119.15734375 95.96484375 -116.77734375 95.96484375 C-117.10734375 94.64484375 -117.43734375 93.32484375 -117.77734375 91.96484375 C-121.07734375 91.96484375 -124.37734375 91.96484375 -127.77734375 91.96484375 C-126.04174937 88.90689175 -124.39261756 86.33104386 -121.77734375 83.96484375 C-122.10734375 82.97484375 -122.43734375 81.98484375 -122.77734375 80.96484375 C-124.44796875 81.27421875 -124.44796875 81.27421875 -126.15234375 81.58984375 C-127.34859375 81.71359375 -128.54484375 81.83734375 -129.77734375 81.96484375 C-130.43734375 81.30484375 -131.09734375 80.64484375 -131.77734375 79.96484375 Z M8.22265625 79.96484375 C9.22265625 81.96484375 9.22265625 81.96484375 9.22265625 81.96484375 Z M17.22265625 80.96484375 C18.22265625 82.96484375 18.22265625 82.96484375 18.22265625 82.96484375 Z M7.22265625 82.96484375 C7.22265625 83.95484375 7.22265625 84.94484375 7.22265625 85.96484375 C10.12865886 87.22149353 12.01870209 87.96484375 15.22265625 87.96484375 C15.55265625 88.62484375 15.88265625 89.28484375 16.22265625 89.96484375 C15.89265625 88.64484375 15.56265625 87.32484375 15.22265625 85.96484375 C14.08828125 85.84109375 12.95390625 85.71734375 11.78515625 85.58984375 C10.60953125 85.38359375 9.43390625 85.17734375 8.22265625 84.96484375 C7.89265625 84.30484375 7.56265625 83.64484375 7.22265625 82.96484375 Z M16.22265625 83.96484375 C17.22265625 85.96484375 17.22265625 85.96484375 17.22265625 85.96484375 Z M-121.77734375 84.96484375 C-122.10734375 86.61484375 -122.43734375 88.26484375 -122.77734375 89.96484375 C-121.78734375 89.96484375 -120.79734375 89.96484375 -119.77734375 89.96484375 C-120.10734375 88.31484375 -120.43734375 86.66484375 -120.77734375 84.96484375 C-121.10734375 84.96484375 -121.43734375 84.96484375 -121.77734375 84.96484375 Z M6.22265625 86.96484375 C5.89265625 88.28484375 5.56265625 89.60484375 5.22265625 90.96484375 C6.21265625 90.63484375 7.20265625 90.30484375 8.22265625 89.96484375 C7.56265625 88.97484375 6.90265625 87.98484375 6.22265625 86.96484375 Z M13.22265625 90.96484375 C13.55265625 91.95484375 13.88265625 92.94484375 14.22265625 93.96484375 C14.55265625 92.97484375 14.88265625 91.98484375 15.22265625 90.96484375 C14.56265625 90.96484375 13.90265625 90.96484375 13.22265625 90.96484375 Z M12.22265625 93.96484375 C13.22265625 96.96484375 13.22265625 96.96484375 13.22265625 96.96484375 Z M4.22265625 94.96484375 C7.27846599 97.55261583 7.27846599 97.55261583 11.22265625 97.96484375 C11.55265625 98.62484375 11.88265625 99.28484375 12.22265625 99.96484375 C12.22265625 98.97484375 12.22265625 97.98484375 12.22265625 96.96484375 C9.31665364 95.70819397 7.42661041 94.96484375 4.22265625 94.96484375 Z M2.22265625 95.96484375 C1.89265625 96.95484375 1.56265625 97.94484375 1.22265625 98.96484375 C1.88265625 98.96484375 2.54265625 98.96484375 3.22265625 98.96484375 C2.89265625 97.97484375 2.56265625 96.98484375 2.22265625 95.96484375 Z M-117.83984375 99.83984375 C-120.00192837 101.73188249 -120.00192837 101.73188249 -119.77734375 103.96484375 C-120.76734375 104.29484375 -121.75734375 104.62484375 -122.77734375 104.96484375 C-121.8023623 106.46756745 -120.82224986 107.96696338 -119.83984375 109.46484375 C-119.29457031 110.30015625 -118.74929687 111.13546875 -118.1875 111.99609375 C-117.72214844 112.64578125 -117.25679687 113.29546875 -116.77734375 113.96484375 C-116.44734375 113.96484375 -116.11734375 113.96484375 -115.77734375 113.96484375 C-115.77734375 111.98484375 -115.77734375 110.00484375 -115.77734375 107.96484375 C-116.76734375 107.63484375 -117.75734375 107.30484375 -118.77734375 106.96484375 C-118.77734375 106.30484375 -118.77734375 105.64484375 -118.77734375 104.96484375 C-118.15859375 104.82046875 -117.53984375 104.67609375 -116.90234375 104.52734375 C-114.74476053 104.0333215 -114.74476053 104.0333215 -112.77734375 102.96484375 C-113.43734375 101.31484375 -114.09734375 99.66484375 -114.77734375 97.96484375 C-116.11858505 97.85273162 -116.11858505 97.85273162 -117.83984375 99.83984375 Z M0.22265625 98.96484375 C1.22265625 100.96484375 1.22265625 100.96484375 1.22265625 100.96484375 Z M4.22265625 98.96484375 C4.22265625 100.28484375 4.22265625 101.60484375 4.22265625 102.96484375 C6.69765625 103.95484375 6.69765625 103.95484375 9.22265625 104.96484375 C9.88265625 103.64484375 10.54265625 102.32484375 11.22265625 100.96484375 C8.91265625 100.30484375 6.60265625 99.64484375 4.22265625 98.96484375 Z M-0.77734375 100.96484375 C0.22265625 102.96484375 0.22265625 102.96484375 0.22265625 102.96484375 Z M-2.77734375 103.96484375 C-3.10734375 104.95484375 -3.43734375 105.94484375 -3.77734375 106.96484375 C-2.95234375 107.58359375 -2.12734375 108.20234375 -1.27734375 108.83984375 C-0.45234375 109.54109375 0.37265625 110.24234375 1.22265625 110.96484375 C1.22265625 111.62484375 1.22265625 112.28484375 1.22265625 112.96484375 C-0.75734375 113.95484375 -0.75734375 113.95484375 -2.77734375 114.96484375 C-1.78734375 116.44984375 -1.78734375 116.44984375 -0.77734375 117.96484375 C0.37413286 116.69912142 1.51864939 115.42706469 2.66015625 114.15234375 C3.29824219 113.44464844 3.93632812 112.73695313 4.59375 112.0078125 C6.41351637 109.96588223 6.41351637 109.96588223 7.22265625 106.96484375 C2.79172427 105.15182617 2.79172427 105.15182617 -1.77734375 105.96484375 C-2.10734375 105.30484375 -2.43734375 104.64484375 -2.77734375 103.96484375 Z M-111.77734375 105.96484375 C-111.44734375 106.62484375 -111.11734375 107.28484375 -110.77734375 107.96484375 C-110.44734375 107.30484375 -110.11734375 106.64484375 -109.77734375 105.96484375 C-110.43734375 105.96484375 -111.09734375 105.96484375 -111.77734375 105.96484375 Z M-108.77734375 107.96484375 C-108.77734375 108.62484375 -108.77734375 109.28484375 -108.77734375 109.96484375 C-108.11734375 109.63484375 -107.45734375 109.30484375 -106.77734375 108.96484375 C-107.43734375 108.63484375 -108.09734375 108.30484375 -108.77734375 107.96484375 Z M-5.77734375 107.96484375 C-6.76734375 109.44984375 -6.76734375 109.44984375 -7.77734375 110.96484375 C-6.12734375 110.96484375 -4.47734375 110.96484375 -2.77734375 110.96484375 C-3.43734375 110.63484375 -4.09734375 110.30484375 -4.77734375 109.96484375 C-5.10734375 109.30484375 -5.43734375 108.64484375 -5.77734375 107.96484375 Z M-100.77734375 109.96484375 C-100.77734375 110.95484375 -100.77734375 111.94484375 -100.77734375 112.96484375 C-98.83724853 114.67016698 -98.83724853 114.67016698 -96.77734375 115.96484375 C-97.9290773 113.49684328 -98.8251794 111.9170081 -100.77734375 109.96484375 Z M-15.77734375 109.96484375 C-17.75734375 112.93484375 -17.75734375 112.93484375 -19.77734375 115.96484375 C-19.44734375 116.62484375 -19.11734375 117.28484375 -18.77734375 117.96484375 C-17.12734375 116.64484375 -15.47734375 115.32484375 -13.77734375 113.96484375 C-14.43734375 112.64484375 -15.09734375 111.32484375 -15.77734375 109.96484375 Z M-115.77734375 114.96484375 C-113.30234375 116.94484375 -113.30234375 116.94484375 -110.77734375 118.96484375 C-110.77734375 117.97484375 -110.77734375 116.98484375 -110.77734375 115.96484375 C-109.78734375 115.63484375 -108.79734375 115.30484375 -107.77734375 114.96484375 C-108.10734375 113.64484375 -108.43734375 112.32484375 -108.77734375 110.96484375 C-111.910578 110.96484375 -113.45755159 113.01133456 -115.77734375 114.96484375 Z M-9.77734375 111.96484375 C-10.76734375 113.44984375 -10.76734375 113.44984375 -11.77734375 114.96484375 C-10.78734375 114.63484375 -9.79734375 114.30484375 -8.77734375 113.96484375 C-9.10734375 113.30484375 -9.43734375 112.64484375 -9.77734375 111.96484375 Z M-105.77734375 115.96484375 C-107.42734375 117.28484375 -109.07734375 118.60484375 -110.77734375 119.96484375 C-105.96147737 125.33817376 -101.21283354 128.69759509 -94.77734375 131.96484375 C-92.79734375 129.65484375 -90.81734375 127.34484375 -88.77734375 124.96484375 C-91.47920135 121.81577255 -91.47920135 121.81577255 -94.77734375 120.96484375 C-95.76734375 121.29484375 -96.75734375 121.62484375 -97.77734375 121.96484375 C-98.10734375 122.95484375 -98.43734375 123.94484375 -98.77734375 124.96484375 C-98.44734375 125.62484375 -98.11734375 126.28484375 -97.77734375 126.96484375 C-101.24234375 124.98484375 -101.24234375 124.98484375 -104.77734375 122.96484375 C-104.11734375 121.31484375 -103.45734375 119.66484375 -102.77734375 117.96484375 C-103.76734375 117.30484375 -104.75734375 116.64484375 -105.77734375 115.96484375 Z M-14.77734375 116.96484375 C-13.77734375 118.96484375 -13.77734375 118.96484375 -13.77734375 118.96484375 Z M-9.77734375 116.96484375 C-10.10734375 117.95484375 -10.43734375 118.94484375 -10.77734375 119.96484375 C-9.78734375 119.63484375 -8.79734375 119.30484375 -7.77734375 118.96484375 C-7.77734375 118.30484375 -7.77734375 117.64484375 -7.77734375 116.96484375 C-8.43734375 116.96484375 -9.09734375 116.96484375 -9.77734375 116.96484375 Z M-4.77734375 116.96484375 C-4.44734375 118.28484375 -4.11734375 119.60484375 -3.77734375 120.96484375 C-3.11734375 119.97484375 -2.45734375 118.98484375 -1.77734375 117.96484375 C-2.76734375 117.63484375 -3.75734375 117.30484375 -4.77734375 116.96484375 Z M-18.77734375 119.96484375 C-18.77734375 120.62484375 -18.77734375 121.28484375 -18.77734375 121.96484375 C-17.78734375 121.63484375 -16.79734375 121.30484375 -15.77734375 120.96484375 C-16.76734375 120.63484375 -17.75734375 120.30484375 -18.77734375 119.96484375 Z M-23.77734375 122.96484375 C-24.43734375 123.62484375 -25.09734375 124.28484375 -25.77734375 124.96484375 C-22.80734375 128.42984375 -22.80734375 128.42984375 -19.77734375 131.96484375 C-18.45734375 131.30484375 -17.13734375 130.64484375 -15.77734375 129.96484375 C-16.72851509 128.79233065 -17.68851384 127.6269736 -18.65234375 126.46484375 C-19.18601562 125.81515625 -19.7196875 125.16546875 -20.26953125 124.49609375 C-20.76710938 123.99078125 -21.2646875 123.48546875 -21.77734375 122.96484375 C-22.43734375 122.96484375 -23.09734375 122.96484375 -23.77734375 122.96484375 Z M-10.77734375 122.96484375 C-10.77734375 123.95484375 -10.77734375 124.94484375 -10.77734375 125.96484375 C-7.65536897 124.65588655 -7.65536897 124.65588655 -5.77734375 121.96484375 C-7.98816226 121.85943449 -7.98816226 121.85943449 -10.77734375 122.96484375 Z M-27.77734375 125.96484375 C-28.76734375 127.44984375 -28.76734375 127.44984375 -29.77734375 128.96484375 C-28.12734375 128.96484375 -26.47734375 128.96484375 -24.77734375 128.96484375 C-25.76734375 127.97484375 -26.75734375 126.98484375 -27.77734375 125.96484375 Z M-15.77734375 125.96484375 C-15.44734375 126.95484375 -15.11734375 127.94484375 -14.77734375 128.96484375 C-13.45734375 128.30484375 -12.13734375 127.64484375 -10.77734375 126.96484375 C-10.77734375 126.63484375 -10.77734375 126.30484375 -10.77734375 125.96484375 C-12.42734375 125.96484375 -14.07734375 125.96484375 -15.77734375 125.96484375 Z M-87.77734375 126.96484375 C-88.10734375 127.62484375 -88.43734375 128.28484375 -88.77734375 128.96484375 C-87.45734375 128.63484375 -86.13734375 128.30484375 -84.77734375 127.96484375 C-85.76734375 127.63484375 -86.75734375 127.30484375 -87.77734375 126.96484375 Z " fill="#FAFAF9" transform="translate(178.77734375,56.03515625)"/>
<path d="M0 0 C2.5539275 0.03456886 5.10441607 0.02049365 7.65844727 0.0012207 C24.09222305 0.01514529 38.35449046 3.95651133 53.35571289 10.59692383 C54.5068457 11.09836914 55.65797852 11.59981445 56.84399414 12.11645508 C76.17090064 21.11233115 92.59437735 35.90264792 104.35571289 53.59692383 C105.22583008 54.79768555 105.22583008 54.79768555 106.11352539 56.02270508 C123.73590067 81.42895464 128.32330355 115.86120018 123.51977539 145.94067383 C121.18372115 157.46278013 116.57594876 168.11850645 111.35571289 178.59692383 C110.63254883 180.11672852 110.63254883 180.11672852 109.89477539 181.66723633 C95.38840547 210.42842061 67.71853296 229.95382431 37.80126953 239.89404297 C6.36140948 249.92039591 -26.51206262 245.4379915 -55.55834961 230.65161133 C-80.74575487 217.19415482 -98.86070269 196.27509195 -110.64428711 170.59692383 C-111.13928711 169.55665039 -111.63428711 168.51637695 -112.14428711 167.44458008 C-115.21810211 160.62912717 -116.77863267 153.9725636 -118.06616211 146.65161133 C-118.48186454 143.69419563 -118.48186454 143.69419563 -119.64428711 141.59692383 C-119.78018668 138.95147467 -119.85709286 136.33384091 -119.88256836 133.68676758 C-119.89467598 132.48631554 -119.89467598 132.48631554 -119.9070282 131.26161194 C-119.92088788 129.55594044 -119.93160157 127.85024099 -119.93945312 126.14453125 C-119.95083133 124.43123015 -119.9710502 122.71796032 -120.00097656 121.00488281 C-120.26864816 105.66984217 -118.22443084 91.70964495 -112.39428711 77.40942383 C-112.09619141 76.66660156 -111.7980957 75.9237793 -111.4909668 75.15844727 C-99.37465767 45.83018499 -76.1884863 22.37960479 -47.20678711 9.65942383 C-46.43455811 9.31806396 -45.6623291 8.9767041 -44.86669922 8.625 C-30.22595477 2.58300023 -15.79982872 -0.23568217 0 0 Z M-37.64428711 11.59692383 C-38.87018555 12.00555664 -40.09608398 12.41418945 -41.35913086 12.83520508 C-56.2565537 18.22498773 -69.40662597 27.5114167 -80.64428711 38.59692383 C-81.23854492 39.1305957 -81.83280273 39.66426758 -82.44506836 40.21411133 C-92.89266645 49.86913301 -99.99931968 62.70416921 -105.64428711 75.59692383 C-105.96558594 76.33040039 -106.28688477 77.06387695 -106.61791992 77.81958008 C-119.55737612 108.14602416 -117.36543451 139.10680228 -105.57788086 169.33129883 C-104.67305277 171.46654168 -103.69227033 173.52853589 -102.64428711 175.59692383 C-102.23952148 176.42836914 -101.83475586 177.25981445 -101.41772461 178.11645508 C-98.59415215 183.62951974 -95.32535263 188.61795772 -91.58178711 193.53442383 C-91.17041504 194.07808594 -90.75904297 194.62174805 -90.33520508 195.18188477 C-87.74759138 198.48982581 -85.01703213 201.1019342 -81.64428711 203.59692383 C-77.33543258 200.23391541 -73.7883417 196.63610557 -70.25756836 192.46411133 C-68.64428711 190.59692383 -68.64428711 190.59692383 -66.93725586 189.16723633 C-65.13527614 186.97872924 -65.42142052 185.34561171 -65.64428711 182.59692383 C-63.84529748 183.8363615 -62.05532388 185.08889279 -60.26928711 186.34692383 C-59.27155273 187.04301758 -58.27381836 187.73911133 -57.24584961 188.45629883 C-54.80565385 190.46414759 -53.73209867 191.68735557 -52.64428711 194.59692383 C-55.61428711 195.58692383 -55.61428711 195.58692383 -58.64428711 196.59692383 C-59.13928711 194.12192383 -59.13928711 194.12192383 -59.64428711 191.59692383 C-61.60323072 191.70999079 -61.60323072 191.70999079 -63.64428711 192.59692383 C-64.94089145 195.08726769 -64.94089145 195.08726769 -65.64428711 197.59692383 C-65.00491211 198.03004883 -64.36553711 198.46317383 -63.70678711 198.90942383 C-61.64428711 200.59692383 -61.64428711 200.59692383 -60.64428711 203.59692383 C-61.55178711 203.28754883 -62.45928711 202.97817383 -63.39428711 202.65942383 C-64.46678711 202.30879883 -65.53928711 201.95817383 -66.64428711 201.59692383 C-67.32491211 201.28754883 -68.00553711 200.97817383 -68.70678711 200.65942383 C-69.34616211 200.63879883 -69.98553711 200.61817383 -70.64428711 200.59692383 C-72.35312716 202.22032188 -74.01875428 203.89011436 -75.64428711 205.59692383 C-77.80053711 206.26098633 -77.80053711 206.26098633 -79.64428711 206.59692383 C-74.9132515 211.65633466 -69.98722455 215.78895494 -64.20678711 219.59692383 C-63.42255371 220.11456299 -62.63832031 220.63220215 -61.83032227 221.16552734 C-35.86797436 237.87503041 -3.60559477 243.96344345 26.70336914 237.77270508 C58.72436122 230.23548829 85.36501218 211.50856347 102.83227539 183.74145508 C107.37184789 176.33868815 110.66590475 169.04919574 113.48071289 160.84692383 C113.72289551 160.14438477 113.96507812 159.4418457 114.21459961 158.71801758 C118.14051388 146.75435296 119.91755881 135.11927496 119.85571289 122.53442383 C119.85428284 121.86427246 119.85285278 121.19412109 119.85137939 120.50366211 C119.78771349 108.36901332 118.21625858 97.13269304 114.35571289 85.59692383 C114.12577637 84.90228027 113.89583984 84.20763672 113.65893555 83.49194336 C103.60189165 54.10373794 82.47488278 31.24363788 55.29321289 16.72192383 C25.22104502 2.80250934 -6.33026863 0.66371204 -37.64428711 11.59692383 Z " fill="#FAFAF9" transform="translate(119.644287109375,-0.596923828125)"/>
<path d="M0 0 C1.32 0.33 2.64 0.66 4 1 C4.12117188 1.63808594 4.24234375 2.27617188 4.3671875 2.93359375 C4.53476563 3.75988281 4.70234375 4.58617188 4.875 5.4375 C5.11863281 6.67306641 5.11863281 6.67306641 5.3671875 7.93359375 C5.68042969 8.95646484 5.68042969 8.95646484 6 10 C6.66 10.33 7.32 10.66 8 11 C8.33 10.34 8.66 9.68 9 9 C9.99 9 10.98 9 12 9 C12.17361227 14.99553771 12.30033477 20.98959922 12.38452148 26.98706055 C12.41962907 29.02508036 12.46732863 31.06292504 12.52807617 33.1003418 C12.61342619 36.03738656 12.65278417 38.97209364 12.68359375 41.91015625 C12.71972275 42.81459976 12.75585175 43.71904327 12.79307556 44.65089417 C12.795406 48.44314016 12.7686967 50.986759 10.42677307 54.07371521 C8.51367187 55.9375 8.51367187 55.9375 6.59533691 57.52172852 C4.70810076 59.01668218 4.70810076 59.01668218 4.09765625 62.08984375 C4.08605469 63.02957031 4.07445313 63.96929687 4.0625 64.9375 C4.03285156 65.89527344 4.00320312 66.85304688 3.97265625 67.83984375 C3.98619141 68.90912109 3.98619141 68.90912109 4 70 C2.68 70 1.36 70 0 70 C-0.03867188 68.62714844 -0.03867188 68.62714844 -0.078125 67.2265625 C-0.13484375 66.03804688 -0.1915625 64.84953125 -0.25 63.625 C-0.29640625 62.44164062 -0.3428125 61.25828125 -0.390625 60.0390625 C-0.59171875 59.03617188 -0.7928125 58.03328125 -1 57 C-2.82687129 55.690708 -2.82687129 55.690708 -5 55 C-6.97539113 53.42448365 -7.89647413 52.56108369 -8.36076355 50.04475403 C-8.35410172 49.30529037 -8.34743988 48.56582672 -8.34057617 47.80395508 C-8.34034958 46.96331009 -8.34012299 46.1226651 -8.33988953 45.25654602 C-8.32440567 44.35333115 -8.30892181 43.45011627 -8.29296875 42.51953125 C-8.28872391 41.59154221 -8.28447906 40.66355316 -8.28010559 39.70744324 C-8.26330662 36.74216757 -8.22565216 33.7775704 -8.1875 30.8125 C-8.17245474 28.80274419 -8.15876606 26.79297773 -8.14648438 24.78320312 C-8.11339908 19.85520714 -8.06160833 14.92771862 -8 10 C-6.68 10 -5.36 10 -4 10 C-3.67 10.33 -3.34 10.66 -3 11 C-1.06604999 8.09907498 -0.69868059 7.10325263 -0.375 3.8125 C-0.189375 1.9253125 -0.189375 1.9253125 0 0 Z M1 10 C-0.71815438 12.25167846 -0.71815438 12.25167846 -2 15 C-1.30859649 17.30287793 -1.30859649 17.30287793 0 19 C0.99 19 1.98 19 3 19 C4.70532323 17.05990478 4.70532323 17.05990478 6 15 C4.35 13.35 2.7 11.7 1 10 Z M-4 19 C-4.33380814 22.37436186 -4.33380814 22.37436186 -4 26 C-2.13875077 27.98239527 -2.13875077 27.98239527 0 29 C0.33380814 25.62563814 0.33380814 25.62563814 0 22 C-1.86124923 20.01760473 -1.86124923 20.01760473 -4 19 Z M4.9375 20.5625 C2.36143874 23.80335126 2.68984193 25.96794512 3 30 C5.64167228 28.47208796 5.64167228 28.47208796 8 26 C8.41771804 22.33200185 8.41771804 22.33200185 8 19 C6.70159366 18.89935705 6.70159366 18.89935705 4.9375 20.5625 Z M-4 30 C-4.28783441 33.70986572 -4.45251957 37.29998705 -4 41 C-1.7211176 43.74770272 -1.7211176 43.74770272 1 45 C0.93989582 43.06164034 0.85108283 41.12415509 0.75 39.1875 C0.70359375 38.10855469 0.6571875 37.02960938 0.609375 35.91796875 C0.27045978 32.88255768 0.27045978 32.88255768 -2.046875 31.11328125 C-2.69140625 30.74589844 -3.3359375 30.37851563 -4 30 Z M4.9375 31.875 C2.22696817 36.24682553 2.64949761 39.98586863 3 45 C5.7211176 43.74770272 5.7211176 43.74770272 8 41 C8.45251957 37.29998705 8.28783441 33.70986572 8 30 C6.6587587 29.88788787 6.6587587 29.88788787 4.9375 31.875 Z M-4 45 C-4.79356801 46.74671588 -4.79356801 46.74671588 -5 49 C-3.79031105 51.7667506 -3.79031105 51.7667506 -2 54 C-1.34 54 -0.68 54 0 54 C0.33397787 51.12586875 0.33397787 51.12586875 0 48 C-1.88077873 46.08743288 -1.88077873 46.08743288 -4 45 Z M4.9375 46.0625 C2.59531634 47.97994642 2.59531634 47.97994642 2.75 51.6875 C2.8325 52.780625 2.915 53.87375 3 55 C5.6273026 54.00864359 5.6273026 54.00864359 8 52 C8.41725678 48.37400578 8.41725678 48.37400578 8 45 C6.76148094 44.9236739 6.76148094 44.9236739 4.9375 46.0625 Z " fill="#FAFAF9" transform="translate(95,73)"/>
<path d="M0 0 C0.88365234 0.00451172 1.76730469 0.00902344 2.67773438 0.01367188 C4.84768559 0.02540134 7.01760172 0.04333505 9.1875 0.0625 C8.8575 2.0425 8.5275 4.0225 8.1875 6.0625 C5.2175 6.0625 2.2475 6.0625 -0.8125 6.0625 C-1.14667929 9.3949787 -1.14667929 9.3949787 -0.8125 13.0625 C-0.11125 13.64 0.59 14.2175 1.3125 14.8125 C3.1875 17.0625 3.1875 17.0625 3.25390625 19.609375 C2.30404963 27.01238124 2.30404963 27.01238124 -0.51953125 29.66796875 C-2.4375 30.75 -2.4375 30.75 -5.8125 32.0625 C-5.379375 32.52140625 -4.94625 32.9803125 -4.5 33.453125 C-3.943125 34.06671875 -3.38625 34.6803125 -2.8125 35.3125 C-2.255625 35.91578125 -1.69875 36.5190625 -1.125 37.140625 C0.1875 39.0625 0.1875 39.0625 0.1875 43.0625 C-1.2975 43.5575 -1.2975 43.5575 -2.8125 44.0625 C-5.1225 41.0925 -7.4325 38.1225 -9.8125 35.0625 C-10.51117188 35.495625 -11.20984375 35.92875 -11.9296875 36.375 C-12.83976562 36.931875 -13.74984375 37.48875 -14.6875 38.0625 C-15.59242187 38.619375 -16.49734375 39.17625 -17.4296875 39.75 C-19.8125 41.0625 -19.8125 41.0625 -21.8125 41.0625 C-22.125 37.75 -22.125 37.75 -21.8125 34.0625 C-19.41509082 32.10671883 -17.93663392 31.0625 -14.8125 31.0625 C-14.8125 30.4025 -14.8125 29.7425 -14.8125 29.0625 C-15.43125 28.794375 -16.05 28.52625 -16.6875 28.25 C-18.8125 27.0625 -18.8125 27.0625 -20.8125 24.0625 C-20.8125 22.7425 -20.8125 21.4225 -20.8125 20.0625 C-19.8225 19.7325 -18.8325 19.4025 -17.8125 19.0625 C-14.8125 23.8125 -14.8125 23.8125 -14.8125 26.0625 C-12.15043923 27.0240158 -12.15043923 27.0240158 -8.8125 27.0625 C-6.79363355 25.94230081 -5.10617321 24.66109926 -3.328125 23.19140625 C-1.8125 22.0625 -1.8125 22.0625 0.1875 22.0625 C-0.25980469 21.55460937 -0.70710938 21.04671875 -1.16796875 20.5234375 C-4.77536942 16.41607725 -8.33364925 12.27928879 -11.8125 8.0625 C-13.7925 8.7225 -15.7725 9.3825 -17.8125 10.0625 C-16.8225 7.0925 -15.8325 4.1225 -14.8125 1.0625 C-9.89747242 -0.22985715 -5.03959898 -0.04885517 0 0 Z M-7.8125 6.0625 C-6.8225 7.0525 -5.8325 8.0425 -4.8125 9.0625 C-4.4825 8.0725 -4.1525 7.0825 -3.8125 6.0625 C-5.1325 6.0625 -6.4525 6.0625 -7.8125 6.0625 Z " fill="#FAFAF9" transform="translate(29.8125,78.9375)"/>
<path d="M0 0 C4.02801098 1.89553458 6.69332656 5.5367407 9.6875 8.75 C11.99751995 10.88232611 13.06689832 11.66021092 16.125 12 C15.875 14.375 15.875 14.375 15.125 17 C13.145 17.99 13.145 17.99 11.125 19 C7.165 15.04 3.205 11.08 -0.875 7 C-1.205 7.33 -1.535 7.66 -1.875 8 C-1.39289062 8.66386719 -0.91078125 9.32773437 -0.4140625 10.01171875 C0.21757813 10.89472656 0.84921875 11.77773438 1.5 12.6875 C2.12648438 13.55761719 2.75296875 14.42773438 3.3984375 15.32421875 C6.34660412 19.89321 7.125 22.46277031 7.125 28 C-0.795 28 -8.715 28 -16.875 28 C-16.875 26.35 -16.875 24.7 -16.875 23 C-16.05 22.525625 -15.225 22.05125 -14.375 21.5625 C-13.1375 20.7890625 -13.1375 20.7890625 -11.875 20 C-11.89175781 19.09507813 -11.90851562 18.19015625 -11.92578125 17.2578125 C-11.86377985 13.28018403 -10.76557408 11.5829019 -8.5625 8.3125 C-7.94761719 7.38050781 -7.33273438 6.44851562 -6.69921875 5.48828125 C-2.67562794 0 -2.67562794 0 0 0 Z M-5.875 14 C-7.36 17.465 -7.36 17.465 -8.875 21 C-5.245 21 -1.615 21 2.125 21 C1.361875 19.845 0.59875 18.69 -0.1875 17.5 C-0.61675781 16.8503125 -1.04601562 16.200625 -1.48828125 15.53125 C-1.94589844 15.0259375 -2.40351562 14.520625 -2.875 14 C-3.865 14 -4.855 14 -5.875 14 Z " fill="#FAFAF9" transform="translate(34.875,49)"/>
<path d="M0 0 C2 1.5625 2 1.5625 3 3.5625 C3.58526655 8.35976677 3.46753949 11.70534428 1.125 16 C-2.56467662 20.44931592 -2.56467662 20.44931592 -6.125 21.375 C-10.7608653 21.59931606 -13.98984793 20.88369162 -18 18.5625 C-21.04038046 15.23708387 -21.5382715 12.04809655 -21.3515625 7.55859375 C-20.75399206 4.16572159 -19.24456842 2.11038848 -17 -0.4375 C-11.8420939 -3.82698115 -5.29324001 -2.53634417 0 0 Z M-12.625 3 C-14.65661316 6.78618816 -14.72384339 10.35466315 -14 14.5625 C-12.42182765 16.83179996 -12.42182765 16.83179996 -10 17.5625 C-7.87957244 17.7201585 -7.87957244 17.7201585 -6 16.5625 C-2.78679966 12.66075673 -2.70941564 9.5024341 -3 4.5625 C-7.87874478 1.39213508 -7.87874478 1.39213508 -12.625 3 Z " fill="#FAFAF9" transform="translate(105,210.4375)"/>
<path d="M0 0 C6.41095383 5.00367128 12.36234949 9.81174746 14 18 C8.39 18.66 2.78 19.32 -3 20 C-1.02 21.65 0.96 23.3 3 25 C2.875 28.3125 2.875 28.3125 2 31 C1.01 31 0.02 31 -1 31 C-1.94097968 29.58853049 -2.87569332 28.1722533 -3.76953125 26.73046875 C-6.61865245 22.72360941 -10.2146843 19.53179617 -14.9375 18.125 C-15.618125 18.08375 -16.29875 18.0425 -17 18 C-15.84826645 15.53199953 -14.95216435 13.95216435 -13 12 C-10.46359394 11.88074238 -8.03044704 11.85945818 -5.5 11.9375 C-0.60700418 12.26945 -0.60700418 12.26945 4 11 C2.25065102 8.91666921 2.25065102 8.91666921 0 7 C-1.32 7 -2.64 7 -4 7 C-4 5.68 -4 4.36 -4 3 C-2 1.25 -2 1.25 0 0 Z " fill="#FAFAF9" transform="translate(193,178)"/>
<path d="M0 0 C4.02206764 0.08743625 6.24054419 0.89330872 8.9921875 3.72265625 C9.96759334 4.82328311 10.92833902 5.93705386 11.875 7.0625 C12.37257812 7.63033203 12.87015625 8.19816406 13.3828125 8.78320312 C14.60145986 10.17761693 15.80254573 11.58734487 17 13 C17.33 10.03 17.66 7.06 18 4 C17.34 4 16.68 4 16 4 C16 3.01 16 2.02 16 1 C18.31 1.33 20.62 1.66 23 2 C22.86142159 5.12536637 22.71290431 8.25018217 22.5625 11.375 C22.52318359 12.26445312 22.48386719 13.15390625 22.44335938 14.0703125 C22.40146484 14.92109375 22.35957031 15.771875 22.31640625 16.6484375 C22.27974854 17.43395996 22.24309082 18.21948242 22.20532227 19.02880859 C22 21 22 21 21 23 C17.52224821 21.48446596 15.0442016 19.4226544 12.25 16.875 C11.05117187 15.78832031 11.05117187 15.78832031 9.828125 14.6796875 C9.22484375 14.12539063 8.6215625 13.57109375 8 13 C7.87625 14.27875 7.7525 15.5575 7.625 16.875 C7.25 20.75 7.25 20.75 5 23 C2.375 23.625 2.375 23.625 0 24 C0.0407666 23.44538086 0.0815332 22.89076172 0.12353516 22.31933594 C0.30235317 19.79689429 0.46383938 17.27362874 0.625 14.75 C0.68945312 13.87730469 0.75390625 13.00460938 0.8203125 12.10546875 C0.871875 11.26113281 0.9234375 10.41679687 0.9765625 9.546875 C1.02893066 8.77182617 1.08129883 7.99677734 1.13525391 7.19824219 C0.9810467 4.69195763 0.25581508 3.15160127 -1 1 C-0.67 0.67 -0.34 0.34 0 0 Z " fill="#FAFAF9" transform="translate(116,8)"/>
<path d="M0 0 C4.51045514 1.9929918 6.79811246 4.59622492 9 9 C9.19549456 12.64923185 8.92022534 14.82063074 6.640625 17.7421875 C3.70162521 20.55985243 0.96452124 22.35057284 -3.0625 23.125 C-7.74532609 22.97633885 -9.51590366 22.07896885 -13 19 C-15.1633006 16.25981924 -15.92352448 14.51347849 -16.4375 11.0625 C-15.73603123 6.15221858 -13.4388699 3.20553964 -9.6875 0.0625 C-6.0317752 -1.38278655 -3.78455577 -0.94613894 0 0 Z M-10 9 C-11.3322781 11.84219328 -11.08994312 12.73616686 -10.0625 15.75 C-9.711875 16.4925 -9.36125 17.235 -9 18 C-4.7871468 17.75218511 -2.44740273 17.32623116 1 14.8125 C3.31920716 12.14204613 3.31920716 12.14204613 2.9375 8.8125 C2.20031442 5.90217203 2.20031442 5.90217203 0 4 C-5.00601742 3.05291562 -6.92713748 5.24427915 -10 9 Z " fill="#FAFAF9" transform="translate(43,172)"/>
<path d="M0 0 C2.31 0.33 4.62 0.66 7 1 C7.33 5.95 7.66 10.9 8 16 C10.31 16.66 12.62 17.32 15 18 C15 12.72 15 7.44 15 2 C18.465 1.505 18.465 1.505 22 1 C21.9193749 4.45930693 21.80651536 7.91681775 21.6875 11.375 C21.66494141 12.35984375 21.64238281 13.3446875 21.61914062 14.359375 C21.58369141 15.30039063 21.54824219 16.24140625 21.51171875 17.2109375 C21.48553467 18.08024902 21.45935059 18.94956055 21.43237305 19.84521484 C21 22 21 22 18 24 C17.01 24 16.02 24 15 24 C15 23.34 15 22.68 15 22 C14.34 22.33 13.68 22.66 13 23 C9.33151208 23.41687363 7.24183477 23.10831557 3.8515625 21.58984375 C0.75504821 18.77753008 0.56214489 18.36482809 0.1953125 14.453125 C0.14237432 12.71939967 0.11987585 10.98452579 0.125 9.25 C0.104375 8.36183594 0.08375 7.47367188 0.0625 6.55859375 C0.01546482 4.37145806 -0.0044488 2.18753732 0 0 Z " fill="#FAFAF9" transform="translate(108,211)"/>
<path d="M0 0 C3.1875 0.3125 3.1875 0.3125 6 1 C8 6.625 8 6.625 8 10 C12.455 11.98 12.455 11.98 17 14 C16.67 15.32 16.34 16.64 16 18 C11.17639811 18.19294408 7.50353262 17.75747614 3 16 C3.7734375 16.86625 3.7734375 16.86625 4.5625 17.75 C6 20 6 20 5.6875 22.25 C5.460625 22.8275 5.23375 23.405 5 24 C3.68 24.33 2.36 24.66 1 25 C0.03874097 23.58531689 -0.91888325 22.1681636 -1.875 20.75 C-2.40867187 19.96109375 -2.94234375 19.1721875 -3.4921875 18.359375 C-5 16 -5 16 -6.03125 13.75 C-6.3509375 13.1725 -6.670625 12.595 -7 12 C-9.55519921 11.18828772 -9.55519921 11.18828772 -12 11 C-11.4375 8.6875 -11.4375 8.6875 -10 6 C-6.5625 4.375 -6.5625 4.375 -3 3 C-2.484375 2.4225 -1.96875 1.845 -1.4375 1.25 C-0.7259375 0.63125 -0.7259375 0.63125 0 0 Z M0 5 C-0.66 6.32 -1.32 7.64 -2 9 C-1.01 10.485 -1.01 10.485 0 12 C0.99 11.67 1.98 11.34 3 11 C3 9.35 3 7.7 3 6 C2.01 5.67 1.02 5.34 0 5 Z " fill="#FAFAF9" transform="translate(64,23)"/>
<path d="M0 0 C2.375 0.6875 2.375 0.6875 5 2 C5.68753301 3.65816784 6.35561283 5.32459336 7 7 C8.97080157 7.74276031 8.97080157 7.74276031 11 8 C13 10 13 10 13.375 12.375 C13 15 13 15 11.25 17.3125 C9 19 9 19 5 19 C4.01 22.3 3.02 25.6 2 29 C0.68 28.67 -0.64 28.34 -2 28 C-2.63394697 23.95858806 -3.12404452 20.0934693 -3 16 C-4.32 17.32 -5.64 18.64 -7 20 C-9.475 19.01 -9.475 19.01 -12 18 C-12 15 -12 15 -10.35546875 13.28125 C-9.64003906 12.6934375 -8.92460937 12.105625 -8.1875 11.5 C-2.27854264 6.86940386 -2.27854264 6.86940386 0 0 Z M4 9 C2.35 10.65 0.7 12.3 -1 14 C1.31 14.33 3.62 14.66 6 15 C6.66 13.68 7.32 12.36 8 11 C6.68 10.34 5.36 9.68 4 9 Z " fill="#FAFAF9" transform="translate(193,35)"/>
<path d="M0 0 C0.33 1.98 0.66 3.96 1 6 C-0.11375 5.95875 -1.2275 5.9175 -2.375 5.875 C-6.04366025 5.58878141 -6.04366025 5.58878141 -8 8 C-7.31292969 7.90460938 -6.62585938 7.80921875 -5.91796875 7.7109375 C-5.01691406 7.60007813 -4.11585938 7.48921875 -3.1875 7.375 C-2.29417969 7.25898438 -1.40085938 7.14296875 -0.48046875 7.0234375 C2 7 2 7 5 9 C6.27241937 13.4110538 6.38504392 15.28302167 4.1875 19.375 C2 22 2 22 0 23 C-1.99960012 23.039992 -4.00047242 23.04346799 -6 23 C-6 23.66 -6 24.32 -6 25 C-6.99 25 -7.98 25 -9 25 C-10.76462683 21.91190305 -11 20.76687864 -11 17 C-7.04 17 -3.08 17 1 17 C0.67 16.34 0.34 15.68 0 15 C-0.84304687 15.03480469 -1.68609375 15.06960937 -2.5546875 15.10546875 C-3.65039062 15.13253906 -4.74609375 15.15960938 -5.875 15.1875 C-7.51082031 15.23970703 -7.51082031 15.23970703 -9.1796875 15.29296875 C-10.11039063 15.19628906 -11.04109375 15.09960938 -12 15 C-14.34549674 11.48175489 -14.57991403 10.14224306 -14 6 C-10.28264575 1.32675466 -6.07022247 -2.24823055 0 0 Z " fill="#FAFAF9" transform="translate(155,207)"/>
<path d="M0 0 C0.33923576 2.35344806 0.67150534 4.7075484 1 7.0625 C1.09539062 7.71927734 1.19078125 8.37605469 1.2890625 9.05273438 C1.88887674 13.40138763 2.09127093 17.61329071 2 22 C0.125 23.0625 0.125 23.0625 -2 24 C-2.66 23.67 -3.32 23.34 -4 23 C-4.66 23.33 -5.32 23.66 -6 24 C-14.12244898 24.45124717 -14.12244898 24.45124717 -17 22 C-19.36143469 15.96522247 -20.01543824 9.37870331 -21 3 C-19.0085944 2.61866701 -17.00720923 2.28674418 -15 2 C-13.04848373 3.95151627 -13.29031251 7.45168745 -12.9375 10.0625 C-12.76089844 11.35285156 -12.58429688 12.64320312 -12.40234375 13.97265625 C-12.26957031 14.97167969 -12.13679688 15.97070312 -12 17 C-9.36 17.66 -6.72 18.32 -4 19 C-4.17917969 17.87980469 -4.35835937 16.75960938 -4.54296875 15.60546875 C-4.75868942 14.1329407 -4.97348512 12.66027693 -5.1875 11.1875 C-5.36829102 10.08051758 -5.36829102 10.08051758 -5.55273438 8.95117188 C-6.31668638 3.50493339 -6.31668638 3.50493339 -4.73828125 0.98828125 C-3 0 -3 0 0 0 Z " fill="#FAFAF9" transform="translate(112,9)"/>
<path d="M0 0 C2.89696854 0.36982577 5.37621929 0.68810965 8 2 C7.42415568 4.38564077 6.77772405 6.66682784 6 9 C8.31 9 10.62 9 13 9 C13.25 14.625 13.25 14.625 11 18 C8.61435923 17.42415568 6.33317216 16.77772405 4 16 C4 18.31 4 20.62 4 23 C-2.75 22.125 -2.75 22.125 -5 21 C-4.47731534 18.23723823 -3.89130413 15.6739124 -3 13 C-4.98 13 -6.96 13 -9 13 C-10 10 -10 10 -8.5625 6.8125 C-8.046875 5.884375 -7.53125 4.95625 -7 4 C-6.34 4 -5.68 4 -5 4 C-5 4.66 -5 5.32 -5 6 C-3.68 6.33 -2.36 6.66 -1 7 C-1.020625 6.030625 -1.04125 5.06125 -1.0625 4.0625 C-1 1 -1 1 0 0 Z " fill="#FAFAF9" transform="translate(218,136)"/>
<path d="M0 0 C0.66 0 1.32 0 2 0 C3.22067868 1.50978679 4.43827273 3.02383667 5.5859375 4.58984375 C8.50063323 7.49648783 12.45839169 7.18417465 16.375 7.25 C20.99021227 7.20077107 24.12803019 6.71037887 28 4 C29.04115841 2.69855198 30.05377841 1.37202131 31 0 C31.66 0 32.32 0 33 0 C34.62379577 4.87138732 34.7201099 8.53097579 32.4375 13.1875 C28.30065907 17.96077799 23.19614679 20.74932182 16.8125 21.25 C10.60473747 20.8429336 5.93863905 19.37630219 1.5 14.875 C-1.31235401 11.30049044 -1.56150971 8.37082249 -1.30859375 3.91796875 C-1 2 -1 2 0 0 Z M30 6 C29.38125 6.45375 28.7625 6.9075 28.125 7.375 C21.93333505 10.59466577 16.32478532 11.71420832 9.5625 9.6875 C8.03428087 9.14538695 6.51215148 8.58543846 5 8 C4.01 7.67 3.02 7.34 2 7 C2.29820833 10.57849992 2.74245358 11.76226484 5.4375 14.25 C10.94572152 18.01171226 16.47149986 17.57907717 23 17 C26.41499065 15.78620038 28.35507642 13.92532513 30.4375 10.9375 C31.25327754 8.8128481 31.25327754 8.8128481 30 6 Z " fill="#FAFAF9" transform="translate(82,140)"/>
<path d="M0 0 C2.16199302 1.1970614 4.01529227 2.5114692 6 4 C5.45032426 7.84773017 3.67967752 9.32032248 1 12 C1 12.99 1 13.98 1 15 C-3.3890815 14.48964169 -6.33708062 13.47785723 -10 11 C-8.07608351 16.31411494 -8.07608351 16.31411494 -4 20 C-4.33 20.99 -4.66 21.98 -5 23 C-9.47276077 22.21068928 -12.09219104 21.45907412 -14.9375 17.8125 C-17.26312151 14.0604973 -17.85497681 11.43033436 -17 7 C-12.52355864 -0.8197835 -8.85068443 -3.18357952 0 0 Z M-7 2 C-7.66 3.32 -8.32 4.64 -9 6 C-7.90554162 6.86657116 -6.79902219 7.71792724 -5.6875 8.5625 C-5.07261719 9.03816406 -4.45773438 9.51382813 -3.82421875 10.00390625 C-2.92123047 10.49697266 -2.92123047 10.49697266 -2 11 C-1.01 10.67 -0.02 10.34 1 10 C-0.0197307 6.22699642 -0.65872662 5.19793856 -4.125 3.1875 C-5.07375 2.795625 -6.0225 2.40375 -7 2 Z " fill="#FAFAF9" transform="translate(185,27)"/>
<path d="M0 0 C4.28099228 1.98760356 6.45433797 4.39227073 8.5 8.625 C8.5 9.615 8.5 10.605 8.5 11.625 C7.076875 12.24375 7.076875 12.24375 5.625 12.875 C2.30862971 14.73216736 1.97225043 15.3650169 0.5 18.625 C-2.10407102 20.72828813 -4.28182912 20.74525094 -7.5 20.5 C-10.2664148 20.04750093 -11.50713608 19.62011742 -13.875 18 C-15.92007881 15.01103866 -16.69022879 12.1340086 -17.5 8.625 C-13.875 5.625 -13.875 5.625 -10.5 5.625 C-9.84 8.925 -9.18 12.225 -8.5 15.625 C-7.84 15.625 -7.18 15.625 -6.5 15.625 C-6.93525222 13.01348668 -7.35031798 10.89941704 -8.625 8.5625 C-9.5 6.625 -9.5 6.625 -9.4375 4.5625 C-7.37263464 0.2951116 -4.51227001 -0.4834575 0 0 Z M-1.5 4.625 C-2.16 5.945 -2.82 7.265 -3.5 8.625 C-1.52 11.595 -1.52 11.595 0.5 14.625 C2.86692966 11.77673402 2.86692966 11.77673402 2.125 8.4375 C1.91875 7.509375 1.7125 6.58125 1.5 5.625 C0.51 5.295 -0.48 4.965 -1.5 4.625 Z " fill="#FAFAF9" transform="translate(212.5,56.375)"/>
<path d="M0 0 C7.68490153 5.0940919 7.68490153 5.0940919 9 8.875 C9 9.57625 9 10.2775 9 11 C7.47005208 12.23697917 5.94010417 13.47395833 4.41015625 14.7109375 C2.86733563 15.9666391 2.86733563 15.9666391 2 18 C5.3 17.34 8.6 16.68 12 16 C12.33 15.01 12.66 14.02 13 13 C13.66 13 14.32 13 15 13 C15.5 15.6875 15.5 15.6875 15 19 C12.10479872 22.05733255 8.83207762 23.79677285 4.640625 24.26171875 C0.41740719 24.01371099 -1.59201412 23.32986093 -4.9375 20.625 C-9.03490401 15.41012216 -9.03490401 15.41012216 -8.75 12.0625 C-7.26791366 6.01064745 -4.8244733 3.77567476 0 0 Z M-5 12 C-4.01 13.485 -4.01 13.485 -3 15 C1.20626034 13.49776416 2.73900021 10.71449966 5 7 C-0.0750462 6.2749934 -1.75747727 8.29425974 -5 12 Z " fill="#FAFAF9" transform="translate(48,34)"/>
<path d="M0 0 C2.875 0.25 2.875 0.25 6 1 C7 3 7 3 8 5 C8.86625 5.12375 9.7325 5.2475 10.625 5.375 C15.39649775 6.2586107 18.3269713 8.95157262 22 12 C16.82633036 17.65870117 10.61101257 22.30866387 3 24 C1.32499754 23.71145943 -0.34427654 23.38401653 -2 23 C-1.855625 21.75863281 -1.71125 20.51726563 -1.5625 19.23828125 C-1.37485311 17.59637095 -1.18736126 15.95444292 -1 14.3125 C-0.90460938 13.49587891 -0.80921875 12.67925781 -0.7109375 11.83789062 C-0.26129478 7.87139948 0.13034543 3.99997537 0 0 Z M6 6 C5.67 10.29 5.34 14.58 5 19 C9.94366102 17.02253559 11.07854402 16.11167879 14 12 C11.94766315 9.7522025 10.99332739 8.9977758 8 8 C7.34 7.34 6.68 6.68 6 6 Z " fill="#FAFAF9" transform="translate(153,12)"/>
<path d="M0 0 C1.04449911 3.13349732 0.93423645 3.98968256 0 7 C0.763125 6.67 1.52625 6.34 2.3125 6 C5 5 5 5 8 5 C8.33 7.64 8.66 10.28 9 13 C7.02 13 5.04 13 3 13 C3.33 13.598125 3.66 14.19625 4 14.8125 C5 17 5 17 5 20 C1.62902617 21.49821059 -0.20442119 22 -4 22 C-4 19.69 -4 17.38 -4 15 C-4.78375 15.495 -5.5675 15.99 -6.375 16.5 C-9 18 -9 18 -11 18 C-11.36122881 16.68942607 -11.71380311 15.37646376 -12.0625 14.0625 C-12.35833984 12.96615234 -12.35833984 12.96615234 -12.66015625 11.84765625 C-12.77230469 11.23792969 -12.88445313 10.62820312 -13 10 C-12 9 -12 9 -8.9375 8.9375 C-7.4834375 8.9684375 -7.4834375 8.9684375 -6 9 C-6.5259375 8.13375 -6.5259375 8.13375 -7.0625 7.25 C-8 5 -8 5 -7.8125 2.8125 C-7.544375 2.214375 -7.27625 1.61625 -7 1 C-4 0 -4 0 0 0 Z " fill="#FAFAF9" transform="translate(26,138)"/>
<path d="M0 0 C2.89410945 1.39628088 5.53626851 2.98161185 8.234375 4.7265625 C9.16378906 5.32339844 10.09320313 5.92023438 11.05078125 6.53515625 C13.31933323 8.05315899 15.50919442 9.62507062 17.671875 11.2890625 C17.341875 12.6090625 17.011875 13.9290625 16.671875 15.2890625 C14.921875 15.9765625 14.921875 15.9765625 12.671875 16.2890625 C11.7128125 15.5465625 11.7128125 15.5465625 10.734375 14.7890625 C8.72114659 12.96975702 8.72114659 12.96975702 5.921875 13.6015625 C4.808125 13.941875 4.808125 13.941875 3.671875 14.2890625 C3.671875 17.2590625 3.671875 20.2290625 3.671875 23.2890625 C2.01572843 23.67125017 0.34730476 24.00301352 -1.328125 24.2890625 C-2.84233501 22.77485249 -2.54122356 21.36433482 -2.64453125 19.25390625 C-2.68642578 18.44501953 -2.72832031 17.63613281 -2.77148438 16.80273438 C-2.81080078 15.95259766 -2.85011719 15.10246094 -2.890625 14.2265625 C-2.93380859 13.37255859 -2.97699219 12.51855469 -3.02148438 11.63867188 C-3.12789202 9.52234213 -3.22854231 7.40572437 -3.328125 5.2890625 C-4.648125 5.2890625 -5.968125 5.2890625 -7.328125 5.2890625 C-7.328125 4.2990625 -7.328125 3.3090625 -7.328125 2.2890625 C-3.33598836 -1.01870786 -3.33598836 -1.01870786 0 0 Z M0.671875 7.2890625 C1.001875 8.2790625 1.331875 9.2690625 1.671875 10.2890625 C2.331875 10.2890625 2.991875 10.2890625 3.671875 10.2890625 C3.341875 9.2990625 3.011875 8.3090625 2.671875 7.2890625 C2.011875 7.2890625 1.351875 7.2890625 0.671875 7.2890625 Z " fill="#FAFAF9" transform="translate(173.328125,196.7109375)"/>
<path d="M0 0 C3.45913666 0.47348214 6.91714589 0.95474764 10.375 1.4375 C11.35984375 1.57220703 12.3446875 1.70691406 13.359375 1.84570312 C14.30039063 1.97783203 15.24140625 2.10996094 16.2109375 2.24609375 C17.51490479 2.42676392 17.51490479 2.42676392 18.84521484 2.61108398 C21 3 21 3 23 4 C22.67 5.65 22.34 7.3 22 9 C18.7 8.67 15.4 8.34 12 8 C11.23477199 11.35458155 11.23477199 11.35458155 11 15 C12.43750191 16.68798827 12.43750191 16.68798827 14 18 C13.6875 20.1875 13.6875 20.1875 13 22 C11.68 22 10.36 22 9 22 C5.04 15.07 5.04 15.07 1 8 C0.01 8 -0.98 8 -2 8 C-2.66 8 -3.32 8 -4 8 C-3.39676766 4.62189888 -2.09807945 2.67744188 0 0 Z M6 7 C6.33 7.99 6.66 8.98 7 10 C7.66 9.01 8.32 8.02 9 7 C8.01 7 7.02 7 6 7 Z " fill="#FAFAF9" transform="translate(198,170)"/>
<path d="M0 0 C2.31 0 4.62 0 7 0 C8.53723694 3.98052743 7.46987962 7.55844612 6.5625 11.5625 C5.39597659 16.72892065 5.39597659 16.72892065 5 22 C2.69 22 0.38 22 -2 22 C-3.21810267 18.34569199 -2.60747468 16.90973356 -1.5625 13.25 C-0.3267824 8.62167588 0.324884 4.76496533 0 0 Z " fill="#FAFAF9" transform="translate(143,11)"/>
<path d="M0 0 C0.40992188 1.05960938 0.81984375 2.11921875 1.2421875 3.2109375 C1.78618379 4.59906596 2.33046971 5.98708093 2.875 7.375 C3.14441406 8.07367188 3.41382813 8.77234375 3.69140625 9.4921875 C5.29154804 13.58897254 5.29154804 13.58897254 8 17 C7.625 19.125 7.625 19.125 7 21 C5.02 21.33 3.04 21.66 1 22 C0.59007812 20.78441406 0.18015625 19.56882813 -0.2421875 18.31640625 C-0.78607235 16.73163831 -1.33036426 15.14701003 -1.875 13.5625 C-2.14441406 12.76005859 -2.41382813 11.95761719 -2.69140625 11.13085938 C-2.95566406 10.36708984 -3.21992188 9.60332031 -3.4921875 8.81640625 C-3.73308105 8.10943604 -3.97397461 7.40246582 -4.22216797 6.67407227 C-4.88185759 4.79961195 -4.88185759 4.79961195 -7 4 C-6.67 3.01 -6.34 2.02 -6 1 C-4 0 -4 0 0 0 Z " fill="#FAFAF9" transform="translate(163,203)"/>
<path d="M0 0 C0.99 0 1.98 0 3 0 C4.25193845 2.06201627 4.99606789 3.51045275 5.015625 5.9453125 C3.35405021 9.30680611 0.03499706 9.94132003 -3.3125 11.125 C-9.27357524 13.29027657 -9.27357524 13.29027657 -15 16 C-17 13 -17 13 -17.05859375 11.015625 C-15.36626562 7.79333233 -12.29618435 7.00629759 -9.0625 5.75 C-8.41603516 5.481875 -7.76957031 5.21375 -7.10351562 4.9375 C-2.34378986 3 -2.34378986 3 0 3 C0 2.01 0 1.02 0 0 Z " fill="#FAFAF9" transform="translate(221,71)"/>
<path d="M0 0 C2.17144892 3.05896211 2.22862797 6.38343774 2.55859375 10.01953125 C3.08317335 15.59640656 3.08317335 15.59640656 4.43359375 21.01953125 C2.12359375 21.67953125 -0.18640625 22.33953125 -2.56640625 23.01953125 C-4.21620695 19.71992984 -3.94898986 16.02825241 -4.12890625 12.39453125 C-4.19368164 11.19183594 -4.19368164 11.19183594 -4.25976562 9.96484375 C-4.36592082 7.98328015 -4.4666748 6.00142854 -4.56640625 4.01953125 C-5.22640625 4.01953125 -5.88640625 4.01953125 -6.56640625 4.01953125 C-6.23640625 2.69953125 -5.90640625 1.37953125 -5.56640625 0.01953125 C-2.08094859 -1.3025389 -2.08094859 -1.3025389 0 0 Z " fill="#FAFAF9" transform="translate(138.56640625,210.98046875)"/>
<path d="" fill="#FAFAF9" transform="translate(0,0)"/>
</svg>
