<?xml version="1.0" standalone="no"?>
<!DOCTYPE svg PUBLIC "-//W3C//DTD SVG 20010904//EN"
 "http://www.w3.org/TR/2001/REC-SVG-20010904/DTD/svg10.dtd">
<svg version="1.0" xmlns="http://www.w3.org/2000/svg"
 width="700.000000pt" height="700.000000pt" viewBox="0 0 700.000000 700.000000"
 preserveAspectRatio="xMidYMid meet">
<metadata>
Created by potrace 1.14, written by Peter Selinger 2001-2017
</metadata>
<g transform="translate(0.000000,700.000000) scale(0.100000,-0.100000)"
fill="#000000" stroke="none">
<path d="M985 6251 c-286 -6 -291 -6 -340 -31 -57 -30 -107 -95 -129 -170 -32
-106 -88 -368 -106 -493 -24 -162 -26 -388 -5 -513 37 -215 124 -412 331 -744
281 -453 344 -629 331 -933 -11 -254 -68 -438 -285 -922 -49 -110 -102 -238
-117 -285 -33 -105 -42 -232 -26 -355 26 -189 57 -206 296 -158 108 22 311 21
440 -2 134 -23 293 -70 516 -150 528 -193 731 -251 960 -275 197 -21 337 17
379 105 22 45 26 86 10 114 -11 21 -43 35 -285 127 -198 74 -227 89 -223 113
5 25 65 40 164 40 110 1 215 -24 315 -74 166 -83 226 -143 403 -398 97 -140
159 -212 229 -264 128 -95 259 -135 373 -114 33 6 112 37 177 68 188 89 219
86 372 -43 93 -78 145 -104 225 -111 67 -6 118 8 162 45 58 49 71 118 43 222
-27 101 -18 148 35 175 69 36 164 12 320 -81 193 -114 393 -205 605 -274 203
-66 333 -66 424 1 50 36 71 75 71 132 0 58 -25 82 -127 127 -285 126 -579 270
-597 293 -41 55 -10 94 218 271 173 136 223 181 246 225 20 38 17 123 -4 155
-42 66 -189 91 -278 48 -24 -12 -81 -53 -126 -92 -125 -105 -157 -105 -235 0
-88 119 -98 130 -137 156 -65 43 -126 43 -276 -2 -193 -56 -301 -51 -380 19
-47 41 -74 96 -74 153 0 39 5 51 34 80 29 29 41 34 83 34 73 0 129 -20 271
-98 163 -91 233 -114 337 -115 63 0 90 4 128 23 58 27 119 95 135 148 30 99 6
182 -97 339 -95 147 -115 193 -115 273 0 78 24 138 84 209 46 55 72 124 59
159 -7 18 -17 22 -51 24 -24 1 -534 2 -1134 2 -945 1 -1093 3 -1109 16 -15 13
-17 26 -11 120 26 398 100 610 409 1168 265 476 261 464 203 638 -78 238 -110
373 -110 469 0 98 23 182 69 256 31 48 31 73 2 103 -22 22 -33 24 -198 30
-606 24 -2079 32 -2884 17z m835 -721 l0 -390 450 0 450 0 0 390 0 390 160 0
160 0 0 -935 0 -935 -160 0 -160 0 0 390 0 390 -450 0 -450 0 0 -390 0 -390
-165 0 -165 0 0 928 c0 511 3 932 7 935 3 4 78 7 165 7 l158 0 0 -390z m759
-1699 c99 -25 225 -82 322 -146 38 -26 69 -48 69 -50 0 -3 -38 -58 -85 -124
l-86 -119 -52 35 c-150 101 -287 147 -437 148 -99 0 -109 -2 -171 -32 -78 -39
-119 -89 -126 -157 -8 -66 4 -112 39 -152 55 -63 143 -98 448 -179 337 -89
494 -225 519 -449 40 -350 -192 -589 -594 -613 -184 -11 -374 30 -550 117 -87
43 -255 155 -255 170 0 3 30 42 68 86 37 44 79 94 94 112 l27 32 69 -53 c155
-119 313 -177 487 -180 215 -3 339 83 338 233 -2 136 -87 195 -399 274 -76 19
-170 46 -209 59 -236 81 -362 200 -394 372 -57 309 116 556 443 631 89 20 325
12 435 -15z"/>
</g>
</svg>
