<?xml version="1.0" encoding="UTF-8"?><svg id="a" xmlns="http://www.w3.org/2000/svg" viewBox="0 0 100 100"><defs><style>.b,.c{fill:#54565b;}.c{fill-rule:evenodd;}</style></defs><path class="b" d="m18.644,26.554c4.237,1.412,8.192,3.39,11.864,5.65.282-4.52,1.13-9.322,2.825-13.559-3.39-1.977-7.062-3.39-10.734-4.52-1.695,3.955-2.825,8.192-3.955,12.429Zm33.616,47.175c-.282,4.52-1.412,9.322-3.107,13.559,3.39,1.977,7.062,3.39,10.734,4.52,1.977-3.955,3.39-8.192,3.955-12.429-3.955-1.695-7.91-3.39-11.582-5.65Z"/><path class="c" d="m22.599,14.124c2.26-5.085,5.085-9.887,8.757-14.124H0v12.429c7.627-1.13,15.537-.565,22.599,1.695Zm-3.955,12.429c-5.932-1.977-12.429-2.542-18.644-1.695v75.141h41.243c3.39-3.955,5.932-8.192,7.91-12.712-5.085-2.825-9.887-6.215-14.124-10.452-13.277-12.994-19.492-31.921-16.384-50.282Zm11.864,5.65c-.565,13.277,4.52,25.989,14.124,35.028,2.26,2.26,4.802,4.52,7.627,6.497.565-13.277-4.52-25.989-14.124-35.028-2.26-2.542-4.802-4.52-7.627-6.497ZM47.458,0l-3.955,3.39c-4.237,4.52-7.91,9.605-10.169,15.254,5.367,2.825,9.887,6.497,14.124,10.734,13.559,12.712,19.774,31.638,16.384,50,12.147,3.955,25.424,2.26,36.158-4.52V0h-52.542Zm12.429,91.808c-1.13,2.825-2.542,5.65-4.237,8.192h44.35v-11.864c-12.429,6.215-26.554,7.345-40.113,3.672Z"/></svg>