<?xml version="1.0" encoding="UTF-8"?><svg id="b" xmlns="http://www.w3.org/2000/svg" viewBox="0 0 79.009 84.277"><defs><style>.e{stroke-linecap:round;}.e,.f,.g{fill:none;stroke-miterlimit:10;stroke-width:3.512px;}.e,.g{stroke:#fff;}.f{stroke:#70c6ce;}.h{fill:#041e41;stroke-width:0px;}</style></defs><g id="c"><g id="d"><path class="g" d="M42.138,82.521H5.267c-1.939,0-3.512-1.572-3.512-3.512V14.046c0-1.939,1.572-3.512,3.512-3.512h7.023"/><path class="g" d="M54.429,10.535h7.023c1.939,0,3.512,1.572,3.512,3.512v24.581"/><polyline class="f" points="36.871 75.498 8.779 75.498 8.779 17.558 12.29 17.558"/><polyline class="f" points="54.429 17.558 57.94 17.558 57.94 38.627"/><path class="g" d="M45.65,8.779h-5.267c0-3.879-3.144-7.023-7.023-7.023s-7.023,3.144-7.023,7.023h-5.267c-2.909,0-5.267,2.358-5.267,5.267v5.267h35.115v-5.267c0-2.909-2.358-5.267-5.267-5.267Z"/><line class="g" x1="33.359" y1="7.023" x2="33.359" y2="10.535"/><circle class="g" cx="57.94" cy="63.207" r="19.313"/><polyline class="e" points="19.313 33.359 22.825 36.871 29.848 28.092"/><polyline class="e" points="19.313 47.406 22.825 50.917 29.848 42.138"/><polyline class="e" points="19.313 61.452 22.825 64.963 29.848 56.184"/><polygon class="h" points="61.452 59.696 61.452 52.673 54.429 52.673 54.429 59.696 47.406 59.696 47.406 66.719 54.429 66.719 54.429 73.742 61.452 73.742 61.452 66.719 68.475 66.719 68.475 59.696 61.452 59.696"/></g></g></svg>