<?xml version="1.0" encoding="UTF-8"?><svg id="b" xmlns="http://www.w3.org/2000/svg" viewBox="0 0 83.505 82.247"><defs><style>.e{stroke:#70c6ce;}.e,.f,.g{fill:none;stroke-linecap:round;stroke-linejoin:round;}.f{stroke:#fff;}.f,.g{stroke-width:2.555px;}.g{stroke:#041e41;}.h{fill:#70c6ce;}.h,.i{stroke-width:0px;}.i{fill:#fff;}</style></defs><g id="c"><g id="d"><path class="h" d="M33.15,8.664c-.807,0-1.475.669-1.475,1.475v2.719c0,.806.668,1.428,1.475,1.428h6.913c.806,0,1.428-.623,1.428-1.428v-2.719c0-.806-.623-1.475-1.428-1.475h-6.913ZM29.047,17.006c-2.831,0-5.116,2.238-5.116,5.069v11.753c0,2.831,2.285,5.07,5.116,5.07h15.071c2.831,0,5.116-2.239,5.116-5.07v-11.753c0-2.831-2.285-5.069-5.116-5.069h-15.071ZM28.495,20.048h15.854c.816,0,1.475.657,1.475,1.475v.646c0,.816-.658,1.475-1.475,1.475h-15.854c-.817,0-1.475-.658-1.475-1.475v-.646c0-.817.657-1.475,1.475-1.475ZM16.097,24.426c-7.693,0-13.918,6.23-13.918,13.918v4.747c-.029.93.425,1.253,1.153,1.245h7.236c.642.014,1.313-.43,1.29-1.106-.236-7.086,2.991-8.625,9.08-8.987.61-.037.923-.282.968-1.014v-7.927c-.056-.568-.39-.832-.968-.876h-4.84ZM52.367,24.426c-.628.018-.914.417-.921.968v7.697c-.003.786.486,1.127,1.013,1.153,6.465.36,8.631,2.209,8.756,9.033.002.692.493,1.059,1.106,1.06h7.421c.631-.024,1.141-.444,1.105-1.106v-4.885c0-7.688-6.224-13.918-13.917-13.918h-4.563Z"/><path class="i" d="M12.318,63.358c0,3.402-2.758,6.159-6.159,6.159s-6.159-2.758-6.159-6.159,4.886-7.962,6.159-13.206c0,0,6.159,9.804,6.159,13.206Z"/><path class="f" d="M74.778,76.033c-1.696,2.95-4.88,4.936-8.527,4.936-5.428,0-9.829-4.401-9.829-9.829s7.798-12.707,9.829-21.074c0,0,3.166,5.04,5.904,10.391"/><path class="g" d="M82.227,68.312c0,2.699-2.188,4.887-4.887,4.887s-4.887-2.188-4.887-4.887,3.877-6.317,4.887-10.478c0,0,4.887,7.779,4.887,10.478Z"/><circle class="f" cx="50.727" cy="51.291" r="3"/><circle class="e" cx="16.727" cy="57.291" r="3"/><circle class="h" cx="74.227" cy="50.791" r="1.5"/><path class="i" d="M24.623,0c-1.344,0-2.396.599-2.396,1.338v3.548c0,.739,1.052,1.337,2.396,1.337h23.919c1.345,0,2.397-.598,2.397-1.337V1.338c0-.739-1.052-1.338-2.397-1.338h-23.919Z"/><circle class="i" cx="14.727" cy="48.291" r="1.5"/><circle class="i" cx="55.727" cy="60.291" r="1.5"/></g></g></svg>