<?xml version="1.0" encoding="UTF-8"?><svg id="b" xmlns="http://www.w3.org/2000/svg" viewBox="0 0 137 137"><defs><style>.d{fill:#3b6db1;}.d,.e{stroke-width:0px;}.e{fill:#fff;}</style></defs><g id="c"><rect class="e" y="0" width="137" height="137" rx="17.157" ry="17.157"/><path class="d" d="M130.156,116.797c-.248-1.232-1.853-1.584-2.864-2.056-2.248-1.049-3.673-1.714-5.921-2.762-1.033-.482-2.065-.964-3.098-1.445-.732-.342-2.163-.745-2.493-1.579-.603-1.521,2.184-3.318,3.12-4.064,1.776-1.416,3.703-2.746,5.365-4.294,1.53-1.425,1.251-3.75.565-4.431-.99-.984-2.465-1.291-3.798-1.125-1.725.216-2.821,1.176-4.069,2.307-.92.833-2.257,2.168-3.489,1.139-1.041-.87-1.601-2.269-2.478-3.292-1.103-1.288-2.629-1.884-4.313-1.582-2.009.36-3.775,1.36-5.865,1.43-1.674.057-3.495-.333-4.538-1.753-.725-.987-1.178-2.549-.466-3.661.89-1.391,2.724-1.099,4.051-.657,1.748.583,3.198,1.702,4.824,2.524,1.514.766,3.168,1.321,4.874,1.4,3.417.16,6.185-2.56,5.424-6.053-.748-3.43-4.381-5.747-4.336-9.395.021-1.648.721-3.166,1.919-4.285.791-.738,1.586-3.023.578-3.3-1.878-.514-44.001.713-44.649-.372-.33-.552-.085-2.436-.051-3.045.049-.868.128-1.736.239-2.599.203-1.569.518-3.128.914-4.66.229-.886.495-1.759.789-2.624l.215-.579c1.831-5.323,6.192-12.147,7.645-15.053,1.346-2.692,3.52-5.278,2.558-7.814-1.023-2.698-2.436-8.34-2.436-8.34-.583-2.618-.1-5.374,1.462-7.607.638-.913-.226-2.073-1.208-2.105-12.432-.411-24.871-.619-37.311-.616-6.153.002-12.305.054-18.457.157-2.911.049-5.948-.126-8.839.237-2.811.353-3.663,2.503-4.264,4.96-1.379,5.644-2.711,11.516-2.019,17.357.588,4.963,2.77,9.373,5.338,13.593,2.43,3.992,5.219,7.894,6.777,12.338,1.802,5.142,1.31,10.422-.293,15.548-.959,3.066-2.234,6.019-3.544,8.948-1.29,2.883-2.827,5.792-3.466,8.908-.321,1.565-.363,3.092-.113,4.671.133.84.191,1.762.455,2.573.565,1.736,2.132,1.657,3.576,1.307.202.045.425.048.671-.016,6.459-1.688,12.977.21,19.071,2.396,6.357,2.28,12.645,5.01,19.429,5.708,2.694.277,8.091.4,7.954-3.626-.023-.693-.437-1.113-1.039-1.365l-6.909-2.604c-.654-.273-2.29-.711-2.235-1.485.007-.099.15-.446,1.538-.661,3.67-.567,7.501.745,10.484,2.929,3.314,2.425,4.984,6.35,7.606,9.403,2.504,2.915,6.459,5.234,10.395,4.078,1.789-.526,3.296-1.711,5.069-2.255,1.839-.565,3.079.472,4.379,1.649,1.312,1.188,2.612,2.232,4.413,2.498,1.554.229,3.287-.144,4.186-1.55,1.176-1.839.075-3.516-.164-5.404-.187-1.474,1.542-2.169,2.768-2.074.433.034.856.136,1.273.27l1.048.417c1.147.548,2.236,1.31,3.278,1.891,1.986,1.108,4.029,2.114,6.117,3.014,2.032.875,3.276,1.284,5.382,1.965,1.664.538,3.272.926,5.03.691,1.417-.188,2.908-.761,3.63-2.083.331-.606.45-1.359.313-2.037Z"/><path class="e" d="M29.236,21.183h6.436v15.225h17.474v-15.225h6.436v36.624h-6.436v-15.434h-17.474v15.434h-6.436V21.183Z"/><path class="e" d="M31.646,92.343l3.764-4.476c3.407,2.95,6.866,4.629,11.241,4.629,3.866,0,6.306-1.832,6.306-4.477v-.101c0-2.543-1.425-3.917-8.037-5.443-7.578-1.83-11.85-4.069-11.85-10.63v-.102c0-6.104,5.086-10.326,12.156-10.326,5.187,0,9.309,1.578,12.92,4.477l-3.358,4.73c-3.205-2.39-6.41-3.662-9.664-3.662-3.663,0-5.798,1.882-5.798,4.222v.102c0,2.746,1.627,3.968,8.493,5.595,7.529,1.832,11.394,4.527,11.394,10.428v.101c0,6.664-5.239,10.631-12.716,10.631-5.443,0-10.581-1.882-14.853-5.697Z"/></g></svg>