<?xml version="1.0" encoding="UTF-8"?><svg id="b" xmlns="http://www.w3.org/2000/svg" viewBox="0 0 70.265 91.59"><defs><style>.e,.f,.g{fill:none;stroke:#fff;stroke-linejoin:round;}.e,.g{stroke-width:3.5px;}.f{stroke-width:2px;}.f,.g{stroke-linecap:round;}.h{fill:#70c6ce;}.h,.i{stroke-width:0px;}.i{fill:#041e41;}</style></defs><g id="c"><g id="d"><path class="f" d="M38.727,44.929s6.513,2.943,6.715,8.655"/><path class="f" d="M47.977,53.584s1.729-5.078,7.464-5.622"/><path class="f" d="M46.631,53.584s.024-6.506,2.596-9.078"/><path class="f" d="M16.676,50.718s-.368-1.987,1.237-2.618c1.604-.632,2.178-.115,3.169-1.619.995-1.506,5.654-3.383,8.17.274"/><path class="f" d="M23.657,51.531s-.124-2.015,1.545-2.446c1.669-.431,2.351.282,3.344-1.22.74-1.12,3.111-1.902,5.011-1.154,1.551.61,2.788,2.237,2.569,5.531"/><path class="h" d="M54.7,91.59H15.7v-5s4-5.144,4-8.072-4-8.928-4-8.928v-17h14s2,2,6,2,6-2,6-2h13v17s-5,6-5,9,5,7.924,5,7.924v5.076Z"/><path class="e" d="M49.828,16.422c0,8.103-6.568,14.673-14.671,14.673s-14.673-6.57-14.673-14.673S27.054,1.75,35.157,1.75s14.671,6.57,14.671,14.672Z"/><path class="g" d="M14.813,66.702c-3.096,0-8.012,1.124-8.012,8.721,0,8.942,2.046,10.236,4.556,10.431,4.507.349,8.977-.759,8.96-7.607-.017-6.361-3.253-7.268-5.643-7.367h-2.682"/><path class="g" d="M55.5,66.702c3.096,0,8.012,1.124,8.012,8.721,0,8.942-2.046,10.236-4.556,10.431-4.507.349-8.977-.759-8.96-7.607.017-6.361,3.253-7.268,5.643-7.367h2.682"/><path class="e" d="M63.497,76.672c.388-.065.778-.138,1.036-.203,4.348-1.09,4.167-5.971,3.824-8.091-1.008-6.212-4.394-16.318-6.484-21.992-3.643-9.894-14.153-12.465-26.734-12.465s-23.111,2.565-26.735,12.465c-2.079,5.679-5.375,15.675-6.483,21.992-.372,2.115-.525,7.002,3.823,8.091.177.045.62.138,1.077.233"/><path class="i" d="M34.837,66.136c-.038.299-.034.631-.031.983.001.123.003.252.003.387,0,.216.176.391.391.391s.391-.175.391-.391c0-.067,0-.129,0-.194,1.675.228,3.2-.485,3.616-3.479-2.446-.153-4.217.862-4.369,2.303Z"/><path class="i" d="M40.745,71.389c0-1.588-.995-3.439-3.088-3.439-1.359,0-1.292.683-2.457.683s-1.098-.683-2.457-.683c-2.093,0-3.087,1.851-3.087,3.439,0,2.728,1.997,5.973,4.237,5.973,1.207,0,1.004-.241,1.307-.241s.1.241,1.308.241c2.24,0,4.237-3.218,4.237-5.973ZM30.833,71.392c-.162-.712.223-2.703,1.91-2.703.836,0,1.063.75.836,1.338-.51,1.319-2.428,2.758-2.746,1.364Z"/></g></g></svg>