<?xml version="1.0" encoding="UTF-8"?><svg id="b" xmlns="http://www.w3.org/2000/svg" viewBox="0 0 177.314 107.31"><defs><style>.d{fill:#2a4060;}.d,.e,.f{stroke-width:0px;}.e{fill:#d6b125;}.f{fill:#3b6db1;}</style></defs><g id="c"><path class="f" d="M123.428,102.731c-.248-1.232-1.853-1.584-2.864-2.056-2.248-1.049-4.495-2.097-6.743-3.146-1.033-.482-2.065-.964-3.098-1.445-.732-.341-2.163-.745-2.493-1.578-.603-1.521,2.184-3.319,3.12-4.065,1.776-1.416,3.704-2.745,5.365-4.294,1.228-1.145,1.825-3.068.565-4.431-.948-1.026-2.465-1.291-3.798-1.124-1.725.216-2.821,1.176-4.069,2.306-.92.833-2.257,2.169-3.489,1.139-1.041-.869-1.601-2.269-2.477-3.292-1.103-1.288-2.629-1.884-4.313-1.582-2.009.36-3.775,1.36-5.865,1.43-1.674.057-3.495-.332-4.538-1.753-.725-.987-1.178-2.549-.466-3.661.89-1.39,2.724-1.099,4.051-.656,1.748.583,3.198,1.701,4.824,2.524,1.514.766,3.169,1.321,4.874,1.4,3.417.16,6.185-2.56,5.424-6.053-.748-3.43-4.381-5.747-4.336-9.395.02-1.649.721-3.166,1.919-4.285.79-.739.379-2.105-.629-2.381-7.357-2.015-14.961-3.133-22.588-3.297-3.749-.081-7.504.068-11.235.448-1.897.193-3.789.444-5.671.749-.958.155-3.176.847-3.825-.238-.33-.552-.209-1.389-.175-1.997.049-.868.128-1.736.239-2.599.203-1.57.518-3.128.914-4.66.469-1.813,1.083-3.58,1.803-5.304-.903-.354-1.735-.836-2.484-1.423-.699,1.637-1.304,3.314-1.791,5.02-.902,3.166-1.685,6.74-1.545,10.051.073,1.74.829,3.321,2.53,3.972,1.515.58,3.168.237,4.713-.019,3.888-.645,7.821-1.011,11.759-1.128,8.246-.245,16.482.657,24.484,2.636-1.612,2.698-1.611,6.122-.031,8.955.912,1.634,5.598,6.873,1.797,8.01-1.475.441-3.285-.193-4.604-.841-1.762-.867-3.331-2.006-5.185-2.707-1.799-.68-3.843-.929-5.622-.059-1.666.815-2.663,2.492-2.76,4.317-.212,3.986,3.156,6.779,6.858,7.148,2.232.223,4.435-.358,6.522-1.088.745-.261,1.585-.632,2.315-.162.547.353.924.981,1.279,1.512.831,1.243,1.665,2.598,3.079,3.24,1.936.88,3.806.056,5.342-1.194,1.169-.95,2.163-2.42,3.829-2.312.249.016.679.101.818.207-.069.002-.168.303-.219.366-.344.43-.875.751-1.303,1.092-2.114,1.684-4.517,3.254-6.384,5.213-1.628,1.709-2.739,4.242-1.033,6.31.757.918,1.838,1.399,2.892,1.892,1.336.624,2.672,1.248,4.009,1.872,2.398,1.12,4.796,2.24,7.195,3.36-.418.337-1.175.405-1.735.423-1.764.058-3.483-.685-5.118-1.263-4.107-1.452-7.981-3.363-11.744-5.546-2.995-1.737-7.237-3.15-9.839.08-1.294,1.606-.952,3.385-.427,5.219.147.515.458,1.315-.042,1.725-.397.326-1.13.192-1.576.082-1.594-.394-2.686-1.908-3.94-2.87-1.478-1.133-3.147-1.664-5.003-1.32-1.79.332-3.297,1.432-4.944,2.133-1.674.713-3.382.601-4.997-.228-3.651-1.876-5.431-5.791-7.829-8.908-2.331-3.029-5.42-5.257-9.113-6.322-1.984-.572-4.109-.805-6.167-.617-1.858.169-4.302.553-4.799,2.71-.539,2.341,1.903,3.564,3.658,4.297,1.996.834,3.991,1.668,5.987,2.502-1.477.685-5.605-.032-6.356-.16-3.139-.533-6.19-1.48-9.189-2.534-5.891-2.071-11.701-4.698-17.922-5.623-3.478-.517-6.962-.474-10.378.418-.246.064-.437.176-.588.314-.167.041-.335.077-.504.102-.054-.295-.087-.593-.124-.891-.148-1.195-.356-2.346-.232-3.558.137-1.34.56-2.653,1.036-3.908,1.901-5.014,4.516-9.713,6.145-14.843,1.553-4.889,2.234-10.103.968-15.138-1.103-4.389-3.485-8.317-5.856-12.119-2.316-3.712-4.766-7.455-6.025-11.686-1.59-5.341-.855-10.967.318-16.313.275-1.253.575-2.501.88-3.747.213-.87.349-2.388,1.283-2.814.987-.45,2.49-.227,3.551-.25,1.471-.031,2.942-.059,4.413-.085,5.884-.101,11.769-.155,17.655-.163,12.33-.016,24.659.181,36.983.572-.881,2.071-1.147,4.381-.831,6.625.209,1.486.678,2.926,1.405,4.242.759,1.375,1.839,2.409,2.931,3.51.667.672,1.048,1.359,1.095,2.108.991.262,1.913.671,2.75,1.203.079-.38.128-.771.124-1.177-.018-1.891-1.124-3.302-2.426-4.553-1.124-1.08-2.062-2.223-2.604-3.707-1.085-2.972-.718-6.277,1.099-8.875.638-.913-.226-2.073-1.208-2.106C58.645.205,46.206-.003,33.767,0c-6.153.002-12.305.054-18.457.157-2.911.049-5.948-.126-8.839.237-2.811.353-3.663,2.503-4.264,4.96C.829,10.998-.503,16.871.189,22.712c.588,4.963,2.77,9.372,5.338,13.593,2.43,3.992,5.219,7.894,6.777,12.338,1.802,5.142,1.31,10.422-.293,15.549-.959,3.066-2.234,6.019-3.544,8.948-1.29,2.883-2.827,5.792-3.466,8.908-.321,1.566-.363,3.092-.113,4.671.133.84.191,1.762.455,2.573.565,1.737,2.131,1.657,3.576,1.307.202.045.425.048.671-.016,6.459-1.688,12.977.21,19.071,2.395,6.357,2.28,12.645,5.01,19.429,5.708,2.694.277,8.091.401,7.954-3.626-.024-.693-.437-1.113-1.039-1.365l-6.816-2.846c-.654-.273-1.913-.588-2.329-1.242-.011-.018-.018-.028-.027-.043.068-.046.22-.128.237-.131.442-.09.859-.233,1.312-.295,3.679-.502,7.516.554,10.5,2.737,3.314,2.425,4.984,6.35,7.606,9.403,2.504,2.915,6.459,5.234,10.395,4.078,1.789-.526,3.296-1.711,5.069-2.255,1.839-.565,3.079.472,4.379,1.649,1.311,1.188,2.612,2.232,4.413,2.498,1.554.229,3.287-.144,4.186-1.551,1.176-1.838.075-3.515-.164-5.403-.187-1.474,1.542-2.17,2.768-2.074,2.032.158,3.878,1.618,5.599,2.578,1.986,1.108,4.029,2.114,6.117,3.014,2.032.875,4.099,1.668,6.205,2.348,1.664.538,3.272.926,5.029.692,1.417-.189,2.909-.761,3.63-2.083.331-.606.45-1.359.313-2.037Z"/><path class="d" d="M41.961,17.848h3.22v7.616h8.742v-7.616h3.22v18.322h-3.22v-7.721h-8.742v7.721h-3.22v-18.322Z"/><path class="d" d="M60.724,29.312v-.052c0-3.952,2.801-7.198,6.754-7.198,4.397,0,6.622,3.455,6.622,7.433,0,.288-.027.576-.052.89h-10.156c.34,2.251,1.937,3.507,3.978,3.507,1.545,0,2.644-.576,3.743-1.649l1.858,1.649c-1.309,1.57-3.116,2.591-5.654,2.591-4.005,0-7.094-2.905-7.094-7.172ZM70.959,28.291c-.209-2.042-1.413-3.638-3.507-3.638-1.937,0-3.298,1.492-3.586,3.638h7.094Z"/><path class="d" d="M76.349,32.192v-.053c0-2.984,2.356-4.449,5.731-4.449,1.544,0,2.644.235,3.717.576v-.341c0-1.963-1.204-3.01-3.429-3.01-1.544,0-2.696.34-3.952.864l-.864-2.487c1.544-.681,3.036-1.125,5.234-1.125,2.068,0,3.613.549,4.581,1.544,1.021.994,1.492,2.46,1.492,4.266v8.192h-3.089v-1.728c-.941,1.126-2.381,2.016-4.501,2.016-2.592,0-4.921-1.492-4.921-4.266ZM85.849,31.197v-.943c-.811-.314-1.884-.55-3.141-.55-2.041,0-3.245.864-3.245,2.304v.052c0,1.335,1.177,2.094,2.696,2.094,2.094,0,3.69-1.204,3.69-2.958Z"/><path class="d" d="M92.809,17.063h3.193v19.107h-3.193v-19.107Z"/><path class="d" d="M100.791,32.348v-7.276h-1.754v-2.722h1.754v-3.795h3.166v3.795h3.717v2.722h-3.717v6.779c0,1.23.628,1.728,1.701,1.728.707,0,1.336-.157,1.964-.471v2.591c-.785.445-1.649.707-2.853.707-2.329,0-3.978-1.021-3.978-4.057Z"/><path class="d" d="M110.866,17.063h3.193v7.407c.891-1.282,2.173-2.408,4.319-2.408,3.114,0,4.921,2.094,4.921,5.287v8.821h-3.168v-7.852c0-2.146-1.073-3.376-2.957-3.376-1.833,0-3.116,1.282-3.116,3.429v7.8h-3.193v-19.107Z"/><path class="d" d="M136.304,22.35h3.298l-5.497,14.186c-1.099,2.853-2.329,3.9-4.554,3.9-1.308,0-2.302-.314-3.272-.863l1.073-2.33c.576.314,1.204.523,1.858.523.889,0,1.44-.393,1.962-1.57l-5.758-13.845h3.402l3.874,10.26,3.612-10.26Z"/><path class="d" d="M110.867,62.571l1.937-2.303c1.753,1.518,3.533,2.382,5.785,2.382,1.989,0,3.245-.943,3.245-2.304v-.052c0-1.308-.733-2.016-4.135-2.801-3.9-.942-6.098-2.094-6.098-5.47v-.053c0-3.141,2.617-5.313,6.255-5.313,2.669,0,4.79.812,6.648,2.304l-1.728,2.434c-1.649-1.23-3.298-1.884-4.973-1.884-1.885,0-2.984.969-2.984,2.172v.053c0,1.413.837,2.042,4.37,2.879,3.874.943,5.863,2.33,5.863,5.366v.052c0,3.429-2.696,5.471-6.543,5.471-2.801,0-5.445-.969-7.643-2.932Z"/><path class="d" d="M129.003,61.419v-7.276h-1.754v-2.722h1.754v-3.795h3.166v3.795h3.717v2.722h-3.717v6.779c0,1.23.628,1.728,1.701,1.728.707,0,1.336-.157,1.964-.471v2.591c-.785.445-1.649.707-2.853.707-2.329,0-3.978-1.021-3.978-4.057Z"/><path class="d" d="M138.162,61.262v-.053c0-2.984,2.356-4.449,5.733-4.449,1.544,0,2.644.235,3.717.576v-.341c0-1.963-1.205-3.01-3.429-3.01-1.545,0-2.697.34-3.953.864l-.864-2.487c1.545-.681,3.037-1.125,5.235-1.125,2.068,0,3.612.549,4.579,1.544,1.021.995,1.493,2.46,1.493,4.266v8.192h-3.089v-1.728c-.943,1.126-2.382,2.016-4.502,2.016-2.592,0-4.921-1.492-4.921-4.266ZM147.664,60.267v-.943c-.812-.314-1.885-.55-3.141-.55-2.042,0-3.246.864-3.246,2.304v.052c0,1.335,1.178,2.094,2.697,2.094,2.093,0,3.69-1.204,3.69-2.958Z"/><path class="d" d="M154.989,61.419v-7.276h-1.753v-2.722h1.753v-3.795h3.168v3.795h3.717v2.722h-3.717v6.779c0,1.23.628,1.728,1.701,1.728.707,0,1.334-.157,1.962-.471v2.591c-.785.445-1.649.707-2.853.707-2.329,0-3.978-1.021-3.978-4.057Z"/><path class="d" d="M163.939,58.382v-.052c0-3.952,2.801-7.198,6.754-7.198,4.397,0,6.622,3.455,6.622,7.433,0,.288-.027.576-.052.89h-10.156c.34,2.251,1.937,3.508,3.978,3.508,1.545,0,2.644-.576,3.743-1.649l1.858,1.649c-1.309,1.57-3.116,2.591-5.654,2.591-4.005,0-7.094-2.905-7.094-7.172ZM174.173,57.362c-.209-2.042-1.413-3.638-3.507-3.638-1.937,0-3.298,1.492-3.586,3.638h7.094Z"/><path class="d" d="M130.076,93.705c.72-8.963-5.206-9.229-5.65-13.353-.433,5.904,4.938,7.654,5.65,13.353Z"/><path class="d" d="M129.691,87.785c.402-2.534,4.025-1.276,3.653-10.071-1.081,6.835-4.255,4.59-3.653,10.071Z"/><path class="e" d="M130.11,82.313c0,.916-.743,1.659-1.659,1.659s-1.659-.743-1.659-1.659.743-1.659,1.659-1.659,1.659.743,1.659,1.659Z"/><path class="d" d="M136.685,87.914h1.004v2.376h2.727v-2.376h1.004v5.714h-1.004v-2.408h-2.727v2.408h-1.004v-5.714Z"/><path class="d" d="M142.538,91.49v-.016c0-1.233.873-2.245,2.106-2.245,1.371,0,2.065,1.078,2.065,2.318,0,.09-.008.18-.016.278h-3.167c.106.702.604,1.094,1.241,1.094.482,0,.824-.18,1.167-.514l.58.514c-.408.49-.971.808-1.763.808-1.249,0-2.212-.906-2.212-2.237ZM145.73,91.171c-.065-.637-.441-1.135-1.094-1.135-.604,0-1.029.465-1.118,1.135h2.212Z"/><path class="d" d="M147.412,92.388v-.016c0-.931.735-1.388,1.788-1.388.482,0,.824.073,1.159.18v-.106c0-.612-.375-.939-1.069-.939-.482,0-.841.106-1.233.269l-.269-.776c.482-.212.947-.351,1.633-.351.645,0,1.127.171,1.429.482.318.31.465.767.465,1.331v2.555h-.963v-.539c-.294.351-.743.629-1.404.629-.808,0-1.535-.465-1.535-1.331ZM150.375,92.077v-.294c-.253-.098-.588-.171-.98-.171-.637,0-1.012.269-1.012.718v.016c0,.416.367.653.841.653.653,0,1.151-.376,1.151-.923Z"/><path class="d" d="M152.546,87.669h.996v5.959h-.996v-5.959Z"/><path class="d" d="M155.036,92.437v-2.269h-.547v-.849h.547v-1.184h.988v1.184h1.159v.849h-1.159v2.114c0,.384.196.539.531.539.22,0,.416-.049.612-.147v.808c-.245.139-.514.22-.89.22-.726,0-1.241-.318-1.241-1.265Z"/><path class="d" d="M158.178,87.669h.996v2.31c.278-.4.678-.751,1.347-.751.971,0,1.535.653,1.535,1.649v2.751h-.988v-2.449c0-.669-.335-1.053-.922-1.053-.571,0-.971.4-.971,1.069v2.433h-.996v-5.959Z"/><path class="d" d="M135.659,81.843v-.021c0-2.093,1.651-3.807,3.922-3.807s3.901,1.693,3.901,3.786v.021c0,2.093-1.651,3.807-3.922,3.807s-3.901-1.693-3.901-3.786ZM141.789,81.843v-.021c0-1.262-.925-2.313-2.229-2.313s-2.208,1.031-2.208,2.292v.021c0,1.262.925,2.313,2.229,2.313s2.208-1.031,2.208-2.292Z"/><path class="d" d="M143.955,82.716v-.021c0-1.609,1.23-2.934,2.955-2.934,1.062,0,1.725.358,2.25.946l-.978,1.052c-.358-.379-.715-.62-1.283-.62-.799,0-1.367.705-1.367,1.535v.021c0,.862.557,1.556,1.43,1.556.536,0,.904-.231,1.293-.599l.936.946c-.547.599-1.178,1.031-2.303,1.031-1.693,0-2.934-1.304-2.934-2.913Z"/><path class="d" d="M149.707,77.826h1.598v2.839c.368-.473.841-.904,1.651-.904,1.209,0,1.914.799,1.914,2.093v3.649h-1.598v-3.144c0-.757-.358-1.146-.967-1.146s-.999.389-.999,1.146v3.144h-1.598v-7.676Z"/><path class="d" d="M155.291,84.756l.684-1.052c.61.442,1.251.673,1.777.673.463,0,.673-.168.673-.421v-.021c0-.347-.547-.463-1.167-.652-.789-.231-1.683-.599-1.683-1.693v-.021c0-1.146.925-1.788,2.061-1.788.715,0,1.493.242,2.103.652l-.61,1.104c-.557-.326-1.115-.526-1.525-.526-.389,0-.589.168-.589.389v.021c0,.315.536.463,1.146.673.789.263,1.704.642,1.704,1.672v.021c0,1.251-.936,1.819-2.156,1.819-.789,0-1.672-.263-2.419-.852Z"/><path class="d" d="M160.486,79.866h1.598v.799c.368-.473.841-.904,1.651-.904,1.209,0,1.914.799,1.914,2.093v3.649h-1.598v-3.144c0-.757-.358-1.146-.967-1.146s-.999.389-.999,1.146v3.144h-1.598v-5.636Z"/><path class="d" d="M166.238,82.716v-.021c0-1.609,1.146-2.934,2.787-2.934,1.882,0,2.745,1.462,2.745,3.06,0,.126-.01.273-.021.421h-3.922c.158.726.662,1.104,1.378,1.104.536,0,.925-.168,1.367-.578l.915.81c-.526.652-1.283,1.052-2.303,1.052-1.693,0-2.944-1.188-2.944-2.913ZM170.213,82.243c-.095-.715-.515-1.199-1.188-1.199-.662,0-1.094.473-1.22,1.199h2.408Z"/><path class="d" d="M172.431,79.866h1.598v1.136c.326-.778.852-1.283,1.798-1.241v1.672h-.084c-1.062,0-1.714.641-1.714,1.987v2.082h-1.598v-5.636Z"/></g></svg>