<?xml version="1.0" encoding="UTF-8"?><svg id="b" xmlns="http://www.w3.org/2000/svg" viewBox="0 0 42.257 58.103"><defs><style>.d{fill:none;stroke:#4c4c4c;stroke-linejoin:round;stroke-width:2.641px;}</style></defs><g id="c"><rect class="d" x="1.321" y="26.41" width="39.616" height="30.372" rx="2" ry="2"/><path class="d" d="M7.923,26.41v-11.885C7.923,7.233,13.835,1.321,21.128,1.321h0c7.293,0,13.205,5.912,13.205,13.205v11.885"/><path class="d" d="M19.861,33.16c-1.872.435-3.396,1.942-3.853,3.81-.61,2.494.559,4.758,2.479,5.875v4.694c0,1.459,1.182,2.641,2.641,2.641h0c1.459,0,2.641-1.182,2.641-2.641v-4.694c1.572-.915,2.641-2.599,2.641-4.549,0-3.33-3.082-5.94-6.549-5.135Z"/></g></svg>