<?xml version="1.0" encoding="UTF-8"?><svg id="b" xmlns="http://www.w3.org/2000/svg" viewBox="0 0 62.378 101.166"><defs><style>.e{fill:none;stroke:#fff;stroke-miterlimit:10;stroke-width:3.512px;}.f{fill:#70c6ce;}.f,.g,.h{stroke-width:0px;}.g{fill:#fff;}.h{fill:#041e41;}</style></defs><g id="c"><g id="d"><path class="g" d="M2.925,93.043h30.392s.571-6.769.571-6.769c.221-2.617,1.986-4.739,3.942-4.739,2.751,0,4.383,2.122,5.413,4.739l2.667,6.769h2.028c1.137,0,2.058.636,2.058,1.412v5.125H.867v-5.125c0-.777.919-1.412,2.058-1.412Z"/><path class="f" d="M43.483,86.881c6.656-2.453,12.589-7.721,16.026-15.07,6.129-13.111,2.11-28.08-8.901-34.469.186-2.488-1.148-4.945-3.542-6.066-1.133-.53-2.345-.683-3.497-.516l4.481-9.584c.276-.588.252-1.182-.051-1.323l-8.103-3.787c-.302-.142-.771.221-1.045.807l-13.631,29.15c-.273.591-.251,1.181.052,1.323l.823.385-3.385,7.242c-.192.413-.178.829.035.925l5.687,2.66c.213.1.54-.154.736-.569l3.384-7.239.822.384c.303.144.773-.221,1.048-.81l4.767-10.196c.398.646.916,1.224,1.544,1.695l-2.985,6.384c3.707-3.315,7.694-4.699,10.775-3.257,5.336,2.495,5.929,12.496,1.325,22.34-4.604,9.848-12.66,15.805-17.994,13.313-2.073-.97-3.426-3.077-4.04-5.864l2.862,1.339c.444.205,1.148-.358,1.568-1.261l.511-1.093c.424-.902.401-1.803-.041-2.011l-10.849-5.071c-.446-.208-1.147.354-1.569,1.258l-.509,1.094c-.424.902-.405,1.802.039,2.008l5.96,2.788-1.275,2.726-6.421-3.001c-.443-.208-.974-.017-1.178.427l-.253.537c-.208.443-.016.972.429,1.182l6.42,3-2.333,4.988c1.324,1.042,2.776,1.946,4.351,2.686,2.633,1.231,5.4,1.888,8.184,2.045l.178-2.105c.221-2.617,1.986-4.739,3.942-4.739,2.751,0,4.383,2.122,5.413,4.739l.239.607ZM49.046,39.029c-1.188,2.541-4.212,3.638-6.752,2.447-2.539-1.185-3.635-4.208-2.448-6.75,1.189-2.537,4.208-3.636,6.749-2.445,2.542,1.186,3.639,4.208,2.451,6.749Z"/><rect class="g" x="0" y="98.395" width="50.864" height="2.771"/><path class="e" d="M54.908,5.891l-8.729-4.08c-.327-.152-.729.017-.898.382l-3.995,8.543-.379-.177c-.399-.185-.889.023-1.099.465l-.394.845c-.209.444-.054.957.344,1.143l.38.178-1.197,2.56c-.171.365-.043.784.281.935l8.732,4.081c.326.152.728-.02.899-.382l1.197-2.561.378.177c.4.186.892-.022,1.099-.465l.394-.847c.209-.445.052-.954-.347-1.14l-.378-.177,3.993-8.544c.168-.363.045-.782-.283-.935Z"/><path class="h" d="M20.709,76.709c-.425.906-1.126,1.47-1.571,1.261l-10.849-5.073c-.443-.208-.463-1.108-.041-2.012l.511-1.088c.422-.907,1.126-1.47,1.569-1.261l10.849,5.073c.446.204.46,1.107.04,2.011l-.508,1.089Z"/><path class="h" d="M34.401,73.554c-.287.61-.879.937-1.323.731l-27.832-13.013c-.445-.208-.574-.873-.287-1.482l.346-.74c.287-.613.88-.939,1.321-.731l27.831,13.01c.447.21.576.873.289,1.484l-.344.74Z"/><path class="g" d="M24.531,41.905l10.285-22.001c.209-.445.738-.636,1.183-.429l11.887,5.555c.44.208.633.737.427,1.182l-2.679,5.73c-2.299-.557-4.745.561-5.787,2.784-1.04,2.227-.327,4.823,1.573,6.229l-3.396,7.263c-.208.445-.735.634-1.183.428l-11.882-5.556c-.445-.209-.636-.738-.427-1.185Z"/></g></g></svg>