<svg id="Layer_1" data-name="Layer 1" xmlns="http://www.w3.org/2000/svg" viewBox="0 0 444 665.4" width="444" height="665.4">
  <defs>
    <style>
      .cls-1 {
        fill: #b2b2b2;
      }

      .cls-2 {
        fill: #dbdbdb;
      }
    </style>
  </defs>
  <title>placeholder-tall</title>
  <rect class="cls-1" width="444" height="665.36"/>
  <g>
    <path class="cls-2" d="M312.6,229.9H131.4a18,18,0,0,0-18,18V387.6a18.1,18.1,0,0,0,18,18H312.6a18.1,18.1,0,0,0,18-18V247.9A18,18,0,0,0,312.6,229.9Zm3.9,159.7a2.3,2.3,0,0,1-2.3,2.3H129.8a2.3,2.3,0,0,1-2.3-2.3V247.8a2.3,2.3,0,0,1,2.3-2.3H314.2a2.3,2.3,0,0,1,2.3,2.3Z"/>
    <polygon class="cls-2" points="178.7 317.7 196.4 336.6 254.6 278.1 301.4 325.2 301.4 376.6 141.6 376.6 141.6 354.2 178.7 317.7"/>
    <circle class="cls-2" cx="164" cy="281.8" r="21.8"/>
  </g>
</svg>
